<svg width="16" height="16" viewBox="0 0 16 16" fill="none" xmlns="http://www.w3.org/2000/svg">
<path fill-rule="evenodd" clip-rule="evenodd" d="M15.5 1.5C15.5 2.32843 14.8284 3 14 3C13.8272 3 13.6612 2.97077 13.5066 2.91698L11.274 5.7078C11.4172 5.9377 11.5 6.20918 11.5 6.5C11.5 7.32843 10.8284 8 10 8C9.17157 8 8.5 7.32843 8.5 6.5C8.5 6.26838 8.5525 6.04901 8.64625 5.85316L6.64684 3.85375C6.45099 3.9475 6.23162 4 6 4C5.7684 4 5.54905 3.94751 5.35321 3.85378L3.35378 5.85321C3.44751 6.04905 3.5 6.2684 3.5 6.5C3.5 7.32843 2.82843 8 2 8C1.17157 8 0.5 7.32843 0.5 6.5C0.5 5.67157 1.17157 5 2 5C2.23154 5 2.45083 5.05246 2.64663 5.14615L4.64615 3.14663C4.55246 2.95083 4.5 2.73154 4.5 2.5C4.5 1.67157 5.17157 1 6 1C6.82843 1 7.5 1.67157 7.5 2.5C7.5 2.73152 7.44755 2.95079 7.35388 3.14658L9.35342 5.14612C9.54921 5.05245 9.76848 5 10 5C10.1728 5 10.3388 5.02922 10.4932 5.08298L12.7259 2.29208C12.5827 2.06221 12.5 1.79077 12.5 1.5C12.5 0.671573 13.1716 0 14 0C14.8284 0 15.5 0.671573 15.5 1.5ZM10.5 6.5C10.5 6.60355 10.4685 6.69975 10.4146 6.77955C10.4053 6.79329 10.3954 6.80653 10.3848 6.81924C10.2931 6.92967 10.1548 7 10 7C9.87919 7 9.76838 6.95715 9.68195 6.88582C9.6726 6.87811 9.66354 6.87005 9.65477 6.86169C9.64916 6.85633 9.64367 6.85084 9.63831 6.84523C9.55262 6.75548 9.5 6.63388 9.5 6.5C9.5 6.22386 9.72386 6 10 6C10.2761 6 10.5 6.22386 10.5 6.5ZM2.38582 6.81805C2.37756 6.82807 2.3689 6.83776 2.35989 6.8471C2.26896 6.94137 2.14133 7 2 7C1.72386 7 1.5 6.77614 1.5 6.5C1.5 6.36188 1.556 6.23684 1.64654 6.14635C1.73702 6.05592 1.86198 6 2 6C2.27614 6 2.5 6.22386 2.5 6.5C2.5 6.62081 2.45715 6.73162 2.38582 6.81805ZM13.5854 1.22045C13.593 1.20914 13.6011 1.19815 13.6096 1.18753C13.7013 1.0732 13.8421 1 14 1C14.2761 1 14.5 1.22386 14.5 1.5C14.5 1.62136 14.4568 1.73263 14.3848 1.81923C14.2931 1.92967 14.1548 2 14 2C13.7239 2 13.5 1.77614 13.5 1.5C13.5 1.39645 13.5315 1.30025 13.5854 1.22045ZM6 3C6.27614 3 6.5 2.77614 6.5 2.5C6.5 2.22386 6.27614 2 6 2C5.72386 2 5.5 2.22386 5.5 2.5C5.5 2.77614 5.72386 3 6 3Z" fill="#333333"/>
<path fill-rule="evenodd" clip-rule="evenodd" d="M12.5 6.5C12.5 5.67157 13.1716 5 14 5C14.8284 5 15.5 5.67157 15.5 6.5V14.5C15.5 15.3284 14.8284 16 14 16C13.1716 16 12.5 15.3284 12.5 14.5V6.5ZM14 6C13.7239 6 13.5 6.22386 13.5 6.5V14.5C13.5 14.7761 13.7239 15 14 15C14.2761 15 14.5 14.7761 14.5 14.5V6.5C14.5 6.22386 14.2761 6 14 6Z" fill="#333333"/>
<path fill-rule="evenodd" clip-rule="evenodd" d="M0.5 10.5C0.5 9.67157 1.17157 9 2 9C2.82843 9 3.5 9.67157 3.5 10.5V14.5C3.5 15.3284 2.82843 16 2 16C1.17157 16 0.5 15.3284 0.5 14.5V10.5ZM2 10C1.72386 10 1.5 10.2239 1.5 10.5V14.5C1.5 14.7761 1.72386 15 2 15C2.27614 15 2.5 14.7761 2.5 14.5V10.5C2.5 10.2239 2.27614 10 2 10Z" fill="#333333"/>
<path fill-rule="evenodd" clip-rule="evenodd" d="M8.5 10.5C8.5 9.67157 9.17157 9 10 9C10.8284 9 11.5 9.67157 11.5 10.5V14.5C11.5 15.3284 10.8284 16 10 16C9.17157 16 8.5 15.3284 8.5 14.5V10.5ZM10 10C9.72386 10 9.5 10.2239 9.5 10.5V14.5C9.5 14.7761 9.72386 15 10 15C10.2761 15 10.5 14.7761 10.5 14.5V10.5C10.5 10.2239 10.2761 10 10 10Z" fill="#333333"/>
<path fill-rule="evenodd" clip-rule="evenodd" d="M4.5 7.5C4.5 6.67157 5.17157 6 6 6C6.82843 6 7.5 6.67157 7.5 7.5V14.5C7.5 15.3284 6.82843 16 6 16C5.17157 16 4.5 15.3284 4.5 14.5V7.5ZM6 7C5.72386 7 5.5 7.22386 5.5 7.5V14.5C5.5 14.7761 5.72386 15 6 15C6.27614 15 6.5 14.7761 6.5 14.5V7.5C6.5 7.22386 6.27614 7 6 7Z" fill="#333333"/>
</svg>
