<svg xmlns="http://www.w3.org/2000/svg" width="24" height="24" viewBox="0 0 24 24">
    <path fill="#C2C2C2" fill-rule="evenodd" d="M12 0c6.627 0 12 5.373 12 12s-5.373 12-12 12S0 18.627 0 12 5.373 0 12 0zm-.75 18.007a37.243 37.243 0 0 0-4.034.283c.965 2.226 2.419 3.759 4.035 4.125l-.001-4.408zm1.5 0v4.408c1.616-.367 3.069-1.9 4.034-4.124a36.983 36.983 0 0 0-4.034-.284zm-7.06.522l-.096.017c-.543.104-1.05.22-1.512.35A10.54 10.54 0 0 0 7.3 21.392c-.63-.809-1.174-1.776-1.61-2.863zm12.62 0l-.05.124c-.428 1.037-.954 1.961-1.56 2.738a10.515 10.515 0 0 0 3.218-2.495c-.49-.137-1.029-.26-1.607-.368zM4.515 12.75l-2.988-.001c.126 1.781.696 3.44 1.6 4.866a18.593 18.593 0 0 1 2.07-.52 18.2 18.2 0 0 1-.682-4.345zm17.96-.001h-2.988a18.15 18.15 0 0 1-.684 4.347c.76.147 1.455.322 2.072.519a10.439 10.439 0 0 0 1.6-4.866zm-11.224 0H6.015c.061 1.475.299 2.86.674 4.098 1.4-.196 2.946-.314 4.561-.342V12.75zm6.735 0H12.75v3.756c1.615.028 3.162.146 4.56.341a16.51 16.51 0 0 0 .675-4.096zM3.126 6.385a10.439 10.439 0 0 0-1.6 4.866h2.988a18.15 18.15 0 0 1 .684-4.347 18.29 18.29 0 0 1-2.072-.519zm14.185.768l-.075.011c-1.38.189-2.9.303-4.486.33v3.757h5.235a16.543 16.543 0 0 0-.674-4.098zm3.563-.768c-.617.197-1.313.372-2.07.52a18.19 18.19 0 0 1 .682 4.346h2.988a10.439 10.439 0 0 0-1.6-4.866zm-14.185.769l-.04.13a16.611 16.611 0 0 0-.634 3.967h5.235V7.494a38.155 38.155 0 0 1-4.561-.341zm.6-1.611l-.073.168c1.243.16 2.609.258 4.034.283V1.585c-1.574.357-2.995 1.822-3.96 3.957zm5.461-3.957v4.408a37.25 37.25 0 0 0 4.035-.283c-.966-2.226-2.42-3.758-4.035-4.125zM7.3 2.609l-.186.095a10.542 10.542 0 0 0-3.032 2.4c.49.137 1.029.26 1.607.368.437-1.088.981-2.055 1.612-2.863zm9.4 0l.141.186c.57.769 1.066 1.671 1.47 2.676.579-.107 1.117-.23 1.607-.367A10.54 10.54 0 0 0 16.7 2.608z"/>
</svg>
