<svg xmlns="http://www.w3.org/2000/svg" xmlns:xlink="http://www.w3.org/1999/xlink" width="16" height="16" viewBox="0 0 16 16">
    <defs>
        <circle id="a" cx="8" cy="8" r="8"/>
    </defs>
    <g fill="none" fill-rule="evenodd">
        <circle cx="8" cy="8" r="7.5"/>
        <path fill="none" d="M12.474 7.82c.057.002.117 0 .181-.006-.169-.016-.227-.047-.279-.088l-.008-.007.015.015.091.086zm.181-.006l.052-.007c-.036.001-.067 0-.096-.001zM13.7 4.138c.02.03.041.061.06.092-.057-.093-.057-.109-.059-.098v.001l-.001.005zm.06.092a2.97 2.97 0 0 1-.006-.01zm.062.776c-.345.025-.573-.07-.93-.303l-.036-.023c-.15-.096-.206-.12-.25-.12a.517.517 0 0 1-.381-.159c-.06-.063-.06-.063-.08-.092-.011-.013-.011-.013.007.007a5.566 5.566 0 0 1-.107-.112l-.063-.068a2.029 2.029 0 0 0-.162-.16c-.084-.076-.2-.12-.45-.177l-.068-.015c-.053.076-.091.195-.141.419l-.008.036-.01.04c.046.033.091.064.139.092l.642.387-.605.444a2.302 2.302 0 0 0-.155.127 1.154 1.154 0 0 0-.405.709 1.28 1.28 0 0 1-.025.153 1.269 1.269 0 0 1 1.455.248c.054.053.095.1.168.184l.014.017c.145.17.163.182.27.172a.53.53 0 0 1 .351.126l.061.053.017.017 1.158 1.088-.577.338c-.15.088-.31.155-.569.216-.11.01-.219.01-.36.008l-.106-.003c-.102-.002-.143-.003-.134-.007a3.209 3.209 0 0 0-.204.032l-.306.474-.44-.511.004.004-.156-.182a7.91 7.91 0 0 0-.265-.297c-.218.22-.52.332-.784.304-.042 0-.079-.002-.141-.005l-.036-.002c-.004 0-.004 0 .017-.02-.026.029-.093.086-.203.174l-.015.012c-.22.177-.252.221-.246.343 0 .269-.169.477-.334.58-.008.005-.013.018-.006.068.016.178.016.356-.004.564a.092.092 0 0 0 .03.085l.084.088c.11.151.186.326.203.441.019.055.028.1.035.154.087.073.262.086.315.026.315-.361.828-.47 1.201-.286.473.157.764.635.693 1.129a1.484 1.484 0 0 0 0 .41.364.364 0 0 0 .057.155c.3.37.336 1.02.155 1.503.015-.036-.012.08-.014.086v.006c-.026.118-.04.184-.051.218l-.054.175-.154.1c-1.958 1.259-4.539 1.45-6.763.547l-.356-.144.002.056-.215-.142-.013-.006.002-.002-.59-.392c-1.492-.99-2.792-2.656-3.283-4.283L.05 8.136l1.372 1.418L1.42 9.5c-.003-.09-.007-.15-.008-.17a.987.987 0 0 1 .367-.976l.083-.064.143-.112c.129-.1.222-.168.287-.21.173-.136.374-.232.643-.287.17-.018.158-.005.177-.217.028-.168.096-.327.19-.45.081-.11.147-.199.291-.388l.007-.01c.165-.216.24-.316.328-.441a5.61 5.61 0 0 1 1.438-1.398c.16-.107.288-.232.5-.478l-.07-.052a.164.164 0 0 0-.124-.048 2.122 2.122 0 0 1-.268.016h-.014c-.11.002-.152.005-.131-.003-.107.035-.21.08-.302.134-.166.1-.341.183-.572.26-.122.03-.206.034-.38.032h-.018a.682.682 0 0 0-.125.006c-.515.099-.849-.112-1.229-.643l-.362-.777c-.233-.403-.08-.801.274-1.123.325-.295.864-.576 1.583-.864A18.706 18.706 0 0 1 5.548.737l.223-.07.158-.024c.374.004.726.161.98.426.739.08 1.143.527 1.182 1.279.023.242.032.485.028.75-.001.022.002.038.03.063.164-.31.439-.575.766-.57.3 0 .54-.117.9-.421a.555.555 0 0 1 .265-.115.767.767 0 0 0-.221.123 4.03 4.03 0 0 1 .108-.094l.015-.013c.17-.144.186-.168.185-.278.013-.242.105-.474.261-.658l.245-.29.345.158c1.651.755 2.908 1.624 3.59 2.695.14.22.133.364.07.65v.001c-.002.005-.003.008-.004.007l.265.495-.645.142c-.086.019-.171.022-.291.02l-.12-.005-.061-.002z" />
    </g>
</svg>
