<svg xmlns="http://www.w3.org/2000/svg" width="16" height="16" viewBox="0 0 16 16">
    <g fill-rule="evenodd">
        <path stroke="none" d="M1.018 7.5H7.5V4.996c-2.114-.037-4.054-.304-5.416-.74A6.96 6.96 0 0 0 1.018 7.5zm0 1a6.96 6.96 0 0 0 1.066 3.244c1.362-.436 3.302-.703 5.416-.74V8.5H1.018zm13.964-1a6.96 6.96 0 0 0-1.066-3.244c-1.36.435-3.301.703-5.416.74V7.5h6.482zm0 1H8.5v2.504c2.114.037 4.054.304 5.416.74A6.96 6.96 0 0 0 14.982 8.5zM7.5 12.004c-1.846.034-3.544.25-4.779.593A6.984 6.984 0 0 0 7.5 14.982v-2.978zm1 0v2.978a6.984 6.984 0 0 0 4.779-2.385c-1.235-.344-2.933-.56-4.779-.593zm-1-10.986a6.984 6.984 0 0 0-4.779 2.385c1.235.344 2.933.56 4.779.593V1.018zm1 0v2.978c1.848-.034 3.545-.25 4.779-.593A6.984 6.984 0 0 0 8.5 1.018zM8 16A8 8 0 1 1 8 0a8 8 0 0 1 0 16z"/>
        <path stroke="none" d="M8 16c-2.83 0-5-3.618-5-8s2.17-8 5-8 5 3.618 5 8-2.17 8-5 8zm0-1c2.141 0 4-3.098 4-7s-1.859-7-4-7-4 3.098-4 7 1.859 7 4 7z"/>
    </g>
</svg>