<?xml version="1.0" encoding="UTF-8"?>
<svg width="16px" height="16px" viewBox="0 0 16 16" version="1.1" xmlns="http://www.w3.org/2000/svg" xmlns:xlink="http://www.w3.org/1999/xlink">
    <!-- Generator: Sketch 49 (51002) - http://www.bohemiancoding.com/sketch -->
    <title>icons/system/light/tooltip/ic-tooltip-normal</title>
    <desc>Created with Sketch.</desc>
    <defs></defs>
    <g id="icons/system/light/tooltip/ic-tooltip-normal" stroke="none" stroke-width="1" fill="none" fill-rule="evenodd">
        <g id="Question/Dark" fill="#2A3052">
            <path d="M8,16 C3.581722,16 0,12.418278 0,8 C0,3.581722 3.581722,0 8,0 C12.418278,0 16,3.581722 16,8 C16,12.418278 12.418278,16 8,16 Z M8,15 C11.8659932,15 15,11.8659932 15,8 C15,4.13400675 11.8659932,1 8,1 C4.13400675,1 1,4.13400675 1,8 C1,11.8659932 4.13400675,15 8,15 Z" id="Oval" fill-rule="nonzero"></path>
            <path d="M7.39087546,9.51815736 C7.39745174,9.14469663 7.44184094,8.84969846 7.52404439,8.633154 C7.60624784,8.41660954 7.77394037,8.17653124 8.027127,7.9129119 L8.67324291,7.27740417 C8.94944651,6.97926325 9.08754624,6.65915885 9.08754624,6.31708137 C9.08754624,5.9875572 8.9971238,5.7294338 8.8162762,5.54270343 C8.63542861,5.35597306 8.3723815,5.26260928 8.027127,5.26260928 C7.69173692,5.26260928 7.42211364,5.3473428 7.21824908,5.51681237 C7.01438451,5.68628195 6.91245376,5.91380714 6.91245376,6.19939475 L6,6.19939475 C6.00657628,5.69098603 6.1964634,5.28065612 6.56966708,4.96839274 C6.94287075,4.65612935 7.42868587,4.5 8.027127,4.5 C8.6485851,4.5 9.13275618,4.65926763 9.47965475,4.97780767 C9.82655332,5.2963477 10,5.73335297 10,6.28883658 C10,6.83804354 9.73366481,7.37939657 9.20098644,7.9129119 L8.66337855,8.42131809 C8.42334446,8.67552245 8.30332922,9.04113189 8.30332922,9.51815736 L7.39087546,9.51815736 Z M7.351418,11.0104237 C7.351418,10.869199 7.39662922,10.750729 7.48705302,10.6550101 C7.57747682,10.5592912 7.71146644,10.5114324 7.88902589,10.5114324 C8.06658535,10.5114324 8.20139699,10.5592912 8.29346486,10.6550101 C8.38553273,10.750729 8.43156597,10.869199 8.43156597,11.0104237 C8.43156597,11.1516483 8.38553273,11.2685492 8.29346486,11.3611298 C8.20139699,11.4537104 8.06658535,11.5 7.88902589,11.5 C7.71146644,11.5 7.57747682,11.4537104 7.48705302,11.3611298 C7.39662922,11.2685492 7.351418,11.1516483 7.351418,11.0104237 Z" id="?"></path>
        </g>
    </g>
</svg>