<?xml version="1.0" encoding="UTF-8"?>
<svg width="32px" height="32px" viewBox="0 0 32 32" version="1.1" xmlns="http://www.w3.org/2000/svg" xmlns:xlink="http://www.w3.org/1999/xlink">
    <!-- Generator: Sketch 57.1 (83088) - https://sketch.com -->
    <title>Volatility 100</title>
    <desc>Created with Sketch.</desc>
    <g id="Volatility-100" stroke="none" stroke-width="1" fill="none" fill-rule="evenodd">
        <g id="Group" transform="translate(0.000000, 0.000000)">
            <rect id="Rectangle" x="0" y="0" width="32" height="32"></rect>
            <rect id="Rectangle" fill="#2A2A2A" fill-rule="nonzero" x="16" y="2" width="14" height="9" rx="1"></rect>
            <path d="M6.86151865,8.15 C6.76763535,8.05534367 6.63983741,8.00210084 6.50651865,8.00210084 C6.37319988,8.00210084 6.24540195,8.05534367 6.15151865,8.15 L4.99151865,9.31 L4.99151865,6.5 C4.99151865,6.22385763 4.76766102,6 4.49151865,6 C4.21537627,6 3.99151865,6.22385763 3.99151865,6.5 L3.99151865,9.28 L2.86151865,8.15 C2.76763535,8.05534367 2.63983741,8.00210084 2.50651865,8.00210084 C2.37319988,8.00210084 2.24540195,8.05534367 2.15151865,8.15 C2.05484142,8.24073333 2,8.36741409 2,8.5 C2,8.63258591 2.05484142,8.75926667 2.15151865,8.85 L4.15151865,10.85 C4.24075999,10.9427038 4.3628861,10.9965829 4.49151865,11 L4.49151865,11 C4.62665223,10.999669 4.75613036,10.9457197 4.85151865,10.85 L6.85151865,8.85 C7.04489461,8.6583122 7.04934002,8.34713347 6.86151865,8.15 Z" id="Path" fill="#EF4852" fill-rule="nonzero"></path>
            <path d="M26.08,14 L25.08,14 C24.8038576,14 24.58,13.7761424 24.58,13.5 C24.58,13.2238576 24.8038576,13 25.08,13 L26.08,13 C26.3561424,13 26.58,13.2238576 26.58,13.5 C26.58,13.7761424 26.3561424,14 26.08,14 Z M23.19,14 L22.19,14 C21.9138576,14 21.69,13.7761424 21.69,13.5 C21.69,13.2238576 21.9138576,13 22.19,13 L23.19,13 C23.4661424,13 23.69,13.2238576 23.69,13.5 C23.69,13.7761424 23.4661424,14 23.19,14 Z M20.31,14 L19.31,14 C19.0338576,14 18.81,13.7761424 18.81,13.5 C18.81,13.2238576 19.0338576,13 19.31,13 L20.31,13 C20.5861424,13 20.81,13.2238576 20.81,13.5 C20.81,13.7761424 20.5861424,14 20.31,14 Z M17.42,14 L16.42,14 C16.1438576,14 15.92,13.7761424 15.92,13.5 C15.92,13.2238576 16.1438576,13 16.42,13 L17.42,13 C17.6961424,13 17.92,13.2238576 17.92,13.5 C17.92,13.7761424 17.6961424,14 17.42,14 Z M14.54,14 L13.54,14 C13.2638576,14 13.04,13.7761424 13.04,13.5 C13.04,13.2238576 13.2638576,13 13.54,13 L14.54,13 C14.8161424,13 15.04,13.2238576 15.04,13.5 C15.04,13.7761424 14.8161424,14 14.54,14 Z M11.65,14 L10.65,14 C10.3738576,14 10.15,13.7761424 10.15,13.5 C10.15,13.2238576 10.3738576,13 10.65,13 L11.65,13 C11.9261424,13 12.15,13.2238576 12.15,13.5 C12.15,13.7761424 11.9261424,14 11.65,14 Z M8.77,14 L7.77,14 C7.49385763,14 7.27,13.7761424 7.27,13.5 C7.27,13.2238576 7.49385763,13 7.77,13 L8.77,13 C9.04614237,13 9.27,13.2238576 9.27,13.5 C9.27,13.7761424 9.04614237,14 8.77,14 Z M5.88,14 L4.88,14 C4.60385763,14 4.38,13.7761424 4.38,13.5 C4.38,13.2238576 4.60385763,13 4.88,13 L5.88,13 C6.15614237,13 6.38,13.2238576 6.38,13.5 C6.38,13.7761424 6.15614237,14 5.88,14 Z" id="Shape" fill="#E4E4E4" fill-rule="nonzero"></path>
            <path d="M3,14 L2.5,14 C2.22385763,14 2,13.7761424 2,13.5 C2,13.2238576 2.22385763,13 2.5,13 L3,13 C3.27614237,13 3.5,13.2238576 3.5,13.5 C3.5,13.7761424 3.27614237,14 3,14 Z" id="Path" fill="#E4E4E4" fill-rule="nonzero"></path>
            <path d="M29.5,24 L29,24 C28.7238576,24 28.5,23.7761424 28.5,23.5 C28.5,23.2238576 28.7238576,23 29,23 L29.5,23 C29.7761424,23 30,23.2238576 30,23.5 C30,23.7761424 29.7761424,24 29.5,24 Z" id="Path" fill="#E4E4E4" fill-rule="nonzero"></path>
            <path d="M27.08,24 L26.08,24 C25.8038576,24 25.58,23.7761424 25.58,23.5 C25.58,23.2238576 25.8038576,23 26.08,23 L27.08,23 C27.3561424,23 27.58,23.2238576 27.58,23.5 C27.58,23.7761424 27.3561424,24 27.08,24 Z M24.19,24 L23.19,24 C22.9138576,24 22.69,23.7761424 22.69,23.5 C22.69,23.2238576 22.9138576,23 23.19,23 L24.19,23 C24.4661424,23 24.69,23.2238576 24.69,23.5 C24.69,23.7761424 24.4661424,24 24.19,24 Z M21.31,24 L20.31,24 C20.0338576,24 19.81,23.7761424 19.81,23.5 C19.81,23.2238576 20.0338576,23 20.31,23 L21.31,23 C21.5861424,23 21.81,23.2238576 21.81,23.5 C21.81,23.7761424 21.5861424,24 21.31,24 Z M18.42,24 L17.42,24 C17.1438576,24 16.92,23.7761424 16.92,23.5 C16.92,23.2238576 17.1438576,23 17.42,23 L18.42,23 C18.6961424,23 18.92,23.2238576 18.92,23.5 C18.92,23.7761424 18.6961424,24 18.42,24 Z M15.54,24 L14.54,24 C14.2638576,24 14.04,23.7761424 14.04,23.5 C14.04,23.2238576 14.2638576,23 14.54,23 L15.54,23 C15.8161424,23 16.04,23.2238576 16.04,23.5 C16.04,23.7761424 15.8161424,24 15.54,24 Z M12.65,24 L11.65,24 C11.3738576,24 11.15,23.7761424 11.15,23.5 C11.15,23.2238576 11.3738576,23 11.65,23 L12.65,23 C12.9261424,23 13.15,23.2238576 13.15,23.5 C13.15,23.7761424 12.9261424,24 12.65,24 Z M9.77,24 L8.77,24 C8.49385763,24 8.27,23.7761424 8.27,23.5 C8.27,23.2238576 8.49385763,23 8.77,23 L9.77,23 C10.0461424,23 10.27,23.2238576 10.27,23.5 C10.27,23.7761424 10.0461424,24 9.77,24 Z M6.88,24 L5.88,24 C5.60385763,24 5.38,23.7761424 5.38,23.5 C5.38,23.2238576 5.60385763,23 5.88,23 L6.88,23 C7.15614237,23 7.38,23.2238576 7.38,23.5 C7.38,23.7761424 7.15614237,24 6.88,24 Z" id="Shape" fill="#E4E4E4" fill-rule="nonzero"></path>
            <path d="M29.85,28.15 L27.85,26.15 C27.8077479,26.0993713 27.7524014,26.0613206 27.69,26.04 C27.5682693,25.989991 27.4317307,25.989991 27.31,26.04 C27.2475986,26.0613206 27.1922521,26.0993713 27.15,26.15 L25.15,28.15 C25.024957,28.275043 24.9761222,28.457297 25.0218911,28.6281089 C25.06766,28.7989207 25.2010793,28.93234 25.3718911,28.9781089 C25.542703,29.0238778 25.724957,28.975043 25.85,28.85 L27,27.71 L27,30.5 C27,30.7761424 27.2238576,31 27.5,31 C27.7761424,31 28,30.7761424 28,30.5 L28,27.71 L29.15,28.85 C29.2407333,28.9466772 29.3674141,29.0015186 29.5,29.0015186 C29.6325859,29.0015186 29.7592667,28.9466772 29.85,28.85 C29.9466772,28.7592667 30.0015186,28.6325859 30.0015186,28.5 C30.0015186,28.3674141 29.9466772,28.2407333 29.85,28.15 Z" id="Path" fill="#84AAAF" fill-rule="nonzero"></path>
            <path d="M28.5,13 C27.9626082,13.0011504 27.4668909,13.2896941 27.2004917,13.756409 C26.9340925,14.2231239 26.9377196,14.7966916 27.21,15.26 L24,19.1 L24,19.1 C23.8339684,19.0360934 23.657892,19.0022325 23.48,19 C23.2005295,19.00258 22.9271804,19.0821626 22.69,19.23 L19.91,17 C19.9709103,16.840402 20.001435,16.6708201 20,16.5 C20.0056556,15.88105 19.6305426,15.322187 19.0555794,15.0929527 C18.4806162,14.8637185 17.8238904,15.0111937 17.4021435,15.4642506 C16.9803966,15.9173075 16.8802481,16.5828959 17.15,17.14 L14.15,20.14 C13.9464267,20.0456175 13.7243775,19.9977915 13.5,20 C13.1517239,19.9996233 12.8147852,20.1237586 12.55,20.35 L10,18.8 C10.0098276,18.7002415 10.0098276,18.5997585 10,18.5 C10,17.6715729 9.32842712,17 8.5,17 C7.67157288,17 7,17.6715729 7,18.5 C6.99980041,18.6674612 7.03030468,18.8335399 7.09,18.99 L4.29,21.23 C4.05281956,21.0821626 3.77947055,21.00258 3.5,21 C2.67157288,21 2,21.6715729 2,22.5 C2,23.3284271 2.67157288,24 3.5,24 C4.32842712,24 5,23.3284271 5,22.5 C5.00143503,22.3291799 4.97091029,22.159598 4.91,22 L4.91,22 L7.71,19.76 C7.94614553,19.9113578 8.21956679,19.9944225 8.5,20 C8.8482761,20.0003767 9.18521479,19.8762414 9.45,19.65 L9.45,19.65 L12,21.2 L12,21.2 C11.9901724,21.2997585 11.9901724,21.4002415 12,21.5 C11.9943444,22.11895 12.3694574,22.677813 12.9444206,22.9070473 C13.5193838,23.1362815 14.1761096,22.9888063 14.5978565,22.5357494 C15.0196034,22.0826925 15.1197519,21.4171041 14.85,20.86 L17.85,17.86 C18.3079015,18.0850266 18.850055,18.0546963 19.28,17.78 L22.09,20 L22.09,20 C22.0303047,20.1564601 21.9998004,20.3225388 22,20.49 C21.9977092,21.1234405 22.3935799,21.6900409 22.9891606,21.9057625 C23.5847413,22.121484 24.2516357,21.939821 24.6555273,21.4518418 C25.0594189,20.9638626 25.113236,20.2747665 24.79,19.73 L24.79,19.73 L28,15.9 L28,15.9 C28.5661836,16.1172246 29.2074653,15.9721664 29.6250405,15.532415 C30.0426158,15.0926637 30.1543267,14.4447402 29.9081217,13.890544 C29.6619167,13.3363478 29.1062366,12.9849168 28.5,13 Z M3.5,23 C3.22385763,23 3,22.7761424 3,22.5 C3,22.2238576 3.22385763,22 3.5,22 C3.77614237,22 4,22.2238576 4,22.5 C4,22.7761424 3.77614237,23 3.5,23 Z M8.5,19 C8.22385763,19 8,18.7761424 8,18.5 C8,18.2238576 8.22385763,18 8.5,18 C8.77614237,18 9,18.2238576 9,18.5 C9,18.7761424 8.77614237,19 8.5,19 Z M13.5,22 C13.2238576,22 13,21.7761424 13,21.5 C13,21.2238576 13.2238576,21 13.5,21 C13.7761424,21 14,21.2238576 14,21.5 C14,21.7761424 13.7761424,22 13.5,22 Z M18.5,17 C18.2238576,17 18,16.7761424 18,16.5 C18,16.2238576 18.2238576,16 18.5,16 C18.7761424,16 19,16.2238576 19,16.5 C19,16.7761424 18.7761424,17 18.5,17 Z M23.5,21 C23.2238576,21 23,20.7761424 23,20.5 C23,20.2238576 23.2238576,20 23.5,20 C23.7761424,20 24,20.2238576 24,20.5 C24,20.7761424 23.7761424,21 23.5,21 Z M28.5,15 C28.2238576,15 28,14.7761424 28,14.5 C28,14.2238576 28.2238576,14 28.5,14 C28.7761424,14 29,14.2238576 29,14.5 C29,14.7761424 28.7761424,15 28.5,15 Z" id="Shape" fill="#84AAAF" fill-rule="nonzero"></path>
            <path d="M17.301,8.97 L17.301,8.312 L18.673,8.312 L18.673,4.658 L18.617,4.658 L17.483,5.869 L17,5.435 L18.246,4.084 L19.45,4.084 L19.45,8.312 L20.64,8.312 L20.64,8.97 L17.301,8.97 Z M22.985,9.054 C22.6816651,9.054 22.4180011,8.9968339 22.194,8.8825 C21.9699989,8.76816609 21.7856674,8.60366774 21.641,8.389 C21.4963326,8.17433226 21.3890003,7.91066823 21.319,7.598 C21.2489996,7.28533177 21.214,6.92833534 21.214,6.527 C21.214,6.13033135 21.2489996,5.77450157 21.319,5.4595 C21.3890003,5.14449842 21.4963326,4.87966774 21.641,4.665 C21.7856674,4.45033226 21.9699989,4.2858339 22.194,4.1715 C22.4180011,4.05716609 22.6816651,4 22.985,4 C23.5916697,4 24.0384986,4.22166445 24.3255,4.665 C24.6125014,5.10833555 24.756,5.72899601 24.756,6.527 C24.756,7.32500399 24.6125014,7.94566445 24.3255,8.389 C24.0384986,8.83233555 23.5916697,9.054 22.985,9.054 Z M22.985,8.382 C23.1530008,8.382 23.2964994,8.348167 23.4155,8.2805 C23.5345006,8.21283299 23.631333,8.11600063 23.706,7.99 C23.780667,7.86399937 23.8343332,7.71350087 23.867,7.5385 C23.8996668,7.36349912 23.916,7.16866774 23.916,6.954 L23.916,6.1 C23.916,5.88533226 23.8996668,5.69050087 23.867,5.5155 C23.8343332,5.34049912 23.780667,5.19000063 23.706,5.064 C23.631333,4.93799937 23.5345006,4.841167 23.4155,4.7735 C23.2964994,4.70583299 23.1530008,4.672 22.985,4.672 C22.8169992,4.672 22.6735006,4.70583299 22.5545,4.7735 C22.4354994,4.841167 22.338667,4.93799937 22.264,5.064 C22.189333,5.19000063 22.1356668,5.34049912 22.103,5.5155 C22.0703332,5.69050087 22.054,5.88533226 22.054,6.1 L22.054,6.954 C22.054,7.16866774 22.0703332,7.36349912 22.103,7.5385 C22.1356668,7.71350087 22.189333,7.86399937 22.264,7.99 C22.338667,8.11600063 22.4354994,8.21283299 22.5545,8.2805 C22.6735006,8.348167 22.8169992,8.382 22.985,8.382 Z M27.185,9.054 C26.8816651,9.054 26.6180011,8.9968339 26.394,8.8825 C26.1699989,8.76816609 25.9856674,8.60366774 25.841,8.389 C25.6963326,8.17433226 25.5890003,7.91066823 25.519,7.598 C25.4489996,7.28533177 25.414,6.92833534 25.414,6.527 C25.414,6.13033135 25.4489996,5.77450157 25.519,5.4595 C25.5890003,5.14449842 25.6963326,4.87966774 25.841,4.665 C25.9856674,4.45033226 26.1699989,4.2858339 26.394,4.1715 C26.6180011,4.05716609 26.8816651,4 27.185,4 C27.7916697,4 28.2384986,4.22166445 28.5255,4.665 C28.8125014,5.10833555 28.956,5.72899601 28.956,6.527 C28.956,7.32500399 28.8125014,7.94566445 28.5255,8.389 C28.2384986,8.83233555 27.7916697,9.054 27.185,9.054 Z M27.185,8.382 C27.3530008,8.382 27.4964994,8.348167 27.6155,8.2805 C27.7345006,8.21283299 27.831333,8.11600063 27.906,7.99 C27.980667,7.86399937 28.0343332,7.71350087 28.067,7.5385 C28.0996668,7.36349912 28.116,7.16866774 28.116,6.954 L28.116,6.1 C28.116,5.88533226 28.0996668,5.69050087 28.067,5.5155 C28.0343332,5.34049912 27.980667,5.19000063 27.906,5.064 C27.831333,4.93799937 27.7345006,4.841167 27.6155,4.7735 C27.4964994,4.70583299 27.3530008,4.672 27.185,4.672 C27.0169992,4.672 26.8735006,4.70583299 26.7545,4.7735 C26.6354994,4.841167 26.538667,4.93799937 26.464,5.064 C26.389333,5.19000063 26.3356668,5.34049912 26.303,5.5155 C26.2703332,5.69050087 26.254,5.88533226 26.254,6.1 L26.254,6.954 C26.254,7.16866774 26.2703332,7.36349912 26.303,7.5385 C26.3356668,7.71350087 26.389333,7.86399937 26.464,7.99 C26.538667,8.11600063 26.6354994,8.21283299 26.7545,8.2805 C26.8735006,8.348167 27.0169992,8.382 27.185,8.382 Z" id="100" fill="#FFFFFF" fill-rule="nonzero"></path>
        </g>
    </g>
</svg>