<svg xmlns="http://www.w3.org/2000/svg" width="24" height="24" viewBox="0 0 24 24">
    <g fill="none" fill-rule="evenodd">
        <path d="M0 0h24v24H0z"/>
        <path fill="#85ACB0" fill-rule="nonzero" d="M3 16a1 1 0 0 1-1-1V6a1 1 0 0 1 1-1h2V3a1 1 0 1 1 2 0v2h2a1 1 0 0 1 1 1v9a1 1 0 0 1-1 1H7v3a1 1 0 0 1-2 0v-3zm5-9H4v7h4V7z"/>
        <path fill="#FF444F" fill-rule="nonzero" d="M18 2a1 1 0 0 1 1 1v4h2a1 1 0 0 1 1 1v10a1 1 0 0 1-1 1h-2v2a1 1 0 0 1-.883.993L18 22a1 1 0 0 1-1-1v-2h-2a1 1 0 0 1-.993-.883L14 18V8a1 1 0 0 1 1-1h2V3a1 1 0 0 1 1-1zm2 7h-4v8h4V9z"/>
    </g>
</svg>
