<svg xmlns="http://www.w3.org/2000/svg" xmlns:xlink="http://www.w3.org/1999/xlink" width="160" height="120" viewBox="0 0 160 120">
    <defs>
        <linearGradient id="prefix__b" x1="50%" x2="50%" y1="124.717%" y2="33.855%">
            <stop offset="0%" stop-color="#0E0E0E" stop-opacity="0"/>
            <stop offset="100%" stop-color="#FFF" stop-opacity=".16"/>
        </linearGradient>
        <rect id="prefix__a" width="160" height="120" x="0" y="0" rx="4"/>
    </defs>
    <g fill="none" fill-rule="evenodd">
        <mask id="prefix__c" fill="#fff">
            <use xlink:href="#prefix__a"/>
        </mask>
        <use fill="#151717" fill-rule="nonzero" xlink:href="#prefix__a"/>
        <path fill="url(#prefix__b)" d="M95.998 34.453L86.5 34.388 81.5 60.656 79.5 40.955 54.5 34.388 52.5 16 29.5 34.388 25.5 54.089 22.5 16 13.5 73.79 0 73.79 0 120 96 120z" mask="url(#prefix__c)"/>
        <path fill="#FFF" fill-rule="nonzero" d="M96 34.077c-.026.335-.24.59-.498.59h-8.576l-4.93 25.674c-.095.743-.914.725-.99-.02l-1.981-19.487-24.914-6.413c-.056-.091-.092-.2-.104-.317l-1.893-17.37-22.182 17.7-3.948 19.413c-.143.703-.923.623-.98-.102L22.337 19.97 13.99 73.476c-.047.305-.252.524-.49.524H0v-1.311h13.092l8.919-57.164c.114-.735.928-.682.987.064l2.72 34.475 3.3-16.221c.033-.164.113-.304.223-.391l23-18.356c.307-.244.705.002.756.467l1.98 18.179 24.915 6.416c.057.093.094.204.106.322l1.559 15.334 4.452-21.91c.04-.316.249-.548.493-.548 5.256-.034 8.105-.034 8.548 0 .443.034.76.274.95.72z" mask="url(#prefix__c)"/>
        <path fill="#FF444F" fill-rule="nonzero" d="M160 26v16h-38.284l-6.436-7.667H113v-.666l2.28-.001L121.716 26H160zm-63 6.4c.845 0 1.568.525 1.861 1.266h.806v.667h-.67L99 34.4c0 1.054-.816 1.918-1.85 1.995L97 36.4c-1.105 0-2-.895-2-2s.895-2 2-2zm8 1.267v.666h-2.667v-.666H105zm5.333 0v.666h-2.666v-.666h2.666z"/>
        <path fill="#323738" fill-rule="nonzero" d="M115 42L160 42 160 58 115 58z"/>
        <path fill="#FFF" fill-rule="nonzero" d="M121 46c2.21 0 4 1.79 4 4s-1.79 4-4 4-4-1.79-4-4 1.79-4 4-4zm0 .5c-1.933 0-3.5 1.567-3.5 3.5s1.567 3.5 3.5 3.5 3.5-1.567 3.5-3.5-1.567-3.5-3.5-3.5zm8.242.734c.612 0 1.063.196 1.352.588.289.392.437.997.445 1.815v.937c0 .847-.144 1.475-.434 1.887-.289.411-.74.617-1.355.617-.607 0-1.056-.201-1.348-.603-.291-.403-.442-1.004-.453-1.803v-.965c0-.836.145-1.457.434-1.863.289-.407.742-.61 1.36-.61zm4.492 0c.612 0 1.063.196 1.352.588.289.392.437.997.445 1.815v.937c0 .847-.144 1.475-.433 1.887-.29.411-.741.617-1.356.617-.607 0-1.056-.201-1.347-.603-.292-.403-.443-1.004-.454-1.803v-.965c0-.836.145-1.457.434-1.863.29-.407.742-.61 1.36-.61zm6.43 0c.612 0 1.063.196 1.352.588.289.392.437.997.445 1.815v.937c0 .847-.145 1.475-.434 1.887-.289.411-.74.617-1.355.617-.607 0-1.056-.201-1.348-.603-.291-.403-.442-1.004-.453-1.803v-.965c0-.836.145-1.457.434-1.863.289-.407.742-.61 1.36-.61zm4.492 0c.612 0 1.063.196 1.352.588.289.392.437.997.445 1.815v.937c0 .847-.144 1.475-.433 1.887-.29.411-.741.617-1.356.617-.607 0-1.056-.201-1.348-.603-.291-.403-.442-1.004-.453-1.803v-.965c0-.836.145-1.457.434-1.863.289-.407.742-.61 1.36-.61zm6.43 0c.612 0 1.062.196 1.351.588.29.392.438.997.446 1.815v.937c0 .847-.145 1.475-.434 1.887-.289.411-.74.617-1.355.617-.607 0-1.056-.201-1.348-.603-.292-.403-.443-1.004-.453-1.803v-.965c0-.836.144-1.457.434-1.863.289-.407.742-.61 1.359-.61zm4.492 0c.612 0 1.063.196 1.352.588.289.392.437.997.445 1.815v.937c0 .847-.145 1.475-.434 1.887-.289.411-.74.617-1.355.617-.607 0-1.056-.201-1.348-.603-.291-.403-.442-1.004-.453-1.803v-.965c0-.836.145-1.457.434-1.863.289-.407.742-.61 1.36-.61zm-18.625 4.95c.149 0 .261.041.338.125.077.083.115.187.115.312 0 .12-.038.22-.115.3-.077.082-.19.122-.338.122-.148 0-.26-.04-.334-.121-.074-.08-.111-.181-.111-.3 0-.126.037-.23.111-.313.074-.084.186-.125.334-.125zm10.922 0c.148 0 .261.041.338.125.077.083.115.187.115.312 0 .12-.038.22-.115.3-.077.082-.19.122-.338.122-.148 0-.26-.04-.334-.121-.074-.08-.111-.181-.111-.3 0-.126.037-.23.111-.313.074-.084.186-.125.334-.125zm-18.633-4.356c-.37 0-.64.14-.808.418-.17.279-.257.707-.262 1.285v1.157c0 .614.09 1.068.267 1.36.179.294.449.44.811.44.357 0 .622-.138.795-.414.173-.276.264-.71.271-1.304v-1.184c0-.612-.086-1.058-.257-1.338-.172-.28-.444-.42-.817-.42zm4.492 0c-.37 0-.639.14-.808.418-.17.279-.257.707-.262 1.285v1.157c0 .614.09 1.068.268 1.36.178.294.448.44.81.44.357 0 .622-.138.795-.414.173-.276.264-.71.272-1.304v-1.184c0-.612-.086-1.058-.258-1.338-.172-.28-.444-.42-.817-.42zm6.43 0c-.37 0-.64.14-.809.418-.169.279-.256.707-.261 1.285v1.157c0 .614.089 1.068.267 1.36.179.294.449.44.81.44.358 0 .623-.138.796-.414.173-.276.263-.71.271-1.304v-1.184c0-.612-.086-1.058-.258-1.338-.171-.28-.444-.42-.816-.42zm4.492 0c-.37 0-.64.14-.808.418-.17.279-.257.707-.262 1.285v1.157c0 .614.09 1.068.268 1.36.178.294.448.44.81.44.357 0 .622-.138.795-.414.173-.276.264-.71.271-1.304v-1.184c0-.612-.085-1.058-.257-1.338s-.444-.42-.817-.42zm6.43 0c-.37 0-.64.14-.809.418-.169.279-.256.707-.261 1.285v1.157c0 .614.089 1.068.267 1.36.179.294.449.44.81.44.358 0 .622-.138.796-.414.173-.276.263-.71.271-1.304v-1.184c0-.612-.086-1.058-.258-1.338-.172-.28-.444-.42-.816-.42zm4.492 0c-.37 0-.64.14-.808.418-.17.279-.257.707-.262 1.285v1.157c0 .614.089 1.068.267 1.36.179.294.449.44.81.44.358 0 .623-.138.796-.414.173-.276.264-.71.271-1.304v-1.184c0-.612-.086-1.058-.257-1.338-.172-.28-.444-.42-.817-.42zM121 47.5c.138 0 .25.112.25.25v2.146l1.177 1.177c.097.098.097.256 0 .354-.098.097-.256.097-.354 0l-1.25-1.25c-.047-.047-.073-.11-.073-.177v-2.25c0-.138.112-.25.25-.25zm15.957 1.234c.148 0 .261.042.338.125.077.084.115.188.115.313 0 .12-.038.22-.115.3-.077.081-.19.122-.338.122-.148 0-.26-.04-.334-.121-.074-.081-.111-.181-.111-.301 0-.125.037-.23.111-.313.074-.083.186-.125.334-.125zm10.922 0c.148 0 .261.042.338.125.077.084.115.188.115.313 0 .12-.038.22-.115.3-.077.081-.19.122-.338.122-.149 0-.26-.04-.334-.121-.074-.081-.111-.181-.111-.301 0-.125.037-.23.11-.313.075-.083.186-.125.335-.125z"/>
    </g>
</svg>
