<svg xmlns="http://www.w3.org/2000/svg" xmlns:xlink="http://www.w3.org/1999/xlink" width="160" height="120" viewBox="0 0 160 120">
    <defs>
        <linearGradient id="prefix__b" x1="50%" x2="50%" y1="124.717%" y2="33.855%">
            <stop offset="0%" stop-color="#0E0E0E" stop-opacity="0"/>
            <stop offset="100%" stop-color="#FFF" stop-opacity=".16"/>
        </linearGradient>
        <rect id="prefix__a" width="160" height="120" x="0" y="0" rx="4"/>
    </defs>
    <g fill="none" fill-rule="evenodd">
        <mask id="prefix__c" fill="#fff">
            <use xlink:href="#prefix__a"/>
        </mask>
        <use fill="#151717" fill-rule="nonzero" xlink:href="#prefix__a"/>
        <path fill="url(#prefix__b)" d="M95.998 34.453L86.5 34.388 81.5 60.656 79.5 40.955 54.5 34.388 52.5 16 29.5 34.388 25.5 54.089 22.5 16 13.5 73.79 0 73.79 0 120 96 120z" mask="url(#prefix__c)"/>
        <path fill="#FFF" fill-rule="nonzero" d="M96 34.077c-.026.335-.24.59-.498.59h-8.576l-4.93 25.674c-.095.743-.914.725-.99-.02l-1.981-19.487-24.914-6.413c-.056-.091-.092-.2-.104-.317l-1.893-17.37-22.182 17.7-3.948 19.413c-.143.703-.923.623-.98-.102L22.337 19.97 13.99 73.476c-.047.305-.252.524-.49.524H0v-1.311h13.092l8.919-57.164c.114-.735.928-.682.987.064l2.72 34.475 3.3-16.221c.033-.164.113-.304.223-.391l23-18.356c.307-.244.705.002.756.467l1.98 18.179 24.915 6.416c.057.093.094.204.106.322l1.559 15.334 4.452-21.91c.04-.316.249-.548.493-.548 5.256-.034 8.105-.034 8.548 0 .443.034.76.274.95.72z" mask="url(#prefix__c)"/>
        <path fill="#FF444F" fill-rule="nonzero" d="M160 26v16h-38.284l-6.436-7.667H113v-.666l2.28-.001L121.716 26H160zm-63 6.4c.845 0 1.568.525 1.861 1.266h.806v.667h-.67L99 34.4c0 1.054-.816 1.918-1.85 1.995L97 36.4c-1.105 0-2-.895-2-2s.895-2 2-2zm8 1.267v.666h-2.667v-.666H105zm5.333 0v.666h-2.666v-.666h2.666z" mask="url(#prefix__c)"/>
    </g>
</svg>
