<?xml version="1.0" encoding="UTF-8"?>
<svg width="16px" height="16px" viewBox="0 0 16 16" version="1.1" xmlns="http://www.w3.org/2000/svg" xmlns:xlink="http://www.w3.org/1999/xlink">
    <!-- Generator: Sketch 48.2 (47327) - http://www.bohemiancoding.com/sketch -->
    <title>icons/system/binary/chart settings/chart types/ic-crosshair</title>
    <desc>Created with Sketch.</desc>
    <defs></defs>
    <g id="Symbols" stroke="none" stroke-width="1" fill="none" fill-rule="evenodd">
        <g id="icons/system/binary/chart-settings/chart-types/ic-crosshair">
            <g id="vector">
                <rect id="Rectangle-Copy" fill="#D8D8D8" opacity="0" x="0" y="0" width="16" height="16"></rect>
                <rect id="Rectangle-2" fill="#2A3052" x="7" y="0" width="2" height="5"></rect>
                <rect id="Rectangle-2-Copy-3" fill="#2A3052" x="7" y="11" width="2" height="5"></rect>
                <rect id="Rectangle-2-Copy" fill="#2A3052" x="11" y="7" width="5" height="2"></rect>
                <rect id="Rectangle-2-Copy-2" fill="#2A3052" x="0" y="7" width="5" height="2"></rect>
            </g>
            <g id="ic-crosshair">
                <rect id="Rectangle-Copy" fill="#D8D8D8" opacity="0" x="0" y="0" width="16" height="16"></rect>
                <path d="M7,0 L9,0 L9,5 L7,5 L7,0 Z M7,11 L9,11 L9,16 L7,16 L7,11 Z M11,7 L16,7 L16,9 L11,9 L11,7 Z M0,7 L5,7 L5,9 L0,9 L0,7 Z" id="Combined-Shape" fill="#2A3052"></path>
            </g>
        </g>
    </g>
</svg>