<?xml version="1.0" encoding="UTF-8"?>
<svg width="16px" height="16px" viewBox="0 0 16 16" version="1.1" xmlns="http://www.w3.org/2000/svg" xmlns:xlink="http://www.w3.org/1999/xlink">
    <!-- Generator: Sketch 48.2 (47327) - http://www.bohemiancoding.com/sketch -->
    <title>icons/system/binary/chart settings/chart types/ic-spline</title>
    <desc>Created with Sketch.</desc>
    <defs></defs>
    <g id="Symbols" stroke="none" stroke-width="1" fill="none" fill-rule="evenodd">
        <g id="icons/system/binary/chart-settings/chart-types/ic-spline">
            <g id="ic-spline">
                <rect id="Rectangle-Copy" fill="#D8D8D8" opacity="0" x="0" y="0" width="16" height="16"></rect>
                <path d="M2,8 C2,8.55228475 1.55228475,9 1,9 C0.44771525,9 3.314e-12,8.55228475 3.314e-12,8 C3.314e-12,5.16866537 1.62598245,3 4.5,3 C6.72005439,3 8.20442947,4.69642866 8.97013469,7.75743316 C9.53830826,10.0298166 10.3872187,11 11.5,11 C13.1255439,11 14,9.8345055 14,8 C14,7.44771525 14.4477153,7 15,7 C15.5522847,7 16,7.44771525 16,8 C16,10.8346078 14.375333,13 11.5,13 C9.27963032,13 7.79520743,11.3035167 7.02989137,8.24267107 C6.46144598,5.97023801 5.61248773,5 4.5,5 C2.87615717,5 2,6.1685807 2,8 Z" id="Path-2" fill="#2A3052" fill-rule="nonzero"></path>
            </g>
        </g>
    </g>
</svg>