<?xml version="1.0" encoding="UTF-8"?>
<svg width="16px" height="16px" viewBox="0 0 16 16" version="1.1" xmlns="http://www.w3.org/2000/svg" xmlns:xlink="http://www.w3.org/1999/xlink">
    <!-- Generator: Sketch 49 (51002) - http://www.bohemiancoding.com/sketch -->
    <title>icons/system/light/chart settings/chart types/spline/ic-spline-normal</title>
    <desc>Created with Sketch.</desc>
    <defs></defs>
    <g id="icons/system/light/chart-settings/chart-types/spline/ic-spline-normal" stroke="none" stroke-width="1" fill-rule="evenodd">
        <path d="M0.984932381,8.12182194 C0.917651981,8.3896427 0.645998817,8.55221278 0.378178058,8.48493238 C0.110357299,8.41765198 -0.052212782,8.14599882 0.0150676186,7.87817806 C0.735010983,5.01232446 2.15281516,3.5 4.25,3.5 C6.34718484,3.5 7.76498902,5.01232446 8.48507125,7.87873219 C9.10186766,10.3459178 10.1838197,11.5 11.75,11.5 C13.3161803,11.5 14.3981323,10.3459178 15.0149287,7.87873219 C15.0819031,7.61083473 15.3533704,7.44795439 15.6212678,7.51492875 C15.8891653,7.58190311 16.0520456,7.85337036 15.9850713,8.12126781 C15.2685343,10.9874155 13.8504864,12.5 11.75,12.5 C9.64951363,12.5 8.23146568,10.9874155 7.51506762,8.12182194 C6.89520146,5.65434221 5.81300564,4.5 4.25,4.5 C2.68699436,4.5 1.60479854,5.65434221 0.984932381,8.12182194 Z" id="vector-copy" fill-rule="nonzero"></path>
    </g>
</svg>
