<svg xmlns="http://www.w3.org/2000/svg" width="16" height="16" viewBox="0 0 16 16">
    <path d="M14.5 10c.276 0 .5.224.5.5v4c0 .276-.224.5-.5.5h-4c-.276 0-.5-.224-.5-.5s.224-.5.5-.5H14v-3.5c0-.276.224-.5.5-.5zm-13 0c.276 0 .5.224.5.5V14h3.5c.276 0 .5.224.5.5s-.224.5-.5.5h-4c-.276 0-.5-.224-.5-.5v-4c0-.276.224-.5.5-.5zm4-9c.276 0 .5.224.5.5s-.224.5-.5.5H2v3.5c0 .276-.224.5-.5.5S1 5.776 1 5.5v-4c0-.276.224-.5.5-.5zm9 0c.276 0 .5.224.5.5v4c0 .276-.224.5-.5.5s-.5-.224-.5-.5V2h-3.5c-.276 0-.5-.224-.5-.5s.224-.5.5-.5z"/>
</svg>
