<svg xmlns="http://www.w3.org/2000/svg" width="16" height="16" viewBox="0 0 16 16">
    <g fill="none" fill-rule="evenodd">
        <path d="M0 0h16v16H0z"/>
        <path fill="#000" fill-rule="nonzero" d="M2.891 14.919a1.81 1.81 0 0 1-.16-.16c.059.057.107.115.16.16zm-.151-.086a2.639 2.639 0 0 1-.16-.16c.05.057.105.109.16.16zM14.85 3.18a.59.59 0 0 0-.41-.166h-2.881v-.897a1.1 1.1 0 0 0-1.1-1.1H5.54a1.1 1.1 0 0 0-1.1 1.1v.897H1.545a.56.56 0 0 0 0 1.118h.493v9.724a1.1 1.1 0 0 0 1.1 1.1h9.88a1.1 1.1 0 0 0 1.1-1.1V4.131h.321c.307 0 .574-.25.574-.559a.55.55 0 0 0-.163-.393zm-9.311-1.06h4.914v.904H5.54v-.904zm7.477 11.735H3.138V4.13h9.878v9.723zm-5.024-7.85a.561.561 0 0 0-.562.561v5.213a.561.561 0 1 0 1.124 0V6.565a.562.562 0 0 0-.562-.562zm-3.043 0a.561.561 0 0 0-.562.561v5.213a.561.561 0 1 0 1.124 0V6.565a.562.562 0 0 0-.562-.562zm6.055 0a.561.561 0 0 0-.561.561v5.213a.561.561 0 1 0 1.123 0V6.565a.562.562 0 0 0-.562-.562z"/>
    </g>
</svg>
