<svg xmlns="http://www.w3.org/2000/svg" width="24" height="24" viewBox="0 0 24 24">
    <path fill-rule="nonzero" stroke="none" d="M5.5 16c.276 0 .5.224.5.5V18h12v-1.5c0-.276.224-.5.5-.5h3c.276 0 .5.224.5.5v5c0 .276-.224.5-.5.5h-19c-.276 0-.5-.224-.5-.5v-5c0-.276.224-.5.5-.5zM5 17H3v4h18v-4h-2v1.5c0 .276-.224.5-.5.5h-13c-.276 0-.5-.224-.5-.5V17zm8.5-15c.276 0 .5.224.5.5V10h2.5c.412 0 .647.47.4.8l-4.5 6c-.2.267-.6.267-.8 0l-4.5-6c-.247-.33-.012-.8.4-.8H10V2.5c0-.276.224-.5.5-.5h3zM13 3h-2v7.5c0 .276-.224.5-.5.5h-2l3.5 4.667L15.5 11h-2c-.276 0-.5-.224-.5-.5V3z"/>
</svg>
