<svg xmlns="http://www.w3.org/2000/svg" width="17" height="16" viewBox="0 0 17 16">
    <path fill-rule="nonzero" stroke="none" d="M1.246 14.604l-.007-.012a.5.5 0 0 1-.047-.417l1.334-4 .012-.033a.496.496 0 0 1 .011-.025l-.023.058a.5.5 0 0 1 .12-.195l-.054.064a.5.5 0 0 1 .054-.064l8.667-8.667a.5.5 0 0 1 .707 0l2.667 2.667a.5.5 0 0 1 0 .707L6.02 13.354a.5.5 0 0 1-.195.12l-1.077.359H13a.5.5 0 0 1 .492.41l.008.09a.5.5 0 0 1-.5.5H1.681a.486.486 0 0 1-.103-.006c-.001-.002-.003-.002-.005-.002a.394.394 0 0 1-.074-.02l-.016-.007a.404.404 0 0 1-.058-.027l-.016-.01a.453.453 0 0 1-.064-.045l-.056-.055a.51.51 0 0 1-.043-.057zm1.972-3.345l-.76 2.284 2.283-.762-1.523-1.522zM10 4.039l-6.293 6.294 1.959 1.96L11.959 6l-1.96-1.96zm1.667-1.665l-.96.959 1.959 1.96.96-.96-1.96-1.96z"/>
</svg>
