<svg xmlns="http://www.w3.org/2000/svg" width="24" height="24" viewBox="0 0 24 24">
    <path stroke="none" fill-rule="nonzero" d="M2.291 21.955l-.039-.02a.5.5 0 0 1-.18-.176l-.009-.015a.486.486 0 0 1-.037-.402l2-6a.5.5 0 0 1 .047-.101l.033-.049.04-.046 13-13a.5.5 0 0 1 .708 0l4 4a.5.5 0 0 1 0 .708l-13 13a.501.501 0 0 1-.196.12L5.582 21 19.5 21a.5.5 0 0 1 .492.41l.008.09a.5.5 0 0 1-.5.5H2.515a.486.486 0 0 1-.187-.03l-.006-.002a.226.226 0 0 1-.03-.013zm2.427-5.53l-1.427 4.284 4.283-1.428-2.856-2.856zM15 5.707L5.207 15.5 8.5 18.792l9.793-9.793L15 5.707zm2.5-2.5L15.707 5 19 8.292 20.793 6.5 17.5 3.207z"/>
</svg>