<svg id="ic-minimize" xmlns="http://www.w3.org/2000/svg" width="16" height="16" viewBox="0 0 16 16">
    <path d="M14.5 10c.276 0 .5.224.5.5s-.224.5-.5.5H11v3.5c0 .276-.224.5-.5.5s-.5-.224-.5-.5v-4c0-.276.224-.5.5-.5zm-9 0c.276 0 .5.224.5.5v4c0 .276-.224.5-.5.5s-.5-.224-.5-.5V11H1.5c-.276 0-.5-.224-.5-.5s.224-.5.5-.5zm0-9c.276 0 .5.224.5.5v4c0 .276-.224.5-.5.5h-4c-.276 0-.5-.224-.5-.5s.224-.5.5-.5H5V1.5c0-.276.224-.5.5-.5zm5 0c.276 0 .5.224.5.5V5h3.5c.276 0 .5.224.5.5s-.224.5-.5.5h-4c-.276 0-.5-.224-.5-.5v-4c0-.276.224-.5.5-.5z"/>
</svg>
