<svg xmlns="http://www.w3.org/2000/svg" width="24" height="24" viewBox="0 0 24 24">
    <path fill-rule="nonzero" stroke="none" d="M21.5 2c.276 0 .5.224.5.5v19c0 .276-.224.5-.5.5h-19c-.276 0-.5-.224-.5-.5v-19c0-.276.224-.5.5-.5h19zM7 18H3v3h4v-3zm14 0H8v3h13v-3zM7 14H3v3h4v-3zm14 0H8v3h13v-3zm0-11H3v10h18V3zm-3.89 2.188c.172-.216.487-.25.702-.078.216.172.25.487.078.702l-4 5c-.204.256-.594.25-.79-.012l-2.654-3.539-3.592 3.593c-.196.195-.512.195-.708 0-.195-.196-.195-.512 0-.708l4-4c.216-.215.571-.19.754.054l2.613 3.484z"/>
</svg>
