<svg width="236" height="180" xmlns="http://www.w3.org/2000/svg" xmlns:xlink="http://www.w3.org/1999/xlink">
    <defs>
        <linearGradient x1="50%" y1="97.16%" x2="50%" y2="3.83%" id="c">
            <stop stop-color="#0E0E0E" stop-opacity="0" offset="0%"></stop>
            <stop stop-color="#FFF" stop-opacity=".16" offset="100%"></stop>
        </linearGradient>
        <rect id="a" x="0" y="0" width="236" height="180" rx="4"></rect>
    </defs>
    <g fill="none" fill-rule="evenodd">
        <mask id="b" fill="#fff">
            <use xlink:href="#a"></use>
        </mask>
        <use fill="#151717" fill-rule="nonzero" xlink:href="#a"></use>
        <path d="M155.5 123H61v57h-1v-57H0v-1h60V32H0v-1h60V0h1v31h94.5V0h1v31H236v1h-79.5v90H236v1h-79.5v57h-1v-57zm0-1V32H61v90h94.5z" fill="#1D1F20" fill-rule="nonzero" mask="url(#b)"></path>
        <path fill="url(#c)" mask="url(#b)" d="M156 96l-6.5 6.5-5 32-3-15-2-75-2-15-16-14-9 15-14 14h-11l-5 15-2-30-3 30h-4l-5 30-2-15-12-15-2-14-23 14-4 15-3-29-9 44H0V180h156z"></path>
        <path d="M149 102.42a.5.5 0 01.15-.27l6.5-6.5a.5.5 0 11.7.7l-6.38 6.39-4.98 31.84c-.08.55-.87.57-.98.02L141 119.5l-2-74.94-1.97-14.82-15.4-13.48-8.7 14.49-.08.1-14 14a.5.5 0 01-.35.14H87.86l-4.89 14.66c-.17.52-.93.42-.97-.13l-1.6-24L78 59.54a.5.5 0 01-.5.45h-3.58L69 89.58c-.1.57-.91.56-.99-.01L66.02 74.7 54.11 59.81a.5.5 0 01-.1-.24l-1.9-13.25-22.18 13.5-3.95 14.8c-.14.55-.92.48-.98-.07L22.34 48.8 13.99 89.6a.5.5 0 01-.49.4H0v-1h13.1L22 45.4c.11-.56.93-.52.99.05l2.72 26.3 3.3-12.38a.5.5 0 01.22-.3l23-14a.5.5 0 01.75.36l1.98 13.86L66.9 74.2a.5.5 0 01.1.24l1.57 11.7L73 59.42a.5.5 0 01.49-.42h3.55L80 29.45c.06-.61.96-.6 1 .02l1.83 27.46 4.2-12.59a.5.5 0 01.47-.34h10.8l13.8-13.81 8.97-14.95a.5.5 0 01.76-.12l16 14a.5.5 0 01.17.31l2 15.06 1.99 74.91 2.45 12.25 4.57-29.23z" fill="#FFF" fill-rule="nonzero" mask="url(#b)"></path>
        <path d="M158.96 95.5H163v1h-4.04a3 3 0 110-1zm36.46 1H191v-1h4.42L205 84h31v24h-31l-9.58-11.5zm-12.42-1h4v1h-4v-1zm-8 0h4v1h-4v-1zm-8 0h4v1h-4v-1z" fill="#FF444F" mask="url(#b)"></path>
    </g>
</svg>