<?xml version="1.0" encoding="UTF-8"?>
<svg width="32px" height="32px" viewBox="0 0 32 32" version="1.1" xmlns="http://www.w3.org/2000/svg" xmlns:xlink="http://www.w3.org/1999/xlink">
    <!-- Generator: Sketch 49.1 (51147) - http://www.bohemiancoding.com/sketch -->
    <title>icons/underlying assets/otc stocks/ic-amazon</title>
    <desc>Created with Sketch.</desc>
    <defs></defs>
    <g id="icons/underlying-assets/otc-stocks/ic-amazon" stroke="none" stroke-width="1" fill="none" fill-rule="evenodd">
        <g id="Amazon_logo_plain" transform="translate(1.000000, 12.000000)">
            <path d="M18.5773116,6.95374025 C16.8418002,8.20874841 14.3262824,8.87834063 12.1604684,8.87834063 C9.1236477,8.87834063 6.38972985,7.77638306 4.32141531,5.94361284 C4.15891448,5.79949025 4.30451464,5.60307717 4.49951663,5.71531301 C6.73163117,6.98945225 9.49155084,7.75597641 12.3424702,7.75597641 C14.265182,7.75597641 16.3802966,7.36569895 18.3251098,6.55581133 C18.618912,6.43337095 18.8646134,6.74457246 18.5773116,6.95374025" id="path8" fill="#FF9900"></path>
            <path d="M19.2988171,6.14385263 C19.0778148,5.86581246 17.8324067,6.01248522 17.273403,6.07753138 C17.1031012,6.09793803 17.0771019,5.95254084 17.230502,5.84795598 C18.2224091,5.1630589 19.8500207,5.36074803 20.039822,5.59032246 C20.2296224,5.82117295 19.9904217,7.42181809 19.0583148,8.18579014 C18.9153139,8.30312825 18.7788129,8.24063371 18.8425141,8.08503246 C19.0518149,7.57231609 19.5211186,6.42316836 19.2988171,6.14385263" id="path10" fill="#FF9900"></path>
            <path d="M17.3124035,1.01286165 L17.3124035,0.347095654 C17.3124035,0.246337978 17.390404,0.178741168 17.4840045,0.178741168 L20.5221243,0.178741168 C20.6196258,0.178741168 20.6976263,0.247613546 20.6976263,0.347095654 L20.6976263,0.917205762 C20.6963272,1.01286165 20.6144257,1.13785219 20.468824,1.33554133 L18.8945138,3.54073252 C19.4795182,3.52670371 20.0970224,3.61215555 20.6274258,3.90550106 C20.7470267,3.9718223 20.7795268,4.06875376 20.788627,4.16441063 L20.788627,4.87481614 C20.788627,4.9717476 20.679426,5.08525852 20.5650253,5.02659019 C19.6303186,4.54575863 18.3888105,4.49346668 17.3553035,5.03169198 C17.250003,5.08781014 17.1395024,4.97557382 17.1395024,4.87864236 L17.1395024,4.20394836 C17.1395024,4.09553825 17.1408015,3.91060236 17.2513022,3.74607409 L19.0752149,1.17994106 L17.4879045,1.17994106 C17.390404,1.17994106 17.3124035,1.11234474 17.3124035,1.01286165" id="path12" fill="#221F1F"></path>
            <path d="M6.22982787,5.16688511 L5.30552192,5.16688511 C5.21712208,5.16050874 5.14692109,5.09546257 5.14042076,5.01255992 L5.14042076,0.358575276 C5.14042076,0.265470032 5.21972142,0.191495384 5.31852208,0.191495384 L6.18042754,0.191495384 C6.27012902,0.195319168 6.34162869,0.262918411 6.34812952,0.347095654 L6.34812952,0.955468897 L6.36502969,0.955468897 C6.58993101,0.367502303 7.01243316,0.0932883568 7.58183764,0.0932883568 C8.16034126,0.0932883568 8.52174357,0.367502303 8.78174539,0.955468897 C9.00534704,0.367502303 9.51365018,0.0932883568 10.0583545,0.0932883568 C10.4457571,0.0932883568 10.8695599,0.250164195 11.1282616,0.602178519 C11.4207636,0.993730573 11.3609629,1.56256511 11.3609629,2.06125268 L11.3596632,4.99853111 C11.3596632,5.09163636 11.2803626,5.16688511 11.1815619,5.16688511 L10.2585551,5.16688511 C10.1662553,5.16050874 10.0921548,5.08781014 10.0921548,4.99853111 L10.0921548,2.53188019 C10.0921548,2.33546663 10.1103541,1.84570755 10.0661545,1.65949657 C9.99725415,1.34702095 9.79055266,1.25901652 9.52275035,1.25901652 C9.29914869,1.25901652 9.06514721,1.40568928 8.97024655,1.64036598 C8.87534588,1.87504219 8.88444605,2.26786884 8.88444605,2.53188019 L8.88444605,4.99853111 C8.88444605,5.09163636 8.80514539,5.16688511 8.70634473,5.16688511 L7.78333896,5.16688511 C7.68973847,5.16050874 7.61693764,5.08781014 7.61693764,4.99853111 L7.61563797,2.53188019 C7.61563797,2.01278695 7.70273764,1.24881344 7.04623398,1.24881344 C6.38192886,1.24881344 6.40792919,1.9936549 6.40792919,2.53188019 L6.40792919,4.99853111 C6.40792919,5.09163636 6.32862853,5.16688511 6.22982787,5.16688511" id="path14" fill="#221F1F"></path>
            <path d="M23.313244,0.0932883568 C24.6847533,0.0932883568 25.4270579,1.24881344 25.4270579,2.71809068 C25.4270579,4.13762614 24.6067518,5.26381657 23.313244,5.26381657 C21.9664344,5.26381657 21.233229,4.10829149 21.233229,2.66834938 C21.233229,1.21947879 21.9755346,0.0932883568 23.313244,0.0932883568 M23.3210435,1.04347236 C22.6398397,1.04347236 22.5969387,1.95411717 22.5969387,2.52167711 C22.5969387,3.09051165 22.5878386,4.30470555 23.313244,4.30470555 C24.0295488,4.30470555 24.0633491,3.32518836 24.0633491,2.72829328 C24.0633491,2.33546663 24.046449,1.86611419 23.9255475,1.49369274 C23.8215467,1.16973846 23.6148462,1.04347236 23.3210435,1.04347236" id="path16" fill="#221F1F"></path>
            <path d="M27.2054703,5.16688511 L26.2850643,5.16688511 C26.192763,5.16050874 26.1186625,5.08781014 26.1186625,4.99853111 L26.1173634,0.343269438 C26.1251634,0.257816627 26.2018642,0.191495384 26.2954647,0.191495384 L27.152171,0.191495384 C27.2327708,0.195319168 27.2990713,0.248889114 27.3172721,0.321587708 L27.3172721,1.0332683 L27.3341713,1.0332683 C27.5928739,0.396836951 27.9555754,0.0932883568 28.5938797,0.0932883568 C29.0085824,0.0932883568 29.4128857,0.239961114 29.6728875,0.641716249 C29.914689,1.01413722 29.914689,1.64036598 29.914689,2.09058636 L29.914689,5.02021333 C29.9042891,5.10183895 29.8275883,5.16688511 29.7365886,5.16688511 L28.8096819,5.16688511 C28.7251805,5.16050874 28.65498,5.09928879 28.6458809,5.02021333 L28.6458809,2.49234246 C28.6458809,1.9834523 28.705681,1.23860987 28.0673762,1.23860987 C27.8424754,1.23860987 27.6357734,1.38655868 27.5330728,1.61103084 C27.4030726,1.89544884 27.3861724,2.17859079 27.3861724,2.49234246 L27.3861724,4.99853111 C27.3848733,5.09163636 27.304272,5.16688511 27.2054713,5.16688511" id="path18" fill="#221F1F"></path>
            <path d="M14.8904867,2.9438389 C14.8904867,3.2971283 14.8995868,3.5917489 14.7175855,3.90550106 C14.5706847,4.16058441 14.3366832,4.31746025 14.0779815,4.31746025 C13.7230791,4.31746025 13.5150779,4.05217333 13.5150779,3.66062128 C13.5150779,2.88772074 14.2209824,2.74742533 14.8904867,2.74742533 L14.8904867,2.9438389 M15.8225931,5.1541309 C15.7614933,5.20769841 15.673092,5.21152463 15.6041916,5.1758136 C15.2973893,4.92583252 15.2414891,4.80976998 15.0737881,4.57126755 C14.5667847,5.07888214 14.2066815,5.23065571 13.5501774,5.23065571 C12.7714721,5.23065571 12.1669682,4.76002819 12.1669682,3.81749809 C12.1669682,3.08158365 12.5725716,2.58034592 13.1523754,2.33546663 C13.6541787,2.11864544 14.3548825,2.08038376 14.8904867,2.02043938 L14.8904867,1.90310128 C14.8904867,1.68755565 14.9073868,1.43247279 14.7773862,1.24626328 C14.6655853,1.07918338 14.4497832,1.01031101 14.2586827,1.01031101 C13.9063796,1.01031101 13.5930784,1.18759349 13.5163771,1.55491268 C13.5007771,1.63653976 13.4396772,1.71689079 13.3551759,1.72071701 L12.4594702,1.62633571 C12.3840695,1.60975625 12.2995692,1.5498109 12.3216695,1.43629998 C12.5270708,0.370053924 13.5098777,0.0486488432 14.3886829,0.0486488432 C14.8384865,0.0486488432 15.4260903,0.165986951 15.7809928,0.500145276 C16.2307954,0.912103978 16.1878954,1.46180744 16.1878954,2.05997711 L16.1878954,3.47313571 C16.1878954,3.89784911 16.3672964,4.08405863 16.5362976,4.31363403 C16.5947986,4.39525965 16.6077987,4.49346668 16.5323951,4.55468663 C16.3438939,4.7090123 16.0084915,4.99598046 15.8238903,5.15668252 L15.8225911,5.15412846" id="path28" fill="#221F1F"></path>
            <path d="M2.77310539,2.9438389 C2.77310539,3.2971283 2.78220456,3.5917489 2.60020418,3.90550106 C2.45330236,4.16058441 2.22060104,4.31746025 1.96059922,4.31746025 C1.60569674,4.31746025 1.39899575,4.05217333 1.39899575,3.66062128 C1.39899575,2.88772074 2.10490021,2.74742533 2.77310539,2.74742533 L2.77310539,2.9438389 M3.70521134,5.1541309 C3.64411101,5.20769841 3.55570969,5.21152463 3.48680936,5.1758136 C3.18000803,4.92583252 3.12540704,4.80976998 2.95640588,4.57126755 C2.44940236,5.07888214 2.09060088,5.23065571 1.43279559,5.23065571 C0.655389967,5.23065571 0.0495868264,4.76002819 0.0495868264,3.81749809 C0.0495868264,3.08158365 0.456489471,2.58034592 1.03499311,2.33546663 C1.53679641,2.11864544 2.23750121,2.08038376 2.77310539,2.02043938 L2.77310539,1.90310128 C2.77310539,1.68755565 2.79000555,1.43247279 2.66130456,1.24626328 C2.54820302,1.07918338 2.33240236,1.01031101 2.14260055,1.01031101 C1.79029889,1.01031101 1.47569608,1.18759349 1.39899575,1.55491268 C1.38339526,1.63653976 1.32229493,1.71689079 1.23909476,1.72071701 L0.34208881,1.62633571 C0.266688149,1.60975625 0.183487488,1.5498109 0.204287653,1.43629998 C0.41098914,0.370053924 1.39249542,0.0486488432 2.27130203,0.0486488432 C2.72110423,0.0486488432 3.30870803,0.165986951 3.66361051,0.500145276 C4.11341415,0.912103978 4.07051316,1.46180744 4.07051316,2.05997711 L4.07051316,3.47313571 C4.07051316,3.89784911 4.24991514,4.08405863 4.4189163,4.31363403 C4.47871646,4.39525965 4.49171663,4.49346668 4.41631597,4.55468663 C4.22781481,4.7090123 3.89241283,4.99598046 3.70781068,5.15668252 L3.70521134,5.15412846" id="path30" fill="#221F1F"></path>
        </g>
    </g>
</svg>