<?xml version="1.0" encoding="UTF-8"?>
<svg width="32px" height="32px" viewBox="0 0 32 32" version="1.1" xmlns="http://www.w3.org/2000/svg" xmlns:xlink="http://www.w3.org/1999/xlink">
    <!-- Generator: Sketch 49.1 (51147) - http://www.bohemiancoding.com/sketch -->
    <title>icons/underlying assets/otc stocks/ic-alphabet</title>
    <desc>Created with Sketch.</desc>
    <defs></defs>
    <g id="icons/underlying-assets/otc-stocks/ic-alphabet" stroke="none" stroke-width="1" fill="none" fill-rule="evenodd">
        <g id="Alphabet_Inc_Logo_2015" transform="translate(1.000000, 13.000000)" fill="#ED1C24" fill-rule="nonzero">
            <path d="M28.1080808,4.24083333 L28.1080808,2.32186111 L27.4409091,2.32186111 L27.4409091,1.69468056 L28.1080808,1.69468056 L28.1080808,0.574486111 L28.8218182,0.574486111 L28.8218182,1.69468056 L29.7527273,1.69468056 L29.7527273,2.32186111 L28.8218182,2.32186111 L28.8218182,4.18852778 C28.8218182,4.59929167 29.000303,4.78595833 29.3338384,4.78595833 C29.4656566,4.78595833 29.5587879,4.77098611 29.659697,4.72616667 L29.9078788,5.31611111 C29.7449495,5.38329167 29.5742424,5.41323611 29.3338384,5.41323611 C28.5347475,5.41323611 28.1080808,4.98759722 28.1080808,4.24083333 Z M23.5076768,3.52399444 C23.5076768,2.48605 24.2525253,1.575175 25.369697,1.575175 C26.5023232,1.575175 27.2316162,2.34420278 27.2316162,3.52399444 C27.2316162,3.5763 27.2238384,3.65096667 27.2238384,3.65096667 L24.2215152,3.65096667 C24.260303,4.42757778 24.8421212,4.84563333 25.4317172,4.84563333 C25.8506061,4.84563333 26.2694949,4.681425 26.4713131,4.21845278 L27.1074747,4.4723 C26.8825253,4.99496667 26.3238384,5.47291111 25.4472727,5.47291111 C24.2836364,5.47291111 23.5076768,4.62911944 23.5076768,3.52399444 Z M25.3541414,2.20235556 C24.8266667,2.20235556 24.4076768,2.54584167 24.2679798,3.08348056 L26.4713131,3.08348056 C26.4480808,2.76235556 26.1686869,2.20235556 25.3541414,2.20235556 Z M20.0091919,4.84563333 L19.9781818,4.84563333 L19.9781818,5.35332778 L19.2955556,5.35332778 L19.2955556,0.00698055556 L20.0091919,0.00698055556 L20.0091919,1.69456389 L19.9781818,2.20235556 L20.0091919,2.20235556 C20.2264646,1.86635556 20.699798,1.57507778 21.3048485,1.57507778 C22.2667677,1.57507778 23.1124242,2.40389722 23.1124242,3.52399444 C23.1124242,4.64409167 22.2667677,5.47291111 21.3048485,5.47291111 C20.699798,5.47291111 20.2264646,5.18163333 20.0091919,4.84563333 Z M22.3986869,3.52399444 C22.3986869,2.70256389 21.8246465,2.20235556 21.1884848,2.20235556 C20.5523232,2.20235556 19.9781818,2.68768889 19.9781818,3.52399444 C19.9781818,4.3603 20.5523232,4.84563333 21.1884848,4.84563333 C21.8246465,4.84563333 22.3986869,4.345425 22.3986869,3.52399444 Z M15.1841414,4.24819306 C15.1841414,3.41947083 15.959899,2.97137361 16.8521212,2.97137361 C17.3641414,2.97137361 17.7364646,3.11322083 17.8839394,3.19547083 L17.8839394,3.09095694 C17.8839394,2.53834583 17.4261616,2.20234583 16.8908081,2.20234583 C16.4952525,2.20234583 16.1150505,2.3890125 15.9832323,2.73249861 L15.3316162,2.46367917 C15.4634343,2.12767917 15.9211111,1.57506806 16.8753535,1.57506806 C17.8063636,1.57506806 18.5665657,2.11280417 18.5665657,3.1432625 L18.5665657,5.35341528 L17.8839394,5.35341528 L17.8839394,4.84572083 L17.8528283,4.84572083 C17.6434343,5.15177639 17.2555556,5.47290139 16.6038384,5.47290139 C15.8279798,5.47290139 15.1841414,5.00992917 15.1841414,4.24819306 Z M17.8839394,3.77783194 C17.8839394,3.77783194 17.5814141,3.53885972 16.9761616,3.53885972 C16.2236364,3.53885972 15.9288889,3.9272625 15.9288889,4.26316528 C15.9288889,4.65156806 16.3477778,4.84572083 16.720202,4.84572083 C17.2865657,4.84572083 17.8839394,4.37516528 17.8839394,3.77783194 Z M11.9492929,1.69455417 L11.9182828,2.20224861 L11.9492929,2.20224861 C12.1510101,1.86624861 12.6320202,1.57506806 13.1518182,1.57506806 C14.1215152,1.57506806 14.6025253,2.20973472 14.6025253,3.11331806 L14.6025253,5.35341528 L13.8887879,5.35341528 L13.8887879,3.21783194 C13.8887879,2.45619306 13.4931313,2.20224861 12.950101,2.20224861 C12.3293939,2.20224861 11.9492929,2.76983194 11.9492929,3.32983194 L11.9492929,5.35341528 L11.2355556,5.35341528 L11.2355556,0.00706805556 L11.9492929,0.00706805556 L11.9492929,1.69455417 Z M7.59737374,4.84562361 L7.56636364,4.84562361 L7.59737374,5.35331806 L7.59737374,6.96633194 L6.88363636,6.96633194 L6.88363636,1.69455417 L7.56636364,1.69455417 L7.56636364,2.20234583 L7.59737374,2.20234583 C7.81464646,1.86634583 8.28787879,1.57506806 8.8930303,1.57506806 C9.85494949,1.57506806 10.7006061,2.4038875 10.7006061,3.52398472 C10.7006061,4.64408194 9.85494949,5.47290139 8.8930303,5.47290139 C8.28787879,5.47290139 7.81464646,5.18162361 7.59737374,4.84562361 Z M9.98686869,3.52398472 C9.98686869,2.70255417 9.41272727,2.20234583 8.77666667,2.20234583 C8.14040404,2.20234583 7.56636364,2.68767917 7.56636364,3.52398472 C7.56636364,4.36029028 8.14040404,4.84562361 8.77666667,4.84562361 C9.41272727,4.84562361 9.98686869,4.34541528 9.98686869,3.52398472 Z M5.40979798,5.35341528 L6.12353535,5.35341528 L6.12353535,0.00706805556 L5.40979798,0.00706805556 L5.40979798,5.35341528 Z M2.09737374,0.00697083333 L0.00262626263,5.35341528 L0.794040404,5.35341528 L1.3369697,3.90480417 L3.67222222,3.90480417 L4.20757576,5.35341528 L4.99878788,5.35341528 L2.90414141,0.00697083333 L2.09737374,0.00697083333 Z M2.48515152,0.8507625 L2.51626263,0.8507625 L3.42393939,3.26255417 L1.57757576,3.26255417 L2.48515152,0.8507625 Z" id="Shape"></path>
        </g>
    </g>
</svg>