<?xml version="1.0" encoding="UTF-8"?>
<svg width="32px" height="32px" viewBox="0 0 32 32" version="1.1" xmlns="http://www.w3.org/2000/svg" xmlns:xlink="http://www.w3.org/1999/xlink">
    <!-- Generator: Sketch 49.1 (51147) - http://www.bohemiancoding.com/sketch -->
    <title>icons/underlying assets/otc stocks/ic-americanexpress</title>
    <desc>Created with Sketch.</desc>
    <defs></defs>
    <g id="icons/underlying-assets/otc-stocks/ic-americanexpress" stroke="none" stroke-width="1" fill="none" fill-rule="evenodd">
        <g id="American_Express_logo" transform="translate(4.000000, 4.000000)" fill-rule="nonzero">
            <path d="M23.7965474,0.0505352113 L0.0538105263,0.0505352113 L0.0538105263,23.9631549 L23.7965474,23.9631549 L23.7965474,16.0713803 C23.8908632,15.9345634 23.9374316,15.7595493 23.9374316,15.5455775 C23.9374316,15.3006761 23.8908632,15.1489859 23.7965474,15.0212113" id="Shape" fill="#1575BB"></path>
            <path d="M2.19393684,10.3979155 L1.73717895,9.28098592 L1.28303158,10.3979155 L2.19393684,10.3979155 Z M12.2562526,9.95315493 C12.1645474,10.0090141 12.0560842,10.0108732 11.9261474,10.0108732 L11.1154526,10.0108732 L11.1154526,9.38856338 L11.9371789,9.38856338 C12.0534737,9.38856338 12.1748211,9.39380282 12.2536421,9.43909859 C12.3402105,9.47991549 12.3937684,9.56678873 12.3937684,9.68678873 C12.3937684,9.80923944 12.3428211,9.90777465 12.2562526,9.95315493 Z M18.0396632,10.3979155 L17.5778526,9.28098592 L17.1185684,10.3979155 L18.0396632,10.3979155 Z M7.25903158,11.6068732 L6.57490526,11.6068732 L6.57237895,9.41256338 L5.60471579,11.6068732 L5.01877895,11.6068732 L4.04858947,9.41061972 L4.04858947,11.6068732 L2.69128421,11.6068732 L2.43486316,10.9819437 L1.04538947,10.9819437 L0.786357895,11.6068732 L0.0615578947,11.6068732 L1.25658947,8.80512676 L2.24808421,8.80512676 L3.38307368,11.4578028 L3.38307368,8.80512676 L4.47225263,8.80512676 L5.3456,10.7057746 L6.14787368,8.80512676 L7.25894737,8.80512676 L7.25894737,11.6068732 L7.25903158,11.6068732 Z M9.98568421,11.6068732 L7.75637895,11.6068732 L7.75637895,8.80512676 L9.98568421,8.80512676 L9.98568421,9.38856338 L8.42374737,9.38856338 L8.42374737,9.89357746 L9.94821053,9.89357746 L9.94821053,10.4678873 L8.42374737,10.4678873 L8.42374737,11.0274085 L9.98568421,11.0274085 L9.98568421,11.6068732 Z M13.1289263,9.55969014 C13.1289263,10.0063944 12.8318316,10.2371831 12.6586947,10.3064789 C12.8047158,10.3622535 12.9294316,10.4607887 12.9888,10.5424225 C13.0830316,10.6817746 13.0992842,10.8062535 13.0992842,11.0564789 L13.0992842,11.6068732 L12.4261895,11.6068732 L12.4236632,11.2535493 C12.4236632,11.0849577 12.4397474,10.842507 12.3183158,10.7077183 C12.2208,10.6091831 12.0721684,10.5878028 11.8319158,10.5878028 L11.1155368,10.5878028 L11.1155368,11.6068732 L10.4482526,11.6068732 L10.4482526,8.80512676 L11.9831579,8.80512676 C12.3242105,8.80512676 12.5754947,8.81416901 12.7912421,8.93932394 C13.0023579,9.06447887 13.1289263,9.2471831 13.1289263,9.55969014 Z M14.1968842,11.6068732 L13.5159579,11.6068732 L13.5159579,8.80512676 L14.1968842,8.80512676 L14.1968842,11.6068732 Z M22.0965053,11.6068732 L21.1508211,11.6068732 L19.8858947,9.504 L19.8858947,11.6068732 L18.5268211,11.6068732 L18.2671158,10.9819437 L16.8808421,10.9819437 L16.6288842,11.6068732 L15.848,11.6068732 C15.5236211,11.6068732 15.1129263,11.5348732 14.8803368,11.2969859 C14.6458105,11.0590986 14.5237895,10.7368732 14.5237895,10.2273803 C14.5237895,9.81185915 14.5967158,9.432 14.8835368,9.13183099 C15.0992842,8.90822535 15.4371368,8.80512676 15.8970105,8.80512676 L16.5430737,8.80512676 L16.5430737,9.40546479 L15.9105684,9.40546479 C15.6670316,9.40546479 15.5295158,9.44180282 15.3970526,9.57143662 C15.2832842,9.68940845 15.2052211,9.91242254 15.2052211,10.2060845 C15.2052211,10.5062535 15.2646737,10.7226761 15.3887158,10.8640563 C15.4914526,10.9749296 15.6781474,11.0085634 15.8538105,11.0085634 L16.1535158,11.0085634 L17.0940632,8.80521127 L18.0939789,8.80521127 L19.2238316,11.4552676 L19.2238316,8.80521127 L20.2399158,8.80521127 L21.4129684,10.7564789 L21.4129684,8.80521127 L22.0965053,8.80521127 L22.0965053,11.6068732 Z M0.0538105263,12.1571831 L1.19402105,12.1571831 L1.45111579,11.5348732 L2.02669474,11.5348732 L2.28311579,12.1571831 L4.52656842,12.1571831 L4.52656842,11.6814085 L4.72682105,12.1592113 L5.89145263,12.1592113 L6.09170526,11.6743099 L6.09170526,12.1571831 L11.6671158,12.1571831 L11.6645053,11.135662 L11.7723789,11.135662 C11.8479158,11.1382817 11.8699789,11.1452958 11.8699789,11.2704507 L11.8699789,12.1571831 L14.7536,12.1571831 L14.7536,11.9193803 C14.9861895,12.0444507 15.3479579,12.1571831 15.824,12.1571831 L17.0371368,12.1571831 L17.2967579,11.5348732 L17.8723368,11.5348732 L18.1262316,12.1571831 L20.464,12.1571831 L20.464,11.5660563 L20.8180211,12.1571831 L22.6913684,12.1571831 L22.6913684,8.24957746 L20.8373895,8.24957746 L20.8373895,8.71107042 L20.5777684,8.24957746 L18.6753684,8.24957746 L18.6753684,8.71107042 L18.4369684,8.24957746 L15.8672842,8.24957746 C15.4371368,8.24957746 15.0590316,8.30983099 14.7536,8.47774648 L14.7536,8.24957746 L12.9802947,8.24957746 L12.9802947,8.47774648 C12.7859368,8.30467606 12.5210947,8.24957746 12.2266105,8.24957746 L5.74804211,8.24957746 L5.31334737,9.25884507 L4.86694737,8.24957746 L2.82635789,8.24957746 L2.82635789,8.71107042 L2.60218947,8.24957746 L0.861894737,8.24957746 L0.0537263158,10.1074648 L0.0537263158,12.1571831 L0.0538105263,12.1571831 Z" id="Shape" fill="#FFFFFF"></path>
            <path d="M23.7965474,14.2238028 L22.5802947,14.2238028 C22.4588632,14.2238028 22.3781895,14.2283662 22.3102316,14.2744225 C22.2398316,14.3198028 22.2127158,14.3871549 22.2127158,14.4760563 C22.2127158,14.5817746 22.2721684,14.6536901 22.3586526,14.6847887 C22.4290526,14.7093803 22.5046737,14.7165634 22.6158316,14.7165634 L22.9775158,14.7262817 C23.3424842,14.7353239 23.5861053,14.7982817 23.7346526,14.951831 C23.7616842,14.9732113 23.7779368,14.9972113 23.7965474,15.0212113 L23.7965474,14.2238028 Z M23.7965474,16.0713803 C23.6344421,16.3092676 23.3185684,16.4298592 22.8909474,16.4298592 L21.6021895,16.4298592 L21.6021895,15.8289296 L22.8857263,15.8289296 C23.0130526,15.8289296 23.1021474,15.8121127 23.1557895,15.7595493 C23.2022737,15.7161972 23.2346947,15.6532394 23.2346947,15.5767606 C23.2346947,15.4951268 23.2022737,15.4303099 23.1531789,15.3914366 C23.1047579,15.3486761 23.0342737,15.3292394 22.9180632,15.3292394 C22.2914526,15.3078592 21.5097263,15.3486761 21.5097263,14.4618592 C21.5097263,14.0553803 21.7669053,13.6275211 22.4672,13.6275211 L23.7964632,13.6275211 L23.7965474,13.0699437 L22.5614316,13.0699437 C22.1887158,13.0699437 21.9179789,13.1595211 21.7262316,13.2987887 L21.7262316,13.0699437 L19.8994526,13.0699437 C19.6073263,13.0699437 19.2644211,13.1426197 19.1022316,13.2987887 L19.1022316,13.0699437 L15.8400842,13.0699437 L15.8400842,13.2987887 C15.5804632,13.1108451 15.1424,13.0699437 14.9402105,13.0699437 L12.7884632,13.0699437 L12.7884632,13.2987887 C12.5830737,13.0991831 12.1263158,13.0699437 11.8479158,13.0699437 L9.43974737,13.0699437 L8.88867368,13.6684225 L8.37254737,13.0699437 L4.77524211,13.0699437 L4.77524211,16.9802535 L8.30484211,16.9802535 L8.87267368,16.3723099 L9.40757895,16.9802535 L11.5832421,16.9821972 L11.5832421,16.062338 L11.7971368,16.062338 C12.0858105,16.0668169 12.4262737,16.0551549 12.7266526,15.9248451 L12.7266526,16.980169 L14.5211789,16.980169 L14.5211789,15.9610141 L14.6077474,15.9610141 C14.7182316,15.9610141 14.7290947,15.9655775 14.7290947,16.0763662 L14.7290947,16.9800845 L20.1805474,16.9800845 C20.5266526,16.9800845 20.8884211,16.8911831 21.0887579,16.7298592 L21.0887579,16.9800845 L22.8179368,16.9800845 C23.1777684,16.9800845 23.5291789,16.9294648 23.7965474,16.799831 L23.7965474,16.0713803 Z M21.1345684,14.951831 C21.2645053,15.0867887 21.3341474,15.2571549 21.3341474,15.5455775 C21.3341474,16.1484507 20.9588211,16.4298592 20.2858105,16.4298592 L18.9860211,16.4298592 L18.9860211,15.8289296 L20.2805895,15.8289296 C20.4071579,15.8289296 20.4969263,15.8121127 20.5531789,15.7595493 C20.5990737,15.7161972 20.632,15.6532394 20.632,15.5767606 C20.632,15.4951268 20.5963789,15.4303099 20.5505684,15.3914366 C20.4995368,15.3486761 20.4291368,15.3292394 20.3129263,15.3292394 C19.6888421,15.3078592 18.9072842,15.3486761 18.9072842,14.4618592 C18.9072842,14.0553803 19.1617684,13.6275211 19.8613895,13.6275211 L21.1992421,13.6275211 L21.1992421,14.2239718 L19.9750737,14.2239718 C19.8537263,14.2239718 19.7748211,14.2285352 19.7077053,14.2745915 C19.6346105,14.3199718 19.6074947,14.3873239 19.6074947,14.4762254 C19.6074947,14.5819437 19.6695579,14.6538592 19.7535158,14.6849577 C19.8239158,14.7095493 19.8995368,14.7167324 20.0132211,14.7167324 L20.3724632,14.7264507 C20.7347368,14.7353239 20.9834105,14.7981972 21.1345684,14.951831 Z M15.1128421,14.7787606 C15.0235789,14.8319155 14.9131789,14.8364789 14.7833263,14.8364789 L13.9726316,14.8364789 L13.9726316,14.2070704 L14.7943579,14.2070704 C14.9131789,14.2070704 15.0320842,14.2096056 15.1128421,14.2576901 C15.1993263,14.3030704 15.2510316,14.3898592 15.2510316,14.5097746 C15.2510316,14.6296901 15.1993263,14.7262817 15.1128421,14.7787606 Z M15.5158737,15.1275211 C15.6644211,15.1825352 15.7858526,15.2811549 15.8427789,15.3627887 C15.9370105,15.4996056 15.9506526,15.6272958 15.9533474,15.8743099 L15.9533474,16.4298592 L15.2833684,16.4298592 L15.2833684,16.0792394 C15.2833684,15.9106479 15.2995368,15.6610141 15.1754947,15.5307042 C15.0779789,15.4303099 14.9293474,15.4063099 14.6858947,15.4063099 L13.9727158,15.4063099 L13.9727158,16.4298592 L13.3021474,16.4298592 L13.3021474,13.6274366 L14.8428632,13.6274366 C15.1807158,13.6274366 15.4267789,13.6423944 15.6458105,13.7596901 C15.8564211,13.8873803 15.9888842,14.0623099 15.9888842,14.382 C15.9888,14.8292958 15.6915368,15.0575493 15.5158737,15.1275211 Z M16.3589053,13.6274366 L18.5861895,13.6274366 L18.5861895,14.2069859 L17.0234947,14.2069859 L17.0234947,14.7164789 L18.5480421,14.7164789 L18.5480421,15.2882535 L17.0234947,15.2882535 L17.0234947,15.845831 L18.5861895,15.8483662 L18.5861895,16.4298592 L16.3589053,16.4298592 L16.3589053,13.6274366 Z M11.8564211,14.9207324 L10.9940211,14.9207324 L10.9940211,14.2070704 L11.8641684,14.2070704 C12.1050947,14.2070704 12.2723368,14.3056056 12.2723368,14.5506761 C12.2723368,14.7930423 12.1128421,14.9207324 11.8564211,14.9207324 Z M10.3293474,16.1749859 L9.30475789,15.0334648 L10.3293474,13.9281972 L10.3293474,16.1749859 Z M7.68336842,15.845831 L6.04261053,15.845831 L6.04261053,15.2882535 L7.50770526,15.2882535 L7.50770526,14.7164789 L6.04261053,14.7164789 L6.04261053,14.2069859 L7.71570526,14.2069859 L8.44564211,15.023662 L7.68336842,15.845831 Z M12.9888,14.5506761 C12.9888,15.3291549 12.4100211,15.4898873 11.8266947,15.4898873 L10.9940211,15.4898873 L10.9940211,16.4298592 L9.69692632,16.4298592 L8.8752,15.5021408 L8.02122105,16.4298592 L5.37785263,16.4298592 L5.37785263,13.6274366 L8.06189474,13.6274366 L8.88294737,14.5460282 L9.73178947,13.6274366 L11.8641684,13.6274366 C12.3937684,13.6274366 12.9888,13.7745634 12.9888,14.5506761 Z" id="Shape" fill="#FFFFFF"></path>
        </g>
    </g>
</svg>