<?xml version="1.0" encoding="UTF-8"?>
<svg width="32px" height="32px" viewBox="0 0 32 32" version="1.1" xmlns="http://www.w3.org/2000/svg" xmlns:xlink="http://www.w3.org/1999/xlink">
    <!-- Generator: Sketch 49.1 (51147) - http://www.bohemiancoding.com/sketch -->
    <title>icons/underlying assets/otc stocks/ic-aibaba</title>
    <desc>Created with Sketch.</desc>
    <defs></defs>
    <g id="icons/underlying-assets/otc-stocks/ic-aibaba" stroke="none" stroke-width="1" fill="none" fill-rule="evenodd">
        <g id="Group" transform="translate(1.000000, 8.000000)">
            <path d="M3.62790698,12.6624561 C3.46474476,12.6147769 3.31296293,12.5351455 3.18160055,12.4283041 C1.91347469,11.2301754 3.52941176,9.82526316 5.39774282,9.01333333 L5.39774282,6.71134503 C5.84404925,6.9728655 6.06566347,7.0154386 6.09336525,7.04280702 L7.51538988,5.63789474 L7.04138167,4.45192982 C11.2274282,3.00444444 12.9264706,2.45403509 16.3122435,1.88842105 L15.6966484,1.3380117 L16.7000684,0.760233918 C18.9870041,1.5174269 21.120041,1.71204678 20.7568399,3.5974269 C20.8553352,2.32935673 19.25171,1.83368421 16.755472,1.14643275 L16.2968536,1.45052632 L17.2017784,2.19555556 C13.9517789,2.74158294 10.7582625,3.57615416 7.66005472,4.68912281 L8.05095759,5.73520468 L6.57352941,7.18269006 C8.47519983,7.73941197 10.5306759,7.39346717 12.1385089,6.24608187 C12.1632761,6.2353533 12.1830532,6.2158142 12.1939124,6.19134503 C12.0444021,6.02192227 11.8806887,5.8652652 11.7045144,5.72304094 C12.0645454,5.74748895 12.3981556,5.91847392 12.6257242,6.19518783 C12.8532928,6.47190174 12.9544035,6.82951933 12.9049248,7.18269006 L12.5417237,7.18269006 C12.57843,6.96061786 12.5394549,6.73278998 12.4309166,6.53497076 C10.54213,7.93140928 8.07336753,8.30656063 5.84712722,7.5354386 L5.84712722,9.32654971 C4.82831737,9.67017544 3.03077975,10.7740351 3.04309166,11.8322807 C3.07081862,12.1927089 3.29491382,12.5096583 3.62790698,12.6594152 L3.62790698,12.6624561 Z" id="Shape" fill="#231F20"></path>
            <path d="M12.120041,12.1850292 C9.87619699,13.3284211 7.72777018,14.2224561 4.38201094,14.3471345 C0.0728454173,14.2650292 -0.595075239,11.4278363 1.45485636,8.46596491 C3.38474692,5.49497076 6.44425445,2.75812865 11.3382353,1.07649123 C12.7325581,0.592982456 14.8378933,0.0152046784 16.8324213,0.00304093567 C19.7195622,-0.0243274854 22.5205198,0.869707602 22.3389193,3.58526316 C22.2404241,5.68046784 19.1870725,8.64233918 17.5834473,10.7618713 C16.8847469,11.674152 16.7739398,12.2823392 17.9466484,12.2367251 C22.2004104,11.96 26.0909713,10.5003509 29.6583447,8.98596491 C27.2606019,10.5976608 14.6839945,16.7555556 14.6132011,12.5529825 C14.6800258,11.9410005 14.9164726,11.3591013 15.2965116,10.871345 C15.7720016,10.2177534 16.2858797,9.59227419 16.8354993,8.99812865 C17.6850205,8.03415205 19.8057456,5.72 20.5290698,4.32725146 C21.7294802,1.70900585 19.0362517,1.57216374 16.7216142,0.760233918 L15.7181943,1.3380117 L16.3183995,1.88842105 C12.9326265,2.45403509 11.2428181,3.00444444 7.05984952,4.43672515 L7.53385773,5.62269006 L6.09644323,7.0154386 C6.06874145,6.9728655 5.84404925,6.94549708 5.40082079,6.68397661 L5.40082079,8.99812865 C3.53248974,9.81005848 1.91347469,11.2149708 3.18467852,12.4130994 C3.31604091,12.5199408 3.46782274,12.5995723 3.63098495,12.6472515 C5.93023256,13.9274854 12.1508208,12.1789474 12.1354309,12.1789474 L12.120041,12.1850292 Z" id="Shape" fill="#F47937"></path>
        </g>
    </g>
</svg>