<?xml version="1.0" encoding="UTF-8"?>
<svg width="32px" height="32px" viewBox="0 0 32 32" version="1.1" xmlns="http://www.w3.org/2000/svg" xmlns:xlink="http://www.w3.org/1999/xlink">
    <!-- Generator: Sketch 49.1 (51147) - http://www.bohemiancoding.com/sketch -->
    <title>icons/underlying assets/otc stocks/ic-apple</title>
    <desc>Created with Sketch.</desc>
    <defs></defs>
    <g id="icons/underlying-assets/otc-stocks/ic-apple" stroke="none" stroke-width="1" fill="none" fill-rule="evenodd">
        <g id="apple" transform="translate(6.000000, 4.000000)" fill="#000000" fill-rule="nonzero">
            <path d="M16.7033902,12.7261671 C16.7379063,16.3512111 19.9642564,17.5575344 20,17.5729316 C19.9727197,17.6580082 19.484483,19.2920604 18.3002055,20.9799197 C17.2764496,22.4391595 16.213926,23.8930539 14.5401374,23.9231653 C12.8954727,23.9527194 12.3666213,22.972025 10.4863039,22.972025 C8.60655453,22.972025 8.01897648,23.8930515 6.46211817,23.9527194 C4.84648755,24.0123436 3.6162018,22.3747448 2.58393812,20.9208504 C0.474632279,17.9468605 -1.13731382,12.5170536 1.02712234,8.85184533 C2.10236805,7.03168802 4.02391341,5.87908843 6.1095791,5.84953216 C7.69608707,5.82001871 9.19356203,6.8904522 10.1634145,6.8904522 C11.132652,6.8904522 12.9524027,5.60316213 14.8654396,5.79221694 C15.6663022,5.82472423 17.9143366,6.10770955 19.3578613,8.1683344 C19.2415488,8.23865394 16.6754961,9.69549752 16.7033902,12.7261705 M13.612433,3.82466311 C14.4701821,2.81210148 15.0474967,1.40252205 14.8899991,0 C13.6536181,0.0484609695 12.1585558,0.80348883 11.2717273,1.81549338 C10.4769586,2.71167054 9.78091992,4.14605924 9.9687232,5.52082234 C11.3468149,5.6248033 12.7546416,4.83786866 13.612433,3.82466475" id="Shape"></path>
        </g>
    </g>
</svg>