<?xml version="1.0" encoding="UTF-8"?>
<svg width="32px" height="32px" viewBox="0 0 32 32" version="1.1" xmlns="http://www.w3.org/2000/svg" xmlns:xlink="http://www.w3.org/1999/xlink">
    <!-- Generator: Sketch 49.1 (51147) - http://www.bohemiancoding.com/sketch -->
    <title>icons/underlying assets/otc stocks/ic-airbus</title>
    <desc>Created with Sketch.</desc>
    <defs></defs>
    <g id="icons/underlying-assets/otc-stocks/ic-airbus" stroke="none" stroke-width="1" fill="none" fill-rule="evenodd">
        <g id="Airbus_Logo_2017" transform="translate(0.000000, 12.000000)" fill="#00205B" fill-rule="nonzero">
            <path d="M18.5023446,5.34419262 L16.500914,5.34419262 L16.500914,4.1116842 L18.5034189,4.1116842 C18.8326884,4.11757758 19.0984686,4.38793567 19.0984686,4.72557803 C19.0984686,5.0632204 18.8316113,5.34419262 18.5023446,5.34419262 Z M16.500914,1.73048332 L18.4679114,1.73048332 C18.73692,1.73401934 18.9650386,1.96187558 18.9650386,2.26055817 C18.9650386,2.55805905 18.7261604,2.79535376 18.4560747,2.79181169 L16.500914,2.79181169 L16.500914,1.73048332 Z M19.6332601,3.45410983 C20.0034169,3.16841384 20.143301,2.69500611 20.143301,2.17437578 C20.143301,1.19450904 19.3911507,0.409432135 18.4689857,0.409432135 L15.1289662,0.409432135 L15.1289662,6.66524682 L18.6002643,6.66524682 L18.6002643,6.66766462 C19.5751534,6.66766462 20.3864848,5.84244926 20.3864848,4.83188556 C20.3864848,4.17312949 20.0249363,3.6855565 19.6332601,3.45416725 L19.6332601,3.45410983 Z M24.7842479,0.395321265 L24.7842479,3.91222499 C24.7842479,4.98772166 24.2117975,5.43869525 23.5080684,5.43869525 C22.8032651,5.43869525 22.2351174,4.98890033 22.2351174,3.91340669 L22.2351174,0.395321265 L20.8136712,0.395321265 L20.8136712,3.92285121 C20.8136712,6.17300748 22.0188329,6.82822147 23.5080684,6.82822147 C24.998381,6.82822147 26.204617,6.17300748 26.204617,3.92285121 L26.204617,0.395321265 L24.7842479,0.395321265 Z M29.7716808,2.83318927 C28.6213973,2.55929817 28.2329496,2.4377011 28.2329496,2.03748917 C28.2329496,1.68449983 28.6493736,1.50623564 29.3068327,1.50623564 C29.9277072,1.50623564 30.6777062,1.79665238 31.1178037,2.08589045 L31.5665123,0.813243567 C30.8993678,0.508655512 30.0966447,0.217057073 29.0356727,0.217057073 C27.6443569,0.217057073 26.7759932,1.10956578 26.7759932,2.20040639 C26.7759932,3.2924287 27.4915589,3.77292058 28.9097767,4.1022971 C30.0094847,4.35729915 30.3075494,4.51077186 30.3075494,4.88619231 C30.3075494,5.26161275 29.8663721,5.39973849 29.2702481,5.39973849 C28.4987298,5.39973849 27.7562648,5.11758155 27.0568385,4.78820503 L26.6339576,6.02892187 C27.4700368,6.4539253 28.3384006,6.79510974 29.3735477,6.79510974 C31.0984357,6.79510974 31.8021648,5.89079614 31.8021648,4.83655191 C31.8021648,3.89918097 31.2103436,3.17667666 29.7716808,2.83313185 L29.7716808,2.83318927 Z M3.02892788,0.409432135 L0.14837656,6.66406512 L1.85927644,6.66527402 L2.28969134,5.65943107 L4.25453463,5.65943107 L3.64334548,4.28879691 L2.86752161,4.28879691 L3.59815261,2.57815699 L5.43817696,6.66527402 L7.15337961,6.66527402 L4.16092042,0.409459335 L3.02892788,0.409432135 Z M14.6027857,2.48958703 C14.6027857,1.35034212 13.8904484,0.425960801 12.4259607,0.425960801 L9.46793466,0.425960801 L9.46793466,6.68177549 L10.8388054,6.68056659 L10.8388054,1.74698478 L12.5206519,1.74698478 C13.0177818,1.74698478 13.224381,2.08462715 13.224381,2.48601776 C13.224381,2.88859007 13.0070221,3.21088547 12.5098923,3.21088547 L11.3337839,3.21088547 L13.1135502,6.68056659 L14.5210055,6.68056659 C14.5210055,6.68056659 13.3029327,4.41269996 13.3093869,4.41152128 C14.1885103,4.111657 14.6027857,3.38088684 14.6027857,2.48955983 L14.6027857,2.48958703 Z M7.44713605,6.66758 L8.86535381,6.66758 L8.86535381,0.412947007 L7.44713605,0.412947007 L7.44713605,6.66758 Z" id="path28794"></path>
        </g>
    </g>
</svg>