<?xml version="1.0" encoding="UTF-8"?>
<svg width="32px" height="32px" viewBox="0 0 32 32" version="1.1" xmlns="http://www.w3.org/2000/svg" xmlns:xlink="http://www.w3.org/1999/xlink">
    <!-- Generator: Sketch 49.1 (51147) - http://www.bohemiancoding.com/sketch -->
    <title>icons/underlying assets/otc stocks/ic-allianz</title>
    <desc>Created with Sketch.</desc>
    <defs></defs>
    <g id="icons/underlying-assets/otc-stocks/ic-allianz" stroke="none" stroke-width="1" fill="none" fill-rule="evenodd">
        <path d="M17.5929204,22.2761062 L14.4070796,22.2761062 L14.4070796,10.6265487 C14.4070796,10.0106195 14.1946903,9.80884956 13.6637168,9.80884956 L13.3451327,9.80884956 L13.3451327,8.42831858 L16.2123894,8.42831858 C17.1681416,8.42831858 17.5929204,8.75752212 17.5929204,9.76637168 L17.5929204,22.2761062 Z M19.2920354,22.2761062 L19.2920354,11.4973451 L20.9911504,11.4973451 C21.9469027,11.4973451 22.3716814,11.879646 22.3716814,12.8353982 L22.3716814,22.2761062 L19.2920354,22.2761062 Z M12.7079646,22.2761062 L9.62831858,22.2761062 L9.62831858,12.8353982 C9.62831858,11.879646 10.0530973,11.4973451 11.0088496,11.4973451 L12.7079646,11.4973451 L12.7079646,22.2761062 Z M25.9823009,15.9893805 C25.9823009,10.1380531 21.7345133,5.86902655 16,5.86902655 C10.2654867,5.86902655 6.01769912,10.1380531 6.01769912,15.9893805 C6.01769912,21.840708 10.2654867,26.1097345 16,26.1097345 C21.7345133,26.1097345 25.9823009,21.840708 25.9823009,15.9893805 Z M28,15.9893805 C28,22.860177 22.9026549,28 16,28 C9.20353982,28 4,22.860177 4,15.9893805 C4,9.13982301 9.20353982,4 16,4 C22.9026549,4 28,9.13982301 28,15.9893805 Z" id="path37647" fill="#004A93"></path>
    </g>
</svg>