<?xml version="1.0" encoding="UTF-8"?>
<svg width="32px" height="32px" viewBox="0 0 32 32" version="1.1" xmlns="http://www.w3.org/2000/svg" xmlns:xlink="http://www.w3.org/1999/xlink">
    <!-- Generator: Sketch 49.1 (51147) - http://www.bohemiancoding.com/sketch -->
    <title>icons/underlying assets/otc stocks/ic-barclays</title>
    <desc>Created with Sketch.</desc>
    <defs></defs>
    <g id="icons/underlying-assets/otc-stocks/ic-barclays" stroke="none" stroke-width="1" fill="none" fill-rule="evenodd">
        <path d="M14.0751122,4.35717428 C13.9842907,4.35186741 13.8933142,4.34946628 13.8023303,4.3499748 C13.2777498,4.3499748 12.6044352,4.4249694 12.030071,4.79834252 C11.4754557,5.15431689 11.2115197,5.78447152 11.5073419,6.24563831 C11.5073419,6.24563831 11.7056539,5.96285867 12.3579853,5.96285867 C12.4495297,5.96285867 12.5511543,5.97245798 12.6593619,5.98125735 C13.5608175,6.08484989 14.2277548,6.5458167 14.1464963,7.76372901 C14.0742893,8.98084138 13.6048412,10.3381437 11.6842593,10.3539425 C11.6842593,10.3539425 11.4367807,10.3539425 11.1730504,10.3301442 C10.2792063,10.2353511 9.99819576,9.68979034 9.99819576,9.68979034 C9.99819576,9.68979034 10.770872,9.48580502 10.7772493,8.53247366 C10.770872,7.88412034 10.1899248,7.29076307 9.35162455,7.05098033 C9.07719693,6.97298595 8.77561456,6.9347887 8.46189483,6.9347887 C7.47362626,6.9347887 6.3643956,7.33715972 5.61619976,8.28649137 C3.92026178,10.4633346 3.78263653,13.6367062 4.19633514,16.5876937 C4.61250236,19.5452807 6.54213582,22.2842835 6.59870823,22.3592781 C6.63964608,22.4118743 6.6766753,22.4404723 6.71843602,22.4404723 C7.6180402,21.6263309 8.41272826,20.5518083 8.75257416,19.83346 C9.11648904,20.1154397 8.92640574,20.7151965 8.72644799,21.3555504 C8.53636469,22.0101033 8.07432239,22.8792407 7.90707378,23.1596205 C7.74579098,23.4338008 7.5293758,23.7523778 7.82026085,23.9187658 C7.84988422,23.9363646 7.88753058,23.9459639 7.93258279,23.9459639 C8.30616641,23.9459639 9.18540452,23.3128095 10.1660615,22.041501 C11.2639777,20.611204 11.8210617,19.3412954 11.8210617,19.3412954 C11.9014973,19.3588942 12.0356254,19.4910846 12.0136136,19.8512587 C11.9990076,20.2168324 11.612258,21.5773344 10.8593307,22.8436433 C10.0981746,24.1093521 9.39523673,24.9010951 9.25329141,25.0810822 C9.16565561,25.1852747 9.24033119,25.25067 9.29669788,25.2930669 C9.35244742,25.3296643 10.6986651,26.5515763 12.6544247,27.583702 C14.9714249,28.7842155 15.9989855,29 15.9989855,29 C15.9989855,29 17.0238719,28.7896151 19.3410778,27.5901015 C21.2960146,26.556176 22.6477866,25.3286643 22.697776,25.2872673 C22.7541427,25.24967 22.8263497,25.1910742 22.7411825,25.0760825 C22.6076716,24.9040949 21.9022651,24.1083522 21.142549,22.8426433 C20.3920903,21.5851339 19.9905291,20.2158325 19.984769,19.8550584 C19.9693401,19.4910846 20.0954452,19.3706933 20.1723836,19.3404955 C20.1723836,19.3404955 20.7352277,20.6182035 21.8331439,22.0407011 C22.8187381,23.3136094 23.6897475,23.9451639 24.0651826,23.9451639 C24.1124977,23.9451639 24.1503498,23.9355646 24.1814132,23.9179659 C24.4632466,23.7515779 24.2536201,23.4282012 24.0880173,23.1572207 C23.9339346,22.8784408 23.4653093,22.0151029 23.2661744,21.3547505 C23.0752683,20.7071971 22.8769563,20.1082402 23.2472484,19.83266 C23.5881229,20.5512083 24.3770508,21.6311306 25.2130882,22.4060748 C25.2313065,22.4264335 25.2573543,22.438588 25.2850895,22.4396723 C25.3221187,22.4396723 25.3614108,22.4116744 25.3957657,22.3630779 C25.4572753,22.2834836 27.3899945,19.5490805 27.8028703,16.5866938 C28.2175975,13.6293067 28.0807951,10.4633346 26.3830056,8.28549144 C25.6399528,7.33375997 24.5222877,6.9291891 23.5276418,6.9291891 C23.2170079,6.9291891 22.9205684,6.9679863 22.6492266,7.04378085 C21.8045491,7.29056308 21.2260705,7.88951995 21.230802,8.53147373 C21.230802,9.48500508 22.0073869,9.68879041 22.0073869,9.68879041 C22.0073869,9.68879041 21.7475652,10.2209521 20.8218349,10.3291443 C20.6488262,10.3499428 20.4809604,10.3593421 20.3202948,10.3593421 C19.6237341,10.3593421 19.0372325,10.1443576 18.4964003,9.40201106 C17.9720255,8.68766249 17.9893058,7.21636842 17.9590653,6.72580374 C17.935202,6.22803958 17.8255544,5.11112 17.286985,4.6555528 C16.7504729,4.18798646 16.0967015,4.03099777 15.281236,4 C15.2219892,4.00199986 15.1687083,4.00199986 15.1187189,4.00199986 C14.4371756,4.00199986 14.2962589,4.11739155 14.0751122,4.35717428 Z" id="Shape" fill="#00AFE9" fill-rule="nonzero"></path>
    </g>
</svg>