<?xml version="1.0" encoding="UTF-8"?>
<svg width="32px" height="32px" viewBox="0 0 32 32" version="1.1" xmlns="http://www.w3.org/2000/svg" xmlns:xlink="http://www.w3.org/1999/xlink">
    <!-- Generator: Sketch 49.1 (51147) - http://www.bohemiancoding.com/sketch -->
    <title>icons/underlying assets/otc stocks/ic-bershirehathaway</title>
    <desc>Created with Sketch.</desc>
    <defs></defs>
    <g id="icons/underlying-assets/otc-stocks/ic-bershirehathaway" stroke="none" stroke-width="1" fill="none" fill-rule="evenodd">
        <g id="Berkshire_Hathaway" transform="translate(1.000000, 14.000000)" fill="#2E3192">
            <path d="M2.08100503,1.05216667 C2.1838191,0.966666667 2.20959799,0.824666667 2.20959799,0.711 C2.20959799,0.568833333 2.1838191,0.455333333 2.10678392,0.3415 C2.05537688,0.228 1.95271357,0.142666667 1.8241206,0.0858333333 C1.69552764,0.029 1.49020101,0.000666666667 1.20753769,0.000666666667 L0,0.000666666667 L0,0.0575 C0.10281407,0.0575 0.18,0.0858333333 0.231256281,0.114333333 C0.282663317,0.142666667 0.308442211,0.171166667 0.308442211,0.199666667 C0.334070352,0.228166667 0.359849246,0.341666667 0.359849246,0.483833333 L0.359849246,2.30233333 C0.359849246,2.47283333 0.334070352,2.55816667 0.308442211,2.615 C0.308442211,2.64333333 0.282663317,2.67183333 0.231256281,2.70016667 C0.18,2.72866667 0.10281407,2.72866667 0,2.72866667 L0,2.814 L1.28457286,2.814 C1.64427136,2.814 1.92693467,2.72866667 2.10678392,2.55833333 C2.26085427,2.41616667 2.3380402,2.24566667 2.3380402,2.01833333 C2.3380402,1.8195 2.26085427,1.67733333 2.13241206,1.5355 C2.02959799,1.45 1.84974874,1.39316667 1.61864322,1.30816667 C1.8498995,1.251 2.00396985,1.16583333 2.08100503,1.05216667 Z M0.925025126,0.142666667 C1.10487437,0.142666667 1.25909548,0.171166667 1.33613065,0.228166667 C1.41316583,0.2565 1.49035176,0.313333333 1.5159799,0.398333333 C1.56738693,0.483833333 1.59316583,0.568833333 1.59316583,0.711 C1.59316583,0.824666667 1.56738693,0.938333333 1.5159799,0.995166667 C1.46442211,1.0805 1.41301508,1.13733333 1.3359799,1.19416667 C1.23316583,1.251 1.10487437,1.251 0.925025126,1.251 L0.925025126,0.142666667 Z M1.36160804,1.4785 C1.46442211,1.53533333 1.54160804,1.59216667 1.59301508,1.70566667 C1.64442211,1.81916667 1.67005025,1.933 1.67005025,2.04666667 C1.67005025,2.1605 1.64442211,2.274 1.59301508,2.35933333 C1.54160804,2.4445 1.49020101,2.52983333 1.41301508,2.58666667 C1.31035176,2.615 1.23316583,2.64333333 1.13035176,2.64333333 C1.07894472,2.64333333 1.02768844,2.64333333 0.976281407,2.58666667 C0.950502513,2.55816667 0.924874372,2.50116667 0.924874372,2.41616667 L0.924874372,2.33066667 L0.924874372,1.4215 C1.13050251,1.4215 1.25909548,1.44983333 1.36160804,1.4785 Z" id="Shape"></path>
            <path d="M3.32502513,1.28816667 C3.4438191,1.28816667 3.5178392,1.28816667 3.54753769,1.30466667 C3.62170854,1.32116667 3.6661809,1.37033333 3.71065327,1.41933333 C3.75512563,1.46866667 3.78482412,1.55066667 3.79959799,1.6655 L3.84407035,1.6655 L3.84407035,1.18966667 L2.61301508,1.18966667 L2.61301508,1.2225 L2.67241206,1.2225 C2.71703518,1.2225 2.74673367,1.239 2.77628141,1.27166667 C2.79120603,1.27166667 2.8059799,1.3045 2.82075377,1.321 C2.82075377,1.33733333 2.82075377,1.38666667 2.82075377,1.46866667 L2.82075377,2.53466667 C2.82075377,2.61683333 2.82075377,2.666 2.80582915,2.6825 C2.80582915,2.71516667 2.79105528,2.73166667 2.76135678,2.74816667 C2.74658291,2.76466667 2.7019598,2.76466667 2.67226131,2.76466667 L2.61286432,2.76466667 L2.61286432,2.81383333 L3.87346734,2.81383333 L3.94778894,2.289 L3.90331658,2.289 C3.87361809,2.43666667 3.81422111,2.5515 3.72527638,2.61716667 C3.65110553,2.68283333 3.53246231,2.7155 3.39904523,2.7155 L3.3101005,2.7155 C3.26562814,2.7155 3.23592965,2.7155 3.22100503,2.69916667 C3.20623116,2.68266667 3.19130653,2.66633333 3.19130653,2.65 C3.17653266,2.63333333 3.17653266,2.58416667 3.17653266,2.48583333 L3.17653266,2.0265 C3.25070352,2.0265 3.29517588,2.043 3.33979899,2.05933333 C3.36949749,2.07583333 3.39919598,2.125 3.42874372,2.174 C3.45829146,2.23983333 3.47321608,2.32183333 3.48798995,2.40383333 L3.53246231,2.40383333 L3.53246231,1.56683333 L3.48798995,1.56683333 C3.47321608,1.68166667 3.44351759,1.78 3.39904523,1.84583333 C3.36934673,1.9115 3.29517588,1.94433333 3.20623116,1.94433333 L3.17653266,1.94433333 L3.17653266,1.28816667 L3.32502513,1.28816667 Z" id="Shape"></path>
            <path d="M4.73396985,2.0755 L5.20854271,2.81366667 L5.66834171,2.81366667 L5.66834171,2.7645 C5.62386935,2.7645 5.59417085,2.748 5.56462312,2.71516667 C5.54984925,2.69883333 5.50522613,2.666 5.46090452,2.6005 L5.1198995,2.04266667 C5.20884422,2.02616667 5.26809045,1.977 5.32748744,1.928 C5.40165829,1.86233333 5.44613065,1.764 5.44613065,1.63266667 C5.44613065,1.53433333 5.41643216,1.45233333 5.35718593,1.38666667 C5.31271357,1.30466667 5.23854271,1.2555 5.16437186,1.22266667 C5.07527638,1.20616667 4.9418593,1.18983333 4.77874372,1.18983333 L4.09658291,1.18983333 L4.09658291,1.22266667 C4.1559799,1.22266667 4.20030151,1.23916667 4.23,1.2555 C4.25969849,1.27183333 4.27447236,1.28816667 4.27447236,1.30466667 C4.28924623,1.32116667 4.28924623,1.38666667 4.28924623,1.46866667 L4.28924623,2.53466667 C4.28924623,2.61683333 4.28924623,2.666 4.27447236,2.69883333 C4.27447236,2.71516667 4.25954774,2.7315 4.23,2.748 C4.20045226,2.7645 4.15582915,2.7645 4.09658291,2.7645 L4.09658291,2.81366667 L4.8381407,2.81366667 L4.8381407,2.7645 C4.77874372,2.7645 4.73442211,2.7645 4.70472362,2.748 C4.67502513,2.7315 4.66025126,2.71516667 4.66025126,2.69883333 C4.64547739,2.666 4.63055276,2.61683333 4.63055276,2.53466667 L4.63055276,2.0755 L4.73396985,2.0755 Z M4.74874372,1.27166667 C4.86738693,1.27166667 4.95633166,1.3045 5.00080402,1.37016667 C5.06020101,1.41933333 5.0898995,1.51783333 5.0898995,1.6325 C5.0898995,1.731 5.07497487,1.79666667 5.04527638,1.84583333 C5.01557789,1.895 4.97110553,1.92783333 4.92663317,1.9605 C4.86723618,1.977 4.79321608,1.99333333 4.7041206,1.99333333 L4.62994975,1.99333333 L4.62994975,1.27166667 L4.74874372,1.27166667 Z" id="Shape"></path>
            <path d="M7.00311558,1.43566667 C7.10698492,1.33716667 7.16638191,1.27166667 7.19592965,1.25533333 C7.22562814,1.23883333 7.2701005,1.23883333 7.31457286,1.2225 L7.31457286,1.18966667 L6.75105528,1.18966667 L6.75105528,1.2225 C6.81045226,1.239 6.85477387,1.239 6.86969849,1.25533333 C6.89939698,1.27166667 6.91417085,1.288 6.91417085,1.321 C6.91417085,1.37016667 6.86969849,1.41933333 6.79552764,1.48483333 L6.26155779,1.977 L6.26155779,1.46866667 C6.26155779,1.38666667 6.26155779,1.33733333 6.26155779,1.30466667 C6.27633166,1.28816667 6.29125628,1.27183333 6.30603015,1.2555 C6.33572864,1.239 6.38020101,1.22266667 6.42482412,1.22266667 L6.42482412,1.18966667 L5.6980402,1.18966667 L5.6980402,1.2225 L5.74266332,1.2225 C5.78713568,1.2225 5.81683417,1.239 5.84638191,1.25533333 C5.86115578,1.27166667 5.89085427,1.288 5.89085427,1.3045 C5.90577889,1.33716667 5.90577889,1.3865 5.90577889,1.4685 L5.90577889,2.5345 C5.90577889,2.61666667 5.90577889,2.66583333 5.89085427,2.68233333 C5.8760804,2.715 5.86115578,2.7315 5.84638191,2.748 C5.81668342,2.7645 5.78698492,2.7645 5.74266332,2.7645 L5.6980402,2.7645 L5.6980402,2.81366667 L6.43959799,2.81366667 L6.43959799,2.7645 C6.38020101,2.7645 6.33572864,2.7645 6.32080402,2.748 C6.29125628,2.7315 6.27633166,2.71516667 6.26155779,2.69883333 C6.26155779,2.666 6.26155779,2.61683333 6.26155779,2.53466667 L6.26155779,2.092 L6.30603015,2.04266667 L6.64718593,2.50216667 C6.70643216,2.6005 6.75090452,2.666 6.75090452,2.699 C6.75090452,2.71533333 6.7359799,2.73166667 6.72120603,2.74816667 C6.70628141,2.74816667 6.67673367,2.76466667 6.63226131,2.76466667 L6.63226131,2.81383333 L7.38859296,2.81383333 L7.38859296,2.76466667 C7.3441206,2.76466667 7.31442211,2.74816667 7.26994975,2.73183333 C7.21055276,2.69916667 7.15130653,2.63333333 7.07713568,2.51866667 L6.57286432,1.81333333 L7.00311558,1.43566667 Z" id="Shape"></path>
            <path d="M8.38251256,1.15683333 C8.36758794,1.206 8.35281407,1.2225 8.33788945,1.23883333 C8.33788945,1.25533333 8.32311558,1.25533333 8.29356784,1.25533333 C8.27879397,1.25533333 8.24909548,1.25533333 8.20447236,1.2225 C8.14522613,1.206 8.11552764,1.18966667 8.07105528,1.17333333 C8.02658291,1.15683333 7.98211055,1.15683333 7.93763819,1.15683333 C7.80422111,1.15683333 7.70035176,1.206 7.61125628,1.288 C7.5221608,1.3865 7.49246231,1.48483333 7.49246231,1.61616667 C7.49246231,1.69816667 7.50738693,1.76383333 7.53693467,1.82933333 C7.56663317,1.895 7.61110553,1.94416667 7.67050251,1.99333333 C7.7298995,2.0425 7.81884422,2.10816667 7.95226131,2.17366667 C8.0559799,2.2395 8.11537688,2.27216667 8.15984925,2.305 C8.18954774,2.33766667 8.21924623,2.37066667 8.2340201,2.4035 C8.24894472,2.45266667 8.26371859,2.48533333 8.26371859,2.51816667 C8.26371859,2.58383333 8.2340201,2.63283333 8.18954774,2.68216667 C8.14522613,2.73133333 8.08582915,2.76416667 7.99673367,2.76416667 C7.89301508,2.76416667 7.8039196,2.71483333 7.70020101,2.63283333 C7.61110553,2.53433333 7.5518593,2.40333333 7.5221608,2.23933333 L7.49246231,2.23933333 L7.49246231,2.84633333 L7.5221608,2.84633333 C7.53708543,2.8135 7.5518593,2.7805 7.56678392,2.76433333 C7.59648241,2.74783333 7.61110553,2.74783333 7.64095477,2.74783333 C7.6558794,2.74783333 7.68527638,2.74783333 7.71512563,2.76433333 C7.77452261,2.79716667 7.83376884,2.8135 7.87824121,2.83 C7.9079397,2.8465 7.95241206,2.8465 8.01165829,2.8465 C8.14522613,2.8465 8.27864322,2.79733333 8.36758794,2.69883333 C8.45653266,2.60033333 8.51592965,2.4855 8.51592965,2.35433333 C8.51592965,2.23966667 8.48623116,2.14116667 8.42698492,2.05916667 C8.36758794,1.9935 8.24909548,1.89516667 8.07105528,1.79683333 C7.95241206,1.731 7.87824121,1.682 7.84854271,1.6655 C7.78929648,1.63266667 7.75959799,1.5835 7.74482412,1.55083333 C7.73005025,1.518 7.71512563,1.50166667 7.71512563,1.45233333 C7.71512563,1.40316667 7.74482412,1.354 7.77452261,1.30466667 C7.81899497,1.27183333 7.87824121,1.239 7.95256281,1.239 C8.05628141,1.239 8.14537688,1.28816667 8.21954774,1.37016667 C8.30849246,1.45216667 8.35296482,1.55066667 8.38266332,1.69833333 L8.42713568,1.69833333 L8.4120603,1.15683333 L8.38251256,1.15683333 Z" id="Shape"></path>
            <path d="M9.71728643,2.02616667 L9.71728643,2.53466667 C9.71728643,2.61683333 9.71728643,2.666 9.71728643,2.6825 C9.70236181,2.71516667 9.68758794,2.73166667 9.67281407,2.74816667 C9.64311558,2.76466667 9.61341709,2.76466667 9.56894472,2.76466667 L9.52447236,2.76466667 L9.52447236,2.81383333 L10.280804,2.81383333 L10.280804,2.76466667 L10.2363317,2.76466667 C10.1917085,2.76466667 10.1621608,2.76466667 10.1326131,2.74816667 C10.1176884,2.73166667 10.1029146,2.71533333 10.0879899,2.6825 C10.0732161,2.666 10.0732161,2.61683333 10.0732161,2.53466667 L10.0732161,1.46866667 C10.0732161,1.38666667 10.0732161,1.33733333 10.0879899,1.321 C10.1029146,1.28816667 10.1176884,1.27166667 10.1326131,1.25533333 C10.1623116,1.23883333 10.1918593,1.2225 10.2363317,1.2225 L10.280804,1.2225 L10.280804,1.18966667 L9.52447236,1.18966667 L9.52447236,1.2225 L9.56894472,1.2225 C9.61341709,1.2225 9.64311558,1.239 9.65788945,1.25533333 C9.68758794,1.27166667 9.70236181,1.288 9.71728643,1.3045 C9.71728643,1.33716667 9.71728643,1.3865 9.71728643,1.4685 L9.71728643,1.92783333 L9.19824121,1.92783333 L9.19824121,1.46866667 C9.19824121,1.38666667 9.21301508,1.33733333 9.21301508,1.321 C9.2279397,1.28816667 9.24271357,1.27166667 9.25748744,1.25533333 C9.28718593,1.23883333 9.31688442,1.2225 9.36120603,1.2225 L9.40567839,1.2225 L9.40567839,1.18966667 L8.64934673,1.18966667 L8.64934673,1.2225 L8.6938191,1.2225 C8.73829146,1.2225 8.76798995,1.239 8.79768844,1.25533333 C8.81246231,1.27166667 8.82738693,1.288 8.84201005,1.3045 C8.85678392,1.33716667 8.85678392,1.3865 8.85678392,1.4685 L8.85678392,2.5345 C8.85678392,2.61666667 8.85678392,2.66583333 8.84201005,2.68233333 C8.82723618,2.715 8.81231156,2.7315 8.79768844,2.748 C8.76798995,2.7645 8.73829146,2.7645 8.6938191,2.7645 L8.64934673,2.7645 L8.64934673,2.81366667 L9.40567839,2.81366667 L9.40567839,2.7645 L9.36120603,2.7645 C9.31673367,2.7645 9.28703518,2.7645 9.27226131,2.748 C9.24256281,2.7315 9.22778894,2.71516667 9.21286432,2.68233333 C9.21286432,2.66583333 9.19809045,2.61666667 9.19809045,2.5345 L9.19809045,2.026 L9.71728643,2.026 L9.71728643,2.02616667 Z" id="Shape"></path>
            <path d="M11.081608,2.7645 C11.0371357,2.7645 11.0074372,2.7645 10.9778894,2.748 C10.9629648,2.7315 10.948191,2.71516667 10.9334171,2.68233333 C10.9334171,2.66583333 10.9186432,2.61666667 10.9186432,2.5345 L10.9186432,1.46866667 C10.9186432,1.38666667 10.9334171,1.33733333 10.9334171,1.321 C10.9483417,1.28816667 10.9631156,1.27166667 10.9778894,1.25533333 C11.0075879,1.23883333 11.0371357,1.2225 11.081608,1.2225 L11.1260804,1.2225 L11.1260804,1.18966667 L10.3697487,1.18966667 L10.3697487,1.2225 L10.4142211,1.2225 C10.4586935,1.2225 10.488392,1.239 10.5180905,1.25533333 C10.5328643,1.27166667 10.5476382,1.288 10.5625628,1.3045 C10.5625628,1.33716667 10.5773367,1.3865 10.5773367,1.4685 L10.5773367,2.5345 C10.5773367,2.61666667 10.5625628,2.66583333 10.5625628,2.68233333 C10.5476382,2.715 10.5328643,2.7315 10.5180905,2.748 C10.488392,2.7645 10.4586935,2.7645 10.4142211,2.7645 L10.3697487,2.7645 L10.3697487,2.81366667 L11.1260804,2.81366667 L11.1260804,2.7645 L11.081608,2.7645 Z" id="Shape"></path>
            <path d="M11.8676382,2.0755 L12.3422111,2.81366667 L12.8020101,2.81366667 L12.8020101,2.7645 C12.7575377,2.7645 12.7278392,2.748 12.6982915,2.71516667 C12.6833668,2.69883333 12.6538191,2.666 12.6093467,2.6005 L12.2534171,2.04266667 C12.3423618,2.02616667 12.4165327,1.977 12.461005,1.928 C12.5353266,1.86233333 12.5796482,1.764 12.5796482,1.63266667 C12.5796482,1.53433333 12.5499497,1.45233333 12.5054774,1.38666667 C12.4460804,1.30466667 12.3868342,1.2555 12.2978894,1.22266667 C12.2237186,1.20616667 12.0903015,1.18983333 11.9122613,1.18983333 L11.2301005,1.18983333 L11.2301005,1.22266667 C11.2894975,1.22266667 11.3487437,1.23916667 11.3636683,1.2555 C11.3932161,1.27183333 11.4081407,1.28816667 11.4229146,1.30466667 C11.4229146,1.32116667 11.4378392,1.38666667 11.4378392,1.46866667 L11.4378392,2.53466667 C11.4378392,2.61683333 11.4229146,2.666 11.4229146,2.69883333 C11.4081407,2.71516667 11.3932161,2.7315 11.3636683,2.748 C11.3487437,2.7645 11.3042714,2.7645 11.2301005,2.7645 L11.2301005,2.81366667 L11.9716583,2.81366667 L11.9716583,2.7645 C11.9122613,2.7645 11.8679397,2.7645 11.8382412,2.748 C11.8234673,2.7315 11.7937688,2.71516667 11.7937688,2.69883333 C11.7788442,2.666 11.7788442,2.61683333 11.7788442,2.53466667 L11.7788442,2.0755 L11.8676382,2.0755 Z M11.8824121,1.27166667 C12.0010553,1.27166667 12.0901508,1.3045 12.149397,1.37016667 C12.1938693,1.41933333 12.2235678,1.51783333 12.2235678,1.6325 C12.2235678,1.731 12.208794,1.79666667 12.1790955,1.84583333 C12.149397,1.895 12.1049246,1.92783333 12.0604523,1.9605 C12.0159799,1.977 11.9416583,1.99333333 11.8379397,1.99333333 L11.7785427,1.99333333 L11.7785427,1.27166667 L11.8824121,1.27166667 Z" id="Shape"></path>
            <path d="M13.5435678,1.28816667 C13.6472864,1.28816667 13.7214573,1.28816667 13.7659296,1.30466667 C13.8402513,1.32116667 13.8847236,1.37033333 13.9290452,1.41933333 C13.9587437,1.46866667 13.9884422,1.55066667 14.0181407,1.6655 L14.0478392,1.6655 L14.0478392,1.18966667 L12.8317085,1.18966667 L12.8317085,1.2225 L12.8761809,1.2225 C12.9206533,1.2225 12.9651256,1.239 12.9948241,1.27166667 C13.009598,1.27166667 13.0245226,1.3045 13.0245226,1.321 C13.0392965,1.33733333 13.0392965,1.38666667 13.0392965,1.46866667 L13.0392965,2.53466667 C13.0392965,2.61683333 13.0245226,2.666 13.0245226,2.6825 C13.009598,2.71516667 12.9948241,2.73166667 12.9800503,2.74816667 C12.9503518,2.76466667 12.9206533,2.76466667 12.8763317,2.76466667 L12.8318593,2.76466667 L12.8318593,2.81383333 L14.0924623,2.81383333 L14.1666332,2.289 L14.1221608,2.289 C14.0776884,2.43666667 14.0184422,2.5515 13.9442714,2.61716667 C13.8551759,2.68283333 13.7514573,2.7155 13.6178894,2.7155 L13.5289447,2.7155 C13.4844724,2.7155 13.4547739,2.7155 13.44,2.69916667 C13.4252261,2.68266667 13.4103015,2.66633333 13.3955276,2.65 C13.3955276,2.63333333 13.3807538,2.58416667 13.3807538,2.48583333 L13.3807538,2.0265 C13.4549246,2.0265 13.5141709,2.043 13.5438693,2.05933333 C13.5883417,2.07583333 13.6180402,2.125 13.6475879,2.174 C13.6772864,2.23983333 13.6920603,2.32183333 13.6920603,2.40383333 L13.7365327,2.40383333 L13.7365327,1.56683333 L13.6920603,1.56683333 C13.6920603,1.68166667 13.6623618,1.78 13.6178894,1.84583333 C13.5734171,1.9115 13.5141709,1.94433333 13.4103015,1.94433333 L13.3807538,1.94433333 L13.3807538,1.28816667 L13.5435678,1.28816667 Z" id="Shape"></path>
            <path d="M16.9111055,1.4495 L16.9111055,2.33066667 C16.9111055,2.473 16.9111055,2.558 16.8853266,2.5865 C16.8853266,2.64333333 16.8340704,2.67183333 16.8082915,2.70016667 C16.7826633,2.72866667 16.7054774,2.72866667 16.6284422,2.72866667 L16.5512563,2.72866667 L16.5512563,2.814 L17.8876884,2.814 L17.8876884,2.72866667 L17.7847236,2.72866667 C17.7333166,2.72866667 17.6562814,2.72866667 17.630804,2.70016667 C17.5792462,2.67183333 17.5534673,2.64333333 17.5278392,2.5865 C17.5278392,2.558 17.5278392,2.47283333 17.5278392,2.33066667 L17.5278392,0.483166667 C17.5278392,0.340833333 17.5278392,0.255833333 17.5278392,0.2275 C17.5534673,0.1705 17.5792462,0.142 17.6050251,0.113666667 C17.6564322,0.085 17.7078392,0.0566666667 17.7847236,0.0566666667 L17.8876884,0.0566666667 L17.8876884,0 L16.5512563,0 L16.5512563,0.0568333333 L16.6284422,0.0568333333 C16.7054774,0.0568333333 16.7568844,0.0851666667 16.8082915,0.113833333 C16.8596985,0.142166667 16.8853266,0.170666667 16.8853266,0.199 C16.9111055,0.256 16.9111055,0.341166667 16.9111055,0.483333333 L16.9111055,1.27916667 L16.0117085,1.27916667 L16.0117085,0.483166667 C16.0117085,0.340833333 16.0117085,0.255833333 16.0373367,0.2275 C16.0631156,0.1705 16.0887437,0.142 16.1145226,0.113666667 C16.1659296,0.085 16.2173367,0.0566666667 16.2943719,0.0566666667 L16.371407,0.0566666667 L16.371407,0 L15.0351256,0 L15.0351256,0.0568333333 L15.1377889,0.0568333333 C15.189196,0.0568333333 15.2663819,0.0851666667 15.2920101,0.113833333 C15.3434171,0.142166667 15.369196,0.170666667 15.3948241,0.199 C15.3948241,0.256 15.3948241,0.341166667 15.3948241,0.483333333 L15.3948241,2.33083333 C15.3948241,2.47316667 15.3948241,2.55816667 15.3948241,2.58666667 C15.369196,2.6435 15.3434171,2.672 15.3177889,2.70033333 C15.2663819,2.72883333 15.2149749,2.72883333 15.1377889,2.72883333 L15.0351256,2.72883333 L15.0351256,2.81416667 L16.371407,2.81416667 L16.371407,2.72883333 L16.2943719,2.72883333 C16.2173367,2.72883333 16.1659296,2.72883333 16.1145226,2.70033333 C16.0887437,2.672 16.0373367,2.6435 16.0373367,2.58666667 C16.0117085,2.55816667 16.0117085,2.473 16.0117085,2.33083333 L16.0117085,1.4495 L16.9111055,1.4495 Z" id="Shape"></path>
            <path d="M19.1276382,2.55133333 C19.1425628,2.6005 19.1571859,2.63316667 19.1571859,2.63316667 C19.1571859,2.64983333 19.1571859,2.666 19.1571859,2.6825 C19.1571859,2.71516667 19.1571859,2.73166667 19.1424121,2.74816667 C19.1127136,2.76466667 19.0830151,2.76466667 19.0237688,2.76466667 L18.9940704,2.76466667 L18.9940704,2.81383333 L19.6911558,2.81383333 L19.6911558,2.76466667 C19.6466834,2.76466667 19.6169849,2.74816667 19.5874372,2.71533333 C19.5577387,2.699 19.5132663,2.617 19.468794,2.48566667 L18.9348241,1.157 L18.9200503,1.157 L18.401005,2.45283333 C18.3563819,2.5675 18.3119095,2.64983333 18.2674372,2.699 C18.2378894,2.73166667 18.1932663,2.76466667 18.148794,2.76466667 L18.148794,2.81383333 L18.6233668,2.81383333 L18.6233668,2.76466667 C18.549196,2.76466667 18.5047236,2.74816667 18.489799,2.73183333 C18.4602513,2.71533333 18.430402,2.68266667 18.430402,2.63333333 C18.430402,2.60066667 18.4453266,2.5515 18.4601005,2.50233333 L18.5341206,2.3545 L19.038392,2.3545 L19.1276382,2.55133333 Z M18.5641206,2.256 L18.7866332,1.71466667 L19.0091457,2.256 L18.5641206,2.256 Z" id="Shape"></path>
            <path d="M19.8099497,1.18966667 L19.8099497,1.6325 L19.8394975,1.6325 C19.8544221,1.5015 19.8990452,1.41933333 19.9582915,1.35383333 C20.0027638,1.3045 20.0767839,1.288 20.1806533,1.288 L20.2845226,1.288 L20.2845226,2.5345 C20.2845226,2.61666667 20.2845226,2.66583333 20.269598,2.68233333 C20.2546734,2.715 20.2398995,2.7315 20.2251256,2.748 C20.1954271,2.7645 20.1657286,2.7645 20.121407,2.7645 L20.0767839,2.7645 L20.0767839,2.81366667 L20.8332663,2.81366667 L20.8332663,2.7645 L20.788794,2.7645 C20.7590955,2.7645 20.7146231,2.7645 20.6996985,2.748 C20.6701508,2.7315 20.6552261,2.71516667 20.6552261,2.68233333 C20.6404523,2.66583333 20.6404523,2.61666667 20.6404523,2.5345 L20.6404523,1.28816667 L20.7441709,1.28816667 C20.818191,1.28816667 20.8626633,1.28816667 20.8923618,1.30466667 C20.9368342,1.33733333 20.9813065,1.37033333 21.011005,1.40316667 C21.0257789,1.45233333 21.0554774,1.53433333 21.0850251,1.63266667 L21.1147236,1.63266667 L21.1147236,1.18966667 L19.8099497,1.18966667 Z" id="Shape"></path>
            <path d="M22.3311558,2.02616667 L22.3311558,2.53466667 C22.3311558,2.61683333 22.3162312,2.666 22.3162312,2.6825 C22.3013065,2.71516667 22.2865327,2.73166667 22.2717588,2.74816667 C22.2420603,2.76466667 22.2123618,2.76466667 22.1680402,2.76466667 L22.1234171,2.76466667 L22.1234171,2.81383333 L22.8798995,2.81383333 L22.8798995,2.76466667 L22.8354271,2.76466667 C22.7909548,2.76466667 22.7612563,2.76466667 22.7317085,2.74816667 C22.7167839,2.73166667 22.7020101,2.71533333 22.6872362,2.6825 C22.6872362,2.666 22.6723116,2.61683333 22.6723116,2.53466667 L22.6723116,1.46866667 C22.6723116,1.38666667 22.6872362,1.33733333 22.6872362,1.321 C22.7020101,1.28816667 22.7167839,1.27166667 22.7317085,1.25533333 C22.7612563,1.23883333 22.7911055,1.2225 22.8354271,1.2225 L22.8798995,1.2225 L22.8798995,1.18966667 L22.1234171,1.18966667 L22.1234171,1.2225 L22.1680402,1.2225 C22.2125126,1.2225 22.2420603,1.239 22.2717588,1.25533333 C22.2865327,1.27166667 22.3013065,1.288 22.3162312,1.3045 C22.3162312,1.33716667 22.3311558,1.3865 22.3311558,1.4685 L22.3311558,1.92783333 L21.8121106,1.92783333 L21.8121106,1.46866667 C21.8121106,1.38666667 21.8121106,1.33733333 21.8121106,1.321 C21.8270352,1.28816667 21.841809,1.27166667 21.8565829,1.25533333 C21.8862814,1.23883333 21.9159799,1.2225 21.9603015,1.2225 L22.0049246,1.2225 L22.0049246,1.18966667 L21.2484422,1.18966667 L21.2484422,1.2225 L21.2929146,1.2225 C21.3373869,1.2225 21.3670854,1.239 21.3966332,1.25533333 C21.4115578,1.27166667 21.4263317,1.288 21.4411055,1.3045 C21.4560302,1.33716667 21.4560302,1.3865 21.4560302,1.4685 L21.4560302,2.5345 C21.4560302,2.61666667 21.4560302,2.66583333 21.4411055,2.68233333 C21.4263317,2.715 21.4115578,2.7315 21.3966332,2.748 C21.3670854,2.7645 21.3372362,2.7645 21.2929146,2.7645 L21.2484422,2.7645 L21.2484422,2.81366667 L22.0049246,2.81366667 L22.0049246,2.7645 L21.9603015,2.7645 C21.9158291,2.7645 21.8862814,2.7645 21.871206,2.748 C21.841809,2.7315 21.8268844,2.71516667 21.8119598,2.68233333 C21.8119598,2.66583333 21.8119598,2.61666667 21.8119598,2.5345 L21.8119598,2.026 L22.3311558,2.026 L22.3311558,2.02616667 Z" id="Shape"></path>
            <path d="M23.9181407,2.55133333 C23.9330653,2.6005 23.9476884,2.63316667 23.9476884,2.63316667 C23.9626131,2.64983333 23.9626131,2.666 23.9626131,2.6825 C23.9626131,2.71516667 23.9476884,2.73166667 23.9330653,2.74816667 C23.9181407,2.76466667 23.8736683,2.76466667 23.8144221,2.76466667 L23.7847236,2.76466667 L23.7847236,2.81383333 L24.4967337,2.81383333 L24.4967337,2.76466667 C24.4522613,2.76466667 24.4225628,2.74816667 24.3930151,2.71533333 C24.3633166,2.699 24.3188442,2.617 24.2742211,2.48566667 L23.740402,1.157 L23.7254774,1.157 L23.1916583,2.45283333 C23.1471859,2.5675 23.1025628,2.64983333 23.0728643,2.699 C23.0434673,2.73166667 22.9988442,2.76466667 22.9394472,2.76466667 L22.9394472,2.81383333 L23.428794,2.81383333 L23.428794,2.76466667 C23.3547739,2.76466667 23.3103015,2.74816667 23.280603,2.73183333 C23.2510553,2.71533333 23.2361307,2.68266667 23.2361307,2.63333333 C23.2361307,2.60066667 23.2510553,2.5515 23.2656784,2.50233333 L23.3250754,2.3545 L23.8441206,2.3545 L23.9181407,2.55133333 Z M23.369397,2.256 L23.5917588,1.71466667 L23.7994975,2.256 L23.369397,2.256 Z" id="Shape"></path>
            <path d="M26.3356281,1.18966667 L26.3356281,1.2225 C26.3950251,1.239 26.4245729,1.239 26.4541206,1.25533333 C26.4690452,1.27166667 26.4838191,1.3045 26.4838191,1.33716667 C26.4838191,1.37 26.4688945,1.3865 26.4688945,1.41916667 C26.4688945,1.43566667 26.4539698,1.48483333 26.4244221,1.56683333 L26.1871357,2.256 L25.9201508,1.48483333 C25.8904523,1.3865 25.8756784,1.33716667 25.8756784,1.321 C25.8756784,1.3045 25.8756784,1.28816667 25.8904523,1.27166667 C25.8904523,1.25533333 25.9053769,1.25533333 25.9201508,1.239 C25.9349246,1.239 25.9795477,1.2225 26.0238693,1.2225 L26.0238693,1.18966667 L25.3267839,1.18966667 L25.3267839,1.2225 C25.3712563,1.2225 25.4009548,1.239 25.4305025,1.25533333 C25.4454271,1.27166667 25.4749749,1.288 25.4900503,1.321 C25.5048241,1.35383333 25.5343719,1.41933333 25.5640704,1.5015 L25.6234673,1.68183333 L25.3861809,2.28883333 L25.1044221,1.5015 C25.0748744,1.403 25.0450251,1.33733333 25.0450251,1.321 C25.0450251,1.28816667 25.0599497,1.27166667 25.0747236,1.25533333 C25.0894975,1.23883333 25.119196,1.23883333 25.1784422,1.2225 L25.1784422,1.18966667 L24.5407538,1.18966667 L24.5407538,1.2225 C24.5852261,1.239 24.6149246,1.25533333 24.6444724,1.27166667 C24.659397,1.3045 24.6889447,1.3865 24.748191,1.51783333 L25.2227638,2.84666667 L25.2672362,2.84666667 L25.6676382,1.79683333 L26.0235678,2.84666667 L26.068191,2.84666667 L26.5278392,1.50166667 C26.5723116,1.38683333 26.5872362,1.3375 26.5872362,1.32116667 C26.6021608,1.28833333 26.6317085,1.27183333 26.6466332,1.2555 C26.6615578,1.239 26.6911055,1.239 26.720804,1.22266667 L26.720804,1.18966667 L26.3356281,1.18966667 Z" id="Shape"></path>
            <path d="M27.7296482,2.55133333 C27.7445729,2.6005 27.7593467,2.63316667 27.7593467,2.63316667 C27.7741206,2.64983333 27.7741206,2.666 27.7741206,2.6825 C27.7741206,2.71516667 27.7593467,2.73166667 27.7445729,2.74816667 C27.729799,2.76466667 27.6851759,2.76466667 27.6259296,2.76466667 L27.5962312,2.76466667 L27.5962312,2.81383333 L28.3082412,2.81383333 L28.3082412,2.76466667 C28.2637688,2.76466667 28.2192965,2.74816667 28.2045226,2.71533333 C28.1748241,2.699 28.1303518,2.617 28.0858794,2.48566667 L27.5519095,1.157 L27.5371357,1.157 L27.0031658,2.45283333 C26.9586935,2.5675 26.9142211,2.64983333 26.8845226,2.699 C26.8549749,2.73166667 26.8103518,2.76466667 26.7511055,2.76466667 L26.7511055,2.81383333 L27.2404523,2.81383333 L27.2404523,2.76466667 C27.1662814,2.76466667 27.121809,2.74816667 27.0921106,2.73183333 C27.0625628,2.71533333 27.0476382,2.68266667 27.0476382,2.63333333 C27.0476382,2.60066667 27.0625628,2.5515 27.0773367,2.50233333 L27.1365829,2.3545 L27.6556281,2.3545 L27.7296482,2.55133333 Z M27.1809045,2.256 L27.4034171,1.71466667 L27.611005,2.256 L27.1809045,2.256 Z" id="Shape"></path>
            <path d="M29.4649749,1.18966667 L29.4649749,1.2225 C29.5243719,1.239 29.5686935,1.25533333 29.598392,1.27166667 C29.6133166,1.28816667 29.6280905,1.3045 29.6280905,1.321 C29.6280905,1.35383333 29.5836181,1.43566667 29.5243719,1.567 L29.2573869,2.04266667 L28.990402,1.51783333 C28.931005,1.40316667 28.9014573,1.321 28.9014573,1.28816667 C28.9014573,1.27166667 28.9162312,1.27166667 28.931005,1.2555 C28.9459296,1.239 28.9754774,1.22266667 29.0199497,1.22266667 L29.0496482,1.22266667 L29.0496482,1.18966667 L28.3525628,1.18966667 L28.3525628,1.2225 C28.3970352,1.2225 28.4415075,1.239 28.471206,1.27166667 C28.4861307,1.28816667 28.5453769,1.37016667 28.6047739,1.51783333 L28.9605528,2.20683333 L28.9605528,2.53483333 C28.9605528,2.617 28.9457789,2.66616667 28.9457789,2.68266667 C28.9308543,2.71533333 28.9160804,2.73183333 28.9013065,2.74833333 C28.871608,2.76483333 28.8419095,2.76483333 28.7974372,2.76483333 L28.7234171,2.76483333 L28.7234171,2.814 L29.538995,2.814 L29.538995,2.76483333 L29.4649749,2.76483333 C29.4205025,2.76483333 29.390804,2.76483333 29.3612563,2.74833333 C29.3461809,2.73183333 29.3315578,2.7155 29.3166332,2.68266667 C29.3166332,2.66616667 29.3018593,2.617 29.3018593,2.53483333 L29.3018593,2.14133333 L29.6280905,1.55083333 C29.7021106,1.40316667 29.7615075,1.30466667 29.791206,1.27183333 C29.8207538,1.2555 29.8652261,1.23916667 29.9098492,1.22266667 L29.9098492,1.18966667 L29.4649749,1.18966667 Z" id="Shape"></path>
        </g>
    </g>
</svg>