<?xml version="1.0" encoding="UTF-8"?>
<svg width="32px" height="32px" viewBox="0 0 32 32" version="1.1" xmlns="http://www.w3.org/2000/svg" xmlns:xlink="http://www.w3.org/1999/xlink">
    <!-- Generator: Sketch 49.1 (51147) - http://www.bohemiancoding.com/sketch -->
    <title>icons/underlying assets/otc stocks/ic-boeing</title>
    <desc>Created with Sketch.</desc>
    <defs></defs>
    <g id="icons/underlying-assets/otc-stocks/ic-boeing" stroke="none" stroke-width="1" fill="none" fill-rule="evenodd">
        <g id="Group" transform="translate(1.000000, 4.000000)" fill="#115FAB" fill-rule="nonzero">
            <path d="M8.57142857,2.8 C3.84654215,2.8 0.00757193338,6.69230769 0.00757193338,11.4923077 C0.00757193338,16.2923077 3.83897022,20.1923077 8.57142857,20.1923077 C13.3038869,20.1923077 17.1352852,16.3 17.1352852,11.4923077 C17.1352852,6.68461538 13.296315,2.8 8.57142857,2.8 Z M8.57142857,19.0615385 C4.40686522,19.0615385 1.02978294,15.6692308 1.02978294,11.4923077 C1.02978294,7.31538462 4.40686522,3.92307692 8.57142857,3.92307692 C12.7359919,3.92307692 16.1130742,7.31538462 16.1130742,11.4923077 C16.1130742,15.6769231 12.7359919,19.0615385 8.57142857,19.0615385 Z" id="Shape"></path>
            <path d="M29.7274104,17.6538462 C23.4881373,17.8230769 17.7940434,18.0615385 14.8561333,18.2692308 L11.7440687,12.3076923 C17.4684503,17.9461538 29.9318526,16.9615385 29.7274104,17.6538462 Z" id="Shape"></path>
            <path d="M3.33922261,22.6538462 C2.27915194,21.7 3.01362948,18.5692308 5.48965169,14.4153846 C10.6461383,5.75384615 17.725896,0.0461538462 17.725896,0.0461538462 C12.3043917,3.35384615 9.21504291,6.65384615 6.58758203,9.93846154 C1.16607774,16.7076923 -0.605754669,23.0923077 1.68096921,24.7230769 C2.65017668,25.4153846 5.94396769,24.6615385 8.57142857,20.6230769 C7.08732963,21.9769231 4.50530035,23.7 3.33922261,22.6538462 Z" id="Shape"></path>
        </g>
    </g>
</svg>