<?xml version="1.0" encoding="UTF-8"?>
<svg width="32px" height="32px" viewBox="0 0 32 32" version="1.1" xmlns="http://www.w3.org/2000/svg" xmlns:xlink="http://www.w3.org/1999/xlink">
    <!-- Generator: Sketch 49.1 (51147) - http://www.bohemiancoding.com/sketch -->
    <title>icons/underlying assets/otc stocks/ic-bmw</title>
    <desc>Created with Sketch.</desc>
    <defs></defs>
    <g id="icons/underlying-assets/otc-stocks/ic-bmw" stroke="none" stroke-width="1" fill="none" fill-rule="evenodd">
        <g id="bmw-logo" transform="translate(4.000000, 4.000000)" fill-rule="nonzero">
            <path d="M11.988024,23.9760962 C15.1901242,23.9760962 18.200513,22.7290581 20.4648337,20.4648337 C22.7290581,18.2005611 23.9760962,15.1901242 23.9760962,11.988024 C23.9760962,8.78597194 22.7290581,5.77553507 20.4648337,3.51126253 C18.2005611,1.24698998 15.1901242,0 11.988024,0 C5.37777956,0 0,5.37777956 0,11.988024 C0,15.1901242 1.24698998,18.2005611 3.51126253,20.4648337 C5.77553507,22.7290581 8.78597194,23.9760962 11.988024,23.9760962 Z" id="Shape" fill="#181818"></path>
            <path d="M0.414781563,11.988024 C0.414781563,8.89678557 1.61862926,5.99047695 3.80455311,3.80455311 C5.99047695,1.61858116 8.89673747,0.414781563 11.988024,0.414781563 C15.0793106,0.414781563 17.9856192,1.61858116 20.171495,3.80455311 C22.3574188,5.99047695 23.5612665,8.89673747 23.5612665,11.988024 C23.5612665,18.3695711 18.369523,23.5613146 11.988024,23.5613146 C8.89673747,23.5613146 5.99047695,22.3574669 3.80455311,20.1715431 C1.61862926,17.9855711 0.414781563,15.0793106 0.414781563,11.988024 Z" id="Shape" fill="#BEC7C9"></path>
            <path d="M11.988024,0.891751503 C5.8597996,0.891751503 0.891751503,5.8597996 0.891751503,11.988024 C0.891751503,18.1162485 5.8597996,23.0843447 11.988024,23.0843447 C18.1162485,23.0843447 23.0842966,18.1162485 23.0842966,11.988024 C23.0842966,5.8597996 18.1162485,0.891751503 11.988024,0.891751503 Z" id="Shape" fill="#181818"></path>
            <path d="M11.988024,19.0759599 C8.07352305,19.0759599 4.90008818,15.9025731 4.90008818,11.988024 C4.90008818,8.07352305 8.07352305,4.90008818 11.988024,4.90008818 C15.9025251,4.90008818 19.0759599,8.07352305 19.0759599,11.988024 C19.0759599,15.9025731 15.9025731,19.0759599 11.988024,19.0759599 Z" id="Shape" fill="#BEC7C9"></path>
            <path d="M5.35608818,11.988024 L11.988024,11.988024 L11.988024,5.35608818 C8.32535471,5.35608818 5.35608818,8.32540281 5.35608818,11.988024 Z M11.988024,11.988024 L11.988024,18.620008 C15.6506934,18.620008 18.6199599,15.6507415 18.6199599,11.988024 L11.988024,11.988024 Z" id="Shape" fill="#00AEF2"></path>
            <path d="M5.35608818,11.988024 L11.988024,11.988024 L11.988024,5.35608818 C8.32535471,5.35608818 5.35608818,8.32540281 5.35608818,11.988024 Z M11.988024,11.988024 L11.988024,18.620008 C15.6506934,18.620008 18.6199599,15.6507415 18.6199599,11.988024 L11.988024,11.988024 Z" id="Shape-Copy" fill="#FFFFFF" transform="translate(11.988024, 11.988048) scale(-1, 1) translate(-11.988024, -11.988048) "></path>
            <path d="M6.77925451,5.22531463 C6.54430461,4.99695391 6.18113026,4.92812826 5.84017635,5.13951102 C5.9052986,4.97074148 5.8787014,4.79850902 5.84412024,4.70347094 C5.69723447,4.43562325 5.64596393,4.4021002 5.52490581,4.30052104 C5.13301804,3.97168737 4.72059319,4.25242485 4.42561924,4.60395992 L3.00043287,6.30238076 L5.2408016,8.18231663 L6.74375952,6.39121443 C7.08716633,5.98196393 7.14026453,5.57622445 6.77925451,5.22531463 Z M12.3592786,4.41826052 L13.1286733,2.37893387 L13.1286733,4.41826052 L13.7134269,4.41826052 L13.7134269,1.49757114 L12.8348537,1.49757114 L12.0357355,3.58874549 L12.044008,3.58874549 L11.2448898,1.49757114 L10.3663647,1.49757114 L10.3663647,4.41826052 L10.9510701,4.41826052 L10.9510701,2.37893387 L11.720513,4.41826052 L12.3592786,4.41826052 Z M20.2210822,5.63336273 L19.1201603,7.19201603 L20.8269018,6.38173948 L21.2788136,6.9397996 L18.5924489,8.24200401 L18.0620922,7.58178758 L19.1187174,6.03679359 L19.1124649,6.0290501 L17.3815311,6.74135471 L16.84598,6.08532265 L18.6783006,3.72841683 L19.1302124,4.28647695 L17.9827816,5.78746293 L19.7362725,5.03466132 L20.2210822,5.63336273 Z" id="Shape" fill="#FFFFFF"></path>
            <path d="M4.73704208,5.02432064 C4.83621643,4.9061002 5.06034469,4.91095792 5.20448898,5.03187174 C5.36296593,5.16485772 5.3633507,5.35339479 5.25691383,5.48017635 L4.41056513,6.4888016 L3.88102605,6.04444088 L4.73704208,5.02432064 Z M6.24288577,6.21417234 L5.35055711,7.27757916 L4.79100601,6.80806413 L5.6905491,5.736 C5.79212826,5.61494188 6.01861323,5.57968737 6.17136673,5.70791182 C6.34427255,5.85292184 6.36139479,6.07296192 6.24288577,6.21417234 Z" id="Shape" fill="#000000"></path>
        </g>
    </g>
</svg>