<?xml version="1.0" encoding="UTF-8"?>
<svg width="32px" height="32px" viewBox="0 0 32 32" version="1.1" xmlns="http://www.w3.org/2000/svg" xmlns:xlink="http://www.w3.org/1999/xlink">
    <!-- Generator: Sketch 49.1 (51147) - http://www.bohemiancoding.com/sketch -->
    <title>icons/underlying assets/otc stocks/ic-bp</title>
    <desc>Created with Sketch.</desc>
    <defs></defs>
    <g id="icons/underlying-assets/otc-stocks/ic-bp" stroke="none" stroke-width="1" fill="none" fill-rule="evenodd">
        <g id="bp-responsive" transform="translate(7.000000, 1.000000)" fill-rule="nonzero">
            <g id="Layer_1" transform="translate(0.000000, 5.766784)">
                <path d="M17.9658768,10.6600707 C17.385782,10.0409894 16.7459716,9.51519435 16.0720379,9.09116608 C16.7374408,8.66713781 17.3772512,8.13286219 17.957346,7.51378092 C17.1981043,7.13215548 16.4132701,6.85229682 15.6369668,6.68268551 C16.1146919,6.05512367 16.5327014,5.33427562 16.8739336,4.56254417 C16.0293839,4.46077739 15.2018957,4.46925795 14.4085308,4.57102473 C14.6473934,3.81625442 14.7924171,3.00212014 14.8350711,2.1540636 C14.0075829,2.34911661 13.2227488,2.62897527 12.5232227,2.99363958 C12.4805687,2.204947 12.3440758,1.39081272 12.0966825,0.576678445 C11.3886256,1.04310954 10.7488152,1.57738516 10.2113744,2.1540636 C9.9042654,1.42473498 9.48625592,0.712367491 8.97440758,0.0339222615 C8.46255924,0.712367491 8.05308057,1.43321555 7.74597156,2.16254417 C7.20853081,1.57738516 6.56872038,1.04310954 5.86066351,0.585159011 C5.61327014,1.39081272 5.47677725,2.204947 5.43412322,2.99363958 C4.72606635,2.62897527 3.94976303,2.34911661 3.12227488,2.1540636 C3.17345972,3.00212014 3.31848341,3.81625442 3.55734597,4.57102473 C2.76398104,4.46925795 1.93649289,4.46925795 1.08341232,4.57102473 C1.41611374,5.35123675 1.83412322,6.06360424 2.32037915,6.69116608 C1.54407583,6.86925795 0.759241706,7.14911661 3.6e-15,7.53074205 C0.580094787,8.14982332 1.21990521,8.67561837 1.89383886,9.09964664 C1.22843602,9.52367491 0.588625592,10.0579505 0.00853080569,10.6770318 C0.767772512,11.0586572 1.55260664,11.3385159 2.32890995,11.5081272 C1.85118483,12.135689 1.43317536,12.8565371 1.09194313,13.6282686 C1.93649289,13.7300353 2.76398104,13.7215548 3.54881517,13.6282686 C3.30995261,14.3830389 3.16492891,15.1971731 3.12227488,16.0367491 C3.94976303,15.8416961 4.73459716,15.5618375 5.43412322,15.1971731 C5.46824645,15.9858657 5.61327014,16.8 5.86066351,17.6141343 C6.56872038,17.1477032 7.20853081,16.6219081 7.74597156,16.0367491 C8.05308057,16.7660777 8.47109005,17.4869258 8.98293839,18.165371 C9.49478673,17.4869258 9.9042654,16.7660777 10.2113744,16.0367491 C10.7488152,16.6219081 11.3886256,17.1561837 12.1052133,17.6141343 C12.3526066,16.8084806 12.4890995,15.9943463 12.5317536,15.1971731 C13.2398104,15.5618375 14.0246445,15.8416961 14.8521327,16.0367491 C14.8009479,15.1886926 14.6559242,14.3830389 14.4170616,13.6282686 C15.2018957,13.7300353 16.0379147,13.7300353 16.8824645,13.6282686 C16.549763,12.8480565 16.1317536,12.135689 15.6454976,11.5081272 C16.4218009,11.3215548 17.2066351,11.0416961 17.9658768,10.6600707 Z" id="Shape" fill="#009900"></path>
                <path d="M15.6454976,11.4996466 C15.2018957,10.9229682 14.6985782,10.4141343 14.1526066,9.99858657 C14.8094787,9.795053 15.4492891,9.48127208 16.0720379,9.09116608 C15.4492891,8.70106007 14.8094787,8.39575972 14.1526066,8.19222615 C14.6985782,7.77667845 15.1933649,7.26784452 15.6454976,6.68268551 C14.92891,6.52155477 14.2208531,6.45371025 13.5298578,6.48763251 C13.8966825,5.91095406 14.1952607,5.2664311 14.4085308,4.56254417 C13.6834123,4.65583039 12.9924171,4.83392226 12.3526066,5.09681979 C12.4976303,4.42685512 12.557346,3.7229682 12.5146919,2.98515901 C11.8663507,3.32438163 11.2777251,3.7229682 10.7744076,4.18939929 C10.6805687,3.51095406 10.492891,2.82402827 10.2028436,2.1540636 C9.69952607,2.69681979 9.29004739,3.27349823 8.97440758,3.88409894 C8.65876777,3.2819788 8.24075829,2.69681979 7.73744076,2.16254417 C7.45592417,2.83250883 7.26824645,3.51943463 7.18293839,4.18939929 C6.67962085,3.73144876 6.08246445,3.32438163 5.42559242,2.99363958 C5.39146919,3.7229682 5.45118483,4.43533569 5.59620853,5.10530035 C4.96492891,4.84240283 4.27393365,4.67279152 3.54028436,4.5795053 C3.76208531,5.27491166 4.06066351,5.91943463 4.42748815,6.49611307 C3.7450237,6.47067138 3.02843602,6.5385159 2.30331754,6.69964664 C2.74691943,7.27632509 3.25023697,7.78515901 3.79620853,8.20070671 C3.13933649,8.40424028 2.49952607,8.7180212 1.87677725,9.10812721 C2.49952607,9.49823322 3.13933649,9.80353357 3.79620853,10.0070671 C3.25023697,10.4226148 2.75545024,10.9314488 2.30331754,11.5166078 C3.01990521,11.6777385 3.72796209,11.745583 4.41042654,11.7116608 C4.0436019,12.2883392 3.7450237,12.9328622 3.53175355,13.6367491 C4.25687204,13.5434629 4.9563981,13.365371 5.58767773,13.1024735 C5.44265403,13.7639576 5.38293839,14.4763251 5.41706161,15.2056537 C6.07393365,14.8664311 6.66255924,14.4678445 7.16587678,14.009894 C7.25971564,14.6883392 7.44739336,15.375265 7.72890995,16.0452297 C8.22369668,15.5024735 8.64170616,14.9257951 8.95734597,14.3236749 C9.27298578,14.9257951 9.69099526,15.5109541 10.1943128,16.0452297 C10.4758294,15.375265 10.6635071,14.6883392 10.757346,14.009894 C11.2606635,14.4678445 11.8578199,14.8749117 12.5146919,15.2056537 C12.5488152,14.4763251 12.4890995,13.7639576 12.3440758,13.1024735 C12.9753555,13.365371 13.6748815,13.5349823 14.4,13.6282686 C14.1781991,12.9328622 13.8796209,12.2883392 13.5127962,11.7116608 C14.2123223,11.7286219 14.92891,11.6607774 15.6454976,11.4996466 Z" id="Shape" fill="#99CC00"></path>
                <path d="M12.5232227,9.09964664 C13.0947867,8.88763251 13.6492891,8.58233216 14.1611374,8.19222615 C13.5469194,7.99717314 12.9241706,7.90388693 12.3184834,7.89540636 C12.7876777,7.50530035 13.1971564,7.03038869 13.5383886,6.48763251 C12.8985782,6.5130742 12.2758294,6.63180212 11.7042654,6.84381625 C12.0113744,6.3180212 12.2331754,5.73286219 12.3696682,5.10530035 C11.7725118,5.35123675 11.2350711,5.67349823 10.7658768,6.06360424 C10.8682464,5.4614841 10.8767773,4.83392226 10.7914692,4.19787986 C10.3137441,4.63038869 9.91279621,5.12226148 9.6056872,5.64805654 C9.49478673,5.0459364 9.29004739,4.45229682 8.99146919,3.88409894 C8.7014218,4.45229682 8.48815166,5.03745583 8.38578199,5.63109541 C8.07867299,5.10530035 7.67772512,4.62190813 7.2,4.18939929 C7.11469194,4.8254417 7.12322275,5.45300353 7.22559242,6.05512367 C6.7563981,5.66501767 6.21042654,5.34275618 5.61327014,5.10530035 C5.74976303,5.73286219 5.97156398,6.3180212 6.27867299,6.84381625 C5.707109,6.64028269 5.08436019,6.52155477 4.44454976,6.49611307 C4.7943128,7.03886926 5.20379147,7.50530035 5.66445498,7.90388693 C5.05023697,7.90388693 4.42748815,8.00565371 3.81327014,8.20070671 C4.32511848,8.59081272 4.87109005,8.89611307 5.45118483,9.09964664 C4.87962085,9.31166078 4.32511848,9.61696113 3.81327014,10.0070671 C4.42748815,10.1936396 5.05023697,10.2954064 5.65592417,10.3038869 C5.18672986,10.6939929 4.77725118,11.1689046 4.42748815,11.7116608 C5.06729858,11.6862191 5.69004739,11.5674912 6.26161137,11.3639576 C5.95450237,11.8897527 5.73270142,12.4833922 5.59620853,13.1024735 C6.19336493,12.8565371 6.73080569,12.5342756 7.2,12.1441696 C7.09763033,12.7462898 7.08909953,13.365371 7.17440758,14.0014134 C7.6521327,13.5689046 8.05308057,13.0855124 8.36018957,12.5597173 C8.47109005,13.1618375 8.67582938,13.7469965 8.97440758,14.3151943 C9.27298578,13.7469965 9.47772512,13.1618375 9.58862559,12.5597173 C9.8957346,13.0855124 10.2966825,13.5689046 10.7744076,14.0014134 C10.8597156,13.365371 10.8511848,12.7378092 10.7488152,12.1441696 C11.2180095,12.5342756 11.763981,12.8565371 12.3611374,13.1024735 C12.2246445,12.4749117 12.0028436,11.8897527 11.6957346,11.3639576 C12.2758294,11.5674912 12.8900474,11.6862191 13.5383886,11.7116608 C13.1886256,11.1689046 12.7791469,10.7024735 12.3099526,10.3038869 C12.9241706,10.3038869 13.5469194,10.2021201 14.1611374,10.0070671 C13.6407583,9.60848057 13.0947867,9.30318021 12.5232227,9.09964664 Z" id="_x0032_" fill="#FFFF00"></path>
                <path d="M10.7744076,9.404947 C11.371564,9.404947 11.9601896,9.29469965 12.5146919,9.09116608 C11.9516588,8.88763251 11.371564,8.77738516 10.7744076,8.77738516 C11.3374408,8.57385159 11.8492891,8.26855124 12.3014218,7.8869258 C11.7042654,7.8869258 11.1156398,7.98021201 10.5526066,8.18374558 C11.0132701,7.80212014 11.3886256,7.34416961 11.6872038,6.82685512 C11.1241706,7.03038869 10.6123223,7.31872792 10.1516588,7.70035336 C10.450237,7.18303887 10.6464455,6.62332155 10.7488152,6.04664311 C10.2881517,6.42826855 9.9042654,6.87773852 9.5971564,7.395053 C9.69952607,6.80989399 9.69099526,6.21625442 9.58862559,5.63109541 C9.29004739,6.13992933 9.08530806,6.69116608 8.98293839,7.26784452 C8.88056872,6.68268551 8.66729858,6.1229682 8.36872038,5.61413428 C8.26635071,6.19929329 8.25781991,6.79293286 8.36018957,7.37809187 C8.06161137,6.86077739 7.66919431,6.41130742 7.21706161,6.02968198 C7.31943128,6.61484099 7.51563981,7.1745583 7.81421801,7.68339223 C7.3535545,7.30176678 6.83317536,7.01342756 6.27867299,6.80989399 C6.57725118,7.32720848 6.95260664,7.77667845 7.41327014,8.16678445 C6.85023697,7.96325088 6.26161137,7.86996466 5.67298578,7.86996466 C6.12511848,8.25159011 6.63696682,8.54840989 7.2,8.76042403 C6.6028436,8.76042403 6.01421801,8.87067138 5.45118483,9.07420495 C6.01421801,9.27773852 6.5943128,9.38798587 7.19146919,9.38798587 C6.62843602,9.59151943 6.11658768,9.89681979 5.65592417,10.2784452 C6.25308057,10.2784452 6.84170616,10.185159 7.40473934,9.98162544 C6.94407583,10.3632509 6.56872038,10.8212014 6.27014218,11.3385159 C6.83317536,11.1349823 7.3535545,10.8466431 7.8056872,10.4650177 C7.507109,10.9823322 7.31090047,11.5420495 7.20853081,12.1272085 C7.66919431,11.745583 8.05308057,11.2961131 8.35165877,10.7872792 C8.2492891,11.3724382 8.25781991,11.9660777 8.36018957,12.5427562 C8.65876777,12.0339223 8.87203791,11.4742049 8.97440758,10.8975265 C9.07677725,11.4826855 9.29004739,12.0339223 9.58862559,12.5512367 C9.69099526,11.9660777 9.69952607,11.3809187 9.5971564,10.7957597 C9.8957346,11.3130742 10.2881517,11.7625442 10.7402844,12.135689 C10.6379147,11.55053 10.4417062,10.9992933 10.143128,10.4819788 C10.6037915,10.8636042 11.1241706,11.1519435 11.6872038,11.355477 C11.3886256,10.8381625 11.0132701,10.3886926 10.5526066,9.99858657 C11.1156398,10.2021201 11.7042654,10.2954064 12.3014218,10.2954064 C11.8492891,9.91378092 11.3374408,9.61696113 10.7744076,9.404947 Z" id="_x0031_" fill="#FFFFFF"></path>
            </g>
            <g id="Layer_2" transform="translate(11.431280, 0.000000)" fill="#009900">
                <g id="Group">
                    <path d="M2.43981043,2.75618375 C2.43981043,3.27349823 2.2521327,3.98586572 1.51848341,3.98586572 C0.631279621,3.98586572 0.631279621,2.99363958 0.631279621,2.79010601 C0.631279621,2.58657244 0.631279621,1.53498233 1.54407583,1.53498233 C2.37156398,1.52650177 2.43981043,2.44240283 2.43981043,2.75618375 Z M0.648341232,0 L0.0511848341,0 L0.0511848341,3.79929329 L0.0341232227,4.36749117 L0.605687204,4.36749117 L0.622748815,3.89257951 C0.682464455,3.98586572 0.759241706,4.09611307 0.92985782,4.21484099 C1.2028436,4.40141343 1.48436019,4.41837456 1.63791469,4.41837456 C2.07298578,4.41837456 2.49952607,4.23180212 2.75545024,3.87561837 C2.91753555,3.67208481 3.06255924,3.33286219 3.06255924,2.72226148 C3.06255924,2.02685512 2.8492891,1.7130742 2.68720379,1.53498233 C2.3971564,1.20424028 1.99620853,1.12791519 1.68056872,1.12791519 C0.955450237,1.12791519 0.725118483,1.52650177 0.639810427,1.67067138 L0.639810427,0 L0.648341232,0 Z" id="Shape"></path>
                    <path d="M4.08625592,2.88339223 C4.08625592,2.60353357 4.08625592,1.60282686 5.03317536,1.60282686 C5.73270142,1.60282686 5.90331754,2.19646643 5.90331754,2.76466431 C5.90331754,2.99363958 5.86919431,3.44310954 5.64739336,3.75689046 C5.44265403,4.03674912 5.12701422,4.06219081 4.97345972,4.06219081 C4.14597156,4.05371025 4.08625592,3.26501767 4.08625592,2.88339223 Z M3.52322275,5.58021201 L4.11184834,5.58021201 L4.11184834,4.01978799 C4.28246445,4.29964664 4.62369668,4.49469965 5.08436019,4.49469965 C5.8436019,4.49469965 6.53459716,3.97738516 6.53459716,2.79858657 C6.53459716,1.62826855 5.88625592,1.16183746 5.20379147,1.16183746 C4.9478673,1.16183746 4.41895735,1.23816254 4.12037915,1.7385159 L4.11184834,1.21272085 L3.51469194,1.21272085 C3.52322275,1.5180212 3.53175355,1.59434629 3.53175355,1.73003534 L3.52322275,5.58021201 Z" id="Shape"></path>
                </g>
            </g>
        </g>
    </g>
</svg>