<?xml version="1.0" encoding="UTF-8"?>
<svg width="32px" height="32px" viewBox="0 0 32 32" version="1.1" xmlns="http://www.w3.org/2000/svg" xmlns:xlink="http://www.w3.org/1999/xlink">
    <!-- Generator: Sketch 49.1 (51147) - http://www.bohemiancoding.com/sketch -->
    <title>icons/underlying assets/otc stocks/ic-bhartiairtel</title>
    <desc>Created with Sketch.</desc>
    <defs></defs>
    <g id="icons/underlying-assets/otc-stocks/ic-bhartiairtel" stroke="none" stroke-width="1" fill="none" fill-rule="evenodd">
        <path d="M14.8673305,18.5155949 C14.751622,18.5950886 14.5147447,18.6632405 14.2573779,18.6632405 C13.7849755,18.6632405 13.5724359,18.3100253 13.5812246,17.8991899 C13.5886611,17.5587342 13.806557,17.1728608 14.3966441,17.1728608 C14.3966441,17.1728608 14.8673305,17.1726582 14.8673305,17.1726582 C14.8673305,17.1726582 14.8673305,18.5155949 14.8673305,18.5155949 Z M14.381563,14.7393418 C13.8209101,14.7393418 13.3163693,14.8936709 12.7978914,15.1444051 C12.7978914,15.1444051 12.6655417,15.2108354 12.6655417,15.2108354 C12.6655417,15.2108354 12.9812048,15.8966076 12.9812048,15.8966076 C12.9812048,15.8966076 13.1591618,15.8146835 13.1591618,15.8146835 C13.5263086,15.6547342 13.9174291,15.547443 14.2691828,15.5617722 C14.6949379,15.579038 14.8690466,15.7690633 14.8690466,16.1656203 C14.8690466,16.1656203 14.8690466,16.3982785 14.8690466,16.3982785 C14.8690466,16.3982785 14.1729758,16.3982785 14.1729758,16.3982785 C13.0540621,16.3982785 12.3578353,16.9758481 12.3376578,17.8724557 C12.3376578,18.724557 13.0673751,19.4580253 14.0817611,19.4580253 C14.9003009,19.4580253 15.5938755,19.1994937 16.0611816,18.7436962 C16.0611816,18.7436962 16.0611816,16.3122532 16.0611816,16.3122532 C16.0611816,15.1283038 15.1930302,14.7393418 14.381563,14.7393418 Z M31,18.6602025 C31,18.6602025 31,19.3792911 31,19.3792911 C31,19.3792911 30.7520459,19.4254177 30.5511552,19.4254177 C29.6132668,19.4254177 29.0532899,18.9951899 29.0532899,17.9906329 C29.0532899,17.9906329 29.0532899,13.7538734 29.0532899,13.7538734 C29.0532899,13.7538734 30.2310199,13.5585316 30.2310199,13.5585316 C30.2310199,13.5585316 30.2310199,18.0649114 30.2310199,18.0649114 C30.2310199,18.4130633 30.3337794,18.6214177 30.8228751,18.658481 C30.8895959,18.6632405 31,18.6602025 31,18.6602025 Z M25.834359,16.520962 C25.8542764,16.0796962 26.0428942,15.6261266 26.50682,15.6261266 C27.0288341,15.6261266 27.1059038,16.1775696 27.1059038,16.520962 C27.1059038,16.520962 25.834359,16.520962 25.834359,16.520962 Z M26.7607546,18.6549873 C26.4386951,18.6549873 26.2214232,18.5521519 26.0789328,18.402481 C25.8674854,18.1802025 25.7738265,17.7231899 25.7993084,17.2373671 C25.7993084,17.2373671 28.3321533,17.2373671 28.3321533,17.2373671 C28.3321533,17.2373671 28.3321533,17.124 28.3321533,17.124 C28.3095836,15.5096709 27.7442504,14.7743291 26.50682,14.7743291 C25.1255992,14.7743291 24.587672,16.0113418 24.5775312,17.1736709 C24.5691066,17.9090127 24.8538794,18.6493671 25.3746454,19.0710886 C25.6918686,19.3275949 26.1317687,19.4698228 26.6415099,19.4698228 C26.9192101,19.4698228 27.2095993,19.4295696 27.4742987,19.3497215 C27.9824277,19.1964557 28.3574271,18.9315949 28.3574271,18.9315949 C28.3574271,18.9315949 28.0262149,18.2678987 28.0262149,18.2678987 C27.9665146,18.3116962 27.4592696,18.6549873 26.7607546,18.6549873 Z M24.1646211,18.6643544 C24.1646211,18.6643544 24.1646211,19.3731646 24.1646211,19.3731646 C24.1646211,19.3731646 23.9474012,19.4151392 23.7168164,19.4151392 C22.7575024,19.4151392 22.1851486,18.9641519 22.1851486,18.0106329 C22.1851486,18.0106329 22.1851486,13.7531139 22.1851486,13.7531139 C22.1851486,13.7531139 23.3893485,13.5648608 23.3893485,13.5648608 C23.3893485,13.5648608 23.3893485,14.8226329 23.3893485,14.8226329 C23.3893485,14.8226329 24.1642571,14.8226329 24.1642571,14.8226329 C24.1642571,14.8226329 24.1642571,15.6633418 24.1642571,15.6633418 C24.1642571,15.6633418 23.3893485,15.6633418 23.3893485,15.6633418 C23.3893485,15.6633418 23.3893485,18.0589873 23.3893485,18.0589873 C23.3893485,18.3726076 23.4887797,18.6436456 23.9938926,18.6609114 C24.0621736,18.6632405 24.1518281,18.6632405 24.1646211,18.6643544 Z M16.9407738,15.0068861 C16.9407738,15.0068861 18.1156436,14.8202025 18.1156436,14.8202025 C18.1156436,14.8202025 18.1156436,19.3755443 18.1156436,19.3755443 C18.1156436,19.3755443 16.9407738,19.3755443 16.9407738,19.3755443 C16.9407738,19.3755443 16.9407738,15.0068861 16.9407738,15.0068861 Z M17.5402736,13 C17.7445965,13 17.9337343,13.077519 18.0726884,13.2179241 C18.2099264,13.3572152 18.2824197,13.5395949 18.2762313,13.7318481 C18.2762313,14.1370633 17.9483473,14.4557468 17.5297688,14.4557468 C17.1119183,14.4557468 16.7836703,14.1361519 16.7836703,13.7271392 C16.7836703,13.326481 17.1232031,13 17.5402736,13 Z M21.8684455,14.8893671 C21.8684455,14.8893671 21.5370253,15.6130127 21.5370253,15.6130127 C21.5370253,15.6130127 21.3476795,15.5540253 21.0561982,15.5654684 C20.7408992,15.5777722 20.409219,15.7076962 20.2531036,15.856 C20.2531036,15.856 20.2531036,19.3788354 20.2531036,19.3788354 C20.2531036,19.3788354 19.0543641,19.3788354 19.0543641,19.3788354 C19.0543641,19.3788354 19.0551441,15.636557 19.0551441,15.636557 C19.7688962,14.8978734 20.560862,14.7507848 21.0767397,14.7507848 C21.4330177,14.7507848 21.7396841,14.8275443 21.8684455,14.8893671 Z M10.6476399,12.1163696 C11.3887401,13.0049637 11.4353828,14.238313 11.1296142,15.2871454 C10.4921644,17.4285602 8.67828278,19.0309432 6.76075083,20.2253982 C6.06111079,20.6235661 5.29409802,21.0363011 4.44934745,20.9974554 C3.94146061,20.9974554 3.53204163,20.5847205 3.42839125,20.1428027 C3.30919332,19.6475207 3.52167659,19.1522872 3.73934238,18.7055138 C4.02956343,18.1179248 4.50117264,17.4915873 5.23190779,17.3750504 C5.62577922,17.3216376 6.19585628,17.4430303 6.27877658,17.8703324 C6.21140384,18.4384499 5.64650929,18.7783493 5.2889155,19.1862286 C4.96759933,19.5504066 4.52190272,19.8952102 4.46489501,20.3904922 C4.47007753,20.6914974 4.87431399,20.7012088 5.09197978,20.6040947 C5.99892057,20.2836181 6.77629839,19.7106934 7.4966685,19.1182487 C8.40360928,18.3316244 9.30536755,17.447886 9.69405646,16.3213137 C9.93245232,15.6609377 9.98427751,14.8452277 9.48675571,14.2722058 C9.19653466,13.9323064 8.66791774,13.9517292 8.25849876,14.0536991 C7.48630346,14.2867729 6.8073935,14.714075 6.14403109,15.1316657 C5.49103373,15.5686793 4.82248881,15.98627 4.20576907,16.4718405 C3.72379483,16.8408742 3.21590798,17.2244749 2.59400573,17.3458676 C1.82699295,17.4963945 1.04443262,16.8796713 1.00297247,16.1562197 C0.961512316,15.4618537 1.36056626,14.8354677 1.77516776,14.2916286 C2.67692603,13.179672 3.9103655,12.3299235 5.23709031,11.7132489 C5.90045271,11.4122922 6.59491023,11.1597955 7.32564538,11.0432586 C8.52280721,10.8733089 9.87544462,11.1986412 10.6476399,12.1163696 Z" id="Combined-Shape" fill="#E20010" fill-rule="nonzero"></path>
    </g>
</svg>