<?xml version="1.0" encoding="UTF-8"?>
<svg width="32px" height="32px" viewBox="0 0 32 32" version="1.1" xmlns="http://www.w3.org/2000/svg" xmlns:xlink="http://www.w3.org/1999/xlink">
    <!-- Generator: Sketch 49.1 (51147) - http://www.bohemiancoding.com/sketch -->
    <title>icons/underlying assets/otc stocks/ic-britishamericantobacco</title>
    <desc>Created with Sketch.</desc>
    <defs></defs>
    <g id="icons/underlying-assets/otc-stocks/ic-britishamericantobacco" stroke="none" stroke-width="1" fill="none" fill-rule="evenodd">
        <g id="British_American_Tobacco_logo" transform="translate(0.000000, 7.000000)" fill-rule="nonzero">
            <g id="g6120" transform="translate(0.049204, 11.969450)" fill="#17468B">
                <path d="M10.3268577,4.04909617 L10.3056155,3.54931838 L8.26778774,3.54931838 L8.24654552,4.04909617 C8.25716722,4.05241117 8.26778774,4.05596239 8.27840945,4.05596239 C8.33513645,4.05596239 8.37400006,3.97972877 8.41286485,3.91367523 C8.49421292,3.77494044 8.58618386,3.74368928 8.74550234,3.74368928 L9.00717027,3.74368928 L9.00717027,5.86022907 C9.09914004,5.84294541 9.19111099,5.83584297 9.29032245,5.83584297 C9.36443,5.83584297 9.48126284,5.84294541 9.56261209,5.86022907 L9.56261209,3.74368928 L9.82452204,3.74368928 C10.0014619,3.74368928 10.0828111,3.77849165 10.1675392,3.92409267 C10.203024,3.98659384 10.2418876,4.05241117 10.2949938,4.05241117 C10.3056155,4.05241117 10.316236,4.05241117 10.3268577,4.04909617" id="path2033"></path>
                <path d="M12.0390476,4.90258176 C12.0390476,5.20088622 11.9646992,5.71463151 11.5613342,5.71463151 C11.1084838,5.71463151 11.0307554,5.26693861 11.0307554,4.91655042 C11.0307554,4.59386102 11.1051038,4.10449952 11.5297111,4.10449952 C11.9506987,4.10449952 12.0390476,4.57989236 12.0390476,4.90258176 Z M12.5944894,4.91986427 C12.5944894,4.29887041 12.1877444,3.91723105 11.5579542,3.91723105 C10.9812701,3.91723105 10.4753136,4.27803669 10.4753136,4.87819682 C10.4753136,5.5167094 10.8822995,5.90521498 11.5224694,5.90521498 C12.1240177,5.90521498 12.5944894,5.53067805 12.5944894,4.91986427 Z" id="path2037"></path>
                <path d="M14.2784362,5.30505369 C14.2784362,5.5723432 14.1439808,5.6866942 13.8820709,5.6866942 C13.7336161,5.6866942 13.6698883,5.67272555 13.6698883,5.55482448 L13.6698883,4.95111313 L13.7406158,4.95111313 C13.8362076,4.95111313 13.9494196,4.95821556 13.9989049,4.96839564 C14.1688451,5.00319802 14.2784362,5.12109908 14.2784362,5.30505369 Z M14.1652231,4.41677033 C14.1652231,4.69092605 14.0201471,4.77071089 13.7582372,4.77071089 C13.7266153,4.77071089 13.6981313,4.77071089 13.6698883,4.76715967 L13.6698883,4.18783326 C13.6698883,4.13574838 13.6911305,4.12864594 13.7797214,4.12864594 C13.9600413,4.12864594 14.1652231,4.17386576 14.1652231,4.41677033 Z M14.8302572,5.33985607 C14.8302572,5.01006424 14.4978606,4.82634699 14.200467,4.8019609 C14.4411335,4.78112717 14.6745596,4.62510987 14.6745596,4.36823665 C14.6745596,4.14616581 14.4696186,4.03512982 14.2678145,3.99701358 C14.1051172,3.96576242 13.9776627,3.96576242 13.7724797,3.96576242 L12.9341266,3.96576242 C12.9341266,4.0315786 13.0260975,4.06638098 13.0683411,4.11136343 C13.1463104,4.19138448 13.1499312,4.31283676 13.1499312,4.42032154 L13.1499312,5.86023137 L13.9634201,5.86023137 C14.2323309,5.86023137 14.3952703,5.84294771 14.543725,5.7700291 C14.7030435,5.69379663 14.8302572,5.55150947 14.8302572,5.33985607 Z" id="path2041"></path>
                <path d="M16.2638815,5.1106828 L15.6553335,5.1106828 L15.9773493,4.37155166 L16.2638815,5.1106828 Z M17.1094763,5.86023137 L16.4268208,4.19114827 C16.366473,4.04199604 16.3276094,3.96576242 16.1789114,3.96576242 L15.6094691,3.96576242 C15.6094691,4.06969599 15.7967886,4.04554725 15.7967886,4.19114827 C15.7967886,4.24678437 15.757925,4.34053671 15.7333028,4.39948782 L15.08927,5.86023137 L15.3299377,5.86023137 L15.5669846,5.31547113 L16.3382299,5.31547113 L16.5540345,5.86023137 C16.6423834,5.8427115 16.7379741,5.83939765 16.8229442,5.83939765 C16.9182939,5.83939765 17.0138846,5.84626272 17.1094763,5.86023137 Z" id="path2045"></path>
                <path d="M19.0830922,4.48968894 L19.0618499,4.05927855 C18.913394,3.97262864 18.7045902,3.93096004 18.509787,3.93096004 C17.9297241,3.93096004 17.4097659,4.30573433 17.4097659,4.90944568 C17.4097659,5.54109319 17.8944801,5.89148138 18.5030281,5.89148138 C18.683348,5.89148138 18.9486368,5.84626272 19.0724705,5.72481043 L19.0724705,5.4473397 C18.9486368,5.57920942 18.79656,5.67982798 18.594757,5.67982798 C18.1421487,5.67982798 17.9652077,5.27048867 17.9652077,4.88174573 C17.9652077,4.52780517 18.1455276,4.11491465 18.5488926,4.11491465 C18.6514841,4.11491465 18.7364541,4.13574838 18.8035608,4.18783326 C18.8602878,4.22950186 18.8957726,4.29531804 18.9380162,4.40280167 C18.9592585,4.465304 19.0017429,4.50010638 19.0476074,4.50010638 C19.0618499,4.50010638 19.0724705,4.49655516 19.0830922,4.48968894" id="path2049"></path>
                <path d="M21.2157856,4.48968894 L21.1945434,4.05927855 C21.0460875,3.97262864 20.8372837,3.93096004 20.6427224,3.93096004 C20.0624175,3.93096004 19.5424593,4.30573433 19.5424593,4.90944568 C19.5424593,5.54109319 20.0271736,5.89148138 20.6354807,5.89148138 C20.8160414,5.89148138 21.0815722,5.84626272 21.2051639,5.72481043 L21.2051639,5.4473397 C21.0815722,5.57920942 20.9292534,5.67982798 20.7276925,5.67982798 C20.2748422,5.67982798 20.0979011,5.27048867 20.0979011,4.88174573 C20.0979011,4.52780517 20.278221,4.11491465 20.681586,4.11491465 C20.7841775,4.11491465 20.8691476,4.13574838 20.9364951,4.18783326 C20.9929813,4.22950186 21.0284661,4.29531804 21.0707097,4.40280167 C21.0919519,4.465304 21.1344364,4.50010638 21.1805429,4.50010638 C21.1945434,4.50010638 21.2051639,4.49655516 21.2157856,4.48968894" id="path2053"></path>
                <path d="M23.23913,4.90258176 C23.23913,5.20088622 23.1647816,5.71463151 22.7614165,5.71463151 C22.3085662,5.71463151 22.2308378,5.26693861 22.2308378,4.91655042 C22.2308378,4.59386102 22.3049453,4.10449952 22.7295526,4.10449952 C23.150539,4.10449952 23.23913,4.57989236 23.23913,4.90258176 Z M23.7945718,4.91986427 C23.7945718,4.29887041 23.3875859,3.91723105 22.7580365,3.91723105 C22.1813525,3.91723105 21.675396,4.27803669 21.675396,4.87819682 C21.675396,5.5167094 22.082141,5.90521498 22.7225518,5.90521498 C23.3241,5.90521498 23.7945718,5.53067805 23.7945718,4.91986427 Z" id="path2057"></path>
                <path d="M1.55782924,1.65769317 C1.55782924,1.98393379 1.39875278,2.14681731 1.10859975,2.14681731 C0.935280734,2.14681731 0.860932345,2.12977101 0.860932345,1.98724879 L0.860932345,1.21355149 L0.945901261,1.21355149 C1.12622113,1.21355149 1.34902545,1.23793643 1.46948032,1.39040366 C1.52258648,1.46000727 1.55782924,1.55707461 1.55782924,1.65769317 Z M1.42337384,0.595872634 C1.42337384,0.908144596 1.26767621,1.01586559 0.963523816,1.01586559 C0.928039038,1.01586559 0.896175107,1.01586559 0.860932345,1.00876315 L0.860932345,0.273183235 C0.860932345,0.210680909 0.885553405,0.196949617 0.988144877,0.196949617 C1.24305515,0.196949617 1.42337384,0.339235624 1.42337384,0.595872634 Z M2.14875583,1.69936062 C2.14875583,1.29688754 1.76301218,1.08523298 1.42337384,1.05398182 C1.69928432,1.02959688 1.96481512,0.828359762 1.96481512,0.5160878 C1.96481512,0.241932072 1.73114825,0.106748497 1.49772223,0.0615286794 C1.31378269,0.0234124466 1.16508474,0.0234124466 0.931659886,0.0234124466 L0.0684436574,0.0234124466 C0.0684436574,0.103197281 0.185277678,0.148415946 0.231142142,0.200264623 C0.31249021,0.290701953 0.316111058,0.42588668 0.316111058,0.57503891 L0.316111058,2.33432313 L1.1510842,2.33432313 C1.45885862,2.33432313 1.64279933,2.31348941 1.81611834,2.22683835 C1.99667905,2.12977101 2.14875583,1.95599763 2.14875583,1.69936062 Z" id="path2061"></path>
                <path d="M3.71031636,0.956678267 C3.71031636,1.17874911 3.62196744,1.36270372 3.36705716,1.36270372 C3.28232909,1.36270372 3.19035932,1.3591525 3.19035932,1.26895023 L3.19035932,0.627122645 C3.22560208,0.616706359 3.2857091,0.609840137 3.38129971,0.609840137 C3.47326948,0.609840137 3.56186042,0.637540083 3.61134573,0.686073754 C3.67845243,0.74857608 3.71031636,0.84564227 3.71031636,0.956678267 Z M4.78595722,2.31348826 C4.78595722,2.30307197 4.77871553,2.29952075 4.76471382,2.29596954 C4.74347159,2.29265453 4.72560937,2.28910331 4.70436596,2.2855521 C4.59477481,2.26140337 4.47794079,2.17806847 4.36134879,2.05661619 C4.25151562,1.94913141 4.11368139,1.77914545 3.95436291,1.59850585 L3.77766507,1.39726873 C3.97198429,1.33145255 4.24089509,1.16833167 4.24089509,0.90459338 C4.24089509,0.790243529 4.19503063,0.686073754 4.12430309,0.620020213 C3.95436291,0.464002913 3.68907413,0.439617972 3.43802672,0.439617972 L2.45073595,0.439617972 C2.45073595,0.512536584 2.52508434,0.5160878 2.58519018,0.58190398 C2.63129666,0.630437651 2.67016027,0.713773701 2.67016027,0.880444649 L2.67016027,2.33432313 C2.75513036,2.31680326 2.85772183,2.31348826 2.93545022,2.31348826 C3.00617777,2.31348826 3.10538923,2.31680326 3.19035932,2.33432313 L3.19035932,1.52582345 C3.23984463,1.52913845 3.27870824,1.53955474 3.33519441,1.59163963 C3.49451289,1.74789429 3.68545328,2.12243237 3.93674153,2.25785215 C4.08181746,2.33763699 4.32248518,2.35160564 4.43569835,2.35160564 C4.52404727,2.35160564 4.70436596,2.34473942 4.77171467,2.33432313 C4.78233638,2.33077192 4.78595722,2.32366948 4.78595722,2.31348826 Z" id="path2065"></path>
                <path d="M5.64072402,2.33432313 L5.64072402,0.495254076 C5.64072402,0.460689059 5.62310264,0.439855335 5.58761786,0.439855335 L4.9013415,0.439855335 C4.9013415,0.505671514 4.97206904,0.512536584 5.03217605,0.582141342 C5.08166136,0.634226229 5.12076699,0.717324917 5.12076699,0.894413303 L5.12076699,2.33432313 C5.19487336,2.32035448 5.2868443,2.31348941 5.37905609,2.31348941 C5.46040416,2.31348941 5.56999648,2.32035448 5.64072402,2.33432313" id="path2069"></path>
                <path d="M7.85380219,0.87689689 L7.83955964,0.439620277 L6.12736973,0.439620277 L6.10974835,0.880448106 C6.1167492,0.880448106 6.12736973,0.883763112 6.13437058,0.883763112 C6.17323419,0.883763112 6.20171929,0.845645727 6.22634035,0.800663272 C6.30068992,0.665243487 6.34655321,0.627126102 6.52011423,0.627126102 L6.72167633,0.627126102 L6.72167633,2.33432544 C6.79964556,2.32035793 6.89861619,2.31349171 6.98358628,2.31349171 C7.04369212,2.31349171 7.17090582,2.32035793 7.24163336,2.33432544 L7.24163336,0.627126102 L7.4434363,0.627126102 C7.63437787,0.627126102 7.67348232,0.675659773 7.74758987,0.810843348 C7.7688321,0.852511949 7.79707518,0.880448106 7.82893911,0.880448106 C7.83955964,0.880448106 7.84680133,0.880448106 7.85380219,0.87689689" id="path2073"></path>
                <path d="M8.85774862,2.33432313 L8.85774862,0.495254076 C8.85774862,0.460689059 8.84012724,0.439855335 8.80464246,0.439855335 L8.11836609,0.439855335 C8.11836609,0.505671514 8.18909363,0.512536584 8.24920065,0.582141342 C8.29868596,0.634226229 8.33779159,0.717324917 8.33779159,0.894413303 L8.33779159,2.33432313 C8.41189796,2.32035448 8.5038689,2.31348941 8.59583867,2.31348941 C8.67742876,2.31348941 8.78702108,2.32035448 8.85774862,2.33432313" id="path2077"></path>
                <path d="M10.7630524,1.81039662 C10.7630524,1.16856903 9.89283646,1.22065392 9.89283646,0.811077253 C9.89283646,0.655059954 10.0555338,0.57527512 10.1899892,0.57527512 C10.2713384,0.57527512 10.3384451,0.592557628 10.3845504,0.616706359 C10.4658997,0.658373808 10.515385,0.731293572 10.5436281,0.797109751 C10.5861125,0.89796452 10.6179764,0.939395758 10.6817031,0.939395758 C10.6923248,0.939395758 10.7029454,0.936080752 10.7135671,0.92897832 L10.6817031,0.502356508 C10.5260055,0.436302966 10.3703079,0.405052956 10.1757466,0.405052956 C10.0024276,0.405052956 9.8397303,0.439854183 9.70865491,0.502356508 C9.52833504,0.589006412 9.40088049,0.752127296 9.40088049,0.932529536 C9.40088049,1.58122334 10.2537159,1.49812465 10.2537159,1.93871512 C10.2537159,2.10183485 10.1013982,2.1851709 9.94932145,2.1851709 C9.68041182,2.1851709 9.50347196,2.00808252 9.36201571,1.79997918 L9.36201571,2.23015336 C9.56719865,2.33432313 9.74775936,2.37243936 9.98480623,2.37243936 C10.4164143,2.37243936 10.7630524,2.16433718 10.7630524,1.81039662" id="path2081"></path>
                <path d="M13.1081705,2.33432313 L13.1081705,0.439855335 L12.5879714,0.439855335 L12.5879714,1.20668642 L11.8133461,1.20668642 L11.8133461,0.491940222 C11.8133461,0.464002913 11.7957247,0.439855335 11.76024,0.439855335 L11.0775856,0.439855335 C11.0775856,0.512536584 11.1553128,0.5160878 11.2190407,0.595872634 C11.2649052,0.65837496 11.2933891,0.734844788 11.2933891,0.890862087 L11.2933891,2.33432313 C11.3781172,2.31704062 11.4700881,2.31348941 11.558679,2.31348941 C11.643648,2.31348941 11.7283772,2.31704062 11.8133461,2.33432313 L11.8133461,1.41147475 L12.5879714,1.41147475 L12.5879714,2.33432313 C12.6729415,2.31704062 12.7649113,2.31348941 12.8535022,2.31348941 C12.9384723,2.31348941 13.0232004,2.31704062 13.1081705,2.33432313" id="path2085"></path>
                <path d="M16.0768028,1.43206881 L15.3304206,1.43206881 L15.7265439,0.484834333 L16.0768028,1.43206881 Z M16.9825035,2.33432083 L16.1972577,0.297329661 C16.129909,0.116926268 16.0768028,0.0234101421 15.9071046,0.0234101421 L15.3267997,0.0234101421 C15.3267997,0.151728647 15.521361,0.10650883 15.521361,0.297329661 C15.521361,0.366933266 15.4788765,0.481283117 15.4470126,0.554201729 L14.6863878,2.33432083 L14.9552975,2.33432083 L15.2382088,1.65058843 L16.158152,1.65058843 L16.4091994,2.33432083 C16.4977892,2.31680096 16.5861393,2.30993589 16.6853508,2.30993589 C16.7949419,2.30993589 16.879912,2.31680096 16.9825035,2.33432083 Z" id="path2089"></path>
                <path d="M19.8019562,2.33432313 L19.5400462,0.967095705 C19.518804,0.856297071 19.4978026,0.717324917 19.4978026,0.59942385 C19.4978026,0.547338963 19.5048035,0.481285421 19.5330465,0.439855335 L19.1615443,0.439855335 C19.0413314,0.439855335 19.0130883,0.488389006 18.9633622,0.592557628 L18.5283752,1.51185595 L18.068282,0.519639016 C18.0400401,0.453586627 18.0224175,0.439855335 17.9480692,0.439855335 L17.3643854,0.439855335 C17.3643854,0.495254076 17.4172496,0.522954023 17.4775974,0.568172688 C17.5270827,0.606290073 17.5765681,0.66524003 17.5765681,0.772961021 C17.5765681,0.807526037 17.5659464,0.873579579 17.5589467,0.908144596 L17.2335509,2.33432313 L17.4703557,2.33432313 L17.7571288,0.998346868 L18.358435,2.36557429 L19.0130883,0.970646921 L19.2817571,2.33432313 C19.3524847,2.32035448 19.458697,2.31348941 19.5470471,2.31348941 C19.6286372,2.31348941 19.7276078,2.32035448 19.8019562,2.33432313" id="path2093"></path>
                <path d="M21.7277773,1.92829768 C21.7205356,1.92498268 21.706535,1.92143146 21.6959133,1.92143146 C21.5754596,1.92143146 21.646428,2.13663723 21.2995492,2.13663723 L20.8643202,2.13663723 L20.8643202,1.41833982 L21.5402157,1.41833982 L21.5402157,1.21000027 L20.8643202,1.21000027 L20.8643202,0.634226229 L21.4093823,0.634226229 C21.4941104,0.634226229 21.5790805,0.658373808 21.6285658,0.696491193 L21.6179441,0.439854183 L20.1249377,0.439854183 C20.1249377,0.509221578 20.1956652,0.519639016 20.2560131,0.582141342 C20.3054984,0.634226229 20.3443632,0.713773701 20.3443632,0.883995865 L20.3443632,2.17830468 C20.3443632,2.32035448 20.3549837,2.33432313 20.5070605,2.33432313 L21.6003227,2.33432313 C21.6780511,2.33432313 21.6922925,2.27182081 21.7029142,2.16765103 L21.7277773,1.92829768" id="path2097"></path>
                <path d="M23.2613379,0.956678267 C23.2613379,1.17874911 23.172989,1.36270372 22.9180787,1.36270372 C22.8333506,1.36270372 22.7411388,1.3591525 22.7411388,1.26895023 L22.7411388,0.627122645 C22.7766236,0.616706359 22.8367306,0.609840137 22.9323213,0.609840137 C23.024291,0.609840137 23.1126411,0.637540083 23.1623673,0.686073754 C23.229716,0.74857608 23.2613379,0.84564227 23.2613379,0.956678267 Z M24.3369788,2.31348826 C24.3369788,2.30307197 24.3297371,2.29952075 24.3154945,2.29596954 C24.2944931,2.29265453 24.2768718,2.28910331 24.2553875,2.2855521 C24.1457964,2.26140337 24.0292044,2.17806847 23.9123703,2.05661619 C23.8027792,1.94913141 23.6647029,1.77914545 23.5053845,1.59850585 L23.3286866,1.39726873 C23.5232479,1.33145255 23.7919166,1.16833167 23.7919166,0.90459338 C23.7919166,0.790243529 23.7460522,0.686073754 23.6753246,0.620020213 C23.5053845,0.464002913 23.2400957,0.439617972 22.9890483,0.439617972 L22.0019983,0.439617972 C22.0019983,0.512536584 22.0761059,0.5160878 22.1364537,0.58190398 C22.182559,0.630437651 22.2211818,0.713773701 22.2211818,0.880444649 L22.2211818,2.33432313 C22.3061519,2.31680326 22.4087434,2.31348826 22.4867126,2.31348826 C22.5574402,2.31348826 22.6564108,2.31680326 22.7411388,2.33432313 L22.7411388,1.52582345 C22.7908662,1.52913845 22.8297298,1.53955474 22.8864568,1.59163963 C23.0455344,1.74789429 23.2367157,2.12243237 23.4877631,2.25785215 C23.632839,2.33763699 23.8732659,2.35160564 23.9867199,2.35160564 C24.0750688,2.35160564 24.2553875,2.34473942 24.3227362,2.33432313 C24.3333579,2.33077192 24.3369788,2.32366948 24.3369788,2.31348826 Z" id="path2101"></path>
                <path d="M25.1915036,2.33432313 L25.1915036,0.495254076 C25.1915036,0.460689059 25.1738822,0.439855335 25.1383974,0.439855335 L24.452121,0.439855335 C24.452121,0.505671514 24.5228486,0.512536584 24.5829556,0.582141342 C24.6326817,0.634226229 24.6715465,0.717324917 24.6715465,0.894413303 L24.6715465,2.33432313 C24.7458949,2.32035448 24.8378647,2.31348941 24.9298356,2.31348941 C25.0111837,2.31348941 25.120776,2.32035448 25.1915036,2.33432313" id="path2105"></path>
                <path d="M27.4048226,0.963780699 L27.3835803,0.533370309 C27.2351244,0.446720405 27.0260798,0.405051804 26.8315173,0.405051804 C26.2514545,0.405051804 25.7314963,0.779826091 25.7314963,1.38353744 C25.7314963,2.01518495 26.2162105,2.36557314 26.8245177,2.36557314 C27.0050784,2.36557314 27.2703672,2.32035448 27.3942009,2.19890219 L27.3942009,1.92143146 C27.2703672,2.05330118 27.1182904,2.15391974 26.9164874,2.15391974 C26.4636371,2.15391974 26.2869381,1.74434307 26.2869381,1.35583749 C26.2869381,1.00189693 26.4672579,0.589006412 26.870623,0.589006412 C26.9732144,0.589006412 27.0579425,0.609840137 27.1252912,0.661925024 C27.1820182,0.703593625 27.217261,0.769409804 27.2597466,0.876893433 C27.2809889,0.939395758 27.3234733,0.974198137 27.3693378,0.974198137 C27.3835803,0.974198137 27.3942009,0.970646921 27.4048226,0.963780699" id="path2109"></path>
                <path d="M28.8901044,1.58477456 L28.2815565,1.58477456 L28.6035722,0.845643422 L28.8901044,1.58477456 Z M29.7356993,2.33432313 L29.0528017,0.66524003 C28.9926959,0.5160878 28.9538323,0.439617972 28.8051343,0.439617972 L28.235692,0.439617972 C28.235692,0.543787747 28.4230115,0.519639016 28.4230115,0.66524003 C28.4230115,0.720876133 28.3841479,0.814392259 28.3592849,0.873579579 L27.7154929,2.33432313 L27.9561607,2.33432313 L28.1932075,1.78956289 L28.964212,1.78956289 L29.1802575,2.33432313 C29.2686064,2.31680326 29.364197,2.31348941 29.4489263,2.31348941 C29.5445169,2.31348941 29.6401075,2.32035448 29.7356993,2.33432313 Z" id="path2113"></path>
                <path d="M31.83315,2.33432313 L31.83315,0.439855335 L31.5891034,0.439855335 L31.6103457,1.70622684 L30.6020535,0.502356508 C30.5665687,0.457137843 30.5347048,0.439855335 30.4745989,0.439855335 L29.9297777,0.439855335 C29.9297777,0.505671514 30.0217486,0.540473893 30.0642331,0.585692558 C30.1419615,0.66524003 30.1492032,0.762544734 30.1492032,0.894413303 L30.1492032,2.33432313 L30.3896289,2.33432313 L30.3720075,0.995031862 L31.2528451,2.06371862 C31.3059512,2.1295348 31.3909213,2.21287085 31.4510272,2.24767323 C31.5396181,2.29952075 31.6492093,2.33432313 31.7872855,2.33432313 L31.83315,2.33432313" id="path2117"></path>
            </g>
            <path d="M16.0885894,2.21345723 L15.7559518,9.73237962 L14.3013271,6.03885346 L15.0592965,9.77357423 L12.6958318,6.67050115 L14.3623988,9.86235462 L8.51348353,5.80612846 L13.6667094,10.02003 L10.3770259,8.81852654 L13.0202624,10.311705 C10.5621729,10.311705 7.61912824,8.40516231 6.71511765,4.449555 C6.71511765,4.449555 11.9694859,4.50874269 13.7236765,6.80000308 C13.3934541,3.57287192 15.6654294,0.530642769 16.0885894,0.115384615 C16.5117494,0.530642769 18.7837259,3.57287192 18.4535024,6.80000308 C20.2076941,4.50874269 25.4620624,4.449555 25.4620624,4.449555 C24.5582929,8.40516231 21.6150071,10.311705 19.1569176,10.311705 L21.8001541,8.81852654 L18.5102294,10.02003 L23.6636953,5.80612846 L17.81478,9.86235462 L19.4813471,6.67050115 L17.1181247,9.77357423 L17.8760941,6.03885346 L16.4212271,9.73237962 L16.0885894,2.21345723" id="path2121" fill="#FAB41D"></path>
        </g>
    </g>
</svg>