<?xml version="1.0" encoding="UTF-8"?>
<svg width="32px" height="32px" viewBox="0 0 32 32" version="1.1" xmlns="http://www.w3.org/2000/svg" xmlns:xlink="http://www.w3.org/1999/xlink">
    <!-- Generator: Sketch 49.1 (51147) - http://www.bohemiancoding.com/sketch -->
    <title>icons/underlying assets/otc stocks/ic-citigroup</title>
    <desc>Created with Sketch.</desc>
    <defs></defs>
    <g id="icons/underlying-assets/otc-stocks/ic-citigroup" stroke="none" stroke-width="1" fill="none" fill-rule="evenodd">
        <g id="citi" transform="translate(3.000000, 7.000000)" fill-rule="nonzero">
            <path d="M24.5867769,5.37606838 C22.9669421,2.93504274 19.9876033,1.22051282 16.8057851,1.22051282 C13.6818182,1.22051282 10.7024793,2.90598291 9.05371901,5.37606838 L11.2809917,5.37606838 C12.785124,3.80683761 14.7520661,2.96410256 16.8347107,2.96410256 C18.8595041,2.96410256 20.8553719,3.80683761 22.3884298,5.37606838 L24.5867769,5.37606838 Z" id="Shape" fill="#ED1C24"></path>
            <g id="Group" transform="translate(0.867769, 3.777778)" fill="#002D72">
                <path d="M7.26033058,9.82222222 L7.23140496,9.85128205 C6.53719008,10.5487179 5.75619835,10.9264957 4.94628099,10.9264957 C3.23966942,10.9264957 1.99586777,9.64786325 1.99586777,7.87521368 C1.99586777,6.1025641 3.23966942,4.82393162 4.94628099,4.82393162 C5.75619835,4.82393162 6.5661157,5.2017094 7.23140496,5.8991453 L7.26033058,5.95726496 L8.35950413,4.62051282 L8.33057851,4.59145299 C7.4338843,3.51623932 6.33471074,2.99316239 4.97520661,2.99316239 C3.61570248,2.99316239 2.40082645,3.45811966 1.50413223,4.27179487 C0.549586777,5.14358974 0.0289256198,6.39316239 0.0289256198,7.87521368 C0.0289256198,9.35726496 0.549586777,10.6068376 1.50413223,11.5076923 C2.40082645,12.3213675 3.61570248,12.7863248 4.97520661,12.7863248 C6.30578512,12.7863248 7.40495868,12.2632479 8.33057851,11.1880342 L8.35950413,11.1589744 L7.26033058,9.82222222 Z" id="Shape"></path>
                <rect id="Rectangle-path" x="9.45867769" y="3.13846154" width="1.93801653" height="9.47350427"></rect>
                <path d="M18.9752066,10.5487179 C18.4545455,10.8683761 17.9628099,11.0136752 17.5289256,11.0136752 C16.892562,11.0136752 16.6322314,10.6940171 16.6322314,9.93846154 L16.6322314,4.91111111 L18.5991736,4.91111111 L18.5991736,3.13846154 L16.6322314,3.13846154 L16.6322314,0.174358974 L14.7231405,1.19145299 L14.7231405,3.13846154 L13.0743802,3.13846154 L13.0743802,4.91111111 L14.7231405,4.91111111 L14.7231405,10.2581197 C14.7231405,11.7111111 15.5909091,12.7282051 16.8636364,12.7282051 C17.731405,12.757265 18.2520661,12.4957265 18.5702479,12.2923077 L18.5991736,12.2923077 L19.0619835,10.4615385 L18.9752066,10.5487179 Z" id="Shape"></path>
                <rect id="Rectangle-path" x="20.5661157" y="3.13846154" width="1.93801653" height="9.47350427"></rect>
            </g>
            <path d="M27.4214876,4.82393162 C27.4214876,5.31794872 27.0454545,5.66666667 26.5826446,5.66666667 C26.0909091,5.66666667 25.7438017,5.28888889 25.7438017,4.82393162 C25.7438017,4.32991453 26.1198347,3.98119658 26.5826446,3.98119658 C27.0454545,3.98119658 27.4214876,4.35897436 27.4214876,4.82393162 Z M27.5950413,4.82393162 C27.5950413,4.24273504 27.161157,3.80683761 26.5826446,3.80683761 C26.0041322,3.80683761 25.5702479,4.24273504 25.5702479,4.82393162 C25.5702479,5.40512821 26.0041322,5.84102564 26.5826446,5.84102564 C27.161157,5.87008547 27.5950413,5.40512821 27.5950413,4.82393162 Z M27.0454545,4.59145299 C27.0454545,4.35897436 26.8719008,4.24273504 26.6694215,4.24273504 L26.177686,4.24273504 L26.177686,5.34700855 L26.3801653,5.34700855 L26.3801653,4.94017094 L26.5826446,4.94017094 L26.785124,5.37606838 L27.0165289,5.37606838 L26.785124,4.94017094 C26.9586777,4.88205128 27.0454545,4.76581197 27.0454545,4.59145299 Z M26.8429752,4.59145299 C26.8429752,4.70769231 26.7561983,4.73675214 26.6694215,4.73675214 L26.3801653,4.73675214 L26.3801653,4.41709402 L26.6694215,4.41709402 C26.785124,4.44615385 26.8429752,4.5042735 26.8429752,4.59145299 Z" id="Shape" fill="#002D72"></path>
        </g>
    </g>
</svg>