<?xml version="1.0" encoding="UTF-8"?>
<svg width="32px" height="32px" viewBox="0 0 32 32" version="1.1" xmlns="http://www.w3.org/2000/svg" xmlns:xlink="http://www.w3.org/1999/xlink">
    <!-- Generator: Sketch 49.1 (51147) - http://www.bohemiancoding.com/sketch -->
    <title>icons/underlying assets/otc stocks/ic-caterpillar</title>
    <desc>Created with Sketch.</desc>
    <defs></defs>
    <g id="icons/underlying-assets/otc-stocks/ic-caterpillar" stroke="none" stroke-width="1" fill="none" fill-rule="evenodd">
        <g id="caterpillar-logo2" transform="translate(4.000000, 4.000000)" fill-rule="nonzero">
            <polygon id="Shape" fill="#000000" points="0 24 24 24 24 0 0 0"></polygon>
            <path d="M22.8340528,20.1777472 L22.7949283,20.1777472 C22.1494189,20.1777472 21.5885887,20.6744896 21.5885887,21.3357376 C21.5885887,22.016384 22.1494189,22.5131264 22.7949283,22.5131264 C22.8079698,22.5131264 22.8210566,22.5099008 22.8340528,22.5099008 C23.46,22.4905472 23.984966,22.0002112 23.984966,21.3357376 C23.984966,20.6874368 23.46,20.1971008 22.8340528,20.1777472 Z M22.8340528,22.3130944 C22.8210566,22.3130944 22.8079698,22.31632 22.7949283,22.31632 C22.2634868,22.31632 21.8363774,21.906624 21.8363774,21.3356928 C21.8363774,20.7905664 22.2634868,20.3777344 22.7949283,20.3777344 L22.8340528,20.3777344 C23.3459321,20.397088 23.7534792,20.8035136 23.7534792,21.3356928 C23.7534792,21.8905408 23.3459321,22.2937408 22.8340528,22.3130944 Z" id="Shape" fill="#FFFFFF"></path>
            <path d="M23.339366,21.0518848 C23.339366,20.7906112 23.1763925,20.6744896 22.8568755,20.6744896 L22.3449509,20.6744896 L22.3449509,22.016384 L22.5503547,22.016384 L22.5503547,21.42928 L22.7883623,21.42928 L22.8340528,21.5067392 L23.1405283,22.0164288 L23.3752755,22.0164288 L22.9873358,21.4229184 C23.189434,21.3938432 23.339366,21.2938048 23.339366,21.0518848 Z M22.7949283,21.2551424 L22.5504,21.2551424 L22.5504,20.8487168 L22.8340981,20.8487168 C22.9709887,20.8487168 23.1210113,20.8777472 23.1210113,21.0455232 C23.1210113,21.232608 22.9905962,21.2519168 22.8340981,21.2519168 C22.8210566,21.2519168 22.8079698,21.2551424 22.7949283,21.2551424 Z M20.7669736,18.1682432 L20.7669736,7.4979584 L22.8144906,7.4979584 L22.8144906,5.2884224 L16.1143698,5.2884224 L16.1143698,7.4979584 L18.1618868,7.4979584 L18.1618868,16.5941056 L20.0692075,18.1682432 L20.7669736,18.1682432 Z M4.55311698,17.9972416 C4.42596226,18.1005056 4.24012075,18.1681984 4.07384151,18.1681984 L3.83257358,18.1681984 C3.5424,18.1681984 3.24244528,18.1068672 2.97835472,18.0004672 C2.71426415,17.8908416 2.45669434,17.7231104 2.25455094,17.5230784 C2.04914717,17.3199104 1.87960755,17.0649984 1.76875472,16.8037248 C1.65790189,16.5393152 1.59916981,16.2457408 1.59916981,15.961888 L1.59916981,7.4979584 C1.59916981,7.2141056 1.66116226,6.920576 1.76875472,6.6528512 C1.87634717,6.3915776 2.04910189,6.1367552 2.25455094,5.936768 C2.45995472,5.7367808 2.71426415,5.565824 2.97835472,5.4561088 C3.24249057,5.3497088 3.54244528,5.2884224 3.83257358,5.2884224 L5.69424906,5.2884224 C5.98116226,5.2884224 6.28111698,5.3464832 6.54846792,5.4561088 C6.81581887,5.565824 7.0701283,5.7367808 7.2722717,5.936768 C7.47441509,6.1367552 7.64721509,6.388352 7.75806792,6.6528512 C7.86892075,6.9173056 7.92760755,7.2140608 7.92760755,7.4979584 L7.92760755,10.4397056 L5.32256604,10.4397056 L5.32256604,8.049536 C5.32256604,7.9107904 5.26061887,7.759232 5.15954717,7.6592384 C5.05847547,7.5592448 4.90197736,7.4979584 4.76178113,7.4979584 C4.61832453,7.4979584 4.46508679,7.5624704 4.36727547,7.6592384 C4.26620377,7.7591872 4.20751698,7.9107904 4.20751698,8.049536 L4.20751698,15.4103104 C4.20751698,15.5490112 4.27598491,15.7071104 4.36727547,15.7974272 C4.46834717,15.8974208 4.62158491,15.9619328 4.76178113,15.9619328 C4.90523774,15.9619328 5.06173585,15.8941952 5.15954717,15.7974272 C5.25409811,15.7038848 5.32256604,15.5490112 5.32256604,15.4103104 L5.32256604,12.2814784 L7.92760755,12.2814784 L7.92760755,14.1845824 C7.92760755,14.503872 7.84935849,14.8393344 7.71568302,15.1199616 C7.58200755,15.4102656 7.36682264,15.6780352 7.12555472,15.8779776 L4.55311698,17.9972416 Z" id="Shape" fill="#FFFFFF"></path>
            <polygon id="Shape" stroke="#FADF3C" stroke-width="0.6" fill="#FADF3C" points="18.9085132 18.1682432 5.50514717 18.1682432 12.2051774 12.6492416"></polygon>
            <path d="M16.0492075,14.855552 L13.9886491,5.2884224 L10.4250566,5.2884224 L8.36449811,14.855552 L12.2051774,11.6912384 L12.2051774,11.694464 L16.0492075,14.855552 Z M11.4618566,10.9558016 L12.2051774,7.4979584 L12.2051774,7.5075904 L12.9518038,10.9558016 L11.4618566,10.9558016 Z" id="Shape" fill="#FFFFFF"></path>
        </g>
    </g>
</svg>