<?xml version="1.0" encoding="UTF-8"?>
<svg width="32px" height="32px" viewBox="0 0 32 32" version="1.1" xmlns="http://www.w3.org/2000/svg" xmlns:xlink="http://www.w3.org/1999/xlink">
    <!-- Generator: Sketch 49.1 (51147) - http://www.bohemiancoding.com/sketch -->
    <title>icons/underlying assets/otc stocks/ic-daimler</title>
    <desc>Created with Sketch.</desc>
    <defs></defs>
    <g id="icons/underlying-assets/otc-stocks/ic-daimler" stroke="none" stroke-width="1" fill="none" fill-rule="evenodd">
        <g id="img-logo-daimler-svg" transform="translate(0.000000, 13.600000)" fill="#1D1D1B" fill-rule="nonzero">
            <path d="M31.2325203,3.9 C30.6861789,3.9 30.3479675,3.775 29.9447154,3.4375 C29.7235772,3.25 29.5284553,3.025 29.398374,2.8125 C29.2552846,2.55 29.2292683,2.5375 28.8650407,2.5375 L28.4747967,2.5375 C28.4617886,2.5375 28.4487805,2.55 28.4487805,2.5625 L28.4487805,3.375 C28.4487805,3.5625 28.5268293,3.6125 28.8260163,3.6125 L29.099187,3.6125 C29.099187,3.675 29.099187,3.75 29.0731707,3.775 C29.0471545,3.8 29.0081301,3.8125 28.9560976,3.8125 L27.1739837,3.8125 C27.1739837,3.775 27.1609756,3.7125 27.1739837,3.65 C27.6552846,3.6125 27.798374,3.55 27.798374,3.2 L27.798374,0.65 C27.798374,0.4125 27.6943089,0.375 27.4601626,0.375 L27.2,0.375 C27.1869919,0.3125 27.1869919,0.2625 27.2130081,0.2375 C27.2390244,0.2 27.3170732,0.175 27.4211382,0.1625 C27.6943089,0.1375 28.0325203,0.1375 28.8390244,0.1375 C29.8926829,0.1375 30.5300813,0.6 30.5300813,1.375 C30.5300813,1.825 30.2569106,2.1875 29.7756098,2.3875 C29.7626016,2.3875 29.7626016,2.4 29.7626016,2.4 C29.7626016,2.4125 29.7626016,2.4125 29.7756098,2.425 C29.7756098,2.425 30.204878,2.8125 30.4260163,2.975 C31.1804878,3.55 31.4406504,3.6125 31.9349593,3.6125 C31.9479675,3.675 31.9349593,3.7125 31.9089431,3.75 C31.804878,3.85 31.5837398,3.9 31.2325203,3.9 Z M28.4878049,0.4125 C28.4747967,0.4125 28.4617886,0.425 28.4617886,0.4375 L28.4617886,2.25 C28.4617886,2.2625 28.4747967,2.275 28.4878049,2.275 L28.7609756,2.275 C29.2943089,2.275 29.8146341,2.2125 29.8146341,1.4125 C29.8146341,0.7375 29.4373984,0.4125 28.6829268,0.4125 C28.6829268,0.4125 28.4878049,0.4125 28.4878049,0.4125 Z M13.6325203,0.825 C13.6325203,0.8125 13.6195122,0.8125 13.6065041,0.8125 C13.5934959,0.8125 13.5804878,0.825 13.5804878,0.8375 L13.398374,3.3125 C13.3853659,3.4 13.3853659,3.475 13.4373984,3.525 C13.502439,3.5875 13.6455285,3.6125 14.0227642,3.6125 L14.3089431,3.6125 C14.3219512,3.7 14.3219512,3.75 14.295935,3.775 C14.2699187,3.8 14.2439024,3.8125 14.1788618,3.8125 L12.3186992,3.8125 C12.3056911,3.7625 12.3056911,3.7 12.3186992,3.65 C12.9300813,3.6125 13.0081301,3.5 13.0211382,3.25 L13.2552846,0.65 C13.2552846,0.5875 13.2682927,0.525 13.2162602,0.475 C13.1512195,0.4125 13.0081301,0.375 12.6569106,0.3625 C12.6439024,0.3 12.6569106,0.2625 12.6829268,0.225 C12.7219512,0.1875 12.7869919,0.1625 12.8780488,0.1625 L14.0227642,0.1625 L15.4536585,2.8 C15.4536585,2.8125 15.4666667,2.8125 15.4796748,2.8125 C15.4926829,2.8125 15.4926829,2.8125 15.5056911,2.8 L16.8195122,0.1625 L18.1463415,0.1625 C18.1593496,0.2125 18.1593496,0.275 18.1463415,0.325 C17.8471545,0.35 17.6910569,0.3875 17.6260163,0.4625 C17.5739837,0.5125 17.5869919,0.575 17.5869919,0.6375 L17.8601626,3.3375 C17.8731707,3.5375 18.003252,3.55 18.4195122,3.6 C18.4325203,3.6875 18.4195122,3.7375 18.3934959,3.775 C18.3674797,3.8 18.3414634,3.8125 18.2764228,3.8125 L16.2731707,3.8125 C16.2601626,3.7625 16.2601626,3.7 16.2731707,3.65 L16.5593496,3.6375 C16.8325203,3.625 16.9886179,3.6 17.0666667,3.5125 C17.1317073,3.45 17.1186992,3.35 17.1186992,3.25 L16.8585366,0.8375 C16.8585366,0.825 16.8455285,0.8125 16.8325203,0.8125 C16.8195122,0.8125 16.8195122,0.8125 16.8065041,0.825 L15.4276423,3.6125 C15.3365854,3.8 15.2845528,3.825 15.1804878,3.825 L13.6325203,0.825 Z M22.9333333,3.8125 C22.9203252,3.7625 22.9203252,3.7 22.9333333,3.65 C23.5317073,3.6125 23.6617886,3.575 23.6617886,3.1875 L23.6617886,0.6375 C23.6617886,0.4125 23.5837398,0.375 23.3235772,0.375 L23.0764228,0.375 C23.0634146,0.3 23.0764228,0.2625 23.102439,0.2375 C23.1414634,0.2 23.2065041,0.1875 23.3105691,0.1875 L26.0162602,0.1875 C26.0292683,0.4125 26.0682927,0.6625 26.1073171,0.9125 C26.1203252,0.9875 26.1073171,1.05 26.0813008,1.0875 C26.0552846,1.1125 26.0162602,1.1375 25.9512195,1.1375 C25.9382114,1.1375 25.9382114,1.1375 25.9252033,1.1375 L25.8601626,0.9 C25.7560976,0.5625 25.6390244,0.4625 25.300813,0.4625 L24.3772358,0.4625 C24.3642276,0.4625 24.3512195,0.475 24.3512195,0.4875 L24.3512195,1.9125 C24.3512195,1.925 24.3642276,1.9375 24.3772358,1.9375 L24.9756098,1.9375 C25.1707317,1.9375 25.2097561,1.8625 25.2227642,1.7125 L25.2617886,1.45 L25.3138211,1.45 C25.3658537,1.45 25.404878,1.4625 25.4178862,1.475 C25.4439024,1.5 25.4569106,1.55 25.4439024,1.625 C25.4308943,1.975 25.4308943,2.3375 25.4439024,2.7 C25.4178862,2.7125 25.3918699,2.7125 25.3658537,2.7125 C25.3398374,2.7125 25.3138211,2.7125 25.2878049,2.7 C25.2097561,2.2875 25.1447154,2.2125 24.9626016,2.2125 L24.3642276,2.2125 C24.3512195,2.2125 24.3382114,2.225 24.3382114,2.2375 L24.3382114,3.2125 C24.3382114,3.425 24.403252,3.525 24.8065041,3.525 L25.300813,3.525 C25.7300813,3.525 25.795122,3.5 26.0422764,2.9875 L26.198374,2.6625 C26.2764228,2.6625 26.3154472,2.675 26.3414634,2.7125 C26.3674797,2.75 26.3674797,2.8 26.3414634,2.8625 C26.2113821,3.2375 26.1073171,3.55 26.0422764,3.8375 L22.9333333,3.8125 Z M19.2650407,3.8125 C19.2520325,3.7625 19.2520325,3.7 19.2650407,3.65 C19.798374,3.6125 19.9544715,3.55 19.9544715,3.1625 L19.9544715,0.6375 C19.9544715,0.425 19.8634146,0.375 19.6162602,0.375 L19.3560976,0.375 C19.3430894,0.3125 19.3430894,0.2625 19.3691057,0.2375 C19.395122,0.2 19.4731707,0.175 19.5772358,0.175 L21.3463415,0.175 C21.3593496,0.225 21.3593496,0.3 21.3463415,0.3375 C20.7609756,0.375 20.6178862,0.425 20.6178862,0.8 L20.6178862,3.25 C20.6178862,3.475 20.7739837,3.5125 20.904065,3.5125 L21.2682927,3.5125 C21.697561,3.5125 21.7626016,3.4875 22.0097561,2.975 L22.1658537,2.65 C22.2439024,2.65 22.295935,2.6625 22.3089431,2.7 C22.3349593,2.7375 22.3349593,2.7875 22.3089431,2.85 C22.1658537,3.225 22.0747967,3.5375 22.0097561,3.825 L19.2650407,3.825 L19.2650407,3.8125 Z M9.7300813,3.8125 C9.71707317,3.7625 9.71707317,3.7 9.7300813,3.6375 C10.1723577,3.5625 10.302439,3.5125 10.302439,3.2625 L10.302439,0.625 C10.302439,0.4 10.2243902,0.3625 9.96422764,0.3625 L9.70406504,0.3625 C9.69105691,0.3 9.69105691,0.25 9.71707317,0.225 C9.74308943,0.1875 9.82113821,0.1625 9.92520325,0.1625 L11.5512195,0.1625 C11.5642276,0.2125 11.5642276,0.2875 11.5512195,0.325 C11.0569106,0.3625 10.9658537,0.475 10.9658537,0.7125 L10.9658537,3.3375 C10.9658537,3.55 11.0569106,3.6 11.2910569,3.6 L11.5772358,3.6 C11.5902439,3.6875 11.5902439,3.7375 11.5772358,3.7625 C11.5512195,3.7875 11.5121951,3.8 11.4601626,3.8 L9.7300813,3.8125 Z M7.31056911,3.8125 C7.29756098,3.7625 7.29756098,3.7 7.31056911,3.65 C7.7398374,3.6375 7.89593496,3.6125 7.94796748,3.5375 C7.97398374,3.5 7.96097561,3.45 7.94796748,3.4 L7.58373984,2.5625 C7.58373984,2.55 7.57073171,2.55 7.55772358,2.55 L6.07479675,2.55 C6.06178862,2.55 6.04878049,2.5625 6.04878049,2.5625 L5.81463415,3.1625 C5.73658537,3.3625 5.71056911,3.4625 5.7495935,3.5375 C5.78861789,3.5875 5.86666667,3.6125 6.02276423,3.6125 L6.49105691,3.6125 C6.50406504,3.6875 6.50406504,3.7375 6.47804878,3.775 C6.45203252,3.8 6.42601626,3.8125 6.37398374,3.8125 L4.74796748,3.8125 C4.73495935,3.7625 4.73495935,3.7 4.74796748,3.65 C5.1902439,3.6 5.24227642,3.55 5.39837398,3.2 L6.5300813,0.6125 C6.72520325,0.1875 6.7902439,0.1125 7.03739837,0.1125 L7.24552846,0.1125 C7.25853659,0.225 7.31056911,0.325 7.38861789,0.5125 L8.71544715,3.425 C8.7804878,3.575 8.85853659,3.6375 9.15772358,3.6375 L9.27479675,3.6375 C9.28780488,3.7125 9.28780488,3.775 9.26178862,3.8 C9.23577236,3.825 9.2097561,3.8375 9.14471545,3.8375 L7.31056911,3.8125 Z M6.7902439,0.8125 C6.77723577,0.8125 6.76422764,0.825 6.76422764,0.825 L6.16585366,2.2625 C6.16585366,2.275 6.16585366,2.275 6.16585366,2.2875 C6.16585366,2.3 6.17886179,2.3 6.19186992,2.3 L7.41463415,2.3 C7.42764228,2.3 7.42764228,2.3 7.44065041,2.2875 C7.44065041,2.275 7.44065041,2.275 7.44065041,2.2625 L6.81626016,0.825 C6.81626016,0.825 6.80325203,0.8125 6.7902439,0.8125 Z M0.0390243902,3.8125 C0.0260162602,3.7625 0.0260162602,3.7 0.0390243902,3.65 C0.637398374,3.6125 0.767479675,3.575 0.767479675,3.1875 L0.767479675,0.575 C0.767479675,0.3375 0.689430894,0.3 0.429268293,0.3 L0.169105691,0.3 C0.156097561,0.225 0.156097561,0.175 0.182113821,0.15 C0.234146341,0.0875 0.429268293,0.0625 0.949593496,0.0625 L2.1203252,0.0625 C3.68130081,0.0625 4.46178862,0.6875 4.46178862,1.9375 C4.46178862,3.1625 3.66829268,3.8125 2.17235772,3.8125 L0.0390243902,3.8125 Z M1.45691057,0.3375 C1.44390244,0.3375 1.43089431,0.35 1.43089431,0.3625 L1.43089431,3.1375 C1.43089431,3.5 1.58699187,3.55 2.1203252,3.55 C3.56422764,3.55 3.75934959,2.7875 3.75934959,2.0375 C3.75934959,0.9375 3.14796748,0.3375 2.05528455,0.3375 L1.45691057,0.3375 Z" id="Shape"></path>
            <g id="D_2_">
                <path d="M4.44878049,1.9375 C4.44878049,0.7125 3.66829268,0.0875 2.13333333,0.0875 L0.962601626,0.0875 C0.533333333,0.0875 0.273170732,0.1 0.208130081,0.1625 C0.195121951,0.1875 0.182113821,0.2125 0.195121951,0.275 L0.195121951,0.3 L0.156097561,0.325 C0.117073171,0.0875 0.143089431,0.0375 0.962601626,0.0375 L2.13333333,0.0375 C3.78536585,0.0375 4.50081301,0.75 4.50081301,1.9375 L4.47479675,1.9625 L4.44878049,1.9375 Z" id="Shape"></path>
                <path d="M4.44878049,1.9375 C4.44878049,3.15 3.66829268,3.7875 2.18536585,3.7875 L0.0650406504,3.7875 L0.0390243902,3.7875 L0.0260162602,3.8375 L2.18536585,3.8375 C3.82439024,3.8375 4.50081301,3.075 4.50081301,1.9375 C4.50081301,1.9375 4.44878049,1.9375 4.44878049,1.9375 Z" id="Shape"></path>
                <path d="M0.0650406504,3.7875 C0.0650406504,3.75 0.0650406504,3.7125 0.0650406504,3.6625 C0.624390244,3.6375 0.793495935,3.5875 0.793495935,3.175 L0.793495935,0.575 C0.793495935,0.325 0.702439024,0.275 0.429268293,0.275 L0.195121951,0.275 L0.156097561,0.325 L0.429268293,0.325 C0.689430894,0.325 0.741463415,0.3625 0.741463415,0.575 L0.741463415,3.175 C0.741463415,3.55 0.637398374,3.5875 0.0130081301,3.6125 C-3.2163508e-14,3.6875 -3.2163508e-14,3.775 0.0130081301,3.825 L0.0650406504,3.7875 Z" id="Shape"></path>
                <path d="M2.05528455,3.5875 C2.08130081,3.5875 2.09430894,3.5875 2.1203252,3.5875 C2.9398374,3.5875 3.78536585,3.4 3.78536585,2.05 C3.78536585,0.9375 3.17398374,0.325 2.05528455,0.325 L2.01626016,0.35 L2.05528455,0.375 C3.16097561,0.375 3.73333333,0.9875 3.73333333,2.05 C3.73333333,3.2375 3.10894309,3.5375 2.1203252,3.5375 C2.09430894,3.5375 2.06829268,3.5375 2.05528455,3.5375 L2.02926829,3.5625 L2.05528455,3.5875 Z" id="Shape"></path>
                <path d="M1.41788618,2.0375 L1.41788618,0.3625 C1.41788618,0.3375 1.44390244,0.3125 1.4699187,0.3125 L2.05528455,0.3125 L2.05528455,0.3625 L1.45691057,0.3625 L1.45691057,2.0375 L1.43089431,2.05 L1.41788618,2.0375 Z" id="Shape"></path>
                <path d="M1.45691057,2.0375 L1.45691057,3.1375 C1.45691057,3.4625 1.57398374,3.525 2.05528455,3.525 L2.05528455,3.575 C1.56097561,3.575 1.41788618,3.5 1.41788618,3.1375 L1.41788618,2.0375 L1.45691057,2.0375 Z" id="Shape"></path>
            </g>
            <g id="A_2_" transform="translate(4.682927, 0.000000)">
                <path d="M0.0910569106,3.7875 C0.0910569106,3.75 0.0910569106,3.7125 0.0910569106,3.6625 C0.520325203,3.6125 0.585365854,3.55 0.741463415,3.2 L1.87317073,0.6125 C2.05528455,0.1875 2.1203252,0.125 2.35447154,0.125 L2.53658537,0.125 L2.56260163,0.1125 L2.57560976,0.075 L2.36747967,0.075 C2.09430894,0.075 2.01626016,0.1625 1.83414634,0.5875 L0.702439024,3.175 C0.546341463,3.525 0.494308943,3.5625 0.0520325203,3.6125 C0.0390243902,3.6875 0.0390243902,3.775 0.0520325203,3.825 L0.0910569106,3.7875 Z" id="Shape"></path>
                <path d="M0.0910569106,3.8476626 L1.69105691,3.8476626 C1.7300813,3.8476626 1.76910569,3.83140244 1.78211382,3.81514228 C1.79512195,3.78262195 1.80813008,3.73384146 1.79512195,3.65254065 L1.79512195,3.62002033 L1.84715447,3.5875 C1.88617886,3.79888211 1.84715447,3.91270325 1.70406504,3.91270325 L0.0650406504,3.91270325 L0.0910569106,3.8476626 Z" id="Shape"></path>
                <path d="M1.15772358,3.0375 L1.10569106,3.1625 C1.01463415,3.375 0.988617886,3.475 1.04065041,3.55 C1.09268293,3.625 1.19674797,3.6375 1.32682927,3.6375 L1.78211382,3.6375 L1.82113821,3.5875 L1.32682927,3.5875 C1.01463415,3.5875 1.01463415,3.5 1.14471545,3.175 L1.19674797,3.025 L1.18373984,3 L1.15772358,3.0375 Z" id="Shape"></path>
                <path d="M1.15772358,3.0375 L1.3398374,2.5625 C1.35284553,2.5375 1.36585366,2.525 1.39186992,2.525 L2.1203252,2.525 L2.13333333,2.55 L2.1203252,2.575 L1.39186992,2.575 L1.2097561,3.025 L1.15772358,3.0375 Z" id="Shape"></path>
                <path d="M3.12195122,3.0375 L2.91382114,2.5625 C2.90081301,2.55 2.88780488,2.5375 2.86178862,2.5375 L2.10731707,2.5375 L2.10731707,2.5875 L2.86178862,2.5875 L3.05691057,3.0375 L3.09593496,3.0625 L3.12195122,3.0375 Z" id="Shape"></path>
                <path d="M3.12195122,3.0375 L3.27804878,3.4 C3.30406504,3.45 3.31707317,3.5 3.27804878,3.55 C3.22601626,3.625 3.0699187,3.6625 2.64065041,3.675 C2.64065041,3.7125 2.64065041,3.7625 2.64065041,3.7875 L2.64065041,3.8125 L2.58861789,3.8375 C2.57560976,3.7875 2.57560976,3.6875 2.58861789,3.625 C3.21300813,3.6125 3.27804878,3.5625 3.21300813,3.4125 L3.04390244,3.025 L3.12195122,3.0375 Z" id="Shape"></path>
                <path d="M2.65365854,3.8476626 L4.47479675,3.8476626 C4.51382114,3.8476626 4.55284553,3.83140244 4.56585366,3.81514228 C4.57886179,3.78262195 4.59186992,3.73384146 4.57886179,3.65254065 L4.57886179,3.62002033 L4.61788618,3.5875 C4.65691057,3.79888211 4.61788618,3.91270325 4.47479675,3.91270325 L2.61463415,3.91270325 L2.65365854,3.8476626 Z" id="Shape"></path>
                <path d="M4.57886179,3.6375 L4.48780488,3.6375 C4.18861789,3.6375 4.09756098,3.5875 4.0195122,3.4125 L2.69268293,0.5 C2.61463415,0.325 2.56260163,0.225 2.5495935,0.125 L2.58861789,0.075 C2.60162602,0.2 2.64065041,0.2875 2.73170732,0.4875 L4.05853659,3.4 C4.12357724,3.5375 4.18861789,3.5875 4.47479675,3.5875 L4.60487805,3.5875 L4.57886179,3.6375 Z" id="Shape"></path>
                <path d="M2.10731707,0.7875 C2.08130081,0.7875 2.06829268,0.8 2.05528455,0.8125 L1.45691057,2.25 C1.45691057,2.2625 1.45691057,2.2875 1.45691057,2.3 C1.4699187,2.3125 1.48292683,2.325 1.49593496,2.325 L2.09430894,2.325 L2.10731707,2.3 L2.09430894,2.275 L1.49593496,2.275 L2.09430894,0.8375 L2.10731707,0.8125 L2.10731707,0.7875 Z" id="Shape"></path>
                <path d="M2.10731707,0.7875 C2.13333333,0.7875 2.14634146,0.8 2.15934959,0.8125 L2.78373984,2.25 C2.79674797,2.2625 2.78373984,2.2875 2.78373984,2.3 C2.77073171,2.3125 2.75772358,2.325 2.74471545,2.325 L2.10731707,2.325 L2.10731707,2.275 L2.73170732,2.275 L2.10731707,0.8375 L2.10731707,0.7875 Z" id="Shape"></path>
            </g>
            <g id="I_2_" transform="translate(9.626016, 0.125000)">
                <path d="M1.89918699,0.0900406504 L0.299186992,0.0900406504 C0.208130081,0.0900406504 0.143089431,0.106300813 0.117073171,0.155081301 C0.104065041,0.187601626 0.0910569106,0.220121951 0.104065041,0.285162602 L0.117073171,0.317682927 L0.0650406504,0.350203252 C0.0260162602,0.171341463 0.0650406504,0.025 0.312195122,0.025 L1.95121951,0.025 L1.92520325,0.0900406504 C1.92520325,0.0900406504 1.89918699,0.0900406504 1.89918699,0.0900406504 Z" id="Shape"></path>
                <path d="M0.117073171,3.6625 C0.104065041,3.625 0.117073171,3.5875 0.117073171,3.5375 C0.533333333,3.475 0.689430894,3.4125 0.689430894,3.1375 L0.689430894,0.5 C0.689430894,0.2625 0.598373984,0.2125 0.325203252,0.2125 L0.0910569106,0.2125 L0.0520325203,0.2625 L0.325203252,0.2625 C0.585365854,0.2625 0.637398374,0.3 0.637398374,0.5 L0.637398374,3.1375 C0.637398374,3.3625 0.533333333,3.425 0.0650406504,3.4875 C0.0390243902,3.5625 0.0390243902,3.65 0.0650406504,3.7 L0.104065041,3.675 L0.117073171,3.6625 Z" id="Shape"></path>
                <path d="M1.93821138,3.52754065 C1.95121951,3.60884146 1.95121951,3.65762195 1.93821138,3.69014228 C1.92520325,3.70640244 1.88617886,3.7226626 1.83414634,3.7226626 L0.130081301,3.7226626 L0.0910569106,3.78770325 L1.83414634,3.78770325 C2.00325203,3.78770325 2.02926829,3.67388211 1.97723577,3.4625 L1.92520325,3.49502033 L1.93821138,3.52754065 Z" id="Shape"></path>
                <path d="M1.31382114,1.9125 L1.31382114,3.225 C1.31382114,3.4625 1.41788618,3.5125 1.66504065,3.5125 L1.93821138,3.5125 L1.97723577,3.4625 L1.66504065,3.4625 C1.41788618,3.4625 1.36585366,3.425 1.36585366,3.225 L1.36585366,1.9125 L1.3398374,1.8875 L1.31382114,1.9125 Z" id="Shape"></path>
                <path d="M1.89918699,0.2 C1.45691057,0.2375 1.31382114,0.3375 1.31382114,0.6125 L1.31382114,1.925 L1.36585366,1.925 L1.36585366,0.6125 C1.36585366,0.375 1.44390244,0.275 1.93821138,0.2375 L1.91219512,0.1875 L1.89918699,0.2 Z" id="Shape"></path>
                <path d="M1.89918699,0.0862804878 C1.89918699,0.135060976 1.89918699,0.200101626 1.89918699,0.248882114 L1.94796748,0.313922764 C1.96422764,0.248882114 1.96422764,0.10254065 1.94796748,0.0375 L1.89918699,0.0862804878 Z" id="Shape"></path>
            </g>
            <g id="M_2_" transform="translate(12.227642, 0.125000)">
                <path d="M1.79512195,0.0900406504 L0.676422764,0.0900406504 C0.585365854,0.0900406504 0.520325203,0.106300813 0.494308943,0.155081301 C0.481300813,0.187601626 0.468292683,0.220121951 0.481300813,0.285162602 L0.494308943,0.317682927 L0.442276423,0.350203252 C0.403252033,0.187601626 0.442276423,0.025 0.689430894,0.025 L1.84715447,0.025 L1.84715447,0.0900406504 L1.79512195,0.0900406504 Z" id="Shape"></path>
                <path d="M0.117073171,3.6625 C0.117073171,3.625 0.117073171,3.5875 0.117073171,3.5375 C0.702439024,3.5 0.806504065,3.4 0.832520325,3.1125 L1.06666667,0.5125 C1.0796748,0.45 1.0796748,0.375 1.02764228,0.325 C0.962601626,0.25 0.819512195,0.225 0.468292683,0.2125 L0.429268293,0.2625 C1.00162602,0.275 1.02764228,0.3375 1.01463415,0.5125 L0.780487805,3.1125 C0.767479675,3.35 0.715447154,3.45 0.0780487805,3.4875 C0.0650406504,3.5625 0.0650406504,3.625 0.0780487805,3.7 L0.130081301,3.675 L0.117073171,3.6625 Z" id="Shape"></path>
                <path d="M2.06829268,3.52754065 C2.08130081,3.60884146 2.08130081,3.65762195 2.05528455,3.69014228 C2.04227642,3.70640244 2.00325203,3.7226626 1.96422764,3.7226626 L0.117073171,3.7226626 L0.0780487805,3.78770325 L1.96422764,3.78770325 C2.1203252,3.78770325 2.14634146,3.67388211 2.10731707,3.4625 L2.06829268,3.49502033 L2.06829268,3.52754065 Z" id="Shape"></path>
                <path d="M1.39186992,0.6625 C1.39186992,0.6625 1.37886179,0.6625 1.39186992,0.6625 C1.35284553,0.6625 1.3398374,0.6875 1.3398374,0.7125 L1.15772358,3.1875 C1.14471545,3.275 1.14471545,3.3625 1.19674797,3.4125 C1.26178862,3.4875 1.40487805,3.5125 1.79512195,3.5125 L2.06829268,3.5125 L2.10731707,3.4625 L1.79512195,3.4625 C1.18373984,3.4625 1.18373984,3.4125 1.2097561,3.1875 L1.39186992,0.7125 L1.40487805,0.7 L1.39186992,0.6625 Z" id="Shape"></path>
                <path d="M3.00487805,3.675 L1.43089431,0.6875 C1.41788618,0.675 1.40487805,0.6625 1.37886179,0.6625 L1.37886179,0.7125 L2.96585366,3.725 L2.99186992,3.7125 L3.00487805,3.675 Z" id="Shape"></path>
                <path d="M4.64390244,0.6625 C4.61788618,0.6625 4.59186992,0.675 4.59186992,0.6875 L3.21300813,3.475 C3.12195122,3.65 3.08292683,3.675 3.00487805,3.675 L2.97886179,3.725 C3.10894309,3.725 3.16097561,3.6875 3.26504065,3.4875 L4.64390244,0.7 L4.65691057,0.675 L4.64390244,0.6625 Z" id="Shape"></path>
                <path d="M4.08455285,3.6625 C4.07154472,3.625 4.07154472,3.5875 4.08455285,3.55 L4.35772358,3.5375 C4.63089431,3.525 4.8,3.5 4.89105691,3.4 C4.95609756,3.325 4.95609756,3.225 4.94308943,3.125 L4.68292683,0.7125 C4.68292683,0.6875 4.65691057,0.675 4.64390244,0.675 L4.63089431,0.725 L4.89105691,3.1375 C4.91707317,3.4125 4.83902439,3.475 4.35772358,3.5 L4.04552846,3.5125 C4.0195122,3.5875 4.0195122,3.65 4.04552846,3.725 L4.08455285,3.7 L4.08455285,3.6625 Z" id="Shape"></path>
                <path d="M6.19186992,3.52754065 C6.19186992,3.5925813 6.19186992,3.67388211 6.16585366,3.69014228 C6.15284553,3.70640244 6.11382114,3.7226626 6.07479675,3.7226626 L4.08455285,3.7226626 L4.04552846,3.78770325 L6.07479675,3.78770325 C6.23089431,3.78770325 6.25691057,3.67388211 6.23089431,3.4625 L6.19186992,3.47876016 L6.19186992,3.52754065 Z" id="Shape"></path>
                <path d="M5.91869919,0.2 C5.6195122,0.225 5.46341463,0.2625 5.39837398,0.3375 C5.34634146,0.4 5.34634146,0.475 5.35934959,0.5375 L5.50243902,1.925 L5.55447154,1.925 L5.41138211,0.525 C5.39837398,0.3625 5.42439024,0.275 5.95772358,0.2375 L5.94471545,0.1875 L5.91869919,0.2 Z" id="Shape"></path>
                <path d="M5.50243902,1.9125 L5.63252033,3.2125 C5.65853659,3.425 5.78861789,3.45 6.19186992,3.5 L6.24390244,3.45 C5.80162602,3.4 5.71056911,3.375 5.69756098,3.2 L5.56747967,1.9 L5.54146341,1.8625 L5.50243902,1.9125 Z" id="Shape"></path>
                <path d="M5.92195122,0.0862804878 C5.93821138,0.135060976 5.93821138,0.183841463 5.92195122,0.248882114 L5.97073171,0.313922764 C6.00325203,0.216361789 6.00325203,0.135060976 5.97073171,0.0375 L5.90569106,0.0700203252 L5.92195122,0.0862804878 Z" id="Shape"></path>
                <polygon id="Shape" points="4.63089431 0.0900406504 5.91869919 0.0900406504 5.95772358 0.025 4.60487805 0.025 4.60487805 0.0900406504"></polygon>
                <path d="M3.27804878,2.7375 C3.30406504,2.7375 3.31707317,2.725 3.3300813,2.7125 L4.64390244,0.0875 L4.61788618,0.0375 L3.27804878,2.6875 L3.25203252,2.7 L3.27804878,2.7375 Z" id="Shape"></path>
                <path d="M1.79512195,0.075 L3.22601626,2.7 C3.23902439,2.7125 3.25203252,2.725 3.27804878,2.725 L3.27804878,2.675 L1.83414634,0.025 L1.79512195,0.075 Z" id="Shape"></path>
            </g>
            <g id="L_2_" transform="translate(19.121951, 0.125000)">
                <path d="M0.169105691,3.6625 C0.169105691,3.625 0.156097561,3.5875 0.169105691,3.5375 C0.689430894,3.5 0.858536585,3.425 0.858536585,3.025 L0.858536585,0.5 C0.858536585,0.2625 0.741463415,0.2125 0.494308943,0.2125 L0.260162602,0.2125 L0.234146341,0.2125 L0.221138211,0.2625 L0.494308943,0.2625 C0.741463415,0.2625 0.806504065,0.3 0.806504065,0.5 L0.806504065,3.025 C0.806504065,3.3875 0.676422764,3.45 0.117073171,3.4875 C0.104065041,3.5625 0.104065041,3.625 0.117073171,3.7 L0.169105691,3.675 L0.169105691,3.6625 Z" id="Shape"></path>
                <path d="M0.169105691,3.6625 L2.88780488,3.6625 C2.95284553,3.375 3.04390244,3.075 3.17398374,2.7 C3.18699187,2.6625 3.2,2.6 3.17398374,2.575 C3.14796748,2.55 3.10894309,2.5375 3.05691057,2.5375 L3.01788618,2.5375 L3.01788618,2.4875 C3.18699187,2.4875 3.26504065,2.55 3.21300813,2.725 C3.09593496,3.0625 2.99186992,3.375 2.91382114,3.725 L0.104065041,3.725 L0.169105691,3.6625 Z" id="Shape"></path>
                <path d="M3.0699187,2.5375 L2.92682927,2.85 C2.6796748,3.35 2.61463415,3.4 2.15934959,3.4 L2.13333333,3.375 L2.15934959,3.35 C2.58861789,3.35 2.64065041,3.325 2.88780488,2.825 L3.04390244,2.4875 L3.0699187,2.5375 Z" id="Shape"></path>
                <path d="M1.4699187,1.9125 L1.4699187,3.1125 C1.4699187,3.3625 1.65203252,3.4 1.78211382,3.4 L2.14634146,3.4 L2.14634146,3.35 L1.78211382,3.35 C1.62601626,3.35 1.52195122,3.3 1.52195122,3.1125 L1.52195122,1.9125 L1.49593496,1.875 L1.4699187,1.9125 Z" id="Shape"></path>
                <path d="M1.4699187,1.9125 L1.4699187,0.675 C1.4699187,0.275 1.65203252,0.2125 2.19837398,0.1875 L2.22439024,0.1875 L2.2504065,0.2375 C1.65203252,0.275 1.53495935,0.325 1.53495935,0.675 L1.53495935,1.9125 L1.4699187,1.9125 Z" id="Shape"></path>
                <path d="M2.20162602,0.248882114 C2.20162602,0.200101626 2.20162602,0.135060976 2.20162602,0.10254065 L2.18536585,0.0700203252 L2.2504065,0.0375 C2.26666667,0.10254065 2.26666667,0.248882114 2.2504065,0.313922764 L2.20162602,0.248882114 Z" id="Shape"></path>
                <path d="M2.19837398,0.0900406504 L0.455284553,0.0900406504 C0.364227642,0.0900406504 0.299186992,0.106300813 0.273170732,0.155081301 C0.260162602,0.187601626 0.247154472,0.220121951 0.260162602,0.285162602 L0.221138211,0.350203252 C0.182113821,0.171341463 0.221138211,0.025 0.468292683,0.025 L2.23739837,0.025 L2.19837398,0.0900406504 Z" id="Shape"></path>
            </g>
            <g id="E_2_" transform="translate(22.764228, 0.125000)">
                <path d="M3.22601626,0.0900406504 L0.533333333,0.0900406504 C0.442276423,0.0900406504 0.377235772,0.106300813 0.351219512,0.155081301 C0.338211382,0.187601626 0.325203252,0.220121951 0.325203252,0.285162602 L0.325203252,0.317682927 L0.273170732,0.350203252 C0.247154472,0.171341463 0.273170732,0.025 0.520325203,0.025 L3.25203252,0.025 L3.23902439,0.0737804878 L3.22601626,0.0900406504 Z" id="Shape"></path>
                <path d="M0.195121951,3.6625 C0.182113821,3.625 0.182113821,3.5875 0.195121951,3.55 C0.754471545,3.525 0.923577236,3.475 0.923577236,3.0625 L0.923577236,0.5125 C0.923577236,0.275 0.832520325,0.225 0.559349593,0.225 L0.325203252,0.225 L0.273170732,0.275 L0.546341463,0.275 C0.806504065,0.275 0.858536585,0.3125 0.858536585,0.5125 L0.858536585,3.0625 C0.858536585,3.4375 0.754471545,3.475 0.143089431,3.5 C0.117073171,3.575 0.117073171,3.6375 0.143089431,3.7125 L0.182113821,3.7 L0.195121951,3.6625 Z" id="Shape"></path>
                <path d="M3.4601626,2.5375 C3.49918699,2.5375 3.55121951,2.55 3.56422764,2.575 C3.5902439,2.6125 3.57723577,2.6625 3.56422764,2.7 C3.43414634,3.0625 3.34308943,3.375 3.27804878,3.6625 L0.182113821,3.6625 L0.143089431,3.7125 L3.31707317,3.7125 C3.39512195,3.375 3.49918699,3.0375 3.61626016,2.7125 C3.66829268,2.55 3.5902439,2.475 3.42113821,2.475 L3.42113821,2.5125 L3.4601626,2.5375 Z" id="Shape"></path>
                <path d="M2.05528455,3.4 L2.5495935,3.4 C3.00487805,3.4 3.08292683,3.35 3.31707317,2.85 L3.4601626,2.5375 L3.42113821,2.4875 L3.26504065,2.825 C3.01788618,3.325 2.96585366,3.35 2.53658537,3.35 L2.04227642,3.35 L2.02926829,3.375 L2.05528455,3.4 Z" id="Shape"></path>
                <path d="M1.56097561,2.725 L1.56097561,3.075 C1.56097561,3.325 1.67939666,3.4 2.06097561,3.4 L2.06097561,3.35 C1.66623877,3.35 1.61360719,3.2625 1.61360719,3.0625 L1.61360719,2.7125 L1.60044929,2.7 L1.56097561,2.725 Z" id="Shape"></path>
                <path d="M1.98373984,2.05 L1.62601626,2.05 C1.59349593,2.05 1.56097561,2.075 1.56097561,2.1 L1.56097561,2.725 L1.62601626,2.725 L1.62601626,2.1 L1.98373984,2.1 L2,2.075 L1.98373984,2.05 Z" id="Shape"></path>
                <path d="M2.56260163,2.55 C2.49756098,2.1625 2.4195122,2.0625 2.22439024,2.0625 L1.91219512,2.0625 L1.91219512,2.1125 L2.22439024,2.1125 C2.36747967,2.1125 2.44552846,2.1625 2.52357724,2.5875 L2.56260163,2.575 L2.56260163,2.55 Z" id="Shape"></path>
                <path d="M2.69268293,2.55 C2.67642276,2.55 2.6601626,2.55 2.62764228,2.55 C2.61138211,2.55 2.57886179,2.55 2.56260163,2.55 L2.49756098,2.59878049 C2.57886179,2.63130081 2.67642276,2.63130081 2.74146341,2.59878049 L2.72520325,2.56626016 L2.69268293,2.55 Z" id="Shape"></path>
                <path d="M2.53333333,1.3375 L2.56585366,1.3375 C2.64715447,1.3375 2.66341463,1.35 2.6796748,1.3625 C2.71219512,1.3875 2.71219512,1.425 2.71219512,1.5 C2.69593496,1.8375 2.69593496,2.2 2.71219512,2.55 L2.77723577,2.5875 C2.76097561,2.225 2.76097561,1.85 2.77723577,1.5 C2.79349593,1.325 2.71219512,1.2875 2.56585366,1.2875 L2.48455285,1.2875 L2.50081301,1.325 L2.53333333,1.3375 Z" id="Shape"></path>
                <path d="M1.91219512,1.8125 L2.21138211,1.8125 C2.4195122,1.8125 2.47154472,1.725 2.48455285,1.575 L2.52357724,1.3375 L2.48455285,1.2875 L2.44552846,1.575 C2.43252033,1.7125 2.39349593,1.775 2.22439024,1.775 L1.92520325,1.775 L1.91219512,1.7875 L1.91219512,1.8125 Z" id="Shape"></path>
                <path d="M1.56097561,1.0375 L1.56097561,1.7625 C1.56097561,1.7875 1.59349593,1.8125 1.62601626,1.8125 L2,1.8125 L2,1.7625 L1.62601626,1.7625 L1.62601626,1.0375 L1.6097561,1.025 L1.56097561,1.0375 Z" id="Shape"></path>
                <path d="M2,0.3 L1.62601626,0.3 C1.59349593,0.3 1.56097561,0.325 1.56097561,0.35 L1.56097561,1.0375 L1.62601626,1.0375 L1.62601626,0.35 L2,0.35 L2.01626016,0.325 L2,0.3 Z" id="Shape"></path>
                <path d="M3.17398374,0.975 L3.10894309,0.7625 C3.00487805,0.4125 2.87479675,0.3 2.52357724,0.3 L1.91219512,0.3 L1.91219512,0.35 L2.52357724,0.35 C2.83577236,0.35 2.96585366,0.4375 3.05691057,0.775 L3.13495935,1.025 L3.17398374,1.0125 L3.17398374,0.975 Z" id="Shape"></path>
                <path d="M3.24878049,0.075 C3.26504065,0.2875 3.31382114,0.5375 3.36260163,0.775 C3.37886179,0.825 3.37886179,0.8875 3.3300813,0.9375 C3.29756098,0.9625 3.24878049,0.975 3.18373984,0.975 L3.13495935,1.025 C3.36260163,1.0375 3.44390244,0.95 3.41138211,0.775 C3.36260163,0.5375 3.31382114,0.275 3.29756098,0.025 L3.24878049,0.075 Z" id="Shape"></path>
            </g>
            <g id="R_2_" transform="translate(27.056911, 0.000000)">
                <path d="M2.71869919,2.4 C3.2,2.2125 3.49918699,1.8375 3.49918699,1.3625 C3.49918699,0.6 2.88780488,0.1 1.78211382,0.1 C0.975609756,0.1 0.637398374,0.1 0.351219512,0.125 C0.117073171,0.1375 0.0780487805,0.25 0.117073171,0.3875 L0.156097561,0.3375 C0.143089431,0.2875 0.156097561,0.2625 0.169105691,0.2375 C0.195121951,0.2 0.260162602,0.175 0.351219512,0.175 C0.624390244,0.15 0.962601626,0.15 1.76910569,0.15 C2.8097561,0.15 3.43414634,0.6 3.43414634,1.3625 C3.43414634,1.8 3.16097561,2.1625 2.69268293,2.35 C2.6796748,2.3625 2.66666667,2.375 2.66666667,2.3875 L2.71869919,2.4 Z" id="Shape"></path>
                <path d="M0.169105691,0.35 L0.403252033,0.35 C0.650406504,0.35 0.767479675,0.4 0.767479675,0.65 L0.767479675,3.2 C0.767479675,3.5875 0.598373984,3.6375 0.143089431,3.675 C0.143089431,3.7125 0.143089431,3.7625 0.143089431,3.8 L0.130081301,3.8375 L0.0910569106,3.85 C0.0780487805,3.7875 0.0780487805,3.7 0.0910569106,3.6375 C0.585365854,3.6 0.702439024,3.55 0.702439024,3.2125 L0.702439024,0.6625 C0.702439024,0.45 0.624390244,0.4125 0.390243902,0.4125 L0.117073171,0.4125 L0.169105691,0.35 Z" id="Shape"></path>
                <path d="M2.02926829,3.65254065 C2.02926829,3.7175813 2.02926829,3.78262195 2.00325203,3.81514228 C1.9902439,3.83140244 1.95121951,3.8476626 1.89918699,3.8476626 L0.130081301,3.8476626 L0.0910569106,3.91270325 L1.89918699,3.91270325 C2.06829268,3.91270325 2.08130081,3.79888211 2.06829268,3.5875 L2.02926829,3.65254065 Z" id="Shape"></path>
                <path d="M1.37886179,3.0625 L1.37886179,3.375 C1.37886179,3.575 1.4699187,3.6375 1.78211382,3.6375 L2.02926829,3.6375 L2.08130081,3.5875 L1.78211382,3.5875 C1.48292683,3.5875 1.43089431,3.5375 1.43089431,3.375 L1.43089431,3.0625 L1.40487805,3.05 L1.37886179,3.0625 Z" id="Shape"></path>
                <path d="M1.86457607,2.5125 L1.43600465,2.5125 C1.40743322,2.5125 1.37886179,2.5375 1.37886179,2.5625 L1.37886179,3.0625 L1.43600465,3.0625 L1.43600465,2.5625 L1.86457607,2.5625 L1.87886179,2.5375 L1.86457607,2.5125 Z" id="Shape"></path>
                <path d="M4.18861789,3.875 C4.17560976,3.875 4.17560976,3.875 4.18861789,3.875 C3.64227642,3.875 3.30406504,3.7625 2.91382114,3.425 C2.69268293,3.2375 2.51056911,3.025 2.3804878,2.8 C2.22439024,2.5375 2.19837398,2.5125 1.83414634,2.5125 L1.83414634,2.5625 C2.18536585,2.5625 2.19837398,2.575 2.34146341,2.825 C2.48455285,3.075 2.69268293,3.3 2.88780488,3.4625 C3.31707317,3.8125 3.66829268,3.925 4.20162602,3.925 L4.22764228,3.9 L4.18861789,3.875 Z" id="Shape"></path>
                <path d="M4.83902439,3.65254065 C4.83902439,3.70132114 4.83902439,3.75010163 4.81300813,3.78262195 C4.76097561,3.86392276 4.61788618,3.96148374 4.18861789,3.96148374 L4.18861789,4.02652439 C4.8,4.02652439 4.94308943,3.8476626 4.89105691,3.5875 L4.86504065,3.60376016 L4.83902439,3.65254065 Z" id="Shape"></path>
                <path d="M2.66666667,2.4 C2.66666667,2.4125 2.66666667,2.4375 2.6796748,2.45 C2.6796748,2.45 3.10894309,2.8375 3.3300813,3 C4.07154472,3.575 4.34471545,3.6375 4.82601626,3.65 L4.86504065,3.6 C4.37073171,3.6 4.11056911,3.55 3.35609756,2.9625 C3.13495935,2.7875 2.70569106,2.4125 2.70569106,2.4125 L2.69268293,2.4 L2.66666667,2.4 Z" id="Shape"></path>
                <path d="M1.61300813,2.2875 L1.70406504,2.2875 C2.22439024,2.2875 2.78373984,2.225 2.78373984,1.4 C2.78373984,0.7125 2.40650407,0.375 1.62601626,0.375 L1.61300813,0.375 L1.6,0.4 L1.61300813,0.425 L1.62601626,0.425 C2.27642276,0.425 2.73170732,0.6625 2.73170732,1.4 C2.73170732,2.15 2.27642276,2.2375 1.70406504,2.2375 L1.61300813,2.2375 L1.6,2.2625 L1.61300813,2.2875 Z" id="Shape"></path>
                <path d="M1.37886179,1.4125 L1.37886179,0.4375 C1.37886179,0.4125 1.41138211,0.3875 1.44390244,0.3875 L1.67154472,0.3875 L1.67154472,0.4375 L1.44390244,0.4375 L1.44390244,1.4125 L1.41138211,1.425 L1.37886179,1.4125 Z" id="Shape"></path>
                <path d="M1.37886179,1.4125 L1.37886179,2.25 C1.37886179,2.275 1.41138211,2.3 1.44390244,2.3 L1.67154472,2.3 L1.67154472,2.25 L1.44390244,2.25 L1.44390244,1.4125 L1.37886179,1.4125 Z" id="Shape"></path>
            </g>
        </g>
    </g>
</svg>