<?xml version="1.0" encoding="UTF-8"?>
<svg width="32px" height="32px" viewBox="0 0 32 32" version="1.1" xmlns="http://www.w3.org/2000/svg" xmlns:xlink="http://www.w3.org/1999/xlink">
    <!-- Generator: Sketch 49.1 (51147) - http://www.bohemiancoding.com/sketch -->
    <title>icons/underlying assets/otc stocks/ic-electronicarts</title>
    <desc>Created with Sketch.</desc>
    <defs></defs>
    <g id="icons/underlying-assets/otc-stocks/ic-electronicarts" stroke="none" stroke-width="1" fill="none" fill-rule="evenodd">
        <g id="Group" transform="translate(4.000000, 10.000000)" fill="#000000">
            <path d="M14.8298484,0.187055734 L5.20119624,0.203067372 L3.63224372,2.74761741 L13.2465664,2.74397805 L14.8298484,0.187055734 M10.6674668,9.44088879 C10.552835,9.44088879 4.96477693,9.45326417 4.57791457,9.45471805 C4.76418406,9.15630499 5.82447761,7.46478654 5.88179523,7.36944085 C6.00358237,7.36944085 9.64298471,7.36944085 9.83641883,7.36944085 L11.4268684,4.8139721 L2.33552168,4.82998716 L0.752243033,7.37672299 C0.752243033,7.37672299 0.795227808,7.37672299 0.852536254,7.37672299 C0.960003388,7.37672299 1.14627288,7.37672299 1.35403049,7.37525979 C1.88417726,7.37453751 2.60060271,7.37308021 2.83701591,7.37308021 C2.85134509,7.37308021 2.86567457,7.37308021 2.87283931,7.37308021 C2.72239015,7.61618212 1.09612337,10.2298729 0.358209818,11.418448 C0.207766776,11.6630035 0.0931349012,11.8500586 0.035826761,11.9424996 C0.0143325391,11.9788917 0,12 0,12 L12.1146229,11.9985458 C12.3295542,11.6542706 16.3558183,5.12549245 16.5420881,4.82634749 C16.7068667,5.08182167 17.7886576,6.82501192 17.967762,7.11687754 C17.6955224,7.11687754 16.7068667,7.11687754 16.7068667,7.11687754 L15.1307434,9.66215949 C15.1307434,9.66215949 15.1379081,9.66215949 15.1522376,9.66215949 C15.4746268,9.66215949 19.443583,9.66215949 19.5582054,9.66215949 C19.6226844,9.76478141 20.9265654,11.8566157 20.9982061,11.9665163 L24,11.9665163 L16.5349234,0 C16.2411929,0.467277574 10.7391046,9.3331702 10.6674668,9.44088879" id="path7103" fill-rule="nonzero"></path>
            <path d="M26.1972656,10.8154297 L25.7617188,10.8154297 L25.7617188,12 L25.46875,12 L25.46875,10.8154297 L25.0390625,10.8154297 L25.0390625,10.578125 L26.1972656,10.578125 L26.1972656,10.8154297 Z M26.7470703,10.578125 L27.1123047,11.609375 L27.4755859,10.578125 L27.8603516,10.578125 L27.8603516,12 L27.5664062,12 L27.5664062,11.6113281 L27.5957031,10.9404297 L27.2119141,12 L27.0107422,12 L26.6279297,10.9414062 L26.6572266,11.6113281 L26.6572266,12 L26.3642578,12 L26.3642578,10.578125 L26.7470703,10.578125 Z" id="TM"></path>
        </g>
    </g>
</svg>