<?xml version="1.0" encoding="UTF-8"?>
<svg width="32px" height="32px" viewBox="0 0 32 32" version="1.1" xmlns="http://www.w3.org/2000/svg" xmlns:xlink="http://www.w3.org/1999/xlink">
    <!-- Generator: Sketch 49.1 (51147) - http://www.bohemiancoding.com/sketch -->
    <title>icons/underlying assets/otc stocks/ic-exxonmobil</title>
    <desc>Created with Sketch.</desc>
    <defs></defs>
    <g id="icons/underlying-assets/otc-stocks/ic-exxonmobil" stroke="none" stroke-width="1" fill="none" fill-rule="evenodd">
        <g id="Exxon_Mobil_Logo" transform="translate(1.000000, 14.000000)" fill="#ED1B2D" fill-rule="nonzero">
            <path d="M11.7492,1.14 L12.57852,1.14 L12.57852,1.435125 C12.66756,1.354375 12.95508,1.067625 13.48608,1.067625 C14.11092,1.067625 14.60736,1.548125 14.60736,2.302625 L14.60736,4.261125 L13.73136,4.261125 L13.73136,2.545375 C13.73136,2.12475 13.53444,1.87525 13.17804,1.87525 C12.8328,1.87525 12.62508,2.1105 12.62508,2.545375 L12.62508,4.261125 L11.7492,4.261125 L11.7492,1.14 Z M20.09304,2.7005 C20.09304,1.800125 20.7852,1.067625 21.69168,1.067625 C22.59792,1.067625 23.28984,1.800125 23.28984,2.7005 C23.28984,3.600625 22.5978,4.33225 21.69168,4.33225 C20.7852,4.33225 20.09304,3.600625 20.09304,2.7005 Z M20.95776,2.7005 C20.95776,3.131625 21.267,3.486375 21.69684,3.486375 C22.1274,3.486375 22.43712,3.131625 22.43712,2.7005 C22.43712,2.269125 22.1274,1.914625 21.69684,1.914625 C21.26712,1.914625 20.95776,2.269125 20.95776,2.7005 Z M8.06256,2.701125 C8.06256,1.800375 8.75508,1.067875 9.66072,1.067875 C10.56744,1.067875 11.25972,1.800375 11.25972,2.701125 C11.25972,3.601 10.56744,4.332375 9.66072,4.332375 C8.75496,4.3325 8.06256,3.601 8.06256,2.701125 Z M8.92728,2.700875 C8.92728,3.13225 9.23652,3.487 9.66684,3.487 C10.0974,3.487 10.40664,3.13225 10.40664,2.700875 C10.40664,2.269125 10.0974,1.915 9.66684,1.915 C9.23652,1.915 8.92728,2.269125 8.92728,2.700875 Z M27.53916,0.79425 L28.42704,0.79425 L28.42704,0 L27.53916,0 L27.53916,0.79425 Z M27.53916,4.261125 L28.42704,4.261125 L28.42704,1.14 L27.53916,1.14 L27.53916,4.261125 Z M29.11176,4.261125 L30,4.261125 L30,0 L29.11176,0 L29.11176,4.261125 Z M24.64536,4.261125 L23.80332,4.261125 L23.80332,0 L24.65496,0 L24.65496,1.38775 C24.6972,1.355375 24.97308,1.067625 25.57584,1.067625 C26.36424,1.067625 27.0222,1.772875 27.0222,2.701125 C27.0222,3.627625 26.3214,4.332875 25.56576,4.332875 C24.99096,4.332875 24.71688,4.069875 24.65496,4.020875 L24.64536,4.261125 Z M26.12232,2.69875 C26.12232,2.259875 25.80288,1.919375 25.37508,1.919375 C24.9498,1.919375 24.62328,2.25675 24.62328,2.70125 C24.62328,3.140125 24.94536,3.480625 25.37412,3.480625 C25.79868,3.4805 26.12232,3.138875 26.12232,2.69875 Z M2.898,4.261125 L3.92508,4.261125 L4.84836,3.025125 L5.424,3.6325 L4.10676,5.3505 L5.13744,5.3505 L5.98092,4.211875 L7.56852,5.895 L8.8128,5.895 L6.531,3.504875 L8.328,1.14 L7.29672,1.14 L5.96868,2.91625 L5.394,2.3145 L6.87132,0.3765 L5.8428,0.3765 L4.83384,1.72875 L4.28592,1.14 L3.0588,1.14 L4.2948,2.439875 L2.898,4.261125 Z M0,0 L0,4.261125 L2.69412,4.261125 L2.69412,3.466 L0.91656,3.466 L0.91656,2.447875 L2.61432,2.447875 L2.61432,1.677125 L0.91656,1.677125 L0.91656,0.793875 L2.69412,0.793875 L2.69412,0 L0,0 Z M15.309,0 L15.309,4.261125 L16.17096,4.261125 L16.17096,1.04375 L16.21008,1.04375 L16.95168,4.26125 L17.91996,4.26125 L18.67896,1.04375 L18.7182,1.04375 L18.7182,4.26125 L19.58004,4.26125 L19.58004,0 L18.17256,0 L17.47176,3.109875 L17.44056,3.109875 L16.75716,0 L15.309,0 Z" id="Shape"></path>
        </g>
    </g>
</svg>