<?xml version="1.0" encoding="UTF-8"?>
<svg width="32px" height="32px" viewBox="0 0 32 32" version="1.1" xmlns="http://www.w3.org/2000/svg" xmlns:xlink="http://www.w3.org/1999/xlink">
    <!-- Generator: Sketch 49.1 (51147) - http://www.bohemiancoding.com/sketch -->
    <title>icons/underlying assets/otc stocks/ic-facebook</title>
    <desc>Created with Sketch.</desc>
    <defs></defs>
    <g id="icons/underlying-assets/otc-stocks/ic-facebook" stroke="none" stroke-width="1" fill="none" fill-rule="evenodd">
        <g id="facebook" transform="translate(1.000000, 11.000000)" fill-rule="nonzero">
            <rect id="Rectangle-path" fill="#3B5998" x="0" y="0" width="30" height="11"></rect>
            <g id="Group" transform="translate(2.593985, 3.080000)" fill="#FFFFFF">
                <path d="M13.6353383,1.628 C13.2631579,1.584 12.9473684,1.694 12.6766917,2.013 L12.6766917,1.914 L12.6766917,0.209 L12.6766917,0.187 L12.6766917,0.066 L11.6954887,0.187 L11.6954887,4.697 L12.6766917,4.697 L12.6766917,4.433 C12.8120301,4.521 12.9360902,4.631 13.093985,4.686 C13.6691729,4.884 14.424812,4.719 14.6842105,3.982 C14.8533835,3.498 14.8533835,3.014 14.7180451,2.53 C14.5714286,1.991 14.1992481,1.694 13.6353383,1.628 Z M13.7819549,3.586 C13.7368421,3.883 13.5,4.037 13.2067669,4.015 C13.1390977,4.004 13.0714286,3.993 13.0150376,3.971 C12.7781955,3.839 12.7105263,3.619 12.6879699,3.487 C12.6879699,3.487 12.6879699,3.487 12.6879699,3.487 C12.6766917,3.278 12.6541353,2.827 12.7556391,2.618 C12.8458647,2.453 13.0037594,2.365 13.2067669,2.365 C13.5,2.354 13.7255639,2.497 13.7706767,2.794 C13.8157895,3.058 13.8157895,3.333 13.7819549,3.586 Z" id="Shape"></path>
                <path d="M17.1090226,1.683 C16.7706767,1.595 16.4210526,1.595 16.0827068,1.683 C15.575188,1.815 15.2368421,2.134 15.1240602,2.629 C15.0676692,2.904 15.056391,3.19 15.0676692,3.476 C15.1015038,4.114 15.5075188,4.576 16.1390977,4.719 C16.1503759,4.719 16.1616541,4.719 16.1616541,4.73 C16.1616541,4.73 16.1616541,4.73 16.1616541,4.73 C16.1842105,4.73 16.2067669,4.741 16.2293233,4.741 C16.2406015,4.741 16.2406015,4.741 16.2518797,4.741 C16.2518797,4.741 16.2518797,4.741 16.2518797,4.741 C16.2857143,4.752 16.3195489,4.752 16.3533835,4.752 C16.4774436,4.763 16.6353383,4.774 16.7593985,4.763 C16.7593985,4.763 16.7593985,4.763 16.7593985,4.763 C16.7706767,4.763 16.7706767,4.763 16.7819549,4.763 C17.4360902,4.73 17.9210526,4.334 18.0676692,3.718 C18.1466165,3.377 18.1466165,3.047 18.0676692,2.706 C17.9774436,2.167 17.6503759,1.826 17.1090226,1.683 Z M17.1541353,3.542 C17.1541353,3.564 17.1428571,3.586 17.1428571,3.597 C17.075188,3.883 16.8721805,4.037 16.5902256,4.015 C16.2857143,4.004 16.0827068,3.828 16.0488722,3.531 C16.0263158,3.311 16.0263158,3.102 16.0488722,2.882 C16.0827068,2.541 16.2969925,2.354 16.6240602,2.365 C16.8947368,2.365 17.0864662,2.519 17.1541353,2.772 C17.2105263,3.036 17.1654135,3.476 17.1541353,3.542 Z" id="Shape"></path>
                <path d="M2.37969925,1.672 L1.68045113,1.672 L1.68045113,1.221 C1.73684211,0.792 2.45864662,0.869 2.45864662,0.869 L2.45864662,0.836 L2.45864662,0.132 C2.43609023,0.121 1.01503759,-0.198 0.733082707,0.858 C0.733082707,0.858 0.733082707,0.858 0.733082707,0.858 C0.733082707,0.858 0.733082707,0.858 0.733082707,0.869 C0.676691729,0.99 0.676691729,1.595 0.676691729,1.672 L0.0676691729,1.672 L0.0676691729,2.475 L0.710526316,2.475 L0.710526316,4.675 L1.64661654,4.675 L1.64661654,2.475 L2.36842105,2.475 L2.44736842,1.672 C2.45864662,1.672 2.37969925,1.672 2.37969925,1.672 Z" id="Shape"></path>
                <path d="M4.61278195,2.057 C4.60150376,2.046 4.59022556,2.035 4.57894737,2.024 C4.57894737,2.024 4.57894737,2.024 4.57894737,2.024 C4.56766917,2.013 4.55639098,2.002 4.55639098,2.002 C4.33082707,1.782 4.2518797,1.727 4.08270677,1.683 C3.41729323,1.496 2.76315789,1.837 2.56015038,2.486 C2.43609023,2.893 2.43609023,3.3 2.5037594,3.707 C2.66165414,4.587 3.33834586,4.884 4.04887218,4.741 C4.26315789,4.697 4.43233083,4.565 4.57894737,4.378 C4.57894737,4.378 4.59022556,4.367 4.61278195,4.334 L4.61278195,4.719 L5.52631579,4.719 L5.52631579,1.672 L4.61278195,1.672 L4.61278195,2.057 Z M4.53383459,3.586 C4.5,3.861 4.27443609,4.037 3.9924812,4.026 C3.71052632,4.015 3.53007519,3.872 3.46240602,3.608 C3.39473684,3.234 3.47368421,2.783 3.48496241,2.75 C3.56390977,2.497 3.7443609,2.376 4.02631579,2.376 C4.29699248,2.387 4.5,2.541 4.53383459,2.816 C4.55639098,3.069 4.55639098,3.333 4.53383459,3.586 Z" id="Shape"></path>
                <path d="M8.33458647,4.488 C8.28947368,4.334 8.2443609,4.191 8.19924812,4.037 L8.15413534,3.872 C8.15413534,3.872 7.0037594,4.411 6.82330827,3.388 C6.81203008,3.223 6.81203008,3.047 6.83458647,2.882 C6.87969925,2.563 7.07142857,2.398 7.38721805,2.376 C7.4887218,2.365 7.60150376,2.376 7.70300752,2.387 C7.84962406,2.409 7.98496241,2.453 8.14285714,2.486 C8.19924812,2.321 8.2556391,2.167 8.30075188,2.002 C8.31203008,1.98 8.31203008,1.958 8.32330827,1.936 L8.34586466,1.837 C8.33458647,1.826 8.32330827,1.815 8.30075188,1.793 C8.30075188,1.793 8.30075188,1.793 8.30075188,1.793 C8.27819549,1.771 8.23308271,1.749 8.15413534,1.727 C8.13157895,1.716 8.09774436,1.705 8.07518797,1.694 C8.05263158,1.683 8.03007519,1.683 8.03007519,1.683 C7.72556391,1.595 7.42105263,1.595 7.10526316,1.628 C6.43984962,1.694 5.9887218,2.079 5.86466165,2.706 C5.79699248,3.036 5.79699248,3.377 5.87593985,3.707 C5.9887218,4.202 6.29323308,4.532 6.80075188,4.675 C7.12781955,4.774 7.46616541,4.774 7.80451128,4.719 C7.93984962,4.697 8.14285714,4.631 8.28947368,4.576 L8.34586466,4.554 L8.33458647,4.488 Z" id="Shape"></path>
                <path d="M11.3571429,3.3 C11.3571429,3.091 11.3571429,2.882 11.3233083,2.673 C11.2443609,2.112 10.8834586,1.749 10.3195489,1.661 C10.1052632,1.628 9.86842105,1.628 9.65413534,1.65 C9.04511278,1.705 8.59398496,2.079 8.4924812,2.629 C8.43609023,2.97 8.42481203,3.322 8.46992481,3.663 C8.53759398,4.169 8.79699248,4.488 9.22556391,4.653 C9.22556391,4.653 9.22556391,4.653 9.22556391,4.653 C9.22556391,4.653 9.22556391,4.653 9.23684211,4.653 C9.23684211,4.653 9.23684211,4.653 9.23684211,4.653 C9.43984962,4.708 10.4097744,4.961 11.2781955,4.543 L11.2443609,4.422 C11.2443609,4.422 11.2443609,4.422 11.2443609,4.422 C11.1992481,4.257 11.1541353,4.092 11.1090226,3.927 L11.1090226,3.916 C11.1090226,3.916 11.0864662,3.927 11.0639098,3.927 C11.0639098,3.927 11.0639098,3.927 11.0639098,3.927 C11.0300752,3.938 10.9849624,3.949 10.9511278,3.96 C10.9398496,3.96 10.9398496,3.96 10.9285714,3.971 C10.7932331,4.004 10.612782,4.048 10.4097744,4.081 C10.2406015,4.092 10.0827068,4.103 9.91353383,4.081 C9.64285714,4.037 9.42857143,3.894 9.43984962,3.553 L9.59774436,3.553 C10.1390977,3.553 10.6691729,3.553 11.2105263,3.553 C11.2218045,3.553 11.2330827,3.553 11.2443609,3.553 C11.2443609,3.553 11.3571429,3.553 11.3684211,3.553 C11.3684211,3.553 11.3684211,3.52 11.3684211,3.52 L11.3571429,3.3 Z M10.4661654,2.893 L9.40601504,2.893 C9.40601504,2.684 9.43984962,2.497 9.62030075,2.376 C9.82330827,2.255 10.037594,2.244 10.2406015,2.354 C10.4548872,2.475 10.4774436,2.673 10.4661654,2.893 Z" id="Shape"></path>
                <polygon id="Shape" points="24.7443609 1.705 23.6954887 1.705 22.7932331 3.091 22.7932331 0.209 22.7932331 0.187 22.7932331 0.077 21.8120301 0.187 21.8120301 4.708 22.7932331 4.708 22.7932331 3.322 23.6954887 4.708 24.7443609 4.708 23.7631579 3.201"></polygon>
                <path d="M20.4586466,1.683 C20.1203008,1.595 19.7706767,1.595 19.4323308,1.683 C18.924812,1.815 18.5864662,2.134 18.4736842,2.629 C18.4172932,2.904 18.406015,3.19 18.4172932,3.476 C18.4511278,4.114 18.8571429,4.576 19.4887218,4.719 C19.5,4.719 19.5112782,4.719 19.5112782,4.73 C19.5112782,4.73 19.5112782,4.73 19.5112782,4.73 C19.5338346,4.73 19.556391,4.741 19.5789474,4.741 C19.5902256,4.741 19.5902256,4.741 19.6015038,4.741 C19.6015038,4.741 19.6015038,4.741 19.6015038,4.741 C19.6353383,4.752 19.6691729,4.752 19.7030075,4.752 C19.8270677,4.763 19.9849624,4.774 20.1090226,4.763 C20.1090226,4.763 20.1090226,4.763 20.1090226,4.763 C20.1203008,4.763 20.1203008,4.763 20.1315789,4.763 C20.7857143,4.73 21.2706767,4.334 21.4172932,3.718 C21.4962406,3.377 21.4962406,3.047 21.4172932,2.706 C21.3270677,2.167 21,1.826 20.4586466,1.683 Z M20.5037594,3.542 C20.5037594,3.564 20.4924812,3.586 20.4924812,3.597 C20.424812,3.883 20.2218045,4.037 19.9398496,4.015 C19.6353383,4.004 19.4323308,3.828 19.3984962,3.531 C19.3759398,3.311 19.3759398,3.102 19.3984962,2.882 C19.4323308,2.541 19.6466165,2.354 19.9736842,2.365 C20.2443609,2.365 20.4360902,2.519 20.5037594,2.772 C20.5488722,3.036 20.5037594,3.476 20.5037594,3.542 Z" id="Shape"></path>
            </g>
        </g>
    </g>
</svg>