<?xml version="1.0" encoding="UTF-8"?>
<svg width="32px" height="32px" viewBox="0 0 32 32" version="1.1" xmlns="http://www.w3.org/2000/svg" xmlns:xlink="http://www.w3.org/1999/xlink">
    <!-- Generator: Sketch 49.1 (51147) - http://www.bohemiancoding.com/sketch -->
    <title>icons/underlying assets/otc stocks/ic-goldmansachs</title>
    <desc>Created with Sketch.</desc>
    <defs></defs>
    <g id="icons/underlying-assets/otc-stocks/ic-goldmansachs" stroke="none" stroke-width="1" fill="none" fill-rule="evenodd">
        <g id="Goldman_Sachs" transform="translate(4.000000, 4.000000)">
            <g id="g8" transform="translate(0.248527, 0.248527)" fill="#64A8F0">
                <path d="M0.501472754,23.0014728 C0.501472754,23.0014728 23.0014728,23.0014728 23.0014728,23.0014728 C23.0014728,23.0014728 23.0014728,0.501472754 23.0014728,0.501472754 C23.0014728,0.501472754 0.501472754,0.501472754 0.501472754,0.501472754 C0.501472754,0.501472754 0.501472754,23.0014728 0.501472754,23.0014728 Z" id="path10"></path>
            </g>
            <g id="g12" transform="translate(18.627919, 2.166839)" fill="#FFFFFF">
                <path d="M0.758306333,3.07798675 C0.758306333,3.07798675 0,3.07798675 0,3.07798675 C0,3.07798675 0,0.089191458 0,0.089191458 C0,0.089191458 0.71377025,0.089191458 0.71377025,0.089191458 C0.71377025,0.089191458 0.71377025,0.423795287 0.71377025,0.423795287 C0.802974963,0.223025037 1.02605302,0.0445360825 1.31606775,0.0222680412 C1.80675994,-4.51028104e-17 2.14131075,0.289948454 2.14131075,0.914500736 C2.14131075,0.914500736 2.14131075,3.07798675 2.14131075,3.07798675 C2.14131075,3.07798675 1.36060383,3.07798675 1.36060383,3.07798675 C1.36060383,3.07798675 1.36060383,0.825322533 1.36060383,0.825322533 C1.36060383,0.557642121 1.36060383,0.334603829 1.1821944,0.289948454 C1.11525773,0.267693667 1.00378498,0.289948454 0.914447717,0.356739323 C0.802974963,0.468318115 0.758306333,0.602164948 0.758306333,0.825322533 C0.758306333,0.869845361 0.758306333,3.07798675 0.758306333,3.07798675 Z" id="path14"></path>
            </g>
            <g id="g16" transform="translate(4.642661, 2.189108)" fill="#FFFFFF">
                <path d="M1.85126951,0.267680412 C1.67289985,0.111578792 1.44974227,0 1.18206186,0 C0.914513991,0 0.713743741,0.111578792 0.512986745,0.267680412 C0.200637703,0.53537408 0,1.02607953 0,1.56132106 C0,2.11894993 0.200637703,2.58726804 0.512986745,2.855081 C0.713743741,3.01119588 0.914513991,3.12264212 1.18206186,3.12264212 C1.44974227,3.12264212 1.67289985,3.01119588 1.85126951,2.855081 C2.1858866,2.58726804 2.36425626,2.11894993 2.36425626,1.56132106 C2.36425626,1.02607953 2.1858866,0.53537408 1.85126951,0.267680412 Z M1.56132106,1.56132106 C1.56132106,2.11894993 1.56132106,2.56513255 1.47201031,2.78817084 C1.40521944,2.89961708 1.33817673,2.9665405 1.18206186,2.9665405 C1.04834757,2.9665405 0.959169367,2.89961708 0.914513991,2.78817084 C0.802935199,2.56513255 0.802935199,2.11894993 0.802935199,1.56132106 C0.802935199,1.02607953 0.802935199,0.557628866 0.914513991,0.334471281 C0.959169367,0.223025037 1.04834757,0.15610162 1.18206186,0.15610162 C1.33817673,0.15610162 1.40521944,0.223025037 1.47201031,0.334471281 C1.58372165,0.557628866 1.56132106,1.02607953 1.56132106,1.56132106 Z" id="path18"></path>
            </g>
            <g id="g20" transform="translate(12.516266, 6.382485)" fill="#FFFFFF">
                <path d="M1.76209131,0 C1.76209131,0 1.76209131,0.802921944 1.76209131,0.802921944 C1.76209131,0.802921944 1.60608247,0.802921944 1.60608247,0.802921944 C1.51687776,0.468450663 1.38300442,0.178502209 1.02618557,0.156114875 C0.803107511,0.133846834 0.602297496,0.267680412 0.579896907,0.468450663 C0.557628866,0.669088365 0.624565538,0.84757732 1.02618557,1.07061561 C1.5391458,1.36056406 1.94063328,1.49439764 1.94063328,2.09669514 C1.94063328,2.74351546 1.38300442,3.05585125 0.914580265,3.05585125 C0.71377025,3.05585125 0.0222680412,3.05585125 0.0222680412,3.05585125 C0.0222680412,3.05585125 0.0222680412,1.94046097 0.0222680412,1.94046097 C0.0222680412,1.94046097 0.178541973,1.94046097 0.178541973,1.94046097 C0.290147275,2.52047717 0.468556701,2.87734904 0.892312224,2.89961708 C1.15992636,2.89961708 1.36060383,2.74351546 1.36060383,2.45356701 C1.36060383,2.16361856 1.1821944,1.98511635 0.758438881,1.73969072 C0.290147275,1.44974227 0,1.27137261 0,0.869845361 C0,0.334484536 0.379351988,0 0.981516937,0 C1.1821944,0 1.76209131,0 1.76209131,0 Z" id="path22"></path>
            </g>
            <g id="g24" transform="translate(11.802628, 2.166839)" fill="#FFFFFF">
                <path d="M3.45724595,3.07798675 C3.45724595,3.07798675 3.45724595,0.914500736 3.45724595,0.914500736 C3.45724595,0.289948454 3.12256259,-3.81639165e-17 2.6318704,0.0222680412 C2.29731959,0.0445360825 2.09664212,0.267693667 2.00730486,0.446063328 C1.89583211,0.133846834 1.65048601,-3.81639165e-17 1.29353461,0.0222680412 C1.00378498,0.0445360825 0.780574374,0.223025037 0.691369661,0.423795287 C0.691369661,0.423795287 0.691369661,0.089191458 0.691369661,0.089191458 C0.691369661,0.089191458 0,0.089191458 0,0.089191458 C0,0.089191458 0,3.07798675 0,3.07798675 C0,3.07798675 0.758306333,3.07798675 0.758306333,3.07798675 C0.758306333,3.07798675 0.758306333,0.89224595 0.758306333,0.825322533 C0.758306333,0.602164948 0.780574374,0.468318115 0.914447717,0.356739323 C1.00378498,0.289948454 1.09298969,0.267693667 1.15979381,0.289948454 C1.33820324,0.334603829 1.33820324,0.557642121 1.33820324,0.825322533 C1.33820324,0.825322533 1.33820324,3.07798675 1.33820324,3.07798675 C1.33820324,3.07798675 2.09664212,3.07798675 2.09664212,3.07798675 C2.09664212,3.07798675 2.09664212,0.803054492 2.09664212,0.803054492 C2.09664212,0.602164948 2.1411782,0.468318115 2.25278351,0.356739323 C2.34198822,0.289948454 2.43119293,0.267693667 2.4981296,0.289948454 C2.67653903,0.334603829 2.69880707,0.557642121 2.69880707,0.825322533 C2.69880707,0.825322533 2.69880707,3.07798675 2.69880707,3.07798675 C2.69880707,3.07798675 3.45724595,3.07798675 3.45724595,3.07798675 Z" id="path26"></path>
            </g>
            <g id="g28" transform="translate(7.520024, 1.631479)" fill="#FFFFFF">
                <path d="M0,0 C0,0 0.780653903,0 0.780653903,0 C0.780653903,0 0.780653903,3.61334757 0.780653903,3.61334757 C0.780653903,3.61334757 0,3.61334757 0,3.61334757 C0,3.61334757 0,0 0,0 Z" id="path30"></path>
            </g>
            <g id="g32" transform="translate(8.791396, 1.631479)" fill="#FFFFFF">
                <path d="M2.27518409,3.61334757 C2.27518409,3.61334757 2.27518409,0 2.27518409,0 C2.27518409,0 1.49439764,0 1.49439764,0 C1.49439764,0 1.49439764,0.84757732 1.49439764,0.84757732 C1.42760677,0.6914757 1.27135935,0.579896907 1.04833432,0.579896907 C0.490705449,0.579896907 0.0445228277,1.15979381 0.0222547865,2.05202651 C1.04083409e-17,2.65432401 0.200756996,3.65800295 0.981410898,3.65800295 C1.29362739,3.65800295 1.4721296,3.47963328 1.53905302,3.32339912 C1.53905302,3.32339912 1.53905302,3.61334757 1.53905302,3.61334757 C1.53905302,3.61334757 2.27518409,3.61334757 2.27518409,3.61334757 Z M1.36055081,0.869964654 C1.51678498,1.09300295 1.51678498,1.62823122 1.51678498,2.05202651 C1.51678498,2.49807658 1.53905302,3.07810604 1.36055081,3.32339912 C1.29362739,3.41270987 1.22683652,3.45724595 1.11525773,3.45724595 C0.959156112,3.45724595 0.869845361,3.27887629 0.825309278,2.98892784 C0.802921944,2.72123417 0.802921944,2.38663034 0.802921944,2.02975847 C0.802921944,1.42760677 0.84757732,0.758385862 1.13752577,0.758385862 C1.24910457,0.758385862 1.29362739,0.803054492 1.36055081,0.869964654 Z" id="path34"></path>
            </g>
            <g id="g36" transform="translate(15.772838, 2.189108)" fill="#FFFFFF">
                <path d="M1.80675994,0.15610162 C2.00743741,0.267680412 2.14131075,0.446050074 2.14131075,0.84757732 C2.14131075,0.84757732 2.14131075,3.0557187 2.14131075,3.0557187 C2.14131075,3.0557187 1.40527246,3.0557187 1.40527246,3.0557187 C1.40527246,3.0557187 1.40527246,2.72124742 1.40527246,2.72124742 C1.31606775,2.9665405 1.07072165,3.12264212 0.736038292,3.12264212 C0.468424153,3.12264212 0,2.98892784 0,2.29745214 C0,1.65049926 0.423888071,1.51679823 0.892312224,1.31602798 C1.31606775,1.13765832 1.36060383,1.11513844 1.36060383,0.936768778 C1.36060383,0.780786451 1.36060383,0.646820324 1.36060383,0.446050074 C1.36060383,0.245425626 1.24926362,0.15610162 1.02605302,0.15610162 C0.936848306,0.178369661 0.780706922,0.223025037 0.780706922,0.334471281 C0.758306333,0.468450663 0.914447717,0.468450663 0.936848306,0.669207658 C0.959116348,0.981424153 0.71377025,1.0928704 0.490824742,1.07060236 C0.33455081,1.07060236 0.156141384,0.981424153 0.133873343,0.736131075 C0.111605302,0.334471281 0.557628866,0 1.1821944,0 C1.47220913,0 1.65061856,0.0669234168 1.80675994,0.15610162 Z M1.36060383,1.27137261 C1.36060383,1.27137261 1.11525773,1.42747423 1.11525773,1.42747423 C0.869911635,1.58370839 0.825243004,1.7843461 0.802974963,2.00750368 C0.780706922,2.18587334 0.780706922,2.34210751 0.802974963,2.60966863 C0.825243004,2.855081 0.981516937,2.89961708 1.11525773,2.855081 C1.27153166,2.78817084 1.36060383,2.49822239 1.36060383,2.18587334 C1.36060383,2.18587334 1.36060383,1.3829514 1.36060383,1.27137261 Z" id="path38"></path>
            </g>
            <g id="g40" transform="translate(4.731720, 6.382485)" fill="#FFFFFF">
                <path d="M1.80687923,0.133846834 C2.00763623,0.267680412 2.11908247,0.423795287 2.11908247,0.825189985 C2.11908247,0.825189985 2.11908247,3.05585125 2.11908247,3.05585125 C2.11908247,3.05585125 1.40535199,3.05585125 1.40535199,3.05585125 C1.40535199,3.05585125 1.40535199,2.72124742 1.40535199,2.72124742 C1.31616053,2.94427246 1.07086745,3.10037408 0.736131075,3.10037408 C0.446182622,3.10037408 0,2.98879529 0,2.29745214 C0,1.65063181 0.423927835,1.51679823 0.870110457,1.31602798 C1.31616053,1.11527099 1.36068336,1.09300295 1.36068336,0.936768778 C1.36068336,0.780667158 1.36068336,0.646820324 1.36068336,0.446063328 C1.36068336,0.223025037 1.24911782,0.133846834 1.02621208,0.156114875 C0.936901325,0.156114875 0.780786451,0.20077025 0.780786451,0.312216495 C0.758531664,0.468450663 0.914633284,0.468450663 0.936901325,0.669088365 C0.95928866,0.959156112 0.713876289,1.07061561 0.490837997,1.07061561 C0.334736377,1.04834757 0.156234168,0.959156112 0.133846834,0.713743741 C0.111578792,0.334484536 0.557761414,0 1.1823137,0 C1.47226215,0 1.65063181,0.0446553756 1.80687923,0.133846834 Z M1.36068336,1.24910457 C1.36068336,1.24910457 1.11540353,1.40521944 1.11540353,1.40521944 C0.870110457,1.56132106 0.825455081,1.76209131 0.803054492,1.98511635 C0.780786451,2.16361856 0.780786451,2.34198822 0.803054492,2.58740059 C0.803054492,2.85509426 0.95928866,2.89961708 1.09300295,2.83269367 C1.27150515,2.76577025 1.36068336,2.49822239 1.36068336,2.16361856 C1.36068336,2.16361856 1.36068336,1.36056406 1.36068336,1.24910457 Z" id="path42"></path>
            </g>
            <g id="g44" transform="translate(7.363909, 5.802588)" fill="#FFFFFF">
                <path d="M4.57246392,1.47214286 C4.57246392,0.84757732 4.23791311,0.535241532 3.7471944,0.579896907 C3.50190133,0.602164948 3.30114433,0.713743741 3.18956554,0.869845361 C3.18956554,0.869845361 3.18956554,0 3.18956554,0 C3.18956554,0 2.43116642,0 2.43116642,0 C2.43116642,0 2.43116642,2.05203976 2.43116642,2.05203976 C2.43116642,2.81042563 1.89592489,3.52416937 1.36056406,3.50178203 C0.981291605,3.50178203 0.892113402,3.21183358 0.847590574,2.89961708 C0.780667158,2.45343446 0.780667158,1.94046097 0.825189985,1.38281885 C0.869845361,1.02596024 0.959036819,0.736011782 1.22671723,0.736011782 C1.42748748,0.736011782 1.44974227,0.869845361 1.36056406,0.959036819 C1.27124006,1.07061561 1.13753903,1.18206186 1.20444919,1.42747423 C1.27124006,1.69516789 1.69503535,1.73969072 1.89592489,1.53905302 C2.05203976,1.36056406 2.02977172,1.07061561 1.91819293,0.892113402 C1.7843461,0.669088365 1.56132106,0.579896907 1.22671723,0.579896907 C0.802921944,0.579896907 0,0.959036819 0,2.16361856 C0,3.45724595 0.825189985,3.68027099 1.29364065,3.68027099 C1.82900147,3.68027099 2.29733284,3.21183358 2.43116642,2.83269367 C2.43116642,2.83269367 2.43116642,3.63574816 2.43116642,3.63574816 C2.43116642,3.63574816 3.18956554,3.63574816 3.18956554,3.63574816 C3.18956554,3.63574816 3.18956554,1.38281885 3.18956554,1.38281885 C3.18956554,1.15979381 3.23422091,1.02596024 3.34566716,0.914381443 C3.43499116,0.84757732 3.54643741,0.825189985 3.61336082,0.84757732 C3.79184978,0.892113402 3.79184978,1.11513844 3.79184978,1.38281885 C3.79184978,1.38281885 3.79184978,3.63574816 3.79184978,3.63574816 C3.79184978,3.63574816 4.57246392,3.63574816 4.57246392,3.63574816 C4.57246392,3.63574816 4.57246392,1.47214286 4.57246392,1.47214286 Z" id="path46"></path>
            </g>
            <g id="g48" transform="translate(1.430708, 1.564555)" fill="#FFFFFF">
                <path d="M2.69886009,0 C2.69886009,0 2.69886009,1.27137261 2.69886009,1.27137261 C2.69886009,1.27137261 2.54274521,1.27137261 2.54274521,1.27137261 C2.40891163,0.646820324 2.11896318,0.178369661 1.71743594,0.15610162 C1.44974227,0.133833579 1.2937732,0.289948454 1.15979381,0.513106038 C1.02607953,0.780653903 0.959036819,1.33829602 0.959036819,2.00750368 C0.959036819,2.63205596 0.981424153,3.10037408 1.04834757,3.43497791 C1.0928704,3.59109278 1.20444919,3.83650515 1.49439764,3.83650515 C1.65051252,3.83650515 1.76209131,3.79184978 1.82901473,3.70267158 C1.94059352,3.56882474 1.96284831,3.30114433 1.96284831,3.12277467 C1.96284831,2.83282622 1.96284831,2.74350221 1.96284831,2.52047717 C1.96284831,2.29745214 1.89592489,2.1636053 1.7843461,2.09668189 C1.69516789,2.05202651 1.56132106,2.05202651 1.49439764,2.02977172 C1.49439764,2.02977172 1.49439764,1.87365685 1.49439764,1.87365685 C1.49439764,1.87365685 2.74351546,1.87365685 2.74351546,1.87365685 C2.74351546,1.87365685 2.74351546,5.06322239 2.74351546,5.06322239 C2.74351546,5.06322239 2.5872813,5.06322239 2.5872813,5.06322239 C2.52049043,4.81792931 2.4758218,4.6394271 2.36437555,4.4386701 C2.25279676,4.2380324 2.05203976,4.01500736 1.71743594,4.01500736 C1.36056406,3.99262003 1.0928704,4.21576436 1.0928704,4.5502489 C1.0928704,4.99643152 1.36056406,5.10787776 1.85126951,5.37543888 C2.31972018,5.64311929 2.92188513,5.86627688 2.92188513,6.64693078 C2.92188513,7.4053299 2.2750648,7.87378056 1.53906627,7.87378056 C1.38281885,7.87378056 0.35687187,7.87378056 0.35687187,7.87378056 C0.35687187,7.87378056 0.35687187,6.33472754 0.35687187,6.33472754 C0.35687187,6.33472754 0.51297349,6.33472754 0.51297349,6.33472754 C0.713743741,7.49452135 1.20444919,7.69527835 1.53906627,7.69527835 C1.96284831,7.69527835 2.16348601,7.42759794 2.16348601,7.04845803 C2.14121797,6.55762003 1.80674669,6.37925037 1.33829602,6.13395729 C0.669220913,5.75469809 0.35687187,5.57619588 0.35687187,4.95177614 C0.379139912,4.41640206 0.803054492,4.08179823 1.27137261,3.94808395 C0.289948454,3.83650515 2.77555756e-17,2.94440501 0.0222680412,1.98510309 C0.0222680412,1.02607953 0.579896907,0 1.6727673,0 C2.16348601,0 2.69886009,0 2.69886009,0 Z" id="path50"></path>
            </g>
        </g>
    </g>
</svg>