<?xml version="1.0" encoding="UTF-8"?>
<svg width="32px" height="32px" viewBox="0 0 32 32" version="1.1" xmlns="http://www.w3.org/2000/svg" xmlns:xlink="http://www.w3.org/1999/xlink">
    <!-- Generator: Sketch 49.1 (51147) - http://www.bohemiancoding.com/sketch -->
    <title>icons/underlying assets/otc stocks/ic-ibm</title>
    <desc>Created with Sketch.</desc>
    <defs></defs>
    <g id="icons/underlying-assets/otc-stocks/ic-ibm" stroke="none" stroke-width="1" fill="none" fill-rule="evenodd">
        <g id="IBM_logo" transform="translate(1.000000, 10.000000)" fill="#1F70C1" fill-rule="nonzero">
            <path d="M0,0 L0,0.82101 L5.8394532,0.82101 L5.8394532,0 L0,0 Z M6.6667971,0 L6.6667971,0.82101 L14.9882811,0.82101 C14.9882811,0.82101 14.1382875,0 13.0125,0 L6.6667971,0 Z M16.6207032,0 L16.6207032,0.82101 L21.6550782,0.82101 L21.35625,0 L16.6207032,0 Z M25.2644532,0 L24.965625,0.82101 L29.9542968,0.82101 L29.9542968,0 L25.2644532,0 Z M0,1.5966663 L0,2.41767606 L5.8394532,2.41767606 L5.8394532,1.5966663 L0,1.5966663 Z M6.6667971,1.59782925 L6.6667971,2.41767606 L15.9539064,2.41767606 C15.9539064,2.41767606 15.8454375,1.78579158 15.65625,1.59782925 L6.6667971,1.59782925 Z M16.6207032,1.59782925 L16.6207032,2.41767606 L22.2070314,2.41767606 L21.9304686,1.59782925 L16.6207032,1.59782925 Z M24.6667968,1.59782925 L24.3902343,2.41767606 L29.9542968,2.41767606 L29.9542968,1.59782925 L24.6667968,1.59782925 Z M1.67812488,3.1933326 L1.67812488,4.0155051 L4.2070311,4.0155051 L4.2070311,3.1933326 L1.67812488,3.1933326 Z M8.3449221,3.1933326 L8.3449221,4.0155051 L10.8738279,4.0155051 L10.8738279,3.1933326 L8.3449221,3.1933326 Z M13.3335939,3.1933326 L13.3335939,4.0155051 L15.8625,4.0155051 C15.8625003,4.0155051 16.0230468,3.5813145 16.0230468,3.1933326 L13.3335939,3.1933326 Z M18.2988282,3.1933326 L18.2988282,4.0155051 L22.7824221,4.0155051 L22.4835939,3.1933326 L18.2988282,3.1933326 Z M24.1160157,3.1933326 L23.8160157,4.0155051 L28.321875,4.0155051 L28.321875,3.1933326 L24.1160157,3.1933326 Z M1.67812488,4.791162 L1.67812488,5.6121714 L4.2070311,5.6121714 L4.2070311,4.791162 L1.67812488,4.791162 Z M8.3449221,4.791162 L8.3449221,5.6121714 L14.8042971,5.6121714 C14.8042974,5.6121711 15.3446343,5.190903 15.5167968,4.791162 L8.3449221,4.791162 Z M18.2988282,4.791162 L18.2988282,5.6121714 L20.8277343,5.6121714 L20.8277343,5.1551505 L20.9882811,5.6121714 L25.6207032,5.6121714 L25.7929689,5.1551505 L25.7929689,5.6121714 L28.321875,5.6121714 L28.321875,4.791162 L23.5746093,4.791162 L23.3226561,5.4865779 L23.0695314,4.791162 L18.2988282,4.791162 Z M1.67812488,6.3878283 L1.67812488,7.2088377 L4.2070311,7.2088377 L4.2070311,6.3878283 L1.67812488,6.3878283 Z M8.3449221,6.3878283 L8.3449221,7.2088377 L15.5167968,7.2088377 C15.3445971,6.8103993 14.8042971,6.3878283 14.8042971,6.3878283 L8.3449221,6.3878283 Z M18.2988282,6.3878283 L18.2988282,7.2088377 L20.8277343,7.2088377 L20.8277343,6.3878283 L18.2988282,6.3878283 Z M21.2871093,6.3878283 L21.5929689,7.2088377 L25.0664064,7.2088377 L25.3570314,6.3878283 L21.2871093,6.3878283 Z M25.7929689,6.3878283 L25.7929689,7.2088377 L28.321875,7.2088377 L28.321875,6.3878283 L25.7929689,6.3878283 Z M1.67812488,7.9844946 L1.67812488,8.805504 L4.2070311,8.805504 L4.2070311,7.9844946 L1.67812488,7.9844946 Z M8.3449221,7.9844946 L8.3449221,8.805504 L10.8738279,8.805504 L10.8738279,7.9844946 L8.3449221,7.9844946 Z M13.3335939,7.9844946 L13.3335939,8.805504 L16.0230468,8.805504 C16.0230474,8.4180441 15.8625,7.9844946 15.8625,7.9844946 L13.3335939,7.9844946 Z M18.2988282,7.9844946 L18.2988282,8.805504 L20.8277343,8.805504 L20.8277343,7.9844946 L18.2988282,7.9844946 Z M21.8613279,7.9844946 L22.1578125,8.805504 L24.4863279,8.805504 L24.7851561,7.9844946 L21.8613279,7.9844946 Z M25.7929689,7.9844946 L25.7929689,8.805504 L28.321875,8.805504 L28.321875,7.9844946 L25.7929689,7.9844946 Z M0.0457029,9.5811609 L0.0457029,10.4033334 L5.8851561,10.4033334 L5.8851561,9.5811609 L0.0457029,9.5811609 Z M6.6667971,9.5811609 L6.6667971,10.4033334 L15.65625,10.4033334 C15.8454375,10.2150735 15.9539064,9.5811609 15.9539064,9.5811609 L6.6667971,9.5811609 Z M16.6664061,9.5811609 L16.6664061,10.4033334 L20.8277343,10.4033334 L20.8277343,9.5811609 L16.6664061,9.5811609 Z M22.4367186,9.5811609 L22.7414061,10.4033334 L23.9261718,10.4033334 L24.2121093,9.5811609 L22.4367186,9.5811609 Z M25.7929689,9.5811609 L25.7929689,10.4033334 L30,10.4033334 L30,9.5811609 L25.7929689,9.5811609 Z M0.0457029,11.17899 L0.0457029,12 L5.8851561,12 L5.8851561,11.17899 L0.0457029,11.17899 Z M6.6667971,11.17899 L6.6667971,11.9988372 L13.0125,11.9988372 C14.1382872,11.9988366 14.9882811,11.17899 14.9882811,11.17899 L6.6667971,11.17899 Z M16.6664061,11.17899 L16.6664061,12 L20.8277343,12 L20.8277343,11.17899 L16.6664061,11.17899 Z M23.0144532,11.17899 L23.3074221,11.9976738 L23.3578125,11.9988372 L23.6554689,11.17899 L23.0144532,11.17899 Z M25.7929689,11.17899 L25.7929689,12 L30,12 L30,11.17899 L25.7929689,11.17899 Z" id="Shape"></path>
        </g>
    </g>
</svg>