<?xml version="1.0" encoding="UTF-8"?>
<svg width="32px" height="32px" viewBox="0 0 32 32" version="1.1" xmlns="http://www.w3.org/2000/svg" xmlns:xlink="http://www.w3.org/1999/xlink">
    <!-- Generator: Sketch 49.1 (51147) - http://www.bohemiancoding.com/sketch -->
    <title>icons/underlying assets/otc stocks/ic-johnson-and-johnson</title>
    <desc>Created with Sketch.</desc>
    <defs></defs>
    <g id="icons/underlying-assets/otc-stocks/ic-johnson-and-johnson" stroke="none" stroke-width="1" fill="none" fill-rule="evenodd">
        <g id="Johnson&amp;Johnson_Logo" transform="translate(1.000000, 13.000000)" fill="#EC1B24" fill-rule="nonzero">
            <path d="M12.0049797,2.32612157 C11.9944019,2.16715388 11.9048123,2.16692047 11.7901812,2.26542926 C11.3236681,2.66623355 11.0950534,2.59130146 10.8729147,2.50796575 C10.6507763,2.42463036 10.557733,1.90921025 10.9517102,1.91668025 C11.3459037,1.92438333 11.5609187,2.37140773 11.5464547,2.80372553 C11.5322068,3.23581025 11.2956044,3.77387344 10.7153239,3.78904652 C10.1350437,3.80421926 9.89131716,3.19776036 9.88419308,2.86418476 C9.8770693,2.53060882 10.0130723,2.35623432 10.0560318,2.31094882 C10.0992077,2.26542926 10.1134556,2.2273797 10.0631559,2.23508278 C9.65471473,2.31841816 8.98851473,3.12959838 8.98117509,3.3796052 C8.97620985,3.56144937 9.13509643,3.60650212 9.15322997,3.35696212 C9.16769338,3.15994421 8.94533912,2.68981058 8.81645985,2.58383179 C8.75212845,2.72786014 8.46544216,3.24327992 8.20746777,3.59202926 C8.13838668,3.68540212 7.96374155,3.80421926 7.83486229,3.75123036 C7.70576716,3.69800773 7.62697174,3.59202926 7.61272357,3.43282751 L7.61272357,2.31094882 C7.5553004,2.23508278 7.07540345,3.28109608 6.93918424,3.53133663 C6.80296503,3.78157685 6.53052662,3.9108986 6.52361838,3.47834707 C6.5164943,3.03108926 6.53074247,2.47761992 6.50203058,2.3791108 C6.44007387,2.16598652 5.97183424,3.23581025 5.71385985,3.58455926 C5.6449946,3.67769904 5.52043271,3.80421926 5.39155375,3.75123036 C5.26245863,3.69800773 5.21237509,3.59202926 5.19791107,3.43282751 C5.1836632,3.27362641 5.16207509,2.37140773 5.16207509,2.37140773 C5.07615588,2.25025619 4.56754704,3.44029751 4.4742879,3.62237509 C4.37800619,3.81005542 4.35965649,3.77387344 4.25927296,3.7131808 C4.15888973,3.65272157 4.15888973,3.63754816 4.15176564,3.47064366 C4.14464155,3.30397256 4.14140375,2.7731463 4.14464155,2.59130146 C4.15176564,2.18209355 4.15176564,1.80299838 4.14464155,1.42390322 C4.13751777,1.04504113 4.2450254,0.61272333 4.44557601,0.332370033 C4.64634247,0.0517836593 5.15495131,0.0216709121 5.11199125,0.734108604 C5.06233973,1.5588274 4.33806869,2.29577509 3.98705101,2.47761992 C3.91494735,2.51496926 3.52377631,2.70451685 3.16304399,2.58383179 C2.59701198,2.39428421 2.91780649,1.56536344 3.40655436,2.0455352 C3.60710497,2.24255278 3.67899277,2.51543608 3.67165284,2.79602245 C3.66452875,3.07660882 3.49981412,3.75870036 2.8834818,3.78904652 C2.26736564,3.819393 2.08818698,3.19029102 2.0810632,2.97039663 C2.07652936,2.83407201 2.07393912,2.6519941 2.10243515,2.58383179 C2.16784613,2.42813179 2.08818698,2.48532267 2.04522723,2.51543608 C1.73306747,2.73579696 1.50790649,3.03108926 1.29289216,3.29626948 C0.674833018,4.05936201 0.569052835,4.76713091 0.547680884,5.0248408 C0.526093384,5.28255102 0.569052835,5.54773091 0.748231799,5.55543432 C1.04894979,5.56803959 1.22122052,4.94127168 1.23546869,4.4258519 C1.25338637,3.78157685 0.984618384,2.80372553 0.963246433,2.0455352 C0.941658323,1.28757827 1.25705619,0.544561022 1.31426412,0.408235747 C1.3716879,0.271677725 1.34297601,0.233861571 1.19250893,0.302024209 C0.840195823,0.461692121 0.454421738,1.18906915 0.468885457,1.94702641 C0.483133323,2.70498366 0.662311982,3.0992519 0.984618384,3.50099014 L0.862862591,3.7057108 L0.805655274,3.64501816 C0.346914421,3.15994421 0.0593644207,2.85671509 0.0533199085,1.94702641 C0.0459802744,0.878136626 0.901721128,0.173635747 1.41464735,0.0594870659 C1.5506504,0.0291409121 1.55799034,0.13535311 1.51503058,0.294320802 C1.47185527,0.453521901 1.37881137,1.03733773 1.42177143,1.6664397 C1.46473119,2.29577509 1.55237753,2.91740773 1.57957814,3.69053773 C1.62858271,5.09557091 0.966700091,5.93452948 0.626476616,5.93452948 C0.32554247,5.93452948 0.275458933,5.5857808 0.275458933,5.25967454 C0.275458933,4.93380234 0.483133323,3.98629751 1.19250893,3.07660882 C1.90188424,2.16692047 2.45366869,1.95472981 2.62572326,1.91668025 C2.79756229,1.87886377 2.83339826,1.92438333 2.69717936,2.08358509 C2.56096015,2.24255278 2.47504064,2.43980377 2.49662814,2.75797256 C2.5180007,3.07660882 2.68293119,3.39477827 2.98386534,3.3796052 C3.28479918,3.36466553 3.45361595,2.94028421 3.45685405,2.79602245 C3.46397814,2.47014992 3.34826747,2.3891486 3.24183973,2.25772586 C3.15591991,2.15174707 3.03351716,2.28620476 3.19887997,2.34129465 C3.44951442,2.42463036 3.74332418,2.40175388 3.9654629,2.25772586 C4.18760162,2.11369751 4.86114095,1.59080773 4.86114095,0.756751681 C4.86114095,0.34754311 4.81818149,0.362716516 4.76809765,0.362716516 C4.71779826,0.362716516 4.55308302,0.499041462 4.5386193,1.37838366 C4.52437143,2.25772586 4.54595924,2.76567597 4.54595924,2.84154168 C4.54595924,2.91740773 4.5386193,3.07660882 4.64634247,2.84154168 C4.75363363,2.60647487 5.08306381,1.85598729 5.36284216,1.85598729 C5.5491446,1.85598729 5.62794003,2.03036212 5.62794003,2.15174707 C5.62794003,2.30324509 5.62060009,3.09178223 5.62060009,3.19029102 C5.62060009,3.27362641 5.66377601,3.27362641 5.71385985,3.20546377 C5.76394338,3.13706805 6.30147997,2.25025619 6.43035924,2.00771904 C6.4841129,1.90664278 6.54175253,1.84034773 6.68833393,1.83264432 C6.9750196,1.81747124 6.96767997,2.28807234 6.96767997,2.59900487 C6.96767997,2.75797256 6.9750196,2.8338386 6.9750196,2.9400508 C6.9750196,3.01568278 6.99660771,3.03108926 7.05381503,2.90970432 C7.1183629,2.77337937 7.4335446,2.09852476 7.54105223,1.96966948 C7.64855954,1.84081454 7.68525863,1.78829212 7.79989034,1.78829212 C7.91452143,1.78829212 8.09996046,1.78782531 8.09283668,2.39428421 C8.08571259,3.00074311 8.09283668,3.28879948 8.09283668,3.28879948 C8.09283668,3.33431904 8.12154826,3.35696212 8.1716318,3.27362641 C8.22171564,3.19029102 8.84517174,2.0532386 8.89525558,1.87886377 C8.94533912,1.70448959 9.04572265,1.79529498 9.05284674,1.91668025 C9.05997082,2.03806553 9.51158759,2.71268707 9.48999979,3.13706805 C9.46862784,3.56168278 9.24648912,3.75870036 9.05284674,3.75123036 C8.8594196,3.74376036 8.7735004,3.56915278 8.7735004,3.40248168 C8.7735004,3.23581025 8.95267905,2.91740773 9.16035405,2.70498366 C9.3682446,2.492793 9.87016107,1.87372849 10.5862287,1.84081454 C10.7511595,1.83334487 10.7224477,1.96966948 10.6078166,2.08358509 C10.4931852,2.19726663 10.36409,2.51543608 10.37143,2.73532948 C10.3785541,2.95522388 10.5074333,3.34178904 10.8370791,3.34178904 C11.1667251,3.34178904 11.3100678,3.06143575 11.3171919,2.75050322 C11.3243159,2.43980377 11.1809727,2.26542926 11.1164254,2.2124397 C10.9616409,2.08475179 10.8273647,2.2817697 11.0520934,2.34129465 C11.2526446,2.39428421 11.5609187,2.23508278 11.7543452,2.06841135 C11.9477717,1.90150685 11.9978556,1.85598729 12.1770342,1.86345762 C12.3562132,1.87116102 12.4563806,2.08358509 12.4563806,2.40175388 C12.4563806,2.51543608 12.4563806,2.76567597 12.4563806,2.8263686 C12.4563806,2.88706124 12.5138044,2.94775355 12.5854757,2.78084904 C12.6200163,2.70031487 12.8289864,2.18956322 13.0152891,1.97737289 C13.2015919,1.76494882 13.2661397,1.79529498 13.3378111,1.79529498 C13.4094827,1.79529498 13.596433,1.85598729 13.596433,2.26542926 C13.596433,2.67487058 13.596433,3.10695531 13.596433,3.22063685 C13.596433,3.33431904 13.6525614,3.34178904 13.7108483,3.26615641 C13.7669769,3.19029102 13.83174,3.11442498 13.90298,3.02338619 C13.9763784,2.9325808 14.1555571,2.94775355 14.0195544,3.15994421 C13.8813922,3.3721352 13.7173248,3.82709575 13.4381943,3.819393 C13.1586324,3.811923 13.1085486,3.48581707 13.1014245,3.36466553 C13.0943004,3.24327992 13.0727126,2.50049641 13.0798367,2.40945729 C13.0869608,2.31841816 13.0291056,2.337093 12.9867934,2.41692729 C12.9222458,2.53831223 12.5703641,3.30350575 12.4637205,3.50099014 C12.3775852,3.66019124 12.3061294,3.78904652 12.1984062,3.78904652 C12.091115,3.78904652 12.0123196,3.69053773 12.0123196,3.44800091 C12.0123196,3.20546377 12.0194437,2.53831223 12.0049797,2.32612157" id="path28"></path>
            <path d="M27.9113117,2.32612157 C27.9005159,2.16715388 27.8120068,2.16692047 27.6975922,2.26542926 C27.2312934,2.66623355 27.0024641,2.59130146 26.7801074,2.50796575 C26.5577537,2.42463036 26.4649275,1.90921025 26.8599824,1.91668025 C27.2528818,1.92438333 27.4687598,2.37140773 27.453647,2.80372553 C27.4385373,3.23581025 27.2032294,3.77387344 26.622519,3.78904652 C26.0418056,3.80421926 25.7978635,3.19776036 25.7913879,2.86418476 C25.7849092,2.53060882 25.9209153,2.35623432 25.9640891,2.31094882 C26.0072659,2.26542926 26.0202172,2.2273797 25.9705647,2.23508278 C25.5625556,2.31841816 24.8954928,3.12959838 24.8890166,3.3796052 C24.8825403,3.56144937 25.0422903,3.60650212 25.0595586,3.35696212 C25.0746714,3.15994421 24.8523175,2.68981058 24.7227906,2.58383179 C24.6580269,2.72786014 24.3730678,3.24327992 24.1140144,3.59202926 C24.0449333,3.68540212 23.8700717,3.80421926 23.7427038,3.75123036 C23.6131769,3.69800773 23.5333019,3.59202926 23.5203495,3.43282751 L23.5203495,2.31094882 C23.4620623,2.23508278 22.9828132,3.28109608 22.8468095,3.53133663 C22.7108062,3.78157685 22.4366413,3.9108986 22.430165,3.47834707 C22.4236885,3.03108926 22.4388001,2.47761992 22.4085772,2.3791108 C22.3481312,2.16598652 21.8796757,3.23581025 21.6206223,3.58455926 C21.5515413,3.67769904 21.4284906,3.80421926 21.2989638,3.75123036 C21.1694367,3.69800773 21.1197848,3.59202926 21.1046736,3.43282751 C21.089562,3.27362641 21.070133,2.37140773 21.070133,2.37140773 C20.9837815,2.25025619 20.4743095,3.44029751 20.3814818,3.62237509 C20.2843367,3.81005542 20.2670663,3.77387344 20.1656034,3.7131808 C20.0662998,3.65272157 20.0662998,3.63754816 20.0598236,3.47064366 C20.0511882,3.30397256 20.0490294,2.7731463 20.0511882,2.59130146 C20.0598236,2.18209355 20.0598236,1.80299838 20.0511882,1.42390322 C20.044712,1.04504113 20.152651,0.61272333 20.3534175,0.332370033 C20.5541842,0.0517836593 21.0614977,0.0216709121 21.018322,0.734108604 C20.9686702,1.5588274 20.2454784,2.29577509 19.893597,2.47761992 C19.8223574,2.51496926 19.4316184,2.70451685 19.0711013,2.58383179 C18.5033425,2.39428421 18.8250007,1.56536344 19.3128852,2.0455352 C19.5136516,2.24255278 19.5848916,2.51543608 19.5784153,2.79602245 C19.5719388,3.07660882 19.4078714,3.75870036 18.7904602,3.78904652 C18.1752074,3.819393 17.9960284,3.19029102 17.9873937,2.97039663 C17.983076,2.83407201 17.9809175,2.6519941 18.0089812,2.58383179 C18.0759038,2.42813179 17.9960284,2.48532267 17.9528531,2.51543608 C17.63983,2.73579696 17.4153166,3.03108926 17.1994385,3.29626948 C16.5820272,4.05936201 16.476247,4.76713091 16.4546589,5.0248408 C16.4330711,5.28255102 16.476247,5.54773091 16.6554257,5.55543432 C16.9554961,5.56803959 17.1281986,4.94127168 17.1433102,4.4258519 C17.1605806,3.78157685 16.8928916,2.80372553 16.8713038,2.0455352 C16.8497156,1.28757827 17.164898,0.544561022 17.2210263,0.408235747 C17.2793132,0.271677725 17.2490906,0.233861571 17.1001342,0.302024209 C16.7482531,0.461692121 16.3618312,1.18906915 16.3769428,1.94702641 C16.3898955,2.70498366 16.5690745,3.0992519 16.8928916,3.50099014 L16.7698409,3.7057108 L16.7137129,3.64501816 C16.2538922,3.15994421 15.9667745,2.85671509 15.9602983,1.94702641 C15.953822,0.878136626 16.8086989,0.173635747 17.3224891,0.0594870659 C17.4584919,0.0291409121 17.4649687,0.13535311 17.4217928,0.294320802 C17.3786172,0.453521901 17.2857897,1.03733773 17.3289653,1.6664397 C17.3721413,2.29577509 17.460651,2.91740773 17.4865562,3.69053773 C17.5362083,5.09557091 16.8734626,5.93452948 16.5345339,5.93452948 C16.2323047,5.93452948 16.1826525,5.5857808 16.1826525,5.25967454 C16.1826525,4.93380234 16.3898955,3.98629751 17.1001342,3.07660882 C17.8082147,2.16692047 18.3608629,1.95472981 18.533565,1.91668025 C18.7041089,1.87886377 18.740808,1.92438333 18.6048047,2.08358509 C18.4688019,2.24255278 18.3824504,2.43980377 18.4040382,2.75797256 C18.425626,3.07660882 18.5896937,3.39477827 18.8919227,3.3796052 C19.1919934,3.36466553 19.3603784,2.94028421 19.3646958,2.79602245 C19.371172,2.47014992 19.2545983,2.3891486 19.1488178,2.25772586 C19.0624666,2.15174707 18.9415748,2.28620476 19.1056419,2.34129465 C19.3560605,2.42463036 19.649655,2.40175388 19.8720092,2.25772586 C20.0943641,2.11369751 20.7679034,1.59080773 20.7679034,0.756751681 C20.7679034,0.34754311 20.7247281,0.362716516 20.675076,0.362716516 C20.6254239,0.362716516 20.459198,0.499041462 20.4462452,1.37838366 C20.4311336,2.25772586 20.4527214,2.76567597 20.4527214,2.84154168 C20.4527214,2.91740773 20.4462452,3.07660882 20.5541842,2.84154168 C20.6599644,2.60647487 20.9902577,1.85598729 21.2708995,1.85598729 C21.4565544,1.85598729 21.5342708,2.03036212 21.5342708,2.15174707 C21.5342708,2.30324509 21.5277943,3.09178223 21.5277943,3.19029102 C21.5277943,3.27362641 21.5709702,3.27362641 21.6206223,3.20546377 C21.6702739,3.13706805 22.2078105,2.25025619 22.3373376,2.00771904 C22.3913071,1.90664278 22.449594,1.84875135 22.5963909,1.84081454 C22.8813501,1.82587487 22.8748742,2.28807234 22.8748742,2.59900487 C22.8748742,2.75797256 22.8813501,2.8338386 22.8813501,2.9400508 C22.8813501,3.01568278 22.9029379,3.03108926 22.9612248,2.90970432 C23.0259885,2.77337937 23.3411708,2.09852476 23.4491098,1.96966948 C23.55489,1.84081454 23.5829541,1.79132641 23.6973693,1.79132641 C23.7880385,1.79132641 24.0082339,1.7600463 23.9995986,2.39428421 C23.9931223,3.00074311 23.9995986,3.28879948 23.9995986,3.28879948 C23.9995986,3.33431904 24.0276629,3.35696212 24.0794739,3.27362641 C24.1291257,3.19029102 24.7530132,2.0532386 24.8026653,1.87886377 C24.8523175,1.70448959 24.9537803,1.79529498 24.9602565,1.91668025 C24.9667327,2.03806553 25.4179184,2.71268707 25.39633,3.13706805 C25.3747416,3.56168278 25.1545464,3.75870036 24.9602565,3.75123036 C24.7659659,3.74376036 24.6817736,3.56915278 24.6817736,3.40248168 C24.6817736,3.23581025 24.8587934,2.91740773 25.0681958,2.70498366 C25.2754397,2.492793 25.7762751,1.87372849 26.4929916,1.84081454 C26.6592172,1.83334487 26.6289946,1.96966948 26.51458,2.08358509 C26.4001623,2.19726663 26.2706379,2.51543608 26.279272,2.73532948 C26.2857477,2.95522388 26.4152751,3.34178904 26.7434092,3.34178904 C27.0737019,3.34178904 27.2161836,3.06143575 27.2248178,2.75050322 C27.2312934,2.43980377 27.0888147,2.26542926 27.0240525,2.2124397 C26.8686196,2.08475179 26.7347751,2.2817697 26.9592873,2.34129465 C27.1600556,2.39428421 27.4687598,2.23508278 27.6608909,2.06841135 C27.8551806,1.90150685 27.904833,1.85598729 28.0840129,1.86345762 C28.2631928,1.87116102 28.3646531,2.08358509 28.3646531,2.40175388 C28.3646531,2.51543608 28.3646531,2.76567597 28.3646531,2.8263686 C28.3646531,2.88706124 28.4207812,2.94775355 28.492022,2.78084904 C28.5265617,2.70031487 28.7359641,2.18956322 28.9216196,1.97737289 C29.1094336,1.76494882 29.1741958,1.79529498 29.2454367,1.79529498 C29.3166775,1.79529498 29.502333,1.85598729 29.502333,2.26542926 C29.502333,2.67487058 29.502333,3.10695531 29.502333,3.22063685 C29.502333,3.33431904 29.5606196,3.34178904 29.6167477,3.26615641 C29.6750342,3.19029102 29.7397964,3.11442498 29.8110373,3.02338619 C29.8822781,2.9325808 30.061455,2.94775355 29.9254519,3.15994421 C29.7894489,3.3721352 29.6253818,3.82709575 29.3447416,3.819393 C29.0662568,3.811923 29.0166044,3.48581707 29.0079702,3.36466553 C29.0014946,3.24327992 28.9799062,2.50049641 28.9863818,2.40945729 C28.995019,2.31841816 28.9367324,2.337093 28.8935556,2.41692729 C28.8287934,2.53831223 28.4769092,3.30350575 28.3711318,3.50099014 C28.2847781,3.66019124 28.2135403,3.78904652 28.1056013,3.78904652 C27.9976623,3.78904652 27.9199458,3.69053773 27.9199458,3.44800091 C27.9199458,3.20546377 27.9264214,2.53831223 27.9113117,2.32612157" id="path30"></path>
            <path d="M15.2004071,2.34129465 C15.2673294,2.31748487 15.3364105,2.28060234 15.3946977,2.25772586 C15.4508257,2.23508278 15.5026364,2.23508278 15.5436534,2.37140773 C15.5868291,2.50796575 15.6839739,3.0054119 15.6019406,3.43282751 C15.5436534,3.73605729 15.3860626,3.82009289 15.3579983,3.40995102 C15.3364105,3.09178223 14.9866882,2.8263686 14.8571611,2.8263686 C14.7276342,2.8263686 14.6628705,2.86418476 14.6693473,2.9400508 C14.6779821,3.01568278 14.8226205,3.14663871 14.9715766,3.16741454 C15.243583,3.20546377 15.9322339,2.98557036 16.2625275,3.03855926 L16.4913586,3.30397256 C16.0747135,3.03108926 15.5652412,3.39477827 15.1075797,3.39477827 C14.7060464,3.39477827 14.2591787,3.28109608 14.2483848,2.92487707 C14.2397498,2.70498366 14.4556278,2.62211476 14.6693473,2.61417795 C14.8722727,2.60647487 15.0903092,2.64055586 15.271647,2.8338386 C15.314823,2.87935816 15.3364105,2.88706124 15.3299342,2.80372553 C15.3234577,2.72015674 15.2284714,2.53060882 15.1788193,2.46244652 C15.1291678,2.39428421 15.1572318,2.35623432 15.2004071,2.34129465" id="path32"></path>
        </g>
    </g>
</svg>