<?xml version="1.0" encoding="UTF-8"?>
<svg width="32px" height="32px" viewBox="0 0 32 32" version="1.1" xmlns="http://www.w3.org/2000/svg" xmlns:xlink="http://www.w3.org/1999/xlink">
    <!-- Generator: Sketch 49.1 (51147) - http://www.bohemiancoding.com/sketch -->
    <title>icons/underlying assets/otc stocks/ic-lloydsbank</title>
    <desc>Created with Sketch.</desc>
    <defs></defs>
    <g id="icons/underlying-assets/otc-stocks/ic-lloydsbank" stroke="none" stroke-width="1" fill="none" fill-rule="evenodd">
        <g id="Group" transform="translate(1.000000, 3.000000)" fill="#333333" fill-rule="nonzero">
            <g id="Group-2">
                <g>
                    <path d="M28.5555556,13.5531915 C29.1111111,13.9404255 29.6666667,14.2723404 29.6666667,14.8808511 C29.6666667,15.0468085 29.4444444,15.2680851 28.8888889,15.2680851 C28.5,15.2680851 28.0555556,15.1574468 27.8333333,14.8808511 C27.6666667,14.6595745 27.8888889,14.3276596 27.7777778,14.1617021 C27.6666667,13.9957447 27.3888889,14.0510638 27.2222222,13.9957447 C27.0555556,13.8851064 27,13.8297872 26.8333333,13.4978723 C26.6666667,13.1659574 26.1666667,12.612766 25.5555556,12.0042553 C25.0555556,11.506383 24.5,11.2297872 24.2777778,11.2851064 C24.1111111,11.2851064 24.0555556,11.2851064 23.8888889,11.2851064 C23.4444444,11.2851064 23.1111111,11.6723404 22.4444444,11.9489362 C22,12.1148936 21.7777778,12.2255319 21.5,12.2808511 L21.3888889,12.3914894 L21.9444444,12.3914894 C22.5,12.3914894 23.1666667,12.3361702 23.6666667,12.3361702 C24.2222222,12.3361702 24.4444444,12.8340426 24.6666667,13.3319149 C25.0555556,14.3276596 25.6666667,15.8212766 26.4444444,17.0382979 C26.8333333,17.5914894 27.1111111,17.9787234 27.1111111,18.6978723 C27.1111111,18.9191489 27.1111111,19.2510638 26.7777778,19.2510638 C26.3888889,19.2510638 25.3333333,18.8085106 25.3333333,18.3659574 C25.3333333,17.9787234 25.6111111,17.8680851 25.6111111,17.4808511 C25.6111111,17.2595745 25.2777778,17.3148936 25.2222222,17.093617 C24.9444444,15.987234 24.6666667,14.9361702 24.0555556,14.2723404 C23.7222222,13.9404255 23.6666667,13.7744681 23.3888889,13.7744681 C23.2222222,13.7744681 23.0555556,13.8297872 22.8888889,13.8851064 C22.0555556,14.2170213 20.8888889,15.1574468 19.5,15.5446809 C18.9444444,15.7106383 18.8888889,15.3787234 18.3333333,15.4893617 L18.3888889,15.4893617 C17.9444444,15.6 17.6111111,15.8765957 16.9444444,16.0425532 C16.1111111,16.2638298 14.6111111,16.4297872 13.4444444,16.2085106 C12.6111111,16.0978723 11.5,15.9319149 11.0555556,15.9319149 C10.6666667,16.9276596 9.94444444,18.3106383 8.83333333,18.8085106 C8.22222222,19.0851064 8.05555556,19.4170213 8.22222222,20.0808511 C8.44444444,20.9106383 9.16666667,21.5191489 9.55555556,22.2382979 C9.94444444,22.8468085 10.5,23.8425532 11.1111111,24.1191489 C11.7222222,24.4510638 12.1111111,24.893617 12.1111111,25.2808511 C12.1111111,25.4468085 12.0555556,25.5574468 11.8333333,25.5574468 L10.6111111,25.5574468 C10.4444444,25.5574468 10.3333333,25.4468085 10.2777778,25.3914894 C10.1111111,25.0595745 10.2222222,24.7829787 10,24.506383 C9.83333333,24.3404255 9.72222222,24.3404255 9.5,24.1744681 C9.11111111,23.787234 9.38888889,23.6212766 9.11111111,23.1787234 C8.33333333,21.9617021 8,21.6851064 7.33333333,20.8 C6.94444444,20.3574468 6.5,20.0808511 6.5,19.5276596 C6.5,18.8085106 7.22222222,18.6425532 7.22222222,17.9234043 C6.72222222,18.3106383 6.16666667,18.5319149 5.33333333,18.6425532 C5.22222222,18.6425532 4.94444444,18.8638298 4.77777778,19.0297872 C4.5,19.306383 4.38888889,19.6382979 4.33333333,20.0808511 C4.22222222,21.0765957 4.05555556,22.0723404 4.16666667,23.1234043 C4.33333333,23.787234 4.44444444,24.0085106 5,24.3404255 C5.33333333,24.5617021 5.72222222,24.893617 5.77777778,25.3361702 C5.77777778,25.4468085 5.72222222,25.612766 5.55555556,25.612766 L4.22222222,25.612766 C4.11111111,25.612766 4,25.5021277 3.94444444,25.4468085 C3.77777778,25.1702128 3.88888889,25.0042553 3.83333333,24.7276596 C3.72222222,24.1191489 3,24.1744681 3,23.5106383 C3,23.3446809 3.11111111,23.0680851 3.11111111,22.6808511 C3.16666667,21.8510638 3.38888889,20.4680851 3.16666667,18.8085106 C3.05555556,17.8680851 4.05555556,17.812766 4.61111111,16.9829787 C4.94444444,16.4851064 4.83333333,16.706383 5,16.3744681 C5.16666667,15.987234 5.16666667,15.7659574 5.11111111,15.5446809 C5.11111111,15.2680851 4.83333333,14.6595745 5,13.4978723 C5.05555556,12.9446809 5.33333333,12.3914894 5.72222222,11.9489362 C5.72222222,11.9489362 5.72222222,11.8382979 5.61111111,11.8382979 C5.05555556,11.893617 5.05555556,11.7276596 4.72222222,11.7276596 C4.38888889,11.7276596 4.11111111,12.0042553 4.05555556,12.1702128 C3.88888889,12.1148936 3.83333333,11.893617 3.83333333,11.7829787 C3.83333333,11.6170213 3.88888889,11.3957447 4.05555556,11.2297872 C4.11111111,11.1744681 4.05555556,11.1191489 3.94444444,11.1191489 C3.55555556,11.1191489 3.16666667,11.6170213 3.05555556,11.9489362 C2.83333333,11.893617 2.77777778,11.5617021 2.66666667,11.5617021 C2.55555556,11.5617021 2.5,11.7276596 2.5,11.893617 C2.5,13.0553191 4.44444444,13.3319149 4.44444444,14.8808511 C4.44444444,16.706383 2.27777778,16.3191489 2.27777778,16.9276596 C2.27777778,17.0382979 2.38888889,17.1489362 2.55555556,17.2595745 C2.5,17.4255319 2.27777778,17.4808511 2.11111111,17.4808511 C1.61111111,17.4808511 1.27777778,17.093617 1.27777778,16.6510638 C1.27777778,15.6553191 2.61111111,15.6553191 2.61111111,14.8808511 C2.61111111,14.493617 2.38888889,14.4382979 2.16666667,14.2723404 C0.888888889,13.387234 0.166666667,12.5021277 0.166666667,11.0085106 C0.166666667,9.40425532 1.27777778,8.24255319 2.72222222,8.24255319 C4.77777778,8.24255319 4.88888889,10.6212766 6.72222222,10.8425532 C7.44444444,10.3446809 8.27777778,10.0680851 9.11111111,10.0680851 C10.3333333,10.0680851 10.8888889,10.4 12.1666667,10.4 C12.7222222,10.4 13.5555556,10.2340426 14.6111111,9.51489362 C15,9.23829787 15.1666667,9.18297872 15.5,8.90638298 C16.3333333,8.18723404 17.1111111,6.85957447 17.1111111,5.86382979 L17.1111111,5.91914894 C17.1111111,5.58723404 17.0555556,5.4212766 16.8888889,5.4212766 C16.4444444,5.4212766 16.0555556,5.80851064 15.6111111,6.25106383 C15.3333333,6.52765957 15.7777778,6.69361702 15.1111111,7.02553191 C14.8888889,7.13617021 14.6111111,6.91489362 14.3888889,6.91489362 C13.8888889,6.91489362 13.6666667,6.30638298 13.6666667,5.80851064 C13.6666667,5.53191489 13.8333333,5.47659574 14,5.25531915 C14.2777778,4.75744681 14.2222222,4.53617021 14.5,4.09361702 C14.6666667,3.76170213 14.8888889,3.54042553 14.8888889,3.31914894 C14.8888889,3.20851064 14.8333333,3.15319149 14.8333333,3.09787234 C14.8333333,2.6 15.5,2.26808511 15.5,1.77021277 C15.5,1.49361702 15.1666667,1.38297872 15.1111111,1.16170213 C15.0555556,0.940425532 15.1111111,0.885106383 15.1111111,0.885106383 C15.1111111,0.829787234 15.1666667,0.829787234 15.2222222,0.829787234 C15.5,0.829787234 15.6111111,1.10638298 15.8333333,1.27234043 C15.8333333,0.940425532 15.7222222,0.885106383 15.7222222,0.608510638 C15.7222222,0.49787234 15.7222222,0.276595745 15.8333333,0.276595745 C16,0.276595745 16,0.49787234 16.1111111,0.608510638 C16.2777778,0.774468085 16.5,0.719148936 16.6666667,0.885106383 C16.9444444,1.05106383 17.0555556,1.32765957 17.1666667,1.32765957 C17.4444444,1.38297872 17.5,1.05106383 17.3333333,0.885106383 C17.6111111,0.885106383 17.9444444,1.10638298 18.3333333,1.10638298 C18.9444444,1.10638298 19.1666667,1.27234043 19.2777778,1.38297872 C19.6666667,1.71489362 19.7222222,1.99148936 20.1666667,1.99148936 C20.3888889,1.99148936 20.5,1.82553191 20.5555556,1.71489362 C20.8333333,1.93617021 20.8888889,2.4893617 20.5555556,2.98723404 C20.6666667,3.37446809 21.2222222,3.42978723 21.5,3.59574468 C21.7777778,3.76170213 21.7222222,3.87234043 21.8888889,3.98297872 C22.0555556,4.09361702 22.1666667,4.03829787 22.2777778,3.98297872 C22.3888889,4.53617021 21.9444444,4.9787234 21.3888889,5.03404255 C21.3888889,5.69787234 22.1111111,6.14042553 22.4444444,6.30638298 C22.2777778,6.69361702 21.8888889,6.85957447 21.6111111,6.91489362 C21.7222222,7.30212766 22.1666667,7.9106383 21.9444444,8.46382979 C21.7777778,8.35319149 21.4444444,8.46382979 21.4444444,8.74042553 C21.4444444,9.07234043 21.8888889,9.23829787 21.4444444,9.45957447 C21.2777778,9.57021277 21.2222222,9.84680851 21.5555556,10.1787234 C22.0555556,10.0680851 22.5,10.0680851 23.0555556,10.0680851 C23.3888889,10.0680851 23.8333333,9.95744681 24.1666667,9.95744681 C24.7222222,9.95744681 25.0555556,10.1787234 25.4444444,10.6212766 C26.5555556,11.6170213 27.5,12.7787234 28.5555556,13.5531915" id="Shape"></path>
                    <path d="M0.944444444,10.6212766 C1.16666667,10.6212766 1.55555556,9.40425532 2.38888889,9.40425532 C2.61111111,9.40425532 2.66666667,9.51489362 2.66666667,9.57021277 C2.66666667,9.73617021 2.38888889,9.90212766 2.38888889,10.1234043 C2.38888889,10.1787234 2.38888889,10.2340426 2.5,10.2340426 C2.66666667,10.2340426 2.88888889,9.79148936 3.66666667,9.79148936 C3.88888889,9.79148936 4.05555556,9.79148936 4.27777778,9.84680851 C4.38888889,9.84680851 4.55555556,9.95744681 4.44444444,9.68085106 C4.27777778,9.12765957 3.61111111,8.57446809 2.72222222,8.57446809 C1.83333333,8.57446809 0.888888889,9.34893617 0.777777778,10.3446809 C0.888888889,10.5106383 0.888888889,10.6212766 0.944444444,10.6212766" id="Shape"></path>
                    <path d="M16.3888889,2.98723404 C16.1666667,2.87659574 16.1111111,2.76595745 16.2222222,2.43404255 C16.2777778,2.10212766 16.2777778,1.99148936 16.1666667,1.93617021 C16.0555556,1.88085106 15.8888889,1.99148936 15.7222222,2.15744681 C15.5555556,2.32340426 15.3333333,2.6 15.2777778,2.8212766 C15.2222222,3.09787234 15.5,3.04255319 15.2777778,3.48510638 C14.8888889,4.20425532 14.7777778,4.37021277 14.6111111,4.81276596 C14.4444444,5.36595745 14.3333333,5.4212766 14.2222222,5.58723404 C14.1111111,5.75319149 14.3888889,5.75319149 14.6666667,5.64255319 C15,5.53191489 15,5.91914894 14.8888889,6.19574468 C14.7777778,6.36170213 14.8888889,6.47234043 15.1111111,6.25106383 C15.3333333,6.08510638 15,5.91914894 15.0555556,5.3106383 C15.1666667,4.75744681 15.2222222,4.48085106 15.6111111,3.92765957 C15.8888889,3.48510638 16.1666667,3.15319149 16.6111111,3.31914894 C16.7222222,3.42978723 16.6666667,3.09787234 16.3888889,2.98723404" id="Shape"></path>
                    <path d="M26.7222222,18.6978723 C26.8333333,18.6978723 26.8333333,18.587234 26.8333333,18.4765957 C26.8333333,18.2 26.6666667,17.812766 26.4444444,17.6468085 C26.3888889,18.0340426 26.2222222,18.3106383 26.2222222,18.4765957 C26.2222222,18.587234 26.6111111,18.6978723 26.7222222,18.6978723" id="Shape"></path>
                    <path d="M29.0555556,14.9914894 C29.2222222,14.9914894 29.4444444,14.9361702 29.4444444,14.8255319 C29.4444444,14.6042553 29.1111111,14.2170213 28.8333333,14.106383 C28.9444444,14.493617 28.7777778,14.9914894 29.0555556,14.9914894" id="Shape"></path>
                    <path d="M18.8333333,9.90212766 C20.9444444,10.8425532 20.8333333,12.612766 21,12.1702128 C21.0555556,12.0042553 21.3888889,11.1191489 20.6111111,10.2893617 C20.0555556,9.62553191 19.8333333,9.79148936 20.0555556,9.23829787 C20.9444444,7.02553191 21.5555556,3.70638298 18.7777778,2.54468085 C18.4444444,2.43404255 18.2222222,2.43404255 18.2222222,2.4893617 C18.2222222,2.54468085 18.5,2.65531915 18.8888889,2.87659574 C20.7222222,4.09361702 20.1666667,7.35744681 18.5,8.96170213 C17.8888889,9.51489362 18.1666667,9.62553191 18.8333333,9.90212766" id="Shape"></path>
                    <path d="M11.6111111,25.2808511 C11.7777778,25.2808511 11.6666667,25.0595745 11.6111111,24.9489362 C11.5,24.7276596 11.2222222,24.5617021 11.0555556,24.506383 C11.1111111,24.7276596 11.1111111,25.2808511 11.3333333,25.2808511 L11.6111111,25.2808511" id="Shape"></path>
                    <path d="M5.27777778,25.2808511 C5.44444444,25.2808511 5.33333333,25.0595745 5.27777778,24.9489362 C5.16666667,24.7276596 4.88888889,24.5617021 4.66666667,24.506383 C4.72222222,24.7276596 4.77777778,25.2808511 5,25.2808511 L5.27777778,25.2808511" id="Shape"></path>
                    <path d="M13,12.7234043 C14.1666667,12.612766 14.3333333,12.3361702 14.5555556,11.4510638 C14.6666667,11.0638298 14.9444444,10.6212766 15.2222222,10.3446809 C15.3888889,10.1787234 15.5555556,10.012766 15.7222222,9.73617021 C15.7777778,9.62553191 15.8333333,9.57021277 15.7222222,9.57021277 C15.6111111,9.68085106 15.1666667,9.95744681 15,10.0680851 C14.1666667,10.6212766 12.9444444,10.8978723 12.4444444,10.8978723 C11.3888889,10.8978723 10.4444444,10.5659574 9.5,10.5659574 C6.61111111,10.5659574 5.5,12.8340426 5.66666667,14.1617021 C5.66666667,14.3829787 5.72222222,14.3829787 5.77777778,14.3829787 C5.94444444,14.3829787 6.16666667,13.6085106 6.88888889,12.9446809 C7.94444444,11.9489362 9.11111111,11.3404255 10.7222222,11.3404255 C11.8888889,11.3404255 12.3888889,11.7276596 12.3888889,11.893617 C12.3888889,12.1702128 11.8888889,12.2255319 11.9444444,12.5021277 C11.9444444,12.612766 12.2222222,12.8340426 13,12.7234043" id="Shape"></path>
                </g>
            </g>
        </g>
    </g>
</svg>