<?xml version="1.0" encoding="UTF-8"?>
<svg width="32px" height="32px" viewBox="0 0 32 32" version="1.1" xmlns="http://www.w3.org/2000/svg" xmlns:xlink="http://www.w3.org/1999/xlink">
    <!-- Generator: Sketch 49.1 (51147) - http://www.bohemiancoding.com/sketch -->
    <title>icons/underlying assets/otc stocks/ic-marutisuzuki</title>
    <desc>Created with Sketch.</desc>
    <defs></defs>
    <g id="icons/underlying-assets/otc-stocks/ic-marutisuzuki" stroke="none" stroke-width="1" fill="none" fill-rule="evenodd">
        <g id="maruti-suzuki" transform="translate(1.000000, 8.000000)">
            <path d="M0,0 L0,15.9905185 L30,15.9905185 L30,0 L0,0 Z M14.8638462,15.2888889 L0.681923077,15.2888889 L0.681923077,0.700444444 L14.8638462,0.700444444 L14.8638462,15.2900741 L14.8638462,15.2888889 Z M29.3169231,15.2888889 L15.5469231,15.2888889 L15.5469231,0.700444444 L29.3180769,0.700444444 L29.3180769,15.2900741 L29.3169231,15.2888889 Z" id="Shape" fill="#212123" fill-rule="nonzero"></path>
            <path d="M2.30769231,14.3194074 C1.45153846,14.2684444 1.20461538,13.7268148 1.22076923,13.2871111 C1.22076923,13.2871111 1.16884615,11.3493333 1.20576923,11.3493333 L4.09038462,14.3122963 L2.30769231,14.3194074" id="Shape" fill="#1A4FA3"></path>
            <path d="M4.63153846,14.3277037 L1.69269231,11.3137778 C1.44230769,10.9072593 1.12153846,10.4343704 1.20230769,8.25955556 L4.23461538,11.2817778 L4.23461538,10.738963 L1.67653846,8.09955556 C1.08576923,7.54844444 1.20461538,4.98725926 1.20461538,4.98725926 C1.20461538,4.98725926 4.16192308,7.8317037 4.23461538,7.86607407 L4.23461538,7.27348148 C4.20923077,7.25688889 1.86576923,5.08918519 1.67423077,4.77274074 C1.08576923,3.92888889 1.21269231,2.83140741 1.21269231,1.792 C3.63576923,3.56977778 7.31423077,7.65748148 7.31423077,7.65748148 L7.31423077,14.322963 L4.63153846,14.322963" id="Shape" fill="#1A4FA3"></path>
            <path d="M13.0742308,14.3348148 C13.9326923,14.285037 14.1807692,13.7220741 14.1611538,13.2882963 C14.1611538,13.2882963 14.2130769,11.3505185 14.1773077,11.3505185 L11.2869231,14.322963 L13.0742308,14.3348148" id="Shape" fill="#1A4FA3"></path>
            <path d="M10.7469231,14.3277037 L13.6846154,11.3137778 C13.9373077,10.9072593 14.2615385,10.4343704 14.175,8.25955556 L11.1426923,11.2817778 L11.1426923,10.738963 L13.7007692,8.10074074 C14.2938462,7.54962963 14.1726923,4.98844444 14.1726923,4.98844444 C14.1726923,4.98844444 11.2142308,7.83288889 11.1426923,7.86725926 L11.1426923,7.27466667 C11.1669231,7.25807407 13.5092308,5.09037037 13.7042308,4.77392593 C14.2926923,3.93007407 14.1657692,2.83259259 14.1657692,1.79318519 C11.7426923,3.57096296 8.06307692,7.65866667 8.06307692,7.65866667 L8.06307692,14.3241481 L10.7515385,14.3241481" id="Shape" fill="#1A4FA3"></path>
            <path d="M22.1538462,14.2601481 C21.8653846,14.0005926 16.5276923,9.80859259 16.5276923,9.80859259 C16.3603846,9.73274074 16.335,9.62251852 16.4411538,9.49925926 C17.3792308,8.53807407 19.05,8.22755556 20.1011538,8.8557037 C21.1834615,9.66992593 22.1180769,10.3964444 23.1992308,11.2545185 C23.3353846,11.3208889 23.6007692,11.4168889 23.7426923,11.2545185 C23.7426923,11.2545185 23.88,11.0885926 23.6423077,10.898963 C22.56,9.78607407 17.5557692,6.07525926 16.5461538,5.25748148 C16.3476923,5.10103704 16.1907692,4.91733333 16.8819231,4.62933333 C18.8988462,4.04503704 20.8211538,2.72474074 22.0823077,1.5762963 L22.2980769,1.5762963 C24.1442308,3.02222222 25.9765385,4.50607407 27.8538462,5.98874074 C27.8538462,5.98874074 28.0326923,6.18903704 27.9265385,6.32533333 C26.8073077,7.88148148 24.6092308,7.06725926 23.6353846,6.4722963 C23.0215385,5.95318519 22.4088462,5.47081481 21.7892308,4.98962963 C21.4211538,4.70637037 21.0692308,4.35555556 20.8811538,4.63407407 C20.8165385,4.7442963 20.85,4.88177778 21.015,5.03111111 C23.1923077,6.76740741 25.1134615,8.46933333 27.6403846,10.2471111 C27.7973077,10.3656296 28.17,10.5908148 28.0707692,10.8397037 C27.8769231,11.136 26.1473077,11.629037 22.5876923,14.1783704 C22.4777631,14.3014791 22.3005026,14.3322317 22.1573077,14.253037" id="Shape" fill="#EF4033"></path>
        </g>
    </g>
</svg>