<?xml version="1.0" encoding="UTF-8"?>
<svg width="32px" height="32px" viewBox="0 0 32 32" version="1.1" xmlns="http://www.w3.org/2000/svg" xmlns:xlink="http://www.w3.org/1999/xlink">
    <!-- Generator: Sketch 49.1 (51147) - http://www.bohemiancoding.com/sketch -->
    <title>icons/underlying assets/otc stocks/ic-mastercard</title>
    <desc>Created with Sketch.</desc>
    <defs></defs>
    <g id="icons/underlying-assets/otc-stocks/ic-mastercard" stroke="none" stroke-width="1" fill="none" fill-rule="evenodd">
        <g id="g5473" transform="translate(4.000000, 7.000000)">
            <g id="g3806" transform="translate(12.615028, 17.368209) scale(-1, 1) rotate(-180.000000) translate(-12.615028, -17.368209) translate(1.307335, 15.738307)" fill="#231F20" fill-rule="nonzero">
                <path d="M22.1538462,0.465686275 L22.1538462,0.417720588 L22.1976923,0.417720588 C22.2073846,0.417720588 22.2156923,0.42004902 22.2216923,0.42377451 C22.2272308,0.4275 22.2304615,0.434019608 22.2304615,0.441936275 C22.2304615,0.449852941 22.2272308,0.455906863 22.2216923,0.459632353 C22.2156923,0.463823529 22.2073846,0.465686275 22.1976923,0.465686275 L22.1538462,0.465686275 Z M22.1981538,0.499215686 C22.2207692,0.499215686 22.2383077,0.494093137 22.2507692,0.483848039 C22.2632308,0.473602941 22.2692308,0.459632353 22.2692308,0.441936275 C22.2692308,0.427034314 22.2646154,0.414926471 22.2544615,0.405147059 C22.2447692,0.395833333 22.2309231,0.389779412 22.2124615,0.38745098 L22.2706154,0.319926471 L22.2253846,0.319926471 L22.1713846,0.386985294 L22.1538462,0.386985294 L22.1538462,0.319926471 L22.116,0.319926471 L22.116,0.499215686 L22.1981538,0.499215686 Z M22.1866154,0.257990196 C22.2073846,0.257990196 22.2267692,0.262181373 22.2443077,0.270098039 C22.2623077,0.278014706 22.278,0.28872549 22.2913846,0.302230392 C22.3047692,0.315735294 22.3153846,0.331568627 22.3232308,0.350196078 C22.3306154,0.368357843 22.3347692,0.387916667 22.3347692,0.408872549 C22.3347692,0.429828431 22.3306154,0.449387255 22.3232308,0.46754902 C22.3153846,0.485710784 22.3047692,0.502009804 22.2913846,0.515514706 C22.278,0.529019608 22.2623077,0.539730392 22.2443077,0.547647059 C22.2267692,0.555098039 22.2073846,0.558823529 22.1866154,0.558823529 C22.1658462,0.558823529 22.146,0.555098039 22.128,0.547647059 C22.1095385,0.539730392 22.0933846,0.529019608 22.08,0.515514706 C22.0666154,0.502009804 22.056,0.485710784 22.0486154,0.46754902 C22.0407692,0.449387255 22.0370769,0.429828431 22.0370769,0.408872549 C22.0370769,0.387916667 22.0407692,0.368357843 22.0486154,0.350196078 C22.056,0.331568627 22.0666154,0.315735294 22.08,0.302230392 C22.0933846,0.28872549 22.1095385,0.278014706 22.128,0.270098039 C22.146,0.262181373 22.1658462,0.257990196 22.1866154,0.257990196 Z M22.1866154,0.602132353 C22.2138462,0.602132353 22.2387692,0.597009804 22.2627692,0.586764706 C22.2863077,0.576985294 22.3066154,0.563014706 22.3246154,0.545318627 C22.3421538,0.528088235 22.356,0.507598039 22.3661538,0.483848039 C22.3763077,0.460563725 22.3813846,0.435416667 22.3813846,0.408872549 C22.3813846,0.382328431 22.3763077,0.357181373 22.3661538,0.333897059 C22.356,0.310612745 22.3421538,0.290122549 22.3246154,0.272426471 C22.3066154,0.255196078 22.2863077,0.24122549 22.2627692,0.230980392 C22.2387692,0.220735294 22.2138462,0.215612745 22.1866154,0.215612745 C22.1589231,0.215612745 22.1335385,0.220735294 22.1095385,0.230980392 C22.0855385,0.24122549 22.0647692,0.255196078 22.0472308,0.272426471 C22.0296923,0.290122549 22.0158462,0.310612745 22.0056923,0.333897059 C21.9955385,0.357181373 21.9904615,0.382328431 21.9904615,0.408872549 C21.9904615,0.435416667 21.9955385,0.460563725 22.0056923,0.483848039 C22.0158462,0.507598039 22.0296923,0.528088235 22.0472308,0.545318627 C22.0647692,0.563014706 22.0855385,0.576985294 22.1095385,0.586764706 C22.1335385,0.597009804 22.1589231,0.602132353 22.1866154,0.602132353 Z M4.20461538,1.2927451 C4.20461538,1.63455882 4.42661538,1.91536765 4.78938462,1.91536765 C5.136,1.91536765 5.37,1.64666667 5.37,1.2927451 C5.37,0.938823529 5.136,0.670122549 4.78938462,0.670122549 C4.42661538,0.670122549 4.20461538,0.950931373 4.20461538,1.2927451 Z M5.76507692,1.2927451 L5.76507692,2.26509804 L5.346,2.26509804 L5.346,2.0289951 C5.21307692,2.20409314 5.01138462,2.3139951 4.73723077,2.3139951 C4.19676923,2.3139951 3.77307692,1.8864951 3.77307692,1.2927451 C3.77307692,0.698529412 4.19676923,0.271495098 4.73723077,0.271495098 C5.01138462,0.271495098 5.21307692,0.381397059 5.346,0.556495098 L5.346,0.320392157 L5.76507692,0.320392157 L5.76507692,1.2927451 Z M19.9269231,1.2927451 C19.9269231,1.63455882 20.1489231,1.91536765 20.5116923,1.91536765 C20.8587692,1.91536765 21.0923077,1.64666667 21.0923077,1.2927451 C21.0923077,0.938823529 20.8587692,0.670122549 20.5116923,0.670122549 C20.1489231,0.670122549 19.9269231,0.950931373 19.9269231,1.2927451 Z M21.4878462,1.2927451 L21.4878462,3.04605392 L21.0683077,3.04605392 L21.0683077,2.0289951 C20.9353846,2.20409314 20.7336923,2.3139951 20.4595385,2.3139951 C19.9190769,2.3139951 19.4953846,1.8864951 19.4953846,1.2927451 C19.4953846,0.698529412 19.9190769,0.271495098 20.4595385,0.271495098 C20.7336923,0.271495098 20.9353846,0.381397059 21.0683077,0.556495098 L21.0683077,0.320392157 L21.4878462,0.320392157 L21.4878462,1.2927451 Z M10.9670769,1.93539216 C11.2370769,1.93539216 11.4106154,1.76448529 11.4549231,1.46365196 L10.4547692,1.46365196 C10.4995385,1.74446078 10.6684615,1.93539216 10.9670769,1.93539216 Z M10.9753846,2.3139951 C10.4104615,2.3139951 10.0153846,1.89906863 10.0153846,1.2927451 C10.0153846,0.674313725 10.4266154,0.271495098 11.0035385,0.271495098 C11.2938462,0.271495098 11.5596923,0.344607843 11.7936923,0.543921569 L11.5883077,0.857328431 C11.4267692,0.727401961 11.2209231,0.653823529 11.0275385,0.653823529 C10.7575385,0.653823529 10.5115385,0.78002451 10.4510769,1.13022059 L11.8823077,1.13022059 C11.8864615,1.18284314 11.8906154,1.23593137 11.8906154,1.2927451 C11.8864615,1.89906863 11.5153846,2.3139951 10.9753846,2.3139951 Z M16.0356923,1.2927451 C16.0356923,1.63455882 16.2576923,1.91536765 16.6204615,1.91536765 C16.9670769,1.91536765 17.2010769,1.64666667 17.2010769,1.2927451 C17.2010769,0.938823529 16.9670769,0.670122549 16.6204615,0.670122549 C16.2576923,0.670122549 16.0356923,0.950931373 16.0356923,1.2927451 Z M17.5961538,1.2927451 L17.5961538,2.26509804 L17.1770769,2.26509804 L17.1770769,2.0289951 C17.0436923,2.20409314 16.8424615,2.3139951 16.5683077,2.3139951 C16.0278462,2.3139951 15.6041538,1.8864951 15.6041538,1.2927451 C15.6041538,0.698529412 16.0278462,0.271495098 16.5683077,0.271495098 C16.8424615,0.271495098 17.0436923,0.381397059 17.1770769,0.556495098 L17.1770769,0.320392157 L17.5961538,0.320392157 L17.5961538,1.2927451 Z M13.6689231,1.2927451 C13.6689231,0.702720588 14.076,0.271495098 14.6972308,0.271495098 C14.9875385,0.271495098 15.1809231,0.336691176 15.3904615,0.503406863 L15.1892308,0.845220588 C15.0318462,0.731127451 14.8666154,0.670122549 14.6847692,0.670122549 C14.3501538,0.674313725 14.1041538,0.918333333 14.1041538,1.2927451 C14.1041538,1.66715686 14.3501538,1.91117647 14.6847692,1.91536765 C14.8666154,1.91536765 15.0318462,1.85436275 15.1892308,1.74026961 L15.3904615,2.08208333 C15.1809231,2.24879902 14.9875385,2.3139951 14.6972308,2.3139951 C14.076,2.3139951 13.6689231,1.88276961 13.6689231,1.2927451 Z M19.0721538,2.3139951 C18.8303077,2.3139951 18.6729231,2.19990196 18.564,2.0289951 L18.564,2.26509804 L18.1486154,2.26509804 L18.1486154,0.320392157 L18.5681538,0.320392157 L18.5681538,1.41056373 C18.5681538,1.73235294 18.7052308,1.91117647 18.9793846,1.91117647 C19.0643077,1.91117647 19.1529231,1.89906863 19.2415385,1.86227941 L19.3707692,2.26090686 C19.278,2.29769608 19.1570769,2.3139951 19.0721538,2.3139951 Z M7.83784615,2.1104902 C7.63615385,2.24460784 7.35830769,2.3139951 7.05184615,2.3139951 C6.56353846,2.3139951 6.24923077,2.07789216 6.24923077,1.69137255 C6.24923077,1.3742402 6.48323077,1.17865196 6.91430769,1.11764706 L7.11230769,1.0892402 C7.34215385,1.05664216 7.45061538,0.995637255 7.45061538,0.885735294 C7.45061538,0.735318627 7.29738462,0.649632353 7.01123077,0.649632353 C6.72092308,0.649632353 6.51138462,0.743235294 6.37015385,0.853137255 L6.17261538,0.523897059 C6.40246154,0.352990196 6.69276923,0.271495098 7.00707692,0.271495098 C7.56369231,0.271495098 7.88630769,0.536004902 7.88630769,0.90622549 C7.88630769,1.24803922 7.63246154,1.42686275 7.21292308,1.48786765 L7.01538462,1.5167402 C6.834,1.54095588 6.68861538,1.57727941 6.68861538,1.70767157 C6.68861538,1.85017157 6.82569231,1.93539216 7.05553846,1.93539216 C7.30153846,1.93539216 7.53969231,1.84178922 7.65646154,1.76867647 L7.83784615,2.1104902 Z M13.2452308,2.3139951 C13.0033846,2.3139951 12.846,2.19990196 12.7375385,2.0289951 L12.7375385,2.26509804 L12.3221538,2.26509804 L12.3221538,0.320392157 L12.7412308,0.320392157 L12.7412308,1.41056373 C12.7412308,1.73235294 12.8783077,1.91117647 13.1524615,1.91117647 C13.2373846,1.91117647 13.326,1.89906863 13.4146154,1.86227941 L13.5438462,2.26090686 C13.4510769,2.29769608 13.3301538,2.3139951 13.2452308,2.3139951 Z M9.66876923,2.26509804 L8.98338462,2.26509804 L8.98338462,2.85512255 L8.55969231,2.85512255 L8.55969231,2.26509804 L8.16876923,2.26509804 L8.16876923,1.87857843 L8.55969231,1.87857843 L8.55969231,0.991446078 C8.55969231,0.540196078 8.73323077,0.271495098 9.22892308,0.271495098 C9.41076923,0.271495098 9.62030769,0.328308824 9.75323077,0.421911765 L9.63230769,0.784215686 C9.50723077,0.711102941 9.37015385,0.674313725 9.26123077,0.674313725 C9.05169231,0.674313725 8.98338462,0.804705882 8.98338462,0.999828431 L8.98338462,1.87857843 L9.66876923,1.87857843 L9.66876923,2.26509804 Z M3.40246154,0.320392157 L3.40246154,1.54095588 C3.40246154,2.00058824 3.11215385,2.30980392 2.64415385,2.3139951 C2.39815385,2.31818627 2.14430769,2.24088235 1.96661538,1.9679902 C1.83369231,2.18360294 1.62415385,2.3139951 1.32969231,2.3139951 C1.12384615,2.3139951 0.922615385,2.2529902 0.765230769,2.02526961 L0.765230769,2.26509804 L0.345692308,2.26509804 L0.345692308,0.320392157 L0.768923077,0.320392157 L0.768923077,1.39845588 C0.768923077,1.73607843 0.954461538,1.91536765 1.24107692,1.91536765 C1.51938462,1.91536765 1.66015385,1.73235294 1.66015385,1.40264706 L1.66015385,0.320392157 L2.08384615,0.320392157 L2.08384615,1.39845588 C2.08384615,1.73607843 2.27723077,1.91536765 2.55553846,1.91536765 C2.84169231,1.91536765 2.97876923,1.73235294 2.97876923,1.40264706 L2.97876923,0.320392157 L3.40246154,0.320392157 Z" id="path3808"></path>
            </g>
            <g id="g5446">
                <g id="g3816" transform="translate(23.238683, 11.975979) scale(-1, 1) rotate(-180.000000) translate(-23.238683, -11.975979) translate(22.777145, 11.743136)"></g>
                <g id="g5439" fill-rule="nonzero">
                    <polygon id="path3810" fill="#FF5F00" points="15.3579692 13.428548 9.00627692 13.428548 9.00627692 1.9111951 15.3579692 1.9111951"></polygon>
                    <g id="g3812" transform="translate(6.409218, 7.670106) scale(-1, 1) rotate(-180.000000) translate(-6.409218, -7.670106) translate(0.178449, 0.219126)" fill="#EB001B">
                        <path d="M9.23076923,7.45098039 C9.23076923,9.78732843 10.3149231,11.8684804 12.0032308,13.2096569 C10.7686154,14.1903922 9.21046154,14.7757598 7.51707692,14.7757598 C3.50815385,14.7757598 0.258461538,11.4963971 0.258461538,7.45098039 C0.258461538,3.40556373 3.50815385,0.12620098 7.51707692,0.12620098 C9.21046154,0.12620098 10.7686154,0.711568627 12.0032308,1.69230392 C10.3149231,3.03348039 9.23076923,5.11463235 9.23076923,7.45098039" id="path3814"></path>
                    </g>
                    <g id="g3820" transform="translate(17.926892, 7.670106) scale(-1, 1) rotate(-180.000000) translate(-17.926892, -7.670106) translate(11.926892, 0.219126)" fill="#F79E1B">
                        <path d="M12,7.45098039 C12,3.40556373 8.75030769,0.12620098 4.74138462,0.12620098 C3.048,0.12620098 1.48984615,0.711568627 0.254769231,1.69230392 C1.94353846,3.03348039 3.02769231,5.11463235 3.02769231,7.45098039 C3.02769231,9.78732843 1.94353846,11.8684804 0.254769231,13.2096569 C1.48984615,14.1903922 3.048,14.7757598 4.74138462,14.7757598 C8.75030769,14.7757598 12,11.4963971 12,7.45098039" id="path3822"></path>
                    </g>
                </g>
            </g>
        </g>
    </g>
</svg>