<?xml version="1.0" encoding="UTF-8"?>
<svg width="32px" height="32px" viewBox="0 0 32 32" version="1.1" xmlns="http://www.w3.org/2000/svg" xmlns:xlink="http://www.w3.org/1999/xlink">
    <!-- Generator: Sketch 49.1 (51147) - http://www.bohemiancoding.com/sketch -->
    <title>icons/underlying assets/otc stocks/ic-mcdonalds</title>
    <desc>Created with Sketch.</desc>
    <defs></defs>
    <g id="icons/underlying-assets/otc-stocks/ic-mcdonalds" stroke="none" stroke-width="1" fill="none" fill-rule="evenodd">
        <g id="mcdonalds-logo-1" transform="translate(5.000000, 6.000000)" fill="#FECA3C" fill-rule="nonzero">
            <path d="M15.7114569,1.33974359 C17.5918832,1.33974359 19.1259152,9.15897436 19.1259152,18.8294872 L21.8477493,18.8294872 C21.8723274,8.42820513 19.1011728,0 15.7114569,0 C13.7815456,0 12.049574,2.53333333 10.9361637,6.50384615 C9.7980109,2.53333333 8.09078173,0 6.16087049,0 C2.74641215,0 0,8.42820513 0,18.8294872 L2.7216697,18.8294872 C2.7216697,9.15897436 4.25570171,1.33974359 6.13612804,1.33974359 C8.01655438,1.33974359 9.55058639,8.57435897 9.55058639,17.4897436 L12.2722561,17.4897436 C12.2969985,8.57435897 13.8310305,1.33974359 15.7114569,1.33974359 Z" id="Shape"></path>
            <path d="M23.2329897,17.4897436 C23.6041237,17.4897436 23.9257732,17.7820513 23.9257732,18.1474359 C23.9257732,18.5371795 23.6041237,18.8294872 23.2329897,18.8294872 C22.8618557,18.8294872 22.5402062,18.5371795 22.5402062,18.1474359 C22.5402062,17.7820513 22.8618557,17.4897436 23.2329897,17.4897436 Z M23.2329897,18.7320513 C23.5546392,18.7320513 23.8020619,18.4884615 23.8020619,18.1474359 C23.8020619,17.8307692 23.5546392,17.5871795 23.2329897,17.5871795 C22.9113402,17.5871795 22.6639175,17.8307692 22.6639175,18.1474359 C22.6639175,18.4884615 22.9113402,18.7320513 23.2329897,18.7320513 Z M22.9608247,17.7576923 L23.257732,17.7576923 C23.4556701,17.7576923 23.5298969,17.8307692 23.5298969,17.9769231 C23.5298969,18.1230769 23.4309278,18.1717949 23.3319588,18.1961538 L23.5546392,18.5371795 L23.4309278,18.5371795 L23.2082474,18.1961538 L23.0845361,18.1961538 L23.0845361,18.5371795 L22.9608247,18.5371795 L22.9608247,17.7576923 Z M23.0845361,18.1230769 L23.2082474,18.1230769 C23.3072165,18.1230769 23.4061856,18.1230769 23.4061856,18.0012821 C23.4061856,17.9038462 23.3072165,17.8794872 23.2329897,17.8794872 L23.0597938,17.8794872 L23.0597938,18.1230769 L23.0845361,18.1230769 Z" id="Shape"></path>
        </g>
    </g>
</svg>