<?xml version="1.0" encoding="UTF-8"?>
<svg width="32px" height="32px" viewBox="0 0 32 32" version="1.1" xmlns="http://www.w3.org/2000/svg" xmlns:xlink="http://www.w3.org/1999/xlink">
    <!-- Generator: Sketch 49.1 (51147) - http://www.bohemiancoding.com/sketch -->
    <title>icons/underlying assets/otc stocks/ic-novartis</title>
    <desc>Created with Sketch.</desc>
    <defs></defs>
    <g id="icons/underlying-assets/otc-stocks/ic-novartis" stroke="none" stroke-width="1" fill="none" fill-rule="evenodd">
        <g id="Group" transform="translate(6.000000, 4.000000)">
            <path d="M13.3108108,10.8528 L13.2567568,11.0016 C14.1576577,11.424 16.1801802,13.0992 16.1801802,16.4736 C16.1801802,19.6512 13.536036,22.8534259 9.58558559,22.8534259 C9.58558559,23.2444496 9.58558559,23.4333892 9.58558559,23.6688 C15.9324324,23.6688 19.2792793,20.3568 19.2792793,16.8336 C19.2747748,13.8096 17.2432432,11.2512 13.3108108,10.8528 Z" id="_Path_-Copy" fill="#EC9A1E" fill-rule="nonzero"></path>
            <path d="M9.58508164,22.852067 C4.77165255,22.7980215 3.10810811,19.7652339 3.10810811,16.9776 C3.10810811,13.3728 5.47297297,10.9728 5.47297297,7.6896 C5.44644398,5.29833598 3.87324391,3.24364849 1.68018018,2.736 L1.5990991,2.8848 C2.3794779,3.69167987 2.81711182,4.80292772 2.81081081,5.9616 C2.81081081,9.5088 0.0045045045,12.0288 0.0045045045,16.0992 C0.0045045045,19.848 2.46396396,23.6688 9.58558559,23.6688 C9.58558559,23.3238541 9.62853608,22.8525549 9.58508164,22.852067 Z" id="_Path_-Copy-2" fill="#E74A21" fill-rule="nonzero"></path>
            <polygon id="_Compound_Path_-path" fill="#0460A9" points="9.67117117 18.5904 11.472973 0.4512 7.73423423 0.4512 9.53603604 18.5904"></polygon>
        </g>
    </g>
</svg>