<?xml version="1.0" encoding="UTF-8"?>
<svg width="32px" height="32px" viewBox="0 0 32 32" version="1.1" xmlns="http://www.w3.org/2000/svg" xmlns:xlink="http://www.w3.org/1999/xlink">
    <!-- Generator: Sketch 49.1 (51147) - http://www.bohemiancoding.com/sketch -->
    <title>icons/underlying assets/otc stocks/ic-pepsico</title>
    <desc>Created with Sketch.</desc>
    <defs></defs>
    <g id="icons/underlying-assets/otc-stocks/ic-pepsico" stroke="none" stroke-width="1" fill="none" fill-rule="evenodd">
        <g id="Group" transform="translate(4.000000, 3.000000)">
            <path d="M22.8213283,17.5498643 C23.1369069,10.9295455 17.4446549,3.47411805 9.68445154,2.55257802 L9.69770915,2.46210991 C17.3480637,2.46210991 23.2129014,9.56563772 23.2129014,15.1696744 C23.2055624,16.3362619 23.113706,17.059057 22.9498798,17.5838195 L22.8213283,17.5498643 Z M22.3577852,18.391384 C21.8487874,19.0151628 21.208634,19.6432157 20.4586317,20.2394505 C19.0788927,12.2803935 13.2476725,5.32075984 9.1250275,3.28938263 L9.03672231,3.3511194 C13.1828049,6.76397558 18.1278955,13.3923677 20.0509601,20.5516961 C19.1309762,21.2317503 18.067526,21.8576662 16.8925699,22.3658073 C12.9801528,17.8908412 9.33265124,9.2605156 8.15722156,3.78398915 L8.03766627,3.82008141 C8.0641815,9.13609227 11.8272137,18.1605834 16.4162427,22.5640773 C15.3977737,22.9670285 14.3025999,23.2811737 13.1525018,23.468521 C8.75357752,21.7206581 5.62241278,16.1225577 5.62241278,10.387924 C5.62241278,6.64430122 6.76043704,4.32845997 6.98060816,3.85451153 L6.88685788,3.81723202 C6.62052185,4.22137042 4.95337667,6.53602442 4.95337667,10.5776459 C4.95337667,17.0597693 8.14064954,22.0143826 12.3721964,23.5746608 C10.9245121,23.7325645 9.40107,23.6848372 7.83809181,23.361194 L7.80660497,23.4599729 C8.25925785,23.627137 9.79501058,24.273711 12.1378207,24.273711 C17.4368423,24.273711 21.0190027,20.9715061 22.4610052,18.4614315 L22.3577852,18.391384 Z" id="Shape" fill="#28458E"></path>
            <path d="M11.6079895,0.122998643 C7.59093197,0.122998643 2.8806905,3.03080054 2.8806905,5.68880597 C2.8806905,6.71696065 3.81843007,7.58554953 5.75925031,7.58554953 C10.264709,7.58554953 14.4505644,4.48090231 14.4505644,2.06675712 C14.4505644,0.796404342 13.2341781,0.122998643 11.6079895,0.122998643 Z M13.2116875,1.9917232 C13.2116875,4.02666214 9.31560573,6.5141791 6.05873038,6.5141791 C4.61980559,6.5141791 3.84234113,5.94620081 3.84234113,5.00898915 C3.84234113,2.94484396 7.78269391,0.499592944 10.8376274,0.499592944 C12.8293474,0.499592944 13.2116875,1.51611262 13.2116875,1.9917232 Z" id="Shape" fill="#0096D6"></path>
            <path d="M1.28030689,6.91950475 C1.16738041,7.11540027 0.715201019,8.00345997 0.715201019,8.91336499 C0.715201019,10.6009159 2.41525349,12.1676052 5.54215686,12.1676052 C11.5575632,12.1676052 18.5073948,7.7265943 18.5073948,3.60424016 C18.5073948,1.75379919 16.7609407,0.747727273 15.5483423,0.539721845 L15.525615,0.611906377 C15.9027468,0.731580733 17.2843797,1.37578019 17.2843797,3.02415197 C17.2843797,6.30878562 11.1482344,10.7842266 5.03600003,10.7842266 C2.69603085,10.7842266 1.22183133,9.62571235 1.22183133,7.93816147 C1.22183133,7.40437585 1.33262712,7.0527137 1.36198327,6.95084803 L1.28030689,6.91950475 Z" id="Shape" fill="#EB7B30"></path>
            <path d="M20.9875159,3.91244912 C21.1525259,4.0380597 22.1432959,4.86628223 22.1432959,6.43249661 C22.1432959,11.7727273 13.8009412,17.0239145 6.42568225,17.0239145 C2.02746823,17.0239145 0.022490598,14.8457938 0.111269275,12.9117707 L0.19010474,12.9117707 C0.362453744,13.9161805 1.79048835,15.7134328 5.63993177,15.7134328 C13.0244237,15.7134328 21.269477,10.2798847 21.269477,5.5192673 C21.269477,4.70267978 21.0483589,4.19382632 20.9233585,3.96753731 L20.9875159,3.91244912 Z" id="Shape" fill="#00984A"></path>
            <path d="M23.7758766,8.8979308 C23.8104411,9.01166893 23.9901291,9.52289688 23.9901291,10.3235753 C23.9901291,16.2640773 15.5476321,21.3497626 8.20504367,21.3497626 C4.42591296,21.3497626 2.45242216,19.5085821 2.03575424,18.7608548 L2.10298929,18.7109905 C3.14868373,19.6282564 5.20834903,20.3251696 7.61200211,20.3251696 C14.0968701,20.3251696 23.7732724,15.37673 23.6868612,8.91953867 L23.7758766,8.8979308 Z" id="Shape" fill="#DF002C"></path>
        </g>
    </g>
</svg>