<?xml version="1.0" encoding="UTF-8"?>
<svg width="32px" height="32px" viewBox="0 0 32 32" version="1.1" xmlns="http://www.w3.org/2000/svg" xmlns:xlink="http://www.w3.org/1999/xlink">
    <!-- Generator: Sketch 49.1 (51147) - http://www.bohemiancoding.com/sketch -->
    <title>icons/underlying assets/otc stocks/ic-procterandgamble</title>
    <desc>Created with Sketch.</desc>
    <defs></defs>
    <g id="icons/underlying-assets/otc-stocks/ic-procterandgamble" stroke="none" stroke-width="1" fill="none" fill-rule="evenodd">
        <path d="M13.6868053,14.6133719 C11.9868477,18.7985897 6.38549003,18.0426783 6.38549003,18.0426783 L5.16919813,21.9152628 C5.0327535,22.4073424 5.39473908,22.7723353 5.65795503,22.8236783 L1,22.8236783 C1.26525244,22.7453929 1.77335596,22.3107565 1.90572762,21.8806953 L5.25931269,11.1764404 C5.34840899,10.9156586 5.42783199,10.4769554 4.95129402,10.1460218 L10.6997879,10.1460218 C12.435384,10.1460218 15.111328,11.1057802 13.6868053,14.6133719 Z M17.4010522,22.8236783 C17.0879423,22.6701576 16.463759,22.0962342 16.2219262,21.8705283 C15.9882393,22.0413328 14.6319389,22.9807574 13.2598557,22.9980412 C11.9936699,23.01685 11.212168,22.5669632 10.7391939,21.843586 C10.4713958,21.4135247 10.3889181,20.950421 10.3889181,20.5406936 C10.3889181,20.0531892 10.50958,19.6312615 10.5925668,19.4446982 C11.253916,17.9298253 13.0989733,17.4372374 13.7796691,17.1871309 C13.7796691,17.1871309 13.8891303,17.1408713 13.9344421,17.1266376 C13.9313874,17.0564858 13.9201867,16.923299 13.9201867,16.7758785 C13.9201867,16.1155362 14.0398303,14.6459061 15.0030887,13.7623997 C15.2612134,13.5178849 15.7871362,13.1874596 16.4215019,13.0654564 C17.19944,12.9302362 17.9453034,13.1137494 18.4111498,13.5804116 C18.6952397,13.8564438 18.8367756,14.2051696 18.8367756,14.5864295 L18.8367756,14.6342141 C18.8276114,15.0027654 18.6748748,15.5502547 17.9926517,16.1480704 C17.2880272,16.7657115 16.3853543,17.1073205 15.7479338,17.4235121 C15.928672,18.6059263 16.4444124,19.410639 16.9173865,20.1152074 C17.1923123,19.7705484 17.3363937,19.2866024 17.3363937,18.9302515 C17.3363937,18.5464498 17.0131014,18.3746286 17.0131014,18.3746286 L18.6407637,18.3746286 C18.5307934,19.7064968 17.9453034,20.3627723 17.4621468,20.877219 C18.056801,21.5482366 19.5414001,22.494778 20.5448791,22.8236783 L17.4010522,22.8236783 Z M26.9285532,11.1423812 C24.7179465,11.6817369 23.3494272,14.4466342 22.8713619,15.9498152 C20.6190072,22.9807574 24.6431056,21.9782978 24.8365719,21.9457636 L26.2722953,17.3650522 C26.3364446,17.1408713 26.3848112,16.5949071 25.6588036,16.286849 L30.6599067,16.286849 C30.0362325,16.5135716 29.6895206,16.8744977 29.5362749,17.4372374 L28.0868053,22.0077819 C27.8419177,22.1297851 24.3539245,23.9262821 21.199406,22.3666747 C18.2449724,20.9143283 18.8274077,15.4917949 21.1479847,12.8412756 C24.9251591,8.53354627 30.2673738,10.3432603 31,10.5654077 L30.4771319,12.2475267 C30.3335596,12.1575494 28.7955028,10.6975779 26.9285532,11.1423812 Z M15.5661773,21.1729448 C14.9481035,20.3580651 14.3819601,19.1675174 14.0978702,18.12134 C13.4706322,18.402964 12.2859058,19.1807344 12.2859058,20.2711379 C12.2859058,21.5328542 13.3352058,21.7733022 13.9741536,21.717384 C14.6548494,21.6553657 15.3823844,21.2863061 15.5661773,21.1729448 Z M17.4010522,14.3607236 C17.4341451,14.0887582 17.4010522,13.8422101 17.1261264,13.748166 C16.7890878,13.6297212 16.3721171,13.8422101 16.0427153,14.3307312 C15.5661773,15.0663088 15.5453034,15.9742158 15.6043615,16.5466141 C15.928672,16.4149524 17.24577,15.3845337 17.4010522,14.3607236 Z M9.15409419,11.1327226 L8.55485787,11.1327226 L6.69147221,17.0605526 C6.69147221,17.0605526 9.22435299,17.7463122 10.3607128,14.4018997 C11.4563428,11.214058 9.76504031,11.1327226 9.15409419,11.1327226 Z" id="Combined-Shape" fill="#003CAE" fill-rule="nonzero"></path>
    </g>
</svg>