<?xml version="1.0" encoding="UTF-8"?>
<svg width="32px" height="32px" viewBox="0 0 32 32" version="1.1" xmlns="http://www.w3.org/2000/svg" xmlns:xlink="http://www.w3.org/1999/xlink">
    <!-- Generator: Sketch 49.1 (51147) - http://www.bohemiancoding.com/sketch -->
    <title>icons/underlying assets/otc stocks/ic-relianceindustries</title>
    <desc>Created with Sketch.</desc>
    <defs></defs>
    <g id="icons/underlying-assets/otc-stocks/ic-relianceindustries" stroke="none" stroke-width="1" fill="none" fill-rule="evenodd">
        <path d="M21.9963038,23.77326 C21.3106319,24.2452385 20.4093902,24.316049 19.7111709,24.009387 C19.7111709,24.009387 19.5207904,23.9385764 19.3432402,23.7498401 C19.1905018,23.5724923 15.3312857,19.5260043 15.3312857,19.5260043 L15.3187383,19.5140648 C16.512249,19.7147406 17.8197239,19.1839829 18.4925655,18.2165142 C19.165124,17.2962525 19.1402179,15.9866706 18.5053959,15.0664089 C17.7437792,14.0635808 16.2581881,13.7334071 15.0141106,13.8865085 C12.8560553,14.1697508 11.3070669,15.9513112 10.825172,17.8156218 C10.3296919,19.9389281 10.6853583,21.9445843 11.4600883,23.8323147 C11.6373555,24.2334826 11.878869,24.6464064 12.170855,25 C9.89808086,24.0801975 7.89238665,22.3812034 6.83897265,20.1039691 C5.67093408,17.6500298 5.69631187,14.5472234 7.08020314,12.0579247 C8.17182533,10.1350186 10.1012918,8.35345816 12.4880302,7.59823743 C14.9887328,6.64280008 18.3529405,6.84329222 20.7905288,8.11733114 C23.7482202,9.48596782 25.9825031,12.8958955 25.9951449,15.9395554 C26.0967503,19.0896607 24.5983288,21.9445843 21.9963038,23.77326 Z M13.6938996,24.8469904 C12.5896357,23.7376251 11.7007528,22.2984534 12.3738773,20.8002269 C12.9702082,19.6557778 13.5034247,18.4876332 13.7574856,17.1661118 C13.8589024,18.546688 14.7606157,19.7737035 15.1917551,21.095225 C15.3567578,21.7322445 15.3697769,22.3929593 15.1031687,23.0534904 C14.8111826,23.7730763 14.341269,24.3864004 13.7826747,24.9409453 L13.6938996,24.8469904 Z" id="Combined-Shape" fill="#BFA161"></path>
    </g>
</svg>