<?xml version="1.0" encoding="UTF-8"?>
<svg width="32px" height="32px" viewBox="0 0 32 32" version="1.1" xmlns="http://www.w3.org/2000/svg" xmlns:xlink="http://www.w3.org/1999/xlink">
    <!-- Generator: Sketch 49.1 (51147) - http://www.bohemiancoding.com/sketch -->
    <title>icons/underlying assets/otc stocks/ic-riotinto</title>
    <desc>Created with Sketch.</desc>
    <defs></defs>
    <g id="icons/underlying-assets/otc-stocks/ic-riotinto" stroke="none" stroke-width="1" fill="none" fill-rule="evenodd">
        <g id="logo" transform="translate(1.000000, 11.000000)" fill-rule="nonzero">
            <polygon id="Shape" fill="#EB0029" points="0 0 30 0 30 10 0 10"></polygon>
            <path d="M11.2858991,6.425 C10.8305304,6.5 10.4890039,6.125 10.3751617,5.5 C10.2613195,4.9 10.4320828,4.425 10.8589909,4.35 C11.3143596,4.275 11.6558862,4.65 11.7697283,5.275 C11.912031,5.9 11.7412678,6.35 11.2858991,6.425 Z M11.0866753,4.05 C10.2043984,4.05 9.57826649,4.625 9.57826649,5.4 C9.57826649,6.175 10.232859,6.75 11.0866753,6.75 C11.9689521,6.75 12.5950841,6.175 12.5950841,5.4 C12.5950841,4.625 11.9689521,4.05 11.0866753,4.05 Z M24.690815,6.425 C24.2354463,6.5 23.8939198,6.125 23.7800776,5.5 C23.6662354,4.9 23.8369987,4.425 24.2639069,4.35 C24.7192755,4.275 25.0608021,4.65 25.1746442,5.275 C25.2884864,5.9 25.1177232,6.35 24.690815,6.425 Z M24.4915912,4.05 C23.6093144,4.05 22.9831824,4.625 22.9831824,5.4 C22.9831824,6.175 23.6377749,6.75 24.4915912,6.75 C25.373868,6.75 26,6.175 26,5.4 C26,4.625 25.3454075,4.05 24.4915912,4.05 Z M19.8525226,4.725 C19.8809832,4.8 19.9094437,4.9 19.9094437,5.05 L19.9094437,6.7 L21.0194049,6.7 L21.0194049,6.525 C20.8486417,6.525 20.6494179,6.45 20.6494179,6.125 L20.6494179,4.9 C20.6494179,4.225 20.0232859,4.075 19.7102199,4.075 C19.1694696,4.075 18.8848642,4.35 18.7994825,4.525 C18.7994825,4.525 18.7994825,4.2 18.7994825,4.125 L17.7464424,4.125 L17.7464424,4.3 C17.8887451,4.3 18.1164295,4.375 18.1164295,4.675 L18.1164295,6.1 C18.1164295,6.425 17.9172057,6.5 17.7464424,6.5 L17.7464424,6.675 L19.1979301,6.675 L19.1979301,6.5 C19.0271669,6.5 18.8279431,6.425 18.8279431,6.1 L18.8279431,5.175 C18.8279431,5 18.8564036,4.85 18.9133247,4.725 C19.0271669,4.525 19.2263907,4.45 19.3971539,4.45 C19.6248383,4.45 19.767141,4.525 19.8525226,4.725 Z M22.6131953,6.675 L22.6131953,6.5 C22.4424321,6.5 22.2432083,6.425 22.2432083,6.1 C22.2432083,6.025 22.2432083,4.375 22.2432083,4.375 L22.6701164,4.375 L22.6701164,4.1 L22.2432083,4.1 L22.2432083,3.525 L21.8447607,3.525 C21.8447607,3.925 21.4463131,4.2 21.1047865,4.2 L21.1047865,4.375 L21.5032342,4.375 L21.5032342,6.125 C21.5032342,6.525 21.6739974,6.675 22.1578266,6.675 L22.6131953,6.675 Z M14.9003881,3.375 L14.9003881,6.075 C14.9003881,6.4 15.0996119,6.475 15.2703752,6.475 L15.2703752,6.675 L13.7619664,6.675 L13.7619664,6.475 C13.9042691,6.475 14.1319534,6.4 14.1319534,6.075 L14.1319534,3.375 C14.0465718,3.375 13.9327296,3.375 13.7619664,3.375 C13.3350582,3.375 13.164295,3.475 13.164295,3.775 L12.9081501,3.775 L12.9081501,3.025 L16.0957309,3.025 L16.0957309,3.775 L15.839586,3.775 C15.839586,3.475 15.6972833,3.375 15.2419146,3.375 C15.1280724,3.375 14.9003881,3.375 14.9003881,3.375 Z M5.13842173,3.375 L5.13842173,4.2 L5.13842173,5.05 L5.13842173,6.075 C5.13842173,6.4 5.33764554,6.475 5.5084088,6.475 L5.5084088,6.675 L4,6.675 L4,6.475 C4.14230272,6.475 4.36998706,6.4 4.36998706,6.075 L4.36998706,5.05 L4.36998706,4.2 L4.36998706,3.6 C4.36998706,3.275 4.17076326,3.2 4,3.2 L4,3 L5.87839586,3 C7.01681759,3 7.30142303,3.525 7.30142303,3.95 C7.30142303,4.425 6.93143596,4.75 6.39068564,4.825 C6.95989651,4.85 7.30142303,6.15 7.69987063,6.625 C7.75679172,6.7 7.89909444,6.8 8.0698577,6.8 C8.0698577,6.8 8.09831824,6.8 8.09831824,6.8 L8.09831824,7 L7.64294955,7 C7.32988357,7 6.98835705,6.875 6.84605433,6.7 C6.3622251,6.125 6.16300129,4.9 5.56532988,4.875 C5.56532988,4.875 5.5084088,4.875 5.5084088,4.875 L5.5084088,4.65 C5.5084088,4.65 5.53686934,4.65 5.56532988,4.65 C6.30530401,4.65 6.44760673,4.3 6.44760673,4 C6.44760673,3.65 6.30530401,3.35 5.65071151,3.35 C5.47994825,3.35 5.13842173,3.375 5.13842173,3.375 Z M17.1203105,3.55 C17.1203105,3.725 16.9495472,3.85 16.7218629,3.85 C16.4941785,3.85 16.3234153,3.725 16.3234153,3.55 C16.3234153,3.375 16.4941785,3.25 16.7218629,3.25 C16.9495472,3.25 17.1203105,3.375 17.1203105,3.55 Z M17.4902975,6.675 L17.4902975,6.5 C17.3195343,6.5 17.1203105,6.425 17.1203105,6.1 L17.1203105,4.1 L16.0103493,4.1 L16.0103493,4.275 C16.152652,4.275 16.3803364,4.35 16.3803364,4.65 L16.3803364,6.075 C16.3803364,6.4 16.1811125,6.475 16.0103493,6.475 L16.0103493,6.65 L17.4902975,6.675 Z M8.12677878,6.675 L8.12677878,4.675 C8.12677878,4.35 7.92755498,4.3 7.75679172,4.3 L7.75679172,4.125 L8.86675291,4.125 L8.86675291,6.125 C8.86675291,6.45 9.06597671,6.525 9.23673997,6.525 L9.23673997,6.7 L8.12677878,6.675 Z M8.89521345,3.55 C8.89521345,3.725 8.72445019,3.85 8.49676585,3.85 C8.2690815,3.85 8.09831824,3.725 8.09831824,3.55 C8.09831824,3.375 8.2690815,3.25 8.49676585,3.25 C8.72445019,3.25 8.89521345,3.375 8.89521345,3.55 Z" id="Shape" fill="#FFFFFF"></path>
        </g>
    </g>
</svg>