<?xml version="1.0" encoding="UTF-8"?>
<svg width="32px" height="32px" viewBox="0 0 32 32" version="1.1" xmlns="http://www.w3.org/2000/svg" xmlns:xlink="http://www.w3.org/1999/xlink">
    <!-- Generator: Sketch 49.1 (51147) - http://www.bohemiancoding.com/sketch -->
    <title>icons/underlying assets/otc stocks/ic-sap</title>
    <desc>Created with Sketch.</desc>
    <defs>
        <linearGradient x1="50%" y1="0%" x2="50%" y2="100.002222%" id="linearGradient-1">
            <stop stop-color="#00AEEF" offset="0%"></stop>
            <stop stop-color="#0097DC" offset="21.2%"></stop>
            <stop stop-color="#007CC5" offset="51.9%"></stop>
            <stop stop-color="#006CB8" offset="79.2%"></stop>
            <stop stop-color="#0066B3" offset="100%"></stop>
        </linearGradient>
    </defs>
    <g id="icons/underlying-assets/otc-stocks/ic-sap" stroke="none" stroke-width="1" fill="none" fill-rule="evenodd">
        <g id="sap-logo-svg" transform="translate(1.000000, 9.000000)">
            <polyline id="Shape" fill="url(#linearGradient-1)" points="0 15 14.9915217 15 29.6628261 0 0 0 0 15"></polyline>
            <path d="M17.6034783,3 L14.673913,3 L14.6836957,10.0433333 L12.1327174,2.99766667 L9.60326087,2.99766667 L7.42565217,8.882 C7.19413043,7.38466667 5.67978261,6.868 4.48826087,6.481 C3.70141304,6.22266667 2.86630435,5.84266667 2.87478261,5.42266667 C2.88130435,5.078 3.32152174,4.75833333 4.19641304,4.806 C4.78336957,4.83833333 5.30184783,4.88666667 6.33326087,5.396 L7.3473913,3.58933333 C6.40695652,3.1 5.10652174,2.791 4.04021739,2.79 L4.03369565,2.79 C2.79032609,2.79 1.755,3.20166667 1.11326087,3.88 C0.665869565,4.35333333 0.424565217,4.95533333 0.414782609,5.621 C0.398478261,6.537 0.726847826,7.18633333 1.41684783,7.70533333 C1.9998913,8.142 2.74565217,8.42533333 3.40271739,8.63333333 C4.21304348,8.89 4.875,9.11333333 4.86684783,9.58866667 C4.86032609,9.762 4.79641304,9.924 4.67445652,10.0546667 C4.47228261,10.268 4.1625,10.348 3.73369565,10.3566667 C2.90641304,10.3746667 2.29336957,10.2416667 1.31641304,9.65133333 L0.414130435,11.4813333 C1.3901087,12.0486667 2.42608696,12.3333333 3.60326087,12.3333333 L3.86804348,12.3313333 C4.8926087,12.3123333 5.72413043,12.0613333 6.38478261,11.518 C6.4226087,11.487 6.45652174,11.4556667 6.49173913,11.424 L6.38086957,12.008 L8.8526087,12 L9.29608696,10.8393333 C9.7623913,11.002 10.2926087,11.092 10.8554348,11.092 C11.403913,11.092 11.9197826,11.0066667 12.3772826,10.8533333 L12.686413,12 L17.1211957,12.0043333 L17.1319565,9.35833333 L18.0756522,9.35833333 C20.3566304,9.35833333 21.705,8.17166667 21.705,6.18166667 C21.7043478,3.96533333 20.3934783,3 17.6034783,3 Z M10.8554348,9.02066667 C10.5146739,9.02066667 10.1951087,8.96 9.92021739,8.85333333 L10.845,5.86833333 L10.8629348,5.86833333 L11.7727174,8.86166667 C11.4988043,8.96166667 11.1867391,9.02066667 10.8551087,9.02066667 L10.8554348,9.02066667 Z M17.775,7.30566667 L17.1313043,7.30566667 L17.1313043,4.9 L17.7753261,4.9 C18.6329348,4.9 19.3177174,5.192 19.3177174,6.08733333 C19.3170652,7.014 18.6329348,7.30566667 17.7753261,7.30566667 L17.775,7.30566667 Z" id="Shape" fill="#FFFFFF"></path>
            <polygon id="Shape" points="0 0 30 0 30 15 0 15"></polygon>
        </g>
    </g>
</svg>