<?xml version="1.0" encoding="UTF-8"?>
<svg width="32px" height="32px" viewBox="0 0 32 32" version="1.1" xmlns="http://www.w3.org/2000/svg" xmlns:xlink="http://www.w3.org/1999/xlink">
    <!-- Generator: Sketch 49.1 (51147) - http://www.bohemiancoding.com/sketch -->
    <title>icons/underlying assets/otc stocks/ic-standardchartered</title>
    <desc>Created with Sketch.</desc>
    <defs></defs>
    <g id="icons/underlying-assets/otc-stocks/ic-standardchartered" stroke="none" stroke-width="1" fill="none" fill-rule="evenodd">
        <g id="Group-2" transform="translate(7.000000, 3.000000)" fill-rule="nonzero">
            <path d="M6.32951613,24.1108491 C5.65935484,24.4995283 5.05064516,24.7316038 4.41145161,24.7316038 C2.75806452,24.7316038 1.3766129,23.4125 1.29677419,21.8259434 L4.51814516,19.9542453 L9.52620968,22.1367925 L6.32951613,24.1108491 Z" id="Shape" fill="#83B8D7"></path>
            <path d="M8.24443548,16.0726415 L5.85266129,15.0459906 C4.78330645,14.579717 3.77443548,14.192217 3.77443548,13.045283 C3.77443548,12.4509434 3.95975806,12.1391509 4.25153226,11.8290094 L9.31209677,14.0035377 L8.05645161,14.709434 C7.71145161,14.9162736 7.47217742,15.0981132 7.47217742,15.3580189 C7.47217742,15.6386792 7.80120968,15.8768868 8.24443548,16.0726415" id="Shape" fill="#B3D3A2"></path>
            <path d="M10.5943548,5.30990566 L8.1416129,6.76084906 C7.92387097,6.88867925 7.63282258,7.09575472 7.63282258,7.41415094 C7.63282258,7.77641509 8.19846774,8.05377358 8.70169355,8.28726415 L5.63298387,6.96745283 C4.72814516,6.57924528 3.82669355,6.13867925 3.82669355,5.07641509 C3.82669355,4.62971698 3.95879032,4.26745283 4.17169355,3.95849057 L10.8062903,0.0054245283 C11.6017742,0.44504717 12.3728226,1.33372642 12.3728226,2.52523585 C12.3728226,3.80165094 11.7099194,4.65566038 10.5945968,5.30966981" id="Shape" fill="#83B8D7"></path>
            <path d="M15.8121774,9.98349057 L15.2025,10.3198113 L10.1344355,8.13891509 L16.0255645,4.68183962 C16.8210484,5.12924528 17.6000806,6.00849057 17.6000806,7.20023585 C17.6000806,8.47570755 16.9553226,9.35542453 15.8121774,9.98325472" id="Shape" fill="#B3D3A2"></path>
            <path d="M11.5342742,14.178066 L14.5323387,15.4625 C15.6554032,15.9525943 16.0001613,16.5285377 16.0001613,17.2554245 C16.0001613,17.6686321 15.761129,18.0832547 15.4166129,18.3695755 L10.3756452,16.1863208 L11.2284677,15.7198113 C11.9501613,15.3320755 12.1889516,15.0981132 12.1889516,14.8400943 C12.1889516,14.5707547 12.0210484,14.3931604 11.5345161,14.178066" id="Shape" fill="#83B8D7"></path>
            <path d="M16.8766935,24.9646226 C15.6009677,24.0070755 14.2410484,23.3601415 12.5871774,22.6283019 L4.9425,19.3318396 C3.02225806,18.4974057 1.74846774,17.3849057 1.74846774,15.5127358 C1.74846774,13.6931604 2.65209677,12.8122642 3.82669355,12.0886792 L4.25104839,11.8292453 C3.95879032,12.1391509 3.77370968,12.4504717 3.77370968,13.045283 C3.77370968,14.1919811 4.78258065,14.5806604 5.85193548,15.0459906 L14.745,18.8667453 C16.2919355,19.5143868 17.7072581,20.6275943 17.7072581,22.5240566 C17.7072581,23.567217 17.3008065,24.4995283 16.8762097,24.9650943" id="Shape" fill="#26A135"></path>
            <path d="M15.9740323,18.0311321 L15.4166129,18.3693396 C15.7606452,18.0839623 16.0006452,17.6683962 16.0006452,17.2544811 C16.0006452,16.5290094 15.6541935,15.9525943 14.5320968,15.4613208 L5.02233871,11.3811321 C3.10233871,10.5540094 1.90717742,9.48537736 1.90717742,7.62122642 C1.90717742,5.90542453 2.78370968,4.78490566 4.17169355,3.95801887 C3.95927419,4.26698113 3.82620968,4.62948113 3.82620968,5.0759434 C3.82620968,6.1384434 4.72862903,6.57900943 5.6325,6.96745283 L14.8768548,10.9415094 C16.5570968,11.6667453 17.9179839,12.7613208 17.9179839,14.7622642 C17.9179839,16.321934 17.1694355,17.3056604 15.9737903,18.0311321" id="Shape" fill="#006EA6"></path>
        </g>
    </g>
</svg>