<?xml version="1.0" encoding="UTF-8"?>
<svg width="32px" height="32px" viewBox="0 0 32 32" version="1.1" xmlns="http://www.w3.org/2000/svg" xmlns:xlink="http://www.w3.org/1999/xlink">
    <!-- Generator: Sketch 49.1 (51147) - http://www.bohemiancoding.com/sketch -->
    <title>icons/underlying assets/otc stocks/ic-siemens</title>
    <desc>Created with Sketch.</desc>
    <defs></defs>
    <g id="icons/underlying-assets/otc-stocks/ic-siemens" stroke="none" stroke-width="1" fill="none" fill-rule="evenodd">
        <g id="Siemens_logo" transform="translate(0.000000, 14.000000)" fill="#009999" fill-rule="nonzero">
            <path d="M3.45796,1.10527559 C3.21356,1.01759843 2.97996,0.952086614 2.75748,0.897244094 C2.53524,0.853582677 2.32388,0.831692913 2.13496,0.831692913 C1.89032,0.831692913 1.71244,0.875354331 1.57904,0.952165354 C1.4456,1.02858268 1.37876,1.12712598 1.37876,1.24759843 C1.37876,1.335 1.41232,1.41169291 1.49,1.47724409 C1.56792,1.5430315 1.69028,1.59767717 1.84588,1.6634252 L2.7464,2.09015748 C3.10228,2.25429134 3.36916,2.44027559 3.55812,2.6592126 C3.74728,2.87818898 3.83608,3.14082677 3.83608,3.43625984 C3.825,3.90673228 3.63604,4.27885827 3.24684,4.55248031 C2.86876,4.82606299 2.35748,4.95740157 1.71248,4.96834646 C1.46784,4.96834646 1.21204,4.95744094 0.93408,4.92468504 C0.6672,4.90255906 0.38924,4.8480315 0.10016,4.78248031 L0.10016,3.80818898 C0.38924,3.90677165 0.65608,3.97255906 0.91184,4.01622047 C1.16764,4.05988189 1.401,4.08173228 1.61236,4.08173228 C1.8792,4.08173228 2.07948,4.03811024 2.21268,3.95070866 C2.35748,3.87397638 2.42404,3.76452756 2.42404,3.62220472 C2.42404,3.5457874 2.40184,3.48 2.34612,3.42531496 C2.2906,3.35952756 2.2016,3.30488189 2.0906,3.25003937 L1.08968,2.8342126 C0.71184,2.67011811 0.43384,2.47322835 0.26688,2.23240157 C0.08908,2.00251969 0,1.73984252 0,1.43350394 C0.01108,0.995787402 0.20028,0.645472441 0.55592,0.393740157 C0.92296,0.131338583 1.41232,0.0109055118 2.03484,0 C2.25732,0 2.50172,0.0218897638 2.7464,0.0546456693 C3.0022,0.0874015748 3.23572,0.131338583 3.45796,0.17507874 L3.45796,1.10527559 Z M5.95968,4.88066929 L4.49216,4.88066929 L4.49216,0.0873622047 L5.95968,0.0873622047 L5.95968,4.88066929 Z M10.68544,0.973937008 L8.50608,0.973937008 L8.50608,2.03551181 L10.39612,2.03551181 L10.39612,2.8342126 L8.50608,2.8342126 L8.50608,3.95066929 L10.72984,3.95066929 L10.72984,4.88062992 L7.09404,4.88062992 L7.09404,0.0873622047 L10.68544,0.0873622047 L10.68544,0.973937008 Z M17.53448,4.88066929 L16.16688,4.88066929 L16.16688,1.7180315 L14.74372,4.9246063 L13.89872,4.9246063 L12.53112,1.7180315 L12.53112,4.88066929 L11.5416,4.88066929 L11.5416,0.0873622047 L13.33152,0.0873622047 L14.5546,3.0203937 L15.8332,0.0873622047 L17.53452,0.0873622047 L17.53452,4.88066929 L17.53448,4.88066929 Z M22.26,0.973937008 L20.09172,0.973937008 L20.09172,2.03551181 L21.98204,2.03551181 L21.98204,2.8342126 L20.09172,2.8342126 L20.09172,3.95066929 L22.30436,3.95066929 L22.30436,4.88062992 L18.66852,4.88062992 L18.66852,0.0873622047 L22.26,0.0873622047 L22.26,0.973937008 Z M27.40796,4.88066929 L25.8514,4.88066929 L24.1056,1.80566929 L24.1056,4.88066929 L23.11612,4.88066929 L23.11612,0.0873622047 L24.71704,0.0873622047 L26.4184,3.10783465 L26.4184,0.0873622047 L27.40796,0.0873622047 L27.40796,4.88066929 Z M31.62192,1.10527559 C31.37724,1.01759843 31.14392,0.952086614 30.92144,0.897244094 C30.6992,0.853582677 30.48784,0.831692913 30.29892,0.831692913 C30.05428,0.831692913 29.86528,0.875354331 29.73188,0.952165354 C29.59844,1.02858268 29.5316,1.12712598 29.5316,1.24759843 C29.5316,1.335 29.56488,1.41169291 29.63172,1.47724409 C29.69832,1.5430315 29.82068,1.59767717 30.00984,1.6634252 L30.91036,2.09019685 C31.26624,2.25433071 31.53312,2.44031496 31.72204,2.67015748 C31.91104,2.88913386 32,3.16271654 32,3.48 C31.98892,3.92862205 31.79996,4.28976378 31.4108,4.55244094 C31.03272,4.82602362 30.51004,4.9573622 29.86528,4.96830709 C29.63172,4.96830709 29.376,4.95740157 29.09796,4.92464567 C28.83112,4.90251969 28.55316,4.84799213 28.264,4.78244094 L28.264,3.80818898 C28.55316,3.90677165 28.81992,3.97255906 29.07572,4.01622047 C29.33156,4.05988189 29.56488,4.08173228 29.77624,4.08173228 C30.04312,4.08173228 30.23208,4.03811024 30.3766,3.9615748 C30.51004,3.88488189 30.57688,3.78629921 30.57688,3.66586614 C30.57688,3.57846457 30.5544,3.49086614 30.49896,3.42531496 C30.44344,3.35952756 30.35448,3.29397638 30.24316,3.25003937 L29.25364,2.8342126 C28.87552,2.67011811 28.60864,2.48413386 28.43088,2.25429134 C28.26408,2.03551181 28.17504,1.76192913 28.17504,1.43350394 C28.18636,0.995787402 28.3642,0.645472441 28.71988,0.393740157 C29.08688,0.131338583 29.5762,0.0109055118 30.19876,0 C30.41012,0 30.64348,0.0218897638 30.88812,0.0546456693 C31.1328,0.0874015748 31.37724,0.131338583 31.62192,0.17507874 L31.62192,1.10527559 Z" id="path7"></path>
        </g>
    </g>
</svg>