<?xml version="1.0" encoding="UTF-8"?>
<svg width="32px" height="32px" viewBox="0 0 32 32" version="1.1" xmlns="http://www.w3.org/2000/svg" xmlns:xlink="http://www.w3.org/1999/xlink">
    <!-- Generator: Sketch 49.1 (51147) - http://www.bohemiancoding.com/sketch -->
    <title>icons/underlying assets/otc stocks/ic-sap</title>
    <desc>Created with Sketch.</desc>
    <defs></defs>
    <g id="icons/underlying-assets/otc-stocks/ic-sap" stroke="none" stroke-width="1" fill="none" fill-rule="evenodd">
        <g id="SAP-Logo" transform="translate(1.000000, 9.000000)">
            <polyline id="path25030" fill="#014185" fill-rule="nonzero" points="0.0402152815 14.954865 15.1335265 14.954865 29.9343338 0.0405405405 0.0402152815 0.0405405405 0.0402152815 14.954865"></polyline>
            <path d="M17.7660808,2.8436477 L14.8410205,2.84305824 L14.8410205,9.8977123 L12.2669674,2.84305824 L9.75141555,2.84305824 L7.52836971,8.74297135 C7.29436488,7.25678757 5.77333351,6.74311054 4.54480818,6.35859 C3.78429249,6.10027703 2.9067744,5.72047459 2.9652756,5.30528676 C2.9652756,4.96086973 3.37478405,4.64476095 4.25230214,4.69194122 C4.83731421,4.72201865 5.36382507,4.77096851 6.41684678,5.27697851 L7.4698685,3.47999392 C6.47534799,2.99403568 5.18832145,2.68677284 4.13529973,2.68559351 C2.84827319,2.68559351 1.79525147,3.09370419 1.1517382,3.77015351 C0.742229759,4.24077851 0.449723727,4.83820054 0.449723727,5.50049595 C0.449723727,6.41166811 0.800730965,7.05804 1.44424424,7.57289635 C2.08775751,8.00636676 2.78977198,8.28885932 3.49178646,8.49586378 C4.31080335,8.75122784 4.95431662,8.97238622 4.95431662,9.44654919 C4.95431662,9.62170662 4.89581542,9.78094054 4.778813,9.9089177 C4.54480818,10.1206399 4.25230214,10.2008465 3.78429249,10.2108726 C2.9652756,10.2262058 2.38026354,10.0946907 1.38574303,9.50906351 L0.449723727,11.3284589 C1.44424424,11.8922651 2.61426836,12.2237076 3.78429249,12.2237076 L3.95979611,12.2225282 C4.95431662,12.2036558 5.83183472,11.9058296 6.47534799,11.3644338 C6.5338492,11.3325872 6.5338492,11.3030992 6.5923504,11.2736116 L6.29984437,12.065653 L8.99089987,12.065653 L9.40040831,10.6927026 C9.86841796,10.8507572 10.3949288,10.9427586 10.9799409,10.9427586 C11.5649529,10.9427586 12.0329626,10.8537057 12.5009723,10.703908 L12.9689819,12.065653 L17.2980712,12.065653 L17.2980712,9.21772419 L18.2925917,9.21772419 C20.5741387,9.21772419 21.9196665,8.03762351 21.9196665,6.05840473 C21.9196665,3.85507824 20.6326399,2.8436477 17.7660808,2.8436477 Z M10.9799409,8.88333284 C10.6289336,8.88333284 10.3364276,8.82199824 10.0439216,8.71466311 L10.9799409,5.74701365 L11.9159602,8.72409892 C11.6234542,8.82553703 11.3309481,8.88333284 10.9799409,8.88333284 Z M17.9415845,7.17658095 L17.2980712,7.17658095 L17.2980712,4.78394311 L17.9415845,4.78394311 C18.8191025,4.78394311 19.521117,5.07351284 19.521117,5.96817203 C19.521117,6.88819054 18.8191025,7.17658095 17.9415845,7.17658095 Z" id="path25032" fill="#FFFFFF"></path>
            <path d="M18.8191025,14.0018201 C18.8191025,13.5459393 19.1701098,13.1985734 19.5796182,13.1985734 C19.9891267,13.1985734 20.3401339,13.5459393 20.3401339,14.0018201 C20.3401339,14.4748038 19.9891267,14.8156824 19.5796182,14.8156824 C19.1701098,14.8156824 18.8191025,14.4748038 18.8191025,14.0018201 Z M19.5796182,14.9772754 C20.1061291,14.9772754 20.5741387,14.5638572 20.5741387,14.0018201 C20.5741387,13.4480396 20.1061291,13.0411086 19.5796182,13.0411086 C19.0531074,13.0411086 18.5850977,13.4480396 18.5850977,14.0018201 C18.5850977,14.5638572 19.0531074,14.9772754 19.5796182,14.9772754 Z M19.4041146,14.0826166 L19.5796182,14.0826166 L19.8721243,14.5638572 L20.0476279,14.5638572 L19.7551218,14.0731804 C19.8721243,14.0531286 20.0476279,13.9664347 20.0476279,13.768277 C20.0476279,13.5459393 19.8721243,13.4480396 19.6381194,13.4480396 L19.228611,13.4480396 L19.228611,14.5638572 L19.4041146,14.5638572 L19.4041146,14.0826166 Z M19.4041146,13.9387164 L19.4041146,13.5901707 L19.6381194,13.5901707 C19.6966206,13.5901707 19.8721243,13.6172996 19.8721243,13.7582509 C19.8721243,13.9275109 19.6966206,13.9387164 19.5796182,13.9387164 L19.4041146,13.9387164 Z" id="path25034" fill="#014185" fill-rule="nonzero"></path>
        </g>
    </g>
</svg>