<?xml version="1.0" encoding="UTF-8"?>
<svg width="32px" height="32px" viewBox="0 0 32 32" version="1.1" xmlns="http://www.w3.org/2000/svg" xmlns:xlink="http://www.w3.org/1999/xlink">
    <!-- Generator: Sketch 49.1 (51147) - http://www.bohemiancoding.com/sketch -->
    <title>icons/underlying assets/otc stocks/ic-tatasteel</title>
    <desc>Created with Sketch.</desc>
    <defs></defs>
    <g id="icons/underlying-assets/otc-stocks/ic-tatasteel" stroke="none" stroke-width="1" fill="none" fill-rule="evenodd">
        <g id="Tata_logo" transform="translate(6.000000, 7.000000)" fill="#486AAE">
            <polygon id="Shape" fill-rule="nonzero" points="0.0291252955 12.8788541 4.83356974 12.8788541 4.83356974 14.3831676 3.45527187 14.3831676 3.45527187 17.9984919 1.45328605 17.9984919 1.45328605 14.3831676 0.0291252955 14.3831676"></polygon>
            <polygon id="Shape" fill-rule="nonzero" points="7.26676123 14.9473946 6.25522459 17.9984919 4.33262411 17.9984919 6.21825059 12.8788541 8.30624113 12.8788541 10.237305 17.9984919 8.29106383 17.9984919"></polygon>
            <polygon id="Shape" fill-rule="nonzero" points="9.77801418 12.8788541 14.5822695 12.8788541 14.5822695 14.3831676 13.2043972 14.3831676 13.2043972 17.9984919 11.2025059 17.9984919 11.2025059 14.3831676 9.77801418 14.3831676"></polygon>
            <polygon id="Shape" fill-rule="nonzero" points="17.0163121 14.9473946 16.0043972 17.9984919 14.0817967 17.9984919 15.9680378 12.8788541 18.0554137 12.8788541 19.9858156 17.9984919 18.0402837 17.9984919"></polygon>
            <path d="M17.0871868,3.47507027 C16.9078014,3.1121027 16.6715366,2.76421622 16.3776359,2.43797838 C15.7171631,1.7045027 14.7852955,1.09415676 13.6825059,0.6732 C12.5706383,0.248983784 11.3024586,0.0245189189 10.0137116,0.0245189189 C8.72496454,0.0245189189 7.45678487,0.248983784 6.34548463,0.6732 C5.24212766,1.09420541 4.31021277,1.70455135 3.64973995,2.43797838 C3.35602837,2.76416757 3.11900709,3.11254054 2.93966903,3.4757027 C4.37536643,3.11847568 6.83120567,2.64682703 9.11148936,2.59696216 C9.33144208,2.5920973 9.48288416,2.66458378 9.58260047,2.79462162 C9.70406619,2.95297297 9.6949409,3.51744324 9.69196217,3.76997838 L9.62713948,10.2971676 C9.75555556,10.3015459 9.88458629,10.3043676 10.0137116,10.3043676 C10.1439243,10.3043676 10.2736643,10.3021784 10.4020804,10.2978 L10.3372577,3.76992973 C10.3339007,3.51744324 10.3244917,2.95292432 10.446383,2.79457297 C10.5463357,2.66458378 10.6972577,2.5920973 10.9171631,2.59691351 C13.1965012,2.64638919 15.651773,3.11813514 17.0871868,3.47507027" id="Shape"></path>
            <path d="M17.3937116,4.32389189 C15.292435,3.83511892 13.8891726,3.74472973 12.5045863,3.66567568 C11.2976832,3.59664324 11.2819385,4.04007568 11.4024113,4.88748649 C11.4103073,4.9392 11.42,5.00438919 11.4314894,5.07872432 C11.8363121,7.54579459 12.3404255,9.66882162 12.4270449,10.0291622 C15.3693617,9.33713514 17.4913002,7.41848108 17.4913002,5.16458919 C17.4913002,4.88077297 17.4579669,4.59958378 17.3937116,4.32389189" id="Shape"></path>
            <path d="M8.62614657,4.88748649 C8.74676123,4.04012432 8.73130024,3.59664324 7.52453901,3.66567568 C6.13947991,3.74472973 4.73588652,3.83507027 2.63380615,4.32418378 C2.56959811,4.59987568 2.53583924,4.88072432 2.53583924,5.16454054 C2.53583924,6.13868108 2.92099291,7.0812973 3.64978723,7.89115135 C4.31026005,8.62462703 5.24217494,9.23497297 6.34553191,9.65622162 C6.74486998,9.80834595 7.16628842,9.93303243 7.60037825,10.0327622 C7.68184397,9.69518919 8.19754137,7.52798919 8.60676123,5.01679459 C8.61432624,4.96868108 8.62132388,4.92426486 8.62614657,4.88748649" id="Shape"></path>
        </g>
    </g>
</svg>