<?xml version="1.0" encoding="UTF-8"?>
<svg width="32px" height="32px" viewBox="0 0 32 32" version="1.1" xmlns="http://www.w3.org/2000/svg" xmlns:xlink="http://www.w3.org/1999/xlink">
    <!-- Generator: Sketch 49.1 (51147) - http://www.bohemiancoding.com/sketch -->
    <title>icons/underlying assets/otc stocks/ic-tesco</title>
    <desc>Created with Sketch.</desc>
    <defs></defs>
    <g id="icons/underlying-assets/otc-stocks/ic-tesco" stroke="none" stroke-width="1" fill="none" fill-rule="evenodd">
        <g id="tesco" transform="translate(1.000000, 12.000000)" fill-rule="nonzero">
            <path d="M2.29411765,6.42857143 L5.94117647,6.42857143 C5.97058824,6.42857143 5.97058824,6.45714286 5.94117647,6.45714286 C5.5,6.62857143 4.91176471,7.17142857 4.91176471,7.17142857 C4.5,7.51428571 4.17647059,7.74285714 3.5,7.74285714 L0.0294117647,7.74285714 C1.12757026e-16,7.74285714 1.12757026e-16,7.71428571 0.0294117647,7.71428571 C0.411764706,7.51428571 0.970588235,6.97142857 0.970588235,6.97142857 C1.20588235,6.74285714 1.67647059,6.42857143 2.29411765,6.42857143 Z" id="Shape" fill="#0A55A0"></path>
            <path d="M26.1470588,6.42857143 L29.7941176,6.42857143 C29.8235294,6.42857143 29.8235294,6.45714286 29.7941176,6.45714286 C29.3823529,6.62857143 28.7941176,7.17142857 28.7941176,7.17142857 C28.3823529,7.51428571 28.0588235,7.74285714 27.3823529,7.74285714 L23.8823529,7.74285714 C23.8529412,7.74285714 23.8529412,7.71428571 23.8823529,7.71428571 C24.2647059,7.51428571 24.8235294,6.97142857 24.8235294,6.97142857 C25.0882353,6.74285714 25.5588235,6.42857143 26.1470588,6.42857143 Z" id="Shape" fill="#0A55A0"></path>
            <path d="M8.26470588,6.42857143 L11.9117647,6.42857143 C11.9411765,6.42857143 11.9411765,6.45714286 11.9117647,6.45714286 C11.5,6.62857143 10.9117647,7.17142857 10.9117647,7.17142857 C10.5,7.51428571 10.1764706,7.74285714 9.5,7.74285714 L6.02941176,7.74285714 C6,7.74285714 6,7.71428571 6.02941176,7.71428571 C6.41176471,7.51428571 6.97058824,6.97142857 6.97058824,6.97142857 C7.17647059,6.74285714 7.64705882,6.42857143 8.26470588,6.42857143 Z" id="Shape" fill="#0A55A0"></path>
            <path d="M14.2058824,6.42857143 L17.8529412,6.42857143 C17.8823529,6.42857143 17.8823529,6.45714286 17.8529412,6.45714286 C17.4411765,6.62857143 16.8529412,7.17142857 16.8529412,7.17142857 C16.4411765,7.51428571 16.1176471,7.74285714 15.4411765,7.74285714 L11.9705882,7.74285714 C11.9411765,7.74285714 11.9411765,7.71428571 11.9705882,7.71428571 C12.3529412,7.51428571 12.9117647,6.97142857 12.9117647,6.97142857 C13.1470588,6.74285714 13.6176471,6.42857143 14.2058824,6.42857143 Z" id="Shape" fill="#0A55A0"></path>
            <path d="M20.1764706,6.42857143 L23.8235294,6.42857143 C23.8529412,6.42857143 23.8529412,6.45714286 23.8235294,6.45714286 C23.4117647,6.62857143 22.8235294,7.17142857 22.8235294,7.17142857 C22.4117647,7.51428571 22.0882353,7.74285714 21.4117647,7.74285714 L17.9411765,7.74285714 C17.9117647,7.74285714 17.9117647,7.71428571 17.9411765,7.71428571 C18.3235294,7.51428571 18.8823529,6.97142857 18.8823529,6.97142857 C19.1176471,6.74285714 19.5882353,6.42857143 20.1764706,6.42857143 Z" id="Shape" fill="#0A55A0"></path>
            <path d="M21.1764706,0.0285714286 C18.8823529,0.0285714286 17.3823529,1.08571429 17.3823529,2.71428571 C17.3823529,4.2 18.7647059,5.2 20.8529412,5.2 C21.5294118,5.2 22.1176471,5.11428571 22.8235294,4.94285714 L22.8235294,3.68571429 C22.3235294,4.2 21.7352941,4.4 21.0882353,4.4 C19.8529412,4.4 19.0294118,3.65714286 19.0294118,2.57142857 C19.0294118,1.51428571 19.9117647,0.742857143 21.1176471,0.742857143 C21.7941176,0.742857143 22.3235294,0.971428571 22.7352941,1.37142857 L22.7352941,0.171428571 C22.2941176,0.0571428571 21.7352941,0.0285714286 21.1764706,0.0285714286 Z" id="Shape" fill="#E52922"></path>
            <path d="M3.97058824,0.885714286 C4.82352941,0.885714286 5.82352941,1.02857143 6.26470588,1.37142857 L6.26470588,0.171428571 L0.205882353,0.171428571 L0.205882353,1.37142857 C0.647058824,1.05714286 1.52941176,0.914285714 2.5,0.914285714 L2.5,4.17142857 C2.5,4.65714286 2.47058824,4.77142857 2.23529412,5.02857143 L4.17647059,5.02857143 C3.97058824,4.77142857 3.91176471,4.62857143 3.91176471,4.17142857 L3.91176471,0.885714286 L3.97058824,0.885714286 Z" id="Shape" fill="#E52922"></path>
            <path d="M10.2352941,2.08571429 C9.88235294,2.2 9.26470588,2.22857143 8.94117647,2.22857143 L8.44117647,2.22857143 L8.44117647,0.942857143 L9.11764706,0.942857143 C9.73529412,0.942857143 10.7941176,1.05714286 11.1764706,1.4 L11.1764706,0.171428571 L6.79411765,0.171428571 C7,0.428571429 7.02941176,0.571428571 7.02941176,1.02857143 L7.02941176,4.17142857 C7.02941176,4.65714286 7,4.8 6.79411765,5.02857143 L11.4705882,5.02857143 L11.4705882,3.85714286 C10.8235294,4.31428571 9.61764706,4.31428571 9.11764706,4.28571429 L8.44117647,4.28571429 L8.44117647,2.94285714 L8.94117647,2.94285714 C9.29411765,2.94285714 9.88235294,2.97142857 10.2352941,3.08571429 L10.2352941,2.08571429 Z" id="Shape" fill="#E52922"></path>
            <path d="M16.7352941,0.342857143 C16.0588235,0.142857143 15.1176471,0 14.4411765,0 C13.1764706,0 11.9411765,0.371428571 11.9411765,1.6 C11.9411765,3.71428571 15.7647059,2.6 15.7647059,3.88571429 C15.7647059,4.31428571 15.0882353,4.48571429 14.5588235,4.48571429 C13.5882353,4.48571429 12.8823529,4.34285714 12.0294118,3.85714286 L12.0294118,4.91428571 C12.6764706,5.11428571 13.5294118,5.22857143 14.5,5.22857143 C15.8235294,5.22857143 17.0588235,4.88571429 17.0588235,3.65714286 C17.0588235,1.42857143 13.2352941,2.42857143 13.2352941,1.34285714 C13.2352941,0.914285714 13.8529412,0.742857143 14.3823529,0.742857143 C15.2941176,0.742857143 16.2647059,1 16.7941176,1.48571429 L16.7941176,0.342857143 L16.7352941,0.342857143 Z" id="Shape" fill="#E52922"></path>
            <path d="M24.6470588,2.62857143 C24.6470588,1.6 25.3235294,0.771428571 26.3529412,0.771428571 C27.3823529,0.771428571 28.0588235,1.6 28.0588235,2.62857143 C28.0882353,3.62857143 27.4117647,4.45714286 26.3823529,4.45714286 C25.3235294,4.45714286 24.6470588,3.62857143 24.6470588,2.62857143 Z M29.6176471,2.57142857 C29.6176471,1.02857143 28.3823529,0 26.5294118,0 C24.5294118,0.0285714286 23.1470588,1.11428571 23.1470588,2.68571429 C23.1470588,4.2 24.4117647,5.22857143 26.2647059,5.22857143 C28.2352941,5.22857143 29.6176471,4.14285714 29.6176471,2.57142857 Z" id="Shape" fill="#E52922"></path>
        </g>
    </g>
</svg>