<?xml version="1.0" encoding="UTF-8"?>
<svg width="16px" height="16px" viewBox="0 0 16 16" version="1.1" xmlns="http://www.w3.org/2000/svg" xmlns:xlink="http://www.w3.org/1999/xlink">
    <!-- Generator: Sketch 49 (51002) - http://www.bohemiancoding.com/sketch -->
    <title>icons/system/light/anchor/ic-anchor</title>
    <desc>Created with Sketch.</desc>
    <defs></defs>
    <g id="icons/system/light/anchor/ic-anchor" stroke="none" stroke-width="1" fill="none" fill-rule="evenodd">
        <path d="M11.5,7 C11.2238576,7 11,6.77614237 11,6.5 C11,6.22385763 11.2238576,6 11.5,6 L13,6 C14.6568542,6 16,7.34314575 16,9 C16,10.6568542 14.6568542,12 13,12 L9,12 C7.34314575,12 6,10.6568542 6,9 C6,8.02423503 6.46974622,7.12621782 7.24585135,6.56605877 C7.46976371,6.40444854 7.78229152,6.45495439 7.94390175,6.67886674 C8.10551199,6.9027791 8.05500614,7.21530691 7.83109378,7.37691714 C7.31273912,7.75104307 7,8.34890869 7,9 C7,10.1045695 7.8954305,11 9,11 L13,11 C14.1045695,11 15,10.1045695 15,9 C15,7.8954305 14.1045695,7 13,7 L11.5,7 Z M4.5,9 C4.77614237,9 5,9.22385763 5,9.5 C5,9.77614237 4.77614237,10 4.5,10 L3,10 C1.34314575,10 2.66453526e-16,8.65685425 0,7 C-1.99840144e-16,5.34314575 1.34314575,4 3,4 L7,4 C8.65685425,4 10,5.34314575 10,7 C10,7.9512091 9.55369592,8.82930139 8.81002527,9.39262208 C8.58990492,9.55936034 8.27629407,9.5160856 8.10955581,9.29596526 C7.94281756,9.07584491 7.98609229,8.76223405 8.20621264,8.5954958 C8.70292017,8.2192464 9,7.63474916 9,7 C9,5.8954305 8.1045695,5 7,5 L3,5 C1.8954305,5 1,5.8954305 1,7 C1,8.1045695 1.8954305,9 3,9 L4.5,9 Z" id="Combined-Shape" fill="#2A3052" fill-rule="nonzero"></path>
    </g>
</svg>