<?xml version="1.0" encoding="UTF-8"?>
<svg width="32px" height="32px" viewBox="0 0 32 32" version="1.1" xmlns="http://www.w3.org/2000/svg" xmlns:xlink="http://www.w3.org/1999/xlink">
    <!-- Generator: Sketch 57.1 (83088) - https://sketch.com -->
    <title>Volatility 75</title>
    <desc>Created with Sketch.</desc>
    <g id="Volatility-75" stroke="none" stroke-width="1" fill="none" fill-rule="evenodd">
        <g>
            <rect id="Rectangle" x="0" y="0" width="32" height="32"></rect>
            <rect id="Rectangle" fill="#2A2A2A" fill-rule="nonzero" x="19" y="2" width="11" height="8" rx="1"></rect>
            <path d="M21.648,8.188 L23.166,4.558 L21.582,4.558 L21.582,5.332 L21,5.332 L21,4 L23.838,4 L23.838,4.588 L22.362,8.188 L21.648,8.188 Z M27.664,4.588 L25.804,4.588 L25.696,6.07 L25.738,6.07 C25.7860002,5.98599958 25.8359997,5.91100033 25.888,5.845 C25.9400003,5.77899967 26,5.72200024 26.068,5.674 C26.1360003,5.62599976 26.2139996,5.58900013 26.302,5.563 C26.3900004,5.53699987 26.4939994,5.524 26.614,5.524 C26.7940009,5.524 26.9609992,5.5539997 27.115,5.614 C27.2690008,5.6740003 27.4029994,5.75999944 27.517,5.872 C27.6310006,5.98400056 27.7199997,6.12099919 27.784,6.283 C27.8480003,6.44500081 27.88,6.62799898 27.88,6.832 C27.88,7.04000104 27.8470003,7.23199912 27.781,7.408 C27.7149997,7.58400088 27.6180006,7.73499937 27.49,7.861 C27.3619994,7.98700063 27.2050009,8.08499965 27.019,8.155 C26.8329991,8.22500035 26.6220012,8.26 26.386,8.26 C26.1979991,8.26 26.0320007,8.23900021 25.888,8.197 C25.7439993,8.15499979 25.6170006,8.09900035 25.507,8.029 C25.3969995,7.95899965 25.3010004,7.87900045 25.219,7.789 C25.1369996,7.69899955 25.0640003,7.60600048 25,7.51 L25.492,7.12 C25.5440003,7.20400042 25.5979997,7.27999966 25.654,7.348 C25.7100003,7.41600034 25.7739996,7.47599974 25.846,7.528 C25.9180004,7.58000026 25.9989996,7.61999986 26.089,7.648 C26.1790005,7.67600014 26.2819994,7.69 26.398,7.69 C26.6460012,7.69 26.8369993,7.62200068 26.971,7.486 C27.1050007,7.34999932 27.172,7.1620012 27.172,6.922 L27.172,6.85 C27.172,6.6099988 27.1050007,6.42200068 26.971,6.286 C26.8369993,6.14999932 26.6460012,6.082 26.398,6.082 C26.2179991,6.082 26.0740005,6.11599966 25.966,6.184 C25.8579995,6.25200034 25.7660004,6.32799958 25.69,6.412 L25.132,6.334 L25.288,4 L27.664,4 L27.664,4.588 Z" id="75" fill="#FFFFFF" fill-rule="nonzero"></path>
            <path d="M6.87,7.15 C6.7761167,7.05534367 6.64831877,7.00210084 6.515,7.00210084 C6.38168123,7.00210084 6.2538833,7.05534367 6.16,7.15 L5,8.31 L5,5.5 C5,5.22385763 4.77614237,5 4.5,5 C4.22385763,5 4,5.22385763 4,5.5 L4,8.28 L2.87,7.15 C2.7761167,7.05534367 2.64831877,7.00210084 2.515,7.00210084 C2.38168123,7.00210084 2.2538833,7.05534367 2.16,7.15 C2.06332277,7.24073333 2.00848135,7.36741409 2.00848135,7.5 C2.00848135,7.63258591 2.06332277,7.75926667 2.16,7.85 L4.16,9.85 C4.24924134,9.94270378 4.37136746,9.99658294 4.5,10 L4.5,10 C4.63513358,9.99966896 4.76461171,9.94571974 4.86,9.85 L6.86,7.85 C7.05337596,7.6583122 7.05782137,7.34713347 6.87,7.15 Z" id="Path" fill="#EF4852" fill-rule="nonzero"></path>
            <path d="M26.08,13 L25.08,13 C24.8038576,13 24.58,12.7761424 24.58,12.5 C24.58,12.2238576 24.8038576,12 25.08,12 L26.08,12 C26.3561424,12 26.58,12.2238576 26.58,12.5 C26.58,12.7761424 26.3561424,13 26.08,13 Z M23.19,13 L22.19,13 C21.9138576,13 21.69,12.7761424 21.69,12.5 C21.69,12.2238576 21.9138576,12 22.19,12 L23.19,12 C23.4661424,12 23.69,12.2238576 23.69,12.5 C23.69,12.7761424 23.4661424,13 23.19,13 Z M20.31,13 L19.31,13 C19.0338576,13 18.81,12.7761424 18.81,12.5 C18.81,12.2238576 19.0338576,12 19.31,12 L20.31,12 C20.5861424,12 20.81,12.2238576 20.81,12.5 C20.81,12.7761424 20.5861424,13 20.31,13 Z M17.42,13 L16.42,13 C16.1438576,13 15.92,12.7761424 15.92,12.5 C15.92,12.2238576 16.1438576,12 16.42,12 L17.42,12 C17.6961424,12 17.92,12.2238576 17.92,12.5 C17.92,12.7761424 17.6961424,13 17.42,13 Z M14.54,13 L13.54,13 C13.2638576,13 13.04,12.7761424 13.04,12.5 C13.04,12.2238576 13.2638576,12 13.54,12 L14.54,12 C14.8161424,12 15.04,12.2238576 15.04,12.5 C15.04,12.7761424 14.8161424,13 14.54,13 Z M11.65,13 L10.65,13 C10.3738576,13 10.15,12.7761424 10.15,12.5 C10.15,12.2238576 10.3738576,12 10.65,12 L11.65,12 C11.9261424,12 12.15,12.2238576 12.15,12.5 C12.15,12.7761424 11.9261424,13 11.65,13 Z M8.77,13 L7.77,13 C7.49385763,13 7.27,12.7761424 7.27,12.5 C7.27,12.2238576 7.49385763,12 7.77,12 L8.77,12 C9.04614237,12 9.27,12.2238576 9.27,12.5 C9.27,12.7761424 9.04614237,13 8.77,13 Z M5.88,13 L4.88,13 C4.60385763,13 4.38,12.7761424 4.38,12.5 C4.38,12.2238576 4.60385763,12 4.88,12 L5.88,12 C6.15614237,12 6.38,12.2238576 6.38,12.5 C6.38,12.7761424 6.15614237,13 5.88,13 Z" id="Shape" fill="#E4E4E4" fill-rule="nonzero"></path>
            <path d="M3,13 L2.5,13 C2.22385763,13 2,12.7761424 2,12.5 C2,12.2238576 2.22385763,12 2.5,12 L3,12 C3.27614237,12 3.5,12.2238576 3.5,12.5 C3.5,12.7761424 3.27614237,13 3,13 Z" id="Path" fill="#E4E4E4" fill-rule="nonzero"></path>
            <path d="M29.5,23 L29,23 C28.7238576,23 28.5,22.7761424 28.5,22.5 C28.5,22.2238576 28.7238576,22 29,22 L29.5,22 C29.7761424,22 30,22.2238576 30,22.5 C30,22.7761424 29.7761424,23 29.5,23 Z" id="Path" fill="#E4E4E4" fill-rule="nonzero"></path>
            <path d="M27.08,23 L26.08,23 C25.8038576,23 25.58,22.7761424 25.58,22.5 C25.58,22.2238576 25.8038576,22 26.08,22 L27.08,22 C27.3561424,22 27.58,22.2238576 27.58,22.5 C27.58,22.7761424 27.3561424,23 27.08,23 Z M24.19,23 L23.19,23 C22.9138576,23 22.69,22.7761424 22.69,22.5 C22.69,22.2238576 22.9138576,22 23.19,22 L24.19,22 C24.4661424,22 24.69,22.2238576 24.69,22.5 C24.69,22.7761424 24.4661424,23 24.19,23 Z M21.31,23 L20.31,23 C20.0338576,23 19.81,22.7761424 19.81,22.5 C19.81,22.2238576 20.0338576,22 20.31,22 L21.31,22 C21.5861424,22 21.81,22.2238576 21.81,22.5 C21.81,22.7761424 21.5861424,23 21.31,23 Z M18.42,23 L17.42,23 C17.1438576,23 16.92,22.7761424 16.92,22.5 C16.92,22.2238576 17.1438576,22 17.42,22 L18.42,22 C18.6961424,22 18.92,22.2238576 18.92,22.5 C18.92,22.7761424 18.6961424,23 18.42,23 Z M15.54,23 L14.54,23 C14.2638576,23 14.04,22.7761424 14.04,22.5 C14.04,22.2238576 14.2638576,22 14.54,22 L15.54,22 C15.8161424,22 16.04,22.2238576 16.04,22.5 C16.04,22.7761424 15.8161424,23 15.54,23 Z M12.65,23 L11.65,23 C11.3738576,23 11.15,22.7761424 11.15,22.5 C11.15,22.2238576 11.3738576,22 11.65,22 L12.65,22 C12.9261424,22 13.15,22.2238576 13.15,22.5 C13.15,22.7761424 12.9261424,23 12.65,23 Z M9.77,23 L8.77,23 C8.49385763,23 8.27,22.7761424 8.27,22.5 C8.27,22.2238576 8.49385763,22 8.77,22 L9.77,22 C10.0461424,22 10.27,22.2238576 10.27,22.5 C10.27,22.7761424 10.0461424,23 9.77,23 Z M6.88,23 L5.88,23 C5.60385763,23 5.38,22.7761424 5.38,22.5 C5.38,22.2238576 5.60385763,22 5.88,22 L6.88,22 C7.15614237,22 7.38,22.2238576 7.38,22.5 C7.38,22.7761424 7.15614237,23 6.88,23 Z" id="Shape" fill="#E4E4E4" fill-rule="nonzero"></path>
            <path d="M29.85,27.15 L27.85,25.15 C27.8077479,25.0993713 27.7524014,25.0613206 27.69,25.04 C27.5682693,24.989991 27.4317307,24.989991 27.31,25.04 C27.2475986,25.0613206 27.1922521,25.0993713 27.15,25.15 L25.15,27.15 C25.024957,27.275043 24.9761222,27.457297 25.0218911,27.6281089 C25.06766,27.7989207 25.2010793,27.93234 25.3718911,27.9781089 C25.542703,28.0238778 25.724957,27.975043 25.85,27.85 L27,26.71 L27,29.5 C27,29.7761424 27.2238576,30 27.5,30 C27.7761424,30 28,29.7761424 28,29.5 L28,26.71 L29.15,27.85 C29.2407333,27.9466772 29.3674141,28.0015186 29.5,28.0015186 C29.6325859,28.0015186 29.7592667,27.9466772 29.85,27.85 C29.9466772,27.7592667 30.0015186,27.6325859 30.0015186,27.5 C30.0015186,27.3674141 29.9466772,27.2407333 29.85,27.15 Z" id="Path" fill="#84AAAF" fill-rule="nonzero"></path>
            <path d="M28.5,12 C27.9626082,12.0011504 27.4668909,12.2896941 27.2004917,12.756409 C26.9340925,13.2231239 26.9377196,13.7966916 27.21,14.26 L24,18.1 L24,18.1 C23.8339684,18.0360934 23.657892,18.0022325 23.48,18 C23.2005295,18.00258 22.9271804,18.0821626 22.69,18.23 L19.91,16 C19.9709103,15.840402 20.001435,15.6708201 20,15.5 C20.0056556,14.88105 19.6305426,14.322187 19.0555794,14.0929527 C18.4806162,13.8637185 17.8238904,14.0111937 17.4021435,14.4642506 C16.9803966,14.9173075 16.8802481,15.5828959 17.15,16.14 L14.15,19.14 C13.9464267,19.0456175 13.7243775,18.9977915 13.5,19 C13.1517239,18.9996233 12.8147852,19.1237586 12.55,19.35 L10,17.8 C10.0098276,17.7002415 10.0098276,17.5997585 10,17.5 C10,16.6715729 9.32842712,16 8.5,16 C7.67157288,16 7,16.6715729 7,17.5 C6.99980041,17.6674612 7.03030468,17.8335399 7.09,17.99 L4.29,20.23 C4.05281956,20.0821626 3.77947055,20.00258 3.5,20 C2.67157288,20 2,20.6715729 2,21.5 C2,22.3284271 2.67157288,23 3.5,23 C4.32842712,23 5,22.3284271 5,21.5 C5.00143503,21.3291799 4.97091029,21.159598 4.91,21 L4.91,21 L7.71,18.76 C7.94614553,18.9113578 8.21956679,18.9944225 8.5,19 C8.8482761,19.0003767 9.18521479,18.8762414 9.45,18.65 L9.45,18.65 L12,20.2 L12,20.2 C11.9901724,20.2997585 11.9901724,20.4002415 12,20.5 C11.9943444,21.11895 12.3694574,21.677813 12.9444206,21.9070473 C13.5193838,22.1362815 14.1761096,21.9888063 14.5978565,21.5357494 C15.0196034,21.0826925 15.1197519,20.4171041 14.85,19.86 L17.85,16.86 C18.3079015,17.0850266 18.850055,17.0546963 19.28,16.78 L22.09,19 L22.09,19 C22.0303047,19.1564601 21.9998004,19.3225388 22,19.49 C21.9977092,20.1234405 22.3935799,20.6900409 22.9891606,20.9057625 C23.5847413,21.121484 24.2516357,20.939821 24.6555273,20.4518418 C25.0594189,19.9638626 25.113236,19.2747665 24.79,18.73 L24.79,18.73 L28,14.9 L28,14.9 C28.5661836,15.1172246 29.2074653,14.9721664 29.6250405,14.532415 C30.0426158,14.0926637 30.1543267,13.4447402 29.9081217,12.890544 C29.6619167,12.3363478 29.1062366,11.9849168 28.5,12 Z M3.5,22 C3.22385763,22 3,21.7761424 3,21.5 C3,21.2238576 3.22385763,21 3.5,21 C3.77614237,21 4,21.2238576 4,21.5 C4,21.7761424 3.77614237,22 3.5,22 Z M8.5,18 C8.22385763,18 8,17.7761424 8,17.5 C8,17.2238576 8.22385763,17 8.5,17 C8.77614237,17 9,17.2238576 9,17.5 C9,17.7761424 8.77614237,18 8.5,18 Z M13.5,21 C13.2238576,21 13,20.7761424 13,20.5 C13,20.2238576 13.2238576,20 13.5,20 C13.7761424,20 14,20.2238576 14,20.5 C14,20.7761424 13.7761424,21 13.5,21 Z M18.5,16 C18.2238576,16 18,15.7761424 18,15.5 C18,15.2238576 18.2238576,15 18.5,15 C18.7761424,15 19,15.2238576 19,15.5 C19,15.7761424 18.7761424,16 18.5,16 Z M23.5,20 C23.2238576,20 23,19.7761424 23,19.5 C23,19.2238576 23.2238576,19 23.5,19 C23.7761424,19 24,19.2238576 24,19.5 C24,19.7761424 23.7761424,20 23.5,20 Z M28.5,14 C28.2238576,14 28,13.7761424 28,13.5 C28,13.2238576 28.2238576,13 28.5,13 C28.7761424,13 29,13.2238576 29,13.5 C29,13.7761424 28.7761424,14 28.5,14 Z" id="Shape" fill="#84AAAF" fill-rule="nonzero"></path>
        </g>
    </g>
</svg>