<?xml version="1.0" encoding="UTF-8"?>
<svg width="32px" height="32px" viewBox="0 0 32 32" version="1.1" xmlns="http://www.w3.org/2000/svg" xmlns:xlink="http://www.w3.org/1999/xlink">
    <!-- Generator: Sketch 49.1 (51147) - http://www.bohemiancoding.com/sketch -->
    <title>icons/underlying assets/metals/gold usd/ic-auusd</title>
    <desc>Created with Sketch.</desc>
    <g id="icons/underlying-assets/metals/gold-usd/ic-auusd" stroke="none" stroke-width="1" fill-rule="evenodd">
        <g id="Group" transform="translate(2.000000, 8.000000)">
            <g id="Rectangle">
                <path fill-rule="evenodd" d="M11.118034,0 L16.881966,0 C17.2607381,-6.95792983e-17 17.6070012,0.214002376 17.7763932,0.552786405 L20.2763932,5.5527864 C20.5233825,6.0467649 20.3231581,6.64743794 19.8291796,6.89442719 C19.6903242,6.96385491 19.5372111,7 19.381966,7 L8.61803399,7 C8.06574924,7 7.61803399,6.55228475 7.61803399,6 C7.61803399,5.8447549 7.65417908,5.69164184 7.7236068,5.5527864 L10.2236068,0.552786405 C10.3929988,0.214002376 10.7392619,2.91623903e-16 11.118034,2.22044605e-16 Z" id="goldusd-path-2"></path>
                <path stroke-opacity="0.08" stroke="#000000" stroke-width="1" d="M11.118034,0.5 C10.928648,0.5 10.7555164,0.607001188 10.6708204,0.776393202 L8.17082039,5.7763932 C8.13610653,5.84582092 8.11803399,5.92237745 8.11803399,6 C8.11803399,6.27614237 8.34189161,6.5 8.61803399,6.5 L19.381966,6.5 C19.4595886,6.5 19.5361451,6.48192745 19.6055728,6.4472136 C19.8525621,6.32371897 19.9526742,6.02338245 19.8291796,5.7763932 L17.3291796,0.776393202 C17.2444836,0.607001188 17.071352,0.5 16.881966,0.5 L11.118034,0.5 Z"></path>
            </g>
            <g id="Rectangle-Copy">
                <path fill-rule="evenodd" d="M4.11803399,8 L9.88196601,8 C10.2607381,8 10.6070012,8.21400238 10.7763932,8.5527864 L13.2763932,13.5527864 C13.5233825,14.0467649 13.3231581,14.6474379 12.8291796,14.8944272 C12.6903242,14.9638549 12.5372111,15 12.381966,15 L1.61803399,15 C1.06574924,15 0.618033989,14.5522847 0.618033989,14 C0.618033989,13.8447549 0.654179081,13.6916418 0.723606798,13.5527864 L3.2236068,8.5527864 C3.39299881,8.21400238 3.73926193,8 4.11803399,8 Z" id="goldusd-path-3"></path>
                <path stroke-opacity="0.08" stroke="#000000" stroke-width="1" d="M4.11803399,8.5 C3.92864796,8.5 3.7555164,8.60700119 3.67082039,8.7763932 L1.17082039,13.7763932 C1.13610653,13.8458209 1.11803399,13.9223775 1.11803399,14 C1.11803399,14.2761424 1.34189161,14.5 1.61803399,14.5 L12.381966,14.5 C12.4595886,14.5 12.5361451,14.4819275 12.6055728,14.4472136 C12.8525621,14.323719 12.9526742,14.0233825 12.8291796,13.7763932 L10.3291796,8.7763932 C10.2444836,8.60700119 10.071352,8.5 9.88196601,8.5 L4.11803399,8.5 Z"></path>
            </g>
            <g id="Rectangle-Copy-2">
                <path fill-rule="evenodd" d="M18.118034,8 L23.881966,8 C24.2607381,8 24.6070012,8.21400238 24.7763932,8.5527864 L27.2763932,13.5527864 C27.5233825,14.0467649 27.3231581,14.6474379 26.8291796,14.8944272 C26.6903242,14.9638549 26.5372111,15 26.381966,15 L15.618034,15 C15.0657492,15 14.618034,14.5522847 14.618034,14 C14.618034,13.8447549 14.6541791,13.6916418 14.7236068,13.5527864 L17.2236068,8.5527864 C17.3929988,8.21400238 17.7392619,8 18.118034,8 Z" id="goldusd-path-4"></path>
                <path stroke-opacity="0.08" stroke="#000000" stroke-width="1" d="M18.118034,8.5 C17.928648,8.5 17.7555164,8.60700119 17.6708204,8.7763932 L15.1708204,13.7763932 C15.1361065,13.8458209 15.118034,13.9223775 15.118034,14 C15.118034,14.2761424 15.3418916,14.5 15.618034,14.5 L26.381966,14.5 C26.4595886,14.5 26.5361451,14.4819275 26.6055728,14.4472136 C26.8525621,14.323719 26.9526742,14.0233825 26.8291796,13.7763932 L24.3291796,8.7763932 C24.2444836,8.60700119 24.071352,8.5 23.881966,8.5 L18.118034,8.5 Z"></path>
            </g>
        </g>
    </g>
</svg>
