<svg xmlns="http://www.w3.org/2000/svg" width="16" height="16"><path fill="none" fill-rule="evenodd" d="M13 0a3 3 0 0 1 3 3v10a3 3 0 0 1-3 3H3a3 3 0 0 1-3-3V3a3 3 0 0 1 3-3Zm0 0"/><path fill="none" fill-rule="evenodd" d="M13.332 6.668H9.668V5.332h3.664a.668.668 0 1 1 0 1.336ZM2.668 5.332h3.664v1.336H2.668a.668.668 0 1 1 0-1.336Zm3.664 2c0 .793.559 1.477 1.336 1.633V11a.332.332 0 1 0 .664 0V8.965a1.665 1.665 0 0 0 1.336-1.633h3.664l-1.52 4.867a.667.667 0 0 1-.636.469H4.824a.667.667 0 0 1-.636-.469l-1.52-4.867ZM6 8.668A.332.332 0 0 0 5.668 9v2a.332.332 0 1 0 .664 0V9A.332.332 0 0 0 6 8.668Zm4 0A.332.332 0 0 0 9.668 9v2a.332.332 0 1 0 .664 0V9A.332.332 0 0 0 10 8.668Zm0 0"/><path fill="none" fill-rule="evenodd" d="M7.668 3.668v4h.664v-4Zm-.668 4c0 .367.297.664.668.664h.664A.664.664 0 0 0 9 7.668v-4A.665.665 0 0 0 8.332 3h-.664A.665.665 0 0 0 7 3.668Zm0 0"/></svg>