<svg width="24" height="24" fill="none" xmlns="http://www.w3.org/2000/svg"><path fill-rule="evenodd" clip-rule="evenodd" d="M19.5 0A4.5 4.5 0 0 1 24 4.5v15a4.5 4.5 0 0 1-4.5 4.5h-15A4.5 4.5 0 0 1 0 19.5v-15A4.5 4.5 0 0 1 4.5 0h15Z" fill="#33658A"/><path fill-rule="evenodd" clip-rule="evenodd" d="M20 10h-5.5V8H20a1 1 0 1 1 0 2ZM4 8h5.5v2H4a1 1 0 0 1 0-2Zm5.5 3a2.5 2.5 0 0 0 2.002 2.45.506.506 0 0 0-.002.05v3a.5.5 0 0 0 1 0v-3c0-.017 0-.033-.002-.05A2.5 2.5 0 0 0 14.5 11H20l-2.28 7.298a1 1 0 0 1-.955.702h-9.53a1 1 0 0 1-.954-.702L4 11h5.5ZM9 13a.5.5 0 0 0-.5.5v3a.5.5 0 0 0 1 0v-3A.5.5 0 0 0 9 13Zm6 0a.5.5 0 0 0-.5.5v3a.5.5 0 0 0 1 0v-3a.5.5 0 0 0-.5-.5Z" fill="#fff"/><path fill-rule="evenodd" clip-rule="evenodd" d="M11.5 5.5v6h1v-6h-1Zm-1 6a1 1 0 0 0 1 1h1a1 1 0 0 0 1-1v-6a1 1 0 0 0-1-1h-1a1 1 0 0 0-1 1v6Z" fill="#fff"/></svg>