<svg xmlns="http://www.w3.org/2000/svg" width="16" height="15"><path style="stroke:none;fill-rule:evenodd;fill:#333;fill-opacity:1" d="M8 .34c.164 0 .316.082.41.219l3.352 4.894H15.5c.277 0 .5.23.5.512a.504.504 0 0 1-.5.512h-.586l-1.422 7.765a.505.505 0 0 1-.492.418H3a.505.505 0 0 1-.492-.418L1.086 6.477H.5a.504.504 0 0 1-.5-.512c0-.281.223-.512.5-.512h3.738L7.59.56A.497.497 0 0 1 8 .339ZM4.492 6.477h9.406l-1.312 7.16H3.414l-1.312-7.16Zm6.047-1.024H5.461L8 1.743ZM5.5 7.5c.277 0 .5.23.5.512v4.09a.506.506 0 0 1-.5.511c-.277 0-.5-.23-.5-.511v-4.09c0-.282.223-.512.5-.512Zm2.5 0c.277 0 .5.23.5.512v4.09a.506.506 0 0 1-.5.511c-.277 0-.5-.23-.5-.511v-4.09c0-.282.223-.512.5-.512Zm2.5 0c.277 0 .5.23.5.512v4.09a.506.506 0 0 1-.5.511c-.277 0-.5-.23-.5-.511v-4.09c0-.282.223-.512.5-.512Zm0 0"/></svg>