<svg width="24" height="24" fill="none" xmlns="http://www.w3.org/2000/svg"><path fill-rule="evenodd" clip-rule="evenodd" d="M13.514.857 17.8 8H23a1 1 0 1 1 0 2H1a1 1 0 1 1 0-2h5.2L10.485.857a1.766 1.766 0 0 1 3.03 0ZM9.186 8l2.729-4.605a.1.1 0 0 1 .172 0L14.815 8h-5.63ZM21.72 12a1 1 0 0 1 .97 1.242l-2.5 10a1 1 0 0 1-.97.758H4.78a1 1 0 0 1-.97-.758l-2.5-10A1 1 0 0 1 2.28 12h19.44ZM6 16a1 1 0 1 1 2 0v4a1 1 0 1 1-2 0v-4Zm6-1a1 1 0 0 0-1 1v4a1 1 0 1 0 2 0v-4a1 1 0 0 0-1-1Zm4 1a1 1 0 1 1 2 0v4a1 1 0 1 1-2 0v-4Z" fill="#D2D3DA"/></svg>