<svg width="32" height="32" fill="none" xmlns="http://www.w3.org/2000/svg"><mask id="prefix__a" style="mask-type:alpha" maskUnits="userSpaceOnUse" x="4" y="8" width="24" height="16"><path d="M26 8H6a2 2 0 00-2 2v12a2 2 0 002 2h20a2 2 0 002-2V10a2 2 0 00-2-2z" fill="#fff"/></mask><g mask="url(#prefix__a)"><path d="M26 8H6a2 2 0 00-2 2v12a2 2 0 002 2h20a2 2 0 002-2V10a2 2 0 00-2-2z" fill="#fff"/><path d="M28 22.688c0 .725-.587 1.312-1.312 1.312H5.312A1.312 1.312 0 014 22.688h24zm0-2.448v1.224H4V20.24h24zm0-2.448v1.224H4v-1.224h24zm0-2.448v1.224H4v-1.224h24zm0-2.448v1.224H4v-1.224h24zm0-2.448v1.224H4v-1.224h24zM26.776 8c.634 0 1.155.482 1.218 1.099l.006.125H4.688C4.688 8.548 5.236 8 5.912 8h20.864z" fill="#F44336"/><path d="M6 8h9.5v8.568H4V10a2 2 0 012-2z" fill="#0D47A1"/><path d="M5.094 14.816l.095.282h.295a.04.04 0 01.024.071l-.24.177.09.282a.04.04 0 01-.061.043l-.24-.172-.24.172a.04.04 0 01-.062-.043l.099-.28-.24-.177a.04.04 0 01.024-.071h.296l.095-.282c.006-.04.054-.04.065-.002zm9.035-.025c.016 0 .03.01.034.025l.095.282h.295a.04.04 0 01.024.071l-.24.177.09.282a.04.04 0 01-.061.043l-.24-.172-.24.172a.04.04 0 01-.046 0 .04.04 0 01-.016-.043l.099-.28-.24-.177a.04.04 0 01.024-.071h.295l.095-.282a.034.034 0 01.032-.027zm-2.269 0c.016 0 .03.01.034.025l.095.282h.295a.04.04 0 01.024.071l-.24.177.09.282a.04.04 0 01-.061.043l-.24-.172-.24.172a.04.04 0 01-.046 0 .04.04 0 01-.016-.043l.099-.28-.24-.177a.04.04 0 01.024-.071h.295l.095-.282a.034.034 0 01.032-.027zm-4.498.025l.095.282h.295a.04.04 0 01.024.071l-.24.177.09.282a.04.04 0 01-.061.043l-.24-.172-.24.172a.04.04 0 01-.062-.043l.099-.28-.24-.177a.04.04 0 01.024-.071h.296l.095-.282c0-.04.054-.04.065-.002zm2.269 0l.095.282h.295a.04.04 0 01.024.071l-.24.177.09.282a.04.04 0 01-.061.043l-.24-.172-.24.172a.04.04 0 01-.062-.043l.099-.28-.24-.177a.04.04 0 01.024-.071h.296l.095-.282c0-.04.053-.04.065-.002zm-3.403-.744l.095.282h.296a.04.04 0 01.024.071l-.24.177.09.282a.04.04 0 01-.062.043l-.24-.172-.24.172a.04.04 0 01-.061-.043l.09-.282-.24-.177a.04.04 0 01.024-.071h.304l.095-.282c.006-.038.054-.038.065 0zm6.782-.031a.037.037 0 01.018.031l.095.282h.296a.04.04 0 01.024.071l-.24.177.09.282a.04.04 0 01-.062.043l-.24-.172-.24.172a.04.04 0 01-.062-.043l.091-.282-.24-.177a.04.04 0 01.024-.071h.295l.096-.282a.037.037 0 01.055-.031zm-2.245.031l.095.282h.295a.04.04 0 01.024.071l-.24.177.09.282a.04.04 0 01-.06.043l-.24-.172-.24.172a.04.04 0 01-.047 0 .04.04 0 01-.015-.043l.09-.282-.24-.177a.04.04 0 01.024-.071h.295l.095-.282c.01-.038.063-.038.074 0zm-2.269 0l.095.282h.296a.04.04 0 01.024.071l-.24.177.09.282a.04.04 0 01-.062.043l-.24-.172-.24.172a.04.04 0 01-.061-.043l.09-.282-.24-.177a.04.04 0 01.024-.071h.304l.095-.282c.001-.038.054-.038.065 0zm-1.134-.72l.095.281h.295a.04.04 0 01.024.071l-.24.177.09.282a.04.04 0 01-.061.043l-.24-.172-.24.172a.04.04 0 01-.062-.043l.09-.282-.24-.177a.04.04 0 01.024-.071h.305l.095-.281c0-.033.054-.033.065 0zm6.8 0l.096.281h.295a.04.04 0 01.024.071l-.24.177.09.282a.04.04 0 01-.061.043l-.24-.172-.24.172a.04.04 0 01-.046 0 .04.04 0 01-.016-.043l.09-.282-.24-.177a.04.04 0 01.025-.07h.295l.095-.282c.014-.033.067-.033.074 0zm-9.068 0l.095.281h.295a.04.04 0 01.024.071l-.24.177.09.282a.04.04 0 01-.061.043l-.24-.172-.24.172a.04.04 0 01-.062-.043l.09-.282-.24-.177a.04.04 0 01.024-.071h.305l.095-.281c.006-.033.054-.033.065 0zm6.8 0l.095.281h.295a.04.04 0 01.024.071l-.24.177.09.282a.04.04 0 01-.061.043l-.24-.172-.24.172a.04.04 0 01-.046 0 .04.04 0 01-.016-.043l.09-.282-.24-.177a.04.04 0 01.025-.07h.295l.095-.282c.015-.033.067-.033.074 0zm-2.263 0l.095.281h.295a.04.04 0 01.024.071l-.24.177.09.282a.04.04 0 01-.061.043l-.24-.172-.24.172a.04.04 0 01-.062-.043l.09-.282-.24-.177a.04.04 0 01.024-.071h.305l.095-.281c0-.033.053-.033.065 0zm-3.403-.744l.095.282h.296a.04.04 0 01.024.071l-.24.177.09.282a.04.04 0 01-.062.043l-.24-.172-.24.172a.04.04 0 01-.061-.043l.098-.28-.24-.177a.04.04 0 01.024-.071h.296l.095-.282c.006-.04.054-.04.065-.002zm6.763-.036c.02 0 .037.016.037.036l.095.282h.296a.04.04 0 01.024.071l-.24.177.09.282a.04.04 0 01-.062.043l-.24-.172-.24.172a.04.04 0 01-.062-.043l.091-.282-.24-.177a.04.04 0 01.024-.071h.295l.096-.282c0-.02.016-.036.036-.036zm-2.226.036l.095.282h.295a.04.04 0 01.024.071l-.24.177.09.282a.04.04 0 01-.06.043l-.24-.172-.24.172a.04.04 0 01-.047 0 .04.04 0 01-.015-.043l.09-.282-.24-.177a.04.04 0 01.024-.071h.295l.095-.282c.01-.038.063-.038.074 0zm-2.269 0l.095.282h.296a.04.04 0 01.024.071l-.24.177.09.282a.04.04 0 01-.062.043l-.24-.172-.24.172a.04.04 0 01-.061-.043l.098-.28-.24-.177a.04.04 0 01.024-.071h.296l.095-.282c.001-.04.054-.04.065-.002zm-1.134-.716l.095.282h.295a.04.04 0 01.024.071l-.24.177.09.282a.04.04 0 01-.061.043l-.24-.172-.24.172a.04.04 0 01-.062-.043l.099-.28-.24-.177a.04.04 0 01.024-.071h.296l.095-.282c0-.04.054-.04.065-.002zm6.767-.025c.016 0 .03.01.034.025l.095.282h.295a.04.04 0 01.024.071l-.24.177.09.282a.04.04 0 01-.061.043l-.24-.172-.24.172a.04.04 0 01-.046 0 .04.04 0 01-.016-.043l.099-.28-.24-.177a.04.04 0 01.024-.071h.295l.095-.282a.034.034 0 01.032-.027zm-2.272-.011c.02 0 .037.016.037.036l.095.282h.295a.04.04 0 01.024.071l-.24.177.09.282a.04.04 0 01-.061.043l-.24-.172-.24.172a.04.04 0 01-.046 0 .04.04 0 01-.016-.043l.09-.282-.24-.177a.04.04 0 01.025-.071h.295l.095-.282c0-.02.017-.036.037-.036zm-6.763.036l.095.282h.295a.04.04 0 01.024.071l-.24.177.09.282a.04.04 0 01-.061.043l-.24-.172-.24.172a.04.04 0 01-.062-.043l.099-.28-.24-.177a.04.04 0 01.024-.071h.296l.095-.282c.006-.04.054-.04.065-.002zm4.537 0l.095.282h.295a.04.04 0 01.024.071l-.24.177.09.282a.04.04 0 01-.061.043l-.24-.172-.24.172a.04.04 0 01-.062-.043l.09-.282-.24-.177a.04.04 0 01.024-.071h.305l.095-.282c0-.038.053-.038.065 0zm-3.403-.75l.095.282h.296a.04.04 0 01.024.072l-.24.176.09.282a.04.04 0 01-.062.043l-.24-.172-.24.172a.04.04 0 01-.061-.043l.09-.282-.24-.176a.04.04 0 01.024-.071h.304l.095-.282c.006-.033.054-.033.065 0zm4.537 0l.095.282h.295a.04.04 0 01.024.072l-.24.176.09.282a.04.04 0 01-.06.043l-.24-.172-.24.172a.04.04 0 01-.047 0 .04.04 0 01-.015-.043l.09-.282-.24-.176a.04.04 0 01.024-.072h.295l.095-.281c.01-.033.063-.033.074 0zm-2.269 0l.095.282h.296a.04.04 0 01.024.072l-.24.176.09.282a.04.04 0 01-.062.043l-.24-.172-.24.172a.04.04 0 01-.061-.043l.09-.282-.24-.176a.04.04 0 01.024-.071h.304l.095-.282c.001-.033.054-.033.065 0zm4.532 0l.095.282h.296a.04.04 0 01.024.072l-.24.176.09.282a.04.04 0 01-.062.043l-.24-.172-.24.172a.04.04 0 01-.062-.043l.091-.282-.24-.176a.04.04 0 01.024-.072h.295l.096-.281c.014-.033.067-.033.073 0zm-3.397-.714l.095.281h.295a.04.04 0 01.024.071l-.24.177.09.282a.04.04 0 01-.061.043l-.24-.172-.24.172a.04.04 0 01-.062-.043l.09-.282-.24-.177a.04.04 0 01.024-.071h.305l.095-.281c0-.033.053-.033.065 0zm-4.537 0l.095.281h.295a.04.04 0 01.024.071l-.24.177.09.282a.04.04 0 01-.061.043l-.24-.172-.24.172a.04.04 0 01-.062-.043l.09-.282-.24-.177a.04.04 0 01.024-.071h.305l.095-.281c.006-.033.054-.033.065 0zm2.271 0l.095.281h.297a.04.04 0 01.024.071l-.24.177.09.282a.04.04 0 01-.061.043l-.24-.172-.24.172a.04.04 0 01-.062-.043l.09-.282-.24-.177a.04.04 0 01.024-.071h.295l.095-.281c.006-.033.059-.033.073 0zm4.529 0l.095.281h.295a.04.04 0 01.024.071l-.24.177.09.282a.04.04 0 01-.061.043l-.24-.172-.24.172a.04.04 0 01-.046 0 .04.04 0 01-.016-.043l.09-.282-.24-.177a.04.04 0 01.025-.07h.295l.095-.282c.015-.033.067-.033.074 0zm2.269 0l.095.281h.295a.04.04 0 01.024.071l-.24.177.09.282a.04.04 0 01-.061.043l-.24-.172-.24.172a.04.04 0 01-.046 0 .04.04 0 01-.016-.043l.09-.282-.24-.177a.04.04 0 01.025-.07h.295l.095-.282c.014-.033.067-.033.074 0zm-3.398-.744l.095.281h.295a.04.04 0 01.024.071l-.24.177.09.282a.04.04 0 01-.06.043l-.24-.172-.24.172a.04.04 0 01-.047 0 .04.04 0 01-.015-.043l.09-.282-.24-.177a.04.04 0 01.024-.07h.295l.095-.282c.01-.039.063-.039.074 0zm-2.269 0l.095.281h.296a.04.04 0 01.024.071l-.24.177.09.282a.04.04 0 01-.062.043l-.24-.172-.24.172a.04.04 0 01-.061-.043l.098-.28-.24-.177a.04.04 0 01.024-.071h.296l.095-.282c.001-.04.054-.04.065-.001zm-2.268 0l.095.281h.296a.04.04 0 01.024.071l-.24.177.09.282a.04.04 0 01-.062.043l-.24-.172-.24.172a.04.04 0 01-.061-.043l.098-.28-.24-.177a.04.04 0 01.024-.071h.296l.095-.282c.006-.04.054-.04.065-.001zm6.782-.032a.037.037 0 01.018.032l.095.281h.296a.04.04 0 01.024.071l-.24.177.09.282a.04.04 0 01-.062.043l-.24-.172-.24.172a.04.04 0 01-.062-.043l.091-.282-.24-.177a.04.04 0 01.024-.07h.295l.096-.282a.037.037 0 01.055-.032zm-7.916-.684l.095.282h.295a.04.04 0 01.024.071l-.24.177.09.282a.04.04 0 01-.061.043l-.24-.172-.24.172a.04.04 0 01-.062-.043l.099-.28-.24-.177a.04.04 0 01.024-.071h.296l.095-.282c.006-.04.054-.04.065-.002zm2.268 0l.095.282h.295a.04.04 0 01.024.071l-.24.177.09.282a.04.04 0 01-.061.043l-.24-.172-.24.172a.04.04 0 01-.062-.043l.099-.28-.24-.177a.04.04 0 01.024-.071h.296l.095-.282c0-.04.054-.04.065-.002zm2.269 0l.095.282h.295a.04.04 0 01.024.071l-.24.177.09.282a.04.04 0 01-.061.043l-.24-.172-.24.172a.04.04 0 01-.062-.043l.09-.282-.24-.177a.04.04 0 01.025-.071h.304l.095-.282c0-.038.053-.038.065 0zm2.244-.031a.037.037 0 01.019.031l.095.282h.295a.04.04 0 01.024.071l-.24.177.09.282a.04.04 0 01-.061.043l-.24-.172-.24.172a.04.04 0 01-.062-.043l.09-.282-.24-.177a.04.04 0 01.025-.071h.295l.095-.282a.037.037 0 01.055-.031zm2.254.006c.016 0 .03.01.034.025l.095.282h.295a.04.04 0 01.024.071l-.24.177.09.282a.04.04 0 01-.061.043l-.24-.172-.24.172a.04.04 0 01-.062-.043l.099-.28-.24-.177a.04.04 0 01.024-.071h.295l.095-.282a.034.034 0 01.032-.027z" fill="#F5F5F5"/><path fill-rule="evenodd" clip-rule="evenodd" d="M26 9H6a1 1 0 00-1 1v12a1 1 0 001 1h20a1 1 0 001-1V10a1 1 0 00-1-1zM6 8a2 2 0 00-2 2v12a2 2 0 002 2h20a2 2 0 002-2V10a2 2 0 00-2-2H6z" fill="#000" fill-opacity=".04"/></g><path d="M16 3a1 1 0 011-1h12a1 1 0 011 1v6a1 1 0 01-1 1H17a1 1 0 01-1-1V3z" fill="#0E0E0E"/><path d="M20.6 4.494h-1.86l-.108 1.482h.041a1.86 1.86 0 01.15-.222.739.739 0 01.414-.282 1.345 1.345 0 01.81.048c.156.06.29.146.402.258.116.112.206.25.27.414.064.16.096.342.096.546 0 .208-.034.4-.102.576a1.23 1.23 0 01-.288.456 1.38 1.38 0 01-.474.294 1.81 1.81 0 01-.63.102 1.707 1.707 0 01-.882-.228 1.699 1.699 0 01-.288-.24 2.781 2.781 0 01-.215-.282l.491-.39c.053.084.107.16.163.228.055.068.12.128.192.18a.844.844 0 00.24.12c.091.028.196.042.312.042.247 0 .438-.068.57-.204.136-.136.204-.324.204-.564v-.072c0-.24-.069-.428-.204-.564-.133-.136-.323-.204-.57-.204a.803.803 0 00-.433.102 1.31 1.31 0 00-.276.228l-.558-.078.157-2.334h2.375v.588zm2.35 3.672c-.26 0-.487-.048-.679-.144-.192-.1-.35-.242-.474-.426a1.975 1.975 0 01-.276-.678 4.224 4.224 0 01-.09-.918c0-.34.03-.644.09-.912.06-.272.152-.5.276-.684.124-.184.282-.324.474-.42.192-.1.418-.15.678-.15.52 0 .902.19 1.146.57.248.38.372.912.372 1.596s-.124 1.216-.372 1.596c-.244.38-.626.57-1.146.57zm0-.576a.74.74 0 00.365-.084.692.692 0 00.252-.252c.064-.108.11-.236.138-.384a2.79 2.79 0 00.042-.504v-.732c0-.184-.014-.35-.042-.498a1.18 1.18 0 00-.138-.39.7.7 0 00-.618-.336.732.732 0 00-.372.09.66.66 0 00-.246.246 1.18 1.18 0 00-.138.39 2.691 2.691 0 00-.042.498v.732c0 .184.014.352.042.504.028.148.074.276.138.384a.708.708 0 00.246.252.774.774 0 00.372.084zm3.597.576c-.26 0-.486-.048-.678-.144-.192-.1-.35-.242-.474-.426a1.975 1.975 0 01-.276-.678 4.224 4.224 0 01-.09-.918c0-.34.03-.644.09-.912.06-.272.152-.5.276-.684.124-.184.282-.324.474-.42.192-.1.418-.15.678-.15.52 0 .902.19 1.146.57.248.38.372.912.372 1.596s-.124 1.216-.372 1.596c-.244.38-.626.57-1.146.57zm0-.576a.74.74 0 00.366-.084.692.692 0 00.252-.252c.064-.108.11-.236.138-.384a2.79 2.79 0 00.042-.504v-.732c0-.184-.014-.35-.042-.498a1.18 1.18 0 00-.138-.39.7.7 0 00-.618-.336.732.732 0 00-.372.09.66.66 0 00-.246.246 1.18 1.18 0 00-.138.39 2.691 2.691 0 00-.042.498v.732c0 .184.014.352.042.504.028.148.074.276.138.384a.708.708 0 00.246.252.774.774 0 00.372.084z" fill="#fff"/></svg>