<svg width="32" height="32" fill="none" xmlns="http://www.w3.org/2000/svg"><mask id="prefix__a" style="mask-type:alpha" maskUnits="userSpaceOnUse" x="4" y="8" width="24" height="16"><path d="M26 8H6a2 2 0 00-2 2v12a2 2 0 002 2h20a2 2 0 002-2V10a2 2 0 00-2-2z" fill="#fff"/></mask><g mask="url(#prefix__a)"><path d="M26 8H6a2 2 0 00-2 2v12a2 2 0 002 2h20a2 2 0 002-2V10a2 2 0 00-2-2z" fill="#0D47A1"/><path d="M27.975 9.538a1.806 1.806 0 00-1.772-1.524h-.468l-7.666 5.102V8.014h-4.138v5.102L6.265 8.014h-.468c-.891 0-1.63.66-1.772 1.524l6.552 4.36H4v4.204h6.577l-6.552 4.361a1.806 1.806 0 001.772 1.524h.468l7.666-5.102v5.102h4.138v-5.102l7.666 5.102h.468c.891 0 1.63-.659 1.772-1.524l-6.552-4.36H28v-4.204h-6.577l6.552-4.361z" fill="#fff"/><path d="M17.241 8.014v6.725H28v2.523H17.241v6.725H14.76v-6.725H4v-2.523h10.759V8.014h2.482zm-3.333 10.088L5.162 23.87a1.792 1.792 0 01-.606-.39l-.124-.131 7.956-5.247h1.52zm6.329 0l7.527 4.964c-.113.2-.262.377-.439.52l-.137.102-8.471-5.586h1.52zM4.725 8.374l8.379 5.525h-1.52L4.19 9.023c.126-.257.31-.479.535-.649zm22.099-.248a1.8 1.8 0 01.735.517l-7.97 5.256h-1.52l8.755-5.773z" fill="#F44336"/><path fill-rule="evenodd" clip-rule="evenodd" d="M26 9H6a1 1 0 00-1 1v12a1 1 0 001 1h20a1 1 0 001-1V10a1 1 0 00-1-1zM6 8a2 2 0 00-2 2v12a2 2 0 002 2h20a2 2 0 002-2V10a2 2 0 00-2-2H6z" fill="#000" fill-opacity=".04"/></g><path d="M16 3a1 1 0 011-1h12a1 1 0 011 1v6a1 1 0 01-1 1H17a1 1 0 01-1-1V3z" fill="#0E0E0E"/><path d="M18.136 8.094V7.53h1.176V4.398h-.048l-.972 1.038-.414-.372 1.068-1.158h1.032V7.53h1.02v.564h-2.862zM23.006 8.166c-.26 0-.486-.048-.678-.144-.192-.1-.35-.242-.474-.426a1.975 1.975 0 01-.276-.678 4.224 4.224 0 01-.09-.918c0-.34.03-.644.09-.912.06-.272.152-.5.276-.684.124-.184.282-.324.474-.42.192-.1.418-.15.678-.15.52 0 .902.19 1.146.57.248.38.372.912.372 1.596s-.124 1.216-.372 1.596c-.244.38-.626.57-1.146.57zm0-.576a.74.74 0 00.366-.084.692.692 0 00.252-.252c.064-.108.11-.236.138-.384a2.79 2.79 0 00.042-.504v-.732c0-.184-.014-.35-.042-.498a1.18 1.18 0 00-.138-.39.7.7 0 00-.618-.336.732.732 0 00-.372.09.66.66 0 00-.246.246 1.18 1.18 0 00-.138.39 2.691 2.691 0 00-.042.498v.732c0 .184.014.352.042.504.028.148.074.276.138.384a.708.708 0 00.246.252.774.774 0 00.372.084zM26.604 8.166c-.26 0-.486-.048-.678-.144-.192-.1-.35-.242-.474-.426a1.975 1.975 0 01-.276-.678 4.224 4.224 0 01-.09-.918c0-.34.03-.644.09-.912.06-.272.152-.5.276-.684.124-.184.282-.324.474-.42.192-.1.418-.15.678-.15.52 0 .902.19 1.146.57.248.38.372.912.372 1.596s-.124 1.216-.372 1.596c-.244.38-.626.57-1.146.57zm0-.576a.74.74 0 00.366-.084.692.692 0 00.252-.252c.064-.108.11-.236.138-.384a2.79 2.79 0 00.042-.504v-.732c0-.184-.014-.35-.042-.498a1.18 1.18 0 00-.138-.39.7.7 0 00-.618-.336.732.732 0 00-.372.09.66.66 0 00-.246.246 1.18 1.18 0 00-.138.39 2.691 2.691 0 00-.042.498v.732c0 .184.014.352.042.504.028.148.074.276.138.384a.708.708 0 00.246.252.774.774 0 00.372.084z" fill="#fff"/></svg>