<svg width="32" height="32" fill="none" xmlns="http://www.w3.org/2000/svg"><path d="M20 6a1 1 0 011 1v2a2 2 0 012 2h2a1 1 0 110 2h-2v2h2a1 1 0 110 2h-2v2h2a1 1 0 110 2h-2a2 2 0 01-2 2v2a1 1 0 11-2 0v-2h-2v2a1 1 0 11-2 0v-2h-2v2a1 1 0 11-2 0v-2l-.15-.006A2 2 0 019 21H7a1 1 0 110-2h2v-2H7a1 1 0 110-2h2v-2H7a1 1 0 110-2h2a2 2 0 012-2V7a1 1 0 112 0v2h2V7a1 1 0 112 0v2h2V7a1 1 0 011-1zm1 4H11a1 1 0 00-1 1v10a1 1 0 001 1h10a1 1 0 001-1V11a1 1 0 00-1-1zm-2 2a1 1 0 011 1v6a1 1 0 01-1 1h-6a1 1 0 01-1-1v-6a1 1 0 011-1h6zm0 1h-6v6h6v-6z" fill="#6E7287"/><mask id="prefix__a" style="mask-type:alpha" maskUnits="userSpaceOnUse" x="18" y="2" width="12" height="8"><path d="M29 2H19a1 1 0 00-1 1v6a1 1 0 001 1h10a1 1 0 001-1V3a1 1 0 00-1-1z" fill="#fff"/></mask><g mask="url(#prefix__a)"><path d="M29 2H19a1 1 0 00-1 1v6a1 1 0 001 1h10a1 1 0 001-1V3a1 1 0 00-1-1z" fill="#fff"/><path fill-rule="evenodd" clip-rule="evenodd" d="M30 9.344a.656.656 0 01-.656.656H18.656A.656.656 0 0118 9.344h12zm0-1.224v.612H18V8.12h12zm0-1.224v.612H18v-.612h12zm0-1.224v.612H18v-.612h12zm0-1.224v.612H18v-.612h12zm0-1.224v.612H18v-.612h12zM29.388 2c.304 0 .557.222.604.513l.008.099H18.344c0-.338.274-.612.612-.612h10.432z" fill="#F44336"/></g><mask id="prefix__b" style="mask-type:alpha" maskUnits="userSpaceOnUse" x="18" y="2" width="6" height="5"><path d="M19 2h4.6v4.284H18V3a1 1 0 011-1z" fill="#fff"/></mask><g mask="url(#prefix__b)"><path d="M19 2h4.6v4.284H18V3a1 1 0 011-1z" fill="#0D47A1"/></g><path d="M16 19a1 1 0 011-1h12a1 1 0 011 1v6a1 1 0 01-1 1H17a1 1 0 01-1-1v-6z" fill="#0E0E0E"/><path d="M18.136 24.094v-.564h1.176v-3.132h-.048l-.972 1.038-.414-.372 1.068-1.158h1.032v3.624h1.02v.564h-2.862zM23.006 24.166c-.26 0-.486-.048-.678-.144-.192-.1-.35-.242-.474-.426a1.975 1.975 0 01-.276-.678 4.224 4.224 0 01-.09-.918c0-.34.03-.644.09-.912.06-.272.152-.5.276-.684.124-.184.282-.324.474-.42.192-.1.418-.15.678-.15.52 0 .902.19 1.146.57.248.38.372.912.372 1.596s-.124 1.216-.372 1.596c-.244.38-.626.57-1.146.57zm0-.576a.74.74 0 00.366-.084.692.692 0 00.252-.252c.064-.108.11-.236.138-.384a2.79 2.79 0 00.042-.504v-.732c0-.184-.014-.35-.042-.498a1.18 1.18 0 00-.138-.39.7.7 0 00-.618-.336.732.732 0 00-.372.09.66.66 0 00-.246.246 1.18 1.18 0 00-.138.39 2.691 2.691 0 00-.042.498v.732c0 .184.014.352.042.504.028.148.074.276.138.384a.708.708 0 00.246.252.774.774 0 00.372.084zM26.604 24.166c-.26 0-.486-.048-.678-.144-.192-.1-.35-.242-.474-.426a1.975 1.975 0 01-.276-.678 4.224 4.224 0 01-.09-.918c0-.34.03-.644.09-.912.06-.272.152-.5.276-.684.124-.184.282-.324.474-.42.192-.1.418-.15.678-.15.52 0 .902.19 1.146.57.248.38.372.912.372 1.596s-.124 1.216-.372 1.596c-.244.38-.626.57-1.146.57zm0-.576a.74.74 0 00.366-.084.692.692 0 00.252-.252c.064-.108.11-.236.138-.384a2.79 2.79 0 00.042-.504v-.732c0-.184-.014-.35-.042-.498a1.18 1.18 0 00-.138-.39.7.7 0 00-.618-.336.732.732 0 00-.372.09.66.66 0 00-.246.246 1.18 1.18 0 00-.138.39 2.691 2.691 0 00-.042.498v.732c0 .184.014.352.042.504.028.148.074.276.138.384a.708.708 0 00.246.252.774.774 0 00.372.084z" fill="#fff"/></svg>