<?xml version="1.0" encoding="UTF-8"?>
<svg version="1.1" id="Layer_1" xmlns="http://www.w3.org/2000/svg" x="0px" y="0px"
	 width="32px" height="32px" viewBox="0 0 32 32" style="enable-background:new 0 0 32 32;" xml:space="preserve">
<path style="opacity:0.25;enable-background:new    ;" d="M16,0C7.163,0,0,7.163,0,16s7.163,16,16,16s16-7.163,16-16S24.837,0,16,0
	 M16,4c6.627,0,12,5.373,12,12s-5.373,12-12,12S4,22.627,4,16S9.373,4,16,4"/>
<path d="M16,0c8.837,0,16,7.163,16,16h-4c0-6.627-5.373-12-12-12V0z">
<animateTransform  type="rotate"  repeatCount="indefinite"  calcMode="linear"  to="360 16 16" attributeName="transform" dur="0.8s" from="0 16 16" >
		</animateTransform>
</path>
</svg>
