<svg xmlns="http://www.w3.org/2000/svg" width="24" height="24" viewBox="0 0 24 24">
    <g fill="none" fill-rule="evenodd">
        <path d="M0 0h24v24H0z"/>
        <path fill="#85ACB0" fill-rule="nonzero" d="M19.5 19.5a.5.5 0 0 1 .5.5v.5a.5.5 0 1 1-1 0V20a.5.5 0 0 1 .5-.5zm0-2.5a.5.5 0 0 1 .5.5v.5a.5.5 0 1 1-1 0v-.5a.5.5 0 0 1 .5-.5zm0-2.5a.5.5 0 0 1 .5.5v.5a.5.5 0 1 1-1 0V15a.5.5 0 0 1 .5-.5zm0-2.5a.5.5 0 0 1 .5.5v.5a.5.5 0 1 1-1 0v-.5a.5.5 0 0 1 .5-.5zm0-2.5a.5.5 0 0 1 .5.5v.5a.5.5 0 1 1-1 0V10a.5.5 0 0 1 .5-.5zm0-2.5a.5.5 0 0 1 .5.5V8a.5.5 0 1 1-1 0v-.5a.5.5 0 0 1 .5-.5zm0-2.5a.5.5 0 0 1 .492.41L20 5h.5a.5.5 0 1 1 0 1H20a.498.498 0 0 1-.25-.067A.5.5 0 0 1 19 5.5V5a.5.5 0 0 1 .5-.5zM18 5a.5.5 0 1 1 0 1h-.5a.5.5 0 1 1 0-1h.5zm-2.5 0a.5.5 0 1 1 0 1H15a.5.5 0 1 1 0-1h.5zM13 5a.5.5 0 1 1 0 1h-.5a.5.5 0 1 1 0-1h.5zm-2.5 0a.5.5 0 1 1 0 1H10a.5.5 0 0 1 0-1h.5zM8 5a.5.5 0 0 1 0 1h-.5a.5.5 0 0 1 0-1H8zM5.5 5a.5.5 0 0 1 0 1H5a.5.5 0 0 1 0-1h.5zM3 5a.5.5 0 0 1 0 1h-.5a.5.5 0 0 1 0-1H3zm16.5-3a.5.5 0 0 1 .5.5V3a.5.5 0 1 1-1 0v-.5a.5.5 0 0 1 .5-.5z"/>
        <path fill="#FF444F" fill-rule="nonzero" d="M4 21a1 1 0 0 1-.71-1.71l14-14a1.004 1.004 0 0 1 1.42 1.42l-14 14A1 1 0 0 1 4 21z"/>
    </g>
</svg>
