<svg xmlns="http://www.w3.org/2000/svg" width="24" height="24" viewBox="0 0 24 24">
    <g fill="none" fill-rule="evenodd">
        <rect width="11" height="15" x="6.5" y="4.5" stroke="#2A3052" rx="1"/>
        <path fill="#2A3052" fill-rule="nonzero" d="M8.76 10.534l.774-.773A1.001 1.001 0 0 1 10.5 8.5a1 1 0 0 1 .967 1.256l.777.777a1.001 1.001 0 0 1 .518.002l1.773-1.773A1.001 1.001 0 1 1 16.5 8.5a1 1 0 0 1-1.256.967l-1.777 1.777A1.001 1.001 0 0 1 12.5 12.5a1 1 0 0 1-.965-1.262l-.773-.773a1.001 1.001 0 0 1-.52.002l-.776.775A1.001 1.001 0 0 1 8.5 12.5a1 1 0 1 1 .26-1.966z"/>
        <rect width="5" height="1" x="8" y="14" fill="#2A3052" rx=".5"/>
        <rect width="3" height="1" x="8" y="16" fill="#2A3052" rx=".5"/>
    </g>
</svg>
