<?xml version="1.0" encoding="UTF-8"?>
<svg width="24px" height="24px" viewBox="0 0 24 24" version="1.1" xmlns="http://www.w3.org/2000/svg" xmlns:xlink="http://www.w3.org/1999/xlink">
    <!-- Generator: Sketch 48.2 (47327) - http://www.bohemiancoding.com/sketch -->
    <title>icons/system/binary/chart settings/chart template/ic-charttemplate-active-light</title>
    <desc>Created with Sketch.</desc>
    <defs></defs>
    <g id="Symbols" stroke="none" stroke-width="1" fill="none" fill-rule="evenodd">
        <g id="icons/system/binary/chart-settings/chart-template/ic-charttemplate-active-light">
            <g id="ic-charttemplate-active-light">
                <rect id="Rectangle-11" fill="#E4E6F1" x="0" y="0" width="24" height="24" rx="2"></rect>
                <path d="M7,5 L7,19 L17,19 L17,8.70710678 L13.2928932,5 L7,5 Z M13.7071068,4 L18,8.29289322 L18,20 L6,20 L6,4 L13.7071068,4 Z" id="Rectangle-10" fill="#2A3052" fill-rule="nonzero"></path>
                <polygon id="Rectangle" fill="#2A3052" fill-rule="nonzero" points="14 8 14 4.5 13 4.5 13 9 17.5 9 17.5 8"></polygon>
                <path d="M8.7598125,13.5340835 L9.53435186,12.7608107 C9.51194936,12.6776622 9.5,12.5902266 9.5,12.5 C9.5,11.9477153 9.94771525,11.5 10.5,11.5 C11.0522847,11.5 11.5,11.9477153 11.5,12.5 C11.5,12.5886449 11.4884659,12.6745959 11.4668166,12.756434 L12.243566,13.5331834 C12.3254041,13.5115341 12.4113551,13.5 12.5,13.5 C12.5905133,13.5 12.6782179,13.5120254 12.7616033,13.5345658 L14.5345658,11.7616033 C14.5120254,11.6782179 14.5,11.5905133 14.5,11.5 C14.5,10.9477153 14.9477153,10.5 15.5,10.5 C16.0522847,10.5 16.5,10.9477153 16.5,11.5 C16.5,12.0522847 16.0522847,12.5 15.5,12.5 C15.4113551,12.5 15.3254041,12.4884659 15.243566,12.4668166 L13.4668166,14.243566 C13.4884659,14.3254041 13.5,14.4113551 13.5,14.5 C13.5,15.0522847 13.0522847,15.5 12.5,15.5 C11.9477153,15.5 11.5,15.0522847 11.5,14.5 C11.5,14.4094867 11.5120254,14.3217821 11.5345658,14.2383967 L10.7616033,13.4654342 C10.6782179,13.4879746 10.5905133,13.5 10.5,13.5 C10.4110685,13.5 10.3248484,13.4883912 10.2427724,13.4666063 L9.46633959,14.2417695 C9.48829643,14.324146 9.5,14.4107062 9.5,14.5 C9.5,15.0522847 9.05228475,15.5 8.5,15.5 C7.94771525,15.5 7.5,15.0522847 7.5,14.5 C7.5,13.9477153 7.94771525,13.5 8.5,13.5 C8.58986558,13.5 8.67696252,13.5118539 8.7598125,13.5340835 Z" id="Combined-Shape" fill="#2A3052" fill-rule="nonzero"></path>
            </g>
        </g>
    </g>
</svg>