<?xml version="1.0" encoding="UTF-8"?>
<svg width="16px" height="16px" viewBox="0 0 16 16" version="1.1" xmlns="http://www.w3.org/2000/svg" xmlns:xlink="http://www.w3.org/1999/xlink">
    <!-- Generator: Sketch 50.2 (55047) - http://www.bohemiancoding.com/sketch -->
    <title>icons/system/light/chart settings/crosshair/ic-crosshair-off</title>
    <desc>Created with Sketch.</desc>
    <defs></defs>
    <g id="icons/system/light/chart-settings/crosshair/ic-crosshair-off" stroke="none" stroke-width="1" fill="none" fill-rule="evenodd">
        <path d="M2.40480603,5.8293896 C2.50473691,5.57196305 2.79443235,5.44428758 3.0518589,5.54421846 C3.30928546,5.64414934 3.43696093,5.93384477 3.33703005,6.19127133 C3.11522208,6.7626589 3,7.37296792 3,8 C3,10.7614237 5.23857625,13 8,13 C8.65195096,13 9.28574911,12.8754287 9.87630875,12.6361646 C10.1322437,12.5324731 10.4237785,12.6558907 10.52747,12.9118256 C10.6311615,13.1677605 10.5077439,13.4592954 10.251809,13.5629869 C9.54245928,13.8503785 8.7812102,14 8,14 C4.6862915,14 2,11.3137085 2,8 C2,7.24868879 2.13838051,6.51571405 2.40480603,5.8293896 Z M12.5815463,11.8744395 L13.8535534,13.1464466 C14.0488155,13.3417088 14.0488155,13.6582912 13.8535534,13.8535534 C13.6582912,14.0488155 13.3417088,14.0488155 13.1464466,13.8535534 L2.14644661,2.85355339 C1.95118446,2.65829124 1.95118446,2.34170876 2.14644661,2.14644661 C2.34170876,1.95118446 2.65829124,1.95118446 2.85355339,2.14644661 L4.12556839,3.41846161 C5.07348232,2.61582811 6.24652336,2.12428756 7.5,2.02060681 L7.5,0.5 C7.5,0.223857625 7.72385763,5.07265313e-17 8,0 C8.27614237,-5.07265313e-17 8.5,0.223857625 8.5,0.5 L8.5,2.02053689 C11.4148986,2.26101111 13.7389889,4.58510142 13.9794631,7.5 L15.5,7.5 C15.7761424,7.5 16,7.72385763 16,8 C16,8.27614237 15.7761424,8.5 15.5,8.5 L13.9793913,8.5 C13.8756753,9.7538067 13.3838988,10.9269057 12.5815463,11.8744395 Z M11.8715249,11.1644181 C12.5952102,10.2806547 13,9.17260931 13,8 C13,5.23857625 10.7614237,3 8,3 C6.82767847,3 5.71972885,3.40452482 4.83559137,4.12848459 L5.54716368,4.8400569 C6.24105147,4.30053372 7.09758833,4 8,4 C10.209139,4 12,5.790861 12,8 C12,8.90188679 11.6998834,9.75833778 11.1599302,10.4528234 L11.8715249,11.1644181 Z M10.4454427,9.73833592 C10.8030726,9.23654923 11,8.63403631 11,8 C11,6.34314575 9.65685425,5 8,5 C7.36567845,5 6.76305372,5.19718259 6.2616492,5.55454241 L10.4454427,9.73833592 Z M4.12362542,7.00982657 C4.19179924,6.74223183 4.46399344,6.58056924 4.73158817,6.64874306 C4.9991829,6.71691688 5.1608455,6.98911107 5.09267168,7.25670581 C5.03135155,7.49739856 5,7.74641872 5,8 C5,9.65685425 6.34314575,11 8,11 C8.20969048,11 8.41629912,10.9785633 8.61774108,10.936435 C8.88803579,10.8799073 9.1529777,11.0531997 9.20950542,11.3234944 C9.26603313,11.5937891 9.09274074,11.858731 8.82244603,11.9152587 C8.55377841,11.9714461 8.27857437,12 8,12 C5.790861,12 4,10.209139 4,8 C4,7.66298542 4.04179217,7.33103707 4.12362542,7.00982657 Z M0.5,7.5 L2.5,7.5 C2.77614237,7.5 3,7.72385763 3,8 C3,8.27614237 2.77614237,8.5 2.5,8.5 L0.5,8.5 C0.223857625,8.5 3.38176876e-17,8.27614237 0,8 C-3.38176876e-17,7.72385763 0.223857625,7.5 0.5,7.5 Z M8,13 C8.27614237,13 8.5,13.2238576 8.5,13.5 L8.5,15.5 C8.5,15.7761424 8.27614237,16 8,16 C7.72385763,16 7.5,15.7761424 7.5,15.5 L7.5,13.5 C7.5,13.2238576 7.72385763,13 8,13 Z" id="Combined-Shape" fill-rule="nonzero"></path>
    </g>
</svg>