<svg width="24" height="16" viewBox="0 0 24 16" fill="none" xmlns="http://www.w3.org/2000/svg">
<path d="M22 0H2C0.89543 0 0 0.89543 0 2V14C0 15.1046 0.89543 16 2 16H22C23.1046 16 24 15.1046 24 14V2C24 0.89543 23.1046 0 22 0Z" fill="#006233"/>
<path fill-rule="evenodd" clip-rule="evenodd" d="M22 1H2C1.44772 1 1 1.44772 1 2V14C1 14.5523 1.44772 15 2 15H22C22.5523 15 23 14.5523 23 14V2C23 1.44771 22.5523 1 22 1ZM2 0C0.89543 0 0 0.89543 0 2V14C0 15.1046 0.89543 16 2 16H22C23.1046 16 24 15.1046 24 14V2C24 0.89543 23.1046 0 22 0H2Z" fill="black" fill-opacity="0.08"/>
<path fill-rule="evenodd" clip-rule="evenodd" d="M10.001 8.28704C9.68855 8.71405 9.91415 8.99177 10.2363 9.01153C10.4486 9.0258 10.8901 8.7382 10.8889 8.4001L10.7683 8.33863C10.8358 8.51207 10.7659 8.56696 10.6223 8.68551C10.3388 8.91933 9.75973 8.93579 10.001 8.28704Z" fill="white"/>
<path fill-rule="evenodd" clip-rule="evenodd" d="M12.4778 9.40671C14.2367 9.45172 14.7965 7.90284 13.7107 6.57679L13.6033 6.72279C13.6733 7.3408 13.7746 7.95004 13.7843 8.58342C13.572 8.81065 13.2631 8.72612 13.2016 8.47365C13.2052 8.13116 13.0822 7.84136 12.9265 7.56474L12.8397 7.71074C12.941 7.93796 13.0508 8.19373 13.0737 8.47365C12.5719 9.02141 12.0169 9.13228 12.2232 8.41218C11.8263 9.04337 12.4271 9.48794 13.1075 8.51646C13.2535 9.17948 13.8181 8.76784 13.8518 8.62514C13.9134 8.19044 13.882 7.49009 13.7577 6.93684C14.2475 7.70854 14.2644 8.26508 14.0039 8.63721C13.7143 9.05105 13.0846 9.24425 12.4778 9.40671Z" fill="white"/>
<path fill-rule="evenodd" clip-rule="evenodd" d="M13.4755 7.65585C13.0991 7.6811 12.906 7.61084 13.1099 7.35727C13.3114 7.10919 13.4996 7.30678 13.5502 7.63829C13.5973 7.94894 12.8891 8.34522 12.6442 8.34522C12.2739 8.34522 12.1026 7.91162 12.444 7.52193C12.0048 8.65917 13.3922 7.99944 13.4755 7.65585ZM13.2149 7.3924C13.169 7.3902 13.1352 7.46375 13.1582 7.47802C13.2245 7.51973 13.3295 7.49449 13.3403 7.47363C13.3633 7.42753 13.2788 7.39459 13.2149 7.3924Z" fill="white"/>
<path fill-rule="evenodd" clip-rule="evenodd" d="M11.4318 8.19264C11.0699 8.84029 11.4306 9.10813 11.8951 9.03349C12.1653 8.98848 12.5079 8.81395 12.7058 8.57574C12.7094 8.05103 12.7009 7.53071 12.6503 7.02247C12.8312 6.82598 12.6346 6.82708 12.5658 6.61631C12.5345 6.73926 12.4585 6.87208 12.532 6.96758C12.5839 7.48022 12.6129 7.99944 12.6117 8.52854C12.2473 8.79528 11.9735 8.89408 11.778 8.89188C11.3739 8.88859 11.287 8.57903 11.4318 8.19264Z" fill="white"/>
<path fill-rule="evenodd" clip-rule="evenodd" d="M12.1713 8.36388C12.1653 7.87539 12.1568 7.32105 12.1086 6.97966C12.2968 6.78975 12.0989 6.78536 12.0374 6.5724C12.0012 6.69315 11.9216 6.82488 11.9916 6.92257C12.0229 7.44509 12.0531 7.9676 12.0591 8.49012C12.1026 8.46487 12.152 8.45499 12.1713 8.36388Z" fill="white"/>
<path fill-rule="evenodd" clip-rule="evenodd" d="M10.7671 8.34083C10.7212 8.28814 10.6887 8.22886 10.6513 8.17727C10.6452 8.10372 10.6995 8.03566 10.7068 7.99834C10.7683 8.08506 10.8045 8.15092 10.8539 8.19374M10.9191 8.22777C11.0096 8.2607 11.1206 8.2607 11.2231 8.26289C11.6188 8.26948 12.035 8.2102 11.9904 8.69759C11.9518 9.13009 11.5573 9.38037 11.2038 9.37708C10.7007 9.37269 10.2712 8.86773 11.047 7.93797C11.1218 7.92699 11.2195 7.94565 11.3003 7.95224C11.439 7.96212 11.5814 7.95004 11.7443 7.83149C11.725 7.52522 11.725 7.23543 11.6839 6.9588C11.614 6.8611 11.6936 6.73048 11.7298 6.60863C11.7913 6.82159 11.988 6.82598 11.801 7.01698C11.8456 7.32434 11.8504 7.63719 11.8504 7.8238C11.7563 7.95443 11.6827 8.09275 11.4077 8.14544C11.1266 8.10811 10.9999 7.75026 10.7068 7.86881C10.7876 7.54608 11.5319 7.47253 11.6067 7.7272C11.5573 7.99285 10.8624 7.88637 10.6778 8.74479C10.6211 9.00934 10.9275 9.25303 11.2424 9.23327C11.55 9.21461 11.8782 9.02032 11.9107 8.6932C11.9361 8.41987 11.5126 8.4517 11.3353 8.45499C11.0771 8.46048 10.9143 8.42426 10.8165 8.37266M11.0807 7.78099C11.1266 7.74148 11.287 7.71403 11.3449 7.7777C11.3015 7.80405 11.2593 7.83258 11.2243 7.86661C11.164 7.83807 11.1242 7.80954 11.0807 7.78099Z" fill="white"/>
<path fill-rule="evenodd" clip-rule="evenodd" d="M11.474 6.87318C11.5175 6.96099 11.5356 7.01917 11.538 7.1037C11.5114 7.21786 11.4041 7.32434 11.2931 7.32763C11.2243 7.32983 11.1471 7.31226 11.0928 7.21457C11.0868 7.20249 11.0578 7.17395 11.0301 7.18712C10.9082 7.36935 10.8177 7.44619 10.708 7.44509C10.4884 7.44179 10.5535 7.26396 10.3509 7.20908C10.2664 7.20688 10.1277 7.28482 10.0565 7.4374C9.78627 8.13446 9.54016 7.43521 9.64512 7.11028C9.6608 7.42094 9.74284 7.60536 9.82728 7.59987C9.88881 7.59438 9.9431 7.46485 10.0215 7.32873C10.0818 7.22444 10.2266 7.03674 10.3798 7.03674C10.5198 7.04003 10.4317 7.27384 10.7116 7.27055C10.8467 7.26836 10.971 7.17395 11.0964 6.98514C11.1242 6.98075 11.1314 7.02576 11.1374 7.04113C11.1567 7.10589 11.2798 7.28372 11.4463 7.12126C11.4378 7.08613 11.4415 7.02795 11.3992 7.01588L11.474 6.87318Z" fill="white"/>
<path fill-rule="evenodd" clip-rule="evenodd" d="M12.3535 6.29578C12.2051 6.36274 12.0965 6.30127 12.035 6.24199C12.1424 6.22223 12.2256 6.1871 12.2497 6.11026C12.2015 6.01147 12.0869 5.96866 11.9252 5.96756C11.7093 5.97305 11.5983 6.05209 11.585 6.16076C11.6851 6.16405 11.7756 6.1388 11.8142 6.22662C11.6369 6.30566 11.4282 6.3342 11.2014 6.3331C10.8298 6.35066 10.7755 6.19808 10.6778 6.06416C10.6706 6.05538 10.638 6.04111 10.6211 6.0433C10.5065 6.0433 10.422 6.40774 10.293 6.40665C10.1639 6.39128 10.1928 6.17174 10.1554 6.0466C10.1241 6.24309 10.1952 6.97417 10.5946 6.18052C10.6066 6.15417 10.6235 6.16186 10.6344 6.18381C10.7417 6.40555 10.9601 6.48239 11.1953 6.49337C11.392 6.50325 11.6429 6.42531 11.912 6.287C11.9831 6.35835 12.0398 6.43958 12.1894 6.45495C12.3644 6.46263 12.5513 6.34737 12.5936 6.20467C12.6153 6.13112 12.6189 5.98622 12.5332 5.98403C12.4138 5.98073 12.327 6.24419 12.3547 6.48129C12.3571 6.478 12.3704 6.42202 12.3704 6.42202M11.842 6.10587C11.9204 6.07294 11.9964 6.05757 12.0567 6.13002C12.0097 6.14539 11.9807 6.15527 11.9554 6.17393C11.9216 6.14978 11.8758 6.13771 11.842 6.10587ZM12.4186 6.26943C12.4379 6.19149 12.4488 6.12892 12.5188 6.08831C12.5332 6.17064 12.5357 6.21674 12.4186 6.26943Z" fill="white"/>
<path fill-rule="evenodd" clip-rule="evenodd" d="M12.8891 6.39018C12.8662 6.32322 12.8433 6.26504 12.8361 6.19259C12.8192 6.0455 12.9579 5.96207 13.0834 5.97415C13.2125 5.98622 13.2981 6.03013 13.4212 6.06855C13.5177 6.09819 13.648 6.12124 13.7722 6.15308C13.8422 6.18162 13.7722 6.25626 13.7541 6.26614C13.4429 6.37701 13.2221 6.55264 13.0243 6.56033C12.906 6.56582 12.8011 6.49556 12.7058 6.35176C12.6997 6.07294 12.6889 5.74582 12.6587 5.54055C12.7046 5.49884 12.7142 5.4681 12.7359 5.43407C12.7601 5.70521 12.7697 5.99061 12.7757 6.27821C12.8011 6.32761 12.8324 6.36932 12.8891 6.39018ZM13.0882 6.41214C12.9217 6.45495 12.9422 6.32651 12.9265 6.24748C12.9084 6.15527 12.9205 6.05099 13.0496 6.07733C13.2173 6.11795 13.3705 6.17174 13.5189 6.22882L13.0882 6.41214Z" fill="white"/>
<path fill-rule="evenodd" clip-rule="evenodd" d="M12.9253 6.54825L12.9483 6.65034H12.9663L12.9591 6.55484" fill="white"/>
<path fill-rule="evenodd" clip-rule="evenodd" d="M10.27 7.61523L10.3545 7.5362L10.4522 7.61194L10.3617 7.68549L10.27 7.61523Z" fill="white"/>
<path fill-rule="evenodd" clip-rule="evenodd" d="M10.4848 7.58889L10.5704 7.50985L10.6681 7.5856L10.5777 7.65914L10.4848 7.58889Z" fill="white"/>
<path fill-rule="evenodd" clip-rule="evenodd" d="M9.88761 6.76999L9.97326 6.69096L10.071 6.7667L9.9805 6.84025L9.88761 6.76999Z" fill="white"/>
<path fill-rule="evenodd" clip-rule="evenodd" d="M9.92621 7.00271L10.0119 6.92368L10.1084 6.99942L10.0179 7.07297L9.92621 7.00271Z" fill="white"/>
<path fill-rule="evenodd" clip-rule="evenodd" d="M11.4764 7.3924L11.5549 7.33422L11.6272 7.40557L11.5452 7.45826L11.4764 7.3924Z" fill="white"/>
<path fill-rule="evenodd" clip-rule="evenodd" d="M10.4413 5.9028L10.4968 5.85121L10.5608 5.9006L10.5017 5.9489L10.4413 5.9028Z" fill="white"/>
<path fill-rule="evenodd" clip-rule="evenodd" d="M10.5825 5.88633L10.638 5.83364L10.7019 5.88413L10.6428 5.93134L10.5825 5.88633Z" fill="white"/>
<path fill-rule="evenodd" clip-rule="evenodd" d="M13.5454 6.4758L13.4923 6.51642L13.4417 6.46922L13.4972 6.4319L13.5454 6.4758Z" fill="white"/>
<path fill-rule="evenodd" clip-rule="evenodd" d="M11.0482 7.93248L11.0421 8.0192L11.1941 8.03237L11.316 7.94894L11.0482 7.93248Z" fill="white"/>
<path fill-rule="evenodd" clip-rule="evenodd" d="M12.333 6.31224L12.3776 6.30346L12.3728 6.41653L12.345 6.42641L12.333 6.31224Z" fill="white"/>
<path d="M12 10.8638C13.7126 10.8638 15.106 9.59593 15.106 8.03786C15.106 7.18054 14.6856 6.41557 14.024 5.89848C14.421 6.3235 14.6623 6.88306 14.6623 7.49222C14.6623 8.84537 13.4712 9.94309 12 9.94309C10.5287 9.94309 9.33766 8.84537 9.33766 7.49222C9.33766 6.88306 9.57897 6.3235 9.97596 5.89848C9.31428 6.41557 8.89391 7.18054 8.89391 8.03786C8.89391 9.59593 10.2874 10.8638 12 10.8638Z" fill="white"/>
<path d="M11.5797 12.436C10.8946 12.7476 10.0384 12.6626 9.31444 12.2377C9.2833 12.2235 9.26773 12.2447 9.29887 12.3227C9.37671 12.5281 9.43898 12.691 9.20546 12.9955C9.10426 13.1301 9.22102 13.1514 9.39228 13.1372C10.2641 13.0593 11.1204 12.8822 11.5329 12.7335L11.5797 12.436Z" fill="white"/>
<path d="M11.5641 12.8043C11.2916 12.9035 10.8246 13.0239 10.303 13.1089C10.0929 13.1372 10.1006 13.2576 10.4743 13.3001C10.8557 13.3355 11.3461 13.0876 11.6419 12.868L11.5641 12.8043Z" fill="white"/>
<path d="M12 12.1243C12.0934 12.1243 12.2647 12.0889 12.4359 12.0677C12.7551 12.0181 12.5215 12.4643 12 12.4643V12.6131C12.5293 12.6131 13.082 12.0889 12.9652 11.8552C12.8018 11.5152 12.3503 11.8056 12 11.8056C11.6497 11.8056 11.1982 11.5152 11.0348 11.8552C10.918 12.0889 11.4707 12.6131 12 12.6131V12.4643C11.4785 12.4643 11.2449 12.0181 11.5641 12.0677C11.7353 12.0889 11.9066 12.1243 12 12.1243Z" fill="white"/>
<path d="M12.4203 12.436C13.1054 12.7476 13.9616 12.6626 14.6856 12.2377C14.7167 12.2235 14.7323 12.2447 14.7011 12.3227C14.6233 12.5281 14.561 12.691 14.7945 12.9955C14.8957 13.1301 14.779 13.1514 14.6077 13.1372C13.7359 13.0593 12.8796 12.8822 12.4671 12.7335L12.4203 12.436Z" fill="white"/>
<path d="M12.4359 12.8043C12.7084 12.9035 13.1676 13.0239 13.697 13.1089C13.9071 13.1372 13.8994 13.2576 13.5257 13.3001C13.1443 13.3355 12.6539 13.0876 12.3581 12.868L12.4359 12.8043Z" fill="white"/>
<path d="M12.0234 12.7335C12.0389 12.8539 12.0623 13.1159 12.2413 13.0026C12.4826 12.8539 12.5371 12.7405 12.5371 12.5281C12.5371 12.3935 12.3581 12.1952 12 12.1952C11.6419 12.1952 11.4629 12.3935 11.4629 12.5281C11.4629 12.7405 11.5174 12.8539 11.7587 13.0026C11.9377 13.1159 11.9533 12.8539 11.9766 12.7335C11.9844 12.691 12.0234 12.7051 12.0234 12.7335Z" fill="white"/>
<path d="M11.7743 3.66011C11.6731 3.13596 10.8246 3.10055 10.6922 3.01555C10.5366 2.92347 10.5599 3.01555 10.6144 3.15721C10.7701 3.52553 11.2994 3.67427 11.5407 3.71677C11.7353 3.7451 11.7976 3.75927 11.7743 3.66011Z" fill="white"/>
<path d="M12.0311 3.67427C12.1168 3.13596 11.2761 2.88097 11.1749 2.76056C11.0581 2.63307 11.0425 2.71098 11.097 2.85973C11.1982 3.17846 11.5641 3.55386 11.782 3.65302C11.9611 3.73802 12.0156 3.77344 12.0311 3.67427Z" fill="white"/>
<path d="M12.7239 3.98593C12.8018 3.34137 12.1168 3.24221 11.9377 3.0368C11.821 2.90931 11.8132 2.98014 11.8521 3.12888C11.9299 3.4547 12.2724 3.83718 12.4826 3.9576C12.6461 4.04967 12.7162 4.08509 12.7239 3.98593Z" fill="white"/>
<path d="M12.5138 3.84427C11.8054 3.42637 11.3072 3.66011 11.1048 3.63886C10.9102 3.61761 10.8479 3.73094 11.1827 3.90093C11.5952 4.10634 12.1713 4.07801 12.397 4.00009C12.6305 3.9151 12.5605 3.8726 12.5138 3.84427Z" fill="white"/>
<path d="M13.5802 4.12759C13.3622 3.43345 12.8563 3.54678 12.7084 3.46178C12.5605 3.37679 12.5449 3.39804 12.576 3.55386C12.6383 3.8301 13.1599 4.13467 13.4167 4.22675C13.5101 4.25508 13.6269 4.29758 13.5802 4.12759Z" fill="white"/>
<path d="M13.479 4.248C12.8718 3.80177 12.397 4.13467 12.2102 4.08509C12.0701 4.04967 12.1323 4.13467 12.1868 4.17009C12.576 4.41799 13.0587 4.55257 13.4323 4.39674C13.5802 4.34008 13.588 4.32591 13.479 4.248Z" fill="white"/>
<path d="M14.7945 4.70131C14.8023 4.26217 13.8059 4.07801 13.5958 3.80885C13.4712 3.64594 13.3622 3.73094 13.4245 3.99301C13.5179 4.33299 14.2029 4.7084 14.5766 4.77923C14.8023 4.82172 14.7945 4.75089 14.7945 4.70131Z" fill="white"/>
<path d="M14.7634 4.77923C14.1329 4.26217 13.6036 4.43216 13.4089 4.38258C13.2143 4.34008 13.1365 4.44632 13.4401 4.65881C13.8137 4.9138 14.3898 4.96338 14.6311 4.9138C14.8724 4.86422 14.8101 4.81464 14.7634 4.77923Z" fill="white"/>
<path d="M15.8921 5.53711C15.7131 4.78631 15.1448 4.63048 15.0047 4.48882C14.8724 4.34716 14.7323 4.38966 14.849 4.72964C14.9892 5.13338 15.4484 5.48753 15.6897 5.57253C15.9233 5.6646 15.9077 5.59377 15.8921 5.53711Z" fill="white"/>
<path d="M15.8843 5.63627C15.4251 4.96338 14.8257 4.98463 14.6389 4.89255C14.4598 4.79339 14.3353 4.87839 14.5766 5.16879C14.8568 5.52294 15.4329 5.72127 15.6975 5.73543C15.9622 5.7496 15.9155 5.68585 15.8843 5.63627Z" fill="white"/>
<path d="M16.4759 6.43665C16.7406 5.67169 16.1334 5.38837 16.0712 5.26087C16.0011 5.13338 15.931 5.13338 15.8921 5.26795C15.7209 5.81335 16.2736 6.34457 16.3592 6.45082C16.4448 6.54998 16.4604 6.5004 16.4759 6.43665Z" fill="white"/>
<path d="M16.3514 6.64915C16.1412 5.7921 15.5885 5.84168 15.464 5.72127C15.3317 5.60086 15.3161 5.68585 15.3394 5.84168C15.4017 6.25958 15.9544 6.5429 16.2035 6.68456C16.2813 6.72706 16.3747 6.77664 16.3514 6.64915Z" fill="white"/>
<path d="M16.8807 7.65494C17.2621 6.84747 16.8107 6.30208 16.6705 6.18167C16.5304 6.06834 16.4448 6.01876 16.4915 6.18167C16.5538 6.42957 16.3358 7.06704 16.6705 7.53452C16.7795 7.69035 16.7951 7.83909 16.8807 7.65494Z" fill="white"/>
<path d="M16.6783 7.81784C16.764 7.32203 16.4526 6.86872 16.1179 6.69164C15.9233 6.5854 15.9155 6.61373 15.9155 6.76247C15.931 7.22287 16.4059 7.60535 16.546 7.81784C16.6783 8.01617 16.6705 7.86742 16.6783 7.81784Z" fill="white"/>
<path d="M16.5927 9.10696C16.3125 8.172 16.8963 7.63369 17.0753 7.52744C17.2466 7.41411 17.3556 7.37161 17.2777 7.54869C17.161 7.81076 17.2855 8.54031 16.8418 9.00071C16.7017 9.15654 16.6472 9.31945 16.5927 9.10696Z" fill="white"/>
<path d="M16.655 8.90155C16.8885 8.087 16.3825 7.6266 16.2268 7.53452C16.0789 7.44244 15.9855 7.40703 16.0556 7.55577C16.149 7.78243 16.0478 8.4199 16.437 8.81655C16.5616 8.95113 16.6083 9.08571 16.655 8.90155Z" fill="white"/>
<path d="M16.367 8.51906C15.9466 8.92988 15.9388 9.53194 16.1256 9.88609C16.2424 10.0915 16.258 10.0773 16.367 9.92859C16.6628 9.49652 16.4837 8.87322 16.4993 8.59698C16.5071 8.33491 16.4137 8.47657 16.367 8.51906Z" fill="white"/>
<path d="M17.0598 9.1707C17.0598 9.73734 16.6783 10.1977 16.2736 10.3394C16.04 10.4173 16.04 10.3961 16.0712 10.2261C16.1801 9.5886 16.7173 9.35486 16.9119 9.14945C17.0987 8.95113 17.0598 9.11404 17.0598 9.1707Z" fill="white"/>
<path d="M15.6119 10.8565C16.2969 10.2898 15.931 9.89317 15.9622 9.52485C15.9777 9.32653 15.8921 9.37611 15.8143 9.44694C15.3784 9.83651 15.355 10.5306 15.4484 10.7998C15.4873 10.9202 15.5496 10.906 15.6119 10.8565Z" fill="white"/>
<path d="M16.5304 10.4881C16.3047 11.1115 15.7053 11.4939 15.1993 11.5152C14.9035 11.5294 14.9113 11.5081 15.0125 11.3239C15.3939 10.6581 16.0712 10.5802 16.3747 10.4102C16.655 10.2544 16.5538 10.4244 16.5304 10.4881Z" fill="white"/>
<path d="M14.67 11.6568C15.5574 11.2531 15.3784 10.5802 15.5418 10.4102C15.6586 10.2898 15.5185 10.304 15.4484 10.3465C14.9269 10.6227 14.5065 11.0619 14.4987 11.5294C14.4987 11.7064 14.5143 11.7277 14.67 11.6568Z" fill="white"/>
<path d="M13.4557 12.4076C14.5766 12.5706 15.0981 11.7985 15.4251 11.7277C15.5963 11.6923 15.4718 11.6285 15.3861 11.6214C14.6389 11.5435 13.6892 11.8623 13.4012 12.2164C13.2844 12.3581 13.2844 12.3864 13.4557 12.4076Z" fill="white"/>
<path d="M14.5922 11.1964C14.3664 11.8693 13.5257 12.4218 12.8952 12.4643C12.5994 12.4856 12.5994 12.4572 12.7084 12.2802C13.2143 11.4444 14.094 11.3027 14.4053 11.0902C14.67 10.906 14.6155 11.1327 14.5922 11.1964Z" fill="white"/>
<path d="M12.2257 3.66011C12.3269 3.13596 13.1754 3.10055 13.3078 3.01555C13.4634 2.92347 13.4401 3.01555 13.3856 3.15721C13.2299 3.52553 12.7006 3.67427 12.4593 3.71677C12.2647 3.7451 12.2024 3.75927 12.2257 3.66011Z" fill="white"/>
<path d="M11.9689 3.67427C11.8832 3.13596 12.7239 2.88097 12.8251 2.76056C12.9419 2.63307 12.9575 2.71098 12.903 2.85973C12.8018 3.17846 12.4359 3.55386 12.218 3.65302C12.0389 3.73802 11.9844 3.77344 11.9689 3.67427Z" fill="white"/>
<path d="M11.2761 3.98593C11.1982 3.34137 11.8832 3.24221 12.0623 3.0368C12.179 2.90931 12.1868 2.98014 12.1479 3.12888C12.0701 3.4547 11.7276 3.83718 11.5174 3.9576C11.3539 4.04967 11.2838 4.08509 11.2761 3.98593Z" fill="white"/>
<path d="M11.4862 3.84427C12.1946 3.42637 12.6928 3.66011 12.8952 3.63886C13.0898 3.61761 13.1521 3.73094 12.8173 3.90093C12.4048 4.10634 11.8287 4.07801 11.603 4.00009C11.3695 3.9151 11.4395 3.8726 11.4862 3.84427Z" fill="white"/>
<path d="M10.4198 4.12759C10.6378 3.43345 11.1437 3.54678 11.2916 3.46178C11.4395 3.37679 11.4551 3.39804 11.424 3.55386C11.3617 3.8301 10.8401 4.13467 10.5833 4.22675C10.4899 4.25508 10.3731 4.29758 10.4198 4.12759Z" fill="white"/>
<path d="M10.521 4.248C11.1282 3.80177 11.603 4.13467 11.7898 4.08509C11.9299 4.04967 11.8677 4.13467 11.8132 4.17009C11.424 4.41799 10.9413 4.55257 10.5677 4.39674C10.4198 4.34008 10.412 4.32591 10.521 4.248Z" fill="white"/>
<path d="M9.20546 4.70131C9.19767 4.26217 10.1941 4.07801 10.4042 3.80885C10.5288 3.64594 10.6378 3.73094 10.5755 3.99301C10.4821 4.33299 9.79706 4.7084 9.42342 4.77923C9.19767 4.82172 9.20546 4.75089 9.20546 4.70131Z" fill="white"/>
<path d="M9.23659 4.77923C9.86712 4.26217 10.3964 4.43216 10.5911 4.38258C10.7857 4.34008 10.8635 4.44632 10.5599 4.65881C10.1863 4.9138 9.61024 4.96338 9.36893 4.9138C9.12761 4.86422 9.18989 4.81464 9.23659 4.77923Z" fill="white"/>
<path d="M8.10788 5.53711C8.28692 4.78631 8.85517 4.63048 8.99528 4.48882C9.12761 4.34716 9.26773 4.38966 9.15097 4.72964C9.01085 5.13338 8.55158 5.48753 8.31027 5.57253C8.07674 5.6646 8.09231 5.59377 8.10788 5.53711Z" fill="white"/>
<path d="M8.11566 5.63627C8.57493 4.96338 9.17432 4.98463 9.36114 4.89255C9.54018 4.79339 9.66473 4.87839 9.42342 5.16879C9.14318 5.52294 8.56715 5.72127 8.30248 5.73543C8.03782 5.7496 8.08453 5.68585 8.11566 5.63627Z" fill="white"/>
<path d="M7.52406 6.43665C7.2594 5.67169 7.86657 5.38837 7.92884 5.26087C7.9989 5.13338 8.06896 5.13338 8.10788 5.26795C8.27913 5.81335 7.72645 6.34457 7.64082 6.45082C7.5552 6.54998 7.53963 6.5004 7.52406 6.43665Z" fill="white"/>
<path d="M7.64861 6.64915C7.85878 5.7921 8.41146 5.84168 8.53601 5.72127C8.66834 5.60086 8.68391 5.68585 8.66056 5.84168C8.59829 6.25958 8.0456 6.5429 7.79651 6.68456C7.71867 6.72706 7.62526 6.77664 7.64861 6.64915Z" fill="white"/>
<path d="M7.11928 7.65494C6.73785 6.84747 7.18934 6.30208 7.32945 6.18167C7.46957 6.06834 7.5552 6.01876 7.50849 6.18167C7.44622 6.42957 7.66418 7.06704 7.32945 7.53452C7.22047 7.69035 7.20491 7.83909 7.11928 7.65494Z" fill="white"/>
<path d="M7.32167 7.81784C7.23604 7.32203 7.54741 6.86872 7.88213 6.69164C8.07674 6.5854 8.08453 6.61373 8.08453 6.76247C8.06896 7.22287 7.59412 7.60535 7.454 7.81784C7.32167 8.01617 7.32945 7.86742 7.32167 7.81784Z" fill="white"/>
<path d="M7.4073 9.10696C7.68753 8.172 7.10371 7.63369 6.92467 7.52744C6.75342 7.41411 6.64444 7.37161 6.72228 7.54869C6.83905 7.81076 6.7145 8.54031 7.1582 9.00071C7.29832 9.15654 7.34502 9.31945 7.4073 9.10696Z" fill="white"/>
<path d="M7.34502 8.90155C7.1115 8.087 7.61747 7.6266 7.77316 7.53452C7.92106 7.44244 8.01447 7.40703 7.94441 7.55577C7.851 7.78243 7.95219 8.4199 7.56298 8.81655C7.43843 8.95113 7.39173 9.08571 7.34502 8.90155Z" fill="white"/>
<path d="M7.63304 8.51906C8.05339 8.92988 8.06117 9.53194 7.87435 9.88609C7.75759 10.0915 7.74202 10.0773 7.63304 9.92859C7.33724 9.49652 7.51627 8.87322 7.50071 8.59698C7.49292 8.33491 7.58633 8.47657 7.63304 8.51906Z" fill="white"/>
<path d="M6.94024 9.1707C6.94024 9.73734 7.32167 10.1977 7.72645 10.3394C7.95998 10.4173 7.95998 10.3961 7.92884 10.2261C7.81986 9.5886 7.28275 9.35486 7.08814 9.14945C6.90132 8.95113 6.94024 9.11404 6.94024 9.1707Z" fill="white"/>
<path d="M8.38811 10.8565C7.7031 10.2898 8.06896 9.89317 8.03782 9.52485C8.02225 9.32653 8.10788 9.37611 8.18572 9.44694C8.62164 9.83651 8.64499 10.5306 8.55158 10.7998C8.51266 10.9202 8.45039 10.906 8.38811 10.8565Z" fill="white"/>
<path d="M7.46957 10.4881C7.69531 11.1115 8.2947 11.4939 8.80068 11.5152C9.09648 11.5294 9.08869 11.5081 8.9875 11.3239C8.60607 10.6581 7.92884 10.5802 7.62526 10.4102C7.34502 10.2544 7.44622 10.4244 7.46957 10.4881Z" fill="white"/>
<path d="M9.33 11.6568C8.4426 11.2531 8.62164 10.5802 8.45817 10.4102C8.3414 10.2898 8.48152 10.304 8.55158 10.3465C9.07312 10.6227 9.49347 11.0619 9.50126 11.5294C9.50126 11.7064 9.48569 11.7277 9.33 11.6568Z" fill="white"/>
<path d="M10.5443 12.4076C9.42341 12.5706 8.90187 11.7985 8.57493 11.7277C8.40368 11.6923 8.52823 11.6285 8.61385 11.6214C9.36114 11.5435 10.3108 11.8623 10.5988 12.2164C10.7156 12.3581 10.7156 12.3864 10.5443 12.4076Z" fill="white"/>
<path d="M9.40785 11.1964C9.63359 11.8693 10.4743 12.4218 11.1048 12.4643C11.4006 12.4856 11.4006 12.4572 11.2916 12.2802C10.7857 11.4444 9.90604 11.3027 9.59467 11.0902C9.33 10.906 9.38449 11.1327 9.40785 11.1964Z" fill="white"/>
<path d="M13.3158 4.31173C13.1679 4.21257 12.623 4.26923 12.5218 4.20548C12.7164 4.35423 13.1523 4.24798 13.3158 4.31173Z" fill="#006233"/>
<path d="M14.6313 4.56672C14.5146 4.37548 13.8218 4.24798 13.7206 4.07799C13.8996 4.40381 14.4367 4.36131 14.6313 4.56672Z" fill="#006233"/>
<path d="M14.5302 4.78629C14.2733 4.55964 13.6739 4.65171 13.4948 4.51714C13.9152 4.86421 14.1487 4.59505 14.5302 4.78629Z" fill="#006233"/>
<path d="M13.0278 3.7805C13.1913 3.85842 13.3937 3.93633 13.4948 4.12049C13.3781 3.97883 13.1679 3.92216 12.9967 3.80175C13.0044 3.80175 13.02 3.78759 13.0278 3.7805Z" fill="#006233"/>
<path d="M15.581 5.23961C15.4798 5.02711 15.1218 4.79338 15.0906 4.71546C15.1918 4.9917 15.4876 5.05545 15.581 5.23961Z" fill="#006233"/>
<path d="M15.6744 5.61501C15.3631 5.16878 14.8727 5.21836 14.6781 5.04836C14.826 5.21127 15.3864 5.31752 15.6744 5.61501Z" fill="#006233"/>
<path d="M16.3984 6.30206C16.4217 5.8275 16.0325 5.65042 16.0169 5.38127C16.0092 5.7 16.4139 6.13207 16.3984 6.30206Z" fill="#006233"/>
<path d="M16.2038 6.55705C16.1259 6.14623 15.5966 6.1179 15.5032 5.87708C15.5032 6.10373 16.1259 6.33747 16.2038 6.55705Z" fill="#006233"/>
<path d="M16.6397 6.32331C16.9199 6.63496 16.7253 7.10952 16.8421 7.45659C16.7019 7.2016 16.772 6.56413 16.6397 6.32331Z" fill="#006233"/>
<path d="M16.1804 7.65492C16.6008 8.06573 16.4295 8.52613 16.6008 8.72445C16.3906 8.44822 16.4217 7.90991 16.1804 7.65492Z" fill="#006233"/>
<path d="M17.0522 7.71158C16.6942 8.07282 16.9121 8.61821 16.7253 8.8732C16.9355 8.65363 16.9043 7.98074 17.0522 7.71158Z" fill="#006233"/>
<path d="M16.6008 7.71158C16.5541 7.29368 16.1259 7.07411 16.087 6.84745C16.0403 7.07411 16.4996 7.42826 16.6008 7.71158Z" fill="#006233"/>
<path d="M16.3828 8.71029C16.4529 9.00069 16.196 9.624 16.2738 9.81524C16.1026 9.48234 16.4217 8.85195 16.3828 8.71029Z" fill="#006233"/>
<path d="M16.9355 9.37609C16.7642 9.89316 16.4217 9.85774 16.3127 10.1694C16.3906 9.87191 16.8421 9.60275 16.9355 9.37609Z" fill="#006233"/>
<path d="M15.8223 9.61692C15.5966 9.96399 15.7834 10.3606 15.5966 10.6085C15.8613 10.3606 15.7211 9.90024 15.8223 9.61692Z" fill="#006233"/>
<path d="M16.3672 10.566C16.0948 11.0264 15.5343 10.9839 15.3086 11.3168C15.5343 10.8989 16.2271 10.8281 16.3672 10.566Z" fill="#006233"/>
<path d="M15.3786 10.5094C14.896 10.814 15.0439 11.1327 14.6781 11.4727C15.1373 11.1327 15.0984 10.7573 15.3786 10.5094Z" fill="#006233"/>
<path d="M15.1529 11.7418C14.6858 11.7277 14.0164 12.2801 13.6116 12.2376C14.0164 12.3156 14.7637 11.8197 15.1529 11.7418Z" fill="#006233"/>
<path d="M14.3978 11.246C14.3667 11.6781 13.1523 11.9543 13.02 12.2447C13.1679 11.8622 14.2343 11.5789 14.3978 11.246Z" fill="#006233"/>
<path d="M11.65 3.27761C11.4943 3.1572 11.3075 3.05803 11.253 2.93762C11.2919 3.09345 11.4476 3.20678 11.6033 3.31302C11.6188 3.30594 11.6344 3.28469 11.65 3.27761Z" fill="#006233"/>
<path d="M11.3853 3.4051C11.144 3.29886 10.8638 3.30594 10.7392 3.1572C10.8171 3.30594 11.0817 3.3626 11.3075 3.44052C11.3308 3.42635 11.362 3.41218 11.3853 3.4051Z" fill="#006233"/>
<path d="M10.6847 4.31173C10.8326 4.21257 11.3775 4.26923 11.4787 4.20548C11.2841 4.35423 10.8482 4.24798 10.6847 4.31173Z" fill="#006233"/>
<path d="M9.3692 4.56672C9.48596 4.37548 10.1788 4.24798 10.28 4.07799C10.1009 4.40381 9.5638 4.36131 9.3692 4.56672Z" fill="#006233"/>
<path d="M9.47039 4.78629C9.72727 4.55964 10.3267 4.65171 10.5057 4.51714C10.0853 4.86421 9.85182 4.59505 9.47039 4.78629Z" fill="#006233"/>
<path d="M10.5057 4.12049C10.6536 3.83717 11.0739 3.80175 11.1829 3.63176C11.0195 3.88675 10.6614 3.92925 10.5057 4.12049Z" fill="#006233"/>
<path d="M11.7045 3.87258C12.1326 3.68842 12.553 3.84425 12.7553 3.75925C12.5062 3.87966 11.9146 3.823 11.7045 3.87258Z" fill="#006233"/>
<path d="M8.41952 5.23961C8.52071 5.02711 8.87879 4.79338 8.90993 4.71546C8.80873 4.9917 8.51293 5.05545 8.41952 5.23961Z" fill="#006233"/>
<path d="M8.32611 5.61501C8.63748 5.16878 9.12789 5.21836 9.32249 5.04836C9.17459 5.21127 8.61413 5.31752 8.32611 5.61501Z" fill="#006233"/>
<path d="M7.60217 6.30206C7.57882 5.8275 7.96803 5.65042 7.9836 5.38127C7.99139 5.7 7.5866 6.13207 7.60217 6.30206Z" fill="#006233"/>
<path d="M7.79678 6.55705C7.87462 6.14623 8.40395 6.1179 8.49736 5.87708C8.49736 6.10373 7.87462 6.33747 7.79678 6.55705Z" fill="#006233"/>
<path d="M7.36086 6.32331C7.08063 6.63496 7.27523 7.10953 7.15847 7.45659C7.29859 7.2016 7.22853 6.56413 7.36086 6.32331Z" fill="#006233"/>
<path d="M7.82013 7.65492C7.39978 8.06573 7.57103 8.52613 7.39978 8.72445C7.60995 8.44822 7.57881 7.90991 7.82013 7.65492Z" fill="#006233"/>
<path d="M6.9483 7.71158C7.30637 8.07282 7.08841 8.61821 7.27523 8.8732C7.06506 8.65363 7.0962 7.98074 6.9483 7.71158Z" fill="#006233"/>
<path d="M7.39978 7.71158C7.44648 7.29368 7.87462 7.07411 7.91354 6.84745C7.96024 7.07411 7.50097 7.42826 7.39978 7.71158Z" fill="#006233"/>
<path d="M7.61774 8.71029C7.54768 9.00069 7.80456 9.624 7.72672 9.81524C7.89797 9.48234 7.57882 8.85195 7.61774 8.71029Z" fill="#006233"/>
<path d="M7.06506 9.37609C7.23631 9.89316 7.57882 9.85774 7.6878 10.1694C7.60996 9.87191 7.15847 9.60275 7.06506 9.37609Z" fill="#006233"/>
<path d="M8.17821 9.61692C8.40395 9.96399 8.21713 10.3606 8.40395 10.6085C8.13929 10.3606 8.2794 9.90024 8.17821 9.61692Z" fill="#006233"/>
<path d="M7.63331 10.566C7.90576 11.0264 8.46622 10.9839 8.69197 11.3168C8.46622 10.8989 7.77343 10.8281 7.63331 10.566Z" fill="#006233"/>
<path d="M8.62191 10.5094C9.10453 10.814 8.95663 11.1327 9.32249 11.4727C8.86322 11.1327 8.90214 10.7573 8.62191 10.5094Z" fill="#006233"/>
<path d="M8.84765 11.7418C9.31471 11.7277 9.98415 12.2801 10.3889 12.2376C9.98415 12.3156 9.23687 11.8197 8.84765 11.7418Z" fill="#006233"/>
<path d="M9.60272 11.246C9.63386 11.6781 10.8482 11.9543 10.9805 12.2447C10.8326 11.8622 9.76619 11.5789 9.60272 11.246Z" fill="#006233"/>
<path d="M11.3697 3.88675C11.4632 3.50426 11.9302 3.43343 11.9925 3.20678C11.9691 3.4476 11.4165 3.71676 11.3697 3.88675Z" fill="#006233"/>
<path d="M12.7476 2.93762C12.6775 3.22803 12.1715 3.39094 12.1015 3.61051C12.1248 3.31302 12.6464 3.14303 12.7476 2.93762Z" fill="#006233"/>
<path d="M12.3506 3.62468C12.5919 3.27052 13.0901 3.3626 13.2613 3.1572C13.1368 3.39802 12.5218 3.4051 12.3506 3.62468Z" fill="#006233"/>
<path d="M11.2664 11.3346L11.2533 11.3754C11.2445 11.4025 11.2155 11.4169 11.1835 11.4157C11.1088 11.3958 11.0095 11.3767 10.9198 11.3527L11.0031 11.0946C11.1002 11.1205 11.1995 11.1397 11.2689 11.1508C11.2988 11.1588 11.3146 11.1852 11.3059 11.2123L11.2949 11.2463M10.6653 11.0855L10.6785 11.0447C10.6872 11.0176 10.7162 11.0032 10.7461 11.0112C10.8186 11.0379 10.906 11.0686 11.0031 11.0946L10.9198 11.3527C10.8302 11.3288 10.7406 11.3048 10.6606 11.2761C10.6329 11.2613 10.6259 11.2078 10.6346 11.1806" fill="#F7C608"/>
<path d="M11.2154 11.3121L11.2059 11.3413C11.1996 11.361 11.1763 11.3703 11.15 11.3684C11.0878 11.3518 11.0055 11.335 10.931 11.3151L10.9906 11.1303C11.0714 11.1519 11.1537 11.1687 11.2111 11.1789C11.2359 11.1855 11.25 11.2048 11.2436 11.2245L11.2357 11.2489M10.7124 11.1143L10.7218 11.0851C10.7282 11.0654 10.7514 11.0561 10.7762 11.0627C10.8368 11.0841 10.9098 11.1088 10.9906 11.1303L10.931 11.3151C10.8565 11.2952 10.7819 11.2753 10.7151 11.2523C10.6918 11.2409 10.6841 11.2019 10.6905 11.1822" fill="#006233"/>
<path d="M10.2652 11.0118L10.24 11.0475C10.2231 11.0714 10.1909 11.0777 10.1605 11.0684C10.095 11.0301 10.0056 10.9863 9.92703 10.9403L10.0868 10.714C10.172 10.7638 10.2613 10.8076 10.3245 10.8361C10.3507 10.8514 10.3577 10.8808 10.3409 10.9046L10.3199 10.9344M9.76551 10.6187L9.79075 10.583C9.80757 10.5591 9.83983 10.5528 9.86603 10.5681C9.92731 10.6123 10.0017 10.6642 10.0868 10.714L9.92703 10.9403C9.84844 10.8944 9.76984 10.8484 9.702 10.8004C9.68001 10.7791 9.68981 10.7259 9.70663 10.7021" fill="#F7C608"/>
<path d="M10.2231 10.9771L10.2051 11.0027C10.1929 11.02 10.1677 11.023 10.143 11.0144C10.0885 10.9825 10.0147 10.9453 9.94937 10.9071L10.0638 10.7451C10.1346 10.7865 10.2083 10.8237 10.2603 10.8482C10.2821 10.8609 10.2896 10.883 10.2774 10.9003L10.2623 10.9217M9.80176 10.6584L9.81985 10.6328C9.83204 10.6155 9.85721 10.6126 9.87901 10.6253C9.93053 10.6613 9.99295 10.7037 10.0638 10.7451L9.94937 10.9071C9.884 10.8689 9.81863 10.8307 9.76166 10.7915C9.74281 10.7746 9.7475 10.7352 9.7597 10.718" fill="#006233"/>
<path d="M9.40457 10.4454L9.3693 10.4732C9.34578 10.4917 9.31284 10.4896 9.28657 10.4728C9.23558 10.4193 9.16342 10.3544 9.10223 10.2901L9.32564 10.1139C9.39192 10.1835 9.46409 10.2484 9.51586 10.292C9.53626 10.3134 9.53392 10.3433 9.5104 10.3619L9.481 10.3851M9.04681 9.94013L9.08209 9.9123C9.10561 9.89376 9.13854 9.8959 9.15893 9.91731C9.20404 9.97547 9.25935 10.0443 9.32564 10.1139L9.10223 10.2901C9.04104 10.2259 8.97985 10.1617 8.92964 10.0982C8.91512 10.0721 8.94098 10.0236 8.9645 10.005" fill="#F7C608"/>
<path d="M9.37497 10.4013L9.34969 10.4213C9.33264 10.4347 9.30757 10.4311 9.28649 10.4165C9.24408 10.372 9.18484 10.3174 9.13395 10.264L9.29386 10.1378C9.34899 10.1957 9.40824 10.2503 9.45052 10.2872C9.46748 10.305 9.46786 10.3281 9.45081 10.3415L9.42965 10.3582M9.0693 9.98751L9.09458 9.96757C9.11163 9.95413 9.1367 9.95774 9.15367 9.97555C9.19196 10.0233 9.23873 10.08 9.29386 10.1378L9.13395 10.264C9.08306 10.2106 9.03216 10.1571 8.98963 10.1049C8.97678 10.0839 8.99346 10.0473 9.01051 10.0339" fill="#006233"/>
<path d="M8.75388 9.68136L8.71142 9.69901C8.68311 9.71078 8.65217 9.70028 8.63215 9.67745C8.5998 9.61303 8.55066 9.53222 8.51183 9.45491L8.78075 9.34309C8.82281 9.42684 8.87195 9.50765 8.90814 9.56269C8.92109 9.58846 8.90957 9.61662 8.88126 9.62839L8.84587 9.6431M8.56701 9.10488L8.60947 9.08722C8.63777 9.07545 8.66871 9.08595 8.68165 9.11172C8.70693 9.17908 8.73868 9.25934 8.78075 9.34309L8.51183 9.45491C8.473 9.3776 8.43417 9.30029 8.40566 9.22648C8.39979 9.19777 8.43962 9.15784 8.46793 9.14607" fill="#F7C608"/>
<path d="M8.73911 9.63151L8.70868 9.64416C8.68815 9.65269 8.66522 9.64279 8.6495 9.62342C8.62259 9.56984 8.58265 9.50224 8.55036 9.43795L8.74285 9.35791C8.77783 9.42756 8.81777 9.49516 8.84694 9.54132C8.85771 9.56275 8.85092 9.58501 8.8304 9.59354L8.80492 9.60414M8.57392 9.15611L8.60435 9.14346C8.62487 9.13492 8.6478 9.14482 8.65857 9.16625C8.68052 9.22189 8.70786 9.28825 8.74285 9.35791L8.55036 9.43795C8.51807 9.37365 8.48577 9.30935 8.46112 9.24835C8.45531 9.22485 8.48262 9.19407 8.50315 9.18553" fill="#006233"/>
<path d="M8.36621 8.78155L8.32 8.78761C8.2892 8.79165 8.26276 8.77365 8.25062 8.74661C8.23952 8.6765 8.21738 8.58637 8.20406 8.50224L8.49671 8.46386C8.51114 8.555 8.53328 8.64514 8.55097 8.70723C8.55541 8.73527 8.53564 8.75934 8.50483 8.76338L8.46633 8.76843M8.36536 8.18051L8.41157 8.17445C8.44237 8.17041 8.46881 8.18841 8.47325 8.21645C8.47665 8.28757 8.48227 8.37272 8.49671 8.46386L8.20406 8.50224C8.19073 8.4181 8.17741 8.33397 8.1729 8.25583C8.17616 8.22678 8.22674 8.19868 8.25754 8.19464" fill="#F7C608"/>
<path d="M8.36747 8.72994L8.33435 8.73428C8.31202 8.73721 8.29308 8.72183 8.28399 8.69922C8.27476 8.64091 8.25736 8.56581 8.24628 8.49584L8.45576 8.46837C8.46776 8.54417 8.48516 8.61927 8.49886 8.67104C8.50255 8.69436 8.48915 8.71398 8.46682 8.71691L8.43909 8.72054M8.35613 8.23144L8.38925 8.22709C8.41158 8.22417 8.43052 8.23954 8.43422 8.26287C8.43806 8.32188 8.44375 8.39256 8.45576 8.46837L8.24628 8.49584C8.2352 8.42586 8.22412 8.35588 8.21935 8.29103C8.22105 8.267 8.25678 8.24446 8.27912 8.24153" fill="#006233"/>
<path d="M8.27297 7.81859L8.22676 7.81256C8.19595 7.80854 8.17616 7.78449 8.17288 7.75544C8.18393 7.68532 8.19059 7.59316 8.20385 7.50902L8.49653 7.54721C8.48216 7.63836 8.4755 7.73052 8.47326 7.79462C8.46884 7.82267 8.44242 7.8407 8.41161 7.83668L8.3731 7.83165M8.45821 7.24166L8.50442 7.24769C8.53523 7.25171 8.55502 7.27576 8.5506 7.3038C8.53185 7.37292 8.51089 7.45605 8.49653 7.54721L8.20385 7.50902C8.21711 7.42488 8.23037 7.34074 8.25023 7.26461C8.26235 7.23757 8.31958 7.22357 8.35038 7.22759" fill="#F7C608"/>
<path d="M8.29016 7.76939L8.25704 7.76507C8.2347 7.76215 8.22129 7.74254 8.21957 7.71851C8.22876 7.6602 8.23532 7.58368 8.24634 7.5137L8.45584 7.54103C8.44389 7.61684 8.43734 7.69336 8.43446 7.74655C8.43078 7.76987 8.41185 7.78526 8.38951 7.78235L8.36179 7.77873M8.43359 7.28816L8.46671 7.29248C8.48905 7.2954 8.50246 7.315 8.49879 7.33833C8.48421 7.39594 8.46779 7.46522 8.45584 7.54103L8.24634 7.5137C8.25737 7.44372 8.2684 7.37374 8.2839 7.31029C8.29297 7.28767 8.33424 7.2752 8.35657 7.27811" fill="#006233"/>
<path d="M8.4815 6.87136L8.43902 6.85373C8.41071 6.84197 8.39917 6.81382 8.40501 6.78511C8.43732 6.72066 8.47223 6.63395 8.511 6.55661L8.78 6.66826C8.738 6.75204 8.70308 6.83876 8.68108 6.89969C8.66816 6.92547 8.63723 6.93599 8.60892 6.92424L8.57352 6.90955M8.83782 6.36527L8.88029 6.3829C8.90861 6.39466 8.92015 6.4228 8.90723 6.44858C8.86785 6.51009 8.822 6.58448 8.78 6.66826L8.511 6.55661C8.54977 6.47928 8.58854 6.40194 8.63116 6.33399C8.65116 6.31115 8.7104 6.31239 8.73872 6.32414" fill="#F7C608"/>
<path d="M8.51322 6.82855L8.48278 6.81591C8.46225 6.80739 8.45545 6.78514 8.46124 6.76165C8.48811 6.70805 8.51809 6.63631 8.55033 6.57199L8.74287 6.65191C8.70794 6.72159 8.67797 6.79332 8.65874 6.84362C8.64799 6.86506 8.62506 6.87497 8.60454 6.86645L8.57905 6.85587M8.7998 6.40358L8.83024 6.41622C8.85077 6.42474 8.85758 6.44698 8.84683 6.46843C8.815 6.51997 8.7778 6.58223 8.74287 6.65191L8.55033 6.57199C8.58257 6.50768 8.61482 6.44335 8.64933 6.38645C8.66503 6.36706 8.70849 6.36568 8.72902 6.3742" fill="#006233"/>
<path d="M8.97476 6.01493L8.93946 5.98713C8.91593 5.9686 8.91357 5.93863 8.92807 5.91257C8.97901 5.85902 9.03936 5.78477 9.1005 5.7205L9.32405 5.89657C9.25782 5.96619 9.19747 6.04045 9.1575 6.09328C9.13712 6.1147 9.10418 6.11687 9.08065 6.09834L9.05124 6.07517M9.47332 5.62067L9.50862 5.64847C9.53215 5.66701 9.53452 5.69697 9.51414 5.71839C9.45731 5.76732 9.39029 5.82695 9.32405 5.89657L9.1005 5.7205C9.16164 5.65623 9.22278 5.59197 9.28471 5.53769C9.31097 5.5209 9.36743 5.53727 9.39096 5.5558" fill="#F7C608"/>
<path d="M9.01845 5.98199L8.99315 5.96207C8.97609 5.94863 8.97645 5.92553 8.98928 5.90448C9.03165 5.85993 9.08263 5.79878 9.13347 5.74534L9.29349 5.87137C9.2384 5.92927 9.18743 5.99042 9.15342 6.03375C9.13647 6.05156 9.1114 6.0552 9.09434 6.04176L9.07316 6.02508M9.42498 5.64769L9.45028 5.66761C9.46734 5.68105 9.46698 5.70414 9.45003 5.72196C9.40354 5.76326 9.34857 5.81346 9.29349 5.87137L9.13347 5.74534C9.18432 5.69189 9.23517 5.63843 9.2859 5.59268C9.30697 5.5781 9.3491 5.58791 9.36616 5.60135" fill="#006233"/>
<path d="M9.71307 5.32007L9.68781 5.28435C9.67097 5.26053 9.67798 5.23117 9.69996 5.20989C9.76542 5.17156 9.84631 5.11578 9.92487 5.06978L10.0849 5.29602C9.99976 5.34585 9.91886 5.40163 9.86416 5.44208C9.83797 5.45741 9.8057 5.45105 9.78886 5.42724L9.76781 5.39747M10.3135 5.06955L10.3388 5.10527C10.3556 5.12909 10.3486 5.15845 10.3224 5.17378C10.2527 5.20615 10.17 5.24619 10.0849 5.29602L9.92487 5.06978C10.0034 5.02379 10.082 4.97779 10.1582 4.94158C10.1886 4.93221 10.2377 4.96238 10.2546 4.9862" fill="#F7C608"/>
<path d="M9.76519 5.29966L9.74708 5.27406C9.73487 5.25679 9.74237 5.23472 9.7612 5.21781C9.81564 5.18593 9.88348 5.14032 9.94882 5.10207L10.0633 5.264C9.99256 5.30544 9.92472 5.35106 9.87867 5.38391C9.85689 5.39666 9.83171 5.39373 9.8195 5.37646L9.80435 5.35503M10.2588 5.08308L10.2769 5.10868C10.2891 5.12595 10.2816 5.14801 10.2598 5.16077C10.2024 5.18848 10.1341 5.22256 10.0633 5.264L9.94882 5.10207C10.0142 5.06381 10.0795 5.02555 10.1423 4.99466C10.1671 4.98607 10.2044 5.00628 10.2167 5.02354" fill="#006233"/>
<path d="M10.6366 4.84282L10.6234 4.80207C10.6146 4.77491 10.6304 4.74853 10.6581 4.73374C10.7328 4.71374 10.8276 4.68095 10.9173 4.65696L11.0007 4.91504C10.9037 4.94103 10.8088 4.97383 10.7438 4.99862C10.7139 5.00661 10.6849 4.99224 10.6761 4.96507L10.6651 4.93112M11.2902 4.75633L11.3034 4.79708C11.3122 4.82425 11.2964 4.85062 11.2665 4.85862C11.1896 4.87183 11.0978 4.88904 11.0007 4.91504L10.9173 4.65696C11.0069 4.63296 11.0965 4.60896 11.1808 4.59375C11.2129 4.59254 11.2507 4.63408 11.2595 4.66125" fill="#F7C608"/>
<path d="M10.6929 4.8366L10.6834 4.80739C10.6771 4.7877 10.6911 4.76844 10.7144 4.75704C10.7765 4.7404 10.8557 4.71403 10.9302 4.69407L10.99 4.8788C10.9093 4.90042 10.8301 4.9268 10.7757 4.94652C10.7509 4.95318 10.7276 4.9439 10.7212 4.92421L10.7133 4.89976M11.2335 4.75529L11.243 4.78449C11.2493 4.80419 11.2353 4.82344 11.2105 4.83009C11.1468 4.84197 11.0707 4.85718 10.99 4.8788L10.9302 4.69407C11.0048 4.67411 11.0793 4.65415 11.1492 4.6406C11.1756 4.6387 11.2052 4.66767 11.2115 4.68737" fill="#006233"/>
<path d="M11.6704 4.62207L11.6704 4.57959C11.6704 4.55127 11.6937 4.53002 11.7249 4.52292C11.8027 4.52287 11.9039 4.51573 11.9973 4.51567L11.9975 4.78469C11.8963 4.78476 11.7951 4.7919 11.7251 4.79903C11.6939 4.79905 11.6706 4.77782 11.6705 4.7495L11.6705 4.71411M12.3244 4.70661L12.3245 4.74909C12.3245 4.77741 12.3012 4.79866 12.27 4.79868C12.1922 4.79165 12.0987 4.78463 11.9975 4.78469L11.9973 4.51567C12.0907 4.51561 12.1842 4.51555 12.2698 4.52258C12.3009 4.52964 12.3243 4.57918 12.3244 4.6075" fill="#F7C608"/>
<path d="M11.7264 4.63053L11.7264 4.60009C11.7264 4.57956 11.7458 4.56468 11.7717 4.55971C11.8364 4.55966 11.9206 4.55466 11.9983 4.55461L11.9984 4.74717C11.9143 4.74722 11.8301 4.75223 11.7718 4.75723C11.746 4.75724 11.7265 4.74239 11.7265 4.72186L11.7265 4.69637M12.2703 4.69107L12.2704 4.72151C12.2704 4.74204 12.251 4.75692 12.2251 4.75694C12.1603 4.75202 12.0826 4.74712 11.9984 4.74717L11.9983 4.55461C12.076 4.55456 12.1537 4.55451 12.2249 4.55942C12.2508 4.56436 12.2703 4.59974 12.2703 4.62027" fill="#006233"/>
<path d="M12.661 4.66955L12.6738 4.62868C12.6823 4.60144 12.7111 4.58682 12.7432 4.58776C12.8181 4.60712 12.9176 4.62548 13.0074 4.64872L12.9266 4.9075C12.8293 4.88233 12.7298 4.86397 12.6603 4.85335C12.6303 4.84561 12.6142 4.81937 12.6227 4.79213L12.6334 4.75808M13.2645 4.91391L13.2518 4.95477C13.2432 4.98201 13.2144 4.99663 13.1844 4.98889C13.1117 4.96272 13.024 4.93267 12.9266 4.9075L13.0074 4.64872C13.0973 4.67195 13.1871 4.69519 13.2674 4.7233C13.2952 4.73785 13.3028 4.79133 13.2943 4.81857" fill="#F7C608"/>
<path d="M12.7123 4.69164L12.7214 4.66235C12.7276 4.64261 12.7508 4.63314 12.7772 4.63481C12.8394 4.65091 12.9219 4.66708 12.9966 4.68641L12.9388 4.87164C12.8578 4.85071 12.7754 4.83454 12.7178 4.82481C12.6929 4.81837 12.6787 4.79924 12.6849 4.77949L12.6925 4.75497M13.2172 4.88548L13.208 4.91476C13.2019 4.93451 13.1787 4.94398 13.1538 4.93754C13.093 4.91667 13.0198 4.89258 12.9388 4.87164L12.9966 4.68641C13.0714 4.70573 13.1461 4.72506 13.2131 4.74754C13.2366 4.75875 13.2446 4.79763 13.2384 4.81738" fill="#006233"/>
<path d="M13.6653 4.98454L13.6901 4.9486C13.7067 4.92464 13.7389 4.91801 13.7694 4.92713C13.8353 4.9649 13.925 5.00801 14.0041 5.05333L13.8464 5.28092C13.7608 5.23182 13.671 5.18871 13.6076 5.16071C13.5813 5.1456 13.574 5.1163 13.5906 5.09234L13.6113 5.0624M14.1686 5.37368L14.1438 5.40961C14.1272 5.43357 14.095 5.44021 14.0686 5.4251C14.0069 5.38134 13.932 5.33003 13.8464 5.28092L14.0041 5.05333C14.0831 5.09866 14.1621 5.14398 14.2304 5.19152C14.2526 5.21262 14.2433 5.26587 14.2267 5.28983" fill="#F7C608"/>
<path d="M13.7076 5.01888L13.7255 4.99312C13.7375 4.97576 13.7626 4.9726 13.7874 4.98098C13.8422 5.01239 13.9163 5.04904 13.9821 5.08673L13.8692 5.24964C13.798 5.2088 13.7239 5.17216 13.6717 5.14808C13.6498 5.13551 13.6421 5.11351 13.6541 5.09614L13.669 5.07458M14.132 5.33426L14.1142 5.36001C14.1022 5.37738 14.077 5.38054 14.0551 5.36797C14.0032 5.33237 13.9404 5.29048 13.8692 5.24964L13.9821 5.08673C14.0478 5.12443 14.1135 5.16213 14.1709 5.20087C14.1899 5.21763 14.1855 5.257 14.1735 5.27437" fill="#006233"/>
<path d="M14.5312 5.54399L14.5662 5.51589C14.5896 5.49715 14.6225 5.49904 14.649 5.5156C14.7004 5.56872 14.7732 5.63309 14.835 5.69684L14.6133 5.87481C14.5464 5.80575 14.4736 5.74138 14.4214 5.69826C14.4008 5.67701 14.4028 5.64702 14.4262 5.62829L14.4554 5.60487M14.8938 6.04639L14.8588 6.07449C14.8354 6.09322 14.8025 6.09134 14.7819 6.07009C14.7362 6.01229 14.6802 5.94386 14.6133 5.87481L14.835 5.69684C14.8968 5.76058 14.9586 5.82432 15.0094 5.88744C15.0242 5.91337 14.9988 5.96209 14.9755 5.98082" fill="#F7C608"/>
<path d="M14.5612 5.5878L14.5863 5.56766C14.6032 5.55408 14.6284 5.5575 14.6496 5.57189C14.6924 5.61607 14.7522 5.67022 14.8036 5.72324L14.6448 5.85063C14.5892 5.7932 14.5294 5.73904 14.4868 5.70256C14.4696 5.68489 14.469 5.6618 14.486 5.64821L14.507 5.63135M14.8708 5.99918L14.8457 6.01932C14.8288 6.0329 14.8037 6.02949 14.7866 6.01181C14.7478 5.96435 14.7005 5.90806 14.6448 5.85063L14.8036 5.72324C14.8549 5.77625 14.9063 5.82927 14.9494 5.88115C14.9624 5.9021 14.9461 5.93877 14.9292 5.95235" fill="#006233"/>
<path d="M15.1889 6.30288L15.2312 6.28489C15.2594 6.2729 15.2905 6.28315 15.3107 6.30582C15.3437 6.36999 15.3936 6.45041 15.4331 6.52741L15.1653 6.64134C15.1224 6.55793 15.0725 6.47751 15.0358 6.42276C15.0226 6.39709 15.0339 6.36884 15.0621 6.35685L15.0973 6.34186M15.3813 6.87786L15.339 6.89585C15.3108 6.90784 15.2798 6.89759 15.2666 6.87193C15.2406 6.80476 15.2081 6.72476 15.1653 6.64134L15.4331 6.52741C15.4727 6.60441 15.5122 6.68141 15.5415 6.75499C15.5476 6.78366 15.5082 6.82389 15.48 6.83589" fill="#F7C608"/>
<path d="M15.2042 6.35261L15.2345 6.33972C15.2549 6.33102 15.278 6.34074 15.2939 6.35998C15.3213 6.41335 15.3619 6.48063 15.3948 6.54467L15.203 6.62623C15.1674 6.55685 15.1268 6.48957 15.0972 6.44364C15.0862 6.4223 15.0928 6.39998 15.1132 6.39129L15.1386 6.3805M15.3739 6.82669L15.3436 6.83958C15.3231 6.84827 15.3001 6.83856 15.2891 6.81721C15.2666 6.76175 15.2387 6.69561 15.203 6.62623L15.3948 6.54467C15.4277 6.60871 15.4606 6.67276 15.4858 6.73356C15.4918 6.75701 15.4648 6.78801 15.4444 6.79671" fill="#006233"/>
<path d="M15.585 7.19942L15.6312 7.193C15.6619 7.18872 15.6885 7.20652 15.7009 7.23346C15.7127 7.30348 15.7357 7.39343 15.7498 7.47746L15.4576 7.51814C15.4423 7.42711 15.4193 7.33715 15.401 7.27521C15.3963 7.2472 15.4158 7.22298 15.4466 7.21869L15.485 7.21334M15.5916 7.80045L15.5454 7.80687C15.5147 7.81115 15.4881 7.79336 15.4834 7.76535C15.4793 7.69426 15.4729 7.60917 15.4576 7.51814L15.7498 7.47746C15.7639 7.56148 15.7781 7.64551 15.7833 7.72361C15.7803 7.75269 15.73 7.78119 15.6993 7.78547" fill="#F7C608"/>
<path d="M15.5842 7.25105L15.6173 7.24645C15.6396 7.24334 15.6587 7.25857 15.668 7.28111C15.6778 7.33935 15.6959 7.41431 15.7077 7.48419L15.4985 7.51331C15.4857 7.43761 15.4676 7.36264 15.4534 7.31098C15.4495 7.28769 15.4627 7.26797 15.485 7.26486L15.5127 7.26101M15.6003 7.74945L15.5673 7.75405C15.545 7.75716 15.5259 7.74194 15.522 7.71864C15.5175 7.65965 15.5112 7.58902 15.4985 7.51331L15.7077 7.48419C15.7194 7.55408 15.7311 7.62397 15.7365 7.68878C15.7351 7.71282 15.6995 7.73564 15.6772 7.73875" fill="#006233"/>
<path d="M15.6876 8.16152L15.7338 8.16718C15.7647 8.17096 15.7847 8.19486 15.7883 8.22388C15.7779 8.29408 15.7721 8.38628 15.7596 8.47052L15.4666 8.43464C15.4801 8.34339 15.4859 8.25118 15.4875 8.18706C15.4917 8.15898 15.5179 8.14075 15.5488 8.14453L15.5873 8.14925M15.5078 8.73987L15.4616 8.73421C15.4307 8.73043 15.4107 8.70654 15.4149 8.67846C15.433 8.6092 15.4531 8.52591 15.4666 8.43464L15.7596 8.47052C15.7472 8.55476 15.7347 8.639 15.7156 8.71528C15.7037 8.74242 15.6466 8.75687 15.6158 8.75309" fill="#F7C608"/>
<path d="M15.6709 8.21086L15.704 8.21492C15.7264 8.21765 15.74 8.23716 15.7419 8.26117C15.7333 8.31955 15.7275 8.39612 15.7171 8.46618L15.5074 8.4405C15.5186 8.3646 15.5244 8.28804 15.5268 8.23483C15.5302 8.21148 15.549 8.19594 15.5714 8.19868L15.5991 8.20208M15.532 8.69318L15.4989 8.68912C15.4765 8.68638 15.4629 8.66688 15.4664 8.64353C15.4804 8.5858 15.4961 8.5164 15.5074 8.4405L15.7171 8.46618C15.7067 8.53624 15.6964 8.60631 15.6815 8.66987C15.6726 8.69257 15.6315 8.70536 15.6091 8.70262" fill="#006233"/>
<path d="M15.4886 9.11074L15.5313 9.12803C15.5597 9.13956 15.5715 9.16762 15.5659 9.19638C15.5342 9.26108 15.5001 9.34807 15.4621 9.4257L15.1921 9.31618C15.2333 9.23207 15.2673 9.14508 15.2888 9.08398C15.3014 9.0581 15.3323 9.04733 15.3607 9.05886L15.3962 9.07327M15.1371 9.61961L15.0945 9.60232C15.0661 9.59079 15.0542 9.56273 15.0669 9.53686C15.1057 9.47504 15.1509 9.40029 15.1921 9.31618L15.4621 9.4257C15.4241 9.50334 15.3861 9.58098 15.3441 9.64927C15.3243 9.67226 15.265 9.67149 15.2366 9.65996" fill="#F7C608"/>
<path d="M15.4573 9.1538L15.4879 9.16619C15.5085 9.17455 15.5155 9.19675 15.5099 9.22029C15.4836 9.27409 15.4543 9.34607 15.4226 9.41063L15.2293 9.33224C15.2636 9.26229 15.2929 9.19032 15.3116 9.13987C15.3222 9.11835 15.345 9.10826 15.3656 9.11662L15.3912 9.12699M15.1748 9.581L15.1442 9.56861C15.1236 9.56025 15.1166 9.53806 15.1271 9.51653C15.1585 9.46474 15.1951 9.40219 15.2293 9.33224L15.4226 9.41063C15.391 9.4752 15.3594 9.53978 15.3254 9.59695C15.3099 9.61646 15.2665 9.61819 15.2458 9.60983" fill="#006233"/>
<path d="M15.0032 9.97059L15.0388 9.99811C15.0625 10.0165 15.0651 10.0464 15.0509 10.0726C15.0004 10.1265 14.9408 10.2013 14.8803 10.266L14.6551 10.0917C14.7206 10.0216 14.7803 9.94683 14.8197 9.89369C14.8399 9.87211 14.8728 9.86968 14.8965 9.88803L14.9262 9.91096M14.5084 10.3688L14.4729 10.3412C14.4491 10.3229 14.4465 10.293 14.4667 10.2714C14.523 10.222 14.5895 10.1618 14.6551 10.0917L14.8803 10.266C14.8197 10.3307 14.7592 10.3955 14.6978 10.4503C14.6717 10.4673 14.6151 10.4513 14.5914 10.433" fill="#F7C608"/>
<path d="M14.9598 10.0039L14.9853 10.0236C15.0025 10.0369 15.0024 10.06 14.9897 10.0812C14.9478 10.126 14.8974 10.1876 14.8471 10.2414L14.6859 10.1167C14.7404 10.0583 14.7908 9.99678 14.8244 9.95318C14.8412 9.93524 14.8662 9.9314 14.8834 9.94471L14.9047 9.96122M14.5565 10.3414L14.531 10.3216C14.5138 10.3083 14.514 10.2853 14.5307 10.2673C14.5768 10.2256 14.6313 10.175 14.6859 10.1167L14.8471 10.2414C14.7967 10.2953 14.7464 10.3491 14.6961 10.3953C14.6752 10.41 14.6329 10.4005 14.6158 10.3872" fill="#006233"/>
<path d="M14.2715 10.6712L14.2971 10.7067C14.3142 10.7304 14.3075 10.7598 14.2857 10.7813C14.2206 10.8201 14.1402 10.8765 14.0621 10.9231L13.9 10.6982C13.9846 10.6477 14.065 10.5912 14.1193 10.5504C14.1453 10.5348 14.1777 10.5409 14.1947 10.5646L14.2161 10.5942M13.6735 10.9264L13.6479 10.8909C13.6309 10.8672 13.6376 10.8378 13.6636 10.8223C13.733 10.7893 13.8154 10.7486 13.9 10.6982L14.0621 10.9231C13.984 10.9697 13.9059 11.0163 13.83 11.0532C13.7997 11.0628 13.7503 11.033 13.7333 11.0093" fill="#F7C608"/>
<path d="M14.2196 10.692L14.238 10.7175C14.2503 10.7346 14.243 10.7567 14.2244 10.7738C14.1702 10.8061 14.1028 10.8523 14.0379 10.891L13.9218 10.73C13.9922 10.688 14.0596 10.6419 14.1053 10.6086C14.127 10.5957 14.1522 10.5985 14.1646 10.6156L14.1799 10.6369M13.7281 10.9125L13.7098 10.887C13.6974 10.8698 13.7047 10.8477 13.7264 10.8348C13.7835 10.8066 13.8514 10.772 13.9218 10.73L14.0379 10.891C13.9729 10.9298 13.9079 10.9686 13.8454 11C13.8207 11.0087 13.7832 10.9888 13.7708 10.9717" fill="#006233"/>
<path d="M13.3527 11.1558L13.3663 11.1965C13.3753 11.2236 13.3597 11.2501 13.3322 11.2651C13.2577 11.2857 13.1632 11.3192 13.0738 11.3439L12.9878 11.0865C13.0847 11.0597 13.1792 11.0262 13.244 11.0009C13.2738 10.9927 13.3029 11.0068 13.312 11.0339L13.3233 11.0678M12.6999 11.2475L12.6863 11.2068C12.6773 11.1797 12.6928 11.1532 12.7226 11.145C12.7994 11.1312 12.891 11.1132 12.9878 11.0865L13.0738 11.3439C12.9844 11.3686 12.895 11.3933 12.8108 11.4092C12.7787 11.4106 12.7406 11.3694 12.7315 11.3423" fill="#F7C608"/>
<path d="M13.2964 11.1625L13.3062 11.1916C13.3127 11.2113 13.2989 11.2306 13.2757 11.2422C13.2137 11.2593 13.1348 11.2863 13.0604 11.3069L12.9989 11.1226C13.0795 11.1004 13.1584 11.0734 13.2126 11.0532C13.2374 11.0464 13.2607 11.0555 13.2673 11.0751L13.2754 11.0995M12.7566 11.2481L12.7469 11.2189C12.7403 11.1993 12.7541 11.1799 12.7789 11.1731C12.8425 11.1607 12.9184 11.1449 12.9989 11.1226L13.0604 11.3069C12.9861 11.3274 12.9117 11.348 12.842 11.3621C12.8157 11.3642 12.7858 11.3355 12.7792 11.3158" fill="#006233"/>
<path d="M12.3209 11.3857L12.3213 11.4282C12.3216 11.4565 12.2984 11.478 12.2674 11.4853C12.1895 11.486 12.0884 11.4939 11.995 11.4947L11.9923 11.2257C12.0934 11.2248 12.1946 11.2169 12.2645 11.2092C12.2957 11.2089 12.3193 11.23 12.3195 11.2583L12.3199 11.2937M11.6661 11.3063L11.6657 11.2639C11.6654 11.2355 11.6885 11.2141 11.7197 11.2138C11.7976 11.2202 11.8911 11.2265 11.9923 11.2257L11.995 11.4947C11.9016 11.4955 11.8082 11.4963 11.7225 11.4899C11.6913 11.4831 11.6674 11.4338 11.6671 11.4054" fill="#F7C608"/>
<path d="M12.2648 11.3777L12.2651 11.4081C12.2653 11.4287 12.2461 11.4437 12.2202 11.4489C12.1555 11.4494 12.0714 11.4551 11.9937 11.4558L11.9917 11.2632C12.0759 11.2625 12.16 11.2568 12.2182 11.2514C12.2441 11.2511 12.2637 11.2658 12.2639 11.2864L12.2641 11.3119M11.7204 11.3214L11.7201 11.291C11.7198 11.2705 11.7391 11.2554 11.765 11.2552C11.8298 11.2596 11.9075 11.2639 11.9917 11.2632L11.9937 11.4558C11.916 11.4564 11.8383 11.4571 11.767 11.4527C11.7411 11.448 11.7213 11.4128 11.7211 11.3922" fill="#006233"/>
</svg>
