<svg xmlns="http://www.w3.org/2000/svg" width="24" height="16" viewBox="0 0 24 16">
  <title>bombay</title>
  <path d="M21.5,1H2.5A1.5,1.5,0,0,0,1,2.5V5H23V2.5A1.5,1.5,0,0,0,21.5,1M2.5,0H2A2,2,0,0,0,0,2v.5A2.5,2.5,0,0,1,2.5,0M22,0h-.5A2.5,2.5,0,0,1,24,2.5V2a2,2,0,0,0-2-2" fill="#ffa44a"/>
  <polyline points="0 0 24 0 24 5 0 5 0 0" fill="none"/>
  <path d="M23,11H1v2.5A1.5,1.5,0,0,0,2.5,15h19A1.5,1.5,0,0,0,23,13.5V11m1,0h0v2.5A2.5,2.5,0,0,1,21.5,16H2.5A2.5,2.5,0,0,1,0,13.5V14a2,2,0,0,0,2,2H22a2,2,0,0,0,2-2V11" fill="#1a9f0b"/>
  <polyline points="0 11 24 11 24 16 0 16 0 11" fill="none"/>
  <path d="M12,6h0a2,2,0,1,1-2,2,2,2,0,0,1,2-2M23,5H1v6H23V5m1,0h0V5" fill="#fff"/>
  <polyline points="0 5 24 5 24 11 0 11 0 5" fill="none"/>
  <path d="M10,8h0a2,2,0,0,0,2,2,2,2,0,0,1-2-2m1,0a1,1,0,1,1,1,1,1,1,0,0,1-1-1m1-1.5A1.5,1.5,0,1,0,13.5,8,1.5,1.5,0,0,0,12,6.5M12,6a2,2,0,0,1,0,4,2,2,0,0,0,0-4m0,0a2,2,0,0,0-2,2,2,2,0,0,1,2-2" fill="#ddddef"/>
  <path d="M12,9.5A1.5,1.5,0,1,1,13.5,8,1.5,1.5,0,0,1,12,9.5M12,6h0a2,2,0,1,0,2,2,2,2,0,0,0-2-2" fill="#181a93"/>
  <polyline points="10 6 14 6 14 10 10 10 10 6" fill="none"/>
  <path d="M12,7a1,1,0,1,0,1,1,1,1,0,0,0-1-1" fill="#181a93"/>
  <polyline points="11 7 13 7 13 9 11 9 11 7" fill="none"/>
  <path d="M21.5,0H2.5A2.5,2.5,0,0,0,0,2.5V5H1V2.5A1.5,1.5,0,0,1,2.5,1h19A1.5,1.5,0,0,1,23,2.5V5h1V2.5A2.5,2.5,0,0,0,21.5,0" fill="#f59e47"/>
  <path d="M24,11H23v2.5A1.5,1.5,0,0,1,21.5,15H2.5A1.5,1.5,0,0,1,1,13.5V11H0v2.5A2.5,2.5,0,0,0,2.5,16h19A2.5,2.5,0,0,0,24,13.5V11" fill="#19990b"/>
  <path d="M1,5H0v6H1V5M24,5H23v6h1V5" fill="#f5f5f5"/>
  <polyline points="0 0 24 0 24 16 0 16 0 0" fill="none"/>
</svg>
