<?xml version="1.0" encoding="UTF-8"?>
<svg width="24px" height="16px" viewBox="0 0 24 16" version="1.1" xmlns="http://www.w3.org/2000/svg" xmlns:xlink="http://www.w3.org/1999/xlink">
    <!-- Generator: Sketch 48.2 (47327) - http://www.bohemiancoding.com/sketch -->
    <title>icons/flags/switzerland chf</title>
    <desc>Created with Sketch.</desc>
    <defs></defs>
    <g id="Symbols" stroke="none" stroke-width="1" fill="none" fill-rule="evenodd">
        <g id="icons/flags/switzerland-chf">
            <g id="Icon/Flag/Switzerland" fill-rule="nonzero">
                <path d="M22.2025781,15.9868571 L1.79742187,15.9868571 C0.804703125,15.9868571 0,15.169381 0,14.1609048 L0,1.83909524 C0,0.830666667 0.804703125,0.0131428571 1.79742187,0.0131428571 L22.2025781,0.0131428571 C23.19525,0.0131428571 24,0.830619048 24,1.83909524 L24,14.1609524 C24,15.169381 23.1952969,15.9868571 22.2025781,15.9868571 Z" id="BG-red" fill="#F44336"></path>
                <path d="M16.5517031,6.31857143 L13.6551563,6.31857143 L13.6551563,3.37604762 C13.6551563,3.14390476 13.4698594,2.95566667 13.2413438,2.95566667 L10.7585625,2.95566667 C10.5300469,2.95566667 10.34475,3.14390476 10.34475,3.37604762 L10.34475,6.31857143 L7.44820313,6.31857143 C7.2196875,6.31857143 7.03439063,6.50680952 7.03439063,6.73895238 L7.03439063,9.26114286 C7.03439063,9.49328571 7.2196875,9.68152381 7.44820313,9.68152381 L10.34475,9.68152381 L10.34475,12.6240476 C10.34475,12.8561905 10.5300469,13.0444286 10.7585625,13.0444286 L13.2413438,13.0444286 C13.4698594,13.0444286 13.6551563,12.8561905 13.6551563,12.6240476 L13.6551563,9.68142857 L16.5517031,9.68142857 C16.7802188,9.68142857 16.9655156,9.49319048 16.9655156,9.26104762 L16.9655156,6.73885714 C16.9655156,6.5067619 16.7802188,6.31857143 16.5517031,6.31857143 Z" id="white" fill="#FFFFFF"></path>
            </g>
            <rect id="border" stroke-opacity="0.04" stroke="#000000" x="0.5" y="0.5" width="23" height="15" rx="2"></rect>
        </g>
    </g>
</svg>