<svg  xmlns="http://www.w3.org/2000/svg" xmlns:xlink="http://www.w3.org/1999/xlink" width="24" height="16" viewBox="0 0 24 16">
  <title>chinese</title>
  <g>
    <g>
      <path d="M0,13.5V14a2,2,0,0,0,2,2h.5A2.5,2.5,0,0,1,0,13.5m13.17-3.37H11V11h2.21v-.87m0-1.66H11v.84h2.21V8.47M10,7.64h4.17v4.21H10V7.64M7.74,13V7.19h1V13h-1m3.5-6.12V5.94h5.15v5.93c0,.72-.4,1.09-1.2,1.09h-.95L14,12l1,0c.25,0,.37-.16.37-.47V6.88H11.24m-1.6.47A14.87,14.87,0,0,0,8.31,6l.77-.47a10.33,10.33,0,0,1,1.33,1.33l-.77.52M12.8,5.7l-.88-.56A6,6,0,0,0,13.07,3l1,.22c-.07.17-.12.34-.18.5H17v.9H15.34a7.53,7.53,0,0,1,.53.83l-.93.33a9.16,9.16,0,0,0-.7-1.16h-.75A6.73,6.73,0,0,1,12.8,5.7M8.42,3h0l1,.22c-.07.18-.15.35-.21.51H12v.9H10.51a8.3,8.3,0,0,1,.57.92l-.93.33a11,11,0,0,0-.73-1.25H8.78a7.13,7.13,0,0,1-.89,1.23L7,5.3H7A6.6,6.6,0,0,0,8.42,3M21.5,1H2.5A1.5,1.5,0,0,0,1,2.5v11A1.5,1.5,0,0,0,2.5,15h19A1.5,1.5,0,0,0,23,13.5V2.5A1.5,1.5,0,0,0,21.5,1M2.5,0H2A2,2,0,0,0,0,2v.5A2.5,2.5,0,0,1,2.5,0M22,0h-.5A2.5,2.5,0,0,1,24,2.5v11A2.5,2.5,0,0,1,21.5,16H22a2,2,0,0,0,2-2V2a2,2,0,0,0-2-2" transform="translate(0 0)" fill="#ed3c3c"/>
      <path d="M2.5,1h19A1.5,1.5,0,0,1,23,2.5v11A1.5,1.5,0,0,1,21.5,15H2.5A1.5,1.5,0,0,1,1,13.5V2.5A1.5,1.5,0,0,1,2.5,1h0m19-1H2.5A2.5,2.5,0,0,0,0,2.5v11A2.5,2.5,0,0,0,2.5,16h19A2.5,2.5,0,0,0,24,13.5V2.5A2.5,2.5,0,0,0,21.5,0" transform="translate(0 0)" fill="#e43a3a"/>
    </g>
    <g>
      <path d="M11,11v-.87h2.21V11H11m0-1.69V8.47h2.21v.84H11m3.18-1.67H10v4.21h4.17V7.64M10,7.64h0M8.78,7.19h-1V13h1V7.19m7.61-1.25H11.24v.94h4.11v4.71c0,.31-.12.47-.37.47l-1,0,.25.93h.95c.8,0,1.2-.37,1.2-1.09V5.94M9.08,5.5,8.31,6A14.87,14.87,0,0,1,9.64,7.35l.77-.52A10.33,10.33,0,0,0,9.08,5.5m4-2.49a6,6,0,0,1-1.15,2.13l.88.56a6.73,6.73,0,0,0,.69-1.07h.75a9.16,9.16,0,0,1,.7,1.16l.93-.33a7.53,7.53,0,0,0-.53-.83H17v-.9H13.9c.06-.16.11-.33.18-.5l-1-.22M8.42,3h0A6.6,6.6,0,0,1,7,5.3H7l.89.56a7.13,7.13,0,0,0,.89-1.23h.64a11,11,0,0,1,.73,1.25l.93-.33a8.3,8.3,0,0,0-.57-.92H12v-.9H9.23c.06-.16.14-.33.21-.51L8.42,3" transform="translate(0 0)" fill="#fff"/>
    </g>
  </g>
</svg>
