<?xml version="1.0" encoding="UTF-8"?>
<svg width="24px" height="16px" viewBox="0 0 24 16" version="1.1" xmlns="http://www.w3.org/2000/svg" xmlns:xlink="http://www.w3.org/1999/xlink">
    <!-- Generator: Sketch 48.2 (47327) - http://www.bohemiancoding.com/sketch -->
    <title>icons/flags/uk gbp</title>
    <desc>Created with Sketch.</desc>
    <defs></defs>
    <g id="Symbols" stroke="none" stroke-width="1" fill="none" fill-rule="evenodd">
        <g id="icons/flags/uk-gbp">
            <g id="united-kingdom" fill-rule="nonzero">
                <path d="M22.2025781,0.0131428571 L1.79742187,0.0131428571 C0.804703125,0.0131428571 0,0.830619048 0,1.83909524 L0,14.1609524 C0,15.169381 0.804703125,15.9869048 1.79742187,15.9869048 L22.2025781,15.9869048 C23.19525,15.9869048 24,15.1694286 24,14.1609524 L24,1.83909524 C24,0.830619048 23.1952969,0.0131428571 22.2025781,0.0131428571 Z" id="blue" fill="#0D47A1"></path>
                <path d="M23.9751094,1.5372381 C23.8334531,0.67252381 23.094,0.0130952381 22.2025781,0.0130952381 L21.7349063,0.0130952381 L14.0689688,5.11533333 L14.0689688,0.0131428571 L9.93103125,0.0131428571 L9.93103125,5.11538095 L2.26509375,0.0131428571 L1.79742187,0.0131428571 C0.906,0.0131428571 0.166546875,0.67252381 0.024890625,1.53728571 L6.57698438,5.8982381 L0,5.8982381 L0,10.1018571 L6.57698438,10.1018571 L0.024890625,14.4627143 C0.166546875,15.3274286 0.906,15.9868571 1.79742187,15.9868571 L2.26509375,15.9868571 L9.93103125,10.884619 L9.93103125,15.9868571 L14.0689687,15.9868571 L14.0689687,10.884619 L21.7349063,15.9868571 L22.2025781,15.9868571 C23.094,15.9868571 23.8334531,15.3274762 23.9751094,14.4627143 L17.4230156,10.1017619 L24,10.1017619 L24,5.89814286 L17.4230156,5.89814286 L23.9751094,1.5372381 Z" id="white" fill="#FFFFFF"></path>
                <path d="M13.2413906,0.0131428571 L13.2413906,6.73890476 L24,6.73890476 L24,9.26109524 L13.2413906,9.26109524 L13.2413906,15.9868571 L10.7586094,15.9868571 L10.7586094,9.26109524 L0,9.26109524 L0,6.73890476 L10.7586094,6.73890476 L10.7586094,0.0131428571 L13.2413906,0.0131428571 Z M1.16217187,15.8691429 C0.87721875,15.7597619 0.627046875,15.5789048 0.432375,15.3480952 L8.3881875,10.1018095 L9.90825,10.1018095 L1.16217187,15.8691429 Z M16.2369375,10.1018095 L23.7638906,15.0651429 C23.6227969,15.316 23.4249844,15.529619 23.1879375,15.6877619 L14.716875,10.1018095 L16.2369375,10.1018095 Z M0.189796875,1.02261905 C0.316359375,0.765904762 0.5004375,0.54352381 0.725390625,0.373428571 L9.10345312,5.89819048 L7.58339062,5.89819048 L0.189796875,1.02261905 Z M15.5890313,5.89819048 L14.0689688,5.89819048 L22.8235313,0.125095238 C23.1104531,0.232380952 23.3625938,0.412190476 23.5594219,0.642238095 L15.5890313,5.89819048 Z" id="red" fill="#F44336"></path>
            </g>
            <rect id="border" stroke-opacity="0.04" stroke="#000000" x="0.5" y="0.5" width="23" height="15" rx="2"></rect>
        </g>
    </g>
</svg>