<svg  xmlns="http://www.w3.org/2000/svg" xmlns:xlink="http://www.w3.org/1999/xlink" width="24" height="16" viewBox="0 0 24 16">
  <title>hong kong</title>
  <g>
    <path d="M2,0H22a2,2,0,0,1,2,2V14a2,2,0,0,1-2,2H2a2,2,0,0,1-2-2V2A2,2,0,0,1,2,0" transform="translate(0 0)" fill="#f0371d"/>
    <g>
      <path d="M9.45,11.91a.34.34,0,0,1-.28-.14.35.35,0,0,1,.07-.49.36.36,0,0,1,.2-.06.37.37,0,0,1,.29.14.35.35,0,0,1-.08.49.36.36,0,0,1-.2.06M11.5,9.13c-.11,0,.08.85-1,.92a2.87,2.87,0,0,0-2.09.66c-.52.37-.21,1-1.28,1.78a1.89,1.89,0,0,0,1.57.72,3.27,3.27,0,0,0,1.9-.66c1.24-.89,1.7-2.38,1-3.31-.06-.08-.09-.11-.11-.11m2.68,2.71a.34.34,0,0,1-.33-.24.35.35,0,0,1,.22-.44h.11a.34.34,0,0,1,.11.67l-.11,0m-1-3.2a1.73,1.73,0,0,0-.5.07c-.54.18.75.06.43,1.32a2.89,2.89,0,0,0,0,2.19c.2.61.9.52,1.31,1.77,1.09-.36,1.6-1.83,1.13-3.28a2.75,2.75,0,0,0-2.35-2.07m2.45-1.35a.35.35,0,1,1,0-.69.35.35,0,0,1,0,.69m-.35-1.82c-1.53,0-2.77.93-2.77,2.09,0,.11,0,.15,0,.15s.11-.09.22-.18a.76.76,0,0,1,.5-.19,1.19,1.19,0,0,1,.63.22,2.93,2.93,0,0,0,2.08.69c.63,0,.77-.69,2.08-.69h0c0-1.16-1.24-2.09-2.77-2.09M7.91,7.41a.31.31,0,0,1-.2-.07.35.35,0,0,1,.21-.63.37.37,0,0,1,.2.07.36.36,0,0,1,.08.49.37.37,0,0,1-.29.14M6.31,5.14c-.67.94-.22,2.42,1,3.32a3.27,3.27,0,0,0,1.9.66A1.89,1.89,0,0,0,10.8,8.4c.09-.12.08-.15,0-.15H10.7l-.18,0c-.26,0-.61-.1-.84-.69C9.19,6.37,9,6.26,8.4,5.8s-1,.12-2.09-.66m5.39-.59h-.1a.35.35,0,0,1-.23-.44.34.34,0,0,1,.33-.24l.11,0a.34.34,0,0,1,.22.43.33.33,0,0,1-.33.24M12.54,2a2.74,2.74,0,0,0-2.35,2.07c-.47,1.46,0,2.93,1.13,3.28l.13,0c.19,0-.59-.6.3-1.34s1.07-1,1.31-1.77-.43-.94,0-2.19a1.8,1.8,0,0,0-.5-.08" transform="translate(0 0)" fill="#fff"/>
    </g>
    <g>
      <path d="M2.5,1h19A1.5,1.5,0,0,1,23,2.5v11A1.5,1.5,0,0,1,21.5,15H2.5A1.5,1.5,0,0,1,1,13.5V2.5A1.5,1.5,0,0,1,2.5,1h0m19-1H2.5A2.5,2.5,0,0,0,0,2.5v11A2.5,2.5,0,0,0,2.5,16h19A2.5,2.5,0,0,0,24,13.5V2.5A2.5,2.5,0,0,0,21.5,0" transform="translate(0 0)" fill="#e7351c"/>
    </g>
  </g>
</svg>
