<?xml version="1.0" encoding="UTF-8"?>
<svg width="24px" height="16px" viewBox="0 0 24 16" version="1.1" xmlns="http://www.w3.org/2000/svg" xmlns:xlink="http://www.w3.org/1999/xlink">
    <!-- Generator: Sketch 49.1 (51147) - http://www.bohemiancoding.com/sketch -->
    <title>icons/flags/hong kong</title>
    <desc>Created with Sketch.</desc>
    <defs>
        <rect id="hong-kong-path-1" x="0" y="0" width="24" height="16" rx="2"></rect>
    </defs>
    <g id="icons/flags/hong-kong" stroke="none" stroke-width="1" fill="none" fill-rule="evenodd">
        <mask id="mask-2" fill="white">
            <use xlink:href="#hong-kong-path-1"></use>
        </mask>
        <use id="mask" fill="#F0371D" xlink:href="#hong-kong-path-1"></use>
        <path d="M13.8426886,7.55787414 C12.7368803,6.86146512 12.4569181,8.12684223 12.4569181,7.55787414 C12.4569181,6.40402589 13.6977793,5.46864707 15.2284591,5.46864707 C16.7591389,5.46864707 18,6.40402589 18,7.55787414 C16.6851082,7.55787414 16.5537561,8.25428317 15.9213443,8.25428317 C15.14545,8.25428317 14.9484969,8.25428317 13.8426886,7.55787414 Z M15.5749017,7.29270884 C15.7662366,7.29270884 15.9213443,7.13681237 15.9213443,6.94450433 C15.9213443,6.75219629 15.7662366,6.59629982 15.5749017,6.59629982 C15.3835667,6.59629982 15.2284591,6.75219629 15.2284591,6.94450433 C15.2284591,7.13681237 15.3835667,7.29270884 15.5749017,7.29270884 Z M13.0619945,10.0327566 C13.3826053,8.76586819 12.0926471,8.89063137 12.6337679,8.71481057 C13.7311428,8.35825185 15.0041881,9.24933298 15.4771942,10.705096 C15.9502002,12.160859 15.4440493,13.630036 14.3466744,13.9865947 C13.9403505,12.7360583 13.2374361,12.8263372 13.0420101,12.2248779 C12.8022456,11.4869586 12.7413837,11.299645 13.0619945,10.0327566 Z M13.8498646,11.5999242 C13.9089903,11.7818946 14.1051876,11.8812361 14.2880834,11.8218096 C14.4709792,11.7623832 14.5713147,11.5666924 14.5121889,11.384722 C14.4530632,11.2027516 14.2568659,11.1034102 14.0739701,11.1628366 C13.8910743,11.2222631 13.7907388,11.4179539 13.8498646,11.5999242 Z M10.4875616,10.0498492 C11.7915182,9.96327815 11.2742424,8.77500892 11.6086734,9.23531378 C12.2868884,10.1687966 11.8328125,11.6548939 10.5944666,12.5546049 C9.3561206,13.4543159 7.80244097,13.4269384 7.12422599,12.4934556 C8.18799583,11.7205815 7.88492295,11.079968 8.39655483,10.7082457 C9.02426648,10.2521864 9.18360492,10.1364203 10.4875616,10.0498492 Z M9.24227897,11.2835774 C9.08748572,11.3960413 9.05363465,11.6133341 9.16667048,11.7689146 C9.27970631,11.9244951 9.49682468,11.959448 9.65161792,11.8469841 C9.80641117,11.7345202 9.84026224,11.5172274 9.72722641,11.3616469 C9.61419058,11.2060664 9.39707222,11.1711135 9.24227897,11.2835774 Z M9.67716859,7.58553058 C10.1624473,8.79891512 11.1327115,7.93976117 10.7982805,8.40006603 C10.1200655,9.33354887 8.56638583,9.36092635 7.32803987,8.46121534 C6.0896939,7.56150433 5.63561802,6.07540708 6.313833,5.14192424 C7.37760284,5.91479827 7.89320787,5.42859836 8.40483975,5.80032067 C9.0325514,6.25637989 9.19188984,6.37214604 9.67716859,7.58553058 Z M8.11967154,6.78084889 C7.96487829,6.66838501 7.74775993,6.70333792 7.6347241,6.85891839 C7.52168826,7.01449887 7.55553934,7.23179175 7.71033258,7.34425562 C7.86512583,7.4567195 8.0822442,7.42176659 8.19528003,7.26618612 C8.30831586,7.11060564 8.27446478,6.89331277 8.11967154,6.78084889 Z M11.7507511,6.04540528 C10.7467132,6.88188925 11.8636453,7.53917213 11.3225245,7.36335132 C10.2251496,7.0067926 9.71899865,5.53761557 10.1920047,4.08185257 C10.6650108,2.62608958 11.9380561,1.73500845 13.035431,2.09156717 C12.6291071,3.34210361 13.2508414,3.68222911 13.0554154,4.28368845 C12.8156509,5.02160775 12.754789,5.20892132 11.7507511,6.04540528 Z M12.0334476,4.31435649 C12.0925734,4.13238612 11.9922379,3.93669532 11.8093421,3.87726887 C11.6264463,3.81784242 11.430249,3.91718389 11.3711233,4.09915427 C11.3119975,4.28112464 11.412333,4.47681543 11.5952288,4.53624189 C11.7781246,4.59566834 11.9743218,4.49632686 12.0334476,4.31435649 Z" id="Oval-145" fill="#FFFFFF" mask="url(#mask-2)"></path>
        <rect id="border" stroke-opacity="0.04" stroke="#000000" mask="url(#mask-2)" x="0.5" y="0.5" width="23" height="15" rx="2"></rect>
    </g>
</svg>
