<svg  xmlns="http://www.w3.org/2000/svg" xmlns:xlink="http://www.w3.org/1999/xlink" width="24" height="16" viewBox="0 0 24 16">
  <title>indonesia</title>
  <g>
    <g>
      <path d="M21.5,1H2.5A1.5,1.5,0,0,0,1,2.5V8H23V2.5A1.5,1.5,0,0,0,21.5,1M2.5,0H2A2,2,0,0,0,0,2v.5H0A2.5,2.5,0,0,1,2.5,0M22,0h-.5A2.5,2.5,0,0,1,24,2.5V8h0V2a2,2,0,0,0-2-2" transform="translate(0 0)" fill="#e12237"/>
    </g>
    <g>
      <path d="M23,8H1v5.5A1.5,1.5,0,0,0,2.5,15h19A1.5,1.5,0,0,0,23,13.5V8m1,0h0v5.5A2.5,2.5,0,0,1,21.5,16H2.5A2.5,2.5,0,0,1,0,13.5H0V14a2,2,0,0,0,2,2H22a2,2,0,0,0,2-2V8" transform="translate(0 0)" fill="#fff"/>
    </g>
    <g>
      <path d="M21.5,0H2.5A2.5,2.5,0,0,0,0,2.5V8H1V2.5A1.5,1.5,0,0,1,2.5,1h19A1.5,1.5,0,0,1,23,2.5V8h1V2.5A2.5,2.5,0,0,0,21.5,0" transform="translate(0 0)" fill="#d82135"/>
      <path d="M24,8H23v5.5A1.5,1.5,0,0,1,21.5,15H2.5A1.5,1.5,0,0,1,1,13.5V8H0v5.5A2.5,2.5,0,0,0,2.5,16h19A2.5,2.5,0,0,0,24,13.5V8" transform="translate(0 0)" fill="#f5f5f5"/>
    </g>
  </g>
</svg>
