<svg width="36" height="24" viewBox="0 0 36 24" fill="none" xmlns="http://www.w3.org/2000/svg">
<path d="M33 0H3C1.34315 0 0 1.34315 0 3V21C0 22.6569 1.34315 24 3 24H33C34.6569 24 36 22.6569 36 21V3C36 1.34315 34.6569 0 33 0Z" fill="white"/>
<path fill-rule="evenodd" clip-rule="evenodd" d="M23.25 12C23.25 14.8995 20.8995 17.25 18 17.25C15.1005 17.25 12.75 14.8995 12.75 12C12.75 10.32 16.275 9.615 19.242 9.8805C19.557 9.7965 19.896 9.75 20.25 9.75C21.9075 9.75 23.25 10.758 23.25 12Z" fill="#0048AB"/>
<path fill-rule="evenodd" clip-rule="evenodd" d="M17.25 11.25C17.25 11.25 18.5925 9.75 20.25 9.75C21.9075 9.75 23.25 10.758 23.25 12C23.25 9.1005 20.8995 6.75 18 6.75C15.9045 6.75 14.0955 7.977 13.254 9.753C12.75 11.25 12.75 11.688 12.75 12C13.5 12.75 14.334 12.75 15 12.75C15.666 12.75 16.2645 12.4605 16.677 12L17.25 11.25Z" fill="#CD0027"/>
<path fill-rule="evenodd" clip-rule="evenodd" d="M24.75 8.25H27.75L24.75 5.25H23.25L24.75 8.25ZM11.25 8.25H8.25L11.25 5.25H12.75L11.25 8.25ZM24.75 15.75H27.75L24.75 18.75H23.25L24.75 15.75ZM11.25 15.75H8.25L11.25 18.75H12.75L11.25 15.75Z" fill="#252526"/>
<path fill-rule="evenodd" clip-rule="evenodd" d="M33 1.5H3C2.17157 1.5 1.5 2.17157 1.5 3V21C1.5 21.8284 2.17157 22.5 3 22.5H33C33.8284 22.5 34.5 21.8284 34.5 21V3C34.5 2.17157 33.8284 1.5 33 1.5ZM3 0C1.34315 0 0 1.34315 0 3V21C0 22.6569 1.34315 24 3 24H33C34.6569 24 36 22.6569 36 21V3C36 1.34315 34.6569 0 33 0H3Z" fill="black" fill-opacity="0.08"/>
</svg>
