<svg  xmlns="http://www.w3.org/2000/svg" xmlns:xlink="http://www.w3.org/1999/xlink" width="24" height="16" viewBox="0 0 24 16">
  <title>portugal</title>
  <g>
    <g>
      <path d="M8,5a3,3,0,0,0,0,6V10H7.83A1.32,1.32,0,0,1,6.5,8.67h0V6.34h0A.34.34,0,0,1,6.83,6H8V5M8,1H2.5A1.5,1.5,0,0,0,1,2.5v11A1.5,1.5,0,0,0,2.5,15H8V12A4,4,0,0,1,4,8H4A4,4,0,0,1,8,4V1M2.5,0H2A2,2,0,0,0,0,2V14a2,2,0,0,0,2,2h.5A2.5,2.5,0,0,1,0,13.5H0V2.5H0A2.5,2.5,0,0,1,2.5,0" transform="translate(0 0)" fill="#128415"/>
    </g>
    <g>
      <path d="M8,5H8V6H9.17a.34.34,0,0,1,.33.34V8.67A1.33,1.33,0,0,1,8.17,10H8v1H8A3,3,0,0,0,8,5H8M21.5,1H8V4H8a4,4,0,0,1,0,8H8v3H21.5A1.5,1.5,0,0,0,23,13.5V2.5A1.5,1.5,0,0,0,21.5,1M22,0h-.5A2.5,2.5,0,0,1,24,2.5v11A2.5,2.5,0,0,1,21.5,16H22a2,2,0,0,0,2-2V2a2,2,0,0,0-2-2" transform="translate(0 0)" fill="#ff2936"/>
    </g>
    <g>
      <path d="M8,4A4,4,0,0,0,4,8H4a4,4,0,0,0,4,4V11A3,3,0,0,1,8,5V4" transform="translate(0 0)" fill="#faf94f"/>
      <path d="M8,4H8V5H8a3,3,0,0,1,0,6H8v1H8A4,4,0,0,0,8,4" transform="translate(0 0)" fill="#faf94f"/>
    </g>
    <g>
      <path d="M8,6H6.83a.34.34,0,0,0-.33.34V8.67A1.32,1.32,0,0,0,7.83,10H8V8.92c-.41,0-.75-1.09-.75-1.5A.76.76,0,0,1,8,6.67V6" transform="translate(0 0)" fill="#fff"/>
      <path d="M9.17,6H8v.67H8a.76.76,0,0,1,.75.75c0,.41-.34,1.5-.75,1.5H8V10h.17A1.33,1.33,0,0,0,9.5,8.67V6.34A.34.34,0,0,0,9.17,6" transform="translate(0 0)" fill="#fff"/>
      <path d="M8,6.67a.76.76,0,0,0-.75.75c0,.41.34,1.5.75,1.5V6.67" transform="translate(0 0)" fill="#1d50b5"/>
      <path d="M8,6.67H8V8.92H8c.41,0,.75-1.09.75-1.5A.76.76,0,0,0,8,6.67" transform="translate(0 0)" fill="#1d50b5"/>
    </g>
    <g>
      <path d="M8,0H2.5A2.5,2.5,0,0,0,0,2.5v11A2.5,2.5,0,0,0,2.5,16H8V15H2.5A1.5,1.5,0,0,1,1,13.5V2.5A1.5,1.5,0,0,1,2.5,1H8V0" transform="translate(0 0)" fill="#117f14"/>
      <path d="M21.5,0H8V1H21.5A1.5,1.5,0,0,1,23,2.5v11A1.5,1.5,0,0,1,21.5,15H8v1H21.5A2.5,2.5,0,0,0,24,13.5V2.5A2.5,2.5,0,0,0,21.5,0" transform="translate(0 0)" fill="#f52734"/>
    </g>
  </g>
</svg>
