<svg  xmlns="http://www.w3.org/2000/svg" xmlns:xlink="http://www.w3.org/1999/xlink" width="24" height="16" viewBox="0 0 24 16">
  <title>russia</title>
  <g>
    <g>
      <path d="M21.5,1H2.5A1.5,1.5,0,0,0,1,2.5V5H23V2.5A1.5,1.5,0,0,0,21.5,1M2.5,0H2A2,2,0,0,0,0,2v.5H0A2.5,2.5,0,0,1,2.5,0M22,0h-.5A2.5,2.5,0,0,1,24,2.5V5h0V2a2,2,0,0,0-2-2" transform="translate(0 0)" fill="#fff"/>
    </g>
    <g>
      <path d="M23,11H1v2.5A1.5,1.5,0,0,0,2.5,15h19A1.5,1.5,0,0,0,23,13.5V11m1,0h0v2.5A2.5,2.5,0,0,1,21.5,16H2.5A2.5,2.5,0,0,1,0,13.5H0V14a2,2,0,0,0,2,2H22a2,2,0,0,0,2-2V11" transform="translate(0 0)" fill="#e53b35"/>
    </g>
    <g>
      <polyline points="24 5 24 5 24 11 24 11 24 5" fill="#0c47b7"/>
      <polyline points="23 5 1 5 1 11 23 11 23 5" fill="#0c47b7"/>
    </g>
    <g>
      <path d="M21.5,0H2.5A2.5,2.5,0,0,0,0,2.5V5H1V2.5A1.5,1.5,0,0,1,2.5,1h19A1.5,1.5,0,0,1,23,2.5V5h1V2.5A2.5,2.5,0,0,0,21.5,0" transform="translate(0 0)" fill="#f5f5f5"/>
      <path d="M24,11H23v2.5A1.5,1.5,0,0,1,21.5,15H2.5A1.5,1.5,0,0,1,1,13.5V11H0v2.5A2.5,2.5,0,0,0,2.5,16h19A2.5,2.5,0,0,0,24,13.5V11" transform="translate(0 0)" fill="#dc3933"/>
      <polyline points="24 5 23 5 23 11 24 11 24 5" fill="#0c44b0"/>
      <polyline points="1 5 0 5 0 11 1 11 1 5" fill="#0c44b0"/>
    </g>
  </g>
</svg>
