<?xml version="1.0" encoding="UTF-8"?>
<svg width="24px" height="16px" viewBox="0 0 24 16" version="1.1" xmlns="http://www.w3.org/2000/svg" xmlns:xlink="http://www.w3.org/1999/xlink">
    <!-- Generator: Sketch 49.1 (51147) - http://www.bohemiancoding.com/sketch -->
    <title>icons/flags/singapore</title>
    <desc>Created with Sketch.</desc>
    <defs>
        <rect id="path-1" x="0" y="0" width="24" height="16" rx="2"></rect>
    </defs>
    <g id="icons/flags/singapore" stroke="none" stroke-width="1" fill="none" fill-rule="evenodd">
        <mask id="mask-2" fill="white">
            <use xlink:href="#path-1"></use>
        </mask>
        <g id="mask"></g>
        <rect id="first" fill="#E12237" mask="url(#mask-2)" x="0" y="0" width="24" height="8"></rect>
        <path d="M6.2644306,2.54741025 C6.02647068,2.46287548 5.76890148,2.41666667 5.5,2.41666667 C4.29187711,2.41666667 3.3125,3.34940677 3.3125,4.5 C3.3125,5.65059323 4.29187711,6.58333333 5.5,6.58333333 C5.76890148,6.58333333 6.02647068,6.53712452 6.2644306,6.45258975 C5.81521513,6.7951389 5.2452277,7 4.625,7 C3.17525253,7 2,5.88071187 2,4.5 C2,3.11928813 3.17525253,2 4.625,2 C5.2452277,2 5.81521513,2.2048611 6.2644306,2.54741025 Z M5.0625,4.5 C4.82087542,4.5 4.625,4.31345198 4.625,4.08333333 C4.625,3.85321469 4.82087542,3.66666667 5.0625,3.66666667 C5.30412458,3.66666667 5.5,3.85321469 5.5,4.08333333 C5.5,4.31345198 5.30412458,4.5 5.0625,4.5 Z M5.9375,6.16666667 C5.69587542,6.16666667 5.5,5.98011865 5.5,5.75 C5.5,5.51988135 5.69587542,5.33333333 5.9375,5.33333333 C6.17912458,5.33333333 6.375,5.51988135 6.375,5.75 C6.375,5.98011865 6.17912458,6.16666667 5.9375,6.16666667 Z M7.6875,6.16666667 C7.44587542,6.16666667 7.25,5.98011865 7.25,5.75 C7.25,5.51988135 7.44587542,5.33333333 7.6875,5.33333333 C7.92912458,5.33333333 8.125,5.51988135 8.125,5.75 C8.125,5.98011865 7.92912458,6.16666667 7.6875,6.16666667 Z M8.5625,4.5 C8.32087542,4.5 8.125,4.31345198 8.125,4.08333333 C8.125,3.85321469 8.32087542,3.66666667 8.5625,3.66666667 C8.80412458,3.66666667 9,3.85321469 9,4.08333333 C9,4.31345198 8.80412458,4.5 8.5625,4.5 Z M6.8125,3.25 C6.57087542,3.25 6.375,3.06345198 6.375,2.83333333 C6.375,2.60321469 6.57087542,2.41666667 6.8125,2.41666667 C7.05412458,2.41666667 7.25,2.60321469 7.25,2.83333333 C7.25,3.06345198 7.05412458,3.25 6.8125,3.25 Z" id="Oval-12" fill="#FFFFFF" mask="url(#mask-2)"></path>
        <rect id="second" fill="#FFFFFF" mask="url(#mask-2)" x="0" y="8" width="24" height="8"></rect>
        <rect id="border" stroke-opacity="0.04" stroke="#000000" mask="url(#mask-2)" x="0.5" y="0.5" width="23" height="15" rx="2"></rect>
    </g>
</svg>