<svg width="24" height="16" viewBox="0 0 24 16" fill="none" xmlns="http://www.w3.org/2000/svg">
<path d="M22 0H2C0.89543 0 0 0.89543 0 2V14C0 15.1046 0.89543 16 2 16H22C23.1046 16 24 15.1046 24 14V2C24 0.89543 23.1046 0 22 0Z" fill="#FFBF00"/>
<path fill-rule="evenodd" clip-rule="evenodd" d="M22 1H2C1.44772 1 1 1.44772 1 2V14C1 14.5523 1.44772 15 2 15H22C22.5523 15 23 14.5523 23 14V2C23 1.44771 22.5523 1 22 1ZM2 0C0.89543 0 0 0.89543 0 2V14C0 15.1046 0.89543 16 2 16H22C23.1046 16 24 15.1046 24 14V2C24 0.89543 23.1046 0 22 0H2Z" fill="black" fill-opacity="0.08"/>
<path fill-rule="evenodd" clip-rule="evenodd" d="M2 2H6.5V14H2V2Z" fill="#00614A"/>
<path fill-rule="evenodd" clip-rule="evenodd" d="M6.5 2H11V14H6.5V2Z" fill="#FF6600"/>
<path fill-rule="evenodd" clip-rule="evenodd" d="M12 2H22V14H12V2Z" fill="#98232E"/>
<path fill-rule="evenodd" clip-rule="evenodd" d="M15.535 11.2869L15.593 11.2429L15.617 11.2869C15.65 11.3469 15.741 11.3449 15.801 11.2869L15.848 11.2399L15.888 11.2849C15.938 11.3449 16.032 11.3449 16.092 11.2849C16.136 11.2429 16.142 11.2419 16.17 11.2749C16.186 11.2929 16.235 11.3149 16.278 11.3219C16.356 11.3359 16.358 11.3349 16.403 11.2439C16.443 11.1679 16.448 11.1379 16.439 11.0639C16.433 11.0139 16.426 10.9359 16.424 10.8889C16.422 10.8029 16.422 10.8019 16.516 10.7589C16.566 10.7349 16.626 10.7029 16.649 10.6869C16.686 10.6609 16.789 10.4999 16.789 10.4669C16.789 10.4589 16.749 10.4469 16.699 10.4389C16.504 10.4089 16.471 10.2689 16.599 10.0089C16.806 9.58691 16.931 9.17391 16.932 8.91091C16.932 8.79391 16.937 8.75391 16.949 8.78091C16.995 8.88391 16.912 9.32091 16.786 9.63591L16.736 9.76291L16.784 9.74791C16.81 9.73791 16.967 9.65091 17.131 9.55191C17.581 9.28191 17.736 9.22791 18.028 9.24391C18.272 9.25791 18.376 9.32091 18.548 9.56191C18.64 9.68891 18.728 9.77991 18.888 9.91391C19.232 10.1999 19.246 10.2239 19.262 10.5599C19.279 10.8999 19.272 10.9199 19.077 10.9759C18.912 11.0239 18.807 11.1259 18.78 11.2689C18.766 11.3459 18.797 11.3489 18.88 11.2769L18.94 11.2249L18.968 11.2769C19.004 11.3469 19.08 11.3469 19.143 11.2769L19.19 11.2269L19.238 11.2769C19.314 11.3569 19.415 11.3389 19.443 11.2369C19.448 11.2189 19.463 11.2249 19.493 11.2589C19.548 11.3229 19.689 11.3509 19.705 11.2989C19.711 11.2809 19.699 11.2339 19.68 11.1949C19.598 11.0309 19.572 10.9519 19.57 10.8629C19.57 10.7389 19.597 10.6789 19.704 10.5769C19.834 10.4539 19.874 10.2969 19.776 10.2969C19.716 10.2969 19.654 10.2239 19.616 10.1069C19.536 9.87191 19.551 9.60691 19.67 9.16691C19.79 8.71691 19.804 8.63691 19.805 8.33691C19.805 8.09391 19.802 8.05191 19.76 7.91891C19.735 7.83891 19.683 7.71691 19.646 7.65091L19.579 7.53091L19.666 7.43291C19.933 7.13891 19.879 6.65691 19.556 6.47291C19.459 6.41491 19.434 6.40991 19.262 6.41291C19.158 6.41291 19.002 6.43091 18.912 6.45291C18.82 6.47291 18.666 6.49091 18.56 6.49091C18.392 6.49091 18.364 6.48691 18.3 6.44091C18.232 6.39291 18.22 6.37091 18.207 6.26091C18.205 6.23691 18.193 6.21491 18.181 6.21091C18.158 6.20091 18.051 6.32091 18.037 6.37691C18.029 6.40291 18.022 6.40091 18 6.36691C17.985 6.34191 17.964 6.28691 17.953 6.24491C17.926 6.13691 17.959 6.05491 18.053 5.99491L18.128 5.94891L18.086 5.91291C17.996 5.83891 17.843 5.88891 17.788 6.01291C17.772 6.04591 17.755 6.07491 17.75 6.07491C17.745 6.07491 17.715 6.04191 17.684 6.00191C17.568 5.85191 17.608 5.62791 17.764 5.55891C17.846 5.52291 17.919 5.55091 17.934 5.62391C17.957 5.73591 18.03 5.58891 18.017 5.45591C18.007 5.36791 18.007 5.36391 18.054 5.36391C18.118 5.36391 18.254 5.47591 18.297 5.56391C18.347 5.66391 18.342 5.82391 18.287 5.94191L18.247 6.03491L18.301 6.02091C18.381 5.99891 18.461 5.93091 18.501 5.85091C18.543 5.76491 18.548 5.59791 18.511 5.50691C18.474 5.41991 18.478 5.40691 18.531 5.43691C18.623 5.48691 18.671 5.54091 18.708 5.63691C18.742 5.72191 18.744 5.74291 18.726 5.83191C18.716 5.88691 18.691 5.95891 18.672 5.99191C18.642 6.04491 18.642 6.05391 18.665 6.05391C18.708 6.05391 18.8 5.99891 18.832 5.95391C18.848 5.92991 18.872 5.87391 18.885 5.82591L18.908 5.74191L18.935 5.80591C18.973 5.89591 19.045 5.97891 19.135 6.02991C19.232 6.08591 19.272 6.08991 19.222 6.03791C19.188 6.00291 19.125 5.75791 19.144 5.73491C19.154 5.72091 19.286 5.85491 19.434 6.03291C19.576 6.20291 19.664 6.25691 19.794 6.25691C19.961 6.25691 20.057 6.06491 19.984 5.88391C19.939 5.77791 19.842 5.76391 19.786 5.85391C19.76 5.89591 19.753 5.92891 19.76 5.97191C19.77 6.02591 19.766 6.03191 19.73 6.03191C19.68 6.03191 19.586 5.95191 19.418 5.76391C19.161 5.47891 18.848 5.23691 18.623 5.14891C18.478 5.09091 18.169 5.06891 18.023 5.10491C17.863 5.14291 17.673 5.26491 17.571 5.39491C17.389 5.62491 17.387 5.92991 17.564 6.20891L17.614 6.28891L17.58 6.35891C17.53 6.46291 17.534 6.60191 17.59 6.70391C17.615 6.74891 17.64 6.78591 17.646 6.78591C17.652 6.78591 17.658 6.75591 17.66 6.72091C17.665 6.63091 17.694 6.57091 17.744 6.54791C17.788 6.52591 17.817 6.53591 18.022 6.64391C18.237 6.75891 18.59 6.76591 18.966 6.66391C19.151 6.61591 19.368 6.61891 19.464 6.67191C19.639 6.76991 19.68 7.02391 19.551 7.21691C19.495 7.29891 19.441 7.33291 19.261 7.39891C19.123 7.44891 19.091 7.45291 18.778 7.44891C18.511 7.44491 18.415 7.45191 18.306 7.48191C18.188 7.51491 18.116 7.51791 17.768 7.50691L17.366 7.49291L17.411 7.54291C17.435 7.56891 17.471 7.60291 17.488 7.61591C17.518 7.63791 17.518 7.64091 17.472 7.66291C17.445 7.67691 17.387 7.68691 17.342 7.68691H17.259L17.249 7.78091C17.243 7.83291 17.243 7.89091 17.249 7.91391C17.259 7.94691 17.256 7.95091 17.229 7.93891C17.213 7.92891 17.165 7.91391 17.123 7.90191C17.081 7.88991 17.025 7.86691 16.998 7.84891C16.952 7.81891 16.948 7.81891 16.93 7.85891C16.916 7.89491 16.776 8.03291 16.755 8.03291C16.752 8.03291 16.748 8.00591 16.745 7.97291C16.745 7.94091 16.725 7.85591 16.701 7.78491C16.679 7.71491 16.655 7.63691 16.649 7.61291C16.639 7.57691 16.636 7.57491 16.624 7.60291C16.617 7.61991 16.606 7.66791 16.6 7.70991C16.595 7.74991 16.574 7.81991 16.554 7.85991L16.518 7.93391L16.495 7.86991C16.471 7.80191 16.43 7.72991 16.415 7.72991C16.41 7.72991 16.401 7.75291 16.395 7.77991C16.385 7.83491 16.288 7.98991 16.265 7.98991C16.255 7.98991 16.248 7.94591 16.248 7.89291C16.248 7.83891 16.241 7.79591 16.231 7.79591C16.223 7.79591 16.215 7.80891 16.215 7.82591C16.215 7.86591 16.132 7.98891 16.105 7.98891C16.092 7.98891 16.073 8.00291 16.061 8.02091C16.031 8.06691 16.006 8.06091 16.018 8.01091C16.025 7.98591 16.021 7.93091 16.01 7.88591L15.983 7.78091C15.979 7.76491 15.95 7.76891 15.887 7.79591C15.785 7.83891 15.751 7.83191 15.803 7.77591C15.823 7.75591 15.853 7.68791 15.868 7.62391C15.884 7.55991 15.908 7.50391 15.922 7.49691C15.94 7.49091 15.939 7.49991 15.917 7.53891C15.902 7.56691 15.889 7.60491 15.889 7.62291C15.889 7.64091 15.876 7.68291 15.862 7.71791C15.848 7.75391 15.839 7.78491 15.842 7.78791C15.846 7.79291 15.884 7.77391 15.928 7.74591L16.008 7.69591V7.74091C16.008 7.76591 16.018 7.83091 16.028 7.88691L16.05 7.98691L16.104 7.95391C16.159 7.91991 16.212 7.79891 16.212 7.70591C16.212 7.65791 16.232 7.66591 16.24 7.71591L16.268 7.83591L16.292 7.92991L16.329 7.86991C16.349 7.83691 16.376 7.77291 16.387 7.72691C16.407 7.64891 16.435 7.61491 16.435 7.67191C16.435 7.71391 16.521 7.86191 16.537 7.84991C16.545 7.84391 16.561 7.78791 16.572 7.72591C16.596 7.59591 16.634 7.50791 16.659 7.52591C16.669 7.53391 16.671 7.54591 16.666 7.55591C16.662 7.56591 16.681 7.65091 16.71 7.74391C16.74 7.83691 16.77 7.93091 16.775 7.95191C16.785 7.98691 16.795 7.98191 16.857 7.90891C16.897 7.86391 16.931 7.81391 16.935 7.79691C16.941 7.77291 16.95 7.77391 16.985 7.80291C17.035 7.84491 17.205 7.91291 17.218 7.89491C17.223 7.88891 17.228 7.82991 17.228 7.76491L17.231 7.64491L17.281 7.65791C17.308 7.66591 17.364 7.66491 17.406 7.65791L17.482 7.64291L17.415 7.58091C17.378 7.54691 17.34 7.50291 17.331 7.48291C17.321 7.46291 17.287 7.44291 17.251 7.43991C17.148 7.42791 16.967 7.29291 16.967 7.22991C16.967 7.21691 16.992 7.23691 17.023 7.27491C17.091 7.35691 17.185 7.40891 17.267 7.40891H17.329L17.291 7.34291C17.269 7.30291 17.249 7.23091 17.244 7.16991C17.237 7.07491 17.229 7.05991 17.154 6.98991C17.109 6.94791 17.052 6.88491 17.029 6.84991L16.987 6.78691L16.965 6.86191C16.953 6.90391 16.938 6.93691 16.933 6.93691C16.927 6.93691 16.903 6.91291 16.883 6.88391C16.86 6.85391 16.837 6.82991 16.833 6.82991C16.826 6.82991 16.807 6.86991 16.788 6.91991L16.755 7.00691L16.729 6.95691C16.714 6.92691 16.681 6.87891 16.654 6.84691C16.627 6.81291 16.612 6.78691 16.622 6.78691C16.632 6.78691 16.666 6.82091 16.697 6.86191L16.754 6.93791L16.777 6.88191C16.79 6.84991 16.795 6.79891 16.789 6.75791C16.779 6.69791 16.781 6.69591 16.799 6.73291C16.809 6.75691 16.842 6.80291 16.872 6.83291L16.926 6.89291L16.963 6.80291C17 6.71291 17.001 6.71291 17.017 6.76491C17.04 6.83691 17.202 7.01491 17.34 7.11691C17.36 7.13291 17.352 7.07691 17.313 6.95191C17.303 6.91891 17.293 6.85891 17.293 6.81891C17.293 6.75891 17.281 6.73191 17.223 6.67391C17.141 6.58991 17.115 6.53091 17.099 6.39591C17.093 6.34091 17.079 6.27991 17.067 6.26091C17.05 6.23091 17.047 6.24791 17.052 6.34891C17.054 6.41891 17.047 6.50291 17.036 6.53891L17.016 6.60291L17 6.54891C16.99 6.51891 16.953 6.46891 16.915 6.43391C16.875 6.40091 16.85 6.36791 16.855 6.36091C16.86 6.35491 16.9 6.38491 16.942 6.42891C17.007 6.49591 17.022 6.50291 17.03 6.47391C17.04 6.43891 17.03 6.28791 17.01 6.18391C17 6.12991 17 6.12991 17.05 6.19391C17.086 6.24391 17.105 6.29991 17.12 6.39991C17.14 6.52691 17.15 6.54991 17.238 6.64991C17.291 6.71291 17.338 6.75991 17.34 6.75591C17.344 6.75191 17.35 6.59191 17.355 6.40091C17.365 6.03591 17.355 5.94891 17.288 5.83591L17.254 5.77791L17.307 5.70091C17.377 5.60091 17.409 5.52091 17.423 5.41091L17.435 5.32091L17.375 5.39791C17.325 5.45991 17.302 5.47391 17.245 5.47391C17.188 5.47391 17.165 5.46191 17.128 5.40691C17.082 5.34191 17 5.27991 16.922 5.24891C16.892 5.23891 16.882 5.24291 16.882 5.26891C16.882 5.28891 16.867 5.34291 16.847 5.39091L16.812 5.47891L16.738 5.38091C16.692 5.32091 16.638 5.27491 16.598 5.26091C16.495 5.22491 16.49 5.22791 16.49 5.33091C16.49 5.48391 16.44 5.51291 16.35 5.41091C16.283 5.33091 16.226 5.31491 16.097 5.33391L15.997 5.34891L16.017 5.40891C16.031 5.45891 16.027 5.47891 15.995 5.53591C15.943 5.62791 15.875 5.66791 15.771 5.66791C15.723 5.66791 15.663 5.68091 15.637 5.69791C15.612 5.71291 15.549 5.73191 15.497 5.73791C15.445 5.74491 15.39 5.75791 15.374 5.76491C15.35 5.77691 15.347 5.76691 15.354 5.69291C15.367 5.57891 15.308 5.49591 15.214 5.49591C15.094 5.49591 15.039 5.63891 15.086 5.82791C15.096 5.86391 15.106 5.92191 15.112 5.95491C15.119 5.98991 15.172 6.08291 15.24 6.17191C15.304 6.25791 15.364 6.34691 15.374 6.36991C15.384 6.39291 15.417 6.42991 15.447 6.45191L15.502 6.49191L15.495 6.41491C15.487 6.32891 15.501 6.31491 15.535 6.37491C15.548 6.39791 15.579 6.43291 15.605 6.45491C15.645 6.48691 15.652 6.48791 15.652 6.45891C15.652 6.43891 15.66 6.39891 15.67 6.36491L15.69 6.30491L15.72 6.38691C15.738 6.43191 15.796 6.53491 15.848 6.61691C15.95 6.77191 16.012 6.94691 15.98 6.98691C15.967 7.00391 15.932 7.00191 15.86 6.98291C15.803 6.96891 15.733 6.96091 15.704 6.96591C15.644 6.97591 15.641 6.96591 15.677 6.90591C15.715 6.84291 15.709 6.83291 15.634 6.83291C15.547 6.83291 15.332 6.77691 15.249 6.73291C15.169 6.69291 15.149 6.70291 15.126 6.80291L15.083 6.98791L15.06 7.08791L15.147 7.07791C15.195 7.07091 15.257 7.05791 15.284 7.04591C15.312 7.03591 15.337 7.02991 15.34 7.03291C15.343 7.03691 15.33 7.07691 15.313 7.12091L15.279 7.20091L15.334 7.18691C15.364 7.17891 15.409 7.15891 15.434 7.14291C15.478 7.11491 15.481 7.11691 15.516 7.18991C15.558 7.27991 15.592 7.27691 15.599 7.17991C15.607 7.08191 15.632 7.09691 15.679 7.22791C15.722 7.35391 15.769 7.39791 15.777 7.32391C15.78 7.29991 15.803 7.25891 15.83 7.23391C15.883 7.18391 15.923 7.19991 15.945 7.27791C15.97 7.35791 15.917 7.44191 15.765 7.56591C15.455 7.81391 15.277 8.15391 15.225 8.58591C15.179 8.97591 15.323 9.37991 15.612 9.66991C15.75 9.80991 15.97 9.95491 15.956 9.89991C15.898 9.66191 15.9 9.20991 15.96 9.13291C15.97 9.12091 15.966 9.16791 15.953 9.23691C15.905 9.49491 15.926 9.69991 16.05 10.1809C16.16 10.6169 16.146 10.8029 15.988 10.9249C15.938 10.9649 15.904 10.9709 15.768 10.9689C15.62 10.9669 15.604 10.9709 15.556 11.0209C15.51 11.0709 15.451 11.2309 15.451 11.3049C15.451 11.3449 15.484 11.3399 15.551 11.2889L15.535 11.2869ZM14.415 10.4869C14.431 10.4599 14.443 10.4169 14.443 10.3919C14.443 10.3539 14.456 10.3439 14.52 10.3319L14.597 10.3179L14.547 10.2629C14.485 10.1989 14.479 10.1489 14.533 10.1489C14.586 10.1489 14.677 10.0749 14.691 10.0189C14.698 9.99491 14.694 9.96091 14.683 9.94291C14.653 9.89791 14.596 9.90491 14.586 9.95491C14.574 10.0089 14.556 10.0099 14.513 9.95491C14.449 9.87491 14.447 9.70691 14.51 9.60891C14.538 9.56291 14.538 9.55891 14.5 9.51291C14.46 9.46091 14.43 9.35991 14.45 9.33591C14.456 9.32891 14.488 9.33591 14.52 9.34991C14.568 9.36991 14.587 9.37191 14.606 9.34991C14.666 9.28991 14.601 9.20991 14.506 9.22791C14.469 9.23491 14.454 9.22791 14.448 9.20191C14.444 9.18191 14.411 9.15491 14.373 9.14191C14.307 9.11991 14.306 9.12191 14.306 9.18191C14.306 9.24891 14.276 9.26191 14.223 9.21891C14.178 9.18391 14.135 9.21091 14.135 9.27391C14.135 9.33191 14.18 9.36091 14.259 9.35391C14.319 9.34891 14.322 9.40991 14.264 9.49591L14.222 9.55891L14.255 9.62191C14.305 9.71491 14.3 9.86991 14.245 9.94691L14.205 10.0069L14.177 9.95891C14.139 9.89191 14.087 9.89691 14.072 9.96891C14.062 10.0159 14.072 10.0369 14.115 10.0869C14.145 10.1199 14.188 10.1469 14.211 10.1469C14.269 10.1469 14.267 10.2069 14.207 10.2689L14.16 10.3169L14.234 10.3319C14.274 10.3399 14.306 10.3559 14.306 10.3669C14.306 10.4069 14.356 10.5349 14.373 10.5349C14.383 10.5349 14.403 10.5149 14.416 10.4879L14.415 10.4869ZM14.668 8.31691C14.834 8.21991 14.848 7.97291 14.692 7.90691C14.627 7.88091 14.586 7.89691 14.562 7.95391C14.542 7.99891 14.555 8.07991 14.582 8.07991C14.59 8.07991 14.597 8.09391 14.597 8.11191C14.597 8.19791 14.344 8.23691 14.241 8.16691C14.205 8.14191 14.191 8.07891 14.221 8.07891C14.241 8.07891 14.258 8.01291 14.247 7.96691C14.231 7.90491 14.183 7.88291 14.115 7.90691C13.96 7.96091 13.965 8.20291 14.122 8.30691C14.252 8.38991 14.536 8.39491 14.67 8.31691H14.668ZM14.565 8.12691C14.575 8.11691 14.571 8.09691 14.555 8.07991C14.52 8.04291 14.522 7.98791 14.56 7.92491C14.59 7.87791 14.593 7.80791 14.603 7.09891C14.62 5.87491 14.688 4.95591 14.778 4.73591C14.814 4.64791 14.808 4.64591 14.716 4.73091C14.596 4.83891 14.506 4.98091 14.426 5.18091C14.274 5.56091 14.221 6.07291 14.221 7.16491C14.221 7.78491 14.225 7.86491 14.251 7.92491C14.277 7.97891 14.278 7.99991 14.261 8.05891C14.249 8.09691 14.244 8.13391 14.249 8.13891C14.283 8.18291 14.529 8.17191 14.566 8.12591L14.565 8.12691Z" fill="#FFB700"/>
<path fill-rule="evenodd" clip-rule="evenodd" d="M13 3H14V4H13V3ZM20 3H21V4H20V3ZM13 12H14V13H13V12ZM20 12H21V13H20V12Z" fill="#DA8210"/>
</svg>
