<svg xmlns="http://www.w3.org/2000/svg" width="24" height="16" viewBox="0 0 24 16">
  <title>usd</title>
  <path d="M2,0H22a2,2,0,0,1,2,2V14a2,2,0,0,1-2,2H2a2,2,0,0,1-2-2V2A2,2,0,0,1,2,0" transform="translate(0 0)" fill="#fff"/>
  <path d="M21.5,1H11.2v.22H22.29A1.51,1.51,0,0,0,21.5,1M22,0h-.5a2.51,2.51,0,0,1,2.15,1.22h.19A2,2,0,0,0,22,0" transform="translate(0 0)" fill="#f44336"/>
  <path d="M23,2.45H11.2V3.67H23V2.45m1,0h0V3.67h0V2.45" transform="translate(0 0)" fill="#f44336"/>
  <path d="M23,4.9H11.2V6.12H23V4.9m1,0h0V6.12h0V4.9" transform="translate(0 0)" fill="#f44336"/>
  <path d="M23,7.34H11.2V8.57H23V7.34m1,0h0V8.57h0V7.34" transform="translate(0 0)" fill="#f44336"/>
  <path d="M23,9.79H1V11H23V9.79m1,0h0V11h0V9.79" transform="translate(0 0)" fill="#f44336"/>
  <path d="M22.41,14.69H1.59A1.51,1.51,0,0,0,2.5,15h19a1.51,1.51,0,0,0,.91-.31m1.47,0H23.7A2.5,2.5,0,0,1,21.5,16H2.5A2.5,2.5,0,0,1,.3,14.69H.12A2,2,0,0,0,2,16H22a2,2,0,0,0,1.88-1.31M23,12.24H1v1.22H23V12.24m1,0h0v1.22h0V12.24" transform="translate(0 0)" fill="#f44336"/>
  <polyline points="0 0 24 0 24 16 0 16 0 0" fill="none"/>
  <path d="M2,0h9.2V8.57H0V2A2,2,0,0,1,2,0" transform="translate(0 0)" fill="#0d47a1"/>
  <path d="M1.09,1l.1.28h.29l0,0v0l-.24.18.09.28,0,0h0l-.24-.17-.24.17h0v0L.85,1.5.61,1.32v0l0,0H.93L1,1h.06m0,1.46.1.28h.29l0,0v0L1.27,3l.09.28,0,0h0l-.24-.17-.24.17h0v0L.85,3,.61,2.78l0,0,0,0h.3L1,2.43h.06m0,1.46.1.28h.29l0,0v0l-.24.17.09.28,0,0h0l-.24-.17-.24.17h0v0l.09-.28L.61,4.25v0l0,0H.93L1,3.89h.06m0,1.46.1.28h.29l0,0v0l-.24.18.09.28,0,0h0L1.06,6l-.24.18h0v0l.09-.28L.61,5.7l0,0,0,0h.3L1,5.35h.06m0,1.47.1.28h.29l0,0v0l-.24.18.09.28,0,0h0L1.06,7.5l-.24.17h0v0l.09-.28L.61,7.17v0l0,0H.93L1,6.82h.06M2.23,1.68,2.32,2h.3l0,0,0,.05-.24.17.09.29v0h0l-.24-.17L2,2.54h0l0,0L2,2.22,1.75,2V2l0,0h.3l.09-.28h.07m0,1.46.09.28h.3l0,0,0,0-.24.17L2.49,4V4h0l-.24-.17L2,4h0l0,0L2,3.67,1.74,3.5v0l0,0h.31l.09-.28h.07m0,1.47.09.28h.3l0,0,0,0-.24.18.09.28v0h0l-.24-.17L2,5.46h0l0,0L2,5.14,1.75,5v0l0,0h.3l.09-.28h.07m0,1.46.09.28h.3l0,0,0,0L2.4,6.6l.09.28v0h0l-.24-.17L2,6.93h0l0,0L2,6.6l-.24-.17v0l0,0h.31l.09-.28h.07M3.36,1l.1.28h.29l0,0v0l-.24.18.09.28,0,0h0l-.24-.17-.24.17H3l0,0,.1-.28-.24-.18v0l0,0H3.2L3.3,1h.06m0,1.46.1.28h.3l0,0v0L3.54,3l.09.28v0H3.57l-.24-.17-.24.17H3v0L3.12,3l-.24-.18v0l0,0h.3l.09-.28h.07m0,1.46.1.28h.29l0,0v0l-.24.17.09.28,0,0h0l-.24-.17-.24.17H3l0,0,.1-.28-.24-.17v0l0,0H3.2l.1-.29h.06m0,1.46.1.28h.29l0,0v0l-.24.18.09.28,0,0h0L3.32,6l-.24.18H3l0,0,.09-.28L2.87,5.7v0l0,0h.3l.1-.28h.06m0,1.47.1.28h.29l0,0v0l-.24.18.09.28,0,0h0L3.32,7.5l-.24.17H3l0,0,.1-.28-.24-.18v0l0,0H3.2l.1-.28h.06M4.5,1.68,4.59,2h.3l0,0V2l-.24.17.09.29v0h0l-.24-.17-.24.17h0v0l.1-.28L4,2,4,2,4,2h.3l.09-.28H4.5m0,1.46.09.28h.3l0,0v0l-.24.17L4.76,4V4h0l-.24-.17L4.22,4h0V4l.09-.28L4,3.5v0l0,0h.31l.09-.28H4.5m0,1.47.09.28h.3l0,0V5l-.24.18.09.28v0h0l-.24-.17-.24.17h0v0l.1-.28L4,5l0,0,0,0h.3l.09-.28H4.5m0,1.46.09.28h.3l0,0v0l-.24.17.09.28v0h0l-.24-.17-.24.17h0v0l.09-.28L4,6.43v0l0,0h.31l.09-.28H4.5M5.63,1l.1.28H6l0,0,0,0L5.8,1.5l.1.28,0,0h0l-.24-.17-.24.17h0l0,0,.09-.28-.24-.18v0l0,0h.3L5.57,1h.06m0,1.46.1.28H6l0,0,0,0L5.8,3l.1.28,0,0h0l-.24-.17-.24.17h0l0,0L5.38,3l-.24-.18v0l0,0h.3l.1-.28h.06m0,1.46.1.28H6l0,0,0,0-.24.17.1.28,0,0h0l-.24-.17-.24.17h0l0,0,.09-.28-.24-.17v0l0,0h.3l.1-.28h.06m0,1.46.1.28H6l0,0,0,0-.24.18.1.28,0,0h0L5.59,6l-.24.18h0l0,0,.09-.28L5.14,5.7v0l0,0h.3l.1-.28h.06m0,1.47.1.28H6l0,0,0,0-.24.18.1.28,0,0h0L5.59,7.5l-.24.17h0l0,0,.1-.28-.24-.18v0l0,0h.3l.1-.28h.06M6.76,1.68l.1.29h.3l0,0V2l-.24.17L7,2.5v0H7l-.24-.17-.24.17h0v0l.09-.29L6.28,2l0-.05,0,0h.3l.09-.29h.07m0,1.46.1.28h.3l0,0v0l-.24.17L7,4V4H7l-.24-.17L6.49,4h0V4l.09-.28L6.28,3.5l0,0,0,0h.3l.09-.28h.07m0,1.47.1.28h.3l0,0V5l-.24.18L7,5.42v0H7l-.24-.17-.24.17h0v0l.09-.28L6.28,5l0,0,0,0h.3l.09-.28h.07m0,1.46.1.28h.3l0,0v0l-.24.17L7,6.88v0H7l-.24-.17-.24.17h0v0l.09-.28-.24-.17,0,0,0,0h.3l.09-.28h.07M7.89,1l.1.28h.29l0,0v0l-.24.18.09.28,0,0h0l-.24-.17-.24.17h0v0l.09-.28-.24-.18,0,0,0,0h.29L7.82,1l0,0h0V1m0,1.46.1.28h.29l0,0v0L8.07,3l.09.28,0,0h0l-.24-.17-.24.17h0v0L7.65,3l-.24-.18,0,0,0,0h.29l.1-.28h.07m0,1.46.1.28h.29l0,0v0l-.24.17.09.28,0,0h0l-.24-.17-.24.17h0v0l.09-.28-.24-.17,0,0,0,0h.29l.1-.28,0,0,0,0m0,1.46.1.28h.29l0,0v0l-.24.18.09.28,0,0h0L7.86,6l-.24.18h0v0l.09-.28L7.41,5.7l0,0,0,0h.29l.1-.28h.07m0,1.47L8,7.1h.29l0,0v0l-.24.18.09.28,0,0h0L7.86,7.5l-.24.17h0v0l.09-.28-.24-.18v0l0,0h.29l.1-.28,0,0,0,0M9,1.68,9.12,2h.3l0,0,0,.05-.24.17.09.29v0h0L9,2.37l-.24.17h0l0,0,.09-.29L8.54,2V2l0,0h.3L9,1.68l0,0H9l0,0M9,3.14l.09.28h.3l0,0,0,0-.24.17L9.29,4V4h0L9,3.83,8.75,4h0l0,0,.09-.28L8.54,3.5v0l0,0h.3L9,3.14H9M9,4.61l.09.28h.3l0,0,0,0-.24.18.09.28v0h0L9,5.29l-.24.17h0l0,0,.09-.28L8.54,5v0l0,0h.3L9,4.61l0,0,0,0M9,6.07l.09.28h.3l0,0,0,0L9.2,6.6l.09.28v0h0L9,6.76l-.24.17h0l0,0,.09-.28-.24-.17v0l0,0h.3L9,6.07,9,6H9l0,0M10.16,1l.1.28h.29l0,0v0l-.24.18.09.28,0,0h0l-.24-.17-.24.17H9.84l0,0,.1-.28-.24-.18v0l0,0H10L10.1,1l0,0,0,0m0,1.46.1.28h.29l0,0v0L10.34,3l.09.28,0,0h0l-.24-.17-.24.17H9.84l0,0L9.91,3l-.24-.18v0l0,0H10l.1-.28h.07m0,1.46.1.28h.29l0,0v0l-.24.17.09.28,0,0h0l-.24-.17-.24.17H9.84l0,0,.1-.28-.24-.17v0l0,0H10l.1-.29,0,0,0,0m0,1.46.1.28h.29l0,0v0l-.24.18.09.28,0,0h0L10.13,6l-.24.18H9.84l0,0,.09-.28L9.67,5.7v0l0,0H10l.1-.28h.07m0,1.47.1.28h.29l0,0v0l-.24.18.09.28,0,0h0l-.24-.17-.24.17H9.84l0,0,.1-.28-.24-.18v0l0,0H10l.1-.28,0,0,0,0" transform="translate(0 0)" fill="#f5f5f5"/>
  <polyline points="21.5 0 2.5 0 2.5 0 11.2 0 21.5 0 21.5 0" fill="#f5f5f5"/>
  <path d="M1,13.46H0v0a2.5,2.5,0,0,0,.3,1.19H1.59A1.51,1.51,0,0,1,1,13.5v0m23,0H23v0a1.51,1.51,0,0,1-.59,1.19H23.7A2.5,2.5,0,0,0,24,13.5v0M1,11H0v1.22H1V11m23,0H23v1.22h1V11M1,8.57H0V9.79H1V8.57m23,0H23V9.79h1V8.57m0-2.45H23V7.34h1V6.12m0-2.45H23V4.9h1V3.67m-.35-2.45H22.29A1.52,1.52,0,0,1,23,2.45h1a2.55,2.55,0,0,0-.35-1.23" transform="translate(0 0)" fill="#f5f5f5"/>
  <path d="M21.5,0H11.2V1H21.5a1.51,1.51,0,0,1,.79.22h1.36A2.51,2.51,0,0,0,21.5,0" transform="translate(0 0)" fill="#ea4034"/>
  <path d="M24,2.45H23V3.67h1V2.45" transform="translate(0 0)" fill="#ea4034"/>
  <polyline points="24 4.9 23 4.9 23 6.12 24 6.12 24 4.9" fill="#ea4034"/>
  <polyline points="24 7.34 23 7.34 23 8.57 24 8.57 24 7.34" fill="#ea4034"/>
  <path d="M1,9.79H0V11H1V9.79m23,0H23V11h1V9.79" transform="translate(0 0)" fill="#ea4034"/>
  <path d="M23.7,14.69H22.41a1.51,1.51,0,0,1-.91.31H2.5a1.51,1.51,0,0,1-.91-.31H.3A2.5,2.5,0,0,0,2.5,16h19a2.5,2.5,0,0,0,2.2-1.31M1,12.24H0v1.22H1V12.24m23,0H23v1.22h1V12.24" transform="translate(0 0)" fill="#ea4034"/>
  <path d="M11.2,0H2.5A2.5,2.5,0,0,0,0,2.5V8.57H1v-1l-.18.13h0v0l.09-.28L.61,7.17v0l0,0H.93L1,6.9V6.07l-.18.14h0v0l.09-.28L.61,5.7l0,0,0,0h.3L1,5.44V4.62l-.18.13h0v0l.09-.28L.61,4.25v0l0,0H.93L1,4V3.15l-.18.13h0v0L.85,3,.61,2.78l0,0,0,0h.3L1,2.51H1a1.48,1.48,0,0,1,.2-.75l-.14-.1-.24.17h0v0L.85,1.5.61,1.32v0l0,0H.93L1,1h.06l.1.28h.29l0,0v0l-.24.18,0,.1A1.51,1.51,0,0,1,2.5,1h.79V1h.06V1H5.55l0,0h.06V1H7.81V1l0,0h0V1h2.19V1l0,0,0,0V1h1V0" transform="translate(0 0)" fill="#0c449b"/>
  <path d="M1,6.9l-.07.2H.64l0,0v0l.24.18-.09.28v0h0L1,7.54V6.9M1,5.44l-.07.19H.63l0,0,0,0,.24.18-.09.28v0h0L1,6.07V5.44M1,4l-.07.2H.64l0,0v0l.24.17L.76,4.7v0h0L1,4.62V4M1,2.51l-.07.2H.63l0,0,0,0L.85,3l-.09.28v0h0L1,3.15V2.51M1.09,1H1l-.1.28H.64l0,0v0l.24.18-.09.28v0h0l.24-.17.14.1a1.3,1.3,0,0,1,.1-.15l0-.1.24-.18v0l0,0H1.19L1.09,1M3.36,1H3.3V1h.08V1M5.63,1H5.57l0,0h.09V1m4.5,0,0,0V1h.08V1l0,0M7.88.94h0l0,0V1H7.9V.94" transform="translate(0 0)" fill="#ebebeb"/>
</svg>
