<?xml version="1.0" encoding="UTF-8"?>
<svg width="24px" height="16px" viewBox="0 0 24 16" version="1.1" xmlns="http://www.w3.org/2000/svg" xmlns:xlink="http://www.w3.org/1999/xlink">
    <!-- Generator: Sketch 48.2 (47327) - http://www.bohemiancoding.com/sketch -->
    <title>icons/flags/us usd</title>
    <desc>Created with Sketch.</desc>
    <defs>
        <rect id="path-1" x="0" y="0" width="24" height="16" rx="2"></rect>
        <path d="M2,0 L11.2,0 L11.2,8.56799984 L0,8.56799984 L-2.22044605e-16,2 C-3.57315355e-16,0.8954305 0.8954305,1.09108455e-15 2,8.8817842e-16 Z" id="path-3"></path>
    </defs>
    <g id="Symbols" stroke="none" stroke-width="1" fill="none" fill-rule="evenodd">
        <g id="icons/flags/us-usd">
            <mask id="mask-2" fill="white">
                <use xlink:href="#path-1"></use>
            </mask>
            <rect fill="#FFFFFF" id="Rectangle-2" x="0" y="0" width="24" height="16" rx="2"></rect>
            <path d="M1.91237693,0 L22.776,8.8817842e-16 C23.4519965,7.63999873e-16 24,0.548003456 24,1.22399998 L0.688376957,1.22399998 C0.688376957,0.548003456 1.23638041,1.24178546e-16 1.91237693,0 Z M0,2.44799995 L24,2.44799995 L24,3.67199993 L0,3.67199993 L0,2.44799995 Z M0,4.89599991 L24,4.89599991 L24,6.11999989 L0,6.11999989 L0,4.89599991 Z M0,7.34399986 L24,7.34399986 L24,8.56799984 L0,8.56799984 L0,7.34399986 Z M0,9.79199982 L24,9.79199982 L24,11.0159998 L0,11.0159998 L0,9.79199982 Z M0,12.2399998 L24,12.2399998 L24,13.4639997 L0,13.4639997 L0,12.2399998 Z M0,14.6879997 L24,14.6879997 C24,15.4125975 23.4125975,16 22.6879997,16 L1.31200027,16 C0.587402531,16 8.87376307e-17,15.4125975 0,14.6879997 Z" id="red" fill="#F44336" mask="url(#mask-2)"></path>
            <mask id="mask-4" fill="white">
                <use xlink:href="#path-3"></use>
            </mask>
            <use id="blue" fill="#0D47A1" xlink:href="#path-3"></use>
            <path d="M1.0936,0.9688 L1.1888,1.2504 L1.484,1.2504 C1.50078953,1.25082622 1.51552477,1.2616952 1.52088941,1.27761031 C1.52625406,1.29352542 1.52110546,1.31109681 1.508,1.3216 L1.268,1.4984 L1.3584,1.78 C1.36398459,1.796485 1.35803052,1.81467821 1.34378028,1.82467188 C1.32953004,1.83466556 1.3103967,1.83406611 1.2968,1.8232 L1.0568,1.6512 L0.8168,1.8232 C0.80301273,1.83288632 0.784633801,1.83289405 0.770838382,1.82321934 C0.757042963,1.81354463 0.750789556,1.79626227 0.7552,1.78 L0.8536,1.5 L0.6136,1.3232 C0.600494536,1.31269681 0.595345944,1.29512542 0.600710587,1.27921031 C0.60607523,1.2632952 0.620810467,1.25242622 0.6376,1.252 L0.9336,1.252 L1.0288,0.9704 C1.0344,0.9304 1.0824,0.9304 1.0936,0.9688 Z M1.0936,2.428 L1.1888,2.7096 L1.484,2.7096 C1.50078953,2.71002622 1.51552477,2.7208952 1.52088941,2.73681031 C1.52625406,2.75272542 1.52110546,2.77029681 1.508,2.7808 L1.268,2.9576 L1.3584,3.2392 C1.36398459,3.255685 1.35803052,3.27387821 1.34378028,3.28387188 C1.32953004,3.29386556 1.3103967,3.29326611 1.2968,3.2824 L1.0568,3.1104 L0.8168,3.2824 C0.80301273,3.29208632 0.784633801,3.29209405 0.770838382,3.28241934 C0.757042963,3.27274463 0.750789556,3.25546227 0.7552,3.2392 L0.8456,2.9576 L0.6056,2.7808 C0.592494536,2.77029681 0.587345944,2.75272542 0.592710587,2.73681031 C0.59807523,2.7208952 0.612810467,2.71002622 0.6296,2.7096 L0.9336,2.7096 L1.0288,2.428 C1.0344,2.3952 1.0824,2.3952 1.0936,2.428 Z M1.0936,3.8928 L1.1888,4.1744 L1.484,4.1744 C1.50078953,4.17482622 1.51552477,4.1856952 1.52088941,4.20161031 C1.52625406,4.21752542 1.52110546,4.23509681 1.508,4.2456 L1.268,4.4224 L1.3584,4.704 C1.36398459,4.720485 1.35803052,4.73867821 1.34378028,4.74867188 C1.32953004,4.75866556 1.3103967,4.75806611 1.2968,4.7472 L1.0568,4.5752 L0.8168,4.7472 C0.80301273,4.75688632 0.784633801,4.75689405 0.770838382,4.74721934 C0.757042963,4.73754463 0.750789556,4.72026227 0.7552,4.704 L0.8536,4.424 L0.6136,4.2472 C0.600494536,4.23669681 0.595345944,4.21912542 0.600710587,4.20321031 C0.60607523,4.1872952 0.620810467,4.17642622 0.6376,4.176 L0.9336,4.176 L1.0288,3.8944 C1.0344,3.8544 1.0824,3.8544 1.0936,3.8928 Z M1.0936,5.352 L1.1888,5.6336 L1.484,5.6336 C1.50078953,5.63402622 1.51552477,5.6448952 1.52088941,5.66081031 C1.52625406,5.67672542 1.52110546,5.69429681 1.508,5.7048 L1.268,5.8816 L1.3584,6.1632 C1.36398459,6.179685 1.35803052,6.19787821 1.34378028,6.20787188 C1.32953004,6.21786556 1.3103967,6.21726611 1.2968,6.2064 L1.0568,6.0344 L0.8168,6.2064 C0.80301273,6.21608632 0.784633801,6.21609405 0.770838382,6.20641934 C0.757042963,6.19674463 0.750789556,6.17946227 0.7552,6.1632 L0.8456,5.8816 L0.6056,5.7048 C0.592494536,5.69429681 0.587345944,5.67672542 0.592710587,5.66081031 C0.59807523,5.6448952 0.612810467,5.63402622 0.6296,5.6336 L0.9336,5.6336 L1.0288,5.352 C1.0344,5.3192 1.0824,5.3192 1.0936,5.352 Z M1.0936,6.8168 L1.1888,7.0984 L1.484,7.0984 C1.50078953,7.09882622 1.51552477,7.1096952 1.52088941,7.12561031 C1.52625406,7.14152542 1.52110546,7.15909681 1.508,7.1696 L1.268,7.3464 L1.3584,7.628 C1.36398459,7.644485 1.35803052,7.66267821 1.34378028,7.67267188 C1.32953004,7.68266556 1.3103967,7.68206611 1.2968,7.6712 L1.0568,7.4992 L0.8168,7.6712 C0.80301273,7.68088632 0.784633801,7.68089405 0.770838382,7.67121934 C0.757042963,7.66154463 0.750789556,7.64426227 0.7552,7.628 L0.8536,7.348 L0.6136,7.1712 C0.600494536,7.16069681 0.595345944,7.14312542 0.600710587,7.12721031 C0.60607523,7.1112952 0.620810467,7.10042622 0.6376,7.1 L0.9336,7.1 L1.0288,6.8184 C1.0344,6.7784 1.0824,6.7784 1.0936,6.8168 Z M2.228,1.684 L2.3232,1.9656 L2.6184,1.9656 C2.63518953,1.96602622 2.64992477,1.9768952 2.65528941,1.99281031 C2.66065406,2.00872542 2.65550546,2.02629681 2.6424,2.0368 L2.4024,2.2136 L2.4928,2.4952 C2.49838459,2.511685 2.49243052,2.52987821 2.47818028,2.53987188 C2.46393004,2.54986556 2.4447967,2.54926611 2.4312,2.5384 L2.1912,2.3664 L1.9512,2.5384 C1.93741273,2.54808632 1.9190338,2.54809405 1.90523838,2.53841934 C1.89144296,2.52874463 1.88518956,2.51146227 1.8896,2.4952 L1.988,2.2152 L1.748,2.0384 C1.73489454,2.02789681 1.72974594,2.01032542 1.73511059,1.99441031 C1.74047523,1.9784952 1.75521047,1.96762622 1.772,1.9672 L2.068,1.9672 L2.1632,1.6856 C2.1688,1.6456 2.2168,1.6456 2.228,1.684 Z M2.228,3.1432 L2.3232,3.4248 L2.6184,3.4248 C2.63518953,3.42522622 2.64992477,3.4360952 2.65528941,3.45201031 C2.66065406,3.46792542 2.65550546,3.48549681 2.6424,3.496 L2.4024,3.6728 L2.4928,3.9544 C2.49838459,3.970885 2.49243052,3.98907821 2.47818028,3.99907188 C2.46393004,4.00906556 2.4447967,4.00846611 2.4312,3.9976 L2.1912,3.8256 L1.9512,3.9976 C1.93741273,4.00728632 1.9190338,4.00729405 1.90523838,3.99761934 C1.89144296,3.98794463 1.88518956,3.97066227 1.8896,3.9544 L1.98,3.6728 L1.74,3.496 C1.72689454,3.48549681 1.72174594,3.46792542 1.72711059,3.45201031 C1.73247523,3.4360952 1.74721047,3.42522622 1.764,3.4248 L2.068,3.4248 L2.1632,3.1432 C2.1688,3.1104 2.2168,3.1104 2.228,3.1432 Z M2.228,4.6088 L2.3232,4.8904 L2.6184,4.8904 C2.63518953,4.89082622 2.64992477,4.9016952 2.65528941,4.91761031 C2.66065406,4.93352542 2.65550546,4.95109681 2.6424,4.9616 L2.4024,5.1384 L2.4928,5.42 C2.49838459,5.436485 2.49243052,5.45467821 2.47818028,5.46467188 C2.46393004,5.47466556 2.4447967,5.47406611 2.4312,5.4632 L2.1912,5.2912 L1.9512,5.4632 C1.93741273,5.47288632 1.9190338,5.47289405 1.90523838,5.46321934 C1.89144296,5.45354463 1.88518956,5.43626227 1.8896,5.42 L1.988,5.14 L1.748,4.9632 C1.73489454,4.95269681 1.72974594,4.93512542 1.73511059,4.91921031 C1.74047523,4.9032952 1.75521047,4.89242622 1.772,4.892 L2.068,4.892 L2.1632,4.6104 C2.1688,4.5704 2.2168,4.5704 2.228,4.6088 Z M2.228,6.0728 L2.3232,6.3544 L2.6184,6.3544 C2.63518953,6.35482622 2.64992477,6.3656952 2.65528941,6.38161031 C2.66065406,6.39752542 2.65550546,6.41509681 2.6424,6.4256 L2.4024,6.6024 L2.4928,6.884 C2.49838459,6.900485 2.49243052,6.91867821 2.47818028,6.92867188 C2.46393004,6.93866556 2.4447967,6.93806611 2.4312,6.9272 L2.1912,6.7552 L1.9512,6.9272 C1.93741273,6.93688632 1.9190338,6.93689405 1.90523838,6.92721934 C1.89144296,6.91754463 1.88518956,6.90026227 1.8896,6.884 L1.98,6.6024 L1.74,6.4256 C1.72689454,6.41509681 1.72174594,6.39752542 1.72711059,6.38161031 C1.73247523,6.3656952 1.74721047,6.35482622 1.764,6.3544 L2.068,6.3544 L2.1632,6.0728 C2.1688,6.0344 2.2168,6.0344 2.228,6.0728 Z M3.3616,0.9688 L3.4568,1.2504 L3.752,1.2504 C3.76878953,1.25082622 3.78352477,1.2616952 3.78888941,1.27761031 C3.79425406,1.29352542 3.78910546,1.31109681 3.776,1.3216 L3.536,1.4984 L3.6264,1.78 C3.63198459,1.796485 3.62603052,1.81467821 3.61178028,1.82467188 C3.59753004,1.83466556 3.5783967,1.83406611 3.5648,1.8232 L3.3248,1.6512 L3.0848,1.8232 C3.07101273,1.83288632 3.0526338,1.83289405 3.03883838,1.82321934 C3.02504296,1.81354463 3.01878956,1.79626227 3.0232,1.78 L3.1216,1.5 L2.8816,1.3232 C2.86849454,1.31269681 2.86334594,1.29512542 2.86871059,1.27921031 C2.87407523,1.2632952 2.88881047,1.25242622 2.9056,1.252 L3.2016,1.252 L3.2968,0.9704 C3.2976,0.9304 3.3504,0.9304 3.3616,0.9688 Z M3.3648,2.428 L3.46,2.7096 L3.7568,2.7096 C3.77358953,2.71002622 3.78832477,2.7208952 3.79368941,2.73681031 C3.79905406,2.75272542 3.79390546,2.77029681 3.7808,2.7808 L3.5408,2.9576 L3.6312,3.2392 C3.63678459,3.255685 3.63083052,3.27387821 3.61658028,3.28387188 C3.60233004,3.29386556 3.5831967,3.29326611 3.5696,3.2824 L3.3296,3.1104 L3.0896,3.2824 C3.07581273,3.29208632 3.0574338,3.29209405 3.04363838,3.28241934 C3.02984296,3.27274463 3.02358956,3.25546227 3.028,3.2392 L3.1184,2.9576 L2.8784,2.7808 C2.86529454,2.77029681 2.86014594,2.75272542 2.86551059,2.73681031 C2.87087523,2.7208952 2.88561047,2.71002622 2.9024,2.7096 L3.1968,2.7096 L3.292,2.428 C3.2976,2.3952 3.3504,2.3952 3.3648,2.428 Z M3.3616,3.8928 L3.4568,4.1744 L3.752,4.1744 C3.76878953,4.17482622 3.78352477,4.1856952 3.78888941,4.20161031 C3.79425406,4.21752542 3.78910546,4.23509681 3.776,4.2456 L3.536,4.4224 L3.6264,4.704 C3.63198459,4.720485 3.62603052,4.73867821 3.61178028,4.74867188 C3.59753004,4.75866556 3.5783967,4.75806611 3.5648,4.7472 L3.3248,4.5752 L3.0848,4.7472 C3.07101273,4.75688632 3.0526338,4.75689405 3.03883838,4.74721934 C3.02504296,4.73754463 3.01878956,4.72026227 3.0232,4.704 L3.1216,4.424 L2.8816,4.2472 C2.86849454,4.23669681 2.86334594,4.21912542 2.86871059,4.20321031 C2.87407523,4.1872952 2.88881047,4.17642622 2.9056,4.176 L3.2016,4.176 L3.2968,3.8944 C3.2976,3.8544 3.3504,3.8544 3.3616,3.8928 Z M3.3616,5.352 L3.4568,5.6336 L3.752,5.6336 C3.76878953,5.63402622 3.78352477,5.6448952 3.78888941,5.66081031 C3.79425406,5.67672542 3.78910546,5.69429681 3.776,5.7048 L3.536,5.8816 L3.6264,6.1632 C3.63198459,6.179685 3.62603052,6.19787821 3.61178028,6.20787188 C3.59753004,6.21786556 3.5783967,6.21726611 3.5648,6.2064 L3.3248,6.0344 L3.0848,6.2064 C3.07101273,6.21608632 3.0526338,6.21609405 3.03883838,6.20641934 C3.02504296,6.19674463 3.01878956,6.17946227 3.0232,6.1632 L3.1136,5.8816 L2.8736,5.7048 C2.86049454,5.69429681 2.85534594,5.67672542 2.86071059,5.66081031 C2.86607523,5.6448952 2.88081047,5.63402622 2.8976,5.6336 L3.2016,5.6336 L3.2968,5.352 C3.2976,5.3192 3.3504,5.3192 3.3616,5.352 Z M3.3616,6.8168 L3.4568,7.0984 L3.752,7.0984 C3.76878953,7.09882622 3.78352477,7.1096952 3.78888941,7.12561031 C3.79425406,7.14152542 3.78910546,7.15909681 3.776,7.1696 L3.536,7.3464 L3.6264,7.628 C3.63198459,7.644485 3.62603052,7.66267821 3.61178028,7.67267188 C3.59753004,7.68266556 3.5783967,7.68206611 3.5648,7.6712 L3.3248,7.4992 L3.0848,7.6712 C3.07101273,7.68088632 3.0526338,7.68089405 3.03883838,7.67121934 C3.02504296,7.66154463 3.01878956,7.64426227 3.0232,7.628 L3.1216,7.348 L2.8816,7.1712 C2.86849454,7.16069681 2.86334594,7.14312542 2.86871059,7.12721031 C2.87407523,7.1112952 2.88881047,7.10042622 2.9056,7.1 L3.2016,7.1 L3.2968,6.8184 C3.2976,6.7784 3.3504,6.7784 3.3616,6.8168 Z M4.496,1.684 L4.5912,1.9656 L4.8864,1.9656 C4.90318953,1.96602622 4.91792477,1.9768952 4.92328941,1.99281031 C4.92865406,2.00872542 4.92350546,2.02629681 4.9104,2.0368 L4.6704,2.2136 L4.7608,2.4952 C4.76638459,2.511685 4.76043052,2.52987821 4.74618028,2.53987188 C4.73193004,2.54986556 4.7127967,2.54926611 4.6992,2.5384 L4.4592,2.3664 L4.2192,2.5384 C4.20541273,2.54808632 4.1870338,2.54809405 4.17323838,2.53841934 C4.15944296,2.52874463 4.15318956,2.51146227 4.1576,2.4952 L4.256,2.2152 L4.016,2.0384 C4.00289454,2.02789681 3.99774594,2.01032542 4.00311059,1.99441031 C4.00847523,1.9784952 4.02321047,1.96762622 4.04,1.9672 L4.336,1.9672 L4.4312,1.6856 C4.432,1.6456 4.4848,1.6456 4.496,1.684 Z M4.496,3.1432 L4.5912,3.4248 L4.8864,3.4248 C4.90318953,3.42522622 4.91792477,3.4360952 4.92328941,3.45201031 C4.92865406,3.46792542 4.92350546,3.48549681 4.9104,3.496 L4.6704,3.6728 L4.7608,3.9544 C4.76638459,3.970885 4.76043052,3.98907821 4.74618028,3.99907188 C4.73193004,4.00906556 4.7127967,4.00846611 4.6992,3.9976 L4.4592,3.8256 L4.2192,3.9976 C4.20541273,4.00728632 4.1870338,4.00729405 4.17323838,3.99761934 C4.15944296,3.98794463 4.15318956,3.97066227 4.1576,3.9544 L4.248,3.6728 L4.008,3.496 C3.99489454,3.48549681 3.98974594,3.46792542 3.99511059,3.45201031 C4.00047523,3.4360952 4.01521047,3.42522622 4.032,3.4248 L4.336,3.4248 L4.4312,3.1432 C4.432,3.1104 4.4848,3.1104 4.496,3.1432 Z M4.496,4.6088 L4.5912,4.8904 L4.8864,4.8904 C4.90318953,4.89082622 4.91792477,4.9016952 4.92328941,4.91761031 C4.92865406,4.93352542 4.92350546,4.95109681 4.9104,4.9616 L4.6704,5.1384 L4.7608,5.42 C4.76638459,5.436485 4.76043052,5.45467821 4.74618028,5.46467188 C4.73193004,5.47466556 4.7127967,5.47406611 4.6992,5.4632 L4.4592,5.2912 L4.2192,5.4632 C4.20541273,5.47288632 4.1870338,5.47289405 4.17323838,5.46321934 C4.15944296,5.45354463 4.15318956,5.43626227 4.1576,5.42 L4.256,5.14 L4.016,4.9632 C4.00289454,4.95269681 3.99774594,4.93512542 4.00311059,4.91921031 C4.00847523,4.9032952 4.02321047,4.89242622 4.04,4.892 L4.336,4.892 L4.4312,4.6104 C4.432,4.5704 4.4848,4.5704 4.496,4.6088 Z M4.496,6.0728 L4.5912,6.3544 L4.8864,6.3544 C4.90318953,6.35482622 4.91792477,6.3656952 4.92328941,6.38161031 C4.92865406,6.39752542 4.92350546,6.41509681 4.9104,6.4256 L4.6704,6.6024 L4.7608,6.884 C4.76638459,6.900485 4.76043052,6.91867821 4.74618028,6.92867188 C4.73193004,6.93866556 4.7127967,6.93806611 4.6992,6.9272 L4.4592,6.7552 L4.2192,6.9272 C4.20541273,6.93688632 4.1870338,6.93689405 4.17323838,6.92721934 C4.15944296,6.91754463 4.15318956,6.90026227 4.1576,6.884 L4.248,6.6024 L4.008,6.4256 C3.99489454,6.41509681 3.98974594,6.39752542 3.99511059,6.38161031 C4.00047523,6.3656952 4.01521047,6.35482622 4.032,6.3544 L4.336,6.3544 L4.4312,6.0728 C4.432,6.0344 4.4848,6.0344 4.496,6.0728 Z M5.6304,0.9688 L5.7256,1.2504 L6.0208,1.2504 C6.03758953,1.25082622 6.05232477,1.2616952 6.05768941,1.27761031 C6.06305406,1.29352542 6.05790546,1.31109681 6.0448,1.3216 L5.8048,1.4984 L5.8952,1.78 C5.90078459,1.796485 5.89483052,1.81467821 5.88058028,1.82467188 C5.86633004,1.83466556 5.8471967,1.83406611 5.8336,1.8232 L5.5936,1.6512 L5.3536,1.8232 C5.33981273,1.83288632 5.3214338,1.83289405 5.30763838,1.82321934 C5.29384296,1.81354463 5.28758956,1.79626227 5.292,1.78 L5.3824,1.4984 L5.1424,1.3216 C5.12929454,1.31109681 5.12414594,1.29352542 5.12951059,1.27761031 C5.13487523,1.2616952 5.14961047,1.25082622 5.1664,1.2504 L5.4704,1.2504 L5.5656,0.9688 C5.5664,0.9304 5.6192,0.9304 5.6304,0.9688 Z M5.6304,2.428 L5.7256,2.7096 L6.0208,2.7096 C6.03758953,2.71002622 6.05232477,2.7208952 6.05768941,2.73681031 C6.06305406,2.75272542 6.05790546,2.77029681 6.0448,2.7808 L5.8048,2.9576 L5.8952,3.2392 C5.90078459,3.255685 5.89483052,3.27387821 5.88058028,3.28387188 C5.86633004,3.29386556 5.8471967,3.29326611 5.8336,3.2824 L5.5936,3.1104 L5.3536,3.2824 C5.33981273,3.29208632 5.3214338,3.29209405 5.30763838,3.28241934 C5.29384296,3.27274463 5.28758956,3.25546227 5.292,3.2392 L5.3824,2.9576 L5.1424,2.7808 C5.12929454,2.77029681 5.12414594,2.75272542 5.12951059,2.73681031 C5.13487523,2.7208952 5.14961047,2.71002622 5.1664,2.7096 L5.4704,2.7096 L5.5656,2.428 C5.5664,2.3952 5.6192,2.3952 5.6304,2.428 Z M5.6304,3.8928 L5.7256,4.1744 L6.0208,4.1744 C6.03758953,4.17482622 6.05232477,4.1856952 6.05768941,4.20161031 C6.06305406,4.21752542 6.05790546,4.23509681 6.0448,4.2456 L5.8048,4.4224 L5.8952,4.704 C5.90078459,4.720485 5.89483052,4.73867821 5.88058028,4.74867188 C5.86633004,4.75866556 5.8471967,4.75806611 5.8336,4.7472 L5.5936,4.5752 L5.3536,4.7472 C5.33981273,4.75688632 5.3214338,4.75689405 5.30763838,4.74721934 C5.29384296,4.73754463 5.28758956,4.72026227 5.292,4.704 L5.3824,4.4224 L5.1424,4.2456 C5.12929454,4.23509681 5.12414594,4.21752542 5.12951059,4.20161031 C5.13487523,4.1856952 5.14961047,4.17482622 5.1664,4.1744 L5.4704,4.1744 L5.5656,3.8928 C5.5664,3.8544 5.6192,3.8544 5.6304,3.8928 Z M5.6304,5.352 L5.7256,5.6336 L6.0208,5.6336 C6.03758953,5.63402622 6.05232477,5.6448952 6.05768941,5.66081031 C6.06305406,5.67672542 6.05790546,5.69429681 6.0448,5.7048 L5.8048,5.8816 L5.8952,6.1632 C5.90078459,6.179685 5.89483052,6.19787821 5.88058028,6.20787188 C5.86633004,6.21786556 5.8471967,6.21726611 5.8336,6.2064 L5.5936,6.0344 L5.3536,6.2064 C5.33981273,6.21608632 5.3214338,6.21609405 5.30763838,6.20641934 C5.29384296,6.19674463 5.28758956,6.17946227 5.292,6.1632 L5.3824,5.8816 L5.1424,5.7048 C5.12929454,5.69429681 5.12414594,5.67672542 5.12951059,5.66081031 C5.13487523,5.6448952 5.14961047,5.63402622 5.1664,5.6336 L5.4704,5.6336 L5.5656,5.352 C5.5664,5.3192 5.6192,5.3192 5.6304,5.352 Z M5.6304,6.8168 L5.7256,7.0984 L6.0208,7.0984 C6.03758953,7.09882622 6.05232477,7.1096952 6.05768941,7.12561031 C6.06305406,7.14152542 6.05790546,7.15909681 6.0448,7.1696 L5.8048,7.3464 L5.8952,7.628 C5.90078459,7.644485 5.89483052,7.66267821 5.88058028,7.67267188 C5.86633004,7.68266556 5.8471967,7.68206611 5.8336,7.6712 L5.5936,7.4992 L5.3536,7.6712 C5.33981273,7.68088632 5.3214338,7.68089405 5.30763838,7.67121934 C5.29384296,7.66154463 5.28758956,7.64426227 5.292,7.628 L5.3904,7.348 L5.1504,7.1712 C5.13729454,7.16069681 5.13214594,7.14312542 5.13751059,7.12721031 C5.14287523,7.1112952 5.15761047,7.10042622 5.1744,7.1 L5.4704,7.1 L5.5656,6.8184 C5.5664,6.7784 5.6192,6.7784 5.6304,6.8168 Z M6.7648,1.684 L6.86,1.9656 L7.1552,1.9656 C7.17198953,1.96602622 7.18672477,1.9768952 7.19208941,1.99281031 C7.19745406,2.00872542 7.19230546,2.02629681 7.1792,2.0368 L6.9392,2.2136 L7.0296,2.4952 C7.03518459,2.511685 7.02923052,2.52987821 7.01498028,2.53987188 C7.00073004,2.54986556 6.9815967,2.54926611 6.968,2.5384 L6.728,2.3664 L6.488,2.5384 C6.47421273,2.54808632 6.4558338,2.54809405 6.44203838,2.53841934 C6.42824296,2.52874463 6.42198956,2.51146227 6.4264,2.4952 L6.5168,2.2136 L6.2768,2.0368 C6.26369454,2.02629681 6.25854594,2.00872542 6.26391059,1.99281031 C6.26927523,1.9768952 6.28401047,1.96602622 6.3008,1.9656 L6.596,1.9656 L6.6912,1.684 C6.7008,1.6456 6.7536,1.6456 6.7648,1.684 Z M6.7648,3.1432 L6.86,3.4248 L7.1552,3.4248 C7.17198953,3.42522622 7.18672477,3.4360952 7.19208941,3.45201031 C7.19745406,3.46792542 7.19230546,3.48549681 7.1792,3.496 L6.9392,3.6728 L7.0296,3.9544 C7.03518459,3.970885 7.02923052,3.98907821 7.01498028,3.99907188 C7.00073004,4.00906556 6.9815967,4.00846611 6.968,3.9976 L6.728,3.8256 L6.488,3.9976 C6.47421273,4.00728632 6.4558338,4.00729405 6.44203838,3.99761934 C6.42824296,3.98794463 6.42198956,3.97066227 6.4264,3.9544 L6.5168,3.6728 L6.2768,3.496 C6.26369454,3.48549681 6.25854594,3.46792542 6.26391059,3.45201031 C6.26927523,3.4360952 6.28401047,3.42522622 6.3008,3.4248 L6.596,3.4248 L6.6912,3.1432 C6.7008,3.1104 6.7536,3.1104 6.7648,3.1432 Z M6.7648,4.6088 L6.86,4.8904 L7.1552,4.8904 C7.17198953,4.89082622 7.18672477,4.9016952 7.19208941,4.91761031 C7.19745406,4.93352542 7.19230546,4.95109681 7.1792,4.9616 L6.9392,5.1384 L7.0296,5.42 C7.03518459,5.436485 7.02923052,5.45467821 7.01498028,5.46467188 C7.00073004,5.47466556 6.9815967,5.47406611 6.968,5.4632 L6.728,5.2912 L6.488,5.4632 C6.47421273,5.47288632 6.4558338,5.47289405 6.44203838,5.46321934 C6.42824296,5.45354463 6.42198956,5.43626227 6.4264,5.42 L6.5168,5.1384 L6.2768,4.9616 C6.26369454,4.95109681 6.25854594,4.93352542 6.26391059,4.91761031 C6.26927523,4.9016952 6.28401047,4.89082622 6.3008,4.8904 L6.596,4.8904 L6.6912,4.6088 C6.7008,4.5704 6.7536,4.5704 6.7648,4.6088 Z M6.7648,6.0728 L6.86,6.3544 L7.1552,6.3544 C7.17198953,6.35482622 7.18672477,6.3656952 7.19208941,6.38161031 C7.19745406,6.39752542 7.19230546,6.41509681 7.1792,6.4256 L6.9392,6.6024 L7.0296,6.884 C7.03518459,6.900485 7.02923052,6.91867821 7.01498028,6.92867188 C7.00073004,6.93866556 6.9815967,6.93806611 6.968,6.9272 L6.728,6.7552 L6.488,6.9272 C6.47421273,6.93688632 6.4558338,6.93689405 6.44203838,6.92721934 C6.42824296,6.91754463 6.42198956,6.90026227 6.4264,6.884 L6.5168,6.6024 L6.2768,6.4256 C6.26369454,6.41509681 6.25854594,6.39752542 6.26391059,6.38161031 C6.26927523,6.3656952 6.28401047,6.35482622 6.3008,6.3544 L6.596,6.3544 L6.6912,6.0728 C6.7008,6.0344 6.7536,6.0344 6.7648,6.0728 Z M7.8936,0.9688 L7.9888,1.2504 L8.284,1.2504 C8.30078953,1.25082622 8.31552477,1.2616952 8.32088941,1.27761031 C8.32625406,1.29352542 8.32110546,1.31109681 8.308,1.3216 L8.068,1.4984 L8.1584,1.78 C8.16398459,1.796485 8.15803052,1.81467821 8.14378028,1.82467188 C8.12953004,1.83466556 8.1103967,1.83406611 8.0968,1.8232 L7.8568,1.6512 L7.6168,1.8232 C7.60301273,1.83288632 7.5846338,1.83289405 7.57083838,1.82321934 C7.55704296,1.81354463 7.55078956,1.79626227 7.5552,1.78 L7.6456,1.4984 L7.4056,1.3216 C7.39249454,1.31109681 7.38734594,1.29352542 7.39271059,1.27761031 C7.39807523,1.2616952 7.41281047,1.25082622 7.4296,1.2504 L7.7248,1.2504 L7.82,0.9688 C7.82,0.955652626 7.82701404,0.943503952 7.8384,0.936930265 C7.84978596,0.930356578 7.86381404,0.930356578 7.8752,0.936930265 C7.88658596,0.943503952 7.8936,0.955652626 7.8936,0.9688 Z M7.8936,2.428 L7.9888,2.7096 L8.284,2.7096 C8.30078953,2.71002622 8.31552477,2.7208952 8.32088941,2.73681031 C8.32625406,2.75272542 8.32110546,2.77029681 8.308,2.7808 L8.068,2.9576 L8.1584,3.2392 C8.16398459,3.255685 8.15803052,3.27387821 8.14378028,3.28387188 C8.12953004,3.29386556 8.1103967,3.29326611 8.0968,3.2824 L7.8568,3.1104 L7.6168,3.2824 C7.60301273,3.29208632 7.5846338,3.29209405 7.57083838,3.28241934 C7.55704296,3.27274463 7.55078956,3.25546227 7.5552,3.2392 L7.6456,2.9576 L7.4056,2.7808 C7.39249454,2.77029681 7.38734594,2.75272542 7.39271059,2.73681031 C7.39807523,2.7208952 7.41281047,2.71002622 7.4296,2.7096 L7.7248,2.7096 L7.82,2.428 C7.8344,2.3952 7.8872,2.3952 7.8936,2.428 Z M7.8936,3.8928 L7.9888,4.1744 L8.284,4.1744 C8.30078953,4.17482622 8.31552477,4.1856952 8.32088941,4.20161031 C8.32625406,4.21752542 8.32110546,4.23509681 8.308,4.2456 L8.068,4.4224 L8.1584,4.704 C8.16398459,4.720485 8.15803052,4.73867821 8.14378028,4.74867188 C8.12953004,4.75866556 8.1103967,4.75806611 8.0968,4.7472 L7.8568,4.5752 L7.6168,4.7472 C7.60301273,4.75688632 7.5846338,4.75689405 7.57083838,4.74721934 C7.55704296,4.73754463 7.55078956,4.72026227 7.5552,4.704 L7.6456,4.4224 L7.4056,4.2456 C7.39249454,4.23509681 7.38734594,4.21752542 7.39271059,4.20161031 C7.39807523,4.1856952 7.41281047,4.17482622 7.4296,4.1744 L7.7248,4.1744 L7.82,3.8928 C7.82,3.87247592 7.83647592,3.856 7.8568,3.856 C7.87712408,3.856 7.8936,3.87247592 7.8936,3.8928 Z M7.8936,5.352 L7.9888,5.6336 L8.284,5.6336 C8.30078953,5.63402622 8.31552477,5.6448952 8.32088941,5.66081031 C8.32625406,5.67672542 8.32110546,5.69429681 8.308,5.7048 L8.068,5.8816 L8.1584,6.1632 C8.16398459,6.179685 8.15803052,6.19787821 8.14378028,6.20787188 C8.12953004,6.21786556 8.1103967,6.21726611 8.0968,6.2064 L7.8568,6.0344 L7.6168,6.2064 C7.60301273,6.21608632 7.5846338,6.21609405 7.57083838,6.20641934 C7.55704296,6.19674463 7.55078956,6.17946227 7.5552,6.1632 L7.6456,5.8816 L7.4056,5.7048 C7.39249454,5.69429681 7.38734594,5.67672542 7.39271059,5.66081031 C7.39807523,5.6448952 7.41281047,5.63402622 7.4296,5.6336 L7.7248,5.6336 L7.82,5.352 C7.8344,5.3192 7.8872,5.3192 7.8936,5.352 Z M7.8936,6.8168 L7.9888,7.0984 L8.284,7.0984 C8.30078953,7.09882622 8.31552477,7.1096952 8.32088941,7.12561031 C8.32625406,7.14152542 8.32110546,7.15909681 8.308,7.1696 L8.068,7.3464 L8.1584,7.628 C8.16398459,7.644485 8.15803052,7.66267821 8.14378028,7.67267188 C8.12953004,7.68266556 8.1103967,7.68206611 8.0968,7.6712 L7.8568,7.4992 L7.6168,7.6712 C7.60301273,7.68088632 7.5846338,7.68089405 7.57083838,7.67121934 C7.55704296,7.66154463 7.55078956,7.64426227 7.5552,7.628 L7.6536,7.348 L7.4136,7.1712 C7.40049454,7.16069681 7.39534594,7.14312542 7.40071059,7.12721031 C7.40607523,7.1112952 7.42081047,7.10042622 7.4376,7.1 L7.7328,7.1 L7.828,6.8184 C7.83102271,6.80292712 7.84439669,6.79163655 7.86015737,6.79125214 C7.87591805,6.79086774 7.88982656,6.80149288 7.8936,6.8168 Z M9.028,1.684 L9.1232,1.9656 L9.4184,1.9656 C9.43518953,1.96602622 9.44992477,1.9768952 9.45528941,1.99281031 C9.46065406,2.00872542 9.45550546,2.02629681 9.4424,2.0368 L9.2024,2.2136 L9.2928,2.4952 C9.29838459,2.511685 9.29243052,2.52987821 9.27818028,2.53987188 C9.26393004,2.54986556 9.2447967,2.54926611 9.2312,2.5384 L8.9912,2.3664 L8.7512,2.5384 C8.73741273,2.54808632 8.7190338,2.54809405 8.70523838,2.53841934 C8.69144296,2.52874463 8.68518956,2.51146227 8.6896,2.4952 L8.78,2.2136 L8.54,2.0368 C8.52689454,2.02629681 8.52174594,2.00872542 8.52711059,1.99281031 C8.53247523,1.9768952 8.54721047,1.96602622 8.564,1.9656 L8.8592,1.9656 L8.9544,1.684 C8.9544,1.67085263 8.96141404,1.65870395 8.9728,1.65213027 C8.98418596,1.64555658 8.99821404,1.64555658 9.0096,1.65213027 C9.02098596,1.65870395 9.028,1.67085263 9.028,1.684 Z M9.028,3.1432 L9.1232,3.4248 L9.4184,3.4248 C9.43518953,3.42522622 9.44992477,3.4360952 9.45528941,3.45201031 C9.46065406,3.46792542 9.45550546,3.48549681 9.4424,3.496 L9.2024,3.6728 L9.2928,3.9544 C9.29838459,3.970885 9.29243052,3.98907821 9.27818028,3.99907188 C9.26393004,4.00906556 9.2447967,4.00846611 9.2312,3.9976 L8.9912,3.8256 L8.7512,3.9976 C8.73741273,4.00728632 8.7190338,4.00729405 8.70523838,3.99761934 C8.69144296,3.98794463 8.68518956,3.97066227 8.6896,3.9544 L8.78,3.6728 L8.54,3.496 C8.52689454,3.48549681 8.52174594,3.46792542 8.52711059,3.45201031 C8.53247523,3.4360952 8.54721047,3.42522622 8.564,3.4248 L8.8592,3.4248 L8.9544,3.1432 C8.9688,3.1104 9.0216,3.1104 9.028,3.1432 Z M9.028,4.6088 L9.1232,4.8904 L9.4184,4.8904 C9.43518953,4.89082622 9.44992477,4.9016952 9.45528941,4.91761031 C9.46065406,4.93352542 9.45550546,4.95109681 9.4424,4.9616 L9.2024,5.1384 L9.2928,5.42 C9.29838459,5.436485 9.29243052,5.45467821 9.27818028,5.46467188 C9.26393004,5.47466556 9.2447967,5.47406611 9.2312,5.4632 L8.9912,5.2912 L8.7512,5.4632 C8.73741273,5.47288632 8.7190338,5.47289405 8.70523838,5.46321934 C8.69144296,5.45354463 8.68518956,5.43626227 8.6896,5.42 L8.78,5.1384 L8.54,4.9616 C8.52689454,4.95109681 8.52174594,4.93352542 8.52711059,4.91761031 C8.53247523,4.9016952 8.54721047,4.89082622 8.564,4.8904 L8.8592,4.8904 L8.9544,4.6088 C8.9544,4.58847592 8.97087592,4.572 8.9912,4.572 C9.01152408,4.572 9.028,4.58847592 9.028,4.6088 Z M9.028,6.0728 L9.1232,6.3544 L9.4184,6.3544 C9.43518953,6.35482622 9.44992477,6.3656952 9.45528941,6.38161031 C9.46065406,6.39752542 9.45550546,6.41509681 9.4424,6.4256 L9.2024,6.6024 L9.2928,6.884 C9.29838459,6.900485 9.29243052,6.91867821 9.27818028,6.92867188 C9.26393004,6.93866556 9.2447967,6.93806611 9.2312,6.9272 L8.9912,6.7552 L8.7512,6.9272 C8.73741273,6.93688632 8.7190338,6.93689405 8.70523838,6.92721934 C8.69144296,6.91754463 8.68518956,6.90026227 8.6896,6.884 L8.78,6.6024 L8.54,6.4256 C8.52689454,6.41509681 8.52174594,6.39752542 8.52711059,6.38161031 C8.53247523,6.3656952 8.54721047,6.35482622 8.564,6.3544 L8.8592,6.3544 L8.9544,6.0728 C8.9544,6.05965263 8.96141404,6.04750395 8.9728,6.04093027 C8.98418596,6.03435658 8.99821404,6.03435658 9.0096,6.04093027 C9.02098596,6.04750395 9.028,6.05965263 9.028,6.0728 Z M10.1624,0.9688 L10.2576,1.2504 L10.5528,1.2504 C10.5695895,1.25082622 10.5843248,1.2616952 10.5896894,1.27761031 C10.5950541,1.29352542 10.5899055,1.31109681 10.5768,1.3216 L10.3368,1.4984 L10.4272,1.78 C10.4327846,1.796485 10.4268305,1.81467821 10.4125803,1.82467188 C10.39833,1.83466556 10.3791967,1.83406611 10.3656,1.8232 L10.1256,1.6512 L9.8856,1.8232 C9.87181273,1.83288632 9.8534338,1.83289405 9.83963838,1.82321934 C9.82584296,1.81354463 9.81958956,1.79626227 9.824,1.78 L9.9224,1.5 L9.6824,1.3232 C9.66929454,1.31269681 9.66414594,1.29512542 9.66951059,1.27921031 C9.67487523,1.2632952 9.68961047,1.25242622 9.7064,1.252 L10.0016,1.252 L10.0968,0.9704 C10.0998227,0.954927118 10.1131967,0.943636551 10.1289574,0.943252144 C10.1447181,0.942867737 10.1586266,0.953492878 10.1624,0.9688 Z M10.1624,2.428 L10.2576,2.7096 L10.5528,2.7096 C10.5695895,2.71002622 10.5843248,2.7208952 10.5896894,2.73681031 C10.5950541,2.75272542 10.5899055,2.77029681 10.5768,2.7808 L10.3368,2.9576 L10.4272,3.2392 C10.4327846,3.255685 10.4268305,3.27387821 10.4125803,3.28387188 C10.39833,3.29386556 10.3791967,3.29326611 10.3656,3.2824 L10.1256,3.1104 L9.8856,3.2824 C9.87181273,3.29208632 9.8534338,3.29209405 9.83963838,3.28241934 C9.82584296,3.27274463 9.81958956,3.25546227 9.824,3.2392 L9.9144,2.9576 L9.6744,2.7808 C9.66129454,2.77029681 9.65614594,2.75272542 9.66151059,2.73681031 C9.66687523,2.7208952 9.68161047,2.71002622 9.6984,2.7096 L9.9936,2.7096 L10.0888,2.428 C10.1032,2.3952 10.156,2.3952 10.1624,2.428 Z M10.1624,3.8928 L10.2576,4.1744 L10.5528,4.1744 C10.5695895,4.17482622 10.5843248,4.1856952 10.5896894,4.20161031 C10.5950541,4.21752542 10.5899055,4.23509681 10.5768,4.2456 L10.3368,4.4224 L10.4272,4.704 C10.4327846,4.720485 10.4268305,4.73867821 10.4125803,4.74867188 C10.39833,4.75866556 10.3791967,4.75806611 10.3656,4.7472 L10.1256,4.5752 L9.8856,4.7472 C9.87181273,4.75688632 9.8534338,4.75689405 9.83963838,4.74721934 C9.82584296,4.73754463 9.81958956,4.72026227 9.824,4.704 L9.9224,4.424 L9.6824,4.2472 C9.66929454,4.23669681 9.66414594,4.21912542 9.66951059,4.20321031 C9.67487523,4.1872952 9.68961047,4.17642622 9.7064,4.176 L10.0016,4.176 L10.0968,3.8944 C10.0998227,3.87892712 10.1131967,3.86763655 10.1289574,3.86725214 C10.1447181,3.86686774 10.1586266,3.87749288 10.1624,3.8928 Z M10.1624,5.352 L10.2576,5.6336 L10.5528,5.6336 C10.5695895,5.63402622 10.5843248,5.6448952 10.5896894,5.66081031 C10.5950541,5.67672542 10.5899055,5.69429681 10.5768,5.7048 L10.3368,5.8816 L10.4272,6.1632 C10.4327846,6.179685 10.4268305,6.19787821 10.4125803,6.20787188 C10.39833,6.21786556 10.3791967,6.21726611 10.3656,6.2064 L10.1256,6.0344 L9.8856,6.2064 C9.87181273,6.21608632 9.8534338,6.21609405 9.83963838,6.20641934 C9.82584296,6.19674463 9.81958956,6.17946227 9.824,6.1632 L9.9144,5.8816 L9.6744,5.7048 C9.66129454,5.69429681 9.65614594,5.67672542 9.66151059,5.66081031 C9.66687523,5.6448952 9.68161047,5.63402622 9.6984,5.6336 L9.9936,5.6336 L10.0888,5.352 C10.1032,5.3192 10.156,5.3192 10.1624,5.352 Z M10.1624,6.8168 L10.2576,7.0984 L10.5528,7.0984 C10.5695895,7.09882622 10.5843248,7.1096952 10.5896894,7.12561031 C10.5950541,7.14152542 10.5899055,7.15909681 10.5768,7.1696 L10.3368,7.3464 L10.4272,7.628 C10.4327846,7.644485 10.4268305,7.66267821 10.4125803,7.67267188 C10.39833,7.68266556 10.3791967,7.68206611 10.3656,7.6712 L10.1256,7.4992 L9.8856,7.6712 C9.87181273,7.68088632 9.8534338,7.68089405 9.83963838,7.67121934 C9.82584296,7.66154463 9.81958956,7.64426227 9.824,7.628 L9.9224,7.348 L9.6824,7.1712 C9.66929454,7.16069681 9.66414594,7.14312542 9.66951059,7.12721031 C9.67487523,7.1112952 9.68961047,7.10042622 9.7064,7.1 L10.0016,7.1 L10.0968,6.8184 C10.0998227,6.80292712 10.1131967,6.79163655 10.1289574,6.79125214 C10.1447181,6.79086774 10.1586266,6.80149288 10.1624,6.8168 Z" id="star" fill="#F5F5F5" fill-rule="nonzero"></path>
            <rect id="border" stroke-opacity="0.04" stroke="#000000" x="0.5" y="0.5" width="23" height="15" rx="2"></rect>
        </g>
    </g>
</svg>
