<svg xmlns="http://www.w3.org/2000/svg" fill="#000000" viewBox="0 0 24 16" width="64" height="64" role="img" id="selected_downloadable_icon_id"><path fill="#20BD42" d="M0 12h24v2a2 2 0 0 1-2 2H2a2 2 0 0 1-2-2z"></path><path fill="#D4112A" d="M24 11H0v1h24z"></path><path fill="#fff" d="M24 5H0v6h24z"></path><path fill="#D4112A" d="M24 4H0v1h24z"></path><path fill="#02A3BD" d="M2 0h20a2 2 0 0 1 2 2v2H0V2a2 2 0 0 1 2-2"></path><path fill="#fff" fill-rule="evenodd" d="M5 3.915a1.5 1.5 0 1 1 0-2.83 1.5 1.5 0 0 0 0 2.83" clip-rule="evenodd"></path><path fill="#78CDDB" fill-rule="evenodd" d="M6 2h1v1H6zm1-1h1v1H7zm1 1h1v1H8zm1-1h1v1H9zm1 1h1v1h-1zM9 3h1v1H9zM7 3h1v1H7z" clip-rule="evenodd"></path><path fill="#000" fill-opacity="0.08" fill-rule="evenodd" d="M22 1H2a1 1 0 0 0-1 1v12a1 1 0 0 0 1 1h20a1 1 0 0 0 1-1V2a1 1 0 0 0-1-1M2 0a2 2 0 0 0-2 2v12a2 2 0 0 0 2 2h20a2 2 0 0 0 2-2V2a2 2 0 0 0-2-2z" clip-rule="evenodd"></path></svg>