<svg xmlns="http://www.w3.org/2000/svg" width="32" height="32" viewBox="0 0 32 32">
    <g stroke="none" fill="none" fill-rule="evenodd">
        <path d="M4 4h24v24H4z"/>
        <path fill="#33B57B" fill-rule="nonzero" d="M10 6c-1.1 0-1.99.9-1.99 2L8 24c0 1.1.89 2 1.99 2H22c1.1 0 2-.9 2-2V12l-6-6h-8zm7 7V7.5l5.5 5.5H17z"/>
        <path fill="#FFF" d="M14.087 19.65c-.03.419-.18.748-.451.989-.271.24-.63.361-1.073.361-.485 0-.867-.168-1.146-.504-.278-.336-.417-.797-.417-1.384v-.238c0-.374.064-.704.192-.989.129-.285.312-.504.55-.656.239-.153.516-.229.831-.229.437 0 .79.12 1.056.361.267.24.422.578.463 1.013h-.78c-.019-.251-.087-.433-.204-.546-.117-.114-.295-.17-.535-.17-.26 0-.454.096-.583.287-.13.192-.196.489-.2.892v.294c0 .42.063.728.187.922.124.195.32.292.586.292.241 0 .421-.057.54-.17.119-.113.187-.288.204-.525h.78zm2.476.275a.416.416 0 0 0-.156-.349c-.104-.08-.291-.166-.562-.256a3.92 3.92 0 0 1-.642-.267c-.43-.238-.645-.56-.645-.965 0-.21.058-.398.173-.563.115-.164.28-.293.497-.386.215-.093.458-.139.726-.139.271 0 .512.05.724.151.211.1.375.243.492.427.117.183.176.392.176.625h-.78a.532.532 0 0 0-.164-.416c-.11-.098-.263-.148-.46-.148-.191 0-.34.041-.445.124a.396.396 0 0 0-.159.328c0 .126.062.233.186.318.124.086.307.166.548.24.443.138.767.308.97.511.202.204.304.457.304.76 0 .337-.124.6-.372.793-.248.191-.582.287-1.001.287-.292 0-.557-.055-.796-.164-.24-.11-.422-.26-.548-.451a1.177 1.177 0 0 1-.188-.663h.783c0 .43.25.644.749.644.185 0 .33-.038.434-.116a.382.382 0 0 0 .156-.325zm2.71.056l.858-2.928H21l-1.319 3.894h-.814l-1.313-3.894h.866l.853 2.928z"/>
    </g>
</svg>
