<svg xmlns="http://www.w3.org/2000/svg" width="32" height="32" viewBox="0 0 32 32">
    <g fill-rule="evenodd">
        <path fill="#4B8FFF" d="M10 6c-1.1 0-1.99.9-1.99 2L8 24c0 1.1.89 2 1.99 2H22c1.1 0 2-.9 2-2V12l-6-6h-8zm7 7V7.5l5.5 5.5H17z"/>
        <path fill="#FFF" d="M11.766 19.575v1.372H11v-3.894h1.45c.278 0 .524.054.736.16.211.108.374.26.488.457.114.197.171.42.171.672 0 .382-.124.683-.374.903-.249.22-.594.33-1.034.33h-.671zm0-.65h.683c.203 0 .357-.05.463-.15.107-.1.16-.242.16-.427a.66.66 0 0 0-.16-.463.586.586 0 0 0-.445-.182h-.701v1.222zm5.626 2.022h-.766l-1.49-2.562v2.562h-.765v-3.894h.765l1.493 2.567v-2.567h.763v3.894zM21 20.455a1.326 1.326 0 0 1-.584.402c-.252.095-.531.143-.837.143-.322 0-.604-.074-.846-.22a1.447 1.447 0 0 1-.562-.641c-.131-.28-.199-.609-.202-.987v-.264c0-.389.062-.725.187-1.01.125-.284.306-.501.541-.652.236-.15.512-.226.828-.226.44 0 .785.11 1.034.33.248.22.395.54.441.961h-.745c-.034-.222-.11-.385-.226-.489-.116-.103-.277-.155-.48-.155a.67.67 0 0 0-.595.308c-.137.205-.205.51-.207.914v.249c0 .408.074.716.222.925.148.208.365.313.65.313.288 0 .493-.065.615-.193v-.671h-.696v-.59H21v1.553z"/>
    </g>
</svg>
