<?xml version="1.0" encoding="UTF-8"?>
<svg width="16px" height="16px" viewBox="0 0 16 16" version="1.1" xmlns="http://www.w3.org/2000/svg" xmlns:xlink="http://www.w3.org/1999/xlink">
    <!-- Generator: Sketch 49 (51002) - http://www.bohemiancoding.com/sketch -->
    <title>icons/system/light/sidebar/commodities/ic-commodities-active</title>
    <desc>Created with Sketch.</desc>
    <defs></defs>
    <g id="icons/system/light/sidebar/commodities/ic-commodities-active" stroke="none" stroke-width="1" fill="none" fill-rule="evenodd">
        <circle id="Oval" fill="#4C5794" cx="8" cy="8" r="8"></circle>
        <g id="Group" transform="translate(2.000000, 4.000000)" fill="#FFFFFF">
            <path d="M5.26333364,-2.77555756e-16 L6.72814988,-6.66133815e-16 C6.89532647,-8.453263e-16 7.05144214,0.0835505677 7.14417503,0.222649902 L8.47750836,2.2226499 C8.63068459,2.45241425 8.56859766,2.76284892 8.33883331,2.91602515 C8.25669955,2.97078099 8.16019571,3 8.06148321,3 L3.93000031,3 C3.65385793,3 3.43000031,2.77614237 3.43000031,2.5 C3.43000031,2.40128751 3.45921932,2.30478366 3.51397516,2.2226499 L4.84730849,0.222649902 C4.94004138,0.0835505677 5.09615704,-3.02357065e-16 5.26333364,-3.33066907e-16 Z M8.26333364,4 L9.72814988,4 C9.89532647,4 10.0514421,4.08355057 10.144175,4.2226499 L11.4775084,6.2226499 C11.6306846,6.45241425 11.5685977,6.76284892 11.3388333,6.91602515 C11.2566996,6.97078099 11.1601957,7 11.0614832,7 L6.93000031,7 C6.65385793,7 6.43000031,6.77614237 6.43000031,6.5 C6.43000031,6.40128751 6.45921932,6.30478366 6.51397516,6.2226499 L7.84730849,4.2226499 C7.94004138,4.08355057 8.09615704,4 8.26333364,4 Z M2.26333364,4 L3.72814988,4 C3.89532647,4 4.05144214,4.08355057 4.14417503,4.2226499 L5.47750836,6.2226499 C5.63068459,6.45241425 5.56859766,6.76284892 5.33883331,6.91602515 C5.25669955,6.97078099 5.16019571,7 5.06148321,7 L0.930000305,7 C0.65385793,7 0.430000305,6.77614237 0.430000305,6.5 C0.430000305,6.40128751 0.459219319,6.30478366 0.513975158,6.2226499 L1.84730849,4.2226499 C1.94004138,4.08355057 2.09615704,4 2.26333364,4 Z" id="Combined-Shape"></path>
        </g>
    </g>
</svg>