<svg xmlns="http://www.w3.org/2000/svg" width="32" height="16" viewBox="0 0 32 16">
    <g fill="#F44336" fill-rule="evenodd">
        <path fill-rule="nonzero" d="M2 1a1 1 0 0 0-1 1v12a1 1 0 0 0 1 1h28a1 1 0 0 0 1-1V2a1 1 0 0 0-1-1H2zm0-1h28a2 2 0 0 1 2 2v12a2 2 0 0 1-2 2H2a2 2 0 0 1-2-2V2a2 2 0 0 1 2-2z"/>
        <path d="M8.514 8.65c-.033.419-.205.748-.513.989-.31.24-.716.361-1.222.361-.552 0-.987-.168-1.304-.504C5.158 9.16 5 8.699 5 8.112v-.238c0-.374.073-.704.22-.989.145-.285.354-.504.625-.656A1.9 1.9 0 0 1 6.791 6c.498 0 .898.12 1.202.361.304.24.48.578.527 1.013h-.888c-.022-.251-.1-.433-.232-.546-.134-.114-.336-.17-.609-.17-.296 0-.517.096-.665.287-.147.192-.222.489-.226.892v.294c0 .42.07.728.212.922.14.195.363.292.667.292.275 0 .48-.057.615-.17.135-.113.212-.288.232-.525h.888zm1.472.652h1.885v.645H9.097V6.053h.889v3.25zm5.936-1.214c0 .383-.075.72-.225 1.008a1.59 1.59 0 0 1-.644.669c-.28.157-.6.235-.961.235-.357 0-.676-.078-.956-.233a1.61 1.61 0 0 1-.652-.664 2.098 2.098 0 0 1-.234-.993v-.193c0-.383.077-.72.23-1.012.153-.291.369-.515.648-.671A1.93 1.93 0 0 1 14.086 6c.36 0 .678.078.958.234.279.156.495.38.648.671.153.292.23.628.23 1.01v.173zm-.9-.176c0-.408-.081-.719-.243-.93-.162-.213-.393-.319-.693-.319-.298 0-.528.105-.69.314-.162.21-.244.517-.246.921v.19c0 .398.081.706.243.925.162.22.395.33.699.33.298 0 .527-.106.687-.318.16-.21.24-.519.243-.923v-.19zm3.78 1.013a.397.397 0 0 0-.177-.349c-.119-.08-.332-.166-.64-.256a4.822 4.822 0 0 1-.731-.267c-.49-.238-.734-.56-.734-.965a.88.88 0 0 1 .196-.563c.132-.164.32-.293.566-.386A2.33 2.33 0 0 1 18.109 6c.308 0 .583.05.823.151.241.1.428.243.561.427.134.183.2.392.2.625h-.888a.501.501 0 0 0-.186-.416c-.125-.098-.3-.148-.524-.148-.218 0-.386.041-.507.124a.38.38 0 0 0-.18.328c0 .126.07.233.211.318.142.086.35.166.624.24.505.138.873.308 1.104.511a.97.97 0 0 1 .346.76.908.908 0 0 1-.423.793c-.282.191-.662.287-1.14.287-.331 0-.633-.055-.906-.164-.272-.11-.48-.26-.623-.451a1.075 1.075 0 0 1-.215-.663h.891c0 .43.285.644.853.644.211 0 .376-.038.495-.116a.368.368 0 0 0 .177-.325zm4.086-.666h-1.706v1.043h2.002v.645h-2.89V6.053h2.884v.65h-1.996v.928h1.706v.628zm.817 1.688V6.053h1.326c.38 0 .718.078 1.017.232a1.7 1.7 0 0 1 .7.658c.168.284.252.607.252.969v.179c0 .362-.082.684-.247.965-.165.282-.397.5-.697.655-.3.155-.639.234-1.016.236h-1.335zm.888-3.244v2.6h.43c.347 0 .612-.103.796-.308.183-.205.277-.499.281-.88v-.206c0-.396-.09-.696-.272-.9-.182-.204-.447-.306-.797-.306h-.438z"/>
    </g>
</svg>
