<?xml version="1.0" encoding="UTF-8"?>
<svg width="32px" height="32px" viewBox="0 0 32 32" version="1.1" xmlns="http://www.w3.org/2000/svg" xmlns:xlink="http://www.w3.org/1999/xlink">
    <!-- Generator: Sketch 49.1 (51147) - http://www.bohemiancoding.com/sketch -->
    <title>icons/underlying assets/smart fx/placeholder/ic-smartfx-placeholder</title>
    <desc>Created with Sketch.</desc>
    <defs></defs>
    <g id="icons/underlying-assets/smart-fx/placeholder/ic-smartfx-placeholder" stroke="none" stroke-width="1" fill="none" fill-rule="evenodd">
        <rect id="container" fill="#D8D8D8" opacity="0" x="0" y="0" width="32" height="32"></rect>
        <g id="Group-2" transform="translate(5.000000, 6.000000)">
            <rect id="Rectangle-2" fill="#6E7287" x="3" y="8" width="16" height="10"></rect>
            <path d="M2,18 L20,18 C20.5522847,18 21,18.4477153 21,19 L1,19 L1,19 C1,18.4477153 1.44771525,18 2,18 Z" id="Rectangle" fill="#D2D3DA"></path>
            <path d="M1,8 L21,8 L21,8 C21,8.55228475 20.5522847,9 20,9 L2,9 C1.44771525,9 1,8.55228475 1,8 Z" id="Rectangle-Copy-2" fill="#D2D3DA"></path>
            <rect id="Rectangle-Copy" fill="#B0B3BF" x="0" y="19" width="22" height="1" rx="0.5"></rect>
            <g id="pillar" transform="translate(2.000000, 9.000000)">
                <rect id="body" fill="#B0B3BF" x="0.25" y="0" width="1.5" height="9"></rect>
                <path d="M0.333,8 L1.667,8 C1.85091082,8 2,8.14908918 2,8.333 L2,9 L0,9 L0,8.333 C-2.25225799e-17,8.14908918 0.149089178,8 0.333,8 Z" id="bottom" fill="#E9E9ED"></path>
                <path d="M0,0 L2,0 L2,0.667 C2,0.850910822 1.85091082,1 1.667,1 L0.333,1 C0.149089178,1 -3.29885713e-17,0.850910822 -5.55111512e-17,0.667 L0,0 Z" id="top" fill="#E9E9ED"></path>
            </g>
            <g id="pillar-copy" transform="translate(7.000000, 9.000000)">
                <rect id="body" fill="#B0B3BF" x="0.25" y="0" width="1.5" height="9"></rect>
                <path d="M0.333,8 L1.667,8 C1.85091082,8 2,8.14908918 2,8.333 L2,9 L0,9 L0,8.333 C-2.25225799e-17,8.14908918 0.149089178,8 0.333,8 Z" id="bottom" fill="#E9E9ED"></path>
                <path d="M0,0 L2,0 L2,0.667 C2,0.850910822 1.85091082,1 1.667,1 L0.333,1 C0.149089178,1 -3.29885713e-17,0.850910822 -5.55111512e-17,0.667 L0,0 Z" id="top" fill="#E9E9ED"></path>
            </g>
            <g id="pillar-copy-2" transform="translate(13.000000, 9.000000)">
                <rect id="body" fill="#B0B3BF" x="0.25" y="0" width="1.5" height="9"></rect>
                <path d="M0.333,8 L1.667,8 C1.85091082,8 2,8.14908918 2,8.333 L2,9 L0,9 L0,8.333 C-2.25225799e-17,8.14908918 0.149089178,8 0.333,8 Z" id="bottom" fill="#E9E9ED"></path>
                <path d="M0,0 L2,0 L2,0.667 C2,0.850910822 1.85091082,1 1.667,1 L0.333,1 C0.149089178,1 -3.29885713e-17,0.850910822 -5.55111512e-17,0.667 L0,0 Z" id="top" fill="#E9E9ED"></path>
            </g>
            <g id="pillar-copy-3" transform="translate(18.000000, 9.000000)">
                <rect id="body" fill="#B0B3BF" x="0.25" y="0" width="1.5" height="9"></rect>
                <path d="M0.333,8 L1.667,8 C1.85091082,8 2,8.14908918 2,8.333 L2,9 L0,9 L0,8.333 C-2.25225799e-17,8.14908918 0.149089178,8 0.333,8 Z" id="bottom" fill="#E9E9ED"></path>
                <path d="M0,0 L2,0 L2,0.667 C2,0.850910822 1.85091082,1 1.667,1 L0.333,1 C0.149089178,1 -3.29885713e-17,0.850910822 -5.55111512e-17,0.667 L0,0 Z" id="top" fill="#E9E9ED"></path>
            </g>
            <polygon id="Path-36" stroke="#B0B3BF" fill="#F4F4F6" stroke-linecap="round" stroke-linejoin="round" points="0.5 7.5 21.5 7.5 11 0.5"></polygon>
            <circle id="Oval-2" fill="#B0B3BF" cx="11" cy="4" r="1"></circle>
        </g>
    </g>
</svg>