<svg xmlns="http://www.w3.org/2000/svg" width="25" height="24" viewBox="0 0 25 24">
    <g fill="none" fill-rule="evenodd">
        <path d="M0 0h24v24H0z"/>
        <path fill="#85ACB0" fill-rule="nonzero" d="M2.072 13.371c.187.47.551 1.125 1.122 1.784C4.182 16.295 5.452 17 7 17c2.297 0 3.391-1.296 5.382-5.03C13.992 8.955 14.797 8 16 8c1.388 0 2.418.87 3.175 2.435.284.589.504 1.229.664 1.87.096.383.15.675.17.827a1 1 0 1 0 1.982-.264c-.03-.223-.096-.587-.211-1.048a11.737 11.737 0 0 0-.805-2.255C19.92 7.379 18.287 6 16 6c-2.297 0-3.391 1.296-5.382 5.03C9.008 14.045 8.203 15 7 15c-.902 0-1.657-.42-2.294-1.155a5.115 5.115 0 0 1-.778-1.216 1 1 0 0 0-1.856.742z"/>
    </g>
</svg>
