<svg xmlns="http://www.w3.org/2000/svg" width="25" height="24" viewBox="0 0 25 24">
    <g fill="none" fill-rule="evenodd">
        <path d="M0 0h24v24H0z"/>
        <path fill="#85ACB0" fill-rule="nonzero" d="M20.19 2.415a1 1 0 1 1 1.62 1.17l-7.393 10.237 3.86 5.791 2.168-1.445a1 1 0 1 1 1.11 1.664l-3 2a1 1 0 0 1-1.387-.277l-4.001-6.003-4.356 6.033a1 1 0 0 1-1.26.309l-.106-.062-2.318-1.545-1.42 1.42a1 1 0 1 1-1.414-1.414l2-2a1 1 0 0 1 1.262-.125l2.198 1.466 4.23-5.858L5.952 4.73 3.8 7.6a1 1 0 1 1-1.6-1.2l3-4a1 1 0 0 1 1.632.045l6.4 9.6z"/>
        <path fill="#FF444F" fill-rule="nonzero" d="M6.27 12.144l11.414 3.805A1 1 0 0 0 18.8 15.6l3-4a1 1 0 0 0-1.6-1.2l-2.568 3.423-11.316-3.772a1 1 0 0 0-1.023.242l-3 3a1 1 0 0 0 1.414 1.414l2.563-2.563z"/>
    </g>
</svg>
