<svg xmlns="http://www.w3.org/2000/svg" width="25" height="24" viewBox="0 0 25 24">
    <g fill="none" fill-rule="evenodd">
        <path d="M0 0h24v24H0z"/>
        <path fill="#85ACB0" fill-rule="nonzero" d="M12.751 8.654l3.169 2.376a1 1 0 0 0 1.45-.273l4.48-7.23a1 1 0 0 0-1.7-1.054l-3.904 6.301L13.12 6.43a1 1 0 0 0-1.423.231l-9.52 13.77a1 1 0 1 0 1.646 1.138L12.75 8.654z"/>
        <path fill="#FF444F" fill-rule="nonzero" d="M5.845 7.57l9.323 13.985a1 1 0 0 0 1.54.152l5-5a1 1 0 0 0-1.415-1.414l-4.138 4.137L6.832 5.445a1 1 0 0 0-1.54-.152l-3 3a1 1 0 0 0 1.415 1.414L5.845 7.57z"/>
    </g>
</svg>
