<svg xmlns="http://www.w3.org/2000/svg" width="25" height="24" viewBox="0 0 25 24">
    <g fill="none" fill-rule="evenodd">
        <path d="M0 0h24v24H0z"/>
        <path fill="#85ACB0" fill-rule="nonzero" d="M20.419 15.186a1 1 0 1 1 1.162 1.628l-7 5a1 1 0 0 1-1.221-.046L8.06 17.353l-4.354 4.354a1 1 0 1 1-1.414-1.414l5-5a1 1 0 0 1 1.347-.061l5.407 4.505zM7.293 2.293a1 1 0 0 1 1.466.056l5.297 6.18 6.237-6.236a1 1 0 0 1 1.414 1.414l-7 7a1 1 0 0 1-1.466-.056L7.944 4.47 3.707 8.707a1 1 0 0 1-1.414-1.414z"/>
        <path fill="#D6DADB" fill-rule="nonzero" d="M3 14h18a1 1 0 0 0 0-2H3a1 1 0 0 0 0 2z"/>
    </g>
</svg>
