<svg xmlns="http://www.w3.org/2000/svg" width="25" height="24" viewBox="0 0 25 24">
    <g fill="none" fill-rule="evenodd">
        <path d="M0 0h24v24H0z"/>
        <path fill="#85ACB0" fill-rule="nonzero" d="M3.415 7.91A21.19 21.19 0 0 1 12.009 6c2.949.028 5.877.679 8.576 1.91a1 1 0 1 0 .83-1.82A23.19 23.19 0 0 0 12.009 4c-3.265.03-6.47.743-9.424 2.09a1 1 0 1 0 .83 1.82z"/>
        <path fill="#FF444F" fill-rule="nonzero" d="M3.415 13.91A21.19 21.19 0 0 1 12.009 12c2.949.028 5.877.679 8.576 1.91a1 1 0 1 0 .83-1.82A23.19 23.19 0 0 0 12.009 10c-3.265.03-6.47.743-9.424 2.09a1 1 0 1 0 .83 1.82z"/>
        <path fill="#FF6444" fill-rule="nonzero" d="M3.415 19.91A21.19 21.19 0 0 1 12.009 18c2.949.028 5.877.679 8.576 1.91a1 1 0 1 0 .83-1.82A23.19 23.19 0 0 0 12.009 16c-3.265.03-6.47.743-9.424 2.09a1 1 0 1 0 .83 1.82z"/>
    </g>
</svg>
