<svg xmlns="http://www.w3.org/2000/svg" width="25" height="24" viewBox="0 0 25 24">
    <g fill="none" fill-rule="evenodd">
        <path d="M0 0h24v24H0z"/>
        <path fill="#85ACB0" fill-rule="nonzero" d="M5.38 8.64l1.65 6.603c.216.864 1.37 1.035 1.827.271l1.882-3.135 2.312 6.937c.304.912 1.594.912 1.898 0l2.396-7.19L19.2 14.6c.55.733 1.713.403 1.796-.51l1-11a1 1 0 0 0-1.992-.18l-.764 8.41L17.8 9.4a1 1 0 0 0-1.749.284L14 15.838l-2.051-6.154a1 1 0 0 0-1.806-.198l-1.758 2.93L5.97 2.756c-.27-1.081-1.84-.976-1.964.133l-2 18a1 1 0 1 0 1.988.22L5.379 8.64z"/>
    </g>
</svg>
