<?xml version="1.0" encoding="UTF-8"?>
<svg width="24px" height="24px" viewBox="0 0 24 24" version="1.1" xmlns="http://www.w3.org/2000/svg" xmlns:xlink="http://www.w3.org/1999/xlink">
    <!-- Generator: Sketch 48.2 (47327) - http://www.bohemiancoding.com/sketch -->
    <title>icons/system/binary/chart settings/indicators/ic-indicator-active-light</title>
    <desc>Created with Sketch.</desc>
    <defs></defs>
    <g id="Symbols" stroke="none" stroke-width="1" fill="none" fill-rule="evenodd">
        <g id="icons/system/binary/chart-settings/indicators/ic-indicator-active-light">
            <g id="vector">
                <rect id="Rectangle-4" fill="#E4E6F1" x="0" y="0" width="24" height="24" rx="2"></rect>
                <g id="Group" transform="translate(5.000000, 8.000000)" fill="#293055">
                    <rect id="Rectangle-3" x="0" y="3" width="2" height="8"></rect>
                    <rect id="Rectangle-3-Copy" x="3" y="0" width="2" height="11"></rect>
                    <rect id="Rectangle-3-Copy-2" x="6" y="3" width="2" height="8"></rect>
                    <rect id="Rectangle-3-Copy-3" x="9" y="6" width="2" height="5"></rect>
                    <rect id="Rectangle-3-Copy-4" x="12" y="3" width="2" height="8"></rect>
                </g>
                <polygon id="Path-3" fill="#293055" fill-rule="nonzero" points="9 5.70710678 15 11.7071068 18.8535534 7.85355339 18.1464466 7.14644661 15 10.2928932 9 4.29289322 5.14644661 8.14644661 5.85355339 8.85355339"></polygon>
                <circle id="Oval" fill="#2A3052" cx="6" cy="8" r="1"></circle>
                <circle id="Oval-Copy" fill="#2A3052" cx="9" cy="5" r="1"></circle>
                <circle id="Oval-Copy-2" fill="#2A3052" cx="12" cy="8" r="1"></circle>
                <circle id="Oval-Copy-3" fill="#2A3052" cx="15" cy="11" r="1"></circle>
                <circle id="Oval-Copy-4" fill="#2A3052" cx="18" cy="8" r="1"></circle>
            </g>
            <g id="ic-indicator-active-light">
                <rect id="Rectangle-4" fill="#E4E6F1" x="0" y="0" width="24" height="24" rx="2"></rect>
                <path d="M17.0338716,8.2590216 C17.0117786,8.17640828 17,8.08957966 17,8 C17,7.44771525 17.4477153,7 18,7 C18.5522847,7 19,7.44771525 19,8 C19,8.55228475 18.5522847,9 18,9 C17.9104203,9 17.8235917,8.98822137 17.7409784,8.96612838 L15.9661284,10.7409784 C15.9882214,10.8235917 16,10.9104203 16,11 C16,11.5522847 15.5522847,12 15,12 C14.4477153,12 14,11.5522847 14,11 C14,10.9104203 14.0117786,10.8235917 14.0338716,10.7409784 L12.2590216,8.96612838 C12.1764083,8.98822137 12.0895797,9 12,9 C11.4477153,9 11,8.55228475 11,8 C11,7.91042034 11.0117786,7.82359172 11.0338716,7.7409784 L9.2590216,5.96612838 C9.17640828,5.98822137 9.08957966,6 9,6 C8.91042034,6 8.82359172,5.98822137 8.7409784,5.96612838 L6.96612838,7.7409784 C6.98822137,7.82359172 7,7.91042034 7,8 C7,8.55228475 6.55228475,9 6,9 C5.44771525,9 5,8.55228475 5,8 C5,7.44771525 5.44771525,7 6,7 C6.08957966,7 6.17640828,7.01177863 6.2590216,7.03387162 L8.03387162,5.2590216 C8.01177863,5.17640828 8,5.08957966 8,5 C8,4.44771525 8.44771525,4 9,4 C9.55228475,4 10,4.44771525 10,5 C10,5.08957966 9.98822137,5.17640828 9.96612838,5.2590216 L11.7409784,7.03387162 C11.8235917,7.01177863 11.9104203,7 12,7 C12.5522847,7 13,7.44771525 13,8 C13,8.08957966 12.9882214,8.17640828 12.9661284,8.2590216 L14.7409784,10.0338716 C14.8235917,10.0117786 14.9104203,10 15,10 C15.0895797,10 15.1764083,10.0117786 15.2590216,10.0338716 L17.0338716,8.2590216 Z M5,11 L7,11 L7,19 L5,19 L5,11 Z M8,8 L10,8 L10,19 L8,19 L8,8 Z M11,11 L13,11 L13,19 L11,19 L11,11 Z M14,14 L16,14 L16,19 L14,19 L14,14 Z M17,11 L19,11 L19,19 L17,19 L17,11 Z" id="Combined-Shape" fill="#293055"></path>
            </g>
        </g>
    </g>
</svg>