<?xml version="1.0" encoding="UTF-8"?>
<svg width="24px" height="24px" viewBox="0 0 24 24" version="1.1" xmlns="http://www.w3.org/2000/svg" xmlns:xlink="http://www.w3.org/1999/xlink">
    <!-- Generator: Sketch 48.2 (47327) - http://www.bohemiancoding.com/sketch -->
    <title>icons/system/binary/chart settings/indicators/ic-indicator-normal-light</title>
    <desc>Created with Sketch.</desc>
    <defs></defs>
    <g id="Symbols" stroke="none" stroke-width="1" fill="none" fill-rule="evenodd">
        <g id="icons/system/binary/chart-settings/indicators/ic-indicator-normal-light">
            <g id="ic-indicator-normal-light">
                <rect id="Rectangle-4" x="0" y="0" width="24" height="24" rx="2"></rect>
                <path d="M17.0330983,8.25611218 C17.0115039,8.17437054 17,8.08852871 17,8 C17,7.44771525 17.4477153,7 18,7 C18.5522847,7 19,7.44771525 19,8 C19,8.55228475 18.5522847,9 18,9 C17.9093719,9 17.8215596,8.98794404 17.7380793,8.96534839 L15.9659288,10.7402333 C15.9881504,10.8230696 16,10.910151 16,11 C16,11.5522847 15.5522847,12 15,12 C14.4477153,12 14,11.5522847 14,11 C14,10.9104203 14.0117786,10.8235917 14.0338716,10.7409784 L12.2590216,8.96612838 C12.1764083,8.98822137 12.0895797,9 12,9 C11.4477153,9 11,8.55228475 11,8 C11,7.91042034 11.0117786,7.82359172 11.0338716,7.7409784 L9.2590216,5.96612838 C9.17640828,5.98822137 9.08957966,6 9,6 C8.91042034,6 8.82359172,5.98822137 8.7409784,5.96612838 L6.96612838,7.7409784 C6.98822137,7.82359172 7,7.91042034 7,8 C7,8.55228475 6.55228475,9 6,9 C5.44771525,9 5,8.55228475 5,8 C5,7.44771525 5.44771525,7 6,7 C6.08957966,7 6.17640828,7.01177863 6.2590216,7.03387162 L8.03387162,5.2590216 C8.01177863,5.17640828 8,5.08957966 8,5 C8,4.44771525 8.44771525,4 9,4 C9.55228475,4 10,4.44771525 10,5 C10,5.08957966 9.98822137,5.17640828 9.96612838,5.2590216 L11.7409784,7.03387162 C11.8235917,7.01177863 11.9104203,7 12,7 C12.5522847,7 13,7.44771525 13,8 C13,8.08957966 12.9882214,8.17640828 12.9661284,8.2590216 L14.7409784,10.0338716 C14.8235917,10.0117786 14.9104203,10 15,10 C15.0893103,10 15.1758862,10.0117079 15.2582763,10.0336726 L17.0330983,8.25611218 Z M5,11 L7,11 L7,19 L5,19 L5,11 Z M8,8 L10,8 L10,19 L8,19 L8,8 Z M11,11 L13,11 L13,19 L11,19 L11,11 Z M14,14 L16,14 L16,19 L14,19 L14,14 Z M17,11 L19,11 L19,19 L17,19 L17,11 Z" id="Combined-Shape" fill="#293055"></path>
            </g>
        </g>
    </g>
</svg>