<svg xmlns="http://www.w3.org/2000/svg" width="25" height="24" viewBox="0 0 25 24">
    <g fill="none" fill-rule="evenodd">
        <path d="M0 0h24v24H0z"/>
        <path fill="#85ACB0" fill-rule="nonzero" d="M9.976 17.651l2.122 2.122-2.122 2.12-2.12-2.12 2.12-2.122zm3.18-3.187l2.122 2.121-2.122 2.122-2.12-2.122 2.12-2.12zm3.18-3.177l2.122 2.121-2.122 2.121-2.12-2.12 2.12-2.122zm-5.157-.727l2.122 2.122-2.122 2.12-2.121-2.12 2.121-2.122zm8.347-2.45l2.122 2.121-2.122 2.121-2.12-2.121 2.12-2.121zM8 7.383l2.122 2.121-2.122 2.122-2.121-2.122 2.121-2.121zM4.82 4.196l2.122 2.121-2.122 2.121-2.121-2.12 2.121-2.122z"/>
    </g>
</svg>
