<svg xmlns="http://www.w3.org/2000/svg" width="25" height="24" viewBox="0 0 25 24">
    <g fill="none" fill-rule="evenodd">
        <path d="M0 0H24V24H0z" transform="translate(1)"/>
        <path fill="#FF1D25" fill-rule="nonzero" d="M7.318 1.446c.42-.63 1.343-.576 1.7.058l.055.111 7.505 17.996 5.665 1.419c.497.125.814.602.749 1.098l-.022.115c-.125.497-.602.814-1.098.749l-.115-.022-6.15-1.54c-.268-.067-.494-.242-.628-.48l-.052-.105L7.946 4.108l-5.114 7.676c-.284.427-.84.565-1.286.337l-.1-.059c-.427-.284-.565-.84-.337-1.286l.059-.1 6.15-9.23z" transform="translate(1)"/>
        <path fill="#F7931E" fill-rule="nonzero" d="M7.32 3.043c.402-.6 1.275-.58 1.66 0l.063.108 7.494 14.909 5.706 1.43c.497.125.814.602.749 1.098l-.022.115c-.125.497-.602.814-1.098.749l-.115-.022-6.15-1.54c-.242-.06-.451-.209-.588-.414l-.062-.107L8.025 5.58l-5.194 7.747c-.286.426-.842.562-1.287.333l-.101-.06c-.426-.285-.562-.841-.333-1.286l.06-.101 6.15-9.17z" transform="translate(1)"/>
        <path fill="#F7931E" fill-rule="nonzero" d="M7.32 3.043c.39-.584 1.232-.584 1.633-.04l.07.11 7.55 13.52 5.874 2.932c.458.23.664.764.494 1.234l-.046.108c-.23.458-.764.664-1.234.494l-.108-.046-6.15-3.07c-.144-.072-.267-.177-.361-.306l-.065-.101L8.07 5.51l-5.24 7.816c-.286.426-.842.562-1.287.333l-.101-.06c-.426-.285-.562-.841-.333-1.286l.06-.101 6.15-9.17z" transform="translate(1)"/>
        <path fill="#F7931E" fill-rule="nonzero" d="M7.369 4.455c.404-.504 1.16-.493 1.555-.009l.074.104 7.55 12.071 5.899 2.944c.458.23.664.764.494 1.234l-.046.108c-.23.458-.764.664-1.234.494l-.108-.046-6.15-3.07c-.123-.062-.232-.148-.32-.253l-.08-.112L8.048 6.805l-5.268 6.59c-.318.398-.88.488-1.303.228l-.103-.072c-.398-.318-.488-.88-.228-1.303l.072-.103 6.15-7.69z" transform="translate(1)"/>
        <path fill="#FFC200" fill-rule="nonzero" d="M7.369 5.995c.369-.46 1.045-.498 1.463-.106l.086.09 7.565 9.069 5.964 2.977c.458.23.664.764.494 1.234l-.046.108c-.23.458-.764.664-1.234.494l-.108-.046-6.15-3.07c-.082-.041-.158-.094-.226-.155l-.095-.1L8.166 8.2l-5.385 6.735c-.318.398-.88.488-1.303.228l-.103-.072c-.398-.318-.488-.88-.228-1.303l.072-.103 6.15-7.69z" transform="translate(1)"/>
        <path fill="#FFC200" fill-rule="nonzero" d="M7.442 7.443c.33-.33.84-.385 1.23-.146l.103.072 7.675 6.14 6.15 4.61c.442.332.531.959.2 1.4-.306.409-.863.517-1.295.27l-.105-.069-6.175-4.63-7.001-5.6-5.516 5.527c-.36.36-.928.388-1.32.084l-.095-.083c-.36-.36-.388-.928-.084-1.32l.083-.095 6.15-6.16z" transform="translate(1)"/>
        <path fill="#8CC63F" fill-rule="nonzero" d="M7.442 8.983c.252-.251.615-.348.954-.262l.125.04 7.7 3.08c.055.022.107.049.157.08l.073.05 6.15 4.62c.441.331.53.958.199 1.4-.307.407-.864.514-1.296.268l-.105-.07-6.044-4.54-6.964-2.786-5.683 5.694c-.36.36-.928.388-1.32.084l-.095-.083c-.36-.36-.388-.928-.084-1.32l.083-.095 6.15-6.16z" transform="translate(1)"/>
        <path fill="#8CC63F" fill-rule="nonzero" d="M15.85 10.23c.221 0 .435.073.609.206l.099.087 6.15 6.16c.39.391.39 1.024-.001 1.415-.361.36-.928.387-1.32.082l-.095-.083-5.856-5.867H8.482l-5.881 4.42c-.408.306-.973.253-1.319-.104l-.082-.095c-.306-.408-.253-.973.104-1.319l.095-.082 6.15-4.62c.139-.104.302-.17.472-.192l.129-.008h7.7z" transform="translate(1)"/>
        <path fill="#00B9F9" fill-rule="nonzero" d="M15.479 8.762c.33-.133.702-.078.98.134l.099.087 6.15 6.16c.39.391.39 1.024-.001 1.415-.361.36-.928.387-1.32.082l-.095-.083-5.684-5.694-6.964 2.786-6.043 4.54c-.408.307-.973.254-1.319-.103l-.082-.095c-.306-.408-.253-.973.104-1.319l.095-.082 6.15-4.62c.047-.035.097-.066.15-.092l.08-.036 7.7-3.08z" transform="translate(1)"/>
        <path fill="#00B9F9" fill-rule="nonzero" d="M15.225 7.37c.399-.32.966-.284 1.322.063l.084.093 6.15 7.7c.345.431.275 1.06-.157 1.405-.398.319-.965.283-1.321-.064l-.084-.093-5.527-6.919-6.917 5.536-.177.113-6.15 3.08c-.494.247-1.095.048-1.342-.446-.23-.459-.074-1.01.345-1.284l.101-.058L7.61 13.46l7.615-6.092z" transform="translate(1)"/>
        <path fill="#0071BC" fill-rule="nonzero" d="M15.082 5.98c.378-.454 1.056-.477 1.465-.077l.084.092 6.15 7.69c.345.432.275 1.061-.156 1.406-.399.318-.965.283-1.322-.063l-.084-.093L15.833 8.2l-6.915 8.29c-.06.071-.127.133-.203.185l-.118.07-6.15 3.07c-.495.246-1.095.046-1.342-.448-.229-.46-.072-1.01.347-1.284l.101-.058 5.963-2.977 7.566-9.069z" transform="translate(1)"/>
        <path fill="#0071BC" fill-rule="nonzero" d="M15.143 7.443c.36-.36.928-.388 1.32-.083l.095.083 6.15 6.16c.39.391.39 1.024-.001 1.415-.361.36-.928.387-1.32.082l-.095-.083-5.443-5.452-6.992 6.992c-.05.05-.107.096-.167.135l-.093.053-6.15 3.07c-.495.246-1.095.046-1.342-.448-.229-.46-.072-1.01.347-1.284l.101-.058 6.002-2.996 7.588-7.586z" transform="translate(1)"/>
        <path fill="#662D91" fill-rule="nonzero" d="M15.002 4.55c.343-.548 1.096-.625 1.544-.189l.085.094 6.15 7.69c.345.432.275 1.061-.156 1.406-.399.318-.965.283-1.322-.063l-.084-.093-5.269-6.59L8.998 17.92c-.073.117-.17.218-.283.295l-.118.07-6.15 3.07c-.495.246-1.095.046-1.342-.448-.229-.46-.072-1.01.347-1.284l.101-.058 5.898-2.944L15.002 4.55z" transform="translate(1)"/>
        <path fill="#C105C6" fill-rule="nonzero" d="M14.956 3.092c.307-.614 1.116-.733 1.59-.27l.085.093 6.15 7.69c.345.432.275 1.061-.156 1.406-.399.318-.965.283-1.322-.063l-.084-.093-5.174-6.471-7 13.984c-.078.154-.194.285-.336.381l-.111.065-6.15 3.08c-.494.247-1.095.048-1.342-.446-.23-.459-.074-1.01.345-1.284l.101-.058 5.852-2.932 7.552-15.082z" transform="translate(1)"/>
    </g>
</svg>
