<svg xmlns="http://www.w3.org/2000/svg" width="25" height="24" viewBox="0 0 25 24">
    <g fill="none" fill-rule="evenodd">
        <path d="M0 0h24v24H0z"/>
        <path fill="#85ACB0" fill-rule="nonzero" d="M8.236 4l2.8 10.263A1 1 0 0 0 12 15h5.34l2.74 6.394a1 1 0 1 0 1.84-.788l-3-7A1 1 0 0 0 18 13h-5.236l-2.8-10.263A1 1 0 0 0 9 2H3a1 1 0 1 0 0 2h5.236z"/>
        <path fill="#D6DADB" fill-rule="nonzero" d="M6 6a1 1 0 1 1 0 2H3a1 1 0 1 1 0-2zm15 0a1 1 0 0 1 0 2h-7a1 1 0 0 1 0-2z"/>
        <path fill="#FF444F" fill-rule="nonzero" d="M3 20h13a1 1 0 0 0 0-2H3a1 1 0 0 0 0 2z"/>
    </g>
</svg>
