<svg xmlns="http://www.w3.org/2000/svg" width="25" height="24" viewBox="0 0 25 24">
    <g fill="none" fill-rule="evenodd">
        <path d="M0 0h24v24H0z"/>
        <path fill="#D6DADB" fill-rule="nonzero" d="M21 18a1 1 0 0 1 0 2H3a1 1 0 0 1 0-2zm0-14a1 1 0 0 1 0 2H3a1 1 0 1 1 0-2z"/>
        <path fill="#FF444F" fill-rule="nonzero" d="M10.72 18.628c-.218-1.086-.35-2.356-.56-5.006l-.068-.847c-.026-.328-.047-.598-.069-.858C9.431 4.753 8.68 1.91 5.967 2.001c-2.662.088-3.57 2.95-3.542 7.504a42.31 42.31 0 0 0 .294 4.512 49.518 49.518 0 0 0 .295 2.152 1 1 0 1 0 1.972-.338 47.527 47.527 0 0 1-.28-2.042 40.376 40.376 0 0 1-.281-4.296C4.404 6.028 5.037 4.033 6.033 4c.85-.028 1.543 2.6 1.997 8.083l.069.851.067.847c.216 2.736.354 4.046.592 5.24.387 1.938.975 3.021 2.274 2.98 1.193-.039 1.909-.903 2.336-2.294.264-.858.392-1.662.625-3.586.36-2.981.708-4.11 1.04-4.12.044-.002.055.003.102.053.105.11.221.328.33.65.21.618.328 1.296.544 2.928.234 1.777.362 2.517.632 3.31.441 1.3 1.197 2.097 2.391 2.058 2.077-.066 2.792-2.582 3.015-6.948.084-1.643.073-3.39.005-5.053a54.445 54.445 0 0 0-.054-1.065 1 1 0 0 0-1.996.134c.013.189.032.538.052 1.013a54.066 54.066 0 0 1-.004 4.87c-.157 3.066-.717 5.039-1.082 5.05-.045.002-.056-.003-.103-.053-.105-.11-.221-.328-.33-.65-.21-.618-.328-1.296-.544-2.928-.234-1.777-.362-2.517-.632-3.31-.441-1.3-1.197-2.097-2.391-2.058-1.193.038-1.909.902-2.336 2.293-.264.858-.392 1.662-.625 3.586-.31 2.56-.61 3.753-.898 4.047-.136-.26-.27-.7-.39-1.299z"/>
        <path fill="#85ACB0" fill-rule="nonzero" d="M3.962 14.275a21.962 21.962 0 0 1 .34-1.032c.28-.785.604-1.57.967-2.296C6.204 9.08 7.205 8 8 8c.488 0 .907.943 1.524 3.717C10.407 15.693 10.988 17 13 17c2.32 0 3.148-1.182 3.37-3.4l.028-.295C16.51 12.098 16.561 12 17 12c.742 0 .798.056 1.051.816C18.548 14.306 19.241 15 21 15a1 1 0 0 0 0-2c-.742 0-.798-.056-1.051-.816C19.452 10.694 18.759 10 17 10c-1.883 0-2.395.985-2.593 3.12l-.027.28c-.132 1.323-.326 1.6-1.38 1.6-.488 0-.907-.943-1.524-3.717C10.593 7.307 10.012 6 8 6c-1.83 0-3.266 1.546-4.52 4.053a22.853 22.853 0 0 0-1.062 2.517 23.953 23.953 0 0 0-.38 1.155 1 1 0 1 0 1.924.55z"/>
    </g>
</svg>
