<svg xmlns="http://www.w3.org/2000/svg" width="17" height="16" viewBox="0 0 17 16">
    <path fill="#D6DADB" fill-rule="nonzero" d="M4 2l2.073 6.166L8 6l2.38.41L12 2h1.5l.5.5v11l-.28.15L12 11.5l-1.5 1-2-3-2 2-.852-1.702L2.5 14l-.5-.5V2.46L2.52 2H4z"/>
    <path fill-rule="nonzero" d="M4.5 2a.5.5 0 0 1 .488.392l1.193 5.367L8.1 5.2a.5.5 0 0 1 .54-.18l.084.033 1.442.721.849-3.395A.5.5 0 0 1 11.5 2h2a.5.5 0 1 1 0 1h-1.61l-.905 3.621a.5.5 0 0 1-.709.326L8.65 6.134l-2.184 2.91.325 1.458 1.355-1.356a.5.5 0 0 1 .77.077l1.723 2.584 1.084-.723a.5.5 0 0 1 .677.116l1.5 2a.5.5 0 0 1-.8.6l-1.216-1.622-1.107.738a.5.5 0 0 1-.693-.139l-1.662-2.492-1.568 1.569a.5.5 0 0 1-.842-.246l-.336-1.51L2.9 13.8a.5.5 0 0 1-.623.147L2.2 13.9a.5.5 0 0 1-.1-.7l3.29-4.387L4.099 3H2.5a.5.5 0 0 1 0-1z"/>
</svg>
