<svg xmlns="http://www.w3.org/2000/svg" width="25" height="24" viewBox="0 0 25 24">
    <g fill="none" fill-rule="evenodd">
        <path d="M0 0h24v24H0z"/>
        <path fill="#FF444F" fill-rule="nonzero" d="M3 5h4a1 1 0 1 0 0-2H3a1 1 0 1 0 0 2z"/>
        <path fill="#85ACB0" fill-rule="nonzero" d="M10.036 2.732c.269-.966 1.634-.98 1.922-.02l2.35 7.833 1.765-2.94a1 1 0 0 1 1.745.056l4.07 7.88a1 1 0 0 1-1.776.918l-3.248-6.287-2.007 3.343c-.447.744-1.565.604-1.815-.228l-2.005-6.684-4.073 14.665c-.278.999-1.705.967-1.938-.043l-3-13a1 1 0 0 1 1.948-.45l2.116 9.166zM21 19a1 1 0 0 1 0 2H10a1 1 0 0 1 0-2z"/>
    </g>
</svg>
