<?xml version="1.0" encoding="UTF-8"?>
<svg width="128px" height="118px" viewBox="0 0 128 118" version="1.1" xmlns="http://www.w3.org/2000/svg" xmlns:xlink="http://www.w3.org/1999/xlink">
    <!-- Generator: Sketch 59.1 (86144) - https://sketch.com -->
    <title>empty state</title>
    <desc>Created with Sketch.</desc>
    <g id="Chart-toolbar" stroke="none" stroke-width="1" fill="none" fill-rule="evenodd">
        <g id="empty-state" transform="translate(0.000000, -5.000000)">
            <rect id="bg" opacity="0" x="0" y="0" width="128" height="128"></rect>
            <g id="illustration" transform="translate(0.000000, 5.000000)" fill-rule="nonzero">
                <path d="M26.021978,106.835458 C24.9951648,107.304322 25.7969231,106.769817 24.7935531,107.304322 C23.6495238,107.904469 23.8276923,107.501245 22.7539927,108.213919 C22.2982892,108.466999 21.9611904,108.890058 21.8162637,109.390769 C23.541685,110.023736 25.1920879,112.250842 26.6783883,113.338608 C27.512967,113.952821 28.2537729,114.684249 29.0602198,115.335971 C30.7012454,116.667546 34.7897436,117.970989 35.9759707,117.802198 C38.5641026,117.431795 39.8863004,116.179927 42.4322344,115.607912 C45.6486447,114.881172 59.3535531,118.575824 69.0168498,117.366154 C78.6801465,116.156484 117.30989,114.384176 120.085568,111.031795 C122.622125,107.956044 123.531722,102.625055 124.446007,98.8975824 C126.53157,90.5520577 127.437471,81.9554672 127.137289,73.3585348 C126.37304,53.8631502 116.428425,36.1775824 102.085861,23.1243956 C92.7085714,14.5769963 80.4055678,8.64586081 67.7040293,8.90373626 C44.5702564,9.37260073 30.2792674,30.9122344 18.5435897,48.152381 C10.4931868,59.9724542 -5.05435897,82.2247619 2.20835165,97.5050549 L2.36307692,97.8191941 C10.4697436,113.577729 26.021978,106.835458 26.021978,106.835458 Z" id="Path" fill="#E1F1F0"></path>
                <path d="M26.9643956,51.9173626 C26.9643956,51.9173626 17.4370696,49.127619 11.7919414,57.5109158 C11.7919414,59.7333333 22.7352381,61.5290842 22.7352381,61.5290842 C22.7352381,61.5290842 26.9128205,55.0540659 26.9643956,51.9173626 Z" id="Path" fill="#C6E4E4"></path>
                <path d="M1.21435897,81.4792674 C2.62095238,76.5655678 2.15208791,79.6600733 3.65245421,82.4967033 C6.63912088,85.112967 10.6854212,86.0835165 14.3284982,87.6542125 C16.3258608,88.5028571 18.3279121,89.5624908 20.4987546,89.5531136 C23.1431502,89.5531136 25.4874725,87.9542857 28.0005861,87.1290842 C30.1854945,86.4117216 35.3852015,94.44337 37.6357509,94.9028571 C39.2064469,95.2263736 39.5768498,96.6939194 40.3223443,97.9082784 C40.9231051,98.8700067 41.5888805,99.78956 42.3150183,100.660513 C43.1824176,101.720147 46.5066667,103.722198 44.9078388,104.23326 C41.9818634,105.208726 38.93512,105.775159 35.8540659,105.916484 C33.0408791,106.005568 30.2276923,105.878974 27.4613919,106.465055 C24.6950916,107.051136 22.050696,108.284249 19.2,108.218608 C15.3928205,108.124835 11.5528205,107.280879 8.41611722,105.06315 C1.93172161,100.468278 -1.3643956,91.2738462 1.21435897,81.4792674 Z" id="Path" fill="#C6E4E4"></path>
                <path d="M107.86696,60.014652 C107.86696,60.014652 78.7317216,69.9592674 73.170989,73.4945055 C62.5652747,80.2227106 64.4923077,94.7950183 64.4923077,94.7950183 C64.4923077,94.7950183 81.4745788,93.7400733 98.7475458,85.9194139 C106.390037,78.9052015 107.86696,60.014652 107.86696,60.014652 Z" id="Path" fill="#C6E4E4"></path>
                <path d="M67.1976557,37.12 C67.294992,37.0532208 67.387437,36.9795782 67.4742857,36.8996337 C68.9699634,35.5727473 86.3085714,33.3690842 86.1069597,37.1434432 C85.5349451,47.8194872 94.8231502,58.1860806 92.4600733,68.8715018 C90.3220513,78.5254212 84.4331136,84.1095971 76.5655678,89.9704029 C67.4789744,96.7267399 56.807619,102.887619 45.5642491,104.219194 C44.5749451,104.33641 43.0276923,103.215824 42.094652,102.878242 C39.6846886,102.006154 38.2687179,99.905641 36.5479853,98.1145788 C33.781685,95.2404396 31.0060073,92.6147985 28.727326,89.2905495 C24.1324542,82.5717216 21.0801465,74.4087912 21.7928205,66.1755311 C22.438338,58.8369097 25.8713386,52.0246015 31.3857875,47.1396337 C39.40337,40.1488645 50.3935531,38.4937729 60.6523077,37.8514286 C62.6637363,37.7107692 65.4347253,38.3718681 67.1976557,37.12 Z" id="Path" fill="#C6E4E4"></path>
                <path d="M85.1364103,44.5421245 C86.2710623,51.9220513 90.2189011,59.2550916 88.5684982,66.7287912 C86.5758242,75.730989 81.0057143,83.3312821 73.672674,88.7654212 C65.200293,95.0669597 54.8805861,98.6115751 44.3967766,99.8728205 C43.4825617,100.045968 42.5407247,100.005856 41.6445421,99.7556044 C39.3846154,98.9304029 38.0483516,95.6483516 36.4448352,93.9604396 C33.8613919,91.2785348 31.287326,88.8357509 29.1539927,85.7318681 C24.8685714,79.4725275 22.0225641,71.8581685 22.6883516,64.1641026 C23.2906146,57.3231165 26.4901929,50.9726164 31.6295971,46.4175824 C39.1314286,39.9003663 49.352674,38.3578022 58.9128205,37.7576557 C60.7882784,37.6451282 63.3764103,38.2593407 65.0080586,37.0918681" id="Path" fill="#E1F1F0"></path>
                <path d="M86.5758242,44.5421245 C86.1668843,42.0921175 86.0097775,39.6066883 86.1069597,37.1246886 C86.2945055,33.6035165 87.2416117,30.0589011 86.5430037,26.60337 C86.3992498,25.5639585 85.9026515,24.6055238 85.1364103,23.8886447 C84.1330403,23.0775092 82.7170696,23.0446886 81.432381,23.185348 C76.3533133,23.8218964 71.7378671,26.4578478 68.6089377,30.509011 C67.3289377,32.1547253 66.6584615,35.6665201 65.2659341,36.8855678 C65.1841679,36.9594172 65.0980555,37.0283071 65.0080586,37.0918681 C65.0080586,37.0918681 85.76,46.9708425 86.3367033,49.8871795 C86.9134066,52.8035165 86.5758242,44.5421245 86.5758242,44.5421245 Z" id="Path" fill="#C6E4E4"></path>
                <path d="M40.4114286,74.9198535 C40.4114286,74.9198535 41.6257875,70.3109158 45.6814652,69.3450549 C49.7371429,68.3791941 54.8008791,66.1005128 61.9745055,78.8020513 C70.6953846,94.2370696 62.654359,100.201026 51.1906227,104.838095 C38.67663,98.8460073 40.5005128,96.4454212 40.4067399,93.0320879 C40.2332601,86.2335531 40.4114286,74.9198535 40.4114286,74.9198535 Z" id="Path" fill="#E3E4E2"></path>
                <path d="M40.3223443,89.4124542 C40.2004396,84.48 52.043956,85.6615385 53.9616117,88.3434432 C54.5094793,89.1618462 54.8194917,90.1162297 54.8571429,91.1003663 C55.0288849,93.6465612 54.1004045,96.144147 52.3071247,97.9598428 C50.5138449,99.7755386 48.0279853,100.734972 45.4798535,100.594872 C44.2748718,100.524542 40.5567766,96.7689377 40.5567766,96.7689377 C40.3223443,95.1185348 40.3223443,89.4358974 40.3223443,89.4124542 Z" id="Path" fill="#85ACB0"></path>
                <path d="M40.5145788,96.7689377 C40.7115018,93.2055678 41.5601465,89.8484982 46.0049817,89.9610256 C48.4196337,90.021978 50.8999267,90.8753114 52.5128205,92.6710623 C53.7224908,94.0167033 54.4961172,95.3764103 53.3145788,96.8111355 C52.4410246,97.8466079 51.4092965,98.7375019 50.2575824,99.4508425 C48.850989,100.308864 47.003663,101.771722 45.3485714,101.687326 C44.4014652,101.635751 40.4536264,97.9598535 40.5145788,96.7689377 Z" id="Path" fill="#85ACB0"></path>
                <path d="M52.043956,65.0080586 L57.2624176,61.7025641 C57.2624176,61.7025641 55.6307692,64.8533333 52.043956,65.0080586 Z" id="Path" fill="#85ACB0"></path>
                <path d="M40.5005128,68.8199267 L35.3054945,71.68 C35.3054945,71.68 39.4971429,71.3799267 40.5005128,68.8199267 Z" id="Path" fill="#85ACB0"></path>
                <path d="M109.714286,31.2545055 C109.714286,31.2545055 123.864615,57.7172161 122.218901,78.6098168 C120.573187,99.5024176 94.6262271,115.246886 88.0761905,115.75326 C88.0761905,115.75326 118.772747,113.577729 120.099634,111.022418 C120.207473,110.820806 120.87326,110.033114 121.070183,109.615824 C133.729524,82.92337 124.549158,56.7794872 124.549158,56.7794872 C121.457482,47.3211355 116.402103,38.6228145 109.714286,31.2545055 L109.714286,31.2545055 Z" id="Path" fill="#C6E4E4"></path>
                <path d="M30.9450549,42.8823443 C30.7479427,42.8427379 30.5687788,42.7408281 30.4339927,42.5916484 C30.1795343,42.3166722 30.113167,41.9166252 30.2652015,41.5742125 L32.0140659,37.5654212 L27.7661538,39.68 C27.2974603,39.9117573 26.7296328,39.7196825 26.4978755,39.250989 C26.2661182,38.7822955 26.458193,38.2144679 26.9268864,37.9827106 L33.490989,34.7006593 C33.8475318,34.5136201 34.2836788,34.5750577 34.5746782,34.8533126 C34.8656777,35.1315675 34.9465729,35.564528 34.7756777,35.9290842 L32.843956,40.3504762 L34.2505495,39.8816117 C34.5704919,39.7727308 34.9242182,39.8428079 35.1784831,40.0654457 C35.432748,40.2880836 35.5489226,40.6294581 35.483245,40.9609769 C35.4175675,41.2924956 35.1800157,41.5637931 34.8600733,41.672674 L31.4139194,42.8448352 C31.2629566,42.8950332 31.1020783,42.9079034 30.9450549,42.8823443 Z" id="Path" fill="#85ACB0"></path>
                <path d="M23.3541392,31.8827839 C23.1406311,31.8413713 22.9389041,31.7533159 22.76337,31.6249084 C22.2101099,31.2404396 22.2054212,30.9638095 22.2335531,30.218315 L22.8805861,25.5812454 L19.4438095,28.3381685 C18.9923724,28.6731868 18.3964971,28.7419176 17.8806442,28.5184708 C17.3647913,28.2950239 17.007331,27.8133462 16.9429152,27.254881 C16.8784995,26.6964158 17.1169145,26.1460073 17.5683516,25.810989 L23.7245421,21.2864469 C24.2637363,20.8738462 24.7466667,20.7331868 25.2999267,21.112967 C25.8531868,21.4927473 25.5390476,23.0493773 25.3515018,23.6964103 L24.2590476,28.9148718 L25.5015385,28.0334066 C26.2048352,27.5176557 27.2175824,27.2035165 27.7192674,27.9115018 C28.2209524,28.6194872 28.0005861,29.2758974 27.2972894,29.7869597 L24.5872527,31.6108425 C24.2330901,31.8716232 23.7851371,31.9704113 23.3541392,31.8827839 L23.3541392,31.8827839 Z" id="Path" fill="#85ACB0"></path>
                <path d="M29.6369231,17.5589744 C29.1513949,17.4638965 28.7390419,17.1456137 28.5240789,16.7000037 C28.3091159,16.2543937 28.3166712,15.7335464 28.5444689,15.294359 L33.6504029,5.44820513 L24.4794139,10.2493773 C23.9793065,10.5400583 23.3601195,10.5332852 22.8664904,10.231734 C22.3728612,9.93018284 22.0841938,9.38236034 22.114539,8.80470816 C22.1448843,8.22705598 22.4893609,7.71249382 23.0118681,7.46432234 L36.6089377,0.356336996 C37.2168584,0.0336352583 37.964059,0.144301572 38.452344,0.629360035 C38.9406291,1.1144185 39.0562467,1.86086899 38.7375824,2.47091575 L33.2284249,13.090696 L37.6169963,11.440293 C38.4287942,11.1334412 39.335639,11.5427809 39.6424908,12.3545788 C39.9493427,13.1663766 39.540003,14.0732214 38.7282051,14.3800733 L30.4761905,17.483956 C30.2088745,17.5866092 29.9182073,17.6125907 29.6369231,17.5589744 L29.6369231,17.5589744 Z" id="Path" fill="#85ACB0"></path>
            </g>
        </g>
    </g>
</svg>