<svg xmlns="http://www.w3.org/2000/svg" width="128" height="128" viewBox="0 0 128 128">
    <g fill="none" fill-rule="evenodd">
        <rect width="102" height="102" x="13" y="13" fill="#E0F0F0" rx="10"/>
        <path fill="#FFF" d="M63.825 22.894c13.722 0 24.846 11.133 24.846 24.867 0 13.733-11.124 24.866-24.846 24.866S38.98 61.494 38.98 47.761c0-13.734 11.123-24.867 24.845-24.867"/>
        <path fill="#84ABAE" d="M63.913 29.273c5.207 0 9.43 4.226 9.43 9.438 0 5.212-4.223 9.437-9.43 9.437-5.208 0-9.43-4.225-9.43-9.437s4.222-9.438 9.43-9.438M56.316 48.538s2.076 2.689 7.597 2.689c5.52 0 7.295-2.69 7.295-2.69s8.45 3.253 8.45 12.128c0 0-4.376 6.448-15.523 6.448-11.146 0-16.21-6.448-16.21-6.448s.31-9.564 8.391-12.127"/>
        <path fill="#FF444F" d="M128 105c0-12.702-10.298-23-23-23s-23 10.298-23 23 10.298 23 23 23 23-10.298 23-23"/>
        <path fill="#FFF" d="M104.204 106.415L103 99.09v-5.004c.053-.082.728-1.074 1.974-1.086 1.279-.015 1.979 1.014 2.026 1.086v5.004l-1.18 7.325a.867.867 0 0 1-.75.583.87.87 0 0 1-.866-.583M103 113.273v-.546c0-.978.585-1.727 1.999-1.727 1.416 0 2.001.749 2.001 1.727v.546c0 .976-.585 1.727-2.001 1.727-1.414 0-1.999-.75-1.999-1.727"/>
        <path fill="#C6E4E4" d="M75 98.5H37a3 3 0 1 1 0-6h38a3 3 0 1 1 0 6M81 86H37a3 3 0 1 1 0-6h44a3 3 0 1 1 0 6"/>
    </g>
</svg>
