<?xml version="1.0" encoding="UTF-8"?>
<svg width="7px" height="7px" viewBox="0 0 7 7" version="1.1" xmlns="http://www.w3.org/2000/svg" xmlns:xlink="http://www.w3.org/1999/xlink">
    <!-- Generator: Sketch 48.2 (47327) - http://www.bohemiancoding.com/sketch -->
    <title>icons/system/binary/chart settings/spot price/ic-spotprice-light</title>
    <desc>Created with Sketch.</desc>
    <defs></defs>
    <g id="Symbols" stroke="none" stroke-width="1" fill="none" fill-rule="evenodd">
        <g id="icons/system/binary/chart-settings/spot-price/ic-spotprice-light" fill="#2A3052">
            <path d="M3.5,7 C1.56700338,7 0,5.43299662 0,3.5 C0,1.56700338 1.56700338,0 3.5,0 C5.43299662,0 7,1.56700338 7,3.5 C7,5.43299662 5.43299662,7 3.5,7 Z M3.5,6 C4.88071187,6 6,4.88071187 6,3.5 C6,2.11928813 4.88071187,1 3.5,1 C2.11928813,1 1,2.11928813 1,3.5 C1,4.88071187 2.11928813,6 3.5,6 Z M3.5,5 C2.67157288,5 2,4.32842712 2,3.5 C2,2.67157288 2.67157288,2 3.5,2 C4.32842712,2 5,2.67157288 5,3.5 C5,4.32842712 4.32842712,5 3.5,5 Z" id="ic-spotprice-light"></path>
        </g>
    </g>
</svg>