<svg xmlns="http://www.w3.org/2000/svg" width="16" height="16"><path d="M10.5 0a.5.5 0 0 1 .5.5V1h2a1 1 0 0 1 1 1v11a1 1 0 0 1-1 1H1a1 1 0 0 1-1-1V2a1 1 0 0 1 1-1h2V.5a.5.5 0 0 1 1 0V1h6V.5a.5.5 0 0 1 .5-.5ZM13 5H1v8h12V5ZM9.354 7.146a.5.5 0 0 1 0 .708L8.207 9l1.147 1.146a.5.5 0 0 1-.708.708l-1.5-1.5a.5.5 0 0 1 0-.708l1.5-1.5a.5.5 0 0 1 .708 0Zm-3 0a.5.5 0 0 1 0 .708L5.207 9l1.147 1.146a.5.5 0 0 1-.708.708l-1.5-1.5a.5.5 0 0 1 0-.708l1.5-1.5a.5.5 0 0 1 .708 0ZM3 2H1v2h12V2h-2v.5a.5.5 0 0 1-1 0V2H4v.5a.5.5 0 0 1-1 0V2Z"/></svg>