<svg width="17" height="17" xmlns="http://www.w3.org/2000/svg">

 <g>
  <title>background</title>
  <rect fill="none" id="canvas_background" height="19" width="19" y="-1" x="-1"/>
 </g>
 <g>
  <title>Layer 1</title>
  <g id="svg_1" fill-rule="evenodd" fill="none">
   <path id="svg_2" d="m-580,0l1440,0l0,803l-1440,0l0,-803z" fill="#FFF"/>
   <path id="svg_3" d="m8.480816,7.847477l-2.146,-2.147a0.5,0.5 0 1 0 -0.708,0.708l2.147,2.146l-2.147,2.146a0.5,0.5 0 0 0 0.708,0.708l2.146,-2.147l2.146,2.147a0.5,0.5 0 0 0 0.708,-0.708l-2.147,-2.146l2.147,-2.146a0.5,0.5 0 0 0 -0.708,-0.708l-2.146,2.147zm0,8.707a8,8 0 1 1 0,-16a8,8 0 0 1 0,16z" fill="#5C5C5C"/>
  </g>
 </g>
</svg>