<svg xmlns="http://www.w3.org/2000/svg" xmlns:xlink="http://www.w3.org/1999/xlink" width="236" height="180" viewBox="0 0 236 180">
    <defs>
        <linearGradient id="prefix__c" x1="50%" x2="50%" y1="97.164%" y2="3.828%">
            <stop offset="0%" stop-color="#0E0E0E" stop-opacity="0"/>
            <stop offset="100%" stop-color="#FFF" stop-opacity=".16"/>
        </linearGradient>
        <rect id="prefix__a" width="236" height="180" x="0" y="0" rx="4"/>
    </defs>
    <g fill="none" fill-rule="evenodd">
        <mask id="prefix__b" fill="#fff">
            <use xlink:href="#prefix__a"/>
        </mask>
        <use fill="#151717" fill-rule="nonzero" xlink:href="#prefix__a"/>
        <path fill="#1D1F20" fill-rule="nonzero" d="M61 0v31h94.5V0h1v31H236v1h-79.5v90H236v1h-79.5v57h-1v-57H61v57h-1v-57H0v-1h60V32H0v-1h60V0h1zm94.5 122V32H61v90h94.5z" mask="url(#prefix__b)"/>
        <path fill="url(#prefix__c)" d="M156 96L149.5 102.5 144.5 134.5 141.5 119.5 139.5 44.5 137.5 29.5 121.5 15.5 112.5 30.5 98.5 44.5 87.5 44.5 82.5 59.5 80.5 29.5 77.5 59.5 73.5 59.5 68.5 89.5 66.5 74.5 54.5 59.5 52.5 45.5 29.5 59.5 25.5 74.5 22.5 45.5 13.5 89.5 0 89.5 0 180 156 180z" mask="url(#prefix__b)"/>
        <path fill="#FFF" fill-rule="nonzero" d="M149.006 102.423c.016-.105.066-.202.14-.277l6.5-6.5c.196-.195.512-.195.708 0 .195.196.195.512 0 .708l-6.385 6.384-4.975 31.84c-.086.55-.875.568-.984.02L141 119.513l-1.996-74.947-1.975-14.814-15.408-13.482-8.692 14.487-.075.097-14 14c-.094.093-.221.146-.354.146H87.86l-4.886 14.658c-.173.52-.936.422-.973-.125l-1.6-24.011-2.403 24.028c-.026.255-.241.45-.498.45h-3.576l-4.93 29.582c-.095.567-.914.553-.99-.016l-1.981-14.862L54.11 59.812c-.056-.07-.092-.153-.105-.241l-1.893-13.25-22.18 13.502-3.949 14.806c-.143.536-.923.475-.98-.078L22.338 48.79 13.99 89.6c-.048.233-.252.4-.49.4H0v-1h13.092l8.918-43.6c.115-.56.928-.52.987.049l2.72 26.295 3.3-12.373c.033-.124.113-.231.223-.298l23-14c.307-.187.704 0 .755.356l1.98 13.865L66.89 74.188c.057.07.094.156.106.246l1.559 11.695 4.452-26.711c.04-.241.249-.418.493-.418h3.548l2.954-29.55c.062-.61.956-.595.997.017l1.83 27.463 4.197-12.588c.068-.204.259-.342.474-.342h10.793l13.81-13.81 8.968-14.947c.16-.267.524-.325.758-.12l16 14c.091.08.15.19.167.31L140 44.488l1.99 74.915 2.45 12.246 4.566-29.225z" mask="url(#prefix__b)"/>
        <path fill="#FF444F" d="M236 84v24h-31l-9.583-11.5H191v-1h4.417L205 84h31zm-80 9c1.487 0 2.72 1.081 2.959 2.5H163v1h-4.042c-.238 1.42-1.472 2.5-2.958 2.5-1.657 0-3-1.343-3-3s1.343-3 3-3zm31 2.5v1h-4v-1h4zm-8 0v1h-4v-1h4zm-8 0v1h-4v-1h4z" mask="url(#prefix__b)"/>
    </g>
</svg>
