<?xml version="1.0" encoding="UTF-8"?>
<svg width="16px" height="16px" viewBox="0 0 16 16" version="1.1" xmlns="http://www.w3.org/2000/svg" xmlns:xlink="http://www.w3.org/1999/xlink">
    <!-- Generator: Sketch 49 (51002) - http://www.bohemiancoding.com/sketch -->
    <title>icons/system/light/chart settings/indicators/ic-indicator-normal</title>
    <desc>Created with Sketch.</desc>
    <defs></defs>
    <g id="icons/system/light/chart-settings/indicators/ic-indicator-normal" stroke="none" stroke-width="1"  fill-rule="evenodd">
        <path d="M4.0682888,7.9487834 C4.02391596,7.80708087 4,7.65633337 4,7.5 C4,6.67157288 4.67157288,6 5.5,6 C6.32842712,6 7,6.67157288 7,7.5 C7,7.66052293 6.97478502,7.81515658 6.92809976,7.96015624 L8.64368149,9.26828739 C8.88648969,9.09916426 9.18166432,9 9.5,9 C9.74213473,9 9.97086956,9.05737183 10.1733522,9.15926327 L13.1494236,6.15343105 C13.0536858,5.95591551 13,5.73422725 13,5.5 C13,4.67157288 13.6715729,4 14.5,4 C15.3284271,4 16,4.67157288 16,5.5 C16,6.32842712 15.3284271,7 14.5,7 C14.2710798,7 14.0541368,6.94871944 13.8600318,6.85701905 L10.8664959,9.88049039 C10.9522453,10.0693331 11,10.2790897 11,10.5 C11,11.3284271 10.3284271,12 9.5,12 C8.67157288,12 8,11.3284271 8,10.5 C8,10.3543441 8.02076063,10.2135372 8.05948425,10.0803768 L6.32156,8.75520944 C6.08557035,8.90998354 5.80329741,9 5.5,9 C5.19242977,9 4.90648056,8.90742939 4.66849383,8.74862963 L2.9317112,10.0512166 C2.97608404,10.1929191 3,10.3436666 3,10.5 C3,11.3284271 2.32842712,12 1.5,12 C0.671572875,12 -1.77635684e-15,11.3284271 -1.77635684e-15,10.5 C-1.77635684e-15,9.67157288 0.671572875,9 1.5,9 C1.80757023,9 2.09351944,9.09257061 2.33150617,9.25137037 L4.0682888,7.9487834 Z M14.5,6 C14.7761424,6 15,5.77614237 15,5.5 C15,5.22385763 14.7761424,5 14.5,5 C14.2238576,5 14,5.22385763 14,5.5 C14,5.77614237 14.2238576,6 14.5,6 Z M9.5,11 C9.77614237,11 10,10.7761424 10,10.5 C10,10.2238576 9.77614237,10 9.5,10 C9.22385763,10 9,10.2238576 9,10.5 C9,10.7761424 9.22385763,11 9.5,11 Z M5.5,8 C5.77614237,8 6,7.77614237 6,7.5 C6,7.22385763 5.77614237,7 5.5,7 C5.22385763,7 5,7.22385763 5,7.5 C5,7.77614237 5.22385763,8 5.5,8 Z M1.5,11 C1.77614237,11 2,10.7761424 2,10.5 C2,10.2238576 1.77614237,10 1.5,10 C1.22385763,10 1,10.2238576 1,10.5 C1,10.7761424 1.22385763,11 1.5,11 Z" id="Combined-Shape" fill-rule="nonzero"></path>
    </g>
</svg>
