<?xml version="1.0" encoding="UTF-8"?>
<svg width="24px" height="24px" viewBox="0 0 24 24" version="1.1" xmlns="http://www.w3.org/2000/svg" xmlns:xlink="http://www.w3.org/1999/xlink">
    <!-- Generator: Sketch 48.2 (47327) - http://www.bohemiancoding.com/sketch -->
    <title>icons/system/binary/chart settings/comparison/ic-comparison-normal-light</title>
    <desc>Created with Sketch.</desc>
    <defs></defs>
    <g id="Symbols" stroke="none" stroke-width="1" fill="none" fill-rule="evenodd">
        <g id="icons/system/binary/chart-settings/comparison/ic-comparison-normal-light">
            <g id="ic-comparison-normal-light">
                <rect id="Rectangle-7" fill="#D8D8D8" opacity="0" x="0" y="0" width="24" height="24"></rect>
                <path d="M13.4146471,8 C13.2087289,8.58259619 12.6531094,9 12,9 C11.3468906,9 10.7912711,8.58259619 10.5853529,8 L4,8 L4,7 L10.5853529,7 C10.7912711,6.41740381 11.3468906,6 12,6 C12.6531094,6 13.2087289,6.41740381 13.4146471,7 L20,7 L20,8 L13.4146471,8 Z M20,15 C20,16.6568542 18.6568542,18 17,18 C15.3431458,18 14,16.6568542 14,15 L16.5,9 L17.5,9 L20,15 Z M19,15 L17,10.2 L15,15 L19,15 Z M10,15 C10,16.6568542 8.65685425,18 7,18 C5.34314575,18 4,16.6568542 4,15 L6.5,9 L7.5,9 L10,15 Z M9,15 L7,10.2 L5,15 L9,15 Z M12,8 C12.2761424,8 12.5,7.77614237 12.5,7.5 C12.5,7.22385763 12.2761424,7 12,7 C11.7238576,7 11.5,7.22385763 11.5,7.5 C11.5,7.77614237 11.7238576,8 12,8 Z" id="Combined-Shape" fill="#2A3052"></path>
            </g>
        </g>
    </g>
</svg>