<?xml version="1.0" encoding="UTF-8"?>
<svg width="8px" height="8px" viewBox="0 0 8 8" version="1.1" xmlns="http://www.w3.org/2000/svg" xmlns:xlink="http://www.w3.org/1999/xlink">
    <!-- Generator: Sketch 48.2 (47327) - http://www.bohemiancoding.com/sketch -->
    <title>icons/system/binary/chart settings/time interval/ic-timeinterval-light</title>
    <desc>Created with Sketch.</desc>
    <defs></defs>
    <g id="Symbols" stroke="none" stroke-width="1" fill="none" fill-rule="evenodd">
        <g id="icons/system/binary/chart-settings/time-interval/ic-timeinterval-light" fill="#2A3052" fill-rule="nonzero">
            <g id="ic-timeinterval-light">
                <path d="M4,7 C5.65685425,7 7,5.65685425 7,4 C7,2.34314575 5.65685425,1 4,1 C2.34314575,1 1,2.34314575 1,4 C1,5.65685425 2.34314575,7 4,7 Z M4,8 C1.790861,8 0,6.209139 0,4 C0,1.790861 1.790861,0 4,0 C6.209139,0 8,1.790861 8,4 C8,6.209139 6.209139,8 4,8 Z" id="Oval-5"></path>
                <polygon id="Path-7" points="4.5 3.5 5.5 3.5 5.5 4.5 3.5 4.5 3.5 2 4.5 2"></polygon>
            </g>
        </g>
    </g>
</svg>