<svg xmlns="http://www.w3.org/2000/svg" xmlns:xlink="http://www.w3.org/1999/xlink" width="160" height="120" viewBox="0 0 160 120">
    <defs>
        <linearGradient id="prefix__b" x1="50%" x2="50%" y1="126.023%" y2="33.329%">
            <stop offset="0%" stop-color="#0E0E00" stop-opacity="0"/>
            <stop offset="100%" stop-color="#FFF" stop-opacity=".16"/>
        </linearGradient>
        <rect id="prefix__a" width="160" height="120" x="0" y="0" rx="4"/>
    </defs>
    <g fill="none" fill-rule="evenodd">
        <mask id="prefix__c" fill="#fff">
            <use xlink:href="#prefix__a"/>
        </mask>
        <use fill="#151717" fill-rule="nonzero" xlink:href="#prefix__a"/>
        <path fill="url(#prefix__b)" d="M6 86.5L21.5 86.5 36.5 96.5 52 76 67.5 75.5 83 65.5 98.5 65.5 114.067 23 129.5 65.5 145 44.5 160 44.5 160 120 0 120 0 96.5z" mask="url(#prefix__c)"/>
        <path fill="#FFF" fill-rule="nonzero" d="M113.562 22.829c.148-.407.692-.436.898-.089l.04.087 15.234 41.392 14.865-20.017c.075-.102.185-.17.308-.193L145 44h14.5c.276 0 .5.224.5.5 0 .245-.177.45-.41.492l-.09.008h-14.249l-15.265 20.558c-.219.294-.658.256-.833-.045l-.038-.08-15.081-40.98-14.936 40.978c-.062.17-.209.29-.382.321l-.088.008-15.399-.001-15.276 10.433c-.055.038-.117.064-.182.077l-.1.01H52.372L37.119 97.294c-.142.195-.399.258-.61.162l-.078-.044-15.425-10.613H6.062l-5.118 9.93c-.112.218-.363.319-.59.25l-.083-.035c-.218-.112-.319-.363-.25-.59l.035-.083L5.313 86.07c.072-.139.203-.234.353-.262l.092-.009H21.16c.076 0 .15.017.218.05l.066.038 15.15 10.425 15.118-20.826c.076-.104.187-.174.31-.198l.095-.009h15.398l15.277-10.432c.055-.038.117-.064.182-.077l.1-.01 15.203-.001 15.284-41.93z"/>
        <path fill="#FFF" fill-opacity=".16" fill-rule="nonzero" d="M113 8c0-1.105.895-2 2-2h18c1.105 0 2 .895 2 2v7c0 1.105-.895 2-2 2h-16.857L113 19V8z"/>
        <path fill="#FFF" fill-opacity=".98" fill-rule="nonzero" d="M116.065 13v-1.52h1.58V13h.565V9.51h-.565v1.47h-1.58V9.51h-.565V13h.565zm3.35-1.905c.123 0 .215-.033.275-.098.06-.065.09-.145.09-.242v-.075c0-.097-.03-.178-.09-.242-.06-.066-.152-.098-.275-.098-.123 0-.215.033-.275.098-.06.064-.09.145-.09.242v.075c0 .097.03.177.09.242.06.066.152.098.275.098zm0 1.965c.123 0 .215-.033.275-.098.06-.064.09-.145.09-.242v-.075c0-.097-.03-.178-.09-.242-.06-.066-.152-.098-.275-.098-.123 0-.215.033-.275.098-.06.064-.09.145-.09.242v.075c0 .097.03.178.09.242.06.066.152.098.275.098zm4.635 0c.433 0 .752-.158.957-.475.206-.317.308-.76.308-1.33 0-.57-.102-1.013-.308-1.33-.205-.317-.524-.475-.957-.475-.217 0-.405.04-.565.123-.16.081-.292.199-.395.352-.103.153-.18.342-.23.567-.05.225-.075.48-.075.763 0 .287.025.542.075.765.05.223.127.412.23.565.103.153.235.27.395.352.16.082.348.123.565.123zm0-.48c-.12 0-.222-.024-.307-.072-.085-.049-.155-.118-.208-.208-.053-.09-.092-.198-.115-.323-.023-.125-.035-.264-.035-.417v-.61c0-.153.012-.292.035-.417.023-.125.062-.233.115-.323.053-.09.123-.16.208-.208.085-.048.187-.072.307-.072s.222.024.308.072c.084.049.154.118.207.208.053.09.092.197.115.322.023.126.035.265.035.418v.61c0 .153-.012.292-.035.417-.023.125-.062.233-.115.323-.053.09-.123.16-.207.207-.086.049-.188.073-.308.073zm2.225.48c.123 0 .215-.033.275-.098.06-.064.09-.145.09-.242v-.075c0-.097-.03-.178-.09-.242-.06-.066-.152-.098-.275-.098-.123 0-.215.033-.275.098-.06.064-.09.145-.09.242v.075c0 .097.03.178.09.242.06.066.152.098.275.098zm2.225 0c.433 0 .752-.158.958-.475.204-.317.307-.76.307-1.33 0-.57-.102-1.013-.307-1.33-.206-.317-.525-.475-.958-.475-.217 0-.405.04-.565.123-.16.081-.292.199-.395.352-.103.153-.18.342-.23.567-.05.225-.075.48-.075.763 0 .287.025.542.075.765.05.223.127.412.23.565.103.153.235.27.395.352.16.082.348.123.565.123zm0-.48c-.12 0-.222-.024-.308-.072-.085-.049-.154-.118-.207-.208-.053-.09-.092-.198-.115-.323-.023-.125-.035-.264-.035-.417v-.61c0-.153.012-.292.035-.417.023-.125.062-.233.115-.323.053-.09.122-.16.207-.208.085-.048.188-.072.308-.072s.222.024.308.072c.085.049.154.118.207.208.053.09.092.197.115.322.023.126.035.265.035.418v.61c0 .153-.012.292-.035.417-.023.125-.062.233-.115.323-.053.09-.122.16-.207.207-.085.049-.188.073-.308.073zm3 .48c.433 0 .752-.158.958-.475.204-.317.307-.76.307-1.33 0-.57-.102-1.013-.307-1.33-.206-.317-.525-.475-.958-.475-.217 0-.405.04-.565.123-.16.081-.292.199-.395.352-.103.153-.18.342-.23.567-.05.225-.075.48-.075.763 0 .287.025.542.075.765.05.223.127.412.23.565.103.153.235.27.395.352.16.082.348.123.565.123zm0-.48c-.12 0-.222-.024-.308-.072-.085-.049-.154-.118-.207-.208-.053-.09-.092-.198-.115-.323-.023-.125-.035-.264-.035-.417v-.61c0-.153.012-.292.035-.417.023-.125.062-.233.115-.323.053-.09.122-.16.207-.208.085-.048.188-.072.308-.072s.222.024.308.072c.085.049.154.118.207.208.053.09.092.197.115.322.023.126.035.265.035.418v.61c0 .153-.012.292-.035.417-.023.125-.062.233-.115.323-.053.09-.122.16-.207.207-.085.049-.188.073-.308.073z"/>
        <circle cx="114" cy="23" r="2" fill="#00A79E" fill-rule="nonzero"/>
        <path fill="#FFF" fill-opacity=".16" fill-rule="nonzero" d="M37 112c0 1.105.895 2 2 2h17c1.105 0 2-.895 2-2v-7c0-1.105-.895-2-2-2H40.316L37 101v11z"/>
        <path fill="#FFF" fill-rule="nonzero" d="M41.49 110v-.5h-1.42v-2.99h-.565V110h1.985zm.925-1.905c.123 0 .215-.032.275-.097.06-.066.09-.146.09-.243v-.075c0-.097-.03-.178-.09-.243-.06-.064-.152-.097-.275-.097-.123 0-.215.032-.275.097-.06.066-.09.146-.09.243v.075c0 .097.03.178.09.243.06.064.152.097.275.097zm0 1.965c.123 0 .215-.032.275-.097.06-.066.09-.146.09-.243v-.075c0-.097-.03-.177-.09-.242-.06-.066-.152-.098-.275-.098-.123 0-.215.032-.275.097-.06.066-.09.146-.09.243v.075c0 .097.03.177.09.243.06.065.152.097.275.097zm4.635 0c.433 0 .753-.158.958-.475.204-.317.307-.76.307-1.33 0-.57-.102-1.013-.307-1.33-.206-.317-.525-.475-.958-.475-.217 0-.405.04-.565.123-.16.081-.292.199-.395.352-.103.153-.18.343-.23.568-.05.225-.075.479-.075.762 0 .287.025.542.075.765.05.223.127.412.23.565.103.153.235.27.395.353.16.081.348.122.565.122zm0-.48c-.12 0-.222-.024-.307-.073-.086-.048-.155-.117-.208-.207-.053-.09-.092-.197-.115-.322-.023-.125-.035-.265-.035-.418v-.61c0-.153.012-.293.035-.418.023-.124.062-.232.115-.322.053-.09.123-.16.208-.207.084-.049.187-.073.307-.073s.223.024.308.072c.085.049.154.118.207.208.053.09.092.198.115.323.023.124.035.264.035.417v.61c0 .153-.012.293-.035.418-.023.125-.062.232-.115.322-.053.09-.122.16-.207.207-.085.049-.188.073-.308.073zm2.225.48c.123 0 .215-.032.275-.097.06-.066.09-.146.09-.243v-.075c0-.097-.03-.177-.09-.242-.06-.066-.152-.098-.275-.098-.123 0-.215.032-.275.097-.06.066-.09.146-.09.243v.075c0 .097.03.177.09.243.06.065.152.097.275.097zm2.225 0c.433 0 .752-.158.958-.475.205-.317.307-.76.307-1.33 0-.57-.102-1.013-.307-1.33-.206-.317-.525-.475-.958-.475-.217 0-.405.04-.565.123-.16.081-.292.199-.395.352-.103.153-.18.343-.23.568-.05.225-.075.479-.075.762 0 .287.025.542.075.765.05.223.127.412.23.565.103.153.235.27.395.353.16.081.348.122.565.122zm0-.48c-.12 0-.222-.024-.307-.073-.085-.048-.155-.117-.208-.207-.053-.09-.092-.197-.115-.322-.023-.125-.035-.265-.035-.418v-.61c0-.153.012-.293.035-.418.023-.124.062-.232.115-.322.053-.09.123-.16.208-.207.085-.049.187-.073.307-.073s.222.024.307.072c.085.049.155.118.208.208.053.09.092.198.115.323.023.124.035.264.035.417v.61c0 .153-.012.293-.035.418-.023.125-.062.232-.115.322-.053.09-.123.16-.208.207-.085.049-.187.073-.307.073zm3 .48c.433 0 .752-.158.958-.475.205-.317.307-.76.307-1.33 0-.57-.102-1.013-.307-1.33-.206-.317-.525-.475-.958-.475-.217 0-.405.04-.565.123-.16.081-.292.199-.395.352-.103.153-.18.343-.23.568-.05.225-.075.479-.075.762 0 .287.025.542.075.765.05.223.127.412.23.565.103.153.235.27.395.353.16.081.348.122.565.122zm0-.48c-.12 0-.222-.024-.307-.073-.085-.048-.155-.117-.208-.207-.053-.09-.092-.197-.115-.322-.023-.125-.035-.265-.035-.418v-.61c0-.153.012-.293.035-.418.023-.124.062-.232.115-.322.053-.09.123-.16.208-.207.085-.049.187-.073.307-.073s.222.024.307.072c.085.049.155.118.208.208.053.09.092.198.115.323.023.124.035.264.035.417v.61c0 .153-.012.293-.035.418-.023.125-.062.232-.115.322-.053.09-.123.16-.208.207-.085.049-.187.073-.307.073z"/>
        <circle cx="37" cy="97" r="2" fill="#CC2E3D" fill-rule="nonzero"/>
    </g>
</svg>
