<svg xmlns="http://www.w3.org/2000/svg" xmlns:xlink="http://www.w3.org/1999/xlink" width="160" height="120" viewBox="0 0 160 120">
    <defs>
        <linearGradient id="prefix__b" x1="50%" x2="50%" y1="126.023%" y2="33.329%">
            <stop offset="0%" stop-color="#0E0E00" stop-opacity="0"/>
            <stop offset="100%" stop-color="#FFF" stop-opacity=".16"/>
        </linearGradient>
        <rect id="prefix__a" width="160" height="120" x="0" y="0" rx="4"/>
    </defs>
    <g fill="none" fill-rule="evenodd">
        <mask id="prefix__c" fill="#fff">
            <use xlink:href="#prefix__a"/>
        </mask>
        <use fill="#151717" fill-rule="nonzero" xlink:href="#prefix__a"/>
        <path fill="url(#prefix__b)" d="M6 86.5L21.5 86.5 36.5 96.5 52 76 67.5 75.5 83 65.5 98.5 65.5 114.067 23 129.5 65.5 145 44.5 160 44.5 160 120 0 120 0 96.5z" mask="url(#prefix__c)"/>
        <path fill="#FFF" fill-rule="nonzero" d="M113.562 22.829c.148-.407.692-.436.898-.089l.04.087 15.234 41.392 14.865-20.017c.075-.102.185-.17.308-.193L145 44h14.5c.276 0 .5.224.5.5 0 .245-.177.45-.41.492l-.09.008h-14.249l-15.265 20.558c-.219.294-.658.256-.833-.045l-.038-.08-15.081-40.98-14.936 40.978c-.062.17-.209.29-.382.321l-.088.008-15.399-.001-15.276 10.433c-.055.038-.117.064-.182.077l-.1.01H52.372L37.119 97.294c-.142.195-.399.258-.61.162l-.078-.044-15.425-10.613H6.062l-5.118 9.93c-.112.218-.363.319-.59.25l-.083-.035c-.218-.112-.319-.363-.25-.59l.035-.083L5.313 86.07c.072-.139.203-.234.353-.262l.092-.009H21.16c.076 0 .15.017.218.05l.066.038 15.15 10.425 15.118-20.826c.076-.104.187-.174.31-.198l.095-.009h15.398l15.277-10.432c.055-.038.117-.064.182-.077l.1-.01 15.203-.001 15.284-41.93z"/>
    </g>
</svg>
