<?xml version="1.0" encoding="UTF-8"?>
<svg width="16" height="16" viewBox="4 4 16 16" version="1.1" xmlns="http://www.w3.org/2000/svg" xmlns:xlink="http://www.w3.org/1999/xlink">
    <!-- Generator: Sketch 47.1 (45422) - http://www.bohemiancoding.com/sketch -->
    <title>icons/system/binary/chart settings/drawing tools/ic-drawingtools-normal-light</title>
    <desc>Created with Sketch.</desc>
    <defs></defs>
    <g id="Symbols" stroke="none" stroke-width="1" fill="none" fill-rule="evenodd">
        <g id="icons/system/binary/chart-settings/drawing-tools/ic-drawingtools-normal-light">
            <g id="Group-2-Copy" transform="translate(6.000000, 5.000000)">
                <path d="M6,3.15886807 L0.951067111,13.7157277 C0.831923965,13.9648452 0.533389738,14.0702103 0.284272251,13.9510671 C0.0351547649,13.831924 -0.0702102565,13.5333897 0.0489328892,13.2842723 L5.54893289,1.78427225 C5.73020795,1.40524258 6.26979205,1.40524258 6.45106711,1.78427225 L11.9510671,13.2842723 C12.0702103,13.5333897 11.9648452,13.831924 11.7157277,13.9510671 C11.4666103,14.0702103 11.168076,13.9648452 11.0489329,13.7157277 L6,3.15886807 Z" id="Path-21" fill="#2A3052" fill-rule="nonzero"></path>
                <path d="M0.5,8 L11.5,8 C11.7761424,8 12,8.22385763 12,8.5 C12,8.77614237 11.7761424,9 11.5,9 L0.5,9 C0.223857625,9 3.38176876e-17,8.77614237 0,8.5 C-3.38176876e-17,8.22385763 0.223857625,8 0.5,8 Z" id="Rectangle" fill="#2A3052"></path>
                <path d="M6,4 C4.8954305,4 4,3.1045695 4,2 C4,0.8954305 4.8954305,0 6,0 C7.1045695,0 8,0.8954305 8,2 C8,3.1045695 7.1045695,4 6,4 Z" id="Oval-9" fill="#2A3052" fill-rule="nonzero"></path>
                <path d="M6,3 C6.55228475,3 7,2.55228475 7,2 C7,1.44771525 6.55228475,1 6,1 C5.44771525,1 5,1.44771525 5,2 C5,2.55228475 5.44771525,3 6,3 Z" id="Path" fill="#FFFFFF"></path>
            </g>
        </g>
    </g>
</svg>
