<?xml version="1.0" encoding="UTF-8"?>
<svg width="16px" height="16px" viewBox="0 0 16 16" version="1.1" xmlns="http://www.w3.org/2000/svg" xmlns:xlink="http://www.w3.org/1999/xlink">
    <!-- Generator: Sketch 49 (51002) - http://www.bohemiancoding.com/sketch -->
    <title>icons/system/light/sidebar/otc/ic-otc-normal</title>
    <desc>Created with Sketch.</desc>
    <defs>
        <circle id="path-1" cx="8" cy="8" r="8"></circle>
    </defs>
    <g id="icons/system/light/sidebar/otc/ic-otc-normal" stroke="none" stroke-width="1" fill="none" fill-rule="evenodd">
        <mask id="mask-2" fill="white">
            <use xlink:href="#path-1"></use>
        </mask>
        <use id="Oval" fill="#B0B3BF" xlink:href="#path-1"></use>
        <g id="Group-2" mask="url(#mask-2)" fill="#FFFFFF">
            <g transform="translate(10.000000, 8.000000)" id="Combined-Shape">
                <path d="M0,0 L4,0 L4,9 L0,9 L0,0 Z M1,1 L1,2 L3,2 L3,1 L1,1 Z M1,3 L1,4 L3,4 L3,3 L1,3 Z"></path>
            </g>
        </g>
        <g id="Group" mask="url(#mask-2)" fill="#FFFFFF">
            <g transform="translate(2.000000, 3.000000)" id="Combined-Shape">
                <path d="M4,2 L6,2 L6,3 L7,3 L7,14 L0,14 L0,3 L1,3 L1,2 L3,2 L3,0 L4,0 L4,2 Z M1,5 L1,6 L3,6 L3,5 L1,5 Z M4,5 L4,6 L6,6 L6,5 L4,5 Z M1,7 L1,8 L3,8 L3,7 L1,7 Z M4,7 L4,8 L6,8 L6,7 L4,7 Z M1,9 L1,10 L3,10 L3,9 L1,9 Z M4,9 L4,10 L6,10 L6,9 L4,9 Z"></path>
            </g>
        </g>
        <g id="Group-3-Copy" mask="url(#mask-2)" fill="#B0B3BF" fill-rule="nonzero">
            <path d="M8,15 C11.8659932,15 15,11.8659932 15,8 C15,4.13400675 11.8659932,1 8,1 C4.13400675,1 1,4.13400675 1,8 C1,11.8659932 4.13400675,15 8,15 Z M8,16 C3.581722,16 0,12.418278 0,8 C0,3.581722 3.581722,0 8,0 C12.418278,0 16,3.581722 16,8 C16,12.418278 12.418278,16 8,16 Z" id="Oval-Copy"></path>
        </g>
    </g>
</svg>