<?xml version="1.0" encoding="utf-8"?>
<!-- Generator: Adobe Illustrator 16.0.0, SVG Export Plug-In . SVG Version: 6.00 Build 0)  -->
<!DOCTYPE svg PUBLIC "-//W3C//DTD SVG 1.1//EN" "http://www.w3.org/Graphics/SVG/1.1/DTD/svg11.dtd">
<svg version="1.1" id="Layer_1" xmlns="http://www.w3.org/2000/svg"  x="0px" y="0px"
	 width="32px" height="32px" viewBox="0 0 32 32" enable-background="new 0 0 32 32" xml:space="preserve">
<title>icons/underlying assets/volatility/bull market/ic-marketbull</title>
<desc>Created with Sketch.</desc>
<g>
	<path fill="#FFFFFF" d="M16,6c5.523,0,10,4.477,10,10c0,5.523-4.477,10-10,10c-5.523,0-10-4.477-10-10C6,10.477,10.477,6,16,6"/>
	<path fill="#FF9C00" d="M16,6c5.523,0,10,4.477,10,10c0,5.523-4.477,10-10,10c-5.523,0-10-4.477-10-10C6,10.477,10.477,6,16,6"/>
	<path  fill="#FFFFFF" d="M22.111,10.096c-0.647,1.529-1.424,2.453-2.33,2.772
		c-0.494,0.174-0.906,0.242-1.266,0.242c-0.645,0-1.123-0.218-1.611-0.436c-0.488-0.218-0.987-0.436-1.672-0.436
		c-0.738,0-1.693,0.253-3.084,1.032c-1.655-0.378-3.196-0.568-4.624-0.568c-0.332,0-0.658,0.01-0.979,0.031
		C6.192,13.757,6,14.856,6,16c0,3.101,1.411,5.872,3.626,7.706c0.042,0.015,0.085,0.03,0.128,0.046l1.103-1.263
		c0.532,0.059,0.898,0.116,1.098,0.174c0.593,0.171,0.963,0.409,1.345,0.458c0.288,0.036,0.646,0.054,1.075,0.054
		c0.429,0,0.929-0.018,1.5-0.054c0.702,0.659,1.318,0.994,1.847,1.004h0.048c0.123-0.002,0.24-0.022,0.354-0.061
		c0.319-0.107,0.414-0.557,0.844-0.943c0.148-0.135,0.492-0.4,1.029-0.796l0.059-0.048c0.244-0.231,0.254-0.616,0.023-0.86
		c-0.703-0.741-1.156-1.337-1.363-1.786c-0.514-1.117-0.145-2.486-0.527-3.062c-0.664-0.996-1.524-1.766-2.58-2.308
		c0.708,0.071,1.298,0.177,1.771,0.319c0.326,0.098,0.672,0.154,1.033,0.154c0.719,0,1.496-0.221,2.297-0.776
		c0.955-0.753,1.436-1.804,1.44-3.151v-0.044C22.148,10.548,22.136,10.326,22.111,10.096"/>
	<circle fill="none" stroke="#FF9C00" stroke-width="1.25" cx="16" cy="16" r="9.375"/>
</g>
</svg>
