<?xml version="1.0" encoding="UTF-8"?>
<svg width="24px" height="16px" viewBox="0 0 24 16" version="1.1" xmlns="http://www.w3.org/2000/svg" xmlns:xlink="http://www.w3.org/1999/xlink">
    <!-- Generator: Sketch 48.2 (47327) - http://www.bohemiancoding.com/sketch -->
    <title>icons/flags/canada cad</title>
    <desc>Created with Sketch.</desc>
    <defs></defs>
    <g id="Symbols" stroke="none" stroke-width="1" fill="none" fill-rule="evenodd">
        <g id="icons/flags/canada-cad">
            <g id="Icon/Flag/Canada" fill-rule="nonzero">
                <rect id="white" fill="#FFFFFF" x="5.379375" y="0.0131904762" width="13.24125" height="15.9738095"></rect>
                <path d="M1.79742188,0.013 L5.37932813,0.013 L5.37932813,15.9867619 L1.79742188,15.9867619 C0.804703125,15.9867619 0,15.1692381 0,14.1608095 L0,1.83895238 C0,0.83047619 0.804703125,0.013 1.79742188,0.013 Z M22.2025781,0.013 C23.1952969,0.013 24,0.83047619 24,1.83895238 L24,14.1607619 C24,15.1692381 23.19525,15.9867143 22.2025781,15.9867143 L18.6206719,15.9867143 L18.6206719,0.013 L22.2025781,0.013 Z M14.5110469,9.84557143 C14.2567031,9.99319048 14.1452812,10.306381 14.2477969,10.5851429 L14.4577031,11.1554762 L12.3527344,10.9729048 C12.2362969,10.9628095 12.1372031,11.058 12.140625,11.1766667 L12.207,13.4645714 L11.7931875,13.4645714 L11.8594687,11.1767619 C11.8628906,11.0581429 11.7637969,10.9629048 11.6473594,10.973 L9.543375,11.1554762 L9.75328125,10.5851429 C9.85589062,10.3064286 9.74442187,9.99328571 9.49007812,9.84561905 L7.034625,8.4202381 L7.5980625,8.13409524 C7.75607812,8.05380952 7.84654687,7.88042857 7.82315625,7.70252381 L7.63982812,6.3062381 L8.679375,6.61347619 C8.90901562,6.68133333 9.14732812,6.53790476 9.19898437,6.30066667 L9.29854687,5.84352381 L10.274625,7.004 C10.4099531,7.16480952 10.6677656,7.04190476 10.6324687,6.83342857 L10.2156094,4.37114286 L10.8538125,4.54842857 C11.0402344,4.60019048 11.2371094,4.514 11.3280937,4.34080952 L12.0001406,3.0612381 L12.0001406,3.05933333 L12.0006562,3.06028571 L12.001125,3.05933333 L12.001125,3.0612381 L12.6731719,4.34080952 C12.7640625,4.51404762 12.9609375,4.6002381 13.1473594,4.54842857 L13.7855625,4.37114286 L13.3687031,6.83342857 C13.3334062,7.04195238 13.5912187,7.16480952 13.7265,7.00395238 L14.7025781,5.84347619 L14.8021406,6.30061905 C14.8537969,6.53780952 15.0921094,6.68133333 15.32175,6.61342857 L16.3612969,6.30619048 L16.1779687,7.70247619 C16.1545781,7.88042857 16.2450469,8.0537619 16.4030625,8.13404762 L16.9665,8.4202381 L14.5110469,9.84557143 Z" id="red" fill="#F44336"></path>
            </g>
            <rect id="border" stroke-opacity="0.04" stroke="#000000" x="0.5" y="0.5" width="23" height="15" rx="2"></rect>
        </g>
    </g>
</svg>