<svg  xmlns="http://www.w3.org/2000/svg" xmlns:xlink="http://www.w3.org/1999/xlink" width="24" height="16" viewBox="0 0 24 16">
  <title>chinese-traditional</title>
  <g>
    <g>
      <path d="M0,13.5V14a2,2,0,0,0,2,2h.5A2.5,2.5,0,0,1,0,13.5M9.21,6.58H8.6l-.13.77h1.66A6.85,6.85,0,0,0,9,6.94l.23-.36m1.75,0H9.25A9.63,9.63,0,0,1,10.4,7l-.24.37h.67c.05-.26.1-.51.13-.77M11,5.36H8.74c0,.26-.05.52-.08.77h1.5a5.53,5.53,0,0,0-1-.4l.25-.36a5.29,5.29,0,0,1,1.09.44l-.2.32H11l0-.77m4.28-.57H13.59a3.25,3.25,0,0,0,.94,1.42,4,4,0,0,0,.79-1.42M7.55,12.91l-.38-.79A11,11,0,0,0,10,11.17l.54.61a12.54,12.54,0,0,1-2.95,1.13m8.66,0a17.26,17.26,0,0,0-3-1l.5-.76a19.29,19.29,0,0,1,3,1l-.52.81M7,4.83A5.5,5.5,0,0,0,8.55,3l.84.18c-.1.18-.19.35-.29.51h3.18v.71H8.6l-.38.44h3.61c0,.43,0,.82,0,1.17h.62v.65h-.67l-.1.68h.45v.53h-.57l0,.17.31.24A13.66,13.66,0,0,1,10,9L12.23,9c.45-.23.91-.48,1.37-.74l.73.48a18.44,18.44,0,0,1-4.09,1.68c1.39-.06,2.78-.14,4.17-.25l-.74-.53.72-.44a18.67,18.67,0,0,1,2.37,1.7l-.81.56a9.85,9.85,0,0,0-.77-.68l-2.66.14v1.27c0,.56-.34.85-1,.85h-1l-.18-.82c.32,0,.62.05.9.05s.31-.1.31-.3v-1C10.26,11,9.07,11,8,11.07l-.21-.84.82,0A14,14,0,0,0,11,9.48l-2.47.09-.15-.71a2,2,0,0,0,.77-.1,12.54,12.54,0,0,0,1.44-.64l.07-.24H7.57c.08-.41.14-.81.21-1.21h-.7V6h.77c.05-.31.08-.61.1-.92a5,5,0,0,1-.42.37L7,4.83H7M13.45,3h0l.88.19c-.11.28-.23.54-.35.79h2.81v.81h-.62a4.74,4.74,0,0,1-1,1.93A8,8,0,0,0,17,7.54h0l-.46.81a7.25,7.25,0,0,1-1.95-1,5.59,5.59,0,0,1-2,1l-.48-.75a5,5,0,0,0,1.78-.77,4.18,4.18,0,0,1-.88-1.32,7.17,7.17,0,0,1-.52.58L12,5.4A7.62,7.62,0,0,0,13.45,3M21.5,1H2.5A1.5,1.5,0,0,0,1,2.5v11A1.5,1.5,0,0,0,2.5,15h19A1.5,1.5,0,0,0,23,13.5V2.5A1.5,1.5,0,0,0,21.5,1M2.5,0H2A2,2,0,0,0,0,2v.5A2.5,2.5,0,0,1,2.5,0M22,0h-.5A2.5,2.5,0,0,1,24,2.5v11A2.5,2.5,0,0,1,21.5,16H22a2,2,0,0,0,2-2V2a2,2,0,0,0-2-2" transform="translate(0 0)" fill="#ed3c3c"/>
      <path d="M2.5,1h19A1.5,1.5,0,0,1,23,2.5v11A1.5,1.5,0,0,1,21.5,15H2.5A1.5,1.5,0,0,1,1,13.5V2.5A1.5,1.5,0,0,1,2.5,1h0m19-1H2.5A2.5,2.5,0,0,0,0,2.5v11A2.5,2.5,0,0,0,2.5,16h19A2.5,2.5,0,0,0,24,13.5V2.5A2.5,2.5,0,0,0,21.5,0" transform="translate(0 0)" fill="#e43a3a"/>
    </g>
    <g>
      <path d="M10,11.17a11,11,0,0,1-2.79.95l.38.79a12.54,12.54,0,0,0,3-1.13L10,11.17m3.79-.05-.5.76a17.26,17.26,0,0,1,3,1l.52-.81a19.29,19.29,0,0,0-3-1M8.47,7.35l.13-.77h.61L9,6.94a6.85,6.85,0,0,1,1.15.41H8.47m1.69,0L10.4,7a9.63,9.63,0,0,0-1.15-.4H11c0,.26-.08.51-.13.77h-.67M8.66,6.13c0-.25.06-.51.08-.77H11l0,.77h-.72l.2-.32a5.29,5.29,0,0,0-1.09-.44l-.25.36a5.53,5.53,0,0,1,1,.4H8.66M8.55,3A5.5,5.5,0,0,1,7,4.83H7l.53.64A5,5,0,0,0,8,5.1c0,.31,0,.61-.1.92H7.08v.65h.7c-.07.4-.13.8-.21,1.21H10.7l-.07.24a12.54,12.54,0,0,1-1.44.64,2,2,0,0,1-.77.1l.15.71L11,9.48a14,14,0,0,1-2.45.77l-.82,0,.21.84c1.09,0,2.28-.08,3.56-.14v1c0,.2-.1.3-.31.3s-.58,0-.9-.05l.18.82h1c.66,0,1-.29,1-.85V10.88l2.66-.14a9.85,9.85,0,0,1,.77.68l.81-.56a18.67,18.67,0,0,0-2.37-1.7l-.72.44.74.53c-1.39.11-2.78.19-4.17.25A18.44,18.44,0,0,0,14.33,8.7l-.73-.48c-.46.26-.92.51-1.37.74L10,9a13.66,13.66,0,0,0,1.78-.74l-.31-.24,0-.17h.57V7.35h-.45l.1-.68h.67V6h-.62c0-.35,0-.74,0-1.17H8.22l.38-.44h3.68V3.7H9.1c.1-.16.19-.33.29-.51L8.55,3m6,3.2a3.25,3.25,0,0,1-.94-1.42h1.73a4,4,0,0,1-.79,1.42M13.45,3h0A7.62,7.62,0,0,1,12,5.4l.54.64a7.17,7.17,0,0,0,.52-.58,4.18,4.18,0,0,0,.88,1.32,5,5,0,0,1-1.78.77l.48.75a5.59,5.59,0,0,0,2-1,7.25,7.25,0,0,0,1.95,1L17,7.54a8,8,0,0,1-1.79-.82,4.74,4.74,0,0,0,1-1.93h.62V4H14c.12-.25.24-.51.35-.79L13.45,3" transform="translate(0 0)" fill="#fff"/>
    </g>
  </g>
</svg>
