<?xml version="1.0" encoding="UTF-8"?>
<svg width="24px" height="16px" viewBox="0 0 24 16" version="1.1" xmlns="http://www.w3.org/2000/svg" xmlns:xlink="http://www.w3.org/1999/xlink">
    <!-- Generator: Sketch 48.2 (47327) - http://www.bohemiancoding.com/sketch -->
    <title>icons/flags/europe eur</title>
    <desc>Created with Sketch.</desc>
    <defs></defs>
    <g id="Symbols" stroke="none" stroke-width="1" fill="none" fill-rule="evenodd">
        <g id="icons/flags/europe-eur">
            <g id="Icon/Flag/Europe" fill-rule="nonzero">
                <path d="M22.2025781,0.0130952381 L1.79742187,0.0130952381 C0.804703125,0.0130952381 0,0.830571429 0,1.83904762 L0,14.1609524 C0,15.169381 0.804703125,15.9869048 1.79742187,15.9869048 L22.2025781,15.9869048 C23.19525,15.9869048 24,15.1694286 24,14.1609524 L24,1.83904762 C24,0.830571429 23.1952969,0.0130952381 22.2025781,0.0130952381 Z" id="BG-Blue" fill="#0D47A1"></path>
                <path d="M12.1682812,1.84209524 L12.3342187,2.34747619 L12.8586094,2.35161905 C12.9265312,2.35214286 12.9546562,2.44014286 12.9000469,2.48114286 L12.4781719,2.79761905 L12.6363281,3.30552381 C12.6568125,3.3712381 12.583125,3.42571429 12.5278594,3.38557143 L12.10125,3.0757619 L11.6746406,3.38557143 C11.6194219,3.42566667 11.5456875,3.37128571 11.5661719,3.30552381 L11.7243281,2.79761905 L11.3024531,2.48114286 C11.2478437,2.44014286 11.2759687,2.35214286 11.3438906,2.35161905 L11.8682812,2.34747619 L12.0342187,1.84209524 C12.0556406,1.77666667 12.1468125,1.77666667 12.1682812,1.84209524 Z M12.1682812,12.6927143 L12.3342187,13.1980952 L12.8586094,13.2022381 C12.9265312,13.2027619 12.9546562,13.2907619 12.9000469,13.3317619 L12.4781719,13.6482381 L12.6363281,14.1561429 C12.6568125,14.2218571 12.583125,14.2763333 12.5278594,14.2361905 L12.10125,13.926381 L11.6746406,14.2361905 C11.6194219,14.2762857 11.5456875,14.2219048 11.5661719,14.1561429 L11.7243281,13.6482381 L11.3024531,13.3317619 C11.2478437,13.2907619 11.2759687,13.2027619 11.3438906,13.2022381 L11.8682812,13.1980952 L12.0342187,12.6927143 C12.0556406,12.6272381 12.1468125,12.6272381 12.1682812,12.6927143 Z M17.5087969,7.26738095 L17.6747344,7.7727619 L18.199125,7.77690476 C18.2670469,7.77742857 18.2951719,7.86542857 18.2405625,7.90642857 L17.8186875,8.22290476 L17.9768438,8.73080952 C17.9973281,8.79652381 17.9236406,8.851 17.868375,8.81085714 L17.4417656,8.50104762 L17.0151563,8.81085714 C16.9599375,8.85095238 16.8862031,8.79657143 16.9066875,8.73080952 L17.0648438,8.22290476 L16.6429688,7.90642857 C16.5883594,7.86542857 16.6164844,7.77742857 16.6844063,7.77690476 L17.2087969,7.7727619 L17.3747344,7.26738095 C17.3961563,7.202 17.4873281,7.202 17.5087969,7.26738095 Z M6.82771875,7.26738095 L6.99365625,7.7727619 L7.51804687,7.77690476 C7.58596875,7.77742857 7.61409375,7.86542857 7.55948437,7.90642857 L7.13760937,8.22290476 L7.29576562,8.73080952 C7.31625,8.79652381 7.2425625,8.851 7.18729687,8.81085714 L6.7606875,8.50104762 L6.33407812,8.81085714 C6.27885937,8.85095238 6.205125,8.79657143 6.22560937,8.73080952 L6.38376562,8.22290476 L5.96189062,7.90642857 C5.90728125,7.86542857 5.93540625,7.77742857 6.00332812,7.77690476 L6.52771875,7.7727619 L6.69365625,7.26738095 C6.715125,7.202 6.80629687,7.202 6.82771875,7.26738095 Z M7.62946875,4.4342381 L7.79540625,4.93961905 L8.31979687,4.9437619 C8.38771875,4.94428571 8.41584375,5.03228571 8.36123437,5.07328571 L7.93935937,5.3897619 L8.09751562,5.89766667 C8.118,5.96338095 8.0443125,6.01785714 7.98904687,5.97771429 L7.5624375,5.66790476 L7.13582812,5.97771429 C7.08060937,6.01780952 7.006875,5.96342857 7.02735937,5.89766667 L7.18551562,5.3897619 L6.76364062,5.07328571 C6.70903125,5.03228571 6.73715625,4.94428571 6.80507812,4.9437619 L7.32946875,4.93961905 L7.49540625,4.4342381 C7.516875,4.36880952 7.60795312,4.36880952 7.62946875,4.4342381 Z M16.8795,9.85952381 L17.0454375,10.3649048 L17.5698281,10.3690476 C17.63775,10.3695714 17.665875,10.4575714 17.6112656,10.4985714 L17.1893906,10.8150476 L17.3475469,11.3229524 C17.3680313,11.3887619 17.2943438,11.4431429 17.2390781,11.403 L16.8124688,11.0931905 L16.3858594,11.403 C16.3306406,11.4430952 16.2569063,11.3887143 16.2773906,11.3229524 L16.4355469,10.8150476 L16.0136719,10.4985714 C15.9590625,10.4575714 15.9871875,10.3695714 16.0551094,10.3690476 L16.5795,10.3649048 L16.7454375,9.85952381 C16.7669063,9.79414286 16.8580313,9.79414286 16.8795,9.85952381 Z M14.9247656,2.44842857 L15.0907031,2.95380952 L15.6150938,2.95795238 C15.6830156,2.95847619 15.7111406,3.04647619 15.6565313,3.08747619 L15.2346563,3.40395238 L15.3928125,3.91185714 C15.4132969,3.97757143 15.3396094,4.03204762 15.2843438,3.99190476 L14.8577344,3.68209524 L14.4310781,3.99190476 C14.3758594,4.032 14.302125,3.97761905 14.3226094,3.91185714 L14.4807656,3.40395238 L14.0588906,3.08747619 C14.0042813,3.04647619 14.0324063,2.95847619 14.1003281,2.95795238 L14.6247188,2.95380952 L14.7906563,2.44842857 C14.812125,2.38304762 14.9032031,2.38304762 14.9247656,2.44842857 Z M9.58420313,11.845381 L9.75014063,12.3507619 L10.2745313,12.3549048 C10.3424531,12.3554286 10.3705781,12.4434286 10.3159688,12.4844286 L9.89409375,12.8009048 L10.05225,13.3088095 C10.0727344,13.3745238 9.99904688,13.429 9.94378125,13.3888571 L9.51717188,13.0790476 L9.0905625,13.3888571 C9.03534375,13.4289524 8.96160938,13.3745714 8.98209375,13.3088095 L9.14025,12.8009048 L8.718375,12.4844286 C8.66376563,12.4434286 8.69189063,12.3554286 8.7598125,12.3549048 L9.28420313,12.3508095 L9.45014063,11.8454286 C9.47160938,11.7799048 9.56278125,11.7799048 9.58420313,11.845381 Z M16.7454375,4.4342381 C16.7669063,4.36880952 16.8580313,4.36880952 16.8795,4.4342381 L17.0454375,4.93961905 L17.5698281,4.9437619 C17.63775,4.94428571 17.665875,5.03228571 17.6112656,5.07328571 L17.1893906,5.3897619 L17.3475469,5.89766667 C17.3680313,5.96342857 17.2942969,6.01780952 17.2390781,5.97771429 L16.8124688,5.66790476 L16.3858594,5.97771429 C16.3305938,6.01785714 16.2569063,5.96338095 16.2773906,5.89766667 L16.4355469,5.3897619 L16.0136719,5.07328571 C15.9590625,5.03228571 15.9871875,4.94428571 16.0551094,4.9437619 L16.5795,4.93961905 L16.7454375,4.4342381 Z M7.49540625,9.85952381 C7.516875,9.79414286 7.60795312,9.79414286 7.62946875,9.85952381 L7.79540625,10.3649048 L8.31979687,10.3690476 C8.38771875,10.3695714 8.41584375,10.4575714 8.36123437,10.4985714 L7.93935937,10.8150476 L8.09751562,11.3229524 C8.118,11.3887143 8.04426562,11.4430952 7.98904687,11.403 L7.5624375,11.0931905 L7.13582812,11.403 C7.0805625,11.4431429 7.006875,11.3887619 7.02735937,11.3229524 L7.18551562,10.8150476 L6.76364062,10.4985714 C6.70903125,10.4575714 6.73715625,10.3695714 6.80507812,10.3690476 L7.32946875,10.3649048 L7.49540625,9.85952381 Z M9.45014063,2.44842857 C9.47160938,2.38304762 9.5626875,2.38304762 9.58420313,2.44842857 L9.75014063,2.95380952 L10.2745313,2.95795238 C10.3424531,2.95847619 10.3705781,3.04647619 10.3159688,3.08747619 L9.89409375,3.40395238 L10.05225,3.91185714 C10.0727344,3.97761905 9.999,4.032 9.94378125,3.99190476 L9.51717188,3.68209524 L9.0905625,3.99190476 C9.03529688,4.03204762 8.96160938,3.97757143 8.98209375,3.91185714 L9.14025,3.40395238 L8.718375,3.08747619 C8.66376563,3.04647619 8.69189063,2.95847619 8.7598125,2.95795238 L9.28420313,2.95380952 L9.45014063,2.44842857 Z M14.7906562,11.845381 C14.812125,11.7799048 14.9032031,11.7799048 14.9247187,11.8454286 L15.0906562,12.3508095 L15.6150469,12.3549048 C15.6829687,12.3554286 15.7110937,12.4434286 15.6564844,12.4844286 L15.2346094,12.8009048 L15.3927656,13.3088095 C15.41325,13.3745714 15.3395156,13.4289524 15.2842969,13.3888571 L14.8576875,13.0790476 L14.4310781,13.3888571 C14.3758125,13.429 14.302125,13.3745238 14.3226094,13.3088095 L14.4807656,12.8009048 L14.0588906,12.4844286 C14.0042812,12.4434286 14.0324062,12.3554286 14.1003281,12.3549048 L14.6247187,12.3507619 L14.7906562,11.845381 Z" id="Stars" fill="#FFEB3B"></path>
            </g>
            <rect id="border" stroke-opacity="0.04" stroke="#000000" x="0.5" y="0.5" width="23" height="15" rx="2"></rect>
        </g>
    </g>
</svg>