<?xml version="1.0" encoding="UTF-8"?>
<svg width="24px" height="16px" viewBox="0 0 24 16" version="1.1" xmlns="http://www.w3.org/2000/svg" xmlns:xlink="http://www.w3.org/1999/xlink">
    <!-- Generator: Sketch 48.2 (47327) - http://www.bohemiancoding.com/sketch -->
    <title>icons/flags/mexico mxn</title>
    <desc>Created with Sketch.</desc>
    <defs></defs>
    <g id="Symbols" stroke="none" stroke-width="1" fill="none" fill-rule="evenodd">
        <g id="icons/flags/mexico-mxn">
            <g id="Icon/Flag/Mexico" fill-rule="nonzero">
                <path d="M1.79742188,0.013 C0.804703125,0.013 0,0.83047619 0,1.83895238 L0,14.1608095 C0,15.1692381 0.804703125,15.9867619 1.79742188,15.9867619 L8.00001563,15.9867619 L8.00001563,0.013 L1.79742188,0.013 Z" id="Green" fill="#4CAF50"></path>
                <rect id="White" fill="#FFFFFF" x="8" y="0" width="8.00015625" height="15.9738095"></rect>
                <path d="M22.2025781,0.013 L15.9999844,0.013 L15.9999844,15.9867143 L22.2025781,15.9867143 C23.19525,15.9867143 24,15.1692381 24,14.1607619 L24,1.83895238 C24,0.83047619 23.1952969,0.013 22.2025781,0.013 Z" id="Red" fill="#F44336"></path>
                <polygon id="Yellow" fill="#FFCA28" points="12.7136719 8.37585714 12 8.73838095 12 9.10090476 12.3568594 9.10090476"></polygon>
                <g id="Bird" transform="translate(11.200000, 4.800000)">
                    <polygon id="Shape" fill="#732D37" points="0.517484375 2.76019048 0.1235 3.37952381 0.0565625 3.58342857 1.08251562 3.3417619"></polygon>
                    <path d="M1.15685937,1.76333333 C1.15685937,1.76333333 1.51371875,1.03833333 0.8,0.675809524 C0.8,0.675809524 3.29792187,0.313285714 2.9410625,3.57595238 L2.94092187,3.57580952 C2.70673437,3.38547619 2.35901562,3.03761905 2.23484375,2.76028571 L1.15685937,2.12585714 L1.15685937,1.76333333 Z" id="Shape" fill="#874150"></path>
                    <path d="M0.8,2.48833333 L2.58420312,3.57585714 C2.58420312,3.57585714 2.58420312,3.57585714 1.87053125,3.93838095 L0.8,2.85085714 L0.8,2.48833333 Z" id="Shape" fill="#732D37"></path>
                    <path d="M0.086328125,1.40080952 C0.283390625,1.40080952 0.4431875,1.56314286 0.4431875,1.76333333 L0.4428125,1.7637619 C0.22990625,1.98004762 0.177171875,2.31038095 0.311796875,2.58395238 L0.392421875,2.74780952 C0.42603125,2.81609524 0.47028125,2.87847619 0.5234375,2.93247619 L1.51371875,3.93852381 L1.51371875,3.43752381 C1.51371875,2.81338095 1.37065625,2.19780952 1.09592187,1.63957143 C0.9145625,1.27114286 0.543875,1.03838095 0.13840625,1.03838095 L0.086328125,1.03838095 L0.086328125,1.40080952 Z" id="Shape" fill="#783C46"></path>
                    <path d="M2.23484375,2.76019048 C2.3538125,3.11514286 2.60651563,3.43990476 2.94092188,3.57571429 L2.9410625,3.57585714 C3.29792188,0.313285714 0.8,0.675809524 0.8,0.675809524 C2.58420313,0.675809524 2.23484375,2.76019048 2.23484375,2.76019048 Z" id="Shape" fill="#9B4B5A"></path>
                </g>
                <path d="M12,10.0071905 C11.901375,10.0071905 11.8215469,9.92609524 11.8215469,9.82595238 L11.8215469,9.10095238 C11.8215469,9.0007619 11.901375,8.91966667 12,8.91966667 C12.098625,8.91966667 12.1784062,9.0007619 12.1784062,9.10095238 L12.1784062,9.82595238 C12.1784062,9.92609524 12.098625,10.0071905 12,10.0071905 Z M12,9.28219048 C11.2991719,9.28219048 10.6224375,9.00747619 10.0943437,8.50866667 C10.0222031,8.44052381 10.0180312,8.32580952 10.0851562,8.25257143 C10.15275,8.17947619 10.2655312,8.17557143 10.3372969,8.24314286 C10.7992031,8.67947619 11.3897344,8.91966667 12.0000937,8.91966667 C12.6104531,8.91966667 13.2009844,8.67947619 13.6628906,8.24314286 C13.7348437,8.17538095 13.8475781,8.17909524 13.9149844,8.25257143 C13.9820625,8.32585714 13.9778906,8.44052381 13.9057969,8.50866667 C13.3775625,9.00747619 12.7008281,9.28219048 12,9.28219048 Z" id="Teal" fill="#00C3A0"></path>
                <path d="M12,10.0071905 C11.5425937,10.0071905 11.0995313,9.87142857 10.718625,9.61442857 L10.9162031,9.31242857 C11.5602187,9.74714286 12.4397812,9.74714286 13.08375,9.31242857 L13.2813281,9.61442857 C12.9004687,9.87142857 12.4574062,10.0071905 12,10.0071905 Z" id="Shape" fill="#42A5F5"></path>
                <path d="M10.9080469,8.58261905 C10.4363906,8.58261905 9.87023437,8.17938095 9.72004687,7.28090476 L10.0720312,7.22038095 C10.1968125,7.96752381 10.6493437,8.22061905 10.9209375,8.21995238 C11.0042344,8.21761905 11.0911406,8.18842857 11.0979844,8.12861905 C11.106,8.05709524 11.1079219,8.04014286 10.9213125,7.97604762 C10.819875,7.94114286 10.7048906,7.90171429 10.6242187,7.80790476 C10.2978281,7.42928571 10.7397187,7.02857143 10.9520156,6.836 C10.9894687,6.802 11.0049844,6.77314286 11.001,6.76219048 C10.9893281,6.73119048 10.9192969,6.68433333 10.8403594,6.68433333 C10.6136719,6.68433333 10.4416875,6.5542381 10.3917187,6.345 C10.3397812,6.12833333 10.4378906,5.9 10.6246875,5.80195238 L10.7885156,6.12409524 C10.7447344,6.14709524 10.7273906,6.21257143 10.7385,6.25933333 C10.7428594,6.27809524 10.7535,6.32180952 10.8404531,6.32180952 C11.0589375,6.32180952 11.2668281,6.45280952 11.3344219,6.633 C11.3633437,6.70980952 11.4068906,6.90947619 11.1898125,7.10647619 C10.9554375,7.31909524 10.8151875,7.47909524 10.8929062,7.56919048 C10.9104844,7.58952381 10.9859531,7.61557143 11.0357812,7.63257143 C11.1964219,7.68780952 11.4954375,7.79047619 11.4525937,8.17014286 C11.4257344,8.40890476 11.2159687,8.57457143 10.9309219,8.58242857 C10.9231875,8.58242857 10.9155,8.58261905 10.9080469,8.58261905 Z M12,10.7321905 C10.3274531,10.7321905 8.9668125,9.34995238 8.9668125,7.65085714 L9.32367188,7.65085714 C9.32367188,9.15014286 10.5241875,10.3697143 12.0000469,10.3697143 C13.4759063,10.3697143 14.6764219,9.15014286 14.6764219,7.65085714 L15.0332813,7.65085714 C15.0331875,9.34995238 13.6725469,10.7321905 12,10.7321905 Z" id="Light-Green" fill="#66BB6A"></path>
                <path d="M12.1784063,10.1884286 L11.8215469,10.1884286 C11.6244844,10.1884286 11.4646875,10.0260952 11.4646875,9.82590476 C11.4646875,9.62571429 11.6244844,9.46338095 11.8215469,9.46338095 L12.1784063,9.46338095 C12.3754688,9.46338095 12.5352656,9.62571429 12.5352656,9.82590476 C12.5353125,10.0261429 12.3755156,10.1884286 12.1784063,10.1884286 Z" id="Orange" fill="#FFA726"></path>
                <path d="M11.2863281,5.83828571 C11.2863281,5.83828571 11.4767812,6.01266667 11.5214531,6.05580952 C11.5788281,6.11128571 11.5970156,6.22638095 11.4970312,6.27504762 C11.3539687,6.34471429 10.9294687,6.56333333 10.9294687,6.56333333 L10.9294687,6.20080952 L11.2863281,5.83828571 Z M9.343125,8.97252381 C9.2093858,8.97252381 9.10096875,8.86238586 9.10096875,8.72652381 C9.10096875,8.59066176 9.2093858,8.48052381 9.343125,8.48052381 C9.4768642,8.48052381 9.58528125,8.59066176 9.58528125,8.72652381 C9.58528125,8.86238586 9.4768642,8.97252381 9.343125,8.97252381 Z M9.8784375,9.84109524 C9.7446983,9.84109524 9.63628125,9.73095729 9.63628125,9.59509524 C9.63628125,9.45923319 9.7446983,9.34909524 9.8784375,9.34909524 C10.0121767,9.34909524 10.1205937,9.45923319 10.1205937,9.59509524 C10.1205937,9.73095729 10.0121767,9.84109524 9.8784375,9.84109524 Z M10.7479687,10.4977619 C10.6142295,10.4977619 10.5058125,10.387624 10.5058125,10.2517619 C10.5058125,10.1158999 10.6142295,10.0057619 10.7479687,10.0057619 C10.881708,10.0057619 10.990125,10.1158999 10.990125,10.2517619 C10.990125,10.387624 10.881708,10.4977619 10.7479687,10.4977619 Z M14.6826563,8.97252381 C14.548917,8.97252381 14.4405,8.86238586 14.4405,8.72652381 C14.4405,8.59066176 14.548917,8.48052381 14.6826563,8.48052381 C14.8163955,8.48052381 14.9248125,8.59066176 14.9248125,8.72652381 C14.9248125,8.86238586 14.8163955,8.97252381 14.6826563,8.97252381 Z M14.146875,9.84109524 C14.0131358,9.84109524 13.9047188,9.73095729 13.9047188,9.59509524 C13.9047188,9.45923319 14.0131358,9.34909524 14.146875,9.34909524 C14.2806142,9.34909524 14.3890313,9.45923319 14.3890313,9.59509524 C14.3890313,9.73095729 14.2806142,9.84109524 14.146875,9.84109524 Z M13.2773438,10.4977619 C13.1436045,10.4977619 13.0351875,10.387624 13.0351875,10.2517619 C13.0351875,10.1158999 13.1436045,10.0057619 13.2773438,10.0057619 C13.411083,10.0057619 13.5195,10.1158999 13.5195,10.2517619 C13.5195,10.387624 13.411083,10.4977619 13.2773438,10.4977619 Z" id="Yellow" fill="#FFCA28"></path>
            </g>
            <rect id="border" stroke-opacity="0.04" stroke="#000000" x="0.5" y="0.5" width="23" height="15" rx="2"></rect>
        </g>
    </g>
</svg>