<?xml version="1.0" encoding="UTF-8"?>
<svg width="24px" height="16px" viewBox="0 0 24 16" version="1.1" xmlns="http://www.w3.org/2000/svg" xmlns:xlink="http://www.w3.org/1999/xlink">
    <!-- Generator: Sketch 48.2 (47327) - http://www.bohemiancoding.com/sketch -->
    <title>icons/flags/new zealand nzd</title>
    <desc>Created with Sketch.</desc>
    <defs></defs>
    <g id="Symbols" stroke="none" stroke-width="1" fill="none" fill-rule="evenodd">
        <g id="icons/flags/new-zealand-nzd">
            <g id="Icon/Flag/New-Zealand" fill-rule="nonzero">
                <path d="M22.2025781,15.9868571 L1.79742187,15.9868571 C0.804703125,15.9868571 0,15.169381 0,14.1609048 L0,1.83909524 C0,0.830666667 0.804703125,0.0131428571 1.79742187,0.0131428571 L22.2025781,0.0131428571 C23.19525,0.0131428571 24,0.830619048 24,1.83909524 L24,14.1609524 C24,15.169381 23.1952969,15.9868571 22.2025781,15.9868571 Z" id="BG-Blue" fill="#0D47A1"></path>
                <path d="M0.4138125,8 L1.13259375,8 L4.9655625,5.44885714 L4.9655625,8 L7.03453125,8 L7.03453125,5.44885714 L10.8674531,8 L11.5862344,8 C11.8147969,8 12.0000469,7.8117619 12.0000469,7.57961905 L12.0000469,7.24619048 L8.71153125,5.05747619 L12,5.05747619 L12,2.95566667 L8.71148438,2.95566667 L12,0.766952381 L12,0.43352381 C12,0.201380952 11.8147969,0.0131428571 11.5861875,0.0131428571 L10.8674063,0.0131428571 L7.0344375,2.56428571 L7.0344375,0.0131428571 L4.96546875,0.0131428571 L4.96546875,2.56428571 L1.2583125,0.0968571429 C0.82546875,0.234952381 0.46359375,0.535095238 0.240609375,0.927047619 L3.2885625,2.95566667 L0,2.95566667 L0,5.05747619 L3.28851563,5.05747619 L0,7.24619048 L0,7.57961905 C0,7.8117619 0.185296875,8 0.4138125,8 Z" id="White" fill="#FFFFFF"></path>
                <path d="M12,3.37604762 L12,4.63709524 L6.62067188,4.63709524 L6.62067188,8 L5.37932812,8 L5.37932812,4.63709524 L0,4.63709524 L0,3.37604762 L5.37932812,3.37604762 L5.37932812,0.0131428571 L6.62067188,0.0131428571 L6.62067188,3.37604762 L12,3.37604762 Z M0.385640625,0.709619048 C0.473296875,0.596761905 0.57365625,0.494714286 0.684703125,0.405666667 L4.55170313,2.95566667 L3.79167188,2.95566667 L0.385640625,0.709619048 Z M7.79451562,2.95566667 L7.03448437,2.95566667 L11.4967031,0.0131428571 L11.5861875,0.0131428571 C11.7380156,0.0131428571 11.8650469,0.100190476 11.9370469,0.223952381 L7.79451562,2.95566667 Z M4.19409375,5.05747619 L4.95417187,5.05747619 L0.491859375,8 L0.4138125,8 C0.259828125,8 0.13078125,7.91071429 0.059484375,7.78395238 L4.19409375,5.05747619 Z M11.9934375,7.61261905 C11.9810156,7.7667619 11.8905938,7.897 11.7587813,7.95914286 L7.3584375,5.05747619 L8.11846875,5.05747619 L11.9934375,7.61261905 Z" id="Red" fill="#F44336"></path>
                <path d="M18.5378437,13.3387143 C18.5210625,13.3387143 18.5041406,13.3333333 18.48975,13.3230952 L18,12.9675714 L17.5102031,13.3230952 C17.4958594,13.3333333 17.4788906,13.3387143 17.4621094,13.3387143 C17.4449531,13.3387143 17.4279844,13.3333333 17.4134531,13.3226667 C17.3847656,13.3013333 17.3724375,13.2635714 17.383125,13.2290952 L17.5647656,12.6461429 L17.0806875,12.2832857 C17.052,12.2615238 17.0400937,12.2241905 17.0510156,12.1897143 C17.062125,12.1552381 17.0934375,12.1318095 17.1292031,12.1314286 L17.731125,12.1264762 L17.9214844,11.5464286 C17.9328281,11.512381 17.9645156,11.4889524 18.0000937,11.4889524 C18.0356719,11.4889524 18.0674062,11.5123333 18.0787031,11.5464286 L18.2690625,12.1264762 L18.8709844,12.1314286 C18.90675,12.1318571 18.9380625,12.1552381 18.9491719,12.1897143 C18.9600937,12.2241905 18.9481406,12.2615238 18.9195,12.2832857 L18.4354219,12.6461429 L18.6170625,13.2290952 C18.62775,13.2635714 18.6154687,13.3013333 18.5867344,13.3226667 C18.5720156,13.3333333 18.5548594,13.3387143 18.5378437,13.3387143 Z M18.5378437,6.56157143 C18.520875,6.56157143 18.5041406,6.55619048 18.48975,6.54595238 L18,6.19009524 L17.5102031,6.546 C17.4958594,6.5562381 17.4788906,6.56161905 17.4621094,6.56161905 C17.4451406,6.56161905 17.4279844,6.5562381 17.4134531,6.54557143 C17.3847656,6.5242381 17.3724375,6.48647619 17.383125,6.452 L17.5647656,5.86904762 L17.0806875,5.5057619 C17.052,5.484 17.0400937,5.4462381 17.0510156,5.41219048 C17.062125,5.37771429 17.093625,5.35428571 17.1292031,5.35390476 L17.731125,5.34938095 L17.9214844,4.76933333 C17.9328281,4.73528571 17.9645156,4.71185714 18.0000937,4.71185714 C18.0356719,4.71185714 18.0674062,4.7352381 18.0787031,4.76933333 L18.2690625,5.34938095 L18.8709844,5.35390476 C18.9065625,5.35433333 18.9380625,5.37771429 18.9491719,5.41219048 C18.9600937,5.4462381 18.9481406,5.484 18.9195,5.5057619 L18.4354219,5.86904762 L18.6170625,6.452 C18.62775,6.48647619 18.6154687,6.5242381 18.5867344,6.54557143 C18.5720156,6.5562381 18.5548594,6.56157143 18.5378437,6.56157143 Z M21.4343906,8.66338095 C21.4174219,8.66338095 21.4006875,8.658 21.3862969,8.6477619 L20.8965938,8.29185714 L20.4067969,8.6477619 C20.3924531,8.658 20.3754844,8.66338095 20.3587031,8.66338095 C20.3417344,8.66338095 20.3245781,8.658 20.3100469,8.64733333 C20.2813594,8.626 20.2690313,8.5882381 20.2797188,8.5537619 L20.4613594,7.97080952 L19.9772813,7.60752381 C19.9485938,7.5857619 19.9366875,7.548 19.9476094,7.51395238 C19.9587188,7.47947619 19.9902188,7.45604762 20.0257969,7.45566667 L20.6277188,7.45114286 L20.8180781,6.87109524 C20.8294219,6.83704762 20.8611094,6.81361905 20.8966875,6.81361905 C20.9322656,6.81361905 20.964,6.837 20.9752969,6.87109524 L21.1656563,7.45114286 L21.7675781,7.45566667 C21.8031563,7.45609524 21.8346563,7.47947619 21.8457656,7.51395238 C21.8566875,7.548 21.8447344,7.5857619 21.8160938,7.60752381 L21.3320156,7.97080952 L21.5136563,8.5537619 C21.5243438,8.5882381 21.5120625,8.626 21.4833281,8.64733333 C21.4685625,8.658 21.4514063,8.66338095 21.4343906,8.66338095 Z M15.6412969,9.50409524 C15.6243281,9.50409524 15.6075937,9.49871429 15.5932031,9.48847619 L15.1035,9.13257143 L14.6137031,9.48847619 C14.5993594,9.49871429 14.5823906,9.50409524 14.5656094,9.50409524 C14.5486406,9.50409524 14.5314844,9.49871429 14.5169531,9.48804762 C14.4882656,9.46671429 14.4759375,9.42895238 14.486625,9.39447619 L14.6682656,8.81152381 L14.1841875,8.4482381 C14.1555,8.42647619 14.1435937,8.38871429 14.1545156,8.35466667 C14.165625,8.32019048 14.197125,8.2967619 14.2327031,8.29638095 L14.834625,8.29185714 L15.0249844,7.71180952 C15.0363281,7.6777619 15.0680156,7.65433333 15.1035937,7.65433333 C15.1391719,7.65433333 15.1709062,7.67771429 15.1822031,7.71180952 L15.3725625,8.29185714 L15.9744844,8.29638095 C16.0100625,8.29680952 16.0415625,8.32019048 16.0526719,8.35466667 C16.0635937,8.38871429 16.0516406,8.42647619 16.023,8.4482381 L15.5389219,8.81152381 L15.7205625,9.39447619 C15.73125,9.42895238 15.7189687,9.46671429 15.6902344,9.48804762 C15.6754687,9.4987619 15.6583125,9.50409524 15.6412969,9.50409524 Z" id="Stars-red" stroke="#FFFFFF" stroke-width="0.2" fill="#F44336"></path>
            </g>
            <rect id="border" stroke-opacity="0.04" stroke="#000000" x="0.5" y="0.5" width="23" height="15" rx="2"></rect>
        </g>
    </g>
</svg>