<?xml version="1.0" encoding="UTF-8"?>
<svg width="24px" height="16px" viewBox="0 0 24 16" version="1.1" xmlns="http://www.w3.org/2000/svg" xmlns:xlink="http://www.w3.org/1999/xlink">
    <!-- Generator: Sketch 48.2 (47327) - http://www.bohemiancoding.com/sketch -->
    <title>icons/flags/sweden sek</title>
    <desc>Created with Sketch.</desc>
    <defs></defs>
    <g id="Symbols" stroke="none" stroke-width="1" fill="none" fill-rule="evenodd">
        <g id="icons/flags/sweden-sek">
            <g id="Icon/Flag/Sweden" fill-rule="nonzero">
                <path d="M22.2025781,0.0130952381 L1.79742187,0.0130952381 C0.804703125,0.0130952381 0,0.830571429 0,1.83904762 L0,14.1609524 C0,15.169381 0.804703125,15.9869048 1.79742187,15.9869048 L22.2025781,15.9869048 C23.19525,15.9869048 24,15.1694286 24,14.1609524 L24,1.83904762 C24,0.830571429 23.1952969,0.0130952381 22.2025781,0.0130952381 Z" id="Blue" fill="#0D47A1"></path>
                <polygon id="Yellow" fill="#FFEB3B" points="24 6.73885714 9.93103125 6.73885714 9.93103125 0.0130952381 7.44829687 0.0130952381 7.44829687 6.73885714 0 6.73885714 0 9.26104762 7.44829687 9.26104762 7.44829687 15.9868571 9.93103125 15.9868571 9.93103125 9.26104762 24 9.26104762"></polygon>
            </g>
            <rect id="border" stroke-opacity="0.04" stroke="#000000" x="0.5" y="0.5" width="23" height="15" rx="2"></rect>
        </g>
    </g>
</svg>