<svg xmlns="http://www.w3.org/2000/svg" xmlns:xlink="http://www.w3.org/1999/xlink" width="24" height="16" viewBox="0 0 24 16">
  <title>singapore</title>
  <g>
      <path d="M2,0H0V2A2,2,0,0,1,2,0M24,0H22a2,2,0,0,1,2,2V0" transform="translate(0 0)" fill="#fff"/>
      <path d="M5.94,6.17a.42.42,0,1,1,.44-.42.43.43,0,0,1-.44.42m1.75,0a.42.42,0,1,1,0-.84.42.42,0,1,1,0,.84M5.06,4.5a.42.42,0,0,1-.43-.42.42.42,0,0,1,.43-.41.43.43,0,0,1,.44.41.43.43,0,0,1-.44.42m3.5,0a.43.43,0,0,1-.44-.42.44.44,0,0,1,.88,0H9a.43.43,0,0,1-.44.42M6.81,3.25a.42.42,0,0,1-.43-.42.42.42,0,0,1,.43-.41.43.43,0,0,1,.44.41.43.43,0,0,1-.44.42M4.63,2h0a2.67,2.67,0,0,1,1.63.55,2.09,2.09,0,0,0-.76-.13A2.14,2.14,0,0,0,3.31,4.5,2.14,2.14,0,0,0,5.5,6.58a2.09,2.09,0,0,0,.76-.13h0A2.67,2.67,0,0,1,4.63,7h0A2.57,2.57,0,0,1,2,4.5H2A2.57,2.57,0,0,1,4.63,2M21.5,1H2.5A1.5,1.5,0,0,0,1,2.5V8H23V2.5A1.5,1.5,0,0,0,21.5,1M2.5,0H2A2,2,0,0,0,0,2v.5H0A2.5,2.5,0,0,1,2.5,0M22,0h-.5A2.5,2.5,0,0,1,24,2.5V8h0V2a2,2,0,0,0-2-2" transform="translate(0 0)" fill="#e12237"/>
      <path d="M5.94,5.33a.42.42,0,1,0,.44.42.43.43,0,0,0-.44-.42m1.75,0a.42.42,0,1,0,0,.84.42.42,0,1,0,0-.84M5.06,3.67a.42.42,0,0,0-.43.41.42.42,0,0,0,.43.42.43.43,0,0,0,.44-.42.43.43,0,0,0-.44-.41m3.5,0a.43.43,0,0,0-.44.41.44.44,0,0,0,.88,0H9a.43.43,0,0,0-.44-.41M6.81,2.42a.42.42,0,0,0-.43.41.42.42,0,0,0,.43.42.43.43,0,0,0,.44-.42.43.43,0,0,0-.44-.41M4.63,2h0A2.57,2.57,0,0,0,2,4.5H2A2.57,2.57,0,0,0,4.63,7h0a2.67,2.67,0,0,0,1.63-.55,2.09,2.09,0,0,1-.76.13A2.14,2.14,0,0,1,3.31,4.5,2.14,2.14,0,0,1,5.5,2.42a2.09,2.09,0,0,1,.76.13A2.67,2.67,0,0,0,4.63,2" transform="translate(0 0)" fill="#fff"/>
      <path d="M0,8H0v8H24V14a2,2,0,0,1-2,2H2a2,2,0,0,1-2-2V8" transform="translate(0 0)" fill="#fff"/>
      <path d="M24,8h0v5.5A2.5,2.5,0,0,1,21.5,16H2.5A2.5,2.5,0,0,1,0,13.5H0V14a2,2,0,0,0,2,2H22a2,2,0,0,0,2-2V8" transform="translate(0 0)" fill="#fff"/>
      <path d="M23,8H1v5.5A1.5,1.5,0,0,0,2.5,15h19A1.5,1.5,0,0,0,23,13.5V8" transform="translate(0 0)" fill="#fff"/>
      <path d="M21.5,0H2.5A2.5,2.5,0,0,0,0,2.5V8H1V2.5A1.5,1.5,0,0,1,2.5,1h19A1.5,1.5,0,0,1,23,2.5V8h1V2.5A2.5,2.5,0,0,0,21.5,0" transform="translate(0 0)" fill="#d82135"/>
      <path d="M24,8H23v5.5A1.5,1.5,0,0,1,21.5,15H2.5A1.5,1.5,0,0,1,1,13.5V8H0v5.5A2.5,2.5,0,0,0,2.5,16h19A2.5,2.5,0,0,0,24,13.5V8" transform="translate(0 0)" fill="#f5f5f5"/>
  </g>
</svg>
