<svg xmlns="http://www.w3.org/2000/svg" width="24" height="16" viewBox="0 0 24 16">
  <title>south africa</title>
  <path d="M24,14a2,2,0,0,1-2,2H2l-.3,0,0,0H24V14" fill="#fff"/>
  <path d="M23,11H8.33L3,15H21.5A1.5,1.5,0,0,0,23,13.5V11m1,0h0v2.5A2.5,2.5,0,0,1,21.5,16H2.5a2.69,2.69,0,0,1-.7-.1L1.7,16,2,16H22a2,2,0,0,0,2-2V11" fill="#072cb4"/>
  <path d="M2,0H1.67l0,0L2,0M24,0H22a2,2,0,0,1,2,2V0" fill="#fff"/>
  <path d="M21.5,1H3L8.33,5H23V2.5A1.5,1.5,0,0,0,21.5,1M2.5,0H2L1.7,0,1.8.1A2.32,2.32,0,0,1,2.5,0M22,0h-.5A2.5,2.5,0,0,1,24,2.5V2a2,2,0,0,0-2-2" fill="#f44e46"/>
  <path d="M1,5.6H1L2.79,7,1,5.6M6.67,5H1.85L5.6,8,1.85,11H6.67L8,10H23V6H8L6.67,5" fill="#06a86e"/>
  <path d="M0,12.48H0V14a2,2,0,0,0,.67,1.5l.17-.13A2.52,2.52,0,0,1,0,13.5v-1M6.67,11H1.85L1,11.68V13.5a1.51,1.51,0,0,0,.67,1.25l5-3.75" fill="#06a86e"/>
  <path d="M0,4.8H0M1.67,1.25A1.51,1.51,0,0,0,1,2.5V4.32L1.85,5H6.67l-5-3.75M.67.5A2,2,0,0,0,0,2v.5A2.52,2.52,0,0,1,.84.63L.67.5" fill="#06a86e"/>
  <path d="M23,10H8L6.67,11H23V10M8.17,5.5h0l.3-.4-.3.4m.3-.4h0M23,5H6.67L8,6H23V5m1,0h0V5" fill="#fff"/>
  <path d="M.84,15.37l-.17.13a2,2,0,0,0,1,.48l.1-.08a2.44,2.44,0,0,1-1-.53M8.33,11H6.67l-5,3.75A1.48,1.48,0,0,0,2.5,15H3l5.33-4" fill="#fff"/>
  <path d="M24,5h0M3,1H2.5a1.48,1.48,0,0,0-.83.25L6.67,5H8.33L3,1M1.7,0A2,2,0,0,0,.67.5L.84.63A2.44,2.44,0,0,1,1.8.1L1.7,0" fill="#fff"/>
  <polyline points="1 5.6 1 10.4 4 8 2.79 7.03 1 5.6" fill="#262626"/>
  <polyline points="1.85 5 1 5 1 5.6 2.79 7.03 4 8 1 10.4 1 11 1.85 11 5.6 8 1.85 5" fill="#ffbf2e"/>
  <polyline points="1.85 11 1 11 1 11.68 1.85 11" fill="#ffbf2e"/>
  <polyline points="1 4.32 1 5 1.85 5 1 4.32" fill="#ffbf2e"/>
  <path d="M24,11H23v2.5A1.5,1.5,0,0,1,21.5,15H3l-1.2.9a2.69,2.69,0,0,0,.7.1h19A2.5,2.5,0,0,0,24,13.5V11" fill="#072aad"/>
  <path d="M21.5,0H2.5a2.32,2.32,0,0,0-.7.1L3,1H21.5A1.5,1.5,0,0,1,23,2.5V5h1V2.5A2.5,2.5,0,0,0,21.5,0" fill="#ea4b43"/>
  <polyline points="24 6 23 6 23 10 24 10 24 6" fill="#06a16a"/>
  <path d="M1,11.68l-1,.8v1a2.52,2.52,0,0,0,.84,1.87l.83-.62A1.51,1.51,0,0,1,1,13.5V11.68" fill="#06a16a"/>
  <path d="M.84.63A2.52,2.52,0,0,0,0,2.5v1l1,.8V2.5a1.51,1.51,0,0,1,.67-1.25L.84.63" fill="#06a16a"/>
  <polyline points="24 5 23 5 23 6 24 6 24 10 23 10 23 11 24 11 24 5" fill="#f5f5f5"/>
  <path d="M1.67,14.75l-.83.62a2.44,2.44,0,0,0,1,.53L3,15H2.5a1.48,1.48,0,0,1-.83-.25" fill="#f5f5f5"/>
  <path d="M24,5h0M1.8.1a2.44,2.44,0,0,0-1,.53l.83.62A1.48,1.48,0,0,1,2.5,1H3L1.8.1" fill="#f5f5f5"/>
  <polyline points="0.25 5 0.25 5 1 5.6 0.25 5" fill="#06a16a"/>
  <polyline points="0 4.8 0 4.8 0.25 5 0 4.8" fill="#06a16a"/>
  <polyline points="0.25 5 0 5 0 11 0.25 11 1 10.4 1 5.6 0.25 5" fill="#252525"/>
  <polyline points="0.25 11 0 11 0 11.2 0.25 11" fill="#252525"/>
  <polyline points="0 4.8 0 5 0.25 5 0 4.8" fill="#252525"/>
  <polyline points="1 5 0.25 5 1 5.6 1 5" fill="#f5b82c"/>
  <polyline points="0 3.52 0 4.8 0.25 5 1 5 1 4.32 0 3.52" fill="#f5b82c"/>
  <polyline points="1 10.4 0.25 11 1 11 1 10.4" fill="#f5b82c"/>
  <polyline points="1 11 0.25 11 0 11.2 0 12.48 1 11.68 1 11" fill="#f5b82c"/>
</svg>
