<svg  xmlns="http://www.w3.org/2000/svg" xmlns:xlink="http://www.w3.org/1999/xlink" width="24" height="16" viewBox="0 0 24 16">
  <title>wallstreet</title>
  <g>
    <path d="M2,0H22a2,2,0,0,1,2,2V14a2,2,0,0,1-2,2H2a2,2,0,0,1-2-2V2A2,2,0,0,1,2,0" transform="translate(0 0)" fill="#4caf50"/>
    <g>
      <g>
        <rect x="4.52" y="6.06" width="15.4" height="3.94" fill="#4caf50"/>
        <text transform="translate(4.5 10)" font-size="5.5" fill="#fff" font-family="Arial-BoldMT, Arial" font-weight="700"><tspan letter-spacing="-0.06em">W</tspan><tspan x="4.89" y="0">ALL</tspan></text>
      </g>
    </g>
    <g>
      <g>
        <rect x="18.12" y="3.45" width="4.28" height="2.6" fill="#4caf50"/>
        <text transform="translate(18 6)" font-size="3.5" fill="#fff" font-family="Arial-BoldMT, Arial" font-weight="700">ST</text>
      </g>
    </g>
    <g>
      <path d="M2.5,1h19A1.5,1.5,0,0,1,23,2.5v11A1.5,1.5,0,0,1,21.5,15H2.5A1.5,1.5,0,0,1,1,13.5V2.5A1.5,1.5,0,0,1,2.5,1h0m19-1H2.5A2.5,2.5,0,0,0,0,2.5v11A2.5,2.5,0,0,0,2.5,16h19A2.5,2.5,0,0,0,24,13.5V2.5A2.5,2.5,0,0,0,21.5,0" transform="translate(0 0)" fill="#94cf96"/>
    </g>
  </g>
</svg>
