<svg xmlns="http://www.w3.org/2000/svg" width="32" height="32" viewBox="0 0 32 32">
    <g fill="none" fill-rule="evenodd">
        <g>
            <g>
                <g>
                    <g>
                        <g>
                            <g transform="translate(-24 -800) translate(0 120) translate(0 648) translate(0 28) translate(24 4)">
                                <path d="M0 0H32V32H0z"/>
                                <path fill="#E4E4E4" fill-rule="nonzero" d="M29.5 15H29c-.276 0-.5.224-.5.5s.224.5.5.5h.5c.276 0 .5-.224.5-.5s-.224-.5-.5-.5M6 15H5c-.276 0-.5.224-.5.5s.224.5.5.5h1c.276 0 .5-.224.5-.5S6.276 15 6 15zm3 0H8c-.276 0-.5.224-.5.5s.224.5.5.5h1c.276 0 .5-.224.5-.5S9.276 15 9 15zm3 0h-1c-.276 0-.5.224-.5.5s.224.5.5.5h1c.276 0 .5-.224.5-.5s-.224-.5-.5-.5zm3 0h-1c-.276 0-.5.224-.5.5s.224.5.5.5h1c.276 0 .5-.224.5-.5s-.224-.5-.5-.5zm3 0h-1c-.276 0-.5.224-.5.5s.224.5.5.5h1c.276 0 .5-.224.5-.5s-.224-.5-.5-.5zm3 0h-1c-.276 0-.5.224-.5.5s.224.5.5.5h1c.276 0 .5-.224.5-.5s-.224-.5-.5-.5zm3 0h-1c-.276 0-.5.224-.5.5s.224.5.5.5h1c.276 0 .5-.224.5-.5s-.224-.5-.5-.5zm3 0h-1c-.276 0-.5.224-.5.5s.224.5.5.5h1c.276 0 .5-.224.5-.5s-.224-.5-.5-.5zM3 15h-.5c-.276 0-.5.224-.5.5s.224.5.5.5H3c.276 0 .5-.224.5-.5S3.276 15 3 15"/>
                                <path fill="#84AAAF" fill-rule="nonzero" d="M2.027 15.678L6.022 28.65c.068.199.248.337.457.35.212.007.407-.12.486-.32L16.37 4.93l3.664 10.68c.09.262.375.401.636.31.26-.091.398-.378.308-.64L16.895 3.34c-.067-.211-.266-.35-.486-.34-.208-.004-.395.124-.467.32L6.578 27 3.02 15.378c-.083-.276-.372-.46-.646-.378-.274.083-.43.402-.347.678z"/>
                                <path fill="#84AAAF" fill-rule="nonzero" d="M21 15.72l.22-.45c.122-.249.019-.548-.23-.67s-.548-.019-.67.23l-.22.45c-.122.249-.019.548.23.67s.548.019.67-.23"/>
                                <path fill="#EF4852" fill-rule="nonzero" d="M20.07 15.7l.2.46c.052.122.152.218.277.265.124.047.263.042.383-.015.122-.05.218-.148.267-.27.049-.123.046-.26-.007-.38L21 15.3c-.114-.25-.406-.366-.66-.26-.122.053-.219.152-.267.276-.05.124-.046.262.007.384"/>
                                <circle cx="6.5" cy="28.5" r="1" fill="#FFF" fill-rule="nonzero"/>
                                <path fill="#84AAAF" fill-rule="nonzero" d="M6.5 28c.276 0 .5.224.5.5s-.224.5-.5.5-.5-.224-.5-.5.224-.5.5-.5m0-1c-.828 0-1.5.672-1.5 1.5S5.672 30 6.5 30 8 29.328 8 28.5 7.328 27 6.5 27z"/>
                                <circle cx="11.5" cy="15.5" r="1" fill="#FFF" fill-rule="nonzero"/>
                                <path fill="#84AAAF" fill-rule="nonzero" d="M11.5 15c.276 0 .5.224.5.5s-.224.5-.5.5-.5-.224-.5-.5.224-.5.5-.5m0-1c-.828 0-1.5.672-1.5 1.5s.672 1.5 1.5 1.5 1.5-.672 1.5-1.5-.672-1.5-1.5-1.5z"/>
                                <circle cx="16.5" cy="3.5" r="1" fill="#FFF" fill-rule="nonzero"/>
                                <path fill="#84AAAF" fill-rule="nonzero" d="M16.5 3c.276 0 .5.224.5.5s-.224.5-.5.5-.5-.224-.5-.5.224-.5.5-.5m0-1c-.828 0-1.5.672-1.5 1.5S15.672 5 16.5 5 18 4.328 18 3.5 17.328 2 16.5 2z"/>
                                <circle cx="20.5" cy="15.5" r="1" fill="#FFF" fill-rule="nonzero"/>
                                <path fill="#84AAAF" fill-rule="nonzero" d="M20.5 15c.276 0 .5.224.5.5s-.224.5-.5.5-.5-.224-.5-.5.224-.5.5-.5m0-1c-.828 0-1.5.672-1.5 1.5s.672 1.5 1.5 1.5 1.5-.672 1.5-1.5-.672-1.5-1.5-1.5zM21.947 12.724l.447-.895c.124-.247.024-.547-.223-.67-.247-.124-.548-.024-.671.223l-.447.894c-.124.247-.024.548.223.671.247.124.548.024.671-.223zm1.342-2.684l.447-.894c.124-.247.023-.547-.224-.67-.247-.124-.547-.024-.67.223l-.448.894c-.123.247-.023.547.224.67.247.124.547.024.67-.223zm1.341-2.683l.317-.633c.124-.247.024-.548-.223-.671-.247-.124-.548-.024-.671.223l-.317.634c-.123.247-.023.547.224.67.247.124.547.024.67-.223z"/>
                                <path fill="#EF4852" fill-rule="nonzero" d="M21.04 18.697l.394.92c.11.253.403.37.657.262.254-.11.371-.403.262-.657l-.393-.919c-.11-.254-.403-.371-.657-.263-.254.11-.371.403-.263.657zm1.182 2.757l.394.92c.109.253.403.37.657.262.253-.109.371-.403.262-.656l-.394-.92c-.108-.253-.402-.37-.656-.262-.254.109-.372.403-.263.656zm1.182 2.758l.394.919c.109.254.403.371.656.263.254-.11.372-.403.263-.657l-.394-.92c-.109-.253-.403-.37-.656-.262-.254.11-.372.403-.263.657z"/>
                            </g>
                            <path fill="#85ACB0" fill-rule="nonzero" d="M27.82 2.109l.066.061 2.004 2.083c.173.196.138.482-.077.64-.192.139-.462.13-.64-.012l-.063-.059-1.115-1.075v2.798c0 .251-.223.455-.5.455-.245 0-.44-.16-.482-.373l-.008-.082V3.752L25.89 4.82c-.153.174-.419.219-.628.117l-.075-.046c-.192-.139-.241-.38-.129-.57l.05-.068 1.996-2.083c.16-.182.435-.219.642-.11l.074.048z" transform="translate(-24 -800) translate(0 120) translate(0 648) translate(0 28) translate(24 4)"/>
                            <path fill="#FF444F" fill-rule="nonzero" d="M27.82 25.109l.066.061 2.004 2.083c.173.196.138.482-.077.64-.192.139-.462.13-.64-.012l-.063-.059-1.115-1.075v2.798c0 .251-.223.455-.5.455-.245 0-.44-.16-.482-.373l-.008-.082v-2.793L25.89 27.82c-.153.174-.419.219-.628.117l-.075-.046c-.192-.139-.241-.38-.129-.57l.05-.068 1.996-2.083c.16-.182.435-.219.642-.11l.074.048z" transform="translate(-24 -800) translate(0 120) translate(0 648) translate(0 28) translate(24 4) rotate(-180 27.5 27.5)"/>
                        </g>
                    </g>
                </g>
            </g>
        </g>
    </g>
</svg>
