<?xml version="1.0" encoding="UTF-8"?>
<svg width="16px" height="16px" viewBox="0 0 16 16" version="1.1" xmlns="http://www.w3.org/2000/svg" xmlns:xlink="http://www.w3.org/1999/xlink">
    <!-- Generator: Sketch 49 (51002) - http://www.bohemiancoding.com/sketch -->
    <title>icons/system/light/sidebar/volatility/ic-volatility-active</title>
    <desc>Created with Sketch.</desc>
    <defs></defs>
    <g id="icons/system/light/sidebar/volatility/ic-volatility-active" stroke="none" stroke-width="1" fill="none" fill-rule="evenodd">
        <circle id="Oval" fill="#4C5794" cx="8" cy="8" r="8"></circle>
        <g id="ic-volatility-active-light" transform="translate(1.000000, 2.000000)">
            <path d="M9.5,10.2071068 L8.85355339,10.8535534 L8.14644661,10.1464466 L10,8.29289322 L11.8535534,10.1464466 L11.1464466,10.8535534 L10.5,10.2071068 L10.5,12.0002011 L9.5,12.0002011 L9.5,10.2071068 Z M2.5,2.79289322 L2.5,1 L3.5,1 L3.5,2.79289322 L4.14644661,2.14644661 L4.85355339,2.85355339 L3,4.70710678 L1.14644661,2.85355339 L1.85355339,2.14644661 L2.5,2.79289322 Z M3,6.70692701 L1.35355339,8.35337362 L0.646446609,7.64626684 L3,5.29271345 L5,7.29271345 L8,4.29271345 L10.0000106,6.29272404 L12.6464572,3.64643602 L13.3535428,4.35356398 L9.99998941,7.70691642 L8,5.70692701 L5,8.70692701 L3,6.70692701 Z" id="Combined-Shape" fill="#FFFFFF" fill-rule="nonzero"></path>
            <g id="Group" transform="translate(1.000000, 1.000000)"></g>
            <g id="Group-Copy-2" transform="translate(8.000000, 8.000000)"></g>
        </g>
    </g>
</svg>