<?xml version="1.0" encoding="UTF-8"?>
<svg width="16px" height="16px" viewBox="0 0 16 16" version="1.1" xmlns="http://www.w3.org/2000/svg" xmlns:xlink="http://www.w3.org/1999/xlink">
    <!-- Generator: Sketch 49.3 (51167) - http://www.bohemiancoding.com/sketch -->
    <title>icons/system/light/chart settings/chart template/ic-charttemplate-normal</title>
    <desc>Created with Sketch.</desc>
    <defs></defs>
    <g id="icons/system/light/chart-settings/chart-template/ic-charttemplate-normal" stroke="none" stroke-width="1" fill-rule="evenodd">
        <g id="Group" transform="translate(2.000000, 0.000000)" >
            <path d="M1,1 L1,15 L11,15 L11,1 L1,1 Z M1,0 L11,0 C11.5522847,0 12,0.44771525 12,1 L12,15 C12,15.5522847 11.5522847,16 11,16 L1,16 C0.44771525,16 0,15.5522847 0,15 L0,1 C0,0.44771525 0.44771525,0 1,0 Z" id="paper" fill-rule="nonzero"></path>
            <path d="M2.7598125,6.53408348 L3.53435186,5.76081068 C3.51194936,5.67766218 3.5,5.59022655 3.5,5.5 C3.5,4.94771525 3.94771525,4.5 4.5,4.5 C5.05228475,4.5 5.5,4.94771525 5.5,5.5 C5.5,5.5886449 5.48846591,5.67459587 5.46681663,5.75643402 L6.24356598,6.53318337 C6.32540413,6.51153409 6.4113551,6.5 6.5,6.5 C6.59051329,6.5 6.6782179,6.51202543 6.76160329,6.53456576 L8.53456576,4.76160329 C8.51202543,4.6782179 8.5,4.59051329 8.5,4.5 C8.5,3.94771525 8.94771525,3.5 9.5,3.5 C10.0522847,3.5 10.5,3.94771525 10.5,4.5 C10.5,5.05228475 10.0522847,5.5 9.5,5.5 C9.4113551,5.5 9.32540413,5.48846591 9.24356598,5.46681663 L7.46681663,7.24356598 C7.48846591,7.32540413 7.5,7.4113551 7.5,7.5 C7.5,8.05228475 7.05228475,8.5 6.5,8.5 C5.94771525,8.5 5.5,8.05228475 5.5,7.5 C5.5,7.40948671 5.51202543,7.3217821 5.53456576,7.23839671 L4.76160329,6.46543424 C4.6782179,6.48797457 4.59051329,6.5 4.5,6.5 C4.41106852,6.5 4.32484841,6.48839121 4.24277238,6.46660634 L3.46633959,7.24176948 C3.48829643,7.32414595 3.5,7.41070622 3.5,7.5 C3.5,8.05228475 3.05228475,8.5 2.5,8.5 C1.94771525,8.5 1.5,8.05228475 1.5,7.5 C1.5,6.94771525 1.94771525,6.5 2.5,6.5 C2.58986558,6.5 2.67696252,6.51185393 2.7598125,6.53408348 Z" id="chart" fill-rule="nonzero"></path>
            <path d="M2.5,10 L6.5,10 C6.77614237,10 7,10.2238576 7,10.5 C7,10.7761424 6.77614237,11 6.5,11 L2.5,11 C2.22385763,11 2,10.7761424 2,10.5 C2,10.2238576 2.22385763,10 2.5,10 Z" id="details1"></path>
            <path d="M2.5,12 L4.5,12 C4.77614237,12 5,12.2238576 5,12.5 C5,12.7761424 4.77614237,13 4.5,13 L2.5,13 C2.22385763,13 2,12.7761424 2,12.5 C2,12.2238576 2.22385763,12 2.5,12 Z" id="detail2"></path>
        </g>
    </g>
</svg>
