<?xml version="1.0" encoding="UTF-8"?>
<svg width="16px" height="16px" viewBox="0 0 16 16" version="1.1" xmlns="http://www.w3.org/2000/svg" xmlns:xlink="http://www.w3.org/1999/xlink">
    <!-- Generator: Sketch 49 (51002) - http://www.bohemiancoding.com/sketch -->
    <title>icons/system/light/chart settings/chart template/ic-charttemplate-active</title>
    <desc>Created with Sketch.</desc>
    <defs>
        <path d="M3,0 L13,0 C13.5522847,0 14,0.44771525 14,1 L14,15 C14,15.5522847 13.5522847,16 13,16 L3,16 C2.44771525,16 2,15.5522847 2,15 L2,1 C2,0.44771525 2.44771525,0 3,0 Z" id="path-1"></path>
    </defs>
    <g id="icons/system/light/chart-settings/chart-template/ic-charttemplate-active" stroke="none" stroke-width="1" fill="none" fill-rule="evenodd">
        <g id="paper">
            <use fill="#FFFFFF" fill-rule="evenodd" xlink:href="#path-1"></use>
            <path stroke="#4C5794" stroke-width="1" d="M3,0.5 C2.72385763,0.5 2.5,0.723857625 2.5,1 L2.5,15 C2.5,15.2761424 2.72385763,15.5 3,15.5 L13,15.5 C13.2761424,15.5 13.5,15.2761424 13.5,15 L13.5,1 C13.5,0.723857625 13.2761424,0.5 13,0.5 L3,0.5 Z"></path>
        </g>
        <path d="M4.7598125,6.53408348 L5.53435186,5.76081068 C5.51194936,5.67766218 5.5,5.59022655 5.5,5.5 C5.5,4.94771525 5.94771525,4.5 6.5,4.5 C7.05228475,4.5 7.5,4.94771525 7.5,5.5 C7.5,5.5886449 7.48846591,5.67459587 7.46681663,5.75643402 L8.24356598,6.53318337 C8.32540413,6.51153409 8.4113551,6.5 8.5,6.5 C8.59051329,6.5 8.6782179,6.51202543 8.76160329,6.53456576 L10.5345658,4.76160329 C10.5120254,4.6782179 10.5,4.59051329 10.5,4.5 C10.5,3.94771525 10.9477153,3.5 11.5,3.5 C12.0522847,3.5 12.5,3.94771525 12.5,4.5 C12.5,5.05228475 12.0522847,5.5 11.5,5.5 C11.4113551,5.5 11.3254041,5.48846591 11.243566,5.46681663 L9.46681663,7.24356598 C9.48846591,7.32540413 9.5,7.4113551 9.5,7.5 C9.5,8.05228475 9.05228475,8.5 8.5,8.5 C7.94771525,8.5 7.5,8.05228475 7.5,7.5 C7.5,7.40948671 7.51202543,7.3217821 7.53456576,7.23839671 L6.76160329,6.46543424 C6.6782179,6.48797457 6.59051329,6.5 6.5,6.5 C6.41106852,6.5 6.32484841,6.48839121 6.24277238,6.46660634 L5.46633959,7.24176948 C5.48829643,7.32414595 5.5,7.41070622 5.5,7.5 C5.5,8.05228475 5.05228475,8.5 4.5,8.5 C3.94771525,8.5 3.5,8.05228475 3.5,7.5 C3.5,6.94771525 3.94771525,6.5 4.5,6.5 C4.58986558,6.5 4.67696252,6.51185393 4.7598125,6.53408348 Z" id="chart" fill="#4C5794" fill-rule="nonzero"></path>
        <path d="M4.5,10 L8.5,10 C8.77614237,10 9,10.2238576 9,10.5 C9,10.7761424 8.77614237,11 8.5,11 L4.5,11 C4.22385763,11 4,10.7761424 4,10.5 C4,10.2238576 4.22385763,10 4.5,10 Z" id="details1" fill="#4C5794"></path>
        <path d="M4.5,12 L6.5,12 C6.77614237,12 7,12.2238576 7,12.5 C7,12.7761424 6.77614237,13 6.5,13 L4.5,13 C4.22385763,13 4,12.7761424 4,12.5 C4,12.2238576 4.22385763,12 4.5,12 Z" id="detail2" fill="#4C5794"></path>
    </g>
</svg>