<svg xmlns="http://www.w3.org/2000/svg" xmlns:xlink="http://www.w3.org/1999/xlink" width="16" height="16" viewBox="0 0 16 16">
    <defs>
        <path id="a" d="M1 0h10a1 1 0 0 1 1 1v14a1 1 0 0 1-1 1H1a1 1 0 0 1-1-1V1a1 1 0 0 1 1-1z"/>
    </defs>
    <g fill="none" fill-rule="evenodd">
        <g transform="translate(2)">
            <use fill="#FFF" xlink:href="#a"/>
            <path stroke="#2A3052" d="M1 .5a.5.5 0 0 0-.5.5v14a.5.5 0 0 0 .5.5h10a.5.5 0 0 0 .5-.5V1a.5.5 0 0 0-.5-.5H1z"/>
        </g>
        <path fill="#2A3052" fill-rule="nonzero" d="M4.76 6.534l.774-.773A1.001 1.001 0 0 1 6.5 4.5a1 1 0 0 1 .967 1.256l.777.777a1.001 1.001 0 0 1 .518.002l1.773-1.773A1.001 1.001 0 1 1 12.5 4.5a1 1 0 0 1-1.256.967L9.467 7.244A1.001 1.001 0 0 1 8.5 8.5a1 1 0 0 1-.965-1.262l-.773-.773a1.001 1.001 0 0 1-.52.002l-.776.775A1.001 1.001 0 0 1 4.5 8.5a1 1 0 1 1 .26-1.966z"/>
        <path fill="#2A3052" d="M4.5 10h4a.5.5 0 1 1 0 1h-4a.5.5 0 1 1 0-1zM4.5 12h2a.5.5 0 1 1 0 1h-2a.5.5 0 1 1 0-1z"/>
    </g>
</svg>
