<svg width="32" height="32" fill="none" xmlns="http://www.w3.org/2000/svg"><path d="M22.5 13H24v9h-1.5v10h-1V22H20v-9h1.5v-2h1v2zM30 11v7h-1.5v4h-1v-4H26v-7h4zM16.5 20v-4h-1v4H14v8h1.5v2h1v-2H18v-8h-1.5zM10.5 15H12v6h-1.5v7h-1v-7H8v-6h1.5v-2h1v2zM4.5 19H6v4H4.5v2h-1v-2H2v-4h1.5v-2h1v2z" fill="#85ACB0"/><path d="M22 5a5 5 0 1110 0 5 5 0 01-10 0z" fill="#FF444F"/><path d="M24.253 7v-.726h1.128V3.466h-.054l-.852 1.116-.576-.45 1.002-1.32h1.38v3.462h.888V7h-2.916zM28.77 7.072c-.305 0-.56-.048-.769-.144-.208-.1-.394-.24-.558-.42l.522-.527c.112.123.236.221.372.293.136.072.29.109.462.109.176 0 .298-.027.366-.079a.273.273 0 00.102-.222c0-.147-.106-.236-.318-.263l-.342-.042c-.708-.088-1.062-.413-1.062-.973 0-.152.028-.29.084-.413a.942.942 0 01.246-.325c.108-.091.236-.161.384-.21.152-.051.322-.077.51-.077.164 0 .308.012.432.035.128.02.24.052.336.096.1.04.19.093.27.156.084.06.166.128.246.205l-.51.522c-.1-.1-.214-.179-.342-.234a.872.872 0 00-.384-.09c-.152 0-.26.023-.324.071a.228.228 0 00-.096.192c0 .084.022.15.066.199.048.043.136.075.264.096l.354.047c.692.093 1.038.409 1.038.949a.926.926 0 01-.096.42c-.064.128-.156.24-.276.336a1.293 1.293 0 01-.426.216 1.822 1.822 0 01-.552.077z" fill="#fff"/><path d="M0 2a2 2 0 012-2h15a2 2 0 012 2v6a2 2 0 01-2 2H2a2 2 0 01-2-2V2z" fill="#0E0E0E"/><path d="M4.4 4.624c.3 0 .515-.056.649-.168a.545.545 0 00.208-.432v-.056a.631.631 0 00-.2-.488c-.128-.122-.312-.184-.552-.184-.224 0-.435.059-.632.176a1.464 1.464 0 00-.504.488l-.752-.704a2.91 2.91 0 01.344-.376c.122-.117.261-.216.416-.296.154-.085.328-.149.52-.192.192-.048.408-.072.648-.072.298 0 .568.035.808.104.245.07.453.171.624.304.176.128.309.283.4.464.096.182.144.384.144.608 0 .176-.03.336-.088.48a1.248 1.248 0 01-.568.64 1.53 1.53 0 01-.408.136v.048c.165.032.317.086.456.16.144.07.266.16.368.272.106.112.189.246.248.4.058.15.088.32.088.512 0 .251-.051.478-.152.68a1.496 1.496 0 01-.432.52 2.09 2.09 0 01-.672.336c-.262.075-.55.112-.864.112-.283 0-.534-.029-.752-.088a2.362 2.362 0 01-.576-.232 2.254 2.254 0 01-.424-.344 2.85 2.85 0 01-.312-.408l.888-.688c.122.23.272.419.448.568.181.144.424.216.728.216.272 0 .482-.066.632-.2a.715.715 0 00.232-.56v-.048c0-.229-.088-.4-.264-.512-.171-.117-.408-.176-.712-.176H3.88v-1h.52zM9.502 8.096c-.731 0-1.272-.253-1.624-.76-.352-.506-.528-1.216-.528-2.128 0-.912.176-1.621.528-2.128.352-.506.893-.76 1.624-.76.73 0 1.272.254 1.624.76.352.507.528 1.216.528 2.128 0 .912-.176 1.622-.528 2.128-.352.507-.894.76-1.624.76zm0-1.016c.32 0 .54-.117.664-.352.122-.234.184-.565.184-.992V4.68c0-.426-.062-.757-.184-.992-.123-.234-.344-.352-.664-.352-.32 0-.542.118-.664.352-.123.235-.184.566-.184.992v1.056c0 .427.06.758.184.992.122.235.344.352.664.352zM14.298 8.096c-.73 0-1.272-.253-1.624-.76-.352-.506-.528-1.216-.528-2.128 0-.912.176-1.621.528-2.128.352-.506.894-.76 1.624-.76.731 0 1.272.254 1.624.76.352.507.528 1.216.528 2.128 0 .912-.176 1.622-.528 2.128-.352.507-.893.76-1.624.76zm0-1.016c.32 0 .542-.117.664-.352.123-.234.184-.565.184-.992V4.68c0-.426-.06-.757-.184-.992-.122-.234-.344-.352-.664-.352-.32 0-.54.118-.664.352-.122.235-.184.566-.184.992v1.056c0 .427.062.758.184.992.123.235.344.352.664.352z" fill="#fff"/></svg>