<?xml version="1.0" encoding="UTF-8"?>
<svg width="32px" height="32px" viewBox="0 0 32 32" version="1.1" xmlns="http://www.w3.org/2000/svg" xmlns:xlink="http://www.w3.org/1999/xlink">
    <!-- Generator: Sketch 57.1 (83088) - https://sketch.com -->
    <title>Bull Market</title>
    <desc>Created with Sketch.</desc>
    <g id="Bull-Market" stroke="none" stroke-width="1" fill="none" fill-rule="evenodd">
        <g id="Bull-2">
            <rect id="Rectangle" x="0" y="0" width="32" height="32"></rect>
            <circle id="Oval" fill="#84AAAF" fill-rule="nonzero" cx="16" cy="16" r="14"></circle>
            <path d="M25.33,13.1 L26.53,12 L26.81,10.42 L26,8.74 L25.28,8.12 L25.52,8.88 L25.52,10.29 L24.59,11.53 L22.75,12 L20.49,12.14 L20,11.56 L18.22,11.15 L15.78,11.49 L13.44,11.15 L11.66,11.56 L11.14,12.18 L8.85,12 L7,11.53 L6.1,10.29 L6.1,8.88 L6.34,8.12 L5.62,8.74 L4.79,10.46 L5.07,12 L6.27,13.06 C7.64699,13.65442 9.08584116,14.0937894 10.56,14.37 L10.56,15.23 L8.63,14.13 L7.74,14.03 L5.44,14.68 L6.19,15.88 L7.4,17 L8.71,17.38 L10.01,16.62 L10.56,16.62 L10.42,18.82 L10.77,20 L13,23.58 L12.89,24.06 L13.24,25.57 L14.47,26.57 L15.78,26.7 L15.88,26.7 L17.19,26.57 L18.42,25.57 L18.77,24.06 L18.66,23.58 L20.83,20 L21.17,18.73 L21,16.57 L21.55,16.57 L22.85,17.33 L24.2,17 L25.36,16 L26.12,14.8 L23.82,14.15 L22.93,14.25 L21,15.27 L21,14.41 C22.4874558,14.1352932 23.9397251,13.6959231 25.33,13.1 L25.33,13.1 Z" id="Path" fill="#FFFFFF" fill-rule="nonzero"></path>
        </g>
    </g>
</svg>