<svg width="32" height="32" fill="none" xmlns="http://www.w3.org/2000/svg"><circle cx="24" cy="24" r="8" fill="#0E0E0E"/><path d="M27.972 19.556s1.198 2.567-1.312 2.739l-.172-.4c-.17-.342-.57-.57-.912-.456l-1.541.4h-.057l-1.484-.343c-.4-.114-.799.114-.97.456l-.17.343c-2.512-.172-1.313-2.74-1.313-2.74-3.31 2.91.4 4.223.4 4.223l.456-.513-.343.77-.342.77 1.141.343.685 1.883c.114.399.171.799.114 1.198l-.057.456 1.255 1.142h1.37l1.255-1.142-.057-.513c-.057-.4 0-.799.114-1.198l.628-1.826 1.14-.343-.74-1.54.456.513s3.766-1.312.456-4.222z" fill="#fff"/><path d="M32 0h-8v2h4.586L19 11.586l-5-5-14 14v2.828l14-14 5 5 11-11V8h2V0z" fill="#85ACB0"/></svg>