<?xml version="1.0" encoding="UTF-8"?>
<svg width="32px" height="32px" viewBox="0 0 32 32" version="1.1" xmlns="http://www.w3.org/2000/svg" xmlns:xlink="http://www.w3.org/1999/xlink">
    <!-- Generator: Sketch 49.1 (51147) - http://www.bohemiancoding.com/sketch -->
    <title>icons/underlying assets/volatility/bull market/ic-marketbull</title>
    <desc>Created with Sketch.</desc>
    <defs>
        <circle id="bullmarket-path-1" cx="10" cy="10" r="10"></circle>
        <circle id="bullmarket-path-3" cx="10" cy="10" r="10"></circle>
    </defs>
    <g id="icons/underlying-assets/volatility/bull-market/ic-marketbull" stroke="none" stroke-width="1" fill="none" fill-rule="evenodd">
        <g id="Group" transform="translate(6.000000, 6.000000)">
            <mask id="mask-2" fill="white">
                <use xlink:href="#bullmarket-path-1"></use>
            </mask>
            <use id="Oval" fill="#FF9C00" xlink:href="#bullmarket-path-1"></use>
            <path d="M9.6076584,8.26115966 C10.6629559,8.80358845 11.5228319,9.57300391 12.1872863,10.569406 C12.5707272,11.1444061 12.2009826,12.5137438 12.7145809,13.6302876 C12.921319,14.0797287 13.3756788,14.6752181 14.0776601,15.4167557 L14.0776346,15.4167799 C14.3087302,15.6608976 14.2981737,16.046134 14.054056,16.2772296 C14.0359434,16.294376 14.0167941,16.3103928 13.9967163,16.3251895 C13.4592793,16.7212641 13.1159138,16.9865555 12.9666198,17.1210637 C12.5371655,17.5079859 12.4425543,17.9575701 12.12352,18.0644986 C11.5129608,18.2691355 10.7634712,17.9546572 9.87505126,17.1210637 C8.73363397,17.1934819 7.87535527,17.1934819 7.30021516,17.1210637 C6.9180855,17.0729482 6.5485328,16.8334354 5.95509862,16.6633009 C5.7552729,16.6060119 5.38917084,16.5479764 4.85679245,16.4891945 L3.75454782,17.7524113 C2.01590842,17.1317531 1.01288321,16.622522 0.745472186,16.2247178 C0.478061163,15.8269137 -0.812096232,12.9247763 -3.125,7.51830574 C-0.580577586,6.52105218 2.51041603,6.43854184 6.14798085,7.27077472 C10.8438699,4.6428787 10.5647783,8.00065741 13.781388,6.86791001 C14.6873477,6.54887113 15.4638738,5.62503357 16.1109663,4.09639733 C16.2933346,5.78992927 15.8258134,7.07708605 14.7084026,7.95786768 C13.5056093,8.79169691 12.3539269,8.87219022 11.3781877,8.58013281 C10.9052118,8.43856209 10.3150354,8.33223771 9.6076584,8.26115966 Z" id="Path-2" fill="#FFFFFF" mask="url(#mask-2)"></path>
            <mask id="mask-4" fill="white">
                <use xlink:href="#bullmarket-path-3"></use>
            </mask>
            <circle stroke="#FF9C00" stroke-width="1.25" cx="10" cy="10" r="9.375"></circle>
        </g>
    </g>
</svg>
