<svg xmlns="http://www.w3.org/2000/svg" width="25" height="24" viewBox="0 0 25 24">
    <path fill="#FFF" fill-rule="nonzero" d="M17.993 6.924c.012-.069.001-.14-.03-.203a.369.369 0 0 0-.488-.154 5.814 5.814 0 0 1-5.274.292 5.886 5.886 0 0 0-3.476-.356v-.15A.358.358 0 0 0 8.362 6c-.2 0-.362.158-.362.353v11.294c0 .195.162.353.362.353.2 0 .363-.158.363-.353v-4.765a5.026 5.026 0 0 1 3.242.292c.83.322 1.71.5 2.601.53a7.172 7.172 0 0 0 3.238-.861.347.347 0 0 0 .071-.055c.006-.006.014-.01.02-.015a.342.342 0 0 0 .066-.097l.01-.016a.34.34 0 0 0 .024-.122l.003-.01v-.008-5.564c0-.012-.006-.02-.007-.032z"/>
</svg>
