<?xml version="1.0" encoding="UTF-8"?>
<svg width="16px" height="16px" viewBox="0 0 16 16" version="1.1" xmlns="http://www.w3.org/2000/svg" xmlns:xlink="http://www.w3.org/1999/xlink">
    <!-- Generator: sketchtool 50.2 (55047) - http://www.bohemiancoding.com/sketch -->
    <title>F126A908-5947-4577-91F8-9B550D751072</title>
    <desc>Created with sketchtool.</desc>
    <defs></defs>
    <g id="setting" transform="translate(0.875000, 0.859375)" stroke="none"  fill-rule="nonzero">
        <path d="M14.153125,6.009375 L14.09375,5.634375 L12.9484375,5.2515625 C12.8484375,4.9421875 12.7234375,4.6390625 12.575,4.35 L13.115625,3.2703125 L12.89375,2.9609375 C12.44375,2.346875 11.90625,1.809375 11.2953125,1.365625 L10.9875,1.14375 L9.9078125,1.684375 C9.6171875,1.5359375 9.315625,1.4109375 9.00625,1.3109375 L8.625,0.16875 L8.253125,0.1109375 C7.8390625,0.0453125 7.48125,0.0140625 7.125,0.0140625 C6.778125,0.0140625 6.41875,0.0453125 5.9953125,0.1125 L5.6203125,0.171875 L5.2390625,1.31875 C4.9234375,1.421875 4.6203125,1.546875 4.3375,1.690625 L3.259375,1.1484375 L2.9515625,1.3703125 C2.3390625,1.8140625 1.8015625,2.35 1.3546875,2.965625 L1.1328125,3.275 L1.6734375,4.3546875 C1.5265625,4.64375 1.4015625,4.9453125 1.3015625,5.2546875 L0.15625,5.634375 L0.096875,6.009375 C0.03125,6.4234375 0,6.7921875 0,7.140625 C0,7.490625 0.03125,7.859375 0.096875,8.2703125 L0.15625,8.6453125 L1.3015625,9.028125 C1.4015625,9.3375 1.5265625,9.640625 1.675,9.9296875 L1.1375,11.00625 L1.359375,11.3125 C1.590625,11.634375 1.8296875,11.9171875 2.0890625,12.178125 C2.33125,12.421875 2.6140625,12.6609375 2.953125,12.909375 L3.2609375,13.13125 L4.3390625,12.590625 C4.6296875,12.7390625 4.93125,12.865625 5.240625,12.9640625 L5.621875,14.1109375 L5.996875,14.1703125 C6.4078125,14.2359375 6.7765625,14.2671875 7.125,14.2671875 C7.4734375,14.2671875 7.8421875,14.2359375 8.2546875,14.1703125 L8.6296875,14.1109375 L9.0109375,12.9640625 C9.3171875,12.8640625 9.61875,12.7390625 9.9109375,12.5921875 L10.990625,13.1328125 L11.2984375,12.9109375 C11.634375,12.66875 11.9171875,12.4296875 12.1625,12.1796875 C12.4171875,11.925 12.6546875,11.640625 12.8921875,11.3140625 L13.1140625,11.0046875 L12.5734375,9.925 C12.721875,9.6359375 12.846875,9.334375 12.946875,9.0234375 L14.0921875,8.640625 L14.1515625,8.265625 C14.2171875,7.8546875 14.2484375,7.4859375 14.2484375,7.1375 C14.253125,6.7921875 14.221875,6.421875 14.153125,6.009375 Z M13.1296875,7.128125 L13.1296875,7.1359375 C13.1296875,7.346875 13.115625,7.5609375 13.0890625,7.790625 L12.5359375,7.975 L12.046875,8.140625 L11.8953125,8.6328125 C11.809375,8.9171875 11.6953125,9.19375 11.55625,9.45625 L11.315625,9.9109375 L11.80625,10.890625 C11.6625,11.071875 11.5203125,11.2328125 11.371875,11.38125 L11.36875,11.384375 C11.2234375,11.53125 11.0625,11.6734375 10.88125,11.815625 L9.9046875,11.3265625 L9.4515625,11.5625 C9.184375,11.7015625 8.903125,11.8171875 8.6171875,11.9078125 L8.128125,12.0609375 L7.96875,12.5453125 L7.784375,13.0984375 C7.55625,13.1265625 7.340625,13.1390625 7.1296875,13.1390625 C6.9203125,13.1390625 6.7046875,13.125 6.475,13.0984375 L6.290625,12.5453125 L6.1296875,12.05625 L5.6375,11.9046875 C5.346875,11.815625 5.0703125,11.7015625 4.8140625,11.565625 L4.3578125,11.328125 L3.896875,11.5578125 L3.3765625,11.8171875 C3.1953125,11.6734375 3.034375,11.53125 2.8859375,11.3828125 C2.734375,11.23125 2.5921875,11.0703125 2.4515625,10.8921875 L2.9390625,9.915625 L2.7015625,9.4625 C2.559375,9.190625 2.44375,8.9125 2.359375,8.634375 L2.2078125,8.1421875 L1.1671875,7.796875 C1.1390625,7.56875 1.1265625,7.353125 1.1265625,7.1421875 C1.1265625,6.93125 1.140625,6.7171875 1.1671875,6.4875 L2.2046875,6.1421875 L2.35625,5.6515625 C2.44375,5.36875 2.559375,5.0890625 2.6984375,4.8203125 L2.9359375,4.3671875 L2.7078125,3.909375 L2.4484375,3.3890625 C2.721875,3.0484375 3.0328125,2.7375 3.3734375,2.4640625 L4.3515625,2.953125 L4.80625,2.7140625 C5.06875,2.5765625 5.3484375,2.4609375 5.6375,2.3703125 L6.1265625,2.2171875 L6.2890625,1.73125 L6.4734375,1.178125 C6.709375,1.1515625 6.9234375,1.1375 7.1265625,1.1375 C7.3359375,1.1375 7.5515625,1.1515625 7.7796875,1.178125 L8.1265625,2.2140625 L8.615625,2.365625 C8.9,2.4546875 9.1796875,2.5703125 9.446875,2.7078125 L9.9,2.9453125 L10.8765625,2.45625 C11.2171875,2.7296875 11.5296875,3.040625 11.80625,3.3828125 L11.31875,4.359375 L11.553125,4.8109375 C11.6921875,5.0796875 11.809375,5.3609375 11.8984375,5.646875 L12.0515625,6.1359375 L12.5375,6.2984375 L13.090625,6.4828125 C13.1203125,6.7171875 13.1328125,6.928125 13.1296875,7.128125 Z M7.128125,4.4171875 C5.6265625,4.4171875 4.4046875,5.6390625 4.4046875,7.140625 C4.4046875,8.6421875 5.6265625,9.8640625 7.128125,9.8640625 C8.6296875,9.8640625 9.8515625,8.6421875 9.8515625,7.140625 C9.8515625,5.6390625 8.6296875,4.4171875 7.128125,4.4171875 Z M8.2578125,8.2703125 C7.95625,8.571875 7.5546875,8.7390625 7.128125,8.7390625 C6.7015625,8.7390625 6.3,8.5734375 5.9984375,8.2703125 C5.696875,7.96875 5.5296875,7.5671875 5.5296875,7.140625 C5.5296875,6.7140625 5.6953125,6.3125 5.9984375,6.0109375 C6.3,5.709375 6.7015625,5.5421875 7.128125,5.5421875 C7.5546875,5.5421875 7.95625,5.7078125 8.2578125,6.0109375 C8.559375,6.3140625 8.7265625,6.7140625 8.7265625,7.140625 C8.7265625,7.5671875 8.559375,7.96875 8.2578125,8.2703125 Z" id="Shape"></path>
    </g>
</svg>
