<?xml version="1.0" encoding="UTF-8" standalone="no"?>
<!-- Generator: Adobe Illustrator 17.0.0, SVG Export Plug-In . SVG Version: 6.00 Build 0)  -->

<svg
   xmlns:dc="http://purl.org/dc/elements/1.1/"
   xmlns:cc="http://creativecommons.org/ns#"
   xmlns:rdf="http://www.w3.org/1999/02/22-rdf-syntax-ns#"
   xmlns:svg="http://www.w3.org/2000/svg"
   xmlns="http://www.w3.org/2000/svg"
   xmlns:sodipodi="http://sodipodi.sourceforge.net/DTD/sodipodi-0.dtd"
   xmlns:inkscape="http://www.inkscape.org/namespaces/inkscape"
   version="1.1"
   id="Layer_1"
   x="0px"
   y="0px"
   width="498.10028"
   height="114.89133"
   viewBox="0 0 498.10028 114.89133"
   xml:space="preserve"
   sodipodi:docname="stx-sprite-panels.svg"
   inkscape:version="0.92.2 5c3e80d, 2017-08-06"><metadata
     id="metadata4278"><rdf:RDF><cc:Work
         rdf:about=""><dc:format>image/svg+xml</dc:format><dc:type
           rdf:resource="http://purl.org/dc/dcmitype/StillImage" /></cc:Work></rdf:RDF></metadata><defs
     id="defs4276" /><sodipodi:namedview
     pagecolor="#ffffff"
     bordercolor="#666666"
     borderopacity="1"
     objecttolerance="10"
     gridtolerance="10"
     guidetolerance="10"
     inkscape:pageopacity="0"
     inkscape:pageshadow="2"
     inkscape:window-width="1215"
     inkscape:window-height="684"
     id="namedview4274"
     showgrid="false"
     inkscape:zoom="1.4013242"
     inkscape:cx="193.69802"
     inkscape:cy="4.8338993"
     inkscape:window-x="14"
     inkscape:window-y="152"
     inkscape:window-maximized="0"
     inkscape:current-layer="Layer_1" /><path
     d="m 322.31644,41.384092 h -0.646 c -0.296,0 -0.611,-0.231 -0.698,-0.514 l -0.371,-0.902 c -0.139,-0.26 -0.082,-0.646 0.126,-0.855 l 0.459,-0.458 c 0.21,-0.21 0.21,-0.553 0,-0.762 l -0.763,-0.761 c -0.208,-0.209 -0.552,-0.209 -0.761,0 l -0.46,0.458 c -0.208,0.209 -0.595,0.266 -0.855,0.126 l -0.9,-0.371 c -0.283,-0.088 -0.514,-0.402 -0.514,-0.698 v -0.646 c 0,-0.296 -0.243,-0.539 -0.54,-0.539 h -1.077 c -0.296,0 -0.539,0.243 -0.539,0.539 v 0.646 c 0,0.296 -0.231,0.611 -0.514,0.698 l -0.901,0.371 c -0.262,0.14 -0.646,0.084 -0.856,-0.126 l -0.459,-0.458 c -0.21,-0.209 -0.551,-0.209 -0.761,0 l -0.761,0.761 c -0.211,0.209 -0.211,0.552 0,0.762 l 0.457,0.459 c 0.21,0.209 0.268,0.595 0.127,0.855 l -0.37,0.903 c -0.089,0.283 -0.402,0.514 -0.698,0.514 h -0.647 c -0.296,0 -0.539,0.243 -0.539,0.539 v 1.077 c 0,0.296 0.243,0.539 0.539,0.539 h 0.647 c 0.296,10e-4 0.61,0.232 0.697,0.515 l 0.371,0.902 c 0.141,0.261 0.083,0.647 -0.127,0.856 l -0.458,0.458 c -0.21,0.209 -0.21,0.552 0,0.762 l 0.762,0.762 c 0.21,0.21 0.552,0.21 0.761,0 l 0.459,-0.458 c 0.209,-0.209 0.594,-0.266 0.853,-0.125 l 0.904,0.371 c 0.282,0.088 0.514,0.402 0.514,0.698 v 0.645 c 0,0.296 0.243,0.538 0.539,0.538 h 1.077 c 0.297,0 0.54,-0.243 0.54,-0.538 v -0.645 c 0,-0.296 0.232,-0.61 0.514,-0.698 l 0.903,-0.371 c 0.26,-0.141 0.646,-0.084 0.856,0.125 l 0.457,0.458 c 0.209,0.21 0.552,0.21 0.761,0 l 0.763,-0.762 c 0.21,-0.21 0.21,-0.553 0,-0.762 l -0.459,-0.458 c -0.208,-0.208 -0.265,-0.595 -0.126,-0.856 l 0.371,-0.902 c 0.088,-0.283 0.404,-0.514 0.698,-0.514 h 0.646 c 0.296,0 0.538,-0.242 0.538,-0.538 v -1.078 c -10e-4,-0.3 -0.242,-0.542 -0.539,-0.542 z m -3.767,1.076 c 0,1.487 -1.206,2.692 -2.693,2.692 -1.488,0 -2.693,-1.205 -2.693,-2.692 0,-1.487 1.205,-2.692 2.693,-2.692 1.487,0 2.693,1.205 2.693,2.692 z"
     id="path4161"
     inkscape:connector-curvature="0" /><g
     id="g4181"
     transform="translate(2.8544428,4.4660921)"><polyline
       style="fill:none;stroke:#000000;stroke-miterlimit:10"
       points="157,37.995 162.5,32.495 168,37.995  "
       id="polyline4177" /><line
       style="fill:none;stroke:#000000;stroke-miterlimit:10"
       x1="162.5"
       y1="32.994999"
       x2="162.5"
       y2="43.994999"
       id="line4179" /></g><g
     id="g4187"
     transform="translate(2.8544428,4.4660921)"><polyline
       style="fill:none;stroke:#000000;stroke-miterlimit:10"
       points="218,37.495 212.5,42.995 207,37.495  "
       id="polyline4183" /><line
       style="fill:none;stroke:#000000;stroke-miterlimit:10"
       x1="212.5"
       y1="42.994999"
       x2="212.5"
       y2="31.995001"
       id="line4185" /></g><g
     id="g4205"
     transform="translate(2.8544428,4.4660921)"><rect
       x="356"
       y="32.994999"
       width="2"
       height="4"
       id="rect4189" /><rect
       x="356"
       y="32.994999"
       width="4"
       height="2"
       id="rect4191" /><rect
       x="366"
       y="38.994999"
       width="2"
       height="4"
       id="rect4193" /><rect
       x="364"
       y="40.994999"
       width="4"
       height="2"
       id="rect4195" /><rect
       x="364"
       y="32.994999"
       width="4"
       height="2"
       id="rect4197" /><rect
       x="366"
       y="32.994999"
       width="2"
       height="4"
       id="rect4199" /><rect
       x="356"
       y="40.994999"
       width="4"
       height="2"
       id="rect4201" /><rect
       x="356"
       y="38.994999"
       width="2"
       height="4"
       id="rect4203" /></g><path
     style="fill:#ffffff"
     d="m 322.31644,66.384092 h -0.646 c -0.296,0 -0.611,-0.231 -0.698,-0.514 l -0.371,-0.902 c -0.139,-0.26 -0.082,-0.646 0.126,-0.855 l 0.459,-0.458 c 0.21,-0.21 0.21,-0.553 0,-0.762 l -0.763,-0.761 c -0.208,-0.209 -0.552,-0.209 -0.761,0 l -0.46,0.458 c -0.208,0.209 -0.595,0.266 -0.855,0.126 l -0.9,-0.371 c -0.283,-0.088 -0.514,-0.402 -0.514,-0.698 v -0.646 c 0,-0.296 -0.243,-0.539 -0.54,-0.539 h -1.077 c -0.296,0 -0.539,0.243 -0.539,0.539 v 0.646 c 0,0.296 -0.231,0.611 -0.514,0.698 l -0.901,0.371 c -0.262,0.14 -0.646,0.084 -0.856,-0.126 l -0.459,-0.458 c -0.21,-0.209 -0.551,-0.209 -0.761,0 l -0.761,0.761 c -0.211,0.209 -0.211,0.552 0,0.762 l 0.457,0.459 c 0.21,0.209 0.268,0.595 0.127,0.855 l -0.37,0.903 c -0.089,0.283 -0.402,0.514 -0.698,0.514 h -0.647 c -0.296,0 -0.539,0.243 -0.539,0.539 v 1.077 c 0,0.296 0.243,0.539 0.539,0.539 h 0.647 c 0.296,10e-4 0.61,0.233 0.697,0.515 l 0.371,0.902 c 0.141,0.261 0.083,0.647 -0.127,0.856 l -0.458,0.458 c -0.21,0.21 -0.21,0.552 0,0.762 l 0.762,0.762 c 0.21,0.21 0.552,0.21 0.761,0 l 0.459,-0.458 c 0.209,-0.209 0.594,-0.266 0.853,-0.125 l 0.904,0.372 c 0.282,0.088 0.514,0.402 0.514,0.698 v 0.645 c 0,0.296 0.243,0.538 0.539,0.538 h 1.077 c 0.297,0 0.54,-0.243 0.54,-0.538 v -0.645 c 0,-0.296 0.232,-0.61 0.514,-0.698 l 0.903,-0.372 c 0.26,-0.141 0.646,-0.084 0.856,0.125 l 0.457,0.458 c 0.209,0.21 0.552,0.21 0.761,0 l 0.763,-0.762 c 0.21,-0.21 0.21,-0.553 0,-0.762 l -0.459,-0.458 c -0.208,-0.208 -0.265,-0.595 -0.126,-0.856 l 0.371,-0.902 c 0.088,-0.282 0.404,-0.514 0.698,-0.514 h 0.646 c 0.296,0 0.538,-0.242 0.538,-0.538 v -1.078 c -10e-4,-0.3 -0.242,-0.542 -0.539,-0.542 z m -3.767,1.076 c 0,1.487 -1.206,2.692 -2.693,2.692 -1.488,0 -2.693,-1.205 -2.693,-2.692 0,-1.487 1.205,-2.692 2.693,-2.692 1.487,0 2.693,1.205 2.693,2.692 z"
     id="path4207"
     inkscape:connector-curvature="0" /><g
     id="g4227"
     transform="translate(2.8544428,4.4660921)"><polyline
       style="fill:none;stroke:#ffffff;stroke-miterlimit:10"
       points="157,62.995 162.5,57.495 168,62.995  "
       id="polyline4223" /><line
       style="fill:none;stroke:#ffffff;stroke-miterlimit:10"
       x1="162.5"
       y1="57.994999"
       x2="162.5"
       y2="68.995003"
       id="line4225" /></g><g
     id="g4233"
     transform="translate(2.8544428,4.4660921)"><polyline
       style="fill:none;stroke:#ffffff;stroke-miterlimit:10"
       points="218,62.495 212.5,67.995 207,62.495  "
       id="polyline4229" /><line
       style="fill:none;stroke:#ffffff;stroke-miterlimit:10"
       x1="212.5"
       y1="67.995003"
       x2="212.5"
       y2="56.994999"
       id="line4231" /></g><g
     id="g4251"
     transform="translate(2.8544428,4.4660921)"><rect
       x="356"
       y="57.994999"
       style="fill:#ffffff"
       width="2"
       height="4"
       id="rect4235" /><rect
       x="356"
       y="57.994999"
       style="fill:#ffffff"
       width="4"
       height="2"
       id="rect4237" /><rect
       x="366"
       y="63.994999"
       style="fill:#ffffff"
       width="2"
       height="4"
       id="rect4239" /><rect
       x="364"
       y="65.995003"
       style="fill:#ffffff"
       width="4"
       height="2"
       id="rect4241" /><rect
       x="364"
       y="57.994999"
       style="fill:#ffffff"
       width="4"
       height="2"
       id="rect4243" /><rect
       x="366"
       y="57.994999"
       style="fill:#ffffff"
       width="2"
       height="4"
       id="rect4245" /><rect
       x="356"
       y="65.995003"
       style="fill:#ffffff"
       width="4"
       height="2"
       id="rect4247" /><rect
       x="356"
       y="63.994999"
       style="fill:#ffffff"
       width="2"
       height="4"
       id="rect4249" /></g><g
     id="g4257"
     transform="translate(2.8544428,4.4660921)"><line
       style="fill:none;stroke:#000000;stroke-width:2;stroke-miterlimit:10"
       x1="258"
       y1="33"
       x2="267"
       y2="42"
       id="line4253" /><line
       style="fill:none;stroke:#000000;stroke-width:2;stroke-miterlimit:10"
       x1="267"
       y1="33"
       x2="258"
       y2="42"
       id="line4255" /></g><g
     id="g4263"
     transform="translate(2.8544428,4.4660921)"><line
       style="fill:none;stroke:#ffffff;stroke-width:2;stroke-miterlimit:10"
       x1="258"
       y1="58"
       x2="267"
       y2="67"
       id="line4259" /><line
       style="fill:none;stroke:#ffffff;stroke-width:2;stroke-miterlimit:10"
       x1="267"
       y1="58"
       x2="258"
       y2="67"
       id="line4261" /></g></svg>