<?xml version="1.0" encoding="UTF-8"?>
<svg width="32px" height="32px" viewBox="0 0 32 32" version="1.1" xmlns="http://www.w3.org/2000/svg" xmlns:xlink="http://www.w3.org/1999/xlink">
    <!-- Generator: Sketch 57.1 (83088) - https://sketch.com -->
    <title>Volatility 10-1s</title>
    <desc>Created with Sketch.</desc>
    <g id="Volatility-10-1s" stroke="none" stroke-width="1" fill="none" fill-rule="evenodd">
        <g>
            <circle id="Oval" fill="#EF4852" fill-rule="nonzero" cx="25" cy="25" r="5"></circle>
            <rect id="Rectangle" x="0" y="0" width="32" height="32"></rect>
            <polygon id="Path" fill="#FFFFFF" fill-rule="nonzero" points="22.15 27.23 22.15 26.62 23.42 26.62 23.42 23.23 23.37 23.23 22.32 24.35 21.87 23.95 23 22.69 24.12 22.69 24.12 26.62 25.23 26.62 25.23 27.23"></polygon>
            <path d="M26.79,27.31 C26.2563622,27.3324837 25.7452042,27.0936946 25.42,26.67 L25.88,26.25 C25.9925521,26.3987415 26.1357945,26.5215208 26.3,26.61 C26.4632462,26.6963685 26.6453171,26.7410274 26.83,26.74 C26.9955686,26.7524131 27.1606472,26.7102654 27.3,26.62 C27.4001465,26.5361552 27.4555863,26.4104916 27.45,26.28 C27.4501358,26.1761004 27.4108201,26.0760241 27.34,26 C27.2356437,25.9135262 27.1054612,25.864268 26.97,25.86 L26.66,25.86 C26.364793,25.834966 26.0816649,25.7313826 25.84,25.56 C25.6359888,25.3828719 25.528335,25.1193057 25.55,24.85 C25.5462512,24.6984066 25.5770273,24.5479458 25.64,24.41 C25.7005708,24.2873579 25.7856582,24.1784461 25.89,24.09 C26.0097113,23.9966568 26.1451877,23.9255317 26.29,23.88 C26.4562748,23.8347945 26.6276944,23.8112663 26.8,23.81 C27.0539293,23.8020844 27.3065117,23.8498702 27.54,23.95 C27.7379357,24.0478651 27.9146376,24.1837896 28.06,24.35 L27.63,24.77 C27.5336041,24.6564036 27.4143447,24.5644035 27.28,24.5 C27.1325776,24.4204248 26.9675258,24.3791618 26.8,24.38 C26.6468242,24.3661722 26.4938808,24.4088541 26.37,24.5 C26.2757861,24.5744869 26.2235877,24.690069 26.23,24.81 C26.2235399,24.9199324 26.2677506,25.026775 26.35,25.1 C26.4718,25.174708 26.6081959,25.2224466 26.75,25.24 L27.06,25.24 C27.3588979,25.270819 27.6430766,25.3851836 27.88,25.57 C28.0523417,25.7410179 28.1433241,25.9775722 28.13,26.22 C28.1332196,26.3747723 28.1024998,26.5283715 28.04,26.67 C27.9759857,26.8017389 27.8838136,26.9178075 27.77,27.01 C27.6435262,27.1066789 27.5014898,27.181079 27.35,27.23 C27.1682447,27.2838847 26.9795728,27.3108379 26.79,27.31 Z" id="Path" fill="#FFFFFF" fill-rule="nonzero"></path>
            <path d="M29.93,12.76 C30.0228891,12.6063758 30.0267646,12.4148655 29.9401666,12.2576091 C29.8535687,12.1003527 29.6896536,12.0012412 29.5101666,11.9975058 C29.3306796,11.9939769 29.1628891,12.0863758 29.07,12.24 L26.8,16 L26.5,16 C26.2205295,16.00258 25.9471804,16.0821626 25.71,16.23 L22.91,14 C22.9709103,13.840402 23.001435,13.6708201 23,13.5 C23,12.6715729 22.3284271,12 21.5,12 C20.6715729,12 20,12.6715729 20,13.5 C19.9996233,13.8482761 20.1237586,14.1852148 20.35,14.45 L20.35,14.45 L18.8,17 C18.4244764,16.9229889 18.033721,16.9946872 17.71,17.2 L14.91,15 C14.9709103,14.840402 15.001435,14.6708201 15,14.5 C15.0183237,13.8198496 14.5765594,13.2125546 13.9238123,13.0205609 C13.2710652,12.8285672 12.5708481,13.0999692 12.2180046,13.6817267 C11.8651611,14.2634842 11.9480782,15.0098673 12.42,15.5 L10.68,19 L10.5,19 C10.2205295,19.00258 9.94718044,19.0821626 9.71,19.23 L9.71,19.23 L6.91,17 C7.0055687,16.7041942 7.0055687,16.3858058 6.91,16.09 C6.72738412,15.4584722 6.15716352,15.0176634 5.5,15 C5.35788348,15.0002671 5.21650664,15.0204638 5.08,15.06 C4.29276729,15.3005789 3.84649836,16.1306391 4.08,16.92 C4.16742382,17.2251333 4.35388261,17.4925082 4.61,17.68 L4.61,17.68 L3.47,21 C2.73421909,21.009897 2.11271079,21.5487213 1.99858173,22.2756642 C1.88445267,23.0026072 2.31094,23.7059654 3.00828867,23.9408618 C3.70563735,24.1757582 4.47076252,23.8737852 4.81971929,23.2259421 C5.16867605,22.578099 4.99983972,21.7730534 4.42,21.32 L5.53,18 L5.53,18 C5.67211652,17.9997329 5.81349336,17.9795362 5.95,17.94 C6.07915354,17.89697 6.2032222,17.8399655 6.32,17.77 L9.09,20 L9.09,20 C9.02908971,20.159598 8.99856497,20.3291799 9,20.5 C8.9816763,21.1801504 9.42344064,21.7874454 10.0761877,21.9794391 C10.7289348,22.1714328 11.4291519,21.9000308 11.7819954,21.3182733 C12.1348389,20.7365158 12.0519218,19.9901327 11.58,19.5 L13.32,16 L13.5,16 C13.7794705,15.99742 14.0528196,15.9178374 14.29,15.77 L17.09,18 C17.0303047,18.1564601 16.9998004,18.3225388 17,18.49 C17,19.3184271 17.6715729,19.99 18.5,19.99 C19.3284271,19.99 20,19.3184271 20,18.49 C20.0003767,18.1417239 19.8762414,17.8047852 19.65,17.54 L19.65,17.54 L21.2,15 L21.5,15 C21.7794705,14.99742 22.0528196,14.9178374 22.29,14.77 L25.09,17 C25.0303047,17.1564601 24.9998004,17.3225388 25,17.49 C25,18.3184271 25.6715729,18.99 26.5,18.99 C27.3284271,18.99 28,18.3184271 28,17.49 C28.0003767,17.1417239 27.8762414,16.8047852 27.65,16.54 L27.65,16.54 L29.93,12.76 Z M3.5,23 C3.22385763,23 3,22.7761424 3,22.5 C3,22.2238576 3.22385763,22 3.5,22 C3.77614237,22 4,22.2238576 4,22.5 C4,22.7761424 3.77614237,23 3.5,23 Z M5.64,17 L5.5,17 C5.32136721,17.0250086 5.14296177,16.952818 5.0319873,16.8106218 C4.92101283,16.6684255 4.89432898,16.4778266 4.9619873,16.3106218 C5.02964562,16.1434169 5.18136721,16.0250086 5.36,16 L5.5,16 C5.77614237,15.9613401 6.03134007,16.1538576 6.07,16.43 C6.10865993,16.7061424 5.91614237,16.9613401 5.64,17 L5.64,17 Z M10.5,21 C10.2238576,21 10,20.7761424 10,20.5 C10,20.2238576 10.2238576,20 10.5,20 C10.7761424,20 11,20.2238576 11,20.5 C11,20.7761424 10.7761424,21 10.5,21 Z M13.5,15 C13.2238576,15 13,14.7761424 13,14.5 C13,14.2238576 13.2238576,14 13.5,14 C13.7761424,14 14,14.2238576 14,14.5 C14,14.7761424 13.7761424,15 13.5,15 Z M18.5,19 C18.2238576,19 18,18.7761424 18,18.5 C18,18.2238576 18.2238576,18 18.5,18 C18.7761424,18 19,18.2238576 19,18.5 C19,18.7761424 18.7761424,19 18.5,19 Z M21.5,14 C21.2238576,14 21,13.7761424 21,13.5 C21,13.2238576 21.2238576,13 21.5,13 C21.7761424,13 22,13.2238576 22,13.5 C22,13.7761424 21.7761424,14 21.5,14 Z M26.5,18 C26.2238576,18 26,17.7761424 26,17.5 C26,17.2238576 26.2238576,17 26.5,17 C26.7761424,17 27,17.2238576 27,17.5 C27,17.7761424 26.7761424,18 26.5,18 Z" id="Shape" fill="#84AAAF" fill-rule="nonzero"></path>
            <rect id="Rectangle" fill="#2A2A2A" fill-rule="nonzero" x="2" y="2" width="11" height="8" rx="1"></rect>
            <path d="M4.258,8.26 L4.258,7.696 L5.434,7.696 L5.434,4.564 L5.386,4.564 L4.414,5.602 L4,5.23 L5.068,4.072 L6.1,4.072 L6.1,7.696 L7.12,7.696 L7.12,8.26 L4.258,8.26 Z M9.518,8.332 C9.2579987,8.332 9.03200096,8.28300049 8.84,8.185 C8.64799904,8.08699951 8.49000062,7.94600092 8.366,7.762 C8.24199938,7.57799908 8.1500003,7.35200134 8.09,7.084 C8.0299997,6.81599866 8,6.51000172 8,6.166 C8,5.8259983 8.0299997,5.52100135 8.09,5.251 C8.1500003,4.98099865 8.24199938,4.75400092 8.366,4.57 C8.49000062,4.38599908 8.64799904,4.24500049 8.84,4.147 C9.03200096,4.04899951 9.2579987,4 9.518,4 C10.0380026,4 10.4209988,4.1899981 10.667,4.57 C10.9130012,4.9500019 11.036,5.48199658 11.036,6.166 C11.036,6.85000342 10.9130012,7.3819981 10.667,7.762 C10.4209988,8.1420019 10.0380026,8.332 9.518,8.332 Z M9.518,7.756 C9.66200072,7.756 9.78499949,7.72700029 9.887,7.669 C9.98900051,7.61099971 10.0719997,7.52800054 10.136,7.42 C10.2000003,7.31199946 10.2459999,7.18300075 10.274,7.033 C10.3020001,6.88299925 10.316,6.71600092 10.316,6.532 L10.316,5.8 C10.316,5.61599908 10.3020001,5.44900075 10.274,5.299 C10.2459999,5.14899925 10.2000003,5.02000054 10.136,4.912 C10.0719997,4.80399946 9.98900051,4.72100029 9.887,4.663 C9.78499949,4.60499971 9.66200072,4.576 9.518,4.576 C9.37399928,4.576 9.25100051,4.60499971 9.149,4.663 C9.04699949,4.72100029 8.96400032,4.80399946 8.9,4.912 C8.83599968,5.02000054 8.79000014,5.14899925 8.762,5.299 C8.73399986,5.44900075 8.72,5.61599908 8.72,5.8 L8.72,6.532 C8.72,6.71600092 8.73399986,6.88299925 8.762,7.033 C8.79000014,7.18300075 8.83599968,7.31199946 8.9,7.42 C8.96400032,7.52800054 9.04699949,7.61099971 9.149,7.669 C9.25100051,7.72700029 9.37399928,7.756 9.518,7.756 Z" id="10" fill="#FFFFFF" fill-rule="nonzero"></path>
        </g>
    </g>
</svg>