<?xml version="1.0" encoding="UTF-8"?>
<svg width="32px" height="32px" viewBox="0 0 32 32" version="1.1" xmlns="http://www.w3.org/2000/svg" xmlns:xlink="http://www.w3.org/1999/xlink">
    <!-- Generator: Sketch 49.1 (51147) - http://www.bohemiancoding.com/sketch -->
    <title>icons/underlying assets/volatility/25 index/ic-25index</title>
    <desc>Created with Sketch.</desc>
    <defs></defs>
    <g id="icons/underlying-assets/volatility/25-index/ic-25index" stroke="none" stroke-width="1" fill="none" fill-rule="evenodd">
        <text id="25" font-family="Roboto-Bold, Roboto" font-size="8" font-weight="bold" fill="#2A3052">
            <tspan x="19.8203125" y="10">25</tspan>
        </text>
        <g id="Group-3" transform="translate(4.000000, 5.000000)">
            <polyline id="Path-14" stroke="#2A3052" stroke-linecap="round" stroke-linejoin="round" points="0.5 11.4998202 2.5 9.49982023 5.5 12.4998202 8.5 9.49982023 10.5 11.4998202 13.5 8.5 17.5 12.5 23.5 6.5"></polyline>
            <polyline id="Path-4" stroke="#2A3052" stroke-linecap="round" stroke-linejoin="round" points="19.5 17.5 21.5 15.5 23.5 17.5"></polyline>
            <path d="M21.5,21.5 L21.5,15.5" id="Path-16" stroke="#2A3052" stroke-linecap="round"></path>
            <polyline id="Path-4" stroke="#2A3052" stroke-linecap="round" stroke-linejoin="round" points="0.5 4.5 2.5 6.5 4.5 4.5"></polyline>
            <path d="M2.5,6.5 L2.5,0.5" id="Path-16" stroke="#2A3052" stroke-linecap="round"></path>
            <circle id="Oval-12" fill="#E98024" cx="20.5" cy="6.5" r="1"></circle>
            <circle id="Oval-12-Copy" fill="#E98024" cx="18.5" cy="6.5" r="1"></circle>
            <circle id="Oval-12-Copy-2" fill="#E98024" cx="16.5" cy="6.5" r="1"></circle>
            <circle id="Oval-12-Copy-3" fill="#E98024" cx="14.5" cy="6.5" r="1"></circle>
            <circle id="Oval-12-Copy-4" fill="#E98024" cx="12.5" cy="6.5" r="1"></circle>
            <circle id="Oval-12-Copy-5" fill="#E98024" cx="10.5" cy="6.5" r="1"></circle>
            <circle id="Oval-12-Copy-6" fill="#E98024" cx="8.5" cy="6.5" r="1"></circle>
            <circle id="Oval-12-Copy-7" fill="#E98024" cx="6.5" cy="6.5" r="1"></circle>
            <circle id="Oval-12-Copy-8" fill="#E98024" cx="0.5" cy="6.5" r="1"></circle>
            <circle id="Oval-12-Copy-9" fill="#E98024" cx="0.5" cy="15.5" r="1"></circle>
            <circle id="Oval-12-Copy-10" fill="#E98024" cx="2.5" cy="15.5" r="1"></circle>
            <circle id="Oval-12-Copy-11" fill="#E98024" cx="4.5" cy="15.5" r="1"></circle>
            <circle id="Oval-12-Copy-12" fill="#E98024" cx="6.5" cy="15.5" r="1"></circle>
            <circle id="Oval-12-Copy-13" fill="#E98024" cx="8.5" cy="15.5" r="1"></circle>
            <circle id="Oval-12-Copy-14" fill="#E98024" cx="10.5" cy="15.5" r="1"></circle>
            <circle id="Oval-12-Copy-15" fill="#E98024" cx="12.5" cy="15.5" r="1"></circle>
            <circle id="Oval-12-Copy-16" fill="#E98024" cx="14.5" cy="15.5" r="1"></circle>
            <circle id="Oval-12-Copy-17" fill="#E98024" cx="16.5" cy="15.5" r="1"></circle>
            <circle id="Oval-12-Copy-18" fill="#E98024" cx="18.5" cy="15.5" r="1"></circle>
            <circle id="Oval-12-Copy-19" fill="#E98024" cx="23.5" cy="15.5" r="1"></circle>
        </g>
    </g>
</svg>