<svg xmlns="http://www.w3.org/2000/svg" xmlns:xlink="http://www.w3.org/1999/xlink" width="160" height="120" viewBox="0 0 160 120">
    <defs>
        <linearGradient id="prefix__b" x1="50%" x2="50%" y1="126.023%" y2="32.907%">
            <stop offset="0%" stop-color="#FFF" stop-opacity="0"/>
            <stop offset="100%" stop-color="#85ACB0" stop-opacity=".16"/>
        </linearGradient>
        <rect id="prefix__a" width="160" height="120" x="0" y="0" rx="4"/>
    </defs>
    <g fill="none" fill-rule="evenodd">
        <mask id="prefix__c" fill="#fff">
            <use xlink:href="#prefix__a"/>
        </mask>
        <use fill="#F2F3F4" fill-rule="nonzero" xlink:href="#prefix__a"/>
        <path fill="url(#prefix__b)" d="M6 86.5L21.5 86.5 36.5 96.5 52 76 67.5 75.5 83 65.5 98.5 65.5 114.067 23 129.5 65.5 129.5 120 0 120 0 97z" mask="url(#prefix__c)"/>
        <path fill="#85ACB0" fill-rule="nonzero" d="M113.562 22.829c.148-.407.692-.436.898-.089l.04.087 15.554 42.26c.095.26-.037.547-.297.642-.23.085-.483-.01-.603-.215l-.039-.082-15.081-40.979-14.936 40.978c-.062.17-.209.29-.382.321l-.088.008-15.399-.001-15.276 10.433c-.055.038-.117.064-.182.077l-.1.01H52.372L37.119 97.294c-.142.195-.399.258-.61.162l-.078-.044-15.425-10.613H6.062l-5.118 9.93c-.112.218-.363.319-.59.25l-.083-.035c-.218-.112-.319-.363-.25-.59l.035-.083L5.313 86.07c.072-.139.203-.234.353-.262l.092-.009H21.16c.076 0 .15.017.218.05l.066.038 15.15 10.425 15.118-20.826c.076-.104.187-.174.31-.198l.095-.009h15.398l15.277-10.432c.055-.038.117-.064.182-.077l.1-.01 15.203-.001 15.284-41.93z"/>
        <path fill="#FF444F" fill-rule="nonzero" d="M160 57v16h-5.284l-6.436-7.667H146v-.666l2.28-.001L154.716 57H160zm-30 6c.99 0 1.813.72 1.972 1.666h.695v.667h-.695C131.813 66.28 130.991 67 130 67c-1.105 0-2-.895-2-2s.895-2 2-2zm8 1.667v.666h-2.667v-.666H138zm5.333 0v.666h-2.666v-.666h2.666z"/>
    </g>
</svg>
