<svg xmlns="http://www.w3.org/2000/svg" xmlns:xlink="http://www.w3.org/1999/xlink" width="160" height="120" viewBox="0 0 160 120">
    <defs>
        <rect id="prefix__a" width="160" height="120" x="0" y="0" rx="4"/>
        <rect id="prefix__e" width="72.8" height="83.2" x="4" y="4" rx="1.3"/>
        <linearGradient id="prefix__c" x1="50%" x2="50%" y1="126.023%" y2="36.055%">
            <stop offset="0%" stop-color="#FFF" stop-opacity="0"/>
            <stop offset="100%" stop-color="#85ACB0" stop-opacity=".16"/>
        </linearGradient>
        <filter id="prefix__d" width="124.7%" height="121.6%" x="-12.4%" y="-7.2%" filterUnits="objectBoundingBox">
            <feOffset dy="3" in="SourceAlpha" result="shadowOffsetOuter1"/>
            <feGaussianBlur in="shadowOffsetOuter1" result="shadowBlurOuter1" stdDeviation="2.5"/>
            <feColorMatrix in="shadowBlurOuter1" values="0 0 0 0 0 0 0 0 0 0 0 0 0 0 0 0 0 0 0.08 0"/>
        </filter>
    </defs>
    <g fill="none" fill-rule="evenodd">
        <mask id="prefix__b" fill="#fff">
            <use xlink:href="#prefix__a"/>
        </mask>
        <use fill="#F2F3F4" fill-rule="nonzero" xlink:href="#prefix__a"/>
        <path fill="#333" fill-rule="nonzero" d="M127 108v2h29c.552 0 1 .448 1 1v8c0 .552-.448 1-1 1H93c-.552 0-1-.448-1-1v-8c0-.552.448-1 1-1h33v-2h1zm13.66 4.95c-.26 0-.486.049-.678.147-.192.098-.35.239-.474.423s-.216.411-.276.681c-.06.27-.09.575-.09.915 0 .344.03.65.09.918s.152.494.276.678c.124.184.282.325.474.423.192.098.418.147.678.147.52 0 .903-.19 1.149-.57.246-.38.369-.912.369-1.596s-.123-1.216-.369-1.596c-.246-.38-.629-.57-1.149-.57zm3.6 0c-.26 0-.486.049-.678.147-.192.098-.35.239-.474.423s-.216.411-.276.681c-.06.27-.09.575-.09.915 0 .344.03.65.09.918s.152.494.276.678c.124.184.282.325.474.423.192.098.418.147.678.147.52 0 .903-.19 1.149-.57.246-.38.369-.912.369-1.596s-.123-1.216-.369-1.596c-.246-.38-.629-.57-1.149-.57zm2.67 3.426c-.148 0-.258.039-.33.117-.054.059-.088.128-.101.208l-.007.083v.09c0 .116.036.213.108.291.072.078.182.117.33.117.148 0 .258-.039.33-.117.054-.059.088-.128.101-.208l.007-.083v-.09c0-.116-.036-.213-.108-.291-.072-.078-.182-.117-.33-.117zm2.67-3.426c-.26 0-.486.049-.678.147-.192.098-.35.239-.474.423s-.216.411-.276.681c-.06.27-.09.575-.09.915 0 .344.03.65.09.918s.152.494.276.678c.124.184.282.325.474.423.192.098.418.147.678.147.52 0 .903-.19 1.149-.57.246-.38.369-.912.369-1.596s-.123-1.216-.369-1.596c-.246-.38-.629-.57-1.149-.57zm3.6 0c-.26 0-.486.049-.678.147-.192.098-.35.239-.474.423s-.216.411-.276.681c-.06.27-.09.575-.09.915 0 .344.03.65.09.918s.152.494.276.678c.124.184.282.325.474.423.192.098.418.147.678.147.52 0 .903-.19 1.149-.57.246-.38.369-.912.369-1.596s-.123-1.216-.369-1.596c-.246-.38-.629-.57-1.149-.57zm-52.482.072h-1.482v4.188h1.482c.268 0 .511-.044.729-.132.218-.088.404-.219.558-.393.154-.174.273-.392.357-.654.084-.262.126-.567.126-.915 0-.348-.042-.653-.126-.915-.084-.262-.203-.48-.357-.654-.154-.174-.34-.305-.558-.393-.163-.066-.341-.107-.533-.124l-.196-.008zm5.826 0h-.804v4.188h.648v-3.204h.03l.33.678.918 1.674.918-1.674.33-.678h.03v3.204h.648v-4.188h-.768l-1.122 2.13h-.036l-1.122-2.13zm11.694 0h-.774l1.44 2.538v1.65h.678v-1.662l1.452-2.526h-.744l-1.014 1.866h-.018l-1.02-1.866zm3.702 0h-.774l1.44 2.538v1.65h.678v-1.662l1.452-2.526h-.744l-1.014 1.866h-.018l-1.02-1.866zm3.702 0h-.774l1.44 2.538v1.65h.678v-1.662l1.452-2.526h-.744l-1.014 1.866h-.018l-1.02-1.866zm-14.214 0h-.804v4.188h.648v-3.204h.03l.33.678.918 1.674.918-1.674.33-.678h.03v3.204h.648v-4.188h-.768l-1.122 2.13h-.036l-1.122-2.13zm17.916 0h-.774l1.44 2.538v1.65h.678v-1.662l1.452-2.526h-.744l-1.014 1.866h-.018l-1.02-1.866zm-32.724 0h-1.482v4.188h1.482c.268 0 .511-.044.729-.132.218-.088.404-.219.558-.393.154-.174.273-.392.357-.654.084-.262.126-.567.126-.915 0-.348-.042-.653-.126-.915-.084-.262-.203-.48-.357-.654-.154-.174-.34-.305-.558-.393-.163-.066-.341-.107-.533-.124l-.196-.008zm52.98.504c.144 0 .267.029.369.087.102.058.185.141.249.249.064.108.11.237.138.387.019.1.031.208.037.323l.005.178v.732c0 .184-.014.351-.042.501-.028.15-.074.279-.138.387-.064.108-.147.191-.249.249-.102.058-.225.087-.369.087s-.267-.029-.369-.087c-.102-.058-.185-.141-.249-.249-.064-.108-.11-.237-.138-.387-.019-.1-.031-.208-.037-.323l-.005-.178v-.732c0-.184.014-.351.042-.501.028-.15.074-.279.138-.387.064-.108.147-.191.249-.249.102-.058.225-.087.369-.087zm-5.34 0c.144 0 .267.029.369.087.102.058.185.141.249.249.064.108.11.237.138.387.019.1.031.208.037.323l.005.178v.732c0 .184-.014.351-.042.501-.028.15-.074.279-.138.387-.064.108-.147.191-.249.249-.102.058-.225.087-.369.087s-.267-.029-.369-.087c-.102-.058-.185-.141-.249-.249-.064-.108-.11-.237-.138-.387-.019-.1-.031-.208-.037-.323l-.005-.178v-.732c0-.184.014-.351.042-.501.028-.15.074-.279.138-.387.064-.108.147-.191.249-.249.102-.058.225-.087.369-.087zm-3.6 0c.144 0 .267.029.369.087.102.058.185.141.249.249.064.108.11.237.138.387.019.1.031.208.037.323l.005.178v.732c0 .184-.014.351-.042.501-.028.15-.074.279-.138.387-.064.108-.147.191-.249.249-.102.058-.225.087-.369.087s-.267-.029-.369-.087c-.102-.058-.185-.141-.249-.249-.064-.108-.11-.237-.138-.387-.019-.1-.031-.208-.037-.323l-.005-.178v-.732c0-.184.014-.351.042-.501.028-.15.074-.279.138-.387.064-.108.147-.191.249-.249.102-.058.225-.087.369-.087zm12.54 0c.144 0 .267.029.369.087.102.058.185.141.249.249.064.108.11.237.138.387.019.1.031.208.037.323l.005.178v.732c0 .184-.014.351-.042.501-.028.15-.074.279-.138.387-.064.108-.147.191-.249.249-.102.058-.225.087-.369.087s-.267-.029-.369-.087c-.102-.058-.185-.141-.249-.249-.064-.108-.11-.237-.138-.387-.019-.1-.031-.208-.037-.323l-.005-.178v-.732c0-.184.014-.351.042-.501.028-.15.074-.279.138-.387.064-.108.147-.191.249-.249.102-.058.225-.087.369-.087zm-56.58.096c.312 0 .564.098.756.294.165.168.259.404.282.707l.006.157v.672c0 .38-.096.668-.288.864-.192.196-.444.294-.756.294h-.804v-2.988h.804zm4.098 0c.312 0 .564.098.756.294.165.168.259.404.282.707l.006.157v.672c0 .38-.096.668-.288.864-.192.196-.444.294-.756.294h-.804v-2.988h.804zm4.134 1.428h-1.662v.666h1.662v-.666zm12.174 0h-1.662v.666h1.662v-.666zm18.63 0h-1.662v.666h1.662v-.666zM127 102v4h-1v-4h1zm0-6v4h-1v-4h1zm0-6v4h-1v-4h1zm0-6v4h-1v-4h1zm0-6v4h-1v-4h1zm0-6v4h-1v-4h1zm0-6v4h-1v-4h1zm0-6v4h-1v-4h1zm0-6v4h-1v-4h1zm0-6v4h-1v-4h1zm0-6v4h-1v-4h1zm0-6v4h-1v-4h1zm0-6v4h-1v-4h1zm0-6v4h-1v-4h1zm0-6v4h-1v-4h1zm0-6v4h-1v-4h1zm0-6v4h-1V6h1zm0-6v4h-1V0h1z" mask="url(#prefix__b)"/>
        <path fill="url(#prefix__c)" d="M34 86.5L49.5 86.5 64.5 96.5 80 76 95.5 75.5 111 65.5 126.5 65.5 142.067 23 160 64.5 160 120 0 120 0 97 28 97z" mask="url(#prefix__b)"/>
        <path fill="#85ACB0" fill-rule="nonzero" d="M141.562 22.829c.148-.406.69-.437.897-.09l.041.086 17.469 41.5c.096.26-.036.547-.294.644-.23.085-.483-.01-.605-.213l-.039-.081-16.994-40.23-14.94 40.986c-.061.17-.208.29-.38.321l-.09.008-15.398-.001-15.276 10.433c-.055.038-.117.064-.182.077l-.1.01H80.372L65.119 97.294c-.142.195-.399.258-.61.162l-.078-.044-15.425-10.613H34.055L28.44 97.237c-.072.135-.202.228-.35.255L28 97.5H.5c-.276 0-.5-.224-.5-.5 0-.245.177-.45.41-.492L.5 96.5h27.201l5.616-10.438c.073-.135.203-.228.35-.255l.09-.008h15.404c.076 0 .15.017.218.05l.066.038 15.15 10.425 15.118-20.826c.076-.104.187-.174.31-.198l.095-.009h15.398l15.277-10.432c.055-.038.117-.064.182-.077l.1-.01 15.203-.001 15.284-41.93z"/>
        <g fill-rule="nonzero">
            <use fill="#000" filter="url(#prefix__d)" xlink:href="#prefix__e"/>
            <use fill="#FFF" xlink:href="#prefix__e"/>
        </g>
        <path fill="#333" fill-rule="nonzero" d="M10.014 9.76c.048-.052.13-.056.183-.008.054.048.057.13.01.183l-1.221 1.339 1.22 1.338c.048.053.045.135-.009.183-.053.049-.135.045-.183-.008l-1.3-1.426c-.045-.05-.045-.125 0-.174zm1.3 0c.048-.052.13-.056.183-.008.054.048.057.13.01.183l-1.221 1.339 1.22 1.338c.048.053.045.135-.009.183-.053.049-.135.045-.183-.008l-1.3-1.426c-.045-.05-.045-.125 0-.174zm7.723-.008c.054.048.057.13.01.183l-1.221 1.339 1.22 1.338c.048.053.045.135-.009.183-.053.049-.135.045-.183-.008l-1.3-1.426c-.045-.05-.045-.125 0-.174l1.3-1.426c.048-.053.13-.057.183-.009zm51.49.009l1.3 1.426c.044.05.044.125 0 .174l-1.3 1.426c-.05.053-.131.057-.184.008-.054-.048-.057-.13-.01-.183l1.221-1.338-1.22-1.339c-.048-.053-.045-.135.009-.183.053-.048.135-.044.183.009zm-1.3 0l1.3 1.426c.044.05.044.125 0 .174l-1.3 1.426c-.05.053-.131.057-.184.008-.054-.048-.057-.13-.01-.183l1.221-1.338-1.22-1.339c-.048-.053-.045-.135.009-.183.053-.048.135-.044.183.009zm-7.8 0l1.3 1.426c.044.05.044.125 0 .174l-1.3 1.426c-.05.053-.131.057-.184.008-.054-.048-.057-.13-.01-.183l1.221-1.338-1.22-1.339c-.048-.053-.045-.135.009-.183.053-.048.135-.044.183.009zM32.206 13.4v-1.693h.011l.193.4.484.896.495-.899.186-.371h.01V13.4h.521v-2.54h-.59l-.614 1.19h-.008l-.622-1.19h-.586v2.54h.52zm2.982 0v-1.693h.01l.193.4.484.896.496-.899.185-.371h.011V13.4h.52v-2.54h-.59l-.614 1.19h-.008l-.622-1.19h-.586v2.54h.52zm6.217 0v-.997l.87-1.544h-.601l-.524 1.012h-.007l-.546-1.012h-.62l.87 1.547v.994h.558zm2.362 0v-.997l.87-1.544h-.6l-.525 1.012h-.007l-.546-1.012h-.619l.87 1.547v.994h.557zm2.362 0v-.997l.87-1.544h-.6l-.524 1.012h-.008l-.546-1.012h-.619l.87 1.547v.994h.557zm2.363 0v-.997l.87-1.544h-.6l-.525 1.012h-.007l-.546-1.012h-.62l.87 1.547v.994h.558z"/>
        <path fill="#D6D6D6" fill-rule="nonzero" d="M59.12 78.919c.218 0 .388.05.509.148.12.099.18.231.18.398 0 .124-.033.231-.1.32-.068.088-.16.152-.274.191v.025l.094.032c.089.036.164.087.224.152.081.088.122.206.122.356 0 .09-.016.173-.048.25-.033.077-.08.143-.144.2-.063.056-.142.1-.235.132-.094.032-.203.048-.328.048s-.234-.016-.328-.048c-.093-.032-.172-.076-.235-.133-.064-.056-.111-.122-.144-.2-.032-.076-.048-.16-.048-.249 0-.15.04-.268.122-.356.08-.087.187-.148.318-.184v-.025l-.082-.034c-.077-.039-.14-.091-.191-.158-.068-.088-.102-.195-.102-.32 0-.166.06-.298.181-.397.121-.099.29-.148.509-.148zm-18.333.037l-.112.085c-.073.056-.14.11-.2.165-.092.08-.172.166-.24.254-.069.088-.127.183-.175.284-.048.1-.086.215-.116.342l.016.006.057-.085c.041-.053.09-.099.144-.138.082-.06.19-.09.323-.09.094 0 .18.016.26.048.078.03.146.076.202.134.056.058.1.129.133.212.032.083.048.176.048.278 0 .106-.017.203-.052.291-.034.089-.083.165-.146.228-.064.064-.14.113-.23.148-.089.036-.188.053-.296.053-.112 0-.214-.019-.304-.057-.09-.039-.168-.094-.231-.166-.063-.072-.112-.16-.145-.263-.033-.104-.05-.22-.05-.35 0-.162.024-.314.072-.457.048-.142.11-.272.185-.39.076-.117.16-.221.252-.312.091-.09.18-.164.268-.22h.337zm-9.13 0v.231h-.954l-.062.83h.021l.055-.068c.037-.042.078-.078.122-.107.065-.043.155-.065.27-.065.093 0 .18.015.259.046.079.032.147.076.206.133.058.057.103.127.135.21.032.084.049.179.049.285 0 .106-.017.203-.05.291-.034.089-.082.165-.145.228-.064.064-.14.113-.231.148-.09.036-.193.053-.308.053-.091 0-.172-.01-.241-.03-.07-.022-.132-.05-.186-.085-.054-.035-.101-.075-.142-.119-.04-.043-.077-.09-.11-.137l.196-.15.042.063.044.056c.03.035.063.065.1.09.036.025.078.045.126.058.048.014.105.02.171.02.15 0 .264-.04.34-.118.077-.08.116-.19.116-.334v-.031l-.007-.102c-.015-.095-.05-.173-.109-.232-.076-.08-.19-.119-.34-.119-.1 0-.178.019-.235.055-.057.036-.109.08-.155.13l-.221-.032.078-1.198h1.167zm-19.4-.037c.092 0 .178.012.26.036.08.023.15.059.21.106.06.046.106.104.14.173.035.068.052.146.052.234 0 .07-.01.134-.033.19-.022.056-.051.105-.089.147-.037.041-.081.077-.132.106-.051.029-.106.05-.164.065v.013l.086.024.084.037c.055.028.104.064.147.109.042.045.077.099.103.162.026.064.039.136.039.217 0 .094-.018.18-.053.257-.036.078-.086.145-.15.2-.065.055-.143.098-.234.13-.092.03-.193.046-.303.046-.093 0-.177-.01-.25-.03-.072-.022-.137-.05-.193-.085-.056-.035-.105-.075-.148-.119-.043-.043-.08-.09-.114-.137l.197-.15.042.063.047.056c.032.035.068.065.107.09.04.025.084.045.134.058.05.014.108.02.175.02.154 0 .27-.035.35-.104.079-.07.118-.17.118-.298v-.025l-.007-.091c-.015-.086-.052-.155-.112-.207-.079-.07-.195-.105-.349-.105h-.256v-.227h.237l.104-.007c.097-.012.173-.044.229-.095.073-.067.11-.154.11-.26v-.022l-.006-.08c-.014-.076-.047-.135-.101-.178-.072-.057-.166-.085-.283-.085-.112 0-.203.024-.274.073-.07.049-.13.115-.175.198l-.193-.15.044-.065.054-.064c.038-.043.084-.08.136-.114.052-.033.112-.06.18-.081.07-.02.147-.031.235-.031zm9.907.037v1.532h.315v.218h-.315v.428h-.25v-.428h-1.051v-.23l.91-1.52h.39zm28.304 0v.231l-.817 1.947h-.281l.833-1.953h-.93v.405h-.234v-.63h1.43zm18.009-.037c.112 0 .214.019.304.057.09.039.168.094.231.166.063.072.112.16.145.263.033.104.05.22.05.35 0 .162-.024.314-.072.457-.048.142-.11.272-.185.39-.076.117-.16.221-.252.312-.091.09-.18.164-.268.22h-.337l.112-.085c.073-.056.14-.11.2-.165.092-.08.172-.166.24-.254.069-.088.127-.183.175-.284.048-.1.086-.215.116-.342l-.016-.006-.057.085c-.041.053-.09.099-.144.138-.082.06-.19.09-.323.09-.094 0-.18-.016-.26-.048-.078-.03-.146-.076-.202-.134-.056-.058-.1-.128-.133-.21-.032-.083-.048-.176-.048-.28 0-.106.017-.203.052-.291.034-.089.083-.165.146-.228.064-.064.14-.113.228-.148.088-.036.188-.053.298-.053zM40.4 80c-.144 0-.255.04-.335.119-.08.079-.12.192-.12.34v.025l.007.104c.015.098.053.177.113.236.08.079.191.119.335.119.144 0 .255-.04.335-.119.08-.08.12-.192.12-.34v-.025l-.007-.104c-.015-.098-.053-.177-.113-.236-.08-.08-.191-.119-.335-.119zm18.72.097c-.152 0-.27.034-.353.101-.083.068-.124.164-.124.289v.066l.007.088c.016.083.055.15.117.2.084.068.201.102.353.102.152 0 .27-.034.353-.102.083-.067.124-.164.124-.288v-.066l-.007-.088c-.016-.083-.055-.15-.117-.2-.084-.068-.201-.102-.353-.102zm-37.206-.94h-.016l-.789 1.33h.805v-1.33zm46.566-.012c-.144 0-.255.04-.335.119-.08.079-.12.192-.12.34v.025l.007.104c.015.098.053.177.113.236.08.08.191.119.335.119.144 0 .255-.04.335-.119.08-.079.12-.192.12-.34v-.025l-.007-.104c-.015-.098-.053-.177-.113-.236-.08-.08-.191-.119-.335-.119zm-9.36 0c-.137 0-.241.03-.312.088-.07.058-.106.143-.106.256v.046l.007.08c.013.074.046.133.099.176.07.059.175.088.312.088s.241-.03.312-.088c.07-.058.106-.143.106-.256v-.046l-.007-.08c-.013-.074-.046-.133-.099-.176-.07-.058-.175-.088-.312-.088zm9.338-8.523c.106 0 .2.016.284.047.083.031.153.075.21.131.055.056.098.123.129.2.03.077.045.162.045.256 0 .085-.012.164-.036.237-.024.073-.057.142-.098.207-.042.066-.092.13-.152.192-.059.063-.123.125-.192.187l-.586.528h1.145v.23h-1.429v-.268l.711-.655.097-.095c.06-.065.113-.133.16-.203.068-.105.102-.21.102-.317v-.037l-.006-.086c-.013-.082-.044-.151-.094-.207-.066-.075-.167-.113-.302-.113-.067 0-.125.01-.175.029-.05.018-.093.044-.13.078-.036.033-.066.072-.09.117-.024.044-.043.093-.058.145l-.234-.09.037-.096.05-.094c.035-.061.081-.116.136-.163.055-.048.122-.087.2-.116.078-.029.17-.044.276-.044zm-9.129.038v1.947h.562v.23h-1.432v-.23h.608v-1.754h-.022l-.549.512-.153-.165.577-.54h.409zM30.042 37.442c.091 0 .177.012.259.036.08.024.15.06.21.106.06.047.106.105.14.174.035.068.052.146.052.234 0 .07-.01.134-.033.19-.022.056-.051.105-.089.147-.037.041-.081.077-.132.106-.051.029-.106.05-.164.065v.013l.086.024.084.036c.055.029.104.065.147.11.042.044.077.098.103.162.026.063.039.136.039.217 0 .093-.018.18-.053.257-.036.078-.086.145-.15.2-.065.055-.143.098-.234.13-.092.03-.193.046-.303.046-.093 0-.177-.01-.25-.031-.072-.02-.137-.049-.193-.084-.056-.036-.105-.075-.148-.119s-.08-.09-.114-.137l.197-.15.042.062.047.057c.032.035.068.065.107.09.04.025.084.044.134.058.05.013.108.02.175.02.154 0 .27-.035.35-.104.079-.07.118-.17.118-.298v-.025l-.007-.091c-.015-.086-.052-.155-.112-.207-.079-.07-.195-.105-.349-.105h-.256v-.228h.237l.104-.006c.097-.013.173-.044.229-.095.073-.068.11-.154.11-.26v-.022l-.006-.08c-.014-.076-.047-.135-.101-.178-.072-.057-.166-.086-.283-.086-.112 0-.203.025-.274.074-.07.049-.13.115-.175.198l-.193-.15.044-.065.054-.064c.038-.043.084-.08.136-.114.052-.033.112-.06.18-.081.07-.021.147-.032.235-.032zm-9.36 0c.091 0 .177.012.259.036.08.024.15.06.21.106.06.047.106.105.14.174.035.068.052.146.052.234 0 .07-.01.134-.033.19-.022.056-.051.105-.089.147-.037.041-.081.077-.132.106-.051.029-.106.05-.164.065v.013l.086.024.084.036c.055.029.104.065.147.11.042.044.077.098.103.162.026.063.039.136.039.217 0 .093-.018.18-.053.257-.036.078-.086.145-.15.2-.065.055-.143.098-.234.13-.092.03-.193.046-.303.046-.093 0-.177-.01-.25-.031-.072-.02-.137-.049-.193-.084-.056-.036-.105-.075-.148-.119s-.08-.09-.114-.137l.197-.15.042.062.047.057c.032.035.068.065.107.09.04.025.084.044.134.058.05.013.108.02.175.02.154 0 .27-.035.35-.104.079-.07.118-.17.118-.298v-.025l-.007-.091c-.015-.086-.052-.155-.112-.207-.079-.07-.195-.105-.349-.105h-.256v-.228h.237l.104-.006c.097-.013.173-.044.229-.095.073-.068.11-.154.11-.26v-.022l-.006-.08c-.014-.076-.047-.135-.101-.178-.072-.057-.166-.086-.283-.086-.112 0-.203.025-.274.074-.07.049-.13.115-.175.198l-.193-.15.044-.065.054-.064c.038-.043.084-.08.136-.114.052-.033.112-.06.18-.081.07-.021.147-.032.235-.032zm1.934 0c.26 0 .45.1.57.297.119.197.179.474.179.83 0 .355-.06.632-.18.83-.12.197-.309.296-.569.296-.26 0-.45-.099-.57-.296-.119-.198-.179-.475-.179-.83 0-.356.06-.633.18-.83.12-.198.309-.297.569-.297zm9.569.038v1.947h.562v.23h-1.432v-.23h.608v-1.754h-.022l-.549.512-.153-.165.577-.54h.409zm-20.823-.038c.106 0 .2.016.284.047.083.031.153.075.21.131.055.056.098.123.129.2.03.077.045.162.045.256 0 .085-.012.164-.036.237-.024.073-.057.142-.098.207-.042.066-.092.13-.152.192-.059.063-.123.125-.192.188l-.586.527h1.145v.23h-1.429v-.268l.711-.655.097-.095c.06-.065.113-.133.16-.203.068-.105.102-.21.102-.316v-.038l-.006-.086c-.013-.082-.044-.151-.094-.207-.066-.075-.167-.113-.302-.113-.067 0-.125.01-.175.029-.05.018-.093.044-.13.078-.036.033-.066.072-.09.117-.024.044-.043.093-.058.145l-.234-.09.037-.096.05-.094c.035-.061.081-.116.136-.163.055-.048.122-.087.2-.116.078-.029.17-.044.276-.044zm1.89 0c.113 0 .215.02.305.058.09.039.168.094.231.166.063.071.112.16.145.263.033.104.05.22.05.35 0 .162-.024.314-.072.457-.048.142-.11.272-.185.39-.076.117-.16.221-.252.312-.091.09-.18.164-.268.22h-.337l.112-.085c.073-.056.14-.11.2-.165.092-.081.172-.166.24-.254.069-.089.127-.183.175-.284.048-.101.086-.215.116-.342l-.016-.006-.057.084c-.041.053-.09.1-.144.14-.082.058-.19.088-.323.088-.094 0-.18-.016-.26-.047-.078-.031-.146-.076-.202-.134-.056-.058-.1-.128-.133-.21-.032-.083-.048-.176-.048-.28 0-.106.017-.203.052-.292.034-.088.083-.164.146-.227.064-.064.14-.113.228-.148.088-.036.188-.054.298-.054zm9.364.228c-.085 0-.158.018-.218.053-.06.036-.11.086-.147.15-.037.065-.065.14-.083.228-.017.087-.026.184-.026.29v.356l.003.103c.004.066.011.129.023.187.018.087.046.163.083.228.037.064.086.114.147.15.06.035.133.052.218.052.085 0 .158-.017.218-.053.06-.035.11-.085.147-.15.037-.064.065-.14.083-.227.017-.088.026-.184.026-.29v-.356l-.003-.103c-.004-.067-.011-.129-.023-.187-.018-.088-.046-.163-.083-.228-.037-.064-.086-.114-.147-.15-.06-.035-.133-.053-.218-.053zm-9.36 0c-.144 0-.255.04-.335.119-.08.079-.12.192-.12.34v.025l.007.104c.015.098.053.177.113.236.08.079.191.118.335.118.144 0 .255-.039.335-.118.08-.08.12-.192.12-.34v-.025l-.007-.104c-.015-.098-.053-.177-.113-.236-.08-.08-.191-.119-.335-.119z"/>
        <path fill="#333" fill-rule="nonzero" d="M48.762 70.616c.091 0 .177.012.259.036.08.024.15.06.21.106.06.047.106.105.14.174.035.068.052.146.052.234 0 .07-.01.134-.033.19-.022.056-.051.105-.089.147-.037.041-.081.077-.132.106-.051.029-.106.05-.164.065v.013l.086.024.084.036c.055.029.104.065.147.11.042.044.077.098.103.162.026.063.039.136.039.217 0 .093-.018.18-.053.257-.036.078-.086.145-.15.2-.065.055-.143.098-.234.13-.092.03-.193.046-.303.046-.093 0-.177-.01-.25-.031-.072-.02-.137-.049-.193-.084-.056-.036-.105-.075-.148-.119s-.08-.09-.114-.137l.197-.15.042.062.047.057c.032.035.068.065.107.09.04.025.084.044.134.058.05.013.108.02.175.02.154 0 .27-.035.35-.104.079-.07.118-.17.118-.298v-.025l-.007-.091c-.015-.086-.052-.155-.112-.207-.079-.07-.195-.105-.349-.105h-.256v-.228h.237l.104-.006c.097-.013.173-.044.229-.095.073-.068.11-.154.11-.26v-.022l-.006-.08c-.014-.076-.047-.135-.101-.178-.072-.057-.166-.086-.283-.086-.112 0-.203.025-.274.074-.07.049-.13.115-.175.198l-.193-.15.044-.065.054-.064c.038-.043.084-.08.136-.114.052-.033.112-.06.18-.081.07-.021.147-.032.235-.032zm-35.12.038l-.111.084c-.073.056-.14.111-.2.166-.092.08-.172.165-.24.254-.069.088-.127.183-.175.284-.048.1-.086.214-.116.341l.016.007.057-.085c.041-.053.09-.099.144-.138.082-.06.19-.09.323-.09.094 0 .18.016.26.047.078.032.146.076.202.135.056.058.1.129.133.212.032.083.048.175.048.277 0 .106-.017.204-.052.292-.034.089-.083.164-.146.228-.064.063-.14.113-.23.148-.089.035-.188.053-.296.053-.112 0-.214-.02-.304-.058-.09-.038-.168-.093-.231-.165-.063-.072-.112-.16-.145-.264-.033-.104-.05-.22-.05-.35 0-.161.024-.314.072-.456.048-.143.11-.273.185-.39.076-.118.16-.222.252-.312.091-.09.18-.164.268-.22h.337zm18.334-.038c.218 0 .388.05.509.149.12.098.18.231.18.397 0 .125-.033.232-.1.32-.068.089-.16.153-.274.192v.025l.094.032c.089.036.164.087.224.152.081.088.122.206.122.356 0 .09-.016.173-.048.25-.033.076-.08.143-.144.2-.063.055-.142.1-.235.132-.094.032-.203.048-.328.048s-.234-.016-.328-.048c-.093-.032-.172-.077-.235-.133-.064-.056-.111-.123-.144-.2-.032-.076-.048-.16-.048-.25 0-.149.04-.267.122-.355.08-.087.187-.149.318-.184v-.025l-.082-.034c-.077-.039-.14-.091-.191-.158-.068-.088-.102-.195-.102-.32 0-.166.06-.299.181-.397.121-.1.29-.149.509-.149zm18.72 0c.26 0 .45.1.57.297.119.197.179.474.179.83 0 .355-.06.632-.18.83-.12.197-.309.296-.569.296-.26 0-.45-.099-.57-.296-.119-.198-.179-.475-.179-.83 0-.356.06-.633.18-.83.12-.198.309-.297.569-.297zm-20.614 0c.106 0 .2.016.284.047.083.031.153.075.21.131.055.056.098.123.129.2.03.077.045.162.045.256 0 .085-.012.164-.036.237-.024.073-.057.142-.098.207-.042.066-.092.13-.152.192-.059.063-.123.125-.192.188l-.586.527h1.145v.23h-1.429v-.268l.711-.655.097-.095c.06-.065.113-.133.16-.203.068-.105.102-.21.102-.316v-.038l-.006-.086c-.013-.082-.044-.151-.094-.207-.066-.075-.167-.113-.302-.113-.067 0-.125.01-.175.029-.05.018-.093.044-.13.078-.036.033-.066.072-.09.117-.024.044-.043.093-.058.145l-.234-.09.037-.096.05-.094c.035-.061.081-.116.136-.163.055-.048.122-.087.2-.116.078-.029.17-.044.276-.044zm-6.758.038v.23l-.817 1.948h-.281l.833-1.953h-.93v.405h-.234v-.63h1.43zm-2.602-.038c.106 0 .2.016.284.047.083.031.153.075.21.131.055.056.098.123.129.2.03.077.045.162.045.256 0 .085-.012.164-.036.237-.024.073-.057.142-.098.207-.042.066-.092.13-.152.192-.059.063-.123.125-.192.188l-.586.527h1.145v.23h-1.429v-.268l.711-.655.097-.095c.06-.065.113-.133.16-.203.068-.105.102-.21.102-.316v-.038l-.006-.086c-.013-.082-.044-.151-.094-.207-.066-.075-.167-.113-.302-.113-.067 0-.125.01-.175.029-.05.018-.093.044-.13.078-.036.033-.066.072-.09.117-.024.044-.043.093-.058.145l-.234-.09.037-.096.05-.094c.035-.061.081-.116.136-.163.055-.048.122-.087.2-.116.078-.029.17-.044.276-.044zm18.72 0c.106 0 .2.016.284.047.083.031.153.075.21.131.055.056.098.123.129.2.03.077.045.162.045.256 0 .085-.012.164-.036.237-.024.073-.057.142-.098.207-.042.066-.092.13-.152.192-.059.063-.123.125-.192.188l-.586.527h1.145v.23h-1.429v-.268l.711-.655.097-.095c.06-.065.113-.133.16-.203.068-.105.102-.21.102-.316v-.038l-.006-.086c-.013-.082-.044-.151-.094-.207-.066-.075-.167-.113-.302-.113-.067 0-.125.01-.175.029-.05.018-.093.044-.13.078-.036.033-.066.072-.09.117-.024.044-.043.093-.058.145l-.234-.09.037-.096.05-.094c.035-.061.081-.116.136-.163.055-.048.122-.087.2-.116.078-.029.17-.044.276-.044zm-28.08 0c.106 0 .2.016.284.047.083.031.153.075.21.131.055.056.098.123.129.2.03.077.045.162.045.256 0 .085-.012.164-.036.237-.024.073-.057.142-.098.207-.042.066-.092.13-.152.192-.059.063-.123.125-.192.188l-.586.527h1.145v.23h-1.429v-.268l.711-.655.097-.095c.06-.065.113-.133.16-.203.068-.105.102-.21.102-.316v-.038l-.006-.086c-.013-.082-.044-.151-.094-.207-.066-.075-.167-.113-.302-.113-.067 0-.125.01-.175.029-.05.018-.093.044-.13.078-.036.033-.066.072-.09.117-.024.044-.043.093-.058.145l-.234-.09.037-.096.05-.094c.035-.061.081-.116.136-.163.055-.048.122-.087.2-.116.078-.029.17-.044.276-.044zm29.97 0c.113 0 .215.02.305.058.09.039.168.094.231.166.063.071.112.16.145.263.033.104.05.22.05.35 0 .162-.024.314-.072.457-.048.142-.11.272-.185.39-.076.117-.16.221-.252.312-.091.09-.18.164-.268.22h-.337l.112-.085c.073-.056.14-.11.2-.165.092-.081.172-.166.24-.254.069-.089.127-.183.175-.284.048-.101.086-.215.116-.342l-.016-.006-.057.084c-.041.053-.09.1-.144.14-.082.058-.19.088-.323.088-.094 0-.18-.016-.26-.047-.078-.031-.146-.076-.202-.134-.056-.058-.1-.128-.133-.21-.032-.083-.048-.176-.048-.28 0-.106.017-.203.052-.292.034-.088.083-.164.146-.227.064-.064.14-.113.228-.148.088-.036.188-.054.298-.054zm-9.356 1.18c-.152 0-.27.034-.353.101-.083.068-.124.164-.124.289v.065l.007.089c.016.082.055.15.117.2.084.068.201.101.353.101.152 0 .27-.033.353-.101.083-.068.124-.164.124-.289v-.065l-.007-.088c-.016-.083-.055-.15-.117-.2-.084-.068-.201-.102-.353-.102zm-18.72-.097c-.144 0-.255.04-.335.119-.08.079-.12.192-.12.34v.025l.007.104c.015.098.053.177.113.236.08.079.191.118.335.118.144 0 .255-.04.335-.118.08-.08.12-.193.12-.34v-.025l-.007-.105c-.015-.097-.053-.176-.113-.235-.08-.08-.191-.119-.335-.119zm37.44-.855c-.085 0-.158.018-.218.053-.06.036-.11.086-.147.15-.037.065-.065.14-.083.228-.017.087-.026.184-.026.29v.356l.003.103c.004.066.011.129.023.187.018.087.046.163.083.228.037.064.086.114.147.15.06.035.133.052.218.052.085 0 .158-.017.218-.053.06-.035.11-.085.147-.15.037-.064.065-.14.083-.227.017-.088.026-.184.026-.29v-.356l-.003-.103c-.004-.067-.011-.129-.023-.187-.018-.088-.046-.163-.083-.228-.037-.064-.086-.114-.147-.15-.06-.035-.133-.053-.218-.053zm-9.36 0c-.144 0-.255.04-.335.119-.08.079-.12.192-.12.34v.025l.007.104c.015.098.053.177.113.236.08.079.191.118.335.118.144 0 .255-.04.335-.118.08-.08.12-.192.12-.34v-.025l-.007-.104c-.015-.098-.053-.177-.113-.236-.08-.08-.191-.119-.335-.119zm-9.36 0c-.137 0-.241.03-.312.088-.07.058-.106.143-.106.255v.047l.007.08c.013.073.046.132.099.176.07.058.175.087.312.087s.241-.029.312-.087c.07-.058.106-.143.106-.256v-.047l-.007-.079c-.013-.074-.046-.133-.099-.176-.07-.059-.175-.088-.312-.088zm-9.36-8.516c.26 0 .45.099.57.297.119.197.179.474.179.83 0 .355-.06.632-.18.83-.12.197-.309.296-.569.296-.26 0-.45-.099-.57-.297-.119-.197-.179-.474-.179-.83 0-.355.06-.632.18-.83.12-.197.309-.296.569-.296zm28.018-.007c.091 0 .177.012.259.036.08.024.15.06.21.106.06.047.106.105.14.173.035.069.052.147.052.234 0 .071-.01.135-.033.19-.022.057-.051.106-.089.147-.037.042-.081.077-.132.106-.051.03-.106.051-.164.066v.012l.086.025.084.036c.055.028.104.065.147.11.042.044.077.098.103.162.026.063.039.135.039.217 0 .093-.018.179-.053.257-.036.078-.086.144-.15.2-.065.055-.143.098-.234.13-.092.03-.193.046-.303.046-.093 0-.177-.01-.25-.031-.072-.021-.137-.05-.193-.085-.056-.035-.105-.074-.148-.118s-.08-.09-.114-.137l.197-.15.042.062.047.056c.032.036.068.066.107.09.04.026.084.045.134.059.05.013.108.02.175.02.154 0 .27-.035.35-.105.079-.07.118-.169.118-.298v-.025l-.007-.09c-.015-.086-.052-.155-.112-.208-.079-.07-.195-.104-.349-.104h-.256v-.228h.237l.104-.006c.097-.013.173-.045.229-.095.073-.068.11-.155.11-.26v-.023l-.006-.08c-.014-.075-.047-.134-.101-.177-.072-.057-.166-.086-.283-.086-.112 0-.203.025-.274.074-.07.048-.13.114-.175.198l-.193-.15.044-.065.054-.065c.038-.042.084-.08.136-.113.052-.034.112-.06.18-.082.07-.02.147-.03.235-.03zm19.4.038v.23h-.955l-.062.83h.021l.055-.067c.037-.043.078-.078.122-.107.065-.044.155-.066.27-.066.093 0 .18.016.259.047.079.031.147.075.206.133.058.057.103.127.135.21.032.083.049.178.049.284 0 .106-.017.203-.05.292-.034.088-.082.164-.145.228-.064.063-.14.112-.231.148-.09.035-.193.053-.308.053-.091 0-.172-.01-.241-.031-.07-.021-.132-.05-.186-.085-.054-.035-.101-.074-.142-.118-.04-.044-.077-.09-.11-.137l.196-.15.042.062.044.056c.03.036.063.066.1.09.036.026.078.045.126.059.048.013.105.02.171.02.15 0 .264-.04.34-.119.077-.079.116-.19.116-.334v-.03l-.007-.102c-.015-.096-.05-.173-.109-.233-.076-.079-.19-.118-.34-.118-.1 0-.178.018-.235.054-.057.037-.109.08-.155.13l-.221-.031.078-1.198h1.167zm-49.312-.03c.106 0 .2.015.284.046.083.031.153.075.21.131.055.056.098.123.129.2.03.077.045.162.045.256 0 .085-.012.164-.036.237-.024.072-.057.142-.098.207-.042.066-.092.13-.152.192-.059.062-.123.125-.192.187l-.586.528h1.145v.23h-1.429v-.268l.711-.655.097-.096c.06-.065.113-.132.16-.202.068-.105.102-.21.102-.317v-.037l-.006-.086c-.013-.082-.044-.151-.094-.207-.066-.075-.167-.113-.302-.113-.067 0-.125.01-.175.028-.05.019-.093.045-.13.078-.036.034-.066.073-.09.117-.024.045-.043.093-.058.145l-.234-.09.037-.096.05-.093c.035-.061.081-.116.136-.164.055-.048.122-.086.2-.115.078-.03.17-.044.276-.044zm39.818.03v1.532h.315v.218h-.315v.427h-.25v-.427h-1.051v-.23l.91-1.52h.39zm6.982-.038c.106 0 .2.016.284.047.083.031.153.075.21.131.055.056.098.123.129.2.03.077.045.162.045.256 0 .085-.012.164-.036.237-.024.073-.057.142-.098.207-.042.066-.092.13-.152.192-.059.062-.123.125-.192.187l-.586.528h1.145v.23h-1.429v-.268l.711-.655.097-.096c.06-.065.113-.132.16-.202.068-.105.102-.21.102-.317v-.037l-.006-.086c-.013-.082-.044-.151-.094-.207-.066-.075-.167-.113-.302-.113-.067 0-.125.01-.175.028-.05.019-.093.045-.13.078-.036.034-.066.073-.09.117-.024.045-.043.093-.058.145l-.234-.09.037-.096.05-.093c.035-.061.081-.116.136-.164.055-.047.122-.086.2-.115.078-.03.17-.044.276-.044zm-37.44 0c.106 0 .2.016.284.047.083.031.153.075.21.131.055.056.098.123.129.2.03.077.045.162.045.256 0 .085-.012.164-.036.237-.024.073-.057.142-.098.207-.042.066-.092.13-.152.192-.059.062-.123.125-.192.187l-.586.528h1.145v.23h-1.429v-.268l.711-.655.097-.096c.06-.065.113-.132.16-.202.068-.105.102-.21.102-.317v-.037l-.006-.086c-.013-.082-.044-.151-.094-.207-.066-.075-.167-.113-.302-.113-.067 0-.125.01-.175.028-.05.019-.093.045-.13.078-.036.034-.066.073-.09.117-.024.045-.043.093-.058.145l-.234-.09.037-.096.05-.093c.035-.061.081-.116.136-.164.055-.047.122-.086.2-.115.078-.03.17-.044.276-.044zm2.103.038v1.947h.562v.23h-1.432v-.23h.608v-1.754h-.022l-.549.512-.153-.166.577-.54h.409zm25.977-.038c.106 0 .2.016.284.047.083.031.153.075.21.131.055.056.098.123.129.2.03.077.045.162.045.256 0 .085-.012.164-.036.237-.024.073-.057.142-.098.207-.042.066-.092.13-.152.192-.059.062-.123.125-.192.187l-.586.528h1.145v.23h-1.429v-.268l.711-.655.097-.096c.06-.065.113-.132.16-.202.068-.105.102-.21.102-.317v-.037l-.006-.086c-.013-.082-.044-.151-.094-.207-.066-.075-.167-.113-.302-.113-.067 0-.125.01-.175.028-.05.019-.093.045-.13.078-.036.034-.066.073-.09.117-.024.045-.043.093-.058.145l-.234-.09.037-.096.05-.093c.035-.061.081-.116.136-.164.055-.047.122-.086.2-.115.078-.03.17-.044.276-.044zm-16.848 0c.106 0 .2.016.284.047.083.031.153.075.21.131.055.056.098.123.129.2.03.077.045.162.045.256 0 .085-.012.164-.036.237-.024.073-.057.142-.098.207-.042.066-.092.13-.152.192-.059.062-.123.125-.192.187l-.586.528h1.145v.23h-1.429v-.268l.711-.655.097-.096c.06-.065.113-.132.16-.202.068-.105.102-.21.102-.317v-.037l-.006-.086c-.013-.082-.044-.151-.094-.207-.066-.075-.167-.113-.302-.113-.067 0-.125.01-.175.028-.05.019-.093.045-.13.078-.036.034-.066.073-.09.117-.024.045-.043.093-.058.145l-.234-.09.037-.096.05-.093c.035-.061.081-.116.136-.164.055-.047.122-.086.2-.115.078-.03.17-.044.276-.044zm-29.721.038v1.947h.562v.23h-1.432v-.23h.608v-1.754h-.022l-.549.512-.153-.166.577-.54h.409zm27.85-.038c.105 0 .2.016.283.047.083.031.153.075.21.131.055.056.098.123.129.2.03.077.045.162.045.256 0 .085-.012.164-.036.237-.024.073-.057.142-.098.207-.042.066-.092.13-.152.192-.059.062-.123.125-.192.187l-.586.528h1.145v.23h-1.429v-.268l.711-.655.097-.096c.06-.065.113-.132.16-.202.068-.105.102-.21.102-.317v-.037l-.006-.086c-.013-.082-.044-.151-.094-.207-.066-.075-.167-.113-.302-.113-.067 0-.125.01-.175.028-.05.019-.093.045-.13.078-.036.034-.066.073-.09.117-.024.045-.043.093-.058.145l-.234-.09.037-.096.05-.093c.035-.061.081-.116.136-.164.055-.047.122-.086.2-.115.078-.03.17-.044.276-.044zm9.36 0c.105 0 .2.016.283.047.083.031.153.075.21.131.055.056.098.123.129.2.03.077.045.162.045.256 0 .085-.012.164-.036.237-.024.073-.057.142-.098.207-.042.066-.092.13-.152.192-.059.062-.123.125-.192.187l-.586.528h1.145v.23h-1.429v-.268l.711-.655.097-.096c.06-.065.113-.132.16-.202.068-.105.102-.21.102-.317v-.037l-.006-.086c-.013-.082-.044-.151-.094-.207-.066-.075-.167-.113-.302-.113-.067 0-.125.01-.175.028-.05.019-.093.045-.13.078-.036.034-.066.073-.09.117-.024.045-.043.093-.058.145l-.234-.09.037-.096.05-.093c.035-.061.081-.116.136-.164.055-.047.122-.086.2-.115.078-.03.17-.044.276-.044zm-35.55 0c.112 0 .214.02.304.058.09.038.168.094.231.165.063.072.112.16.145.264.033.104.05.22.05.35 0 .162-.024.314-.072.456-.048.143-.11.273-.185.39-.076.118-.16.222-.252.312-.091.09-.18.164-.268.22h-.337l.112-.084c.073-.056.14-.111.2-.165.092-.081.172-.166.24-.254.069-.089.127-.183.175-.284.048-.101.086-.215.116-.342l-.016-.006-.057.084c-.041.053-.09.1-.144.139-.082.06-.19.089-.323.089-.094 0-.18-.016-.26-.047-.078-.031-.146-.076-.202-.134-.056-.058-.1-.129-.133-.21-.032-.083-.048-.176-.048-.28 0-.106.017-.203.052-.292.034-.088.083-.164.146-.228.064-.063.14-.112.228-.148.088-.035.188-.053.298-.053zm9.363.235c-.085 0-.158.018-.218.053s-.11.085-.147.15c-.037.064-.065.14-.083.228-.017.087-.026.184-.026.29v.355l.003.103c.004.067.011.13.023.188.018.087.046.163.083.227.037.065.086.115.147.15.06.035.133.053.218.053.085 0 .158-.018.218-.053s.11-.085.147-.15c.037-.064.065-.14.083-.227.017-.088.026-.185.026-.29v-.356l-.003-.103c-.004-.067-.011-.13-.023-.187-.018-.088-.046-.164-.083-.228-.037-.065-.086-.115-.147-.15-.06-.035-.133-.053-.218-.053zm37.674.005h-.016l-.789 1.33h.805v-1.33zm-47.034-.012c-.144 0-.255.04-.335.119-.08.079-.12.192-.12.34v.025l.007.104c.015.098.053.176.113.236.08.079.191.118.335.118.144 0 .255-.04.335-.118.08-.08.12-.193.12-.34v-.025l-.007-.105c-.015-.098-.053-.176-.113-.235-.08-.08-.191-.119-.335-.119zm56.16-8.516c.218 0 .388.05.509.148.12.099.18.232.18.398 0 .125-.033.231-.1.32-.068.088-.16.152-.274.192v.025l.094.031c.089.036.164.087.224.153.081.087.122.206.122.355 0 .09-.016.173-.048.25-.033.077-.08.143-.144.2-.063.056-.142.1-.235.132-.094.032-.203.049-.328.049s-.234-.017-.328-.049c-.093-.032-.172-.076-.235-.132-.064-.057-.111-.123-.144-.2-.032-.077-.048-.16-.048-.25 0-.15.04-.268.122-.355.08-.088.187-.149.318-.184v-.025l-.082-.035c-.077-.038-.14-.09-.191-.157-.068-.089-.102-.195-.102-.32 0-.166.06-.299.181-.398.121-.099.29-.148.509-.148zm-46.862 0c.091 0 .177.012.259.036.08.024.15.06.21.106.06.047.106.104.14.173.035.069.052.147.052.234 0 .07-.01.134-.033.19-.022.057-.051.105-.089.147-.037.042-.081.077-.132.106-.051.03-.106.051-.164.066v.012l.086.025.084.036c.055.028.104.064.147.11.042.044.077.098.103.161.026.064.039.136.039.217 0 .094-.018.18-.053.258-.036.078-.086.144-.15.2-.065.054-.143.098-.234.129-.092.031-.193.047-.303.047-.093 0-.177-.01-.25-.032-.072-.02-.137-.048-.193-.084-.056-.035-.105-.075-.148-.118-.043-.044-.08-.09-.114-.138l.197-.15.042.063.047.056c.032.035.068.066.107.09.04.026.084.045.134.058.05.014.108.02.175.02.154 0 .27-.034.35-.104.079-.07.118-.169.118-.298v-.025l-.007-.091c-.015-.086-.052-.155-.112-.207-.079-.07-.195-.104-.349-.104h-.256v-.228h.237l.104-.006c.097-.013.173-.045.229-.095.073-.068.11-.155.11-.261v-.022l-.006-.08c-.014-.075-.047-.134-.101-.177-.072-.057-.166-.086-.283-.086-.112 0-.203.024-.274.073-.07.05-.13.115-.175.198l-.193-.15.044-.064.054-.065c.038-.042.084-.08.136-.114.052-.033.112-.06.18-.08.07-.022.147-.032.235-.032zm28.529.037l-.112.085c-.073.056-.14.11-.2.165-.092.081-.172.166-.24.254-.069.089-.127.183-.175.284-.048.101-.086.215-.116.342l.016.006.057-.084c.041-.053.09-.1.144-.139.082-.06.19-.089.323-.089.094 0 .18.016.26.047.078.031.146.076.202.134.056.058.1.129.133.212.032.083.048.176.048.278 0 .106-.017.203-.052.292-.034.088-.083.164-.146.227-.064.064-.14.113-.23.149-.089.035-.188.053-.296.053-.112 0-.214-.02-.304-.058-.09-.039-.168-.094-.231-.165-.063-.072-.112-.16-.145-.264-.033-.104-.05-.22-.05-.35 0-.162.024-.314.072-.457.048-.142.11-.272.185-.39.076-.117.16-.221.252-.312.091-.09.18-.163.268-.22h.337zm-9.13 0v.231H41l-.062.83h.021l.055-.068c.037-.042.078-.077.122-.107.065-.043.155-.065.27-.065.093 0 .18.016.259.047.079.031.147.075.206.132.058.058.103.128.135.211.032.083.049.178.049.284 0 .106-.017.203-.05.292-.034.088-.082.164-.145.227-.064.064-.14.113-.231.149-.09.035-.193.053-.308.053-.091 0-.172-.01-.241-.032-.07-.02-.132-.048-.186-.084-.054-.035-.101-.075-.142-.118-.04-.044-.077-.09-.11-.138l.196-.15.042.063.044.056c.03.035.063.066.1.09.036.026.078.045.126.058.048.014.105.02.171.02.15 0 .264-.039.34-.118.077-.079.116-.19.116-.334v-.031l-.007-.102c-.015-.095-.05-.173-.109-.232-.076-.079-.19-.118-.34-.118-.1 0-.178.018-.235.054-.057.037-.109.08-.155.13l-.221-.032.078-1.198h1.167zm-9.493 0v1.532h.315v.219h-.315v.427h-.25v-.427h-1.051v-.231l.91-1.52h.39zm16.573 0v1.947h.562v.231h-1.432v-.23h.608v-1.754h-.022l-.549.512-.153-.166.577-.54h.409zm-9.36 0v1.947h.562v.231h-1.432v-.23h.608v-1.754h-.022l-.549.512-.153-.166.577-.54h.409zm28.08 0v1.947h.562v.231h-1.432v-.23h.608v-1.754h-.022l-.549.512-.153-.166.577-.54h.409zm-56.16 0v1.947h.562v.231h-1.432v-.23h.608v-1.754h-.022l-.549.512-.153-.166.577-.54h.409zm1.641-.037c.106 0 .2.016.284.047.083.031.153.075.21.13.055.057.098.124.129.2.03.077.045.163.045.256 0 .086-.012.165-.036.237-.024.073-.057.142-.098.208-.042.065-.092.13-.152.192-.059.062-.123.125-.192.187l-.586.527h1.145v.231h-1.429v-.268l.711-.655.097-.096c.06-.065.113-.132.16-.202.068-.105.102-.21.102-.317v-.037l-.006-.087c-.013-.082-.044-.15-.094-.207-.066-.075-.167-.112-.302-.112-.067 0-.125.01-.175.028-.05.019-.093.045-.13.078-.036.033-.066.072-.09.117-.024.045-.043.093-.058.145l-.234-.09.037-.096.05-.093c.035-.061.081-.116.136-.164.055-.048.122-.086.2-.115.078-.03.17-.044.276-.044zm47.53.037v.231l-.817 1.947h-.281l.833-1.953h-.93v.406h-.234v-.63h1.43zm-39.811 0v1.947h.562v.231h-1.432v-.23h.608v-1.754h-.022l-.549.512-.153-.166.577-.54h.409zm37.44 0v1.947h.562v.231h-1.432v-.23h.608v-1.754h-.022l-.549.512-.153-.166.577-.54h.409zm-28.08 0v1.947h.562v.231h-1.432v-.23h.608v-1.754h-.022l-.549.512-.153-.166.577-.54h.409zm39.103 1.142c-.152 0-.27.034-.353.102-.083.067-.124.164-.124.288v.066l.007.088c.016.083.055.15.117.2.084.068.201.102.353.102.152 0 .27-.034.353-.102.083-.067.124-.163.124-.288v-.066l-.007-.088c-.016-.083-.055-.15-.117-.2-.084-.068-.201-.102-.353-.102zm-18.72-.096c-.144 0-.255.04-.335.118-.08.08-.12.193-.12.34v.025l.007.105c.015.097.053.176.113.235.08.08.191.119.335.119.144 0 .255-.04.335-.119.08-.079.12-.192.12-.34v-.025l-.007-.104c-.015-.098-.053-.177-.113-.236-.08-.079-.191-.118-.335-.118zm-18.486-.843h-.016l-.789 1.33h.805v-1.33zm37.206-.012c-.137 0-.241.029-.312.087-.07.058-.106.144-.106.256v.047l.007.079c.013.074.046.133.099.177.07.058.175.087.312.087s.241-.03.312-.087c.07-.059.106-.144.106-.256v-.047l-.007-.08c-.013-.073-.046-.132-.099-.176-.07-.058-.175-.087-.312-.087zm-9.36-8.523c.26 0 .45.099.57.296.119.198.179.474.179.83s-.06.632-.18.83c-.12.198-.309.296-.569.296-.26 0-.45-.098-.57-.296-.119-.198-.179-.474-.179-.83s.06-.632.18-.83c.12-.197.309-.296.569-.296zm-19.656 0c.218 0 .388.05.509.148.12.099.18.231.18.398 0 .125-.033.231-.1.32-.068.088-.16.152-.274.191v.025l.094.032c.089.036.164.087.224.152.081.088.122.206.122.356 0 .09-.016.173-.048.25-.033.077-.08.143-.144.2-.063.056-.142.1-.235.132-.094.032-.203.048-.328.048s-.234-.016-.328-.048c-.093-.032-.172-.076-.235-.133-.064-.056-.111-.122-.144-.2-.032-.076-.048-.16-.048-.249 0-.15.04-.268.122-.356.08-.087.187-.148.318-.184v-.025l-.082-.034c-.077-.039-.14-.091-.191-.157-.068-.089-.102-.195-.102-.32 0-.167.06-.3.181-.398.121-.099.29-.148.509-.148zm-27.462.037v.231h-.955l-.062.83h.021l.055-.068c.037-.042.078-.078.122-.107.065-.043.155-.065.27-.065.093 0 .18.015.259.047.079.03.147.075.206.132.058.057.103.128.135.21.032.084.049.179.049.285 0 .106-.017.203-.05.291-.034.089-.082.165-.145.228-.064.064-.14.113-.231.148-.09.036-.193.053-.308.053-.091 0-.172-.01-.241-.03-.07-.022-.132-.05-.186-.085-.054-.035-.101-.075-.142-.119-.04-.043-.077-.09-.11-.137l.196-.15.042.063.044.056c.03.035.063.065.1.09.036.025.078.045.126.058.048.014.105.02.171.02.15 0 .264-.04.34-.118.077-.08.116-.19.116-.334v-.031l-.007-.102c-.015-.095-.05-.173-.109-.232-.076-.08-.19-.119-.34-.119-.1 0-.178.019-.235.055-.057.036-.109.08-.155.13l-.221-.032.078-1.198h1.167zm9.129 0l-.112.085c-.073.056-.14.11-.2.165-.092.08-.172.166-.24.254-.069.088-.127.183-.175.284-.048.1-.086.215-.116.342l.016.006.057-.085c.041-.053.09-.099.144-.138.082-.06.19-.09.323-.09.094 0 .18.016.26.048.078.03.146.076.202.134.056.058.1.129.133.212.032.083.048.176.048.278 0 .106-.017.203-.052.291-.034.089-.083.165-.146.228-.064.064-.14.113-.23.148-.089.036-.188.053-.296.053-.112 0-.214-.019-.304-.057-.09-.039-.168-.094-.231-.166-.063-.071-.112-.16-.145-.263-.033-.104-.05-.22-.05-.35 0-.162.024-.314.072-.457.048-.142.11-.272.185-.39.076-.117.16-.221.252-.312.091-.09.18-.164.268-.22h.337zm45.686 0v1.947h.562v.23h-1.432v-.23h.608v-1.753h-.022l-.549.511-.153-.165.577-.54h.409zm-36.005 0v.231l-.817 1.947h-.281L31.483 46h-.93v.405h-.234v-.63h1.43zm18.009-.037c.112 0 .214.019.304.057.09.039.168.094.231.166.063.072.112.16.145.263.033.104.05.22.05.35 0 .162-.024.314-.072.457-.048.142-.11.272-.185.39-.076.117-.16.221-.252.312-.091.09-.18.164-.268.22h-.337l.112-.085c.073-.056.14-.11.2-.165.092-.08.172-.166.24-.254.069-.088.127-.183.175-.284.048-.1.086-.215.116-.342l-.016-.006-.057.085c-.041.053-.09.099-.144.138-.082.06-.19.09-.323.09-.094 0-.18-.016-.26-.048-.078-.03-.146-.075-.202-.134-.056-.058-.1-.128-.133-.21-.032-.082-.048-.176-.048-.28 0-.106.017-.203.052-.291.034-.089.083-.165.146-.228.064-.063.14-.113.228-.148.088-.036.188-.053.298-.053zm19.868.037v1.947h.562v.23h-1.432v-.23h.608v-1.753h-.022l-.549.511-.153-.165.577-.54h.409zm-11.232 0v1.947h.562v.23h-1.432v-.23h.608v-1.753h-.022l-.549.511-.153-.165.577-.54h.409zm1.663.19c-.085 0-.158.018-.218.054-.06.035-.11.085-.147.15-.037.064-.065.14-.083.227-.017.087-.026.184-.026.29v.356l.003.103c.004.066.011.129.023.187.018.087.046.163.083.228.037.064.086.114.147.15.06.035.133.053.218.053.085 0 .158-.018.218-.053.06-.036.11-.086.147-.15.037-.065.065-.14.083-.228.017-.087.026-.184.026-.29v-.356l-.003-.103c-.004-.066-.011-.129-.023-.187-.018-.087-.046-.163-.083-.228-.037-.064-.086-.114-.147-.15-.06-.035-.133-.053-.218-.053zm-19.656.952c-.152 0-.27.034-.353.101-.083.068-.124.164-.124.29v.065l.007.088c.016.083.055.15.117.2.084.068.201.102.353.102.152 0 .27-.034.353-.102.083-.067.124-.164.124-.288v-.066l-.007-.088c-.016-.083-.055-.15-.117-.2-.084-.068-.201-.102-.353-.102zm-18.72-.097c-.144 0-.255.04-.335.119-.08.079-.12.192-.12.34v.025l.007.104c.015.098.053.177.113.236.08.08.191.119.335.119.144 0 .255-.04.335-.119.08-.079.12-.192.12-.34v-.025l-.007-.104c-.015-.098-.053-.177-.113-.236-.08-.08-.191-.119-.335-.119zm28.08-.855c-.144 0-.255.04-.335.119-.08.08-.12.192-.12.34v.025l.007.104c.015.098.053.177.113.236.08.08.191.119.335.119.144 0 .255-.04.335-.119.08-.079.12-.192.12-.34v-.025l-.007-.104c-.015-.098-.053-.177-.113-.236-.08-.079-.191-.119-.335-.119zm-9.36 0c-.137 0-.241.03-.312.088-.07.058-.106.143-.106.256v.046l.007.08c.013.074.046.133.099.176.07.059.175.088.312.088s.241-.03.312-.088c.07-.058.106-.143.106-.256v-.046l-.007-.08c-.013-.074-.046-.132-.099-.176-.07-.058-.175-.088-.312-.088zm18.658-8.523c.091 0 .177.012.259.036.08.024.15.06.21.106.06.047.106.105.14.174.035.068.052.146.052.234 0 .07-.01.134-.033.19-.022.056-.051.105-.089.147-.037.041-.081.077-.132.106-.051.029-.106.05-.164.065v.013l.086.024.084.036c.055.029.104.065.147.11.042.044.077.098.103.162.026.063.039.136.039.217 0 .093-.018.18-.053.257-.036.078-.086.145-.15.2-.065.055-.143.098-.234.13-.092.03-.193.046-.303.046-.093 0-.177-.01-.25-.031-.072-.02-.137-.049-.193-.084-.056-.036-.105-.075-.148-.119s-.08-.09-.114-.137l.197-.15.042.062.047.057c.032.035.068.065.107.09.04.025.084.044.134.058.05.013.108.02.175.02.154 0 .27-.035.35-.104.079-.07.118-.17.118-.298v-.025l-.007-.091c-.015-.086-.052-.155-.112-.207-.079-.07-.195-.105-.349-.105h-.256v-.228h.237l.104-.006c.097-.013.173-.044.229-.095.073-.068.11-.154.11-.26v-.022l-.006-.08c-.014-.076-.047-.135-.101-.178-.072-.057-.166-.086-.283-.086-.112 0-.203.025-.274.074-.07.049-.13.115-.175.198l-.193-.15.044-.065.054-.064c.038-.043.084-.08.136-.114.052-.033.112-.06.18-.081.07-.021.147-.032.235-.032zm9.906.038v1.532h.315v.218h-.315v.428h-.25v-.428h-1.051V39l.91-1.52h.39zm-19.226-.038c.106 0 .2.016.284.047.083.031.153.075.21.131.055.056.098.123.129.2.03.077.045.162.045.256 0 .085-.012.164-.036.237-.024.073-.057.142-.098.207-.042.066-.092.13-.152.192-.059.063-.123.125-.192.188l-.586.527h1.145v.23h-1.429v-.268l.711-.655.097-.095c.06-.065.113-.133.16-.203.068-.105.102-.21.102-.316v-.038l-.006-.086c-.013-.082-.044-.151-.094-.207-.066-.075-.167-.113-.302-.113-.067 0-.125.01-.175.029-.05.018-.093.044-.13.078-.036.033-.066.072-.09.117-.024.044-.043.093-.058.145l-.234-.09.037-.096.05-.094c.035-.061.081-.116.136-.163.055-.048.122-.087.2-.116.078-.029.17-.044.276-.044zm-9.129.038v1.947h.562v.23h-1.432v-.23h.608v-1.754h-.022l-.549.512-.153-.165.577-.54h.409zm28.105.203h-.016l-.789 1.329h.805v-1.33zM69.808 25.956c.164 0 .309.026.434.078.125.052.232.127.321.227l-.315.319-.056-.057c-.04-.036-.084-.066-.133-.092-.074-.038-.167-.057-.279-.057-.106 0-.185.018-.237.056-.052.037-.078.09-.078.156 0 .075.02.129.06.162.041.033.107.057.199.072l.215.034.128.025c.161.04.285.1.371.183.108.103.163.249.163.438 0 .104-.02.2-.057.287-.037.087-.092.162-.163.225-.072.062-.161.11-.267.145-.106.034-.227.051-.362.051-.191 0-.354-.033-.487-.098-.133-.066-.246-.15-.34-.254l.312-.316.077.077c.132.115.289.173.47.173.116 0 .202-.024.258-.072.056-.048.084-.111.084-.19 0-.06-.016-.11-.05-.151-.033-.04-.1-.068-.202-.083l-.216-.028-.13-.022c-.166-.037-.291-.099-.377-.187-.107-.11-.16-.257-.16-.44 0-.098.018-.187.056-.268.037-.081.09-.151.16-.21.07-.058.155-.103.256-.135.101-.032.216-.048.345-.048zm-9.36 0c.164 0 .309.026.434.078.125.052.232.127.321.227l-.315.319-.056-.057c-.04-.036-.084-.066-.133-.092-.074-.038-.167-.057-.279-.057-.106 0-.185.018-.237.056-.052.037-.078.09-.078.156 0 .075.02.129.06.162.041.033.107.057.199.072l.215.034.128.025c.161.04.285.1.371.183.108.103.163.249.163.438 0 .104-.02.2-.057.287-.037.087-.092.162-.163.225-.072.062-.161.11-.267.145-.106.034-.227.051-.362.051-.191 0-.354-.033-.487-.098-.133-.066-.246-.15-.34-.254l.312-.316.077.077c.132.115.289.173.47.173.116 0 .202-.024.258-.072.056-.048.084-.111.084-.19 0-.06-.016-.11-.05-.151-.033-.04-.1-.068-.202-.083l-.216-.028-.13-.022c-.166-.037-.291-.099-.377-.187-.107-.11-.16-.257-.16-.44 0-.098.018-.187.056-.268.037-.081.09-.151.16-.21.07-.058.155-.103.256-.135.101-.032.216-.048.345-.048zm-8.616.037v.421h-.97v.446h.827v.418h-.827v.893h-.474v-2.178h1.444zm-9.305 0v.421h-.59v1.757h-.474v-1.757h-.59v-.421h1.654zm-11.146 0l.206 1.045.115.605h.01l.137-.605.24-1.045h.518l.243 1.045.134.605h.01l.115-.605.21-1.045h.448l-.505 2.178h-.54l-.274-1.18-.106-.477h-.01l-.109.477-.275 1.18h-.542l-.493-2.178h.468zm-7.574 0v.421h-.59v1.757h-.474v-1.757h-.59v-.421h1.654zm-10.722 0l.533 1.02h.007l.527-1.02h.505v2.178h-.446v-1.43h-.01l-.158.319-.425.77-.415-.767-.165-.343h-.01v1.45h-.445v-2.177h.502z"/>
        <path fill="#F2F3F4" fill-rule="nonzero" d="M76 19L76 20 5 20 5 19z"/>
    </g>
</svg>
