<svg width="32" height="32" fill="none" xmlns="http://www.w3.org/2000/svg"><path d="M0 14.586l7-7 3 3 7-7 3 3 6-6v2.828l-6 6-3-3-7 7-3-3-7 7v-2.828z" fill="#85ACB0"/><path d="M27 22l4.707-4.707-1.414-1.414L28 18.172V0h-1.414L26 .586v17.586l-2.293-2.293-1.414 1.414L27 22z" fill="#FF444F"/><path d="M0 24a2 2 0 012-2h15a2 2 0 012 2v6a2 2 0 01-2 2H2a2 2 0 01-2-2v-6z" fill="#0E0E0E"/><path d="M4.4 26.624c.3 0 .515-.056.649-.168a.545.545 0 00.208-.432v-.056a.631.631 0 00-.2-.488c-.128-.122-.312-.184-.552-.184-.224 0-.435.059-.632.176a1.464 1.464 0 00-.504.488l-.752-.704c.106-.138.221-.264.344-.376.122-.117.261-.216.416-.296.154-.085.328-.149.52-.192.192-.048.408-.072.648-.072.298 0 .568.035.808.104.245.07.453.171.624.304.176.128.309.283.4.464.096.182.144.384.144.608 0 .176-.03.336-.088.48a1.247 1.247 0 01-.568.64c-.128.064-.264.11-.408.136v.048c.165.032.317.086.456.16.144.07.266.16.368.272.106.112.189.246.248.4.058.15.088.32.088.512 0 .251-.051.478-.152.68a1.496 1.496 0 01-.432.52 2.09 2.09 0 01-.672.336c-.262.075-.55.112-.864.112a2.91 2.91 0 01-.752-.088 2.363 2.363 0 01-.576-.232 2.253 2.253 0 01-.424-.344 2.85 2.85 0 01-.312-.408l.888-.688c.122.23.272.419.448.568.181.144.424.216.728.216.272 0 .482-.066.632-.2a.715.715 0 00.232-.56v-.048c0-.229-.088-.4-.264-.512-.171-.117-.408-.176-.712-.176H3.88v-1h.52zM9.502 30.096c-.731 0-1.272-.253-1.624-.76-.352-.506-.528-1.216-.528-2.128 0-.912.176-1.621.528-2.128.352-.506.893-.76 1.624-.76.73 0 1.272.254 1.624.76.352.507.528 1.216.528 2.128 0 .912-.176 1.622-.528 2.128-.352.507-.894.76-1.624.76zm0-1.016c.32 0 .54-.117.664-.352.122-.234.184-.565.184-.992V26.68c0-.426-.062-.757-.184-.992-.123-.234-.344-.352-.664-.352-.32 0-.542.118-.664.352-.123.235-.184.566-.184.992v1.056c0 .427.06.758.184.992.122.235.344.352.664.352zM14.298 30.096c-.73 0-1.272-.253-1.624-.76-.352-.506-.528-1.216-.528-2.128 0-.912.176-1.621.528-2.128.352-.506.894-.76 1.624-.76.731 0 1.272.254 1.624.76.352.507.528 1.216.528 2.128 0 .912-.176 1.622-.528 2.128-.352.507-.893.76-1.624.76zm0-1.016c.32 0 .542-.117.664-.352.123-.234.184-.565.184-.992V26.68c0-.426-.06-.757-.184-.992-.122-.234-.344-.352-.664-.352-.32 0-.54.118-.664.352-.122.235-.184.566-.184.992v1.056c0 .427.062.758.184.992.123.235.344.352.664.352z" fill="#fff"/></svg>