<svg xmlns="http://www.w3.org/2000/svg" width="16" height="16" viewBox="0 0 16 16">
    <g fill-rule="evenodd">
        <path d="M9.5 6.5H13A1.5 1.5 0 0 1 14.5 8v6.5h-5v-8zm2.5 2h1l-.5-.5v1l.5-.5h-1zm0 0h-1l.5.5V8l-.5.5h1zm0 2h1l-.5-.5v1l.5-.5h-1zm0 0h-1l.5.5v-1l-.5.5h1zM6.5 3.5h2v1h1v10h-8v-10h1v-1h2v-2h2v2zM4 7.5h1L4.5 7v1l.5-.5H4zm0 0H3l.5.5V7l-.5.5h1zm3 0h1L7.5 7v1l.5-.5H7zm0 0H6l.5.5V7l-.5.5h1zm-3 2h1L4.5 9v1l.5-.5H4zm0 0H3l.5.5V9l-.5.5h1zm3 0h1L7.5 9v1l.5-.5H7zm0 0H6l.5.5V9l-.5.5h1zm-3 2h1l-.5-.5v1l.5-.5H4zm0 0H3l.5.5v-1l-.5.5h1zm3 0h1l-.5-.5v1l.5-.5H7zm0 0H6l.5.5v-1l-.5.5h1z"/>
    </g>
</svg>
