<?xml version="1.0" encoding="utf-8"?>
<!-- Generator: Adobe Illustrator 16.0.0, SVG Export Plug-In . SVG Version: 6.00 Build 0)  -->
<!DOCTYPE svg PUBLIC "-//W3C//DTD SVG 1.1//EN" "http://www.w3.org/Graphics/SVG/1.1/DTD/svg11.dtd">
<svg version="1.1" id="Layer_1" xmlns="http://www.w3.org/2000/svg" xmlns:xlink="http://www.w3.org/1999/xlink" x="0px" y="0px"
	 width="32px" height="32px" viewBox="0 0 32 32" enable-background="new 0 0 32 32" xml:space="preserve">
<title>icons/underlying assets/volatility/bear market/ic-marketbear</title>
<desc>Created with Sketch.</desc>
<g>
    <path fill="#D20000" d="M16,6c5.523,0,10,4.477,10,10c0,5.523-4.477,10-10,10c-5.523,0-10-4.477-10-10C6,10.477,10.477,6,16,6"/>
    <path fill="#FFFFFF" d="M9.258,8.615C7.256,10.443,6,13.075,6,16c0,3.564,1.865,6.693,4.673,8.465
        c0.026-0.645,0.073-1.216,0.142-1.718c0.281-2.058,2.425-3.201,5.406-3.201c0.515,0,1.058,0.034,1.62,0.104
        c1.315,0.467,2.427,0.869,3.779,0.998l0.021,0.002c0.186,0,0.547-0.217,0.576-0.387c0.023-0.134,0.02-0.285-0.011-0.455
        c0.626,0,1.237-0.343,1.835-1.029c0.117-0.135,0.111-0.336-0.016-0.463c-0.877-0.877-1.832-1.709-2.865-2.5
        c0-1.022-1.068-2.563-3.205-4.621c-0.031-0.512-0.242-0.869-0.637-1.072c-0.355,0.045-0.89,0.102-1.602,0.172
        c-0.092,0.001-0.182,0.002-0.271,0.002c-0.808,0-1.473-0.058-1.994-0.174c-0.578-0.128-1.411-0.424-2.498-0.886
        C10.338,8.94,9.772,8.732,9.258,8.615"/>
    <path fill="#D20000" d="M16,26c-5.514,0-10-4.486-10-10c0-5.514,4.486-10,10-10c5.514,0,10,4.486,10,10C26,21.514,21.514,26,16,26
        z M16,7.25c-4.825,0-8.75,3.925-8.75,8.75s3.925,8.75,8.75,8.75s8.75-3.925,8.75-8.75S20.825,7.25,16,7.25z"/>
</g>
</svg>
