<svg width="16" height="16" fill="none" xmlns="http://www.w3.org/2000/svg">
    <path fill-rule="evenodd" clip-rule="evenodd" d="M10.75 0v2.666a6.02 6.02 0 011.782 1.402l.61.703-2.14 2.14-.701-.836a3 3 0 100 3.85l.701-.837 2.14 2.14-.61.704a6.02 6.02 0 01-1.782 1.402V16h-2.5v-2.005a6.104 6.104 0 01-.5 0V16h-2.5v-2.666A6 6 0 012 8a5.999 5.999 0 013.25-5.334V0h2.5v2.005a6.086 6.086 0 01.5 0V0h2.5zm-2 3.056a5.02 5.02 0 00-2 .101V1h-.5v2.315a5 5 0 00-.5 9.152 5.022 5.022 0 00.5.218V15h.5v-2.158a4.97 4.97 0 001.5.152 5.043 5.043 0 001-.152V15h.5v-2.315a4.983 4.983 0 002.027-1.408l-.71-.71A3.983 3.983 0 017.935 12a4 4 0 113.132-6.566l.71-.71A5.026 5.026 0 009.75 3.315V1h-.5v2.158a4.974 4.974 0 00-.5-.102z" fill="#333"/>
</svg>
