<?xml version="1.0" encoding="UTF-8"?>
<svg width="16px" height="16px" viewBox="0 0 16 16" version="1.1" xmlns="http://www.w3.org/2000/svg" xmlns:xlink="http://www.w3.org/1999/xlink">
    <!-- Generator: Sketch 49 (51002) - http://www.bohemiancoding.com/sketch -->
    <title>icons/system/light/chart settings/comparison/ic-comparison-normal</title>
    <desc>Created with Sketch.</desc>
    <defs></defs>
    <g id="icons/system/light/chart-settings/comparison/ic-comparison-normal" stroke="none" stroke-width="1" fill-rule="evenodd">
        <path d="M9.70710678,10 L15.5,10 C15.7761424,10 16,10.2238576 16,10.5 C16,10.7761424 15.7761424,11 15.5,11 L9.70710678,11 L11.8535534,13.1464466 C12.0488155,13.3417088 12.0488155,13.6582912 11.8535534,13.8535534 C11.6582912,14.0488155 11.3417088,14.0488155 11.1464466,13.8535534 L8.14644661,10.8535534 C7.95118446,10.6582912 7.95118446,10.3417088 8.14644661,10.1464466 L11.1464466,7.14644661 C11.3417088,6.95118446 11.6582912,6.95118446 11.8535534,7.14644661 C12.0488155,7.34170876 12.0488155,7.65829124 11.8535534,7.85355339 L9.70710678,10 Z M6.29289322,6 L0.5,6 C0.223857625,6 0,5.77614237 0,5.5 C0,5.22385763 0.223857625,5 0.5,5 L6.29289322,5 L4.14644661,2.85355339 C3.95118446,2.65829124 3.95118446,2.34170876 4.14644661,2.14644661 C4.34170876,1.95118446 4.65829124,1.95118446 4.85355339,2.14644661 L7.85355339,5.14644661 C8.04881554,5.34170876 8.04881554,5.65829124 7.85355339,5.85355339 L4.85355339,8.85355339 C4.65829124,9.04881554 4.34170876,9.04881554 4.14644661,8.85355339 C3.95118446,8.65829124 3.95118446,8.34170876 4.14644661,8.14644661 L6.29289322,6 Z" id="Combined-Shape" fill-rule="nonzero"></path>
    </g>
</svg>
