<?xml version="1.0" encoding="UTF-8"?>
<svg width="16px" height="16px" viewBox="0 0 16 16" version="1.1" xmlns="http://www.w3.org/2000/svg" xmlns:xlink="http://www.w3.org/1999/xlink">
    <!-- Generator: Sketch 50.2 (55047) - http://www.bohemiancoding.com/sketch -->
    <title>icons/system/light/chart settings/crosshair/ic-crosshair-on</title>
    <desc>Created with Sketch.</desc>
    <defs></defs>
    <g id="icons/system/light/chart-settings/crosshair/ic-crosshair-on" stroke="none" stroke-width="1" fill="none" fill-rule="evenodd">
        <path d="M7.5,13.9794631 C4.58510142,13.7389889 2.26101111,11.4148986 2.02053689,8.5 L0.5,8.5 C0.223857625,8.5 3.38176876e-17,8.27614237 0,8 C-3.38176876e-17,7.72385763 0.223857625,7.5 0.5,7.5 L2.02053689,7.5 C2.26101111,4.58510142 4.58510142,2.26101111 7.5,2.02053689 L7.5,0.5 C7.5,0.223857625 7.72385763,5.07265313e-17 8,0 C8.27614237,-5.07265313e-17 8.5,0.223857625 8.5,0.5 L8.5,2.02053689 C11.4148986,2.26101111 13.7389889,4.58510142 13.9794631,7.5 L15.5,7.5 C15.7761424,7.5 16,7.72385763 16,8 C16,8.27614237 15.7761424,8.5 15.5,8.5 L13.9794631,8.5 C13.7389889,11.4148986 11.4148986,13.7389889 8.5,13.9794631 L8.5,15.5 C8.5,15.7761424 8.27614237,16 8,16 C7.72385763,16 7.5,15.7761424 7.5,15.5 L7.5,13.9794631 Z M8,13 C10.7614237,13 13,10.7614237 13,8 C13,5.23857625 10.7614237,3 8,3 C5.23857625,3 3,5.23857625 3,8 C3,10.7614237 5.23857625,13 8,13 Z M8,12 C5.790861,12 4,10.209139 4,8 C4,5.790861 5.790861,4 8,4 C10.209139,4 12,5.790861 12,8 C12,10.209139 10.209139,12 8,12 Z M8,11 C9.65685425,11 11,9.65685425 11,8 C11,6.34314575 9.65685425,5 8,5 C6.34314575,5 5,6.34314575 5,8 C5,9.65685425 6.34314575,11 8,11 Z" id="Combined-Shape" fill-rule="nonzero"></path>
    </g>
</svg>