<?xml version="1.0" encoding="UTF-8"?>
<svg width="16px" height="16px" viewBox="0 0 16 16" version="1.1" xmlns="http://www.w3.org/2000/svg" xmlns:xlink="http://www.w3.org/1999/xlink">
    <!-- Generator: Sketch 49.1 (51147) - http://www.bohemiancoding.com/sketch -->
    <title>icons/system/light/download chart/ic-downloadchart-normal</title>
    <desc>Created with Sketch.</desc>
    <defs></defs>
    <g id="icons/system/light/download-chart/ic-downloadchart-normal" stroke="none" stroke-width="1" fill="none" fill-rule="evenodd">
        <path d="M5.90761061,8.60263281 L10.6228542,11.54966 C10.9814833,11.2090201 11.466332,11 12,11 C13.1045695,11 14,11.8954305 14,13 C14,14.1045695 13.1045695,15 12,15 C10.8954305,15 10,14.1045695 10,13 C10,12.78999 10.0323687,12.5875401 10.0923894,12.3973672 L5.37714584,9.45033997 C5.01851673,9.79097987 4.533668,10 4,10 C2.8954305,10 2,9.1045695 2,8 C2,6.8954305 2.8954305,6 4,6 C4.5338194,6 5.01879183,6.20913874 5.37745104,6.54994998 L10.0928805,3.60418668 C10.0325453,3.4135628 10,3.21058208 10,3 C10,1.8954305 10.8954305,1 12,1 C13.1045695,1 14,1.8954305 14,3 C14,4.1045695 13.1045695,5 12,5 C11.4669183,5 10.9825486,4.79143887 10.6240366,4.45146215 L5.90773732,7.39776881 C5.96767682,7.58782514 6,7.79013783 6,8 C6,8.21001 5.96763126,8.41245988 5.90761061,8.60263281 Z M12,4 C12.5522847,4 13,3.55228475 13,3 C13,2.44771525 12.5522847,2 12,2 C11.4477153,2 11,2.44771525 11,3 C11,3.55228475 11.4477153,4 12,4 Z M12,14 C12.5522847,14 13,13.5522847 13,13 C13,12.4477153 12.5522847,12 12,12 C11.4477153,12 11,12.4477153 11,13 C11,13.5522847 11.4477153,14 12,14 Z M4,9 C4.55228475,9 5,8.55228475 5,8 C5,7.44771525 4.55228475,7 4,7 C3.44771525,7 3,7.44771525 3,8 C3,8.55228475 3.44771525,9 4,9 Z" id="Combined-Shape" fill="#2A3052" fill-rule="nonzero"></path>
    </g>
</svg>