<?xml version="1.0" encoding="UTF-8"?>
<svg width="16px" height="16px" viewBox="0 0 16 16" version="1.1" xmlns="http://www.w3.org/2000/svg" xmlns:xlink="http://www.w3.org/1999/xlink">
    <!-- Generator: Sketch 49 (51002) - http://www.bohemiancoding.com/sketch -->
    <title>icons/system/light/delete/ic-delete</title>
    <desc>Created with Sketch.</desc>
    <defs></defs>
    <g id="icons/system/light/delete/ic-delete" stroke="none" stroke-width="1" fill-rule="evenodd">
        <path d="M12,2 L15.5,2 C15.7761424,2 16,2.22385763 16,2.5 C16,2.77614237 15.7761424,3 15.5,3 L15,3 L15,15 C15,15.5522847 14.5522847,16 14,16 L2,16 C1.44771525,16 1,15.5522847 1,15 L1,3 L0.5,3 C0.223857625,3 3.38176876e-17,2.77614237 0,2.5 C-3.38176876e-17,2.22385763 0.223857625,2 0.5,2 L4,2 L4,1 C4,0.44771525 4.44771525,1.01453063e-16 5,0 L11,0 C11.5522847,-1.01453063e-16 12,0.44771525 12,1 L12,2 Z M2,3 L2,15 L14,15 L14,3 L2,3 Z M5,2 L11,2 L11,1 L5,1 L5,2 Z M4.5,5 C4.77614237,5 5,5.22385763 5,5.5 L5,12.5 C5,12.7761424 4.77614237,13 4.5,13 C4.22385763,13 4,12.7761424 4,12.5 L4,5.5 C4,5.22385763 4.22385763,5 4.5,5 Z M11.5,5 C11.7761424,5 12,5.22385763 12,5.5 L12,12.5 C12,12.7761424 11.7761424,13 11.5,13 C11.2238576,13 11,12.7761424 11,12.5 L11,5.5 C11,5.22385763 11.2238576,5 11.5,5 Z M8,5 C8.27614237,5 8.5,5.22385763 8.5,5.5 L8.5,12.5 C8.5,12.7761424 8.27614237,13 8,13 C7.72385763,13 7.5,12.7761424 7.5,12.5 L7.5,5.5 C7.5,5.22385763 7.72385763,5 8,5 Z" id="Combined-Shape"></path>
    </g>
</svg>
