<svg width="32" height="32" viewBox="0 0 32 32" fill="none" xmlns="http://www.w3.org/2000/svg">
<path d="M0 17.4144L6.99995 24.4143L9.99995 21.4143L17 28.4143L20 25.4143L26 31.4143V28.5859L20 22.5859L17 25.5859L9.99995 18.5859L6.99995 21.5859L0 14.5859V17.4144Z" fill="#FF444F"/>
<path d="M27.0001 10L31.7072 14.7071L30.293 16.1213L28.0001 13.8284L28.0001 32H26.5858L26 31.4143L26.0001 13.8284L23.7072 16.1213L22.293 14.7071L27.0001 10Z" fill="#0AA0B0"/>
<path d="M10.064 6.72801C9.94131 6.96267 9.71998 7.08001 9.39998 7.08001C9.07998 7.08001 8.85865 6.96267 8.73598 6.72801C8.61331 6.49334 8.55198 6.16267 8.55198 5.73601V4.68001C8.55198 4.25334 8.61331 3.92267 8.73598 3.68801C8.85865 3.45334 9.07998 3.33601 9.39998 3.33601C9.71998 3.33601 9.94131 3.45334 10.064 3.68801C10.1866 3.92267 10.248 4.25334 10.248 4.68001V5.73601C10.248 6.16267 10.1866 6.49334 10.064 6.72801Z" fill="#414652"/>
<path fill-rule="evenodd" clip-rule="evenodd" d="M2 0C0.895431 0 0 0.89543 0 2V8C0 9.10457 0.89543 10 2 10H12C13.1046 10 14 9.10457 14 8V2C14 0.895431 13.1046 0 12 0H2ZM7.77598 7.33601C8.12798 7.84267 8.66931 8.09601 9.39998 8.09601C10.1306 8.09601 10.672 7.84267 11.024 7.33601C11.376 6.82934 11.552 6.12001 11.552 5.20801C11.552 4.29601 11.376 3.58667 11.024 3.08001C10.672 2.57334 10.1306 2.32001 9.39998 2.32001C8.66931 2.32001 8.12798 2.57334 7.77598 3.08001C7.42398 3.58667 7.24798 4.29601 7.24798 5.20801C7.24798 6.12001 7.42398 6.82934 7.77598 7.33601ZM3.84311 3.46401H6.37911V2.41601H2.96311L2.75511 5.57601L3.73911 5.71201C3.81377 5.62667 3.92044 5.54134 4.05911 5.45601C4.20311 5.36534 4.38444 5.32001 4.60311 5.32001C4.86444 5.32001 5.06977 5.39467 5.21911 5.54401C5.36844 5.69334 5.44311 5.89601 5.44311 6.15201V6.21601C5.44311 6.48801 5.36844 6.70667 5.21911 6.87201C5.07511 7.03734 4.85911 7.12001 4.57111 7.12001C4.28311 7.12001 4.05377 7.04534 3.88311 6.89601C3.71244 6.74134 3.56577 6.55467 3.44311 6.33601L2.57111 7.02401C2.65644 7.16801 2.75777 7.30401 2.87511 7.43201C2.99244 7.56001 3.13111 7.67467 3.29111 7.77601C3.45111 7.87201 3.63511 7.94934 3.84311 8.00801C4.05111 8.06667 4.29111 8.09601 4.56311 8.09601C4.90444 8.09601 5.20844 8.04801 5.47511 7.95201C5.74177 7.85067 5.96577 7.71201 6.14711 7.53601C6.33377 7.36001 6.47244 7.15201 6.56311 6.91201C6.65911 6.66667 6.70711 6.40267 6.70711 6.12001C6.70711 5.84267 6.66177 5.59467 6.57111 5.37601C6.48044 5.15201 6.35777 4.96534 6.20311 4.81601C6.04844 4.66134 5.86711 4.54401 5.65911 4.46401C5.45111 4.38401 5.22711 4.34401 4.98711 4.34401C4.81111 4.34401 4.65911 4.36534 4.53111 4.40801C4.40311 4.45067 4.29377 4.51201 4.20311 4.59201C4.11244 4.66667 4.03244 4.76001 3.96311 4.87201C3.89911 4.97867 3.84044 5.09867 3.78711 5.23201H3.72311L3.84311 3.46401Z" fill="#414652"/>
<path d="M6.37911 3.46401H3.84311L3.72311 5.23201H3.78711C3.84044 5.09867 3.89911 4.97867 3.96311 4.87201C4.03244 4.76001 4.11244 4.66667 4.20311 4.59201C4.29377 4.51201 4.40311 4.45067 4.53111 4.40801C4.65911 4.36534 4.81111 4.34401 4.98711 4.34401C5.22711 4.34401 5.45111 4.38401 5.65911 4.46401C5.86711 4.54401 6.04844 4.66134 6.20311 4.81601C6.35777 4.96534 6.48044 5.15201 6.57111 5.37601C6.66177 5.59467 6.70711 5.84267 6.70711 6.12001C6.70711 6.40267 6.65911 6.66667 6.56311 6.91201C6.47244 7.15201 6.33377 7.36001 6.14711 7.53601C5.96577 7.71201 5.74177 7.85067 5.47511 7.95201C5.20844 8.04801 4.90444 8.09601 4.56311 8.09601C4.29111 8.09601 4.05111 8.06667 3.84311 8.00801C3.63511 7.94934 3.45111 7.87201 3.29111 7.77601C3.13111 7.67467 2.99244 7.56001 2.87511 7.43201C2.75777 7.30401 2.65644 7.16801 2.57111 7.02401L3.44311 6.33601C3.56577 6.55467 3.71244 6.74134 3.88311 6.89601C4.05377 7.04534 4.28311 7.12001 4.57111 7.12001C4.85911 7.12001 5.07511 7.03734 5.21911 6.87201C5.36844 6.70667 5.44311 6.48801 5.44311 6.21601V6.15201C5.44311 5.89601 5.36844 5.69334 5.21911 5.54401C5.06977 5.39467 4.86444 5.32001 4.60311 5.32001C4.38444 5.32001 4.20311 5.36534 4.05911 5.45601C3.92044 5.54134 3.81377 5.62667 3.73911 5.71201L2.75511 5.57601L2.96311 2.41601H6.37911V3.46401Z" fill="white"/>
<path d="M9.39998 8.09601C8.66931 8.09601 8.12798 7.84267 7.77598 7.33601C7.42398 6.82934 7.24798 6.12001 7.24798 5.20801C7.24798 4.29601 7.42398 3.58667 7.77598 3.08001C8.12798 2.57334 8.66931 2.32001 9.39998 2.32001C10.1306 2.32001 10.672 2.57334 11.024 3.08001C11.376 3.58667 11.552 4.29601 11.552 5.20801C11.552 6.12001 11.376 6.82934 11.024 7.33601C10.672 7.84267 10.1306 8.09601 9.39998 8.09601ZM9.39998 7.08001C9.71998 7.08001 9.94131 6.96267 10.064 6.72801C10.1866 6.49334 10.248 6.16267 10.248 5.73601V4.68001C10.248 4.25334 10.1866 3.92267 10.064 3.68801C9.94131 3.45334 9.71998 3.33601 9.39998 3.33601C9.07998 3.33601 8.85865 3.45334 8.73598 3.68801C8.61331 3.92267 8.55198 4.25334 8.55198 4.68001V5.73601C8.55198 6.16267 8.61331 6.49334 8.73598 6.72801C8.85865 6.96267 9.07998 7.08001 9.39998 7.08001Z" fill="white"/>
</svg>
