<?xml version="1.0" encoding="UTF-8"?>
<svg width="32px" height="32px" viewBox="0 0 32 32" version="1.1" xmlns="http://www.w3.org/2000/svg" xmlns:xlink="http://www.w3.org/1999/xlink">
    <!-- Generator: Sketch 57.1 (83088) - https://sketch.com -->
    <title>Volatility 100-1s</title>
    <desc>Created with Sketch.</desc>
    <g id="Volatility-100-1s" stroke="none" stroke-width="1" fill="none" fill-rule="evenodd">
        <g>
            <rect id="Rectangle" x="0" y="0" width="32" height="32"></rect>
            <path d="M8.88,8.35 C8.6243724,8.35366611 8.37127961,8.29894334 8.14,8.19 C7.93265886,8.08396159 7.75679514,7.92533941 7.63,7.73 C7.48052675,7.51006711 7.37836876,7.26148268 7.33,7 C7.257234,6.67179482 7.22366604,6.33611518 7.23,6 C7.22366604,5.66388482 7.257234,5.32820518 7.33,5 C7.37924206,4.73567556 7.48127528,4.48399363 7.63,4.26 C7.75679514,4.06466059 7.93265886,3.90603841 8.14,3.8 C8.37127961,3.69105666 8.6243724,3.63633389 8.88,3.64 C9.37468276,3.60898492 9.84800241,3.84564474 10.12,4.26 C10.4188904,4.78907661 10.5578415,5.39351376 10.52,6 C10.5558894,6.60314074 10.4170021,7.20382837 10.12,7.73 C9.84800241,8.14435526 9.37468276,8.38101508 8.88,8.35 L8.88,8.35 Z M8.88,7.72 C9.01872042,7.72349969 9.15614721,7.69257867 9.28,7.63 C9.39328198,7.56676004 9.48676004,7.47328198 9.55,7.36 C9.62382041,7.22968585 9.67456701,7.08759537 9.7,6.94 C9.71623294,6.76036598 9.71623294,6.57963402 9.7,6.4 L9.7,5.6 C9.71623294,5.42036598 9.71623294,5.23963402 9.7,5.06 C9.67456701,4.91240463 9.62382041,4.77031415 9.55,4.64 C9.48676004,4.52671802 9.39328198,4.43323996 9.28,4.37 C9.15614721,4.30742133 9.01872042,4.27650031 8.88,4.28 C8.74119676,4.2756449 8.60356124,4.30661289 8.48,4.37 C8.36671802,4.43323996 8.27323996,4.52671802 8.21,4.64 C8.13617959,4.77031415 8.08543299,4.91240463 8.06,5.06 C8.02326081,5.23774407 8.00317388,5.41852645 7.99999935,5.6 L7.99999935,6.4 C7.99987936,6.58116131 8.0166182,6.76194077 8.05,6.94 C8.07543299,7.08759537 8.12617959,7.22968585 8.2,7.36 C8.26323996,7.47328198 8.35671802,7.56676004 8.47,7.63 C8.59654326,7.6950645 8.73783949,7.72608075 8.88,7.72 L8.88,7.72 Z" id="Shape" fill="#FFFFFF" fill-rule="nonzero"></path>
            <circle id="Oval" fill="#EF4852" fill-rule="nonzero" cx="25" cy="25" r="5"></circle>
            <polygon id="Path" fill="#FFFFFF" fill-rule="nonzero" points="22.15 27.23 22.15 26.62 23.42 26.62 23.42 23.23 23.37 23.23 22.32 24.35 21.87 23.95 23 22.69 24.12 22.69 24.12 26.62 25.23 26.62 25.23 27.23"></polygon>
            <path d="M26.79,27.31 C26.2563622,27.3324837 25.7452042,27.0936946 25.42,26.67 L25.88,26.25 C25.9925521,26.3987415 26.1357945,26.5215208 26.3,26.61 C26.4632462,26.6963685 26.6453171,26.7410274 26.83,26.74 C26.9955686,26.7524131 27.1606472,26.7102654 27.3,26.62 C27.4001465,26.5361552 27.4555863,26.4104916 27.45,26.28 C27.4501358,26.1761004 27.4108201,26.0760241 27.34,26 C27.2356437,25.9135262 27.1054612,25.864268 26.97,25.86 L26.66,25.86 C26.364793,25.834966 26.0816649,25.7313826 25.84,25.56 C25.6359888,25.3828719 25.528335,25.1193057 25.55,24.85 C25.5462512,24.6984066 25.5770273,24.5479458 25.64,24.41 C25.7005708,24.2873579 25.7856582,24.1784461 25.89,24.09 C26.0097113,23.9966568 26.1451877,23.9255317 26.29,23.88 C26.4562748,23.8347945 26.6276944,23.8112663 26.8,23.81 C27.0539293,23.8020844 27.3065117,23.8498702 27.54,23.95 C27.7379357,24.0478651 27.9146376,24.1837896 28.06,24.35 L27.63,24.77 C27.5336041,24.6564036 27.4143447,24.5644035 27.28,24.5 C27.1325776,24.4204248 26.9675258,24.3791618 26.8,24.38 C26.6468242,24.3661722 26.4938808,24.4088541 26.37,24.5 C26.2757861,24.5744869 26.2235877,24.690069 26.23,24.81 C26.2235399,24.9199324 26.2677506,25.026775 26.35,25.1 C26.4718,25.174708 26.6081959,25.2224466 26.75,25.24 L27.06,25.24 C27.3588979,25.270819 27.6430766,25.3851836 27.88,25.57 C28.0523417,25.7410179 28.1433241,25.9775722 28.13,26.22 C28.1332196,26.3747723 28.1024998,26.5283715 28.04,26.67 C27.9759857,26.8017389 27.8838136,26.9178075 27.77,27.01 C27.6435262,27.1066789 27.5014898,27.181079 27.35,27.23 C27.1682447,27.2838847 26.9795728,27.3108379 26.79,27.31 Z" id="Path" fill="#FFFFFF" fill-rule="nonzero"></path>
            <path d="M29.93,12.76 C30.0228891,12.6063758 30.0267646,12.4148655 29.9401666,12.2576091 C29.8535687,12.1003527 29.6896536,12.0012412 29.5101666,11.9975058 C29.3306796,11.9939769 29.1628891,12.0863758 29.07,12.24 L26.8,16 L26.5,16 C26.2205295,16.00258 25.9471804,16.0821626 25.71,16.23 L22.91,14 C22.9709103,13.840402 23.001435,13.6708201 23,13.5 C23,12.6715729 22.3284271,12 21.5,12 C20.6715729,12 20,12.6715729 20,13.5 C19.9996233,13.8482761 20.1237586,14.1852148 20.35,14.45 L20.35,14.45 L18.8,17 C18.4244764,16.9229889 18.033721,16.9946872 17.71,17.2 L14.91,15 C14.9709103,14.840402 15.001435,14.6708201 15,14.5 C15.0183237,13.8198496 14.5765594,13.2125546 13.9238123,13.0205609 C13.2710652,12.8285672 12.5708481,13.0999692 12.2180046,13.6817267 C11.8651611,14.2634842 11.9480782,15.0098673 12.42,15.5 L10.68,19 L10.5,19 C10.2205295,19.00258 9.94718044,19.0821626 9.71,19.23 L9.71,19.23 L6.91,17 C7.0055687,16.7041942 7.0055687,16.3858058 6.91,16.09 C6.72738412,15.4584722 6.15716352,15.0176634 5.5,15 C5.35788348,15.0002671 5.21650664,15.0204638 5.08,15.06 C4.29276729,15.3005789 3.84649836,16.1306391 4.08,16.92 C4.16742382,17.2251333 4.35388261,17.4925082 4.61,17.68 L4.61,17.68 L3.47,21 C2.73421909,21.009897 2.11271079,21.5487213 1.99858173,22.2756642 C1.88445267,23.0026072 2.31094,23.7059654 3.00828867,23.9408618 C3.70563735,24.1757582 4.47076252,23.8737852 4.81971929,23.2259421 C5.16867605,22.578099 4.99983972,21.7730534 4.42,21.32 L5.53,18 L5.53,18 C5.67211652,17.9997329 5.81349336,17.9795362 5.95,17.94 C6.07915354,17.89697 6.2032222,17.8399655 6.32,17.77 L9.09,20 L9.09,20 C9.02908971,20.159598 8.99856497,20.3291799 9,20.5 C8.9816763,21.1801504 9.42344064,21.7874454 10.0761877,21.9794391 C10.7289348,22.1714328 11.4291519,21.9000308 11.7819954,21.3182733 C12.1348389,20.7365158 12.0519218,19.9901327 11.58,19.5 L13.32,16 L13.5,16 C13.7794705,15.99742 14.0528196,15.9178374 14.29,15.77 L17.09,18 C17.0303047,18.1564601 16.9998004,18.3225388 17,18.49 C17,19.3184271 17.6715729,19.99 18.5,19.99 C19.3284271,19.99 20,19.3184271 20,18.49 C20.0003767,18.1417239 19.8762414,17.8047852 19.65,17.54 L19.65,17.54 L21.2,15 L21.5,15 C21.7794705,14.99742 22.0528196,14.9178374 22.29,14.77 L25.09,17 C25.0303047,17.1564601 24.9998004,17.3225388 25,17.49 C25,18.3184271 25.6715729,18.99 26.5,18.99 C27.3284271,18.99 28,18.3184271 28,17.49 C28.0003767,17.1417239 27.8762414,16.8047852 27.65,16.54 L27.65,16.54 L29.93,12.76 Z M3.5,23 C3.22385763,23 3,22.7761424 3,22.5 C3,22.2238576 3.22385763,22 3.5,22 C3.77614237,22 4,22.2238576 4,22.5 C4,22.7761424 3.77614237,23 3.5,23 Z M5.64,17 L5.5,17 C5.32136721,17.0250086 5.14296177,16.952818 5.0319873,16.8106218 C4.92101283,16.6684255 4.89432898,16.4778266 4.9619873,16.3106218 C5.02964562,16.1434169 5.18136721,16.0250086 5.36,16 L5.5,16 C5.77614237,15.9613401 6.03134007,16.1538576 6.07,16.43 C6.10865993,16.7061424 5.91614237,16.9613401 5.64,17 L5.64,17 Z M10.5,21 C10.2238576,21 10,20.7761424 10,20.5 C10,20.2238576 10.2238576,20 10.5,20 C10.7761424,20 11,20.2238576 11,20.5 C11,20.7761424 10.7761424,21 10.5,21 Z M13.5,15 C13.2238576,15 13,14.7761424 13,14.5 C13,14.2238576 13.2238576,14 13.5,14 C13.7761424,14 14,14.2238576 14,14.5 C14,14.7761424 13.7761424,15 13.5,15 Z M18.5,19 C18.2238576,19 18,18.7761424 18,18.5 C18,18.2238576 18.2238576,18 18.5,18 C18.7761424,18 19,18.2238576 19,18.5 C19,18.7761424 18.7761424,19 18.5,19 Z M21.5,14 C21.2238576,14 21,13.7761424 21,13.5 C21,13.2238576 21.2238576,13 21.5,13 C21.7761424,13 22,13.2238576 22,13.5 C22,13.7761424 21.7761424,14 21.5,14 Z M26.5,18 C26.2238576,18 26,17.7761424 26,17.5 C26,17.2238576 26.2238576,17 26.5,17 C26.7761424,17 27,17.2238576 27,17.5 C27,17.7761424 26.7761424,18 26.5,18 Z" id="Shape" fill="#84AAAF" fill-rule="nonzero"></path>
            <rect id="Rectangle" fill="#2A2A2A" fill-rule="nonzero" x="2" y="2" width="14" height="9" rx="1"></rect>
            <path d="M3.301,8.97 L3.301,8.312 L4.673,8.312 L4.673,4.658 L4.617,4.658 L3.483,5.869 L3,5.435 L4.246,4.084 L5.45,4.084 L5.45,8.312 L6.64,8.312 L6.64,8.97 L3.301,8.97 Z M8.985,9.054 C8.68166515,9.054 8.41800112,8.9968339 8.194,8.8825 C7.96999888,8.76816609 7.78566739,8.60366774 7.641,8.389 C7.49633261,8.17433226 7.38900035,7.91066823 7.319,7.598 C7.24899965,7.28533177 7.214,6.92833534 7.214,6.527 C7.214,6.13033135 7.24899965,5.77450157 7.319,5.4595 C7.38900035,5.14449842 7.49633261,4.87966774 7.641,4.665 C7.78566739,4.45033226 7.96999888,4.2858339 8.194,4.1715 C8.41800112,4.05716609 8.68166515,4 8.985,4 C9.5916697,4 10.0384986,4.22166445 10.3255,4.665 C10.6125014,5.10833555 10.756,5.72899601 10.756,6.527 C10.756,7.32500399 10.6125014,7.94566445 10.3255,8.389 C10.0384986,8.83233555 9.5916697,9.054 8.985,9.054 Z M8.985,8.382 C9.15300084,8.382 9.2964994,8.348167 9.4155,8.2805 C9.53450059,8.21283299 9.63133296,8.11600063 9.706,7.99 C9.78066704,7.86399937 9.83433317,7.71350087 9.867,7.5385 C9.89966683,7.36349912 9.916,7.16866774 9.916,6.954 L9.916,6.1 C9.916,5.88533226 9.89966683,5.69050087 9.867,5.5155 C9.83433317,5.34049912 9.78066704,5.19000063 9.706,5.064 C9.63133296,4.93799937 9.53450059,4.841167 9.4155,4.7735 C9.2964994,4.70583299 9.15300084,4.672 8.985,4.672 C8.81699916,4.672 8.67350059,4.70583299 8.5545,4.7735 C8.4354994,4.841167 8.33866704,4.93799937 8.264,5.064 C8.18933296,5.19000063 8.13566683,5.34049912 8.103,5.5155 C8.07033317,5.69050087 8.054,5.88533226 8.054,6.1 L8.054,6.954 C8.054,7.16866774 8.07033317,7.36349912 8.103,7.5385 C8.13566683,7.71350087 8.18933296,7.86399937 8.264,7.99 C8.33866704,8.11600063 8.4354994,8.21283299 8.5545,8.2805 C8.67350059,8.348167 8.81699916,8.382 8.985,8.382 Z M13.185,9.054 C12.8816651,9.054 12.6180011,8.9968339 12.394,8.8825 C12.1699989,8.76816609 11.9856674,8.60366774 11.841,8.389 C11.6963326,8.17433226 11.5890003,7.91066823 11.519,7.598 C11.4489996,7.28533177 11.414,6.92833534 11.414,6.527 C11.414,6.13033135 11.4489996,5.77450157 11.519,5.4595 C11.5890003,5.14449842 11.6963326,4.87966774 11.841,4.665 C11.9856674,4.45033226 12.1699989,4.2858339 12.394,4.1715 C12.6180011,4.05716609 12.8816651,4 13.185,4 C13.7916697,4 14.2384986,4.22166445 14.5255,4.665 C14.8125014,5.10833555 14.956,5.72899601 14.956,6.527 C14.956,7.32500399 14.8125014,7.94566445 14.5255,8.389 C14.2384986,8.83233555 13.7916697,9.054 13.185,9.054 Z M13.185,8.382 C13.3530008,8.382 13.4964994,8.348167 13.6155,8.2805 C13.7345006,8.21283299 13.831333,8.11600063 13.906,7.99 C13.980667,7.86399937 14.0343332,7.71350087 14.067,7.5385 C14.0996668,7.36349912 14.116,7.16866774 14.116,6.954 L14.116,6.1 C14.116,5.88533226 14.0996668,5.69050087 14.067,5.5155 C14.0343332,5.34049912 13.980667,5.19000063 13.906,5.064 C13.831333,4.93799937 13.7345006,4.841167 13.6155,4.7735 C13.4964994,4.70583299 13.3530008,4.672 13.185,4.672 C13.0169992,4.672 12.8735006,4.70583299 12.7545,4.7735 C12.6354994,4.841167 12.538667,4.93799937 12.464,5.064 C12.389333,5.19000063 12.3356668,5.34049912 12.303,5.5155 C12.2703332,5.69050087 12.254,5.88533226 12.254,6.1 L12.254,6.954 C12.254,7.16866774 12.2703332,7.36349912 12.303,7.5385 C12.3356668,7.71350087 12.389333,7.86399937 12.464,7.99 C12.538667,8.11600063 12.6354994,8.21283299 12.7545,8.2805 C12.8735006,8.348167 13.0169992,8.382 13.185,8.382 Z" id="100" fill="#FFFFFF" fill-rule="nonzero"></path>
        </g>
    </g>
</svg>