<svg xmlns="http://www.w3.org/2000/svg" width="139" height="32" viewBox="0 0 139 32">
    <g fill="none" fill-rule="evenodd">
        <g fill-rule="nonzero">
            <path fill="#293052" d="M60.51 6.79a3.78 3.78 0 0 0-1.12.16 3.8 3.8 0 0 0-1.64 1.02l-.16.18V7h-2.77v10.51h2.77v-5.89a2.36 2.36 0 0 1 .56-1.68 1.91 1.91 0 0 1 1.47-.59 1.75 1.75 0 0 1 1.38.56 2.48 2.48 0 0 1 .5 1.67v5.93h2.77v-6.63a4.32 4.32 0 0 0-1-3 3.57 3.57 0 0 0-2.76-1.09zm10.21.07a8.76 8.76 0 0 0-2.17.23 11 11 0 0 0-1.75.62l-.18.09.77 2.26.21-.06c.43-.18.87-.33 1.32-.45a6 6 0 0 1 1.47-.16 2.53 2.53 0 0 1 1.69.5c.373.34.577.826.56 1.33a9.85 9.85 0 0 0-1-.23 9.23 9.23 0 0 0-1.59-.12 6.54 6.54 0 0 0-1.69.21 3.92 3.92 0 0 0-1.36.62 3.07 3.07 0 0 0-.91 1.11 3.51 3.51 0 0 0-.33 1.56 3.16 3.16 0 0 0 .32 1.44c.206.39.492.73.84 1 .36.285.77.499 1.21.63a4.9 4.9 0 0 0 1.44.21 4.38 4.38 0 0 0 2-.44 4.85 4.85 0 0 0 1-.68v.92h2.73v-6.11A4.53 4.53 0 0 0 74.21 8a4.69 4.69 0 0 0-3.49-1.14zm-.48 8.7a2.21 2.21 0 0 1-1.24-.34 1 1 0 0 1-.46-.92 1.1 1.1 0 0 1 .51-1 2.78 2.78 0 0 1 1.57-.38 6.67 6.67 0 0 1 2.09.33v.42a1.68 1.68 0 0 1-.17.77A1.81 1.81 0 0 1 72 15a2.62 2.62 0 0 1-.78.4 3.36 3.36 0 0 1-.98.16zm19.39-1.51L86.92 7H84l4.29 10.29a2 2 0 0 1-.51.74 1.09 1.09 0 0 1-.69.2 2.15 2.15 0 0 1-.63-.1 3.69 3.69 0 0 1-.62-.26l-.21-.11-1 2.12.18.1a5.72 5.72 0 0 0 1.14.47 5 5 0 0 0 1.35.17 3.85 3.85 0 0 0 1.15-.16 2.9 2.9 0 0 0 1-.53 3.72 3.72 0 0 0 .77-.92 8.88 8.88 0 0 0 .65-1.35L95 7h-2.91l-2.46 7.05z"/>
            <path fill="#E78024" d="M107.7 14.1a5.27 5.27 0 0 1-1.13.87 2.85 2.85 0 0 1-2.46.09 2.8 2.8 0 0 1-.88-.64 2.9 2.9 0 0 1-.58-1 3.42 3.42 0 0 1-.2-1.18 3.34 3.34 0 0 1 .2-1.16 3 3 0 0 1 .56-1 2.72 2.72 0 0 1 .85-.64 2.45 2.45 0 0 1 1.07-.23 2.68 2.68 0 0 1 1.37.32c.4.24.767.533 1.09.87l.16.17 1.73-1.86-.14-.15a5.85 5.85 0 0 0-1.72-1.31 5.65 5.65 0 0 0-6.39 1.12 5.43 5.43 0 0 0-1.14 1.75 5.59 5.59 0 0 0-.41 2.11 5.54 5.54 0 0 0 .41 2.11 5.34 5.34 0 0 0 1.14 1.73 5.45 5.45 0 0 0 3.9 1.59 5.25 5.25 0 0 0 2.53-.55 6.59 6.59 0 0 0 1.76-1.41l.14-.16-1.7-1.67-.16.23zM120 8.39a5.4 5.4 0 0 0-1.77-1.17 5.73 5.73 0 0 0-2.23-.43 5.66 5.66 0 0 0-2.23.44 5.48 5.48 0 0 0-2.94 2.92 5.36 5.36 0 0 0-.43 2.13 5.46 5.46 0 0 0 .42 2.11c.27.66.672 1.26 1.18 1.76a5.55 5.55 0 0 0 1.77 1.16 5.95 5.95 0 0 0 4.45 0 5.44 5.44 0 0 0 2.95-2.92 5.27 5.27 0 0 0 .43-2.11 5.35 5.35 0 0 0-1.6-3.89zm-4 6.91a2.68 2.68 0 0 1-1.13-.24 2.85 2.85 0 0 1-.9-.65 3.16 3.16 0 0 1-.59-1 3.22 3.22 0 0 1-.21-1.17c0-.399.067-.794.2-1.17a2.72 2.72 0 0 1 .56-.94 2.79 2.79 0 0 1 .89-.64 2.91 2.91 0 0 1 2.3 0c.34.155.646.376.9.65a3 3 0 0 1 .59 1c.142.377.213.777.21 1.18a3.41 3.41 0 0 1-.19 1.16 2.9 2.9 0 0 1-.56.95 2.81 2.81 0 0 1-.88.64 2.78 2.78 0 0 1-1.19.23zm21.83-7.44a3.62 3.62 0 0 0-2.76-1.07 4.06 4.06 0 0 0-2.09.52 5.19 5.19 0 0 0-1.3 1.1 3.4 3.4 0 0 0-1.07-1.09 3.49 3.49 0 0 0-2-.53 3.69 3.69 0 0 0-1.1.16 3.31 3.31 0 0 0-.89.42A4 4 0 0 0 126 8l-.15.17V7h-2.77v10.51h2.77v-5.87a2.49 2.49 0 0 1 .53-1.7 1.75 1.75 0 0 1 1.39-.59 1.64 1.64 0 0 1 1.33.55 2.52 2.52 0 0 1 .48 1.67v6h2.77v-5.95a2.41 2.41 0 0 1 .54-1.7 1.79 1.79 0 0 1 1.39-.57 1.64 1.64 0 0 1 1.33.55 2.57 2.57 0 0 1 .48 1.69v5.93h2.77v-6.66a4.24 4.24 0 0 0-1.03-3z"/>
            <path fill="#293052" d="M50.57 7h2.77v10.52h-2.77V7zm2.92-2.46a1.53 1.53 0 1 0-3.06.001 1.53 1.53 0 0 0 3.06-.001z"/>
            <path fill="#E78024" d="M98.36 16.21a1.53 1.53 0 1 0-3.06 0 1.53 1.53 0 0 0 3.06 0z"/>
            <path fill="#293052" d="M48.28 11.09a4 4 0 0 0-.92-.73 7.28 7.28 0 0 0-.71-.35l-.16-.06.14-.09.37-.26a3.31 3.31 0 0 0 .68-.69 3.44 3.44 0 0 0 .45-.91 3.66 3.66 0 0 0 .18-1.2 3.35 3.35 0 0 0-1-2.46A5.17 5.17 0 0 0 43.5 3H37v14.51h6.7a8.6 8.6 0 0 0 2.19-.26 5.23 5.23 0 0 0 1.71-.76 3.56 3.56 0 0 0 1.11-1.27 3.84 3.84 0 0 0 .39-1.75 3.78 3.78 0 0 0-.21-1.33 3 3 0 0 0-.61-1.05zM39.75 8.9V5.51h3.44A2.92 2.92 0 0 1 45 6c.385.28.603.735.58 1.21a1.46 1.46 0 0 1-.66 1.33A3.35 3.35 0 0 1 43 9h-3.25v-.1zm6.57 4.3a1.49 1.49 0 0 1-.67 1.34 3.45 3.45 0 0 1-1.92.46h-4v-3.6h3.8a3.78 3.78 0 0 1 2.11.47c.431.284.682.774.66 1.29l.02.04zM83 6.8a3.46 3.46 0 0 0-2.36.68 4.33 4.33 0 0 0-1 1.1V7h-2.8v10.51h2.77v-4.05a5.35 5.35 0 0 1 .24-1.68 3.2 3.2 0 0 1 .66-1.17 2.73 2.73 0 0 1 1-.69 3.56 3.56 0 0 1 1.31-.23h.34V6.81L83 6.8zM37.78 29l1-4.94H37l.13-.64h4.37l-.13.64h-1.81l-1 4.94h-.78zm2.67 0l.84-4h.61l-.17.83a2.81 2.81 0 0 1 .61-.69 1 1 0 0 1 .61-.22 1.2 1.2 0 0 1 .51.15l-.28.64a.65.65 0 0 0-.39-.13 1.06 1.06 0 0 0-.74.4 3.06 3.06 0 0 0-.6 1.45L41.1 29h-.65zm5.35-.77a2 2 0 0 1-1.49.82 1.06 1.06 0 0 1-.75-.27.86.86 0 0 1-.29-.66 5 5 0 0 1 .13-.87l.49-2.33h.69L44 27.51a2.6 2.6 0 0 0 0 .49.46.46 0 0 0 .14.36.59.59 0 0 0 .41.13 1.23 1.23 0 0 0 .56-.14 1.5 1.5 0 0 0 .48-.38 2 2 0 0 0 .33-.57 5 5 0 0 0 .19-.73l.37-1.75h.69l-.84 4h-.64l.11-.69zm1.64-.65h.69a1.26 1.26 0 0 0 .09.51.72.72 0 0 0 .34.34c.176.09.372.135.57.13.24.018.48-.046.68-.18a.54.54 0 0 0 .23-.43.51.51 0 0 0-.14-.34 2.16 2.16 0 0 0-.69-.39 6.54 6.54 0 0 1-.7-.33 1.13 1.13 0 0 1-.38-.37A.91.91 0 0 1 48 26c0-.316.138-.616.38-.82a1.54 1.54 0 0 1 1.06-.34 1.7 1.7 0 0 1 1.16.35c.265.236.415.575.41.93h-.67a.77.77 0 0 0-.26-.58 1 1 0 0 0-.69-.21.85.85 0 0 0-.56.16.46.46 0 0 0-.2.35.43.43 0 0 0 .17.33c.184.122.382.223.59.3a4 4 0 0 1 1 .54 1 1 0 0 1 .33.77 1.08 1.08 0 0 1-.18.59 1.27 1.27 0 0 1-.56.46 2.13 2.13 0 0 1-.89.17 2 2 0 0 1-1.19-.35 1.23 1.23 0 0 1-.46-1.07zm5.44.83l-.11.56a1.89 1.89 0 0 1-.48.06 1 1 0 0 1-.65-.2.51.51 0 0 1-.18-.41 4.16 4.16 0 0 1 .1-.61l.44-2.35h-.54l.11-.53h.54l.21-1 .79-.48-.31 1.47h.68l-.11.53h-.67l-.47 2.23a4.18 4.18 0 0 0-.09.51.24.24 0 0 0 .07.19.33.33 0 0 0 .23.06c.147.01.295 0 .44-.03zm3.52-.82l.67.07a2 2 0 0 1-.66.95 1.83 1.83 0 0 1-1.24.45 1.67 1.67 0 0 1-.82-.21 1.36 1.36 0 0 1-.57-.6 2 2 0 0 1-.2-.9 2.87 2.87 0 0 1 .31-1.28 2.19 2.19 0 0 1 .79-.92 2 2 0 0 1 1.05-.3 1.53 1.53 0 0 1 1.15.45c.3.334.454.772.43 1.22 0 .204-.016.408-.05.61h-3a1.68 1.68 0 0 0 0 .21c-.023.312.07.622.26.87a.81.81 0 0 0 .64.3 1.23 1.23 0 0 0 .7-.23 1.51 1.51 0 0 0 .54-.69zm-2-1h2.27v-.15a1.12 1.12 0 0 0-.26-.79.87.87 0 0 0-.67-.28 1.22 1.22 0 0 0-.8.3 1.82 1.82 0 0 0-.54.92zm6.09 1.79a1.66 1.66 0 0 1-1.23.68 1.23 1.23 0 0 1-1-.42 1.78 1.78 0 0 1-.38-1.23 3 3 0 0 1 .3-1.35 2.29 2.29 0 0 1 .76-.91 1.63 1.63 0 0 1 .91-.3 1.22 1.22 0 0 1 1.14.73l.46-2.17h.68L61 29h-.64l.13-.62zm-1.89-1.11c-.01.226.018.452.08.67a.87.87 0 0 0 .29.4.75.75 0 0 0 .48.16 1.08 1.08 0 0 0 .85-.5 2.5 2.5 0 0 0 .51-1.6 1.06 1.06 0 0 0-.25-.75.83.83 0 0 0-.63-.27.93.93 0 0 0-.45.11 1.32 1.32 0 0 0-.4.37 2.35 2.35 0 0 0-.34.67 2.28 2.28 0 0 0-.14.74zM64.26 29l1.16-5.57h.69l-.41 2a2.44 2.44 0 0 1 .59-.42 1.3 1.3 0 0 1 .56-.12c.36-.006.704.148.94.42.276.348.411.787.38 1.23a3 3 0 0 1-.15 1 2.73 2.73 0 0 1-.38.75 2.36 2.36 0 0 1-.46.48 1.84 1.84 0 0 1-.49.27 1.44 1.44 0 0 1-.48.09 1.2 1.2 0 0 1-.7-.21 1.37 1.37 0 0 1-.51-.72l-.16.76-.58.04zm1-1.66v.13c-.02.285.07.568.25.79a.8.8 0 0 0 .62.27 1 1 0 0 0 .66-.25 1.8 1.8 0 0 0 .5-.79 2.93 2.93 0 0 0 .19-1 1.17 1.17 0 0 0-.25-.79.77.77 0 0 0-.61-.28 1 1 0 0 0-.68.29 2.15 2.15 0 0 0-.52.88 2.34 2.34 0 0 0-.14.72l-.02.03zm3.07 3.18v-.65c.133.039.271.059.41.06a.56.56 0 0 0 .34-.1 1.58 1.58 0 0 0 .37-.47l.22-.4-.67-4h.68l.3 2c.06.4.113.803.16 1.21L72 24.93h.72l-2.59 4.57a2.92 2.92 0 0 1-.66.89 1.08 1.08 0 0 1-.67.22 1.41 1.41 0 0 1-.47-.09zm7.93-2.11l-.11.56a1.89 1.89 0 0 1-.48.06 1 1 0 0 1-.65-.2.51.51 0 0 1-.18-.41 4.16 4.16 0 0 1 .1-.61l.49-2.35h-.54l.11-.53h.54l.21-1 .79-.48-.31 1.47h.68l-.11.53h-.7l-.47 2.23a4.18 4.18 0 0 0-.09.51.24.24 0 0 0 .07.19.33.33 0 0 0 .23.06c.14.008.282-.002.42-.03zm.55.59l.84-4h.61l-.17.83a2.81 2.81 0 0 1 .61-.69 1 1 0 0 1 .61-.22 1.2 1.2 0 0 1 .51.15l-.28.64a.65.65 0 0 0-.39-.13 1.06 1.06 0 0 0-.74.4 3.06 3.06 0 0 0-.6 1.45L77.47 29h-.66zm5.32-.54a2.74 2.74 0 0 1-.69.45 1.77 1.77 0 0 1-.71.14 1.25 1.25 0 0 1-.9-.33 1.12 1.12 0 0 1-.34-.84 1.15 1.15 0 0 1 .56-1.02 1.8 1.8 0 0 1 .62-.23 7 7 0 0 1 .88-.07c.315 0 .629-.047.93-.14a1.78 1.78 0 0 0 .08-.47.45.45 0 0 0-.17-.38 1.11 1.11 0 0 0-.7-.19 1.21 1.21 0 0 0-.71.19 1.08 1.08 0 0 0-.4.55l-.7-.06c.12-.37.354-.693.67-.92a2 2 0 0 1 1.17-.32 1.82 1.82 0 0 1 1.19.36.84.84 0 0 1 .33.69 3.49 3.49 0 0 1-.1.75l-.22 1a3.76 3.76 0 0 0-.11.78c.007.186.034.37.08.55h-.7a2.54 2.54 0 0 1-.06-.49zm.25-1.54c-.1.04-.204.07-.31.09l-.55.06a4.24 4.24 0 0 0-.85.13.71.71 0 0 0-.37.26.67.67 0 0 0-.13.4.62.62 0 0 0 .2.48.8.8 0 0 0 .57.19 1.34 1.34 0 0 0 1.16-.68 2.93 2.93 0 0 0 .28-.93zm4.08 1.46a1.66 1.66 0 0 1-1.23.68 1.23 1.23 0 0 1-1-.42 1.78 1.78 0 0 1-.38-1.23 3 3 0 0 1 .3-1.35 2.29 2.29 0 0 1 .76-.91 1.63 1.63 0 0 1 .91-.3 1.22 1.22 0 0 1 1.14.73l.46-2.17h.68L87 29h-.64l.1-.62zm-1.89-1.11c-.01.226.018.452.08.67a.87.87 0 0 0 .29.4.75.75 0 0 0 .48.16c.345-.018.661-.2.85-.49a2.5 2.5 0 0 0 .51-1.6 1.06 1.06 0 0 0-.25-.75.83.83 0 0 0-.63-.27.93.93 0 0 0-.45.11 1.32 1.32 0 0 0-.4.37 2.35 2.35 0 0 0-.34.67 2.28 2.28 0 0 0-.14.73zm6.43.32l.67.07a2 2 0 0 1-.66.95 1.83 1.83 0 0 1-1.24.45 1.67 1.67 0 0 1-.82-.21 1.36 1.36 0 0 1-.57-.6 2 2 0 0 1-.2-.9 2.87 2.87 0 0 1 .31-1.28 2.19 2.19 0 0 1 .79-.92 2 2 0 0 1 1.05-.3 1.53 1.53 0 0 1 1.15.45c.33.316.517.753.52 1.21 0 .204-.016.408-.05.61h-3a1.68 1.68 0 0 0 0 .21c-.023.312.07.622.26.87a.81.81 0 0 0 .64.3 1.23 1.23 0 0 0 .7-.23 1.51 1.51 0 0 0 .45-.68zm-2-1h2.3v-.15a1.12 1.12 0 0 0-.26-.79.87.87 0 0 0-.67-.28 1.22 1.22 0 0 0-.8.3 1.82 1.82 0 0 0-.57.92zM92.4 29l.84-4h.61l-.17.83a2.81 2.81 0 0 1 .61-.69 1 1 0 0 1 .61-.22 1.2 1.2 0 0 1 .51.15l-.28.64a.65.65 0 0 0-.39-.13 1.06 1.06 0 0 0-.74.4 3.06 3.06 0 0 0-.6 1.45L93.05 29h-.65zm2.66-1.42h.69a1.26 1.26 0 0 0 .09.51.72.72 0 0 0 .34.34c.176.09.372.135.57.13.24.018.48-.046.68-.18a.54.54 0 0 0 .23-.43.51.51 0 0 0-.14-.34 2.16 2.16 0 0 0-.69-.39 6.54 6.54 0 0 1-.7-.33 1.13 1.13 0 0 1-.38-.37.91.91 0 0 1-.13-.48c0-.316.138-.616.38-.82a1.54 1.54 0 0 1 1.06-.34 1.7 1.7 0 0 1 1.16.35c.265.236.415.575.41.93h-.67a.77.77 0 0 0-.26-.58 1 1 0 0 0-.69-.21.85.85 0 0 0-.56.16.46.46 0 0 0-.2.35.43.43 0 0 0 .17.33c.184.122.382.223.59.3a4 4 0 0 1 1 .54 1 1 0 0 1 .33.77 1.08 1.08 0 0 1-.18.59 1.27 1.27 0 0 1-.56.46 2.13 2.13 0 0 1-.89.17 2 2 0 0 1-1.19-.35 1.23 1.23 0 0 1-.46-1.11zm6.06 0h.69a1.26 1.26 0 0 0 .09.51.72.72 0 0 0 .34.34c.176.09.372.135.57.13.24.018.48-.046.68-.18a.54.54 0 0 0 .23-.43.51.51 0 0 0-.14-.34 2.16 2.16 0 0 0-.69-.39 6.54 6.54 0 0 1-.7-.33 1.13 1.13 0 0 1-.38-.37.91.91 0 0 1-.13-.48c0-.316.138-.616.38-.82a1.54 1.54 0 0 1 1.06-.34 1.7 1.7 0 0 1 1.16.35c.265.236.415.575.41.93h-.67a.77.77 0 0 0-.26-.58 1 1 0 0 0-.69-.21.85.85 0 0 0-.56.16.46.46 0 0 0-.2.35.43.43 0 0 0 .17.33c.184.122.382.223.59.3a4 4 0 0 1 1 .54 1 1 0 0 1 .33.77 1.08 1.08 0 0 1-.18.59 1.27 1.27 0 0 1-.56.46 2.13 2.13 0 0 1-.89.17 2 2 0 0 1-1.19-.35 1.23 1.23 0 0 1-.46-1.11zm3.8 1.42l.84-4h.69l-.84 4h-.69zm1-4.8l.16-.78h.68l-.16.78h-.68zm.76 4.8l.84-4h.62l-.15.7a3.3 3.3 0 0 1 .76-.6 1.51 1.51 0 0 1 .72-.19c.282-.015.56.082.77.27a.94.94 0 0 1 .28.71 4 4 0 0 1-.1.71l-.5 2.4h-.69l.54-2.56c.044-.18.07-.365.08-.55a.42.42 0 0 0-.14-.33.58.58 0 0 0-.4-.13c-.35 0-.688.136-.94.38a2.43 2.43 0 0 0-.61 1.3l-.4 1.89h-.68zm7.11-1.51l.69.07a2.31 2.31 0 0 1-.74 1.12 1.73 1.73 0 0 1-1.09.37 1.41 1.41 0 0 1-1.07-.43 1.65 1.65 0 0 1-.41-1.19 3.4 3.4 0 0 1 .26-1.3 2.1 2.1 0 0 1 .75-1 1.94 1.94 0 0 1 1.12-.33 1.42 1.42 0 0 1 1 .37c.265.263.404.627.38 1H114a.82.82 0 0 0-.22-.6.78.78 0 0 0-.58-.22 1.07 1.07 0 0 0-.72.26 1.73 1.73 0 0 0-.48.8 3.33 3.33 0 0 0-.17 1c-.022.28.06.557.23.78a.72.72 0 0 0 .56.26 1 1 0 0 0 .64-.25c.237-.185.42-.43.53-.71zm4.08.1l.67.07a2 2 0 0 1-.66.95 1.83 1.83 0 0 1-1.24.45 1.67 1.67 0 0 1-.82-.21 1.36 1.36 0 0 1-.57-.6 2 2 0 0 1-.2-.9 2.87 2.87 0 0 1 .31-1.28 2.19 2.19 0 0 1 .79-.92 2 2 0 0 1 1.05-.3 1.53 1.53 0 0 1 1.15.45c.3.334.454.772.43 1.22 0 .204-.016.408-.05.61h-3a1.68 1.68 0 0 0 0 .21c-.023.312.07.622.26.87a.81.81 0 0 0 .64.3 1.23 1.23 0 0 0 .7-.23 1.51 1.51 0 0 0 .54-.69zm-2-1h2.27v-.15a1.12 1.12 0 0 0-.26-.79.87.87 0 0 0-.67-.28 1.22 1.22 0 0 0-.8.3 1.82 1.82 0 0 0-.54.92zm5.72 2.41a3 3 0 0 1 .29-.83 2.79 2.79 0 0 1 .5-.64c.207-.2.607-.533 1.2-1a8.52 8.52 0 0 0 .74-.64 2.12 2.12 0 0 0 .41-.58 1 1 0 0 0 .09-.42.88.88 0 0 0-.27-.65.91.91 0 0 0-.67-.27 1 1 0 0 0-.68.27 1.61 1.61 0 0 0-.42.87l-.67-.1a1.83 1.83 0 0 1 .58-1.17 1.71 1.71 0 0 1 1.19-.43 1.86 1.86 0 0 1 .86.2c.247.122.45.318.58.56.125.227.19.481.19.74a1.73 1.73 0 0 1-.4 1.07 10.53 10.53 0 0 1-1.43 1.26 8 8 0 0 0-.76.66 2.37 2.37 0 0 0-.37.49h2.49l-.13.63-3.32-.02zm4.41-1.86c.018-.908.25-1.8.68-2.6a2.86 2.86 0 0 1 .54-.68 2.07 2.07 0 0 1 .55-.36 1.48 1.48 0 0 1 .6-.12 1.38 1.38 0 0 1 1.07.48 2 2 0 0 1 .43 1.37 5.84 5.84 0 0 1-.3 1.83 3.49 3.49 0 0 1-1 1.61 1.64 1.64 0 0 1-1.09.41 1.36 1.36 0 0 1-1.06-.49 2.11 2.11 0 0 1-.42-1.45zm.67.17a1.58 1.58 0 0 0 .17.8.75.75 0 0 0 .69.4 1 1 0 0 0 .73-.36 3.32 3.32 0 0 0 .71-1.49 7.15 7.15 0 0 0 .24-1.61 1.32 1.32 0 0 0-.23-.87.76.76 0 0 0-.61-.27 1 1 0 0 0-.51.14 1.44 1.44 0 0 0-.45.48 4.86 4.86 0 0 0-.54 1.45 6.06 6.06 0 0 0-.18 1.33h-.02zm3.68-.17c.018-.908.25-1.8.68-2.6a2.86 2.86 0 0 1 .54-.68 2.07 2.07 0 0 1 .55-.36 1.48 1.48 0 0 1 .6-.12 1.38 1.38 0 0 1 1.07.48 2 2 0 0 1 .43 1.37 5.84 5.84 0 0 1-.3 1.83 3.49 3.49 0 0 1-1 1.61 1.64 1.64 0 0 1-1.09.41 1.36 1.36 0 0 1-1.06-.49 2.11 2.11 0 0 1-.42-1.45zm.67.17a1.58 1.58 0 0 0 .17.8.75.75 0 0 0 .69.4 1 1 0 0 0 .73-.36 3.32 3.32 0 0 0 .71-1.49 7.15 7.15 0 0 0 .24-1.61 1.32 1.32 0 0 0-.23-.87.76.76 0 0 0-.61-.27 1 1 0 0 0-.51.14 1.44 1.44 0 0 0-.45.48 4.86 4.86 0 0 0-.54 1.45 6.06 6.06 0 0 0-.22 1.33h.02zm3.66-.17c.018-.908.25-1.8.68-2.6a2.86 2.86 0 0 1 .54-.68 2.07 2.07 0 0 1 .55-.36 1.48 1.48 0 0 1 .6-.12 1.38 1.38 0 0 1 1.07.48 2 2 0 0 1 .43 1.37 5.84 5.84 0 0 1-.3 1.83 3.49 3.49 0 0 1-1 1.61 1.64 1.64 0 0 1-1.09.41 1.36 1.36 0 0 1-1.06-.49 2.11 2.11 0 0 1-.42-1.45zm.67.17a1.58 1.58 0 0 0 .17.8.75.75 0 0 0 .69.4 1 1 0 0 0 .73-.36 3.32 3.32 0 0 0 .71-1.49 7.15 7.15 0 0 0 .24-1.61 1.32 1.32 0 0 0-.23-.87.76.76 0 0 0-.61-.27 1 1 0 0 0-.51.14 1.44 1.44 0 0 0-.45.48 4.86 4.86 0 0 0-.54 1.45 6.06 6.06 0 0 0-.2 1.33z"/>
        </g>
        <path fill="#FFF" d="M27.314 4.683c-6.24-6.244-16.392-6.244-22.634-.002-6.24 6.24-6.24 16.396 0 22.637 6.242 6.243 16.397 6.242 22.634-.001 6.248-6.24 6.248-16.396 0-22.634"/>
        <g fill="#2A3052">
            <path d="M11.368 20.323s.18 1.353 1.32 1.98l-.304-.565s.58-1.523-1.016-1.415"/>
            <path d="M16.655 10.598c1.255.447 1.659 1.785 1.659 1.785-1.597.364-1.26-1.266-1.26-1.266l-.399-.519zm8.4 14.46c-.163.16-.324.317-.49.467-3.604 2.938-6.38 1.476-6.413 1.476-1.881-.376-2.815-.381-3.344-.734-.132-.09-.558-.318-.656-.263-.384.23-.913.347-1.456-.086a2.055 2.055 0 0 1-.135-.123c-.6-.597-.396-1.213-.198-1.427.139-.14-.105-.534-.105-.534s-.706-1.05-1.188-1.68c-.533-.694-.605-2.07-.611-2.088l-.007-.02c-.537-.638-.593-.834-.779-1.145-.108-.184-.274-.356-.416-.504a2.63 2.63 0 0 1-.25-.275c-.014-.018-.018-.045-.012-.088.05-.297.69-.954.828-1.046.17-.11.9-.553.9-.553s.41-.645 1.108-.645c.63.004 1.015-.035 2.102.32l.451.143c.758.242 1.426.529 1.956.758.45.194.811.35 1.087.423.938.246 2.59-.512 2.94-.832.572-.52.819-.87.822-1.155.005-.16-.066-.3-.228-.47-.085-.078-.193-.223-.33-.36-.021-.022-.044-.048-.072-.067-1.586-1.685-1.312-2.742-1.31-2.759.068-.758-.367-1.244-.834-1.748l-.076-.095c-.024-.022-.054-.061-.054-.061.675.11 1.135.382 2.455.53.75.08.513.073 1.112.058.825-.026 1.478-.098 1.523-.286-.08-.068-.445.02-2.197-.649-.81-.31-.94-.357-1.455-.528-.662-.223-1.381-.532-1.381-.532 2.858.75 3.793 1.043 5.1 1.061.506.01.807-.052.983-.088.186-.033.763-.164.829-.364.02-.035-.554.094-1.614-.256-3.336-1.102-3.62-1.653-5.47-2.372-.645-.25-.854-.388-2.802-.891-.893-.23-2.243-.098-2.426.017-2.529-.594-3.103-.53-3.846-.37 4.948-3.172 11.63-2.6 15.96 1.728a13.08 13.08 0 0 1 1.561 1.89l.061.092a12.676 12.676 0 0 1 2.13 7.074c0 3.42-1.333 6.635-3.753 9.058zM26.607 5.39C20.754-.463 11.239-.463 5.387 5.389c-5.85 5.85-5.85 15.371 0 21.223 5.852 5.852 15.37 5.85 21.22-.001 5.857-5.85 5.857-15.372 0-21.221z"/>
        </g>
    </g>
</svg>
