<?xml version="1.0" encoding="UTF-8"?>
<svg width="16px" height="16px" viewBox="0 0 16 16" version="1.1" xmlns="http://www.w3.org/2000/svg" xmlns:xlink="http://www.w3.org/1999/xlink">
    <!-- Generator: Sketch 49 (51002) - http://www.bohemiancoding.com/sketch -->
    <title>icons/system/light/chart settings/drawing tools/ic-drawingtools-normal</title>
    <desc>Created with Sketch.</desc>
    <defs></defs>
    <g id="icons/system/light/chart-settings/drawing-tools/ic-drawingtools-normal" stroke="none" stroke-width="1" fill-rule="evenodd">
        <path d="M10.7937008,10 L5.20653118,10 L2.95118312,14.7157277 C2.83203998,14.9648452 2.53350575,15.0702103 2.28438827,14.9510671 C2.03527078,14.831924 1.92990576,14.5333897 2.0490489,14.2842723 L4.09804868,10 L2.50011601,10 C2.22397364,10 2.00011601,9.77614237 2.00011601,9.5 C2.00011601,9.22385763 2.22397364,9 2.50011601,9 L4.57630955,9 L6.71351859,4.53129017 C6.27732093,4.16441291 6.00011601,3.61457879 6.00011601,3 C6.00011601,1.8954305 6.89554651,1 8.00011601,1 C9.10468551,1 10.000116,1.8954305 10.000116,3 C10.000116,3.61457879 9.7229111,4.16441291 9.28671344,4.53129017 L11.4239225,9 L13.500116,9 C13.7762584,9 14.000116,9.22385763 14.000116,9.5 C14.000116,9.77614237 13.7762584,10 13.500116,10 L11.9021834,10 L13.9511831,14.2842723 C14.0703263,14.5333897 13.9649612,14.831924 13.7158438,14.9510671 C13.4667263,15.0702103 13.168192,14.9648452 13.0490489,14.7157277 L10.7937008,10 Z M10.31544,9 L8.38472645,4.96305353 C8.26026268,4.98729801 8.1316727,5 8.00011601,5 C7.86855933,5 7.73996935,4.98729801 7.61550557,4.96305353 L5.68479205,9 L10.31544,9 Z M8.00011601,4 C8.55240076,4 9.00011601,3.55228475 9.00011601,3 C9.00011601,2.44771525 8.55240076,2 8.00011601,2 C7.44783126,2 7.00011601,2.44771525 7.00011601,3 C7.00011601,3.55228475 7.44783126,4 8.00011601,4 Z" id="Combined-Shape"></path>
    </g>
</svg>
