<?xml version="1.0" encoding="UTF-8"?>
<svg width="16px" height="16px" viewBox="0 0 16 16" version="1.1" xmlns="http://www.w3.org/2000/svg" xmlns:xlink="http://www.w3.org/1999/xlink">
    <!-- Generator: Sketch 49 (51002) - http://www.bohemiancoding.com/sketch -->
    <title>icons/system/light/chart settings/drawing tools/ic-drawingtools-active</title>
    <desc>Created with Sketch.</desc>
    <defs></defs>
    <g id="icons/system/light/chart-settings/drawing-tools/ic-drawingtools-active" stroke="none" stroke-width="1" fill="none" fill-rule="evenodd">
        <g id="Drawing-Tool/Dark" transform="translate(2.000000, 1.000000)" fill="#4C5794">
            <path d="M8.79358484,9 L3.20641516,9 L0.951067111,13.7157277 C0.831923965,13.9648452 0.533389738,14.0702103 0.284272251,13.9510671 C0.0351547649,13.831924 -0.0702102565,13.5333897 0.0489328892,13.2842723 L2.09793266,9 L0.5,9 C0.223857625,9 -3.63794499e-12,8.77614237 -3.63797881e-12,8.5 C-3.63801262e-12,8.22385763 0.223857625,8 0.5,8 L2.57619353,8 L4.71340258,3.53129017 C4.27720492,3.16441291 4,2.61457879 4,2 C4,0.8954305 4.8954305,0 6,0 C7.1045695,0 8,0.8954305 8,2 C8,2.61457879 7.72279508,3.16441291 7.28659742,3.53129017 L9.42380647,8 L11.5,8 C11.7761424,8 12,8.22385763 12,8.5 C12,8.77614237 11.7761424,9 11.5,9 L9.90206734,9 L11.9510671,13.2842723 C12.0702103,13.5333897 11.9648452,13.831924 11.7157277,13.9510671 C11.4666103,14.0702103 11.168076,13.9648452 11.0489329,13.7157277 L8.79358484,9 Z M8.31532397,8 L6.38461044,3.96305353 C6.26014666,3.98729801 6.13155669,4 6,4 C5.86844331,4 5.73985334,3.98729801 5.61538956,3.96305353 L3.68467603,8 L8.31532397,8 Z M6,3 C6.55228475,3 7,2.55228475 7,2 C7,1.44771525 6.55228475,1 6,1 C5.44771525,1 5,1.44771525 5,2 C5,2.55228475 5.44771525,3 6,3 Z" id="Combined-Shape"></path>
        </g>
    </g>
</svg>