<svg xmlns="http://www.w3.org/2000/svg" width="24" height="24" viewBox="0 0 24 24">
    <path fill="#C2C2C2" fill-rule="evenodd" d="M21 0a3 3 0 0 1 3 3v18a3 3 0 0 1-3 3H3a3 3 0 0 1-3-3V3a3 3 0 0 1 3-3h18zm-3.955 8.016L10.28 14.78a.75.75 0 0 1-.53.22H7.06l-2.78 2.78a.75.75 0 0 1-1.06 0L1.5 16.061V21A1.5 1.5 0 0 0 3 22.5h18a1.5 1.5 0 0 0 1.5-1.5v-9.44l-1.72 1.72a.75.75 0 0 1-1.2-.195l-2.535-5.069zm-.272 5.655l.007-.005.009-.008.003-.002a.75.75 0 0 1 .006-.005l-.002.002.034-.025.051-.031a.705.705 0 0 1 .099-.047l.031-.011a.728.728 0 0 1 .223-.039h.016l.07.003a.75.75 0 0 1 .256.071l.043.023a.778.778 0 0 1 .082.054l.007.005.072.064 3 3a.75.75 0 0 1-1.06 1.06L18 16.06v4.19a.75.75 0 1 1-1.5 0v-4.19l-1.72 1.72a.75.75 0 0 1-1.06-1.06l3-3 .053-.049zM21 1.5H3A1.5 1.5 0 0 0 1.5 3v10.939l2.25 2.25 2.47-2.47a.75.75 0 0 1 .53-.219h2.69l7.28-7.28a.75.75 0 0 1 1.2.195l2.535 5.069L22.5 9.438V3A1.5 1.5 0 0 0 21 1.5zm-3.733 12c.02 0 .04.002.06.004l-.077-.004h.017zm-10.59-3.004l.073.004h-.03a.754.754 0 0 1-.043-.004zM6.75 3a.75.75 0 0 1 .75.75v4.189l1.72-1.72c.707-.706 1.767.354 1.06 1.061l-3 3-.038.036-.007.004a.514.514 0 0 1-.117.084.699.699 0 0 1-.127.057l-.035.01-.035.01a.872.872 0 0 1-.171.019.754.754 0 0 1-.139-.013l-.015-.003-.016-.003a.726.726 0 0 1-.36-.2l-3-3c-.707-.708.353-1.768 1.06-1.061L6 7.939V3.75A.75.75 0 0 1 6.75 3zm.53 7.28l-.078.069.033-.029.045-.04z"/>
</svg>
