<svg width="32" height="32" viewBox="0 0 32 32" fill="none" xmlns="http://www.w3.org/2000/svg">
<path d="M2 12C2 6.47715 6.47715 2 12 2C17.5228 2 22 6.47715 22 12C22 17.5228 17.5228 22 12 22C6.47715 22 2 17.5228 2 12Z" fill="white"/>
<path fill-rule="evenodd" clip-rule="evenodd" d="M11.5771 2C9.65112 2.11099 7.87268 2.76699 6.39154 3.81453H17.9315C16.4502 2.76699 14.6718 2.11099 12.7458 2H12.4381H11.5771ZM4.43606 5.62859C3.97754 6.18581 3.58024 6.79436 3.24998 7.44295L15.2747 7.44308H21.0731C20.7426 6.79453 20.3457 6.18594 19.8868 5.62872L15.4457 5.62859H4.43606ZM2.04126 11.0899C2.09586 10.4669 2.20835 9.8608 2.37261 9.27587H21.6137C21.778 9.86067 21.8905 10.4669 21.9453 11.0899H2.04126ZM2.04504 12.9048C2.10293 13.5281 2.21955 14.1342 2.3871 14.7188H21.5994C21.7671 14.1342 21.8836 13.528 21.9415 12.9048H2.04504ZM4.31022 18.3477C3.846 17.7911 3.44305 17.1825 3.10773 16.5333H15.7202L20.8787 16.5333C20.5434 17.1825 20.1404 17.7911 19.6762 18.3477H14.8111L4.31022 18.3477ZM11.5704 21.9656L11.6007 21.9667L11.631 21.9678C11.7512 21.9721 11.8718 21.975 11.9931 21.975C14.1117 21.975 16.0748 21.3037 17.6915 20.1625L14.4801 20.1625H6.29507C7.80338 21.2274 9.61384 21.8828 11.5704 21.9656Z" fill="#F44336"/>
<path d="M11.7865 2.00513C6.66552 2.1093 2.49168 6.06321 2.04248 11.0926H11.7867V2.00513H11.7865Z" fill="#283991"/>
<path d="M3.99968 7.64995L4.15191 8.11774H4.64516L4.24613 8.407L4.39854 8.87513L3.99968 8.58569L3.60094 8.87513L3.75305 8.407L3.35415 8.11774H3.8474L3.99968 7.64995Z" fill="#EFEFEF"/>
<path d="M3.99968 9.30262L4.15191 9.77071H4.64516L4.24613 10.06L4.39854 10.5281L3.99968 10.2387L3.60094 10.5281L3.75305 10.06L3.35415 9.77071H3.8474L3.99968 9.30262Z" fill="#EFEFEF"/>
<path d="M5.65611 5.17033L5.80839 5.63828H6.30147L5.90257 5.92772L6.05484 6.39551L5.65611 6.10641L5.25721 6.39551L5.40949 5.92772L5.01041 5.63828H5.50366L5.65611 5.17033Z" fill="#EFEFEF"/>
<path d="M5.65611 6.8233L5.80839 7.29125H6.30147L5.90257 7.58035L6.05484 8.04848L5.65611 7.75938L5.25721 8.04848L5.40949 7.58035L5.01041 7.29125H5.50366L5.65611 6.8233Z" fill="#EFEFEF"/>
<path d="M5.65611 8.47627L5.80839 8.94439H6.30147L5.90257 9.23332L6.05484 9.70145L5.65611 9.41206L5.25721 9.70145L5.40949 9.23332L5.01041 8.94439H5.50366L5.65611 8.47627Z" fill="#EFEFEF"/>
<path d="M2.74208 9.70144L2.58967 9.23332L2.98858 8.94422H2.49562L2.48457 8.91007C2.43043 9.07715 2.38153 9.24624 2.33643 9.41723L2.34339 9.41205L2.74208 9.70144Z" fill="#EFEFEF"/>
<path d="M3.60093 7.22216L3.99966 6.93277L4.39857 7.22216L4.24616 6.75403L4.64506 6.46464H4.15182L3.99954 5.99685L3.84726 6.46464H3.66549C3.63173 6.51567 3.59907 6.567 3.56625 6.61879L3.75308 6.75403L3.60093 7.22216Z" fill="#EFEFEF"/>
<path d="M5.65612 4.45344L6.05486 4.74254L5.90258 4.27475L6.30131 3.98536H6.0165C5.7746 4.16582 5.54123 4.35681 5.31701 4.55833L5.25688 4.74254L5.65612 4.45344Z" fill="#EFEFEF"/>
<path d="M6.91368 3.91622L7.31258 3.62683L7.71132 3.91622L7.55904 3.44809L7.95777 3.159H7.46469L7.44402 3.09601C7.27693 3.18119 7.11157 3.26982 6.94997 3.36413L7.06579 3.44805L6.91368 3.91622Z" fill="#EFEFEF"/>
<path d="M7.31256 4.34401L7.46484 4.81167H7.95792L7.55902 5.10106L7.7113 5.56919L7.31256 5.27976L6.91366 5.56919L7.06594 5.10106L6.66691 4.81167H7.16011L7.31256 4.34401Z" fill="#EFEFEF"/>
<path d="M7.31256 5.99698L7.46484 6.46464H7.95792L7.55902 6.75403L7.7113 7.22216L7.31256 6.93273L6.91366 7.22216L7.06594 6.75403L6.66691 6.46464H7.16011L7.31256 5.99698Z" fill="#EFEFEF"/>
<path d="M7.31256 7.64995L7.46484 8.11774H7.95792L7.55902 8.407L7.7113 8.87513L7.31256 8.58569L6.91366 8.87513L7.06594 8.407L6.66691 8.11774H7.16011L7.31256 7.64995Z" fill="#EFEFEF"/>
<path d="M7.31256 9.30262L7.46484 9.77071H7.95792L7.55902 10.06L7.7113 10.5281L7.31256 10.2387L6.91366 10.5281L7.06594 10.06L6.66691 9.77071H7.16011L7.31256 9.30262Z" fill="#EFEFEF"/>
<path d="M8.96902 3.51736L9.1213 3.98532H9.61438L9.21564 4.27475L9.36775 4.74254L8.96902 4.45345L8.56999 4.74254L8.72239 4.27475L8.32336 3.98532H8.81657L8.96902 3.51736Z" fill="#EFEFEF"/>
<path d="M8.96902 5.17033L9.1213 5.63828H9.61438L9.21564 5.92772L9.36775 6.39551L8.96902 6.10641L8.56999 6.39551L8.72239 5.92772L8.32336 5.63828H8.81657L8.96902 5.17033Z" fill="#EFEFEF"/>
<path d="M8.96902 6.8233L9.1213 7.29125H9.61438L9.21564 7.58035L9.36775 8.04848L8.96902 7.75938L8.56999 8.04848L8.72239 7.58035L8.32336 7.29125H8.81657L8.96902 6.8233Z" fill="#EFEFEF"/>
<path d="M8.96902 8.47627L9.1213 8.94439H9.61438L9.21564 9.23332L9.36775 9.70145L8.96902 9.41206L8.56999 9.70145L8.72239 9.23332L8.32336 8.94439H8.81657L8.96902 8.47627Z" fill="#EFEFEF"/>
<path d="M10.6255 2.69104L10.7778 3.159H11.2708L10.8719 3.44809L11.0242 3.91622L10.6255 3.62679L10.2264 3.91622L10.3788 3.44809L9.97982 3.159H10.4729L10.6255 2.69104Z" fill="#EFEFEF"/>
<path d="M10.6255 4.34401L10.7778 4.81167H11.2708L10.8719 5.10106L11.0242 5.56919L10.6255 5.27976L10.2264 5.56919L10.3788 5.10106L9.97982 4.81167H10.4729L10.6255 4.34401Z" fill="#EFEFEF"/>
<path d="M10.6255 5.99698L10.7778 6.46464H11.2708L10.8719 6.75403L11.0242 7.22216L10.6255 6.93273L10.2264 7.22216L10.3788 6.75403L9.97982 6.46464H10.4729L10.6255 5.99698Z" fill="#EFEFEF"/>
<path d="M10.6255 7.64995L10.7778 8.11774H11.2708L10.8719 8.407L11.0242 8.87513L10.6255 8.58569L10.2264 8.87513L10.3788 8.407L9.97982 8.11774H10.4729L10.6255 7.64995Z" fill="#EFEFEF"/>
<path d="M10.6255 9.30262L10.7778 9.77071H11.2708L10.8719 10.06L11.0242 10.5281L10.6255 10.2387L10.2264 10.5281L10.3788 10.06L9.97982 9.77071H10.4729L10.6255 9.30262Z" fill="#EFEFEF"/>
<path d="M10 20C10 14.4772 14.4772 10 20 10C25.5228 10 30 14.4772 30 20C30 25.5228 25.5228 30 20 30C14.4772 30 10 25.5228 10 20Z" fill="#F3BA2F"/>
<path d="M21.957 19.185C21.9086 19.1774 21.882 19.1474 21.8565 19.1187C21.8497 19.111 21.843 19.1034 21.8359 19.0964L21.5924 18.8534C21.0999 18.3619 20.6073 17.8704 20.1197 17.3742C20.0251 17.2779 19.9749 17.278 19.8803 17.3742C19.5634 17.6968 19.2439 18.0169 18.9244 18.3369C18.6713 18.5904 18.4182 18.844 18.1664 19.0987C18.0845 19.1816 18.0379 19.1918 17.9494 19.0999C17.6452 18.7835 17.332 18.4755 17.0168 18.17C16.9369 18.0925 16.9413 18.0447 17.0173 17.9689C17.989 17.0009 18.9586 16.0308 19.9263 15.0588C19.9878 14.997 20.021 15.0033 20.0784 15.0609C21.0433 16.0292 22.0095 16.9962 22.9778 17.961C23.0557 18.0386 23.0706 18.0882 22.9829 18.1732C22.7639 18.3854 22.5488 18.6016 22.3337 18.8179C22.2393 18.9128 22.1449 19.0077 22.0502 19.1023C22.0292 19.1232 22.0066 19.1425 21.9851 19.1608C21.9754 19.1691 21.966 19.1771 21.957 19.185Z" fill="white"/>
<path d="M23.0457 21.9554C23.0313 21.9718 23.0157 21.9894 22.9992 22.006L22.3294 22.6778C21.5775 23.4318 20.8252 24.1862 20.075 24.942C20.0119 25.0055 19.9808 24.994 19.9248 24.9377C18.953 23.96 17.9799 22.9835 17.0045 22.0094C16.9348 21.9398 16.9383 21.8988 17.0061 21.8327C17.3349 21.5119 17.6627 21.19 17.9834 20.8613C18.0599 20.7829 18.0989 20.8236 18.1429 20.8695C18.1477 20.8746 18.1526 20.8797 18.1576 20.8847C18.2884 21.0157 18.4194 21.1466 18.5503 21.2774L18.5512 21.2783C18.9974 21.7242 19.4437 22.1702 19.8844 22.6214C19.9856 22.725 20.0303 22.7074 20.121 22.615C20.4106 22.3201 20.7025 22.0274 20.9943 21.7348C21.2721 21.4564 21.5499 21.1779 21.8256 20.8975C21.9199 20.8016 21.9736 20.8028 22.0665 20.8994C22.2796 21.1211 22.4978 21.3379 22.7159 21.5548C22.8099 21.6482 22.904 21.7417 22.9976 21.8355C23.0032 21.8411 23.0093 21.8464 23.0155 21.8518C23.0388 21.872 23.0629 21.8929 23.0643 21.9345C23.061 21.9381 23.0577 21.9418 23.0544 21.9456C23.0515 21.9488 23.0486 21.9521 23.0457 21.9554Z" fill="white"/>
<path d="M19.968 21.1108C19.9736 21.1151 19.9789 21.1191 19.9834 21.1229C20.0269 21.1263 20.0479 21.1042 20.0683 21.0828L20.0743 21.0765L20.0776 21.0731C20.1653 20.9856 20.2529 20.8979 20.3405 20.8103L20.341 20.8098C20.5838 20.5667 20.8266 20.3237 21.0726 20.0839C21.1415 20.0167 21.1451 19.9794 21.0755 19.9108C20.7353 19.5753 20.3995 19.2353 20.0641 18.895C20.0217 18.852 19.9939 18.8403 19.9461 18.8889C19.6012 19.2392 19.2554 19.5887 18.9062 19.9347C18.8496 19.9907 18.8694 20.0144 18.9154 20.0602C19.1482 20.2918 19.3795 20.5249 19.6107 20.7581C19.7151 20.8633 19.8195 20.9685 19.924 21.0736C19.9382 21.0878 19.9542 21.1002 19.968 21.1108Z" fill="white"/>
<path d="M23.8881 18.8814C23.8947 18.8874 23.902 18.8939 23.9097 18.9007C23.9276 18.9166 23.9477 18.9343 23.9667 18.9532C24.0607 19.0464 24.1545 19.1397 24.2483 19.2329C24.4866 19.4699 24.7252 19.7072 24.9653 19.9423C25.0066 19.9828 25.0147 19.9985 24.9694 20.0429C24.6253 20.3802 24.2837 20.7201 23.9438 21.0616C23.8924 21.1133 23.8621 21.1243 23.804 21.0651C23.4794 20.7338 23.1519 20.4052 22.8204 20.0807C22.7508 20.0126 22.7512 19.9754 22.8207 19.9075C23.0576 19.6762 23.2914 19.4419 23.5253 19.2076C23.6155 19.1173 23.7057 19.0268 23.7961 18.9366C23.8007 18.9321 23.805 18.9271 23.8093 18.9221C23.8273 18.9014 23.8462 18.8796 23.8881 18.8814Z" fill="white"/>
<path d="M16.1025 21.101C16.1069 21.105 16.111 21.1086 16.1145 21.1118C16.1477 21.1144 16.1626 21.0986 16.177 21.0833C16.1793 21.0809 16.1817 21.0785 16.184 21.0761C16.2706 20.9903 16.3572 20.9045 16.4438 20.8186C16.7036 20.561 16.9635 20.3034 17.223 20.0455C17.2591 20.0096 17.2627 19.9795 17.2185 19.9363C16.8798 19.6058 16.5428 19.2735 16.2101 18.9371C16.1451 18.8714 16.1106 18.8743 16.0472 18.9383C15.711 19.2779 15.3706 19.6135 15.0293 19.9481C14.9919 19.9848 14.9891 20.0005 15.028 20.0387C15.2876 20.2937 15.5457 20.5503 15.8038 20.8068C15.8918 20.8942 15.9798 20.9816 16.0678 21.069C16.0796 21.0807 16.092 21.0917 16.1025 21.101Z" fill="white"/>
</svg>
