<svg width="32" height="32" viewBox="0 0 32 32" fill="none" xmlns="http://www.w3.org/2000/svg">
<path d="M2 12C2 6.47715 6.47715 2 12 2C17.5228 2 22 6.47715 22 12C22 17.5228 17.5228 22 12 22C6.47715 22 2 17.5228 2 12Z" fill="white"/>
<path fill-rule="evenodd" clip-rule="evenodd" d="M11.5771 2C9.65112 2.11099 7.87268 2.76699 6.39154 3.81453H17.9315C16.4502 2.76699 14.6718 2.11099 12.7458 2H12.4381H11.5771ZM4.43606 5.62859C3.97754 6.18581 3.58024 6.79436 3.24998 7.44295L15.2747 7.44308H21.0731C20.7426 6.79453 20.3457 6.18594 19.8868 5.62872L15.4457 5.62859H4.43606ZM2.04126 11.0899C2.09586 10.4669 2.20835 9.8608 2.37261 9.27587H21.6137C21.778 9.86067 21.8905 10.4669 21.9453 11.0899H2.04126ZM2.04504 12.9048C2.10293 13.5281 2.21955 14.1342 2.3871 14.7188H21.5994C21.7671 14.1342 21.8836 13.528 21.9415 12.9048H2.04504ZM4.31022 18.3477C3.846 17.7911 3.44305 17.1825 3.10773 16.5333H15.7202L20.8787 16.5333C20.5434 17.1825 20.1404 17.7911 19.6762 18.3477H14.8111L4.31022 18.3477ZM11.5704 21.9656L11.6007 21.9667L11.631 21.9678C11.7512 21.9721 11.8718 21.975 11.9931 21.975C14.1117 21.975 16.0748 21.3037 17.6915 20.1625L14.4801 20.1625H6.29507C7.80338 21.2274 9.61384 21.8828 11.5704 21.9656Z" fill="#F44336"/>
<path d="M11.7865 2.00513C6.66552 2.1093 2.49168 6.06321 2.04248 11.0926H11.7867V2.00513H11.7865Z" fill="#283991"/>
<path d="M3.99968 7.64995L4.15191 8.11774H4.64516L4.24613 8.407L4.39854 8.87513L3.99968 8.58569L3.60094 8.87513L3.75305 8.407L3.35415 8.11774H3.8474L3.99968 7.64995Z" fill="#EFEFEF"/>
<path d="M3.99968 9.30262L4.15191 9.77071H4.64516L4.24613 10.06L4.39854 10.5281L3.99968 10.2387L3.60094 10.5281L3.75305 10.06L3.35415 9.77071H3.8474L3.99968 9.30262Z" fill="#EFEFEF"/>
<path d="M5.65611 5.17033L5.80839 5.63828H6.30147L5.90257 5.92772L6.05484 6.39551L5.65611 6.10641L5.25721 6.39551L5.40949 5.92772L5.01041 5.63828H5.50366L5.65611 5.17033Z" fill="#EFEFEF"/>
<path d="M5.65611 6.8233L5.80839 7.29125H6.30147L5.90257 7.58035L6.05484 8.04848L5.65611 7.75938L5.25721 8.04848L5.40949 7.58035L5.01041 7.29125H5.50366L5.65611 6.8233Z" fill="#EFEFEF"/>
<path d="M5.65611 8.47627L5.80839 8.94439H6.30147L5.90257 9.23332L6.05484 9.70145L5.65611 9.41206L5.25721 9.70145L5.40949 9.23332L5.01041 8.94439H5.50366L5.65611 8.47627Z" fill="#EFEFEF"/>
<path d="M2.74208 9.70144L2.58967 9.23332L2.98858 8.94422H2.49562L2.48457 8.91007C2.43043 9.07715 2.38153 9.24624 2.33643 9.41723L2.34339 9.41205L2.74208 9.70144Z" fill="#EFEFEF"/>
<path d="M3.60093 7.22216L3.99966 6.93277L4.39857 7.22216L4.24616 6.75403L4.64506 6.46464H4.15182L3.99954 5.99685L3.84726 6.46464H3.66549C3.63173 6.51567 3.59907 6.567 3.56625 6.61879L3.75308 6.75403L3.60093 7.22216Z" fill="#EFEFEF"/>
<path d="M5.65612 4.45344L6.05486 4.74254L5.90258 4.27475L6.30131 3.98536H6.0165C5.7746 4.16582 5.54123 4.35681 5.31701 4.55833L5.25688 4.74254L5.65612 4.45344Z" fill="#EFEFEF"/>
<path d="M6.91368 3.91622L7.31258 3.62683L7.71132 3.91622L7.55904 3.44809L7.95777 3.159H7.46469L7.44402 3.09601C7.27693 3.18119 7.11157 3.26982 6.94997 3.36413L7.06579 3.44805L6.91368 3.91622Z" fill="#EFEFEF"/>
<path d="M7.31256 4.34401L7.46484 4.81167H7.95792L7.55902 5.10106L7.7113 5.56919L7.31256 5.27976L6.91366 5.56919L7.06594 5.10106L6.66691 4.81167H7.16011L7.31256 4.34401Z" fill="#EFEFEF"/>
<path d="M7.31256 5.99698L7.46484 6.46464H7.95792L7.55902 6.75403L7.7113 7.22216L7.31256 6.93273L6.91366 7.22216L7.06594 6.75403L6.66691 6.46464H7.16011L7.31256 5.99698Z" fill="#EFEFEF"/>
<path d="M7.31256 7.64995L7.46484 8.11774H7.95792L7.55902 8.407L7.7113 8.87513L7.31256 8.58569L6.91366 8.87513L7.06594 8.407L6.66691 8.11774H7.16011L7.31256 7.64995Z" fill="#EFEFEF"/>
<path d="M7.31256 9.30262L7.46484 9.77071H7.95792L7.55902 10.06L7.7113 10.5281L7.31256 10.2387L6.91366 10.5281L7.06594 10.06L6.66691 9.77071H7.16011L7.31256 9.30262Z" fill="#EFEFEF"/>
<path d="M8.96902 3.51736L9.1213 3.98532H9.61438L9.21564 4.27475L9.36775 4.74254L8.96902 4.45345L8.56999 4.74254L8.72239 4.27475L8.32336 3.98532H8.81657L8.96902 3.51736Z" fill="#EFEFEF"/>
<path d="M8.96902 5.17033L9.1213 5.63828H9.61438L9.21564 5.92772L9.36775 6.39551L8.96902 6.10641L8.56999 6.39551L8.72239 5.92772L8.32336 5.63828H8.81657L8.96902 5.17033Z" fill="#EFEFEF"/>
<path d="M8.96902 6.8233L9.1213 7.29125H9.61438L9.21564 7.58035L9.36775 8.04848L8.96902 7.75938L8.56999 8.04848L8.72239 7.58035L8.32336 7.29125H8.81657L8.96902 6.8233Z" fill="#EFEFEF"/>
<path d="M8.96902 8.47627L9.1213 8.94439H9.61438L9.21564 9.23332L9.36775 9.70145L8.96902 9.41206L8.56999 9.70145L8.72239 9.23332L8.32336 8.94439H8.81657L8.96902 8.47627Z" fill="#EFEFEF"/>
<path d="M10.6255 2.69104L10.7778 3.159H11.2708L10.8719 3.44809L11.0242 3.91622L10.6255 3.62679L10.2264 3.91622L10.3788 3.44809L9.97982 3.159H10.4729L10.6255 2.69104Z" fill="#EFEFEF"/>
<path d="M10.6255 4.34401L10.7778 4.81167H11.2708L10.8719 5.10106L11.0242 5.56919L10.6255 5.27976L10.2264 5.56919L10.3788 5.10106L9.97982 4.81167H10.4729L10.6255 4.34401Z" fill="#EFEFEF"/>
<path d="M10.6255 5.99698L10.7778 6.46464H11.2708L10.8719 6.75403L11.0242 7.22216L10.6255 6.93273L10.2264 7.22216L10.3788 6.75403L9.97982 6.46464H10.4729L10.6255 5.99698Z" fill="#EFEFEF"/>
<path d="M10.6255 7.64995L10.7778 8.11774H11.2708L10.8719 8.407L11.0242 8.87513L10.6255 8.58569L10.2264 8.87513L10.3788 8.407L9.97982 8.11774H10.4729L10.6255 7.64995Z" fill="#EFEFEF"/>
<path d="M10.6255 9.30262L10.7778 9.77071H11.2708L10.8719 10.06L11.0242 10.5281L10.6255 10.2387L10.2264 10.5281L10.3788 10.06L9.97982 9.77071H10.4729L10.6255 9.30262Z" fill="#EFEFEF"/>
<path d="M10 20C10 14.4772 14.4772 10 20 10C25.5228 10 30 14.4772 30 20C30 25.5228 25.5228 30 20 30C14.4772 30 10 25.5228 10 20Z" fill="#131F37"/>
<path d="M22.5934 16.2588C22.4991 16.3222 22.3882 16.3562 22.2746 16.3565C22.1219 16.3567 21.9755 16.2962 21.8674 16.1885C21.7593 16.0807 21.6984 15.9344 21.6982 15.7818C21.6982 15.6682 21.7318 15.5571 21.7949 15.4626C21.858 15.3682 21.9477 15.2945 22.0526 15.2509C22.1575 15.2074 22.273 15.1959 22.3844 15.218C22.4959 15.24 22.5983 15.2946 22.6787 15.3748C22.7592 15.455 22.814 15.5572 22.8364 15.6686C22.8588 15.78 22.8476 15.8955 22.8044 16.0006C22.7611 16.1056 22.6877 16.1955 22.5934 16.2588Z" fill="white"/>
<path d="M23.2418 24.3772C23.1475 24.4405 23.0365 24.4745 22.9228 24.4747C22.7704 24.4748 22.6241 24.4144 22.5161 24.3068C22.4081 24.1992 22.3472 24.0531 22.3468 23.9006C22.3466 23.787 22.3802 23.6759 22.4432 23.5813C22.5062 23.4867 22.5958 23.413 22.7008 23.3693C22.8057 23.3257 22.9212 23.3141 23.0327 23.3361C23.1442 23.3581 23.2467 23.4127 23.3272 23.4929C23.4077 23.5731 23.4626 23.6754 23.485 23.7868C23.5074 23.8982 23.4962 24.0138 23.4529 24.1188C23.4097 24.2239 23.3362 24.3138 23.2418 24.3772Z" fill="white"/>
<path d="M22.4391 17.7933C22.5344 17.793 22.6275 17.7645 22.7067 17.7113C22.7859 17.6582 22.8475 17.5827 22.8838 17.4946C22.9201 17.4064 22.9295 17.3094 22.9107 17.2159C22.8919 17.1225 22.8459 17.0366 22.7784 16.9693C22.7108 16.902 22.6249 16.8562 22.5313 16.8376C22.4378 16.8191 22.3409 16.8288 22.2528 16.8653C22.1647 16.9019 22.0895 16.9637 22.0365 17.043C21.9836 17.1223 21.9553 17.2155 21.9553 17.3109C21.9554 17.3743 21.9679 17.4371 21.9923 17.4957C22.0166 17.5543 22.0523 17.6075 22.0972 17.6524C22.1421 17.6972 22.1954 17.7327 22.2541 17.7568C22.3128 17.781 22.3756 17.7934 22.4391 17.7933Z" fill="white"/>
<path d="M23.993 17.8962C23.9138 17.9493 23.8207 17.9778 23.7253 17.978C23.5972 17.9781 23.4744 17.9273 23.3837 17.8369C23.2931 17.7464 23.2421 17.6237 23.2419 17.4956C23.2419 17.4002 23.2702 17.307 23.3231 17.2277C23.3761 17.1484 23.4514 17.0866 23.5395 17.05C23.6276 17.0135 23.7245 17.0039 23.818 17.0224C23.9116 17.0409 23.9975 17.0868 24.0651 17.1541C24.1326 17.2215 24.1786 17.3074 24.1973 17.4009C24.216 17.4944 24.2066 17.5913 24.1703 17.6795C24.1339 17.7677 24.0722 17.8431 23.993 17.8962Z" fill="white"/>
<path d="M22.2748 19.015C22.356 19.0149 22.4353 18.9907 22.5028 18.9455C22.5702 18.9003 22.6228 18.8361 22.6537 18.761C22.6847 18.686 22.6928 18.6034 22.6768 18.5238C22.6609 18.4441 22.6217 18.371 22.5643 18.3136C22.5068 18.2563 22.4336 18.2172 22.354 18.2014C22.2743 18.1856 22.1918 18.1938 22.1168 18.2249C22.0418 18.256 21.9776 18.3087 21.9325 18.3762C21.8874 18.4437 21.8634 18.5231 21.8634 18.6043C21.8635 18.7133 21.907 18.8178 21.9841 18.8948C22.0612 18.9718 22.1658 19.015 22.2748 19.015Z" fill="white"/>
<path d="M23.7888 19.1194C23.7214 19.1647 23.6421 19.189 23.5609 19.1892C23.5069 19.1893 23.4534 19.1787 23.4035 19.1581C23.3536 19.1376 23.3082 19.1074 23.27 19.0692C23.2318 19.0311 23.2014 18.9859 23.1807 18.936C23.1599 18.8862 23.1492 18.8328 23.1491 18.7788C23.1491 18.6976 23.1731 18.6182 23.2181 18.5506C23.2632 18.483 23.3272 18.4304 23.4022 18.3992C23.4772 18.368 23.5597 18.3598 23.6394 18.3755C23.7191 18.3912 23.7923 18.4302 23.8498 18.4876C23.9073 18.5449 23.9465 18.618 23.9625 18.6976C23.9785 18.7772 23.9706 18.8598 23.9396 18.9349C23.9087 19.0099 23.8562 19.0742 23.7888 19.1194Z" fill="white"/>
<path d="M24.5899 19.5895C24.6711 19.5894 24.7505 19.5652 24.8179 19.52C24.8854 19.4748 24.9379 19.4106 24.9689 19.3355C24.9999 19.2605 25.0079 19.1779 24.992 19.0983C24.9761 19.0187 24.9369 18.9455 24.8795 18.8882C24.822 18.8308 24.7488 18.7917 24.6692 18.7759C24.5895 18.7602 24.507 18.7683 24.4319 18.7994C24.3569 18.8305 24.2928 18.8832 24.2477 18.9507C24.2026 19.0182 24.1786 19.0976 24.1786 19.1788C24.1787 19.2878 24.2222 19.3923 24.2993 19.4693C24.3764 19.5463 24.481 19.5895 24.5899 19.5895Z" fill="white"/>
<path d="M23.3799 20.1136C23.3209 20.1532 23.2515 20.1744 23.1804 20.1745C23.0851 20.1746 22.9936 20.1368 22.9261 20.0695C22.8586 20.0022 22.8205 19.9108 22.8204 19.8155C22.8203 19.7444 22.8413 19.6749 22.8807 19.6158C22.9201 19.5566 22.9762 19.5105 23.0418 19.4833C23.1075 19.456 23.1797 19.4488 23.2494 19.4626C23.3191 19.4763 23.3832 19.5105 23.4335 19.5607C23.4838 19.6108 23.5181 19.6748 23.5321 19.7445C23.5461 19.8142 23.5391 19.8864 23.512 19.9521C23.4849 20.0178 23.4389 20.074 23.3799 20.1136Z" fill="white"/>
<path d="M21.8943 20C21.9654 19.9999 22.0348 19.9788 22.0939 19.9392C22.1529 19.8997 22.199 19.8435 22.2261 19.7779C22.2533 19.7122 22.2603 19.6399 22.2464 19.5703C22.2325 19.5006 22.1983 19.4366 22.148 19.3863C22.0977 19.3361 22.0337 19.3019 21.964 19.2881C21.8943 19.2742 21.822 19.2814 21.7564 19.3086C21.6907 19.3358 21.6346 19.3819 21.5951 19.4409C21.5557 19.5 21.5346 19.5695 21.5346 19.6406C21.5348 19.7359 21.5727 19.8272 21.6402 19.8946C21.7076 19.962 21.799 19.9999 21.8943 20Z" fill="white"/>
<path d="M24.4191 20.514C24.3601 20.5536 24.2907 20.5748 24.2196 20.5749C24.1243 20.575 24.0328 20.5372 23.9653 20.4699C23.8978 20.4026 23.8597 20.3112 23.8596 20.2158C23.8595 20.1448 23.8805 20.0753 23.9199 20.0162C23.9593 19.957 24.0154 19.9109 24.081 19.8836C24.1466 19.8564 24.2189 19.8492 24.2886 19.8629C24.3583 19.8767 24.4224 19.9108 24.4727 19.961C24.523 20.0112 24.5573 20.0752 24.5713 20.1449C24.5853 20.2145 24.5783 20.2868 24.5512 20.3525C24.5241 20.4182 24.4781 20.4744 24.4191 20.514Z" fill="white"/>
<path d="M22.666 20.9238C22.7269 20.9237 22.7864 20.9055 22.837 20.8716C22.8876 20.8377 22.9269 20.7895 22.9502 20.7332C22.9734 20.6769 22.9794 20.615 22.9674 20.5553C22.9555 20.4956 22.9261 20.4408 22.883 20.3978C22.8398 20.3547 22.785 20.3255 22.7252 20.3136C22.6655 20.3018 22.6036 20.3079 22.5473 20.3313C22.4911 20.3546 22.443 20.3941 22.4092 20.4447C22.3754 20.4954 22.3573 20.5549 22.3573 20.6158C22.3574 20.6563 22.3654 20.6964 22.3809 20.7338C22.3965 20.7712 22.4192 20.8052 22.4479 20.8338C22.4766 20.8624 22.5106 20.885 22.548 20.9005C22.5854 20.916 22.6255 20.9239 22.666 20.9238Z" fill="white"/>
<path d="M23.8754 21.2618C23.8248 21.2957 23.7653 21.3139 23.7044 21.3141C23.6227 21.3141 23.5442 21.2816 23.4864 21.2239C23.4285 21.1661 23.3959 21.0878 23.3957 21.006C23.3957 20.9451 23.4138 20.8856 23.4476 20.8349C23.4814 20.7843 23.5295 20.7448 23.5857 20.7215C23.642 20.6981 23.7039 20.692 23.7636 20.7038C23.8233 20.7157 23.8782 20.7449 23.9213 20.788C23.9644 20.831 23.9938 20.8858 24.0058 20.9455C24.0177 21.0052 24.0117 21.0671 23.9885 21.1234C23.9653 21.1797 23.9259 21.2279 23.8754 21.2618Z" fill="white"/>
<path d="M21.3897 20.7387C21.4506 20.7386 21.5101 20.7205 21.5608 20.6866C21.6114 20.6528 21.6508 20.6046 21.6741 20.5483C21.6973 20.492 21.7034 20.4301 21.6915 20.3704C21.6795 20.3106 21.6502 20.2558 21.6071 20.2127C21.564 20.1697 21.5091 20.1404 21.4493 20.1285C21.3896 20.1167 21.3277 20.1228 21.2714 20.1461C21.2151 20.1694 21.1671 20.2089 21.1332 20.2596C21.0994 20.3102 21.0813 20.3698 21.0813 20.4307C21.0814 20.5124 21.1139 20.5908 21.1718 20.6485C21.2296 20.7063 21.308 20.7387 21.3897 20.7387Z" fill="white"/>
<path d="M22.2437 21.383C22.2015 21.4113 22.152 21.4265 22.1012 21.4266C22.0675 21.4267 22.034 21.4201 22.0028 21.4073C21.9716 21.3945 21.9433 21.3756 21.9194 21.3518C21.8955 21.328 21.8765 21.2997 21.8635 21.2685C21.8506 21.2374 21.8439 21.204 21.8438 21.1702C21.8438 21.1195 21.8588 21.0699 21.8869 21.0276C21.915 20.9854 21.9551 20.9524 22.0019 20.9329C22.0488 20.9134 22.1004 20.9082 22.1502 20.9181C22.2 20.9279 22.2457 20.9522 22.2817 20.988C22.3177 21.0239 22.3422 21.0695 22.3522 21.1193C22.3622 21.1691 22.3572 21.2207 22.3379 21.2676C22.3186 21.3145 22.2858 21.3547 22.2437 21.383Z" fill="white"/>
<path d="M22.5422 22.1336C22.5868 22.1335 22.6304 22.1201 22.6674 22.0953C22.7044 22.0704 22.7333 22.0351 22.7502 21.9938C22.7672 21.9526 22.7716 21.9072 22.7628 21.8635C22.754 21.8198 22.7325 21.7796 22.7009 21.7481C22.6693 21.7166 22.6291 21.6952 22.5853 21.6865C22.5415 21.6779 22.4962 21.6824 22.455 21.6995C22.4138 21.7166 22.3786 21.7455 22.3538 21.7826C22.329 21.8197 22.3158 21.8633 22.3158 21.9079C22.3158 21.9376 22.3217 21.967 22.3331 21.9945C22.3445 22.0219 22.3611 22.0468 22.3822 22.0678C22.4032 22.0887 22.4282 22.1053 22.4556 22.1166C22.4831 22.1279 22.5125 22.1337 22.5422 22.1336Z" fill="white"/>
<path d="M22.0988 22.247C22.0685 22.2673 22.0328 22.2782 21.9963 22.2782C21.9473 22.2782 21.9003 22.2588 21.8656 22.2242C21.8309 22.1895 21.8114 22.1426 21.8113 22.0936C21.8113 22.057 21.8221 22.0213 21.8424 21.991C21.8627 21.9606 21.8915 21.9369 21.9252 21.923C21.959 21.909 21.9961 21.9053 22.0319 21.9124C22.0677 21.9195 22.1006 21.937 22.1265 21.9628C22.1523 21.9886 22.1699 22.0215 22.1771 22.0573C22.1842 22.0931 22.1806 22.1303 22.1667 22.164C22.1528 22.1978 22.1292 22.2266 22.0988 22.247Z" fill="white"/>
<path d="M21.5136 21.7446C21.5582 21.7445 21.6018 21.7312 21.6388 21.7063C21.6758 21.6814 21.7046 21.6461 21.7216 21.6049C21.7386 21.5636 21.743 21.5182 21.7342 21.4745C21.7254 21.4308 21.7039 21.3906 21.6723 21.3591C21.6407 21.3276 21.6005 21.3062 21.5567 21.2975C21.5129 21.2889 21.4676 21.2934 21.4264 21.3105C21.3852 21.3276 21.35 21.3565 21.3252 21.3936C21.3004 21.4307 21.2872 21.4743 21.2872 21.5189C21.2873 21.5486 21.2932 21.578 21.3046 21.6054C21.316 21.6328 21.3326 21.6577 21.3537 21.6787C21.3747 21.6996 21.3996 21.7162 21.4271 21.7276C21.4545 21.7389 21.4839 21.7447 21.5136 21.7446Z" fill="white"/>
<path d="M20.9562 21.2085C20.9141 21.2368 20.8646 21.2519 20.8138 21.2521C20.7801 21.2521 20.7466 21.2455 20.7154 21.2326C20.6842 21.2197 20.6559 21.2009 20.632 21.177C20.6081 21.1532 20.5891 21.1249 20.5761 21.0937C20.5632 21.0625 20.5565 21.0291 20.5564 20.9954C20.5564 20.9446 20.5715 20.895 20.5997 20.8528C20.6278 20.8106 20.6679 20.7777 20.7148 20.7583C20.7616 20.7388 20.8132 20.7337 20.863 20.7435C20.9128 20.7534 20.9585 20.7778 20.9944 20.8136C21.0304 20.8494 21.0549 20.8951 21.0648 20.9449C21.0748 20.9946 21.0698 21.0462 21.0505 21.0931C21.0312 21.1401 20.9984 21.1802 20.9562 21.2085Z" fill="white"/>
<path d="M20.8032 19.3226C20.854 19.3225 20.9035 19.3073 20.9457 19.279C20.9878 19.2507 21.0206 19.2106 21.0399 19.1637C21.0592 19.1168 21.0642 19.0652 21.0543 19.0154C21.0443 18.9657 21.0198 18.92 20.9839 18.8842C20.9479 18.8483 20.9022 18.8239 20.8524 18.8141C20.8026 18.8042 20.751 18.8094 20.7042 18.8288C20.6573 18.8483 20.6173 18.8812 20.5891 18.9234C20.5609 18.9656 20.5459 19.0152 20.5459 19.0659C20.5459 19.0997 20.5526 19.1331 20.5656 19.1642C20.5785 19.1954 20.5975 19.2237 20.6214 19.2476C20.6453 19.2714 20.6736 19.2903 20.7048 19.3032C20.7361 19.316 20.7695 19.3226 20.8032 19.3226Z" fill="white"/>
<path d="M21.0418 18.3811C21.0047 18.406 20.961 18.4193 20.9163 18.4194C20.8866 18.4195 20.8572 18.4137 20.8297 18.4023C20.8023 18.391 20.7774 18.3744 20.7563 18.3534C20.7353 18.3325 20.7186 18.3076 20.7072 18.2802C20.6958 18.2528 20.69 18.2234 20.6899 18.1937C20.6898 18.149 20.703 18.1053 20.7278 18.0681C20.7526 18.0309 20.7879 18.0019 20.8291 17.9847C20.8704 17.9675 20.9158 17.963 20.9597 17.9716C21.0036 17.9803 21.0439 18.0018 21.0755 18.0333C21.1072 18.0649 21.1288 18.1051 21.1376 18.149C21.1463 18.1928 21.1419 18.2382 21.1249 18.2796C21.1078 18.3209 21.0789 18.3562 21.0418 18.3811Z" fill="white"/>
<path d="M21.1633 17.6804C21.1998 17.6803 21.2355 17.6693 21.2658 17.649C21.2961 17.6286 21.3196 17.5997 21.3335 17.566C21.3474 17.5322 21.3509 17.4951 21.3437 17.4593C21.3365 17.4235 21.3189 17.3907 21.293 17.3649C21.2672 17.3391 21.2343 17.3216 21.1985 17.3145C21.1627 17.3075 21.1256 17.3112 21.0918 17.3252C21.0581 17.3392 21.0293 17.3628 21.0091 17.3932C20.9888 17.4236 20.978 17.4592 20.978 17.4957C20.978 17.52 20.9829 17.5441 20.9922 17.5665C21.0015 17.5889 21.0152 17.6093 21.0324 17.6265C21.0496 17.6436 21.07 17.6572 21.0925 17.6665C21.115 17.6757 21.139 17.6805 21.1633 17.6804Z" fill="white"/>
<path d="M20.8562 17.2947C20.8191 17.3196 20.7754 17.333 20.7307 17.333C20.701 17.3331 20.6716 17.3273 20.6442 17.316C20.6167 17.3047 20.5917 17.2881 20.5707 17.2672C20.5497 17.2462 20.533 17.2213 20.5216 17.1939C20.5102 17.1664 20.5044 17.137 20.5044 17.1073C20.5043 17.0626 20.5175 17.0189 20.5423 16.9817C20.5671 16.9445 20.6023 16.9155 20.6436 16.8983C20.6849 16.8811 20.7303 16.8766 20.7742 16.8852C20.818 16.8939 20.8583 16.9154 20.89 16.9469C20.9216 16.9785 20.9432 17.0187 20.952 17.0626C20.9608 17.1064 20.9564 17.1519 20.9393 17.1932C20.9223 17.2345 20.8934 17.2699 20.8562 17.2947Z" fill="white"/>
<path d="M23.129 21.8164C23.1798 21.8163 23.2293 21.8011 23.2715 21.7728C23.3136 21.7445 23.3464 21.7043 23.3657 21.6574C23.385 21.6105 23.39 21.5589 23.38 21.5091C23.37 21.4593 23.3455 21.4137 23.3095 21.3778C23.2735 21.342 23.2278 21.3177 23.178 21.3079C23.1282 21.298 23.0766 21.3032 23.0297 21.3227C22.9829 21.3422 22.9428 21.3752 22.9147 21.4174C22.8866 21.4597 22.8716 21.5093 22.8716 21.56C22.8717 21.5938 22.8784 21.6272 22.8913 21.6583C22.9043 21.6895 22.9233 21.7178 22.9472 21.7416C22.9711 21.7654 22.9994 21.7843 23.0306 21.7971C23.0618 21.8099 23.0953 21.8165 23.129 21.8164Z" fill="white"/>
<path d="M20.2876 16.9893C20.2455 17.0176 20.196 17.0329 20.1452 17.033C20.1114 17.0331 20.078 17.0266 20.0467 17.0137C20.0155 17.0008 19.9871 16.982 19.9632 16.9581C19.9392 16.9343 19.9202 16.906 19.9073 16.8748C19.8943 16.8436 19.8876 16.8101 19.8875 16.7763C19.8875 16.7256 19.9026 16.676 19.9307 16.6338C19.9589 16.5916 19.9989 16.5587 20.0458 16.5393C20.0926 16.5198 20.1442 16.5147 20.1939 16.5245C20.2437 16.5343 20.2894 16.5587 20.3254 16.5945C20.3613 16.6303 20.3859 16.6759 20.3959 16.7257C20.4059 16.7754 20.4009 16.827 20.3817 16.8739C20.3624 16.9208 20.3297 16.961 20.2876 16.9893Z" fill="white"/>
<path d="M20.3199 18.1219C20.3706 18.1217 20.4202 18.1066 20.4623 18.0783C20.5045 18.05 20.5373 18.0098 20.5566 17.9629C20.5759 17.9159 20.5809 17.8643 20.5709 17.8146C20.5608 17.7648 20.5363 17.7191 20.5003 17.6833C20.4644 17.6475 20.4186 17.6231 20.3688 17.6133C20.319 17.6035 20.2674 17.6087 20.2206 17.6282C20.1737 17.6477 20.1337 17.6806 20.1055 17.7229C20.0774 17.7651 20.0624 17.8148 20.0625 17.8655C20.0627 17.9336 20.0899 17.9989 20.1381 18.0469C20.1864 18.095 20.2517 18.122 20.3199 18.1219Z" fill="white"/>
<path d="M20.2028 19.1061C20.1522 19.1401 20.0927 19.1582 20.0319 19.1584C19.9914 19.1584 19.9512 19.1505 19.9138 19.135C19.8764 19.1196 19.8424 19.0969 19.8137 19.0683C19.785 19.0397 19.7623 19.0057 19.7467 18.9683C19.7312 18.9309 19.7232 18.8908 19.7231 18.8503C19.7231 18.7894 19.7412 18.7299 19.775 18.6793C19.8088 18.6286 19.8569 18.5891 19.9131 18.5658C19.9694 18.5425 20.0313 18.5363 20.091 18.5482C20.1508 18.56 20.2057 18.5893 20.2488 18.6323C20.2919 18.6753 20.3213 18.7301 20.3332 18.7898C20.3452 18.8495 20.3392 18.9114 20.316 18.9677C20.2928 19.024 20.2534 19.0722 20.2028 19.1061Z" fill="white"/>
<path d="M19.095 19.1581C19.166 19.1577 19.2353 19.1363 19.2942 19.0965C19.3531 19.0567 19.3988 19.0004 19.4257 18.9346C19.4525 18.8689 19.4593 18.7966 19.4451 18.727C19.431 18.6574 19.3965 18.5936 19.346 18.5435C19.2956 18.4935 19.2315 18.4596 19.1617 18.446C19.092 18.4324 19.0198 18.4398 18.9543 18.4672C18.8888 18.4946 18.8328 18.5408 18.7935 18.6C18.7543 18.6592 18.7334 18.7287 18.7336 18.7997C18.7337 18.847 18.7432 18.8938 18.7614 18.9374C18.7797 18.981 18.8063 19.0206 18.8399 19.0539C18.8735 19.0872 18.9133 19.1135 18.9571 19.1314C19.0008 19.1493 19.0477 19.1584 19.095 19.1581Z" fill="white"/>
<path d="M18.2323 19.3351C18.1649 19.3804 18.0856 19.4046 18.0044 19.4048C17.9504 19.4049 17.8969 19.3944 17.847 19.3738C17.797 19.3532 17.7517 19.3229 17.7134 19.2848C17.6752 19.2466 17.6449 19.2013 17.6241 19.1515C17.6034 19.1016 17.5927 19.0481 17.5927 18.9941C17.5927 18.9129 17.6167 18.8335 17.6618 18.766C17.7069 18.6985 17.771 18.6459 17.846 18.6147C17.921 18.5836 18.0035 18.5754 18.0832 18.5912C18.1628 18.607 18.236 18.646 18.2935 18.7033C18.351 18.7607 18.3902 18.8338 18.4061 18.9134C18.4221 18.993 18.4141 19.0755 18.3831 19.1506C18.3522 19.2257 18.2997 19.2899 18.2323 19.3351Z" fill="white"/>
<path d="M16.8107 19.9896C16.906 19.9894 16.9992 19.961 17.0784 19.9079C17.1576 19.8547 17.2193 19.7793 17.2556 19.6912C17.292 19.603 17.3014 19.506 17.2827 19.4125C17.2639 19.319 17.2179 19.2332 17.1504 19.1658C17.0829 19.0984 16.997 19.0526 16.9034 19.034C16.8099 19.0155 16.7129 19.0251 16.6248 19.0617C16.5367 19.0982 16.4615 19.16 16.4085 19.2393C16.3555 19.3187 16.3273 19.4119 16.3273 19.5072C16.3274 19.6353 16.3785 19.7581 16.4691 19.8485C16.5598 19.939 16.6826 19.9897 16.8107 19.9896Z" fill="white"/>
<path d="M15.895 20.8772C15.8007 20.9405 15.6897 20.9744 15.5761 20.9747C15.5005 20.9748 15.4257 20.96 15.3558 20.9311C15.286 20.9023 15.2225 20.86 15.169 20.8066C15.1155 20.7533 15.0731 20.6899 15.0441 20.6201C15.0151 20.5503 15.0001 20.4755 15 20.3999C15 20.2863 15.0337 20.1753 15.0968 20.0808C15.1599 19.9863 15.2495 19.9126 15.3545 19.8691C15.4594 19.8255 15.5749 19.8141 15.6864 19.8361C15.7978 19.8582 15.9002 19.9128 15.9807 19.9931C16.0611 20.0733 16.116 20.1756 16.1383 20.287C16.1606 20.3984 16.1494 20.5139 16.1061 20.619C16.0628 20.724 15.9894 20.8139 15.895 20.8772Z" fill="white"/>
<path d="M16.3276 18.7889C16.423 18.7887 16.5161 18.7601 16.5953 18.707C16.6744 18.6538 16.736 18.5784 16.7723 18.4902C16.8086 18.402 16.818 18.3051 16.7992 18.2116C16.7805 18.1181 16.7344 18.0323 16.6669 17.9649C16.5994 17.8976 16.5134 17.8518 16.4199 17.8333C16.3264 17.8148 16.2294 17.8244 16.1414 17.861C16.0533 17.8975 15.978 17.9594 15.9251 18.0387C15.8721 18.118 15.8439 18.2112 15.8439 18.3065C15.844 18.37 15.8566 18.4328 15.8809 18.4913C15.9053 18.5499 15.9409 18.6031 15.9858 18.6479C16.0308 18.6927 16.0841 18.7282 16.1427 18.7524C16.2013 18.7766 16.2642 18.789 16.3276 18.7889Z" fill="white"/>
<path d="M17.7487 18.1346C17.6812 18.1798 17.6019 18.204 17.5207 18.2041C17.4117 18.2041 17.3072 18.1608 17.23 18.0838C17.1529 18.0068 17.1095 17.9024 17.1093 17.7934C17.1093 17.7122 17.1334 17.6328 17.1785 17.5653C17.2236 17.4977 17.2877 17.4451 17.3627 17.414C17.4377 17.3829 17.5203 17.3747 17.5999 17.3905C17.6796 17.4063 17.7527 17.4453 17.8102 17.5027C17.8677 17.5601 17.9068 17.6332 17.9228 17.7128C17.9387 17.7925 17.9307 17.875 17.8997 17.9501C17.8687 18.0252 17.8161 18.0893 17.7487 18.1346Z" fill="white"/>
<path d="M17.3459 17.1161C17.4271 17.1158 17.5063 17.0914 17.5737 17.046C17.641 17.0007 17.6934 16.9364 17.7242 16.8613C17.755 16.7862 17.7629 16.7037 17.7468 16.6241C17.7308 16.5445 17.6915 16.4715 17.634 16.4142C17.5764 16.357 17.5032 16.318 17.4236 16.3024C17.3439 16.2867 17.2614 16.295 17.1865 16.3262C17.1115 16.3573 17.0475 16.41 17.0025 16.4776C16.9575 16.5451 16.9335 16.6245 16.9335 16.7057C16.9336 16.7597 16.9443 16.8133 16.965 16.8632C16.9858 16.9131 17.0162 16.9584 17.0545 16.9965C17.0928 17.0346 17.1383 17.0648 17.1883 17.0853C17.2383 17.1058 17.2919 17.1163 17.3459 17.1161Z" fill="white"/>
<path d="M18.6359 16.8087C18.5769 16.8483 18.5075 16.8696 18.4364 16.8698C18.3892 16.8699 18.3424 16.8606 18.2987 16.8426C18.2551 16.8246 18.2154 16.7982 18.1819 16.7649C18.1484 16.7315 18.1219 16.6919 18.1037 16.6483C18.0855 16.6047 18.0762 16.558 18.0761 16.5107C18.076 16.4397 18.097 16.3702 18.1364 16.3111C18.1758 16.252 18.2319 16.2058 18.2975 16.1786C18.3631 16.1513 18.4353 16.1441 18.505 16.1578C18.5747 16.1715 18.6388 16.2057 18.6891 16.2558C18.7394 16.3059 18.7738 16.3699 18.7878 16.4395C18.8018 16.5092 18.7948 16.5814 18.7678 16.6471C18.7408 16.7129 18.6948 16.7691 18.6359 16.8087Z" fill="white"/>
<path d="M19.3727 16.87C19.4336 16.8699 19.4931 16.8517 19.5437 16.8178C19.5942 16.7839 19.6336 16.7357 19.6568 16.6794C19.68 16.6231 19.686 16.5612 19.6741 16.5015C19.6621 16.4418 19.6327 16.387 19.5896 16.3439C19.5465 16.3009 19.4916 16.2717 19.4319 16.2598C19.3721 16.248 19.3102 16.2541 19.254 16.2775C19.1977 16.3008 19.1497 16.3403 19.1159 16.3909C19.082 16.4416 19.064 16.5011 19.064 16.562C19.0642 16.6438 19.0968 16.7221 19.1546 16.7799C19.2125 16.8376 19.2909 16.87 19.3727 16.87Z" fill="white"/>
<path d="M19.7186 17.905C19.6681 17.9389 19.6086 17.9571 19.5477 17.9572C19.4659 17.9573 19.3875 17.925 19.3296 17.8673C19.2717 17.8096 19.2391 17.7313 19.2389 17.6495C19.2389 17.5886 19.2569 17.5291 19.2907 17.4784C19.3244 17.4277 19.3725 17.3881 19.4287 17.3648C19.485 17.3414 19.5469 17.3352 19.6066 17.347C19.6664 17.3588 19.7213 17.388 19.7645 17.431C19.8076 17.474 19.837 17.5288 19.849 17.5886C19.861 17.6483 19.855 17.7102 19.8318 17.7665C19.8086 17.8229 19.7692 17.871 19.7186 17.905Z" fill="white"/>
<path d="M18.6122 17.968C18.6833 17.9678 18.7526 17.9465 18.8116 17.9069C18.8706 17.8673 18.9165 17.8111 18.9435 17.7454C18.9706 17.6797 18.9776 17.6075 18.9636 17.5379C18.9496 17.4682 18.9153 17.4043 18.865 17.3541C18.8147 17.3039 18.7507 17.2698 18.681 17.256C18.6113 17.2422 18.5391 17.2494 18.4735 17.2766C18.4079 17.3039 18.3518 17.3499 18.3123 17.409C18.2729 17.4681 18.2518 17.5375 18.2518 17.6086C18.2519 17.6558 18.2612 17.7026 18.2794 17.7463C18.2975 17.7899 18.3241 17.8296 18.3576 17.863C18.391 17.8963 18.4307 17.9228 18.4744 17.9408C18.5181 17.9588 18.565 17.968 18.6122 17.968Z" fill="white"/>
<path d="M17.6957 20.6664C17.6655 20.6868 17.6298 20.6978 17.5933 20.6979C17.5443 20.6979 17.4972 20.6785 17.4625 20.6438C17.4277 20.6092 17.4081 20.5623 17.408 20.5132C17.408 20.4767 17.4188 20.441 17.439 20.4107C17.4593 20.3803 17.4881 20.3566 17.5218 20.3426C17.5555 20.3286 17.5926 20.3249 17.6284 20.332C17.6642 20.3391 17.6972 20.3566 17.723 20.3824C17.7489 20.4081 17.7665 20.441 17.7737 20.4768C17.7809 20.5126 17.7773 20.5497 17.7635 20.5834C17.7496 20.6172 17.726 20.6461 17.6957 20.6664Z" fill="white"/>
<path d="M18.3337 20.6054C18.3783 20.6052 18.4218 20.5918 18.4588 20.5668C18.4958 20.5419 18.5246 20.5066 18.5415 20.4653C18.5584 20.4241 18.5627 20.3787 18.5539 20.335C18.5451 20.2913 18.5235 20.2512 18.4919 20.2197C18.4603 20.1883 18.4201 20.1669 18.3764 20.1582C18.3326 20.1496 18.2873 20.1541 18.2461 20.1712C18.2049 20.1884 18.1697 20.2173 18.145 20.2544C18.1202 20.2915 18.107 20.3351 18.107 20.3797C18.107 20.4094 18.1129 20.4388 18.1244 20.4662C18.1358 20.4936 18.1525 20.5185 18.1735 20.5395C18.1946 20.5605 18.2196 20.5771 18.2471 20.5884C18.2745 20.5997 18.304 20.6054 18.3337 20.6054Z" fill="white"/>
<path d="M19.2894 20.2541C19.2472 20.2823 19.1976 20.2974 19.1469 20.2975C19.0788 20.2975 19.0134 20.2705 18.9652 20.2223C18.917 20.1742 18.8899 20.1089 18.8898 20.0408C18.8898 19.99 18.9049 19.9404 18.9331 19.8982C18.9613 19.856 19.0013 19.8231 19.0482 19.8037C19.0951 19.7842 19.1467 19.7791 19.1965 19.789C19.2463 19.7989 19.292 19.8233 19.3279 19.8592C19.3639 19.895 19.3883 19.9407 19.3983 19.9905C19.4082 20.0403 19.4032 20.0919 19.3838 20.1388C19.3644 20.1857 19.3316 20.2258 19.2894 20.2541Z" fill="white"/>
<path d="M19.3423 21.1187C19.4032 21.1187 19.4627 21.1006 19.5133 21.0667C19.5639 21.0328 19.6033 20.9847 19.6266 20.9284C19.6499 20.8721 19.6559 20.8101 19.644 20.7504C19.6321 20.6907 19.6027 20.6358 19.5596 20.5928C19.5165 20.5497 19.4616 20.5204 19.4019 20.5086C19.3421 20.4967 19.2802 20.5028 19.224 20.5261C19.1677 20.5495 19.1196 20.589 19.0858 20.6396C19.0519 20.6903 19.0339 20.7498 19.0339 20.8107C19.0341 20.8924 19.0666 20.9707 19.1244 21.0284C19.1822 21.0862 19.2606 21.1187 19.3423 21.1187Z" fill="white"/>
<path d="M18.4968 21.2701C18.4546 21.2983 18.405 21.3134 18.3543 21.3135C18.2861 21.3135 18.2208 21.2865 18.1726 21.2383C18.1244 21.1902 18.0973 21.1249 18.0972 21.0568C18.0972 21.006 18.1123 20.9564 18.1405 20.9142C18.1687 20.872 18.2087 20.8391 18.2556 20.8197C18.3025 20.8002 18.3541 20.7951 18.4039 20.805C18.4537 20.8149 18.4994 20.8393 18.5353 20.8752C18.5712 20.911 18.5957 20.9567 18.6057 21.0065C18.6156 21.0563 18.6106 21.1079 18.5912 21.1548C18.5718 21.2017 18.539 21.2418 18.4968 21.2701Z" fill="white"/>
<path d="M17.4797 21.3032C17.5243 21.303 17.5679 21.2897 17.6049 21.2648C17.6419 21.2399 17.6708 21.2046 17.6877 21.1634C17.7047 21.1221 17.7091 21.0768 17.7003 21.033C17.6915 20.9893 17.67 20.9491 17.6384 20.9176C17.6068 20.8861 17.5666 20.8647 17.5228 20.8561C17.4791 20.8474 17.4337 20.8519 17.3925 20.869C17.3513 20.8861 17.3161 20.915 17.2913 20.9521C17.2666 20.9893 17.2533 21.0329 17.2533 21.0775C17.2534 21.1072 17.2593 21.1365 17.2707 21.1639C17.2821 21.1913 17.2988 21.2162 17.3198 21.2372C17.3408 21.2582 17.3657 21.2748 17.3932 21.2861C17.4206 21.2974 17.45 21.3032 17.4797 21.3032Z" fill="white"/>
<path d="M17.6328 21.9681C17.5907 21.9964 17.5411 22.0116 17.4904 22.0117C17.4566 22.0118 17.4232 22.0052 17.392 21.9923C17.3608 21.9794 17.3324 21.9605 17.3085 21.9367C17.2846 21.9128 17.2656 21.8845 17.2527 21.8534C17.2397 21.8222 17.233 21.7888 17.233 21.755C17.233 21.7043 17.248 21.6547 17.2762 21.6125C17.3044 21.5703 17.3444 21.5374 17.3913 21.5179C17.4382 21.4985 17.4898 21.4934 17.5395 21.5032C17.5893 21.5131 17.635 21.5374 17.671 21.5733C17.7069 21.6091 17.7314 21.6548 17.7414 21.7045C17.7514 21.7543 17.7464 21.8059 17.727 21.8528C17.7077 21.8997 17.6749 21.9398 17.6328 21.9681Z" fill="white"/>
<path d="M18.5394 22.1449C18.6003 22.1448 18.6598 22.1266 18.7103 22.0927C18.7609 22.0587 18.8003 22.0106 18.8235 21.9543C18.8467 21.898 18.8527 21.8361 18.8408 21.7764C18.8288 21.7167 18.7994 21.6618 18.7563 21.6188C18.7132 21.5758 18.6583 21.5465 18.5986 21.5347C18.5388 21.5229 18.4769 21.529 18.4207 21.5523C18.3644 21.5757 18.3164 21.6152 18.2826 21.6658C18.2487 21.7164 18.2307 21.776 18.2307 21.8369C18.2307 21.8774 18.2387 21.9175 18.2543 21.9549C18.2698 21.9923 18.2926 22.0262 18.3212 22.0548C18.3499 22.0834 18.3839 22.1061 18.4214 22.1216C18.4588 22.137 18.4989 22.145 18.5394 22.1449Z" fill="white"/>
<path d="M19.9634 21.9509C19.9044 21.9904 19.8349 22.0115 19.7639 22.0116C19.6685 22.0115 19.5771 21.9736 19.5097 21.9063C19.4423 21.8389 19.4043 21.7475 19.4041 21.6522C19.4041 21.5812 19.4252 21.5117 19.4647 21.4526C19.5042 21.3935 19.5603 21.3474 19.6259 21.3202C19.6916 21.293 19.7638 21.2859 19.8335 21.2997C19.9032 21.3136 19.9673 21.3478 20.0175 21.398C20.0678 21.4482 20.1021 21.5122 20.116 21.5819C20.1299 21.6516 20.1228 21.7238 20.0956 21.7895C20.0685 21.8552 20.0225 21.9113 19.9634 21.9509Z" fill="white"/>
<path d="M20.4848 22.9045C20.566 22.9043 20.6453 22.88 20.7127 22.8347C20.7802 22.7895 20.8326 22.7252 20.8636 22.6501C20.8945 22.5751 20.9025 22.4925 20.8865 22.4129C20.8705 22.3333 20.8313 22.2602 20.7737 22.2028C20.7162 22.1455 20.643 22.1065 20.5633 22.0908C20.4837 22.0751 20.4011 22.0833 20.3262 22.1145C20.2512 22.1456 20.1871 22.1983 20.1421 22.2659C20.097 22.3335 20.073 22.4129 20.0731 22.4941C20.0732 22.548 20.0839 22.6015 20.1046 22.6513C20.1253 22.7012 20.1557 22.7464 20.1939 22.7845C20.2322 22.8226 20.2775 22.8528 20.3274 22.8734C20.3773 22.894 20.4308 22.9045 20.4848 22.9045Z" fill="white"/>
<path d="M19.1707 22.967C19.1116 23.0064 19.0423 23.0275 18.9712 23.0276C18.9239 23.0276 18.8771 23.0182 18.8334 23C18.7897 22.9819 18.75 22.9553 18.7166 22.9218C18.6832 22.8883 18.6567 22.8485 18.6387 22.8048C18.6207 22.7611 18.6114 22.7142 18.6115 22.6669C18.6118 22.5959 18.6331 22.5265 18.6727 22.4676C18.7124 22.4087 18.7686 22.3628 18.8342 22.3358C18.8999 22.3088 18.9721 22.3019 19.0417 22.3159C19.1113 22.3299 19.1752 22.3642 19.2254 22.4144C19.2755 22.4647 19.3096 22.5287 19.3234 22.5984C19.3372 22.668 19.3301 22.7402 19.3029 22.8058C19.2757 22.8714 19.2297 22.9275 19.1707 22.967Z" fill="white"/>
<path d="M18.1174 23.7254C18.1885 23.7252 18.258 23.7039 18.3169 23.6643C18.3759 23.6246 18.4218 23.5684 18.4489 23.5026C18.4759 23.4369 18.4828 23.3646 18.4687 23.2949C18.4547 23.2253 18.4203 23.1613 18.3699 23.1112C18.3195 23.0611 18.2553 23.027 18.1856 23.0134C18.1158 22.9997 18.0436 23.007 17.978 23.0344C17.9124 23.0618 17.8564 23.108 17.8171 23.1672C17.7778 23.2264 17.7569 23.2959 17.7571 23.367C17.7574 23.4623 17.7956 23.5536 17.8631 23.6208C17.9307 23.6879 18.0222 23.7256 18.1174 23.7254Z" fill="white"/>
<path d="M19.0556 24.5589C18.9882 24.6041 18.9088 24.6283 18.8276 24.6284C18.7187 24.6285 18.6141 24.5853 18.537 24.5084C18.4598 24.4314 18.4164 24.327 18.4162 24.218C18.4162 24.1368 18.4402 24.0574 18.4852 23.9898C18.5303 23.9223 18.5944 23.8696 18.6694 23.8384C18.7444 23.8073 18.8269 23.799 18.9066 23.8148C18.9863 23.8306 19.0595 23.8696 19.117 23.9269C19.1745 23.9843 19.2137 24.0574 19.2297 24.1371C19.2456 24.2167 19.2376 24.2993 19.2066 24.3744C19.1756 24.4494 19.1231 24.5136 19.0556 24.5589Z" fill="white"/>
<path d="M20.7212 24.7929C20.8165 24.7927 20.9097 24.7642 20.9888 24.711C21.068 24.6578 21.1296 24.5824 21.1659 24.4942C21.2022 24.4061 21.2116 24.3091 21.1928 24.2156C21.174 24.1221 21.128 24.0363 21.0605 23.969C20.993 23.9016 20.907 23.8558 20.8135 23.8373C20.7199 23.8188 20.623 23.8284 20.5349 23.865C20.4469 23.9016 20.3716 23.9634 20.3187 24.0427C20.2657 24.122 20.2375 24.2152 20.2374 24.3105C20.2375 24.374 20.25 24.4368 20.2744 24.4954C20.2987 24.554 20.3344 24.6072 20.3793 24.652C20.4242 24.6968 20.4776 24.7323 20.5362 24.7565C20.5949 24.7807 20.6577 24.7931 20.7212 24.7929Z" fill="white"/>
<path d="M19.9095 23.8609C19.8421 23.9062 19.7628 23.9304 19.6816 23.9306C19.6276 23.9307 19.5741 23.9202 19.5242 23.8996C19.4743 23.879 19.429 23.8488 19.3907 23.8107C19.3525 23.7726 19.3222 23.7273 19.3014 23.6775C19.2807 23.6277 19.27 23.5742 19.2699 23.5202C19.2698 23.439 19.2938 23.3596 19.3389 23.2921C19.3839 23.2245 19.448 23.1718 19.523 23.1406C19.5979 23.1095 19.6805 23.1012 19.7601 23.117C19.8398 23.1327 19.913 23.1717 19.9705 23.229C20.0281 23.2863 20.0673 23.3594 20.0833 23.439C20.0993 23.5187 20.0913 23.6012 20.0604 23.6763C20.0294 23.7514 19.977 23.8156 19.9095 23.8609Z" fill="white"/>
<path d="M21.5135 23.7672C21.6088 23.767 21.702 23.7385 21.7812 23.6854C21.8604 23.6323 21.9221 23.5569 21.9584 23.4687C21.9948 23.3805 22.0042 23.2836 21.9855 23.1901C21.9667 23.0966 21.9207 23.0107 21.8532 22.9433C21.7857 22.876 21.6998 22.8301 21.6062 22.8116C21.5127 22.7931 21.4157 22.8027 21.3276 22.8392C21.2395 22.8757 21.1643 22.9376 21.1113 23.0169C21.0583 23.0962 21.0301 23.1894 21.0301 23.2848C21.0301 23.3482 21.0426 23.411 21.067 23.4696C21.0913 23.5281 21.1269 23.5814 21.1718 23.6262C21.2167 23.6709 21.27 23.7065 21.3286 23.7307C21.3872 23.7549 21.45 23.7673 21.5135 23.7672Z" fill="white"/>
<path d="M17.8569 22.7907C17.8064 22.8247 17.747 22.8429 17.6861 22.8431C17.6456 22.8432 17.6054 22.8353 17.5679 22.8199C17.5305 22.8044 17.4964 22.7818 17.4677 22.7532C17.439 22.7246 17.4162 22.6906 17.4007 22.6532C17.3851 22.6157 17.3771 22.5756 17.377 22.5351C17.377 22.4742 17.3951 22.4147 17.4289 22.3641C17.4627 22.3134 17.5107 22.2739 17.567 22.2506C17.6232 22.2273 17.6851 22.2211 17.7448 22.2329C17.8045 22.2447 17.8594 22.2739 17.9025 22.3169C17.9457 22.3599 17.9751 22.4147 17.9871 22.4744C17.9991 22.5341 17.9931 22.596 17.97 22.6523C17.9468 22.7086 17.9075 22.7568 17.8569 22.7907Z" fill="white"/>
</svg>
