<svg width="32" height="32" viewBox="0 0 32 32" fill="none" xmlns="http://www.w3.org/2000/svg">
<path d="M2 12C2 6.47715 6.47715 2 12 2C17.5228 2 22 6.47715 22 12C22 17.5228 17.5228 22 12 22C6.47715 22 2 17.5228 2 12Z" fill="white"/>
<path fill-rule="evenodd" clip-rule="evenodd" d="M11.5771 2C9.65112 2.11099 7.87268 2.76699 6.39154 3.81453H17.9315C16.4502 2.76699 14.6718 2.11099 12.7458 2H12.4381H11.5771ZM4.43606 5.62859C3.97754 6.18581 3.58024 6.79436 3.24998 7.44295L15.2747 7.44308H21.0731C20.7426 6.79453 20.3457 6.18594 19.8868 5.62872L15.4457 5.62859H4.43606ZM2.04126 11.0899C2.09586 10.4669 2.20835 9.8608 2.37261 9.27587H21.6137C21.778 9.86067 21.8905 10.4669 21.9453 11.0899H2.04126ZM2.04504 12.9048C2.10293 13.5281 2.21955 14.1342 2.3871 14.7188H21.5994C21.7671 14.1342 21.8836 13.528 21.9415 12.9048H2.04504ZM4.31022 18.3477C3.846 17.7911 3.44305 17.1825 3.10773 16.5333H15.7202L20.8787 16.5333C20.5434 17.1825 20.1404 17.7911 19.6762 18.3477H14.8111L4.31022 18.3477ZM11.5704 21.9656L11.6007 21.9667L11.631 21.9678C11.7512 21.9721 11.8718 21.975 11.9931 21.975C14.1117 21.975 16.0748 21.3037 17.6915 20.1625L14.4801 20.1625H6.29507C7.80338 21.2274 9.61384 21.8828 11.5704 21.9656Z" fill="#F44336"/>
<path d="M11.7865 2.00513C6.66552 2.1093 2.49168 6.06321 2.04248 11.0926H11.7867V2.00513H11.7865Z" fill="#283991"/>
<path d="M3.99968 7.64995L4.15191 8.11774H4.64516L4.24613 8.407L4.39854 8.87513L3.99968 8.58569L3.60094 8.87513L3.75305 8.407L3.35415 8.11774H3.8474L3.99968 7.64995Z" fill="#EFEFEF"/>
<path d="M3.99968 9.30262L4.15191 9.77071H4.64516L4.24613 10.06L4.39854 10.5281L3.99968 10.2387L3.60094 10.5281L3.75305 10.06L3.35415 9.77071H3.8474L3.99968 9.30262Z" fill="#EFEFEF"/>
<path d="M5.65611 5.17033L5.80839 5.63828H6.30147L5.90257 5.92772L6.05484 6.39551L5.65611 6.10641L5.25721 6.39551L5.40949 5.92772L5.01041 5.63828H5.50366L5.65611 5.17033Z" fill="#EFEFEF"/>
<path d="M5.65611 6.8233L5.80839 7.29125H6.30147L5.90257 7.58035L6.05484 8.04848L5.65611 7.75938L5.25721 8.04848L5.40949 7.58035L5.01041 7.29125H5.50366L5.65611 6.8233Z" fill="#EFEFEF"/>
<path d="M5.65611 8.47627L5.80839 8.94439H6.30147L5.90257 9.23332L6.05484 9.70145L5.65611 9.41206L5.25721 9.70145L5.40949 9.23332L5.01041 8.94439H5.50366L5.65611 8.47627Z" fill="#EFEFEF"/>
<path d="M2.74208 9.70144L2.58967 9.23332L2.98858 8.94422H2.49562L2.48457 8.91007C2.43043 9.07715 2.38153 9.24624 2.33643 9.41723L2.34339 9.41205L2.74208 9.70144Z" fill="#EFEFEF"/>
<path d="M3.60093 7.22216L3.99966 6.93277L4.39857 7.22216L4.24616 6.75403L4.64506 6.46464H4.15182L3.99954 5.99685L3.84726 6.46464H3.66549C3.63173 6.51567 3.59907 6.567 3.56625 6.61879L3.75308 6.75403L3.60093 7.22216Z" fill="#EFEFEF"/>
<path d="M5.65612 4.45344L6.05486 4.74254L5.90258 4.27475L6.30131 3.98536H6.0165C5.7746 4.16582 5.54123 4.35681 5.31701 4.55833L5.25688 4.74254L5.65612 4.45344Z" fill="#EFEFEF"/>
<path d="M6.91368 3.91622L7.31258 3.62683L7.71132 3.91622L7.55904 3.44809L7.95777 3.159H7.46469L7.44402 3.09601C7.27693 3.18119 7.11157 3.26982 6.94997 3.36413L7.06579 3.44805L6.91368 3.91622Z" fill="#EFEFEF"/>
<path d="M7.31256 4.34401L7.46484 4.81167H7.95792L7.55902 5.10106L7.7113 5.56919L7.31256 5.27976L6.91366 5.56919L7.06594 5.10106L6.66691 4.81167H7.16011L7.31256 4.34401Z" fill="#EFEFEF"/>
<path d="M7.31256 5.99698L7.46484 6.46464H7.95792L7.55902 6.75403L7.7113 7.22216L7.31256 6.93273L6.91366 7.22216L7.06594 6.75403L6.66691 6.46464H7.16011L7.31256 5.99698Z" fill="#EFEFEF"/>
<path d="M7.31256 7.64995L7.46484 8.11774H7.95792L7.55902 8.407L7.7113 8.87513L7.31256 8.58569L6.91366 8.87513L7.06594 8.407L6.66691 8.11774H7.16011L7.31256 7.64995Z" fill="#EFEFEF"/>
<path d="M7.31256 9.30262L7.46484 9.77071H7.95792L7.55902 10.06L7.7113 10.5281L7.31256 10.2387L6.91366 10.5281L7.06594 10.06L6.66691 9.77071H7.16011L7.31256 9.30262Z" fill="#EFEFEF"/>
<path d="M8.96902 3.51736L9.1213 3.98532H9.61438L9.21564 4.27475L9.36775 4.74254L8.96902 4.45345L8.56999 4.74254L8.72239 4.27475L8.32336 3.98532H8.81657L8.96902 3.51736Z" fill="#EFEFEF"/>
<path d="M8.96902 5.17033L9.1213 5.63828H9.61438L9.21564 5.92772L9.36775 6.39551L8.96902 6.10641L8.56999 6.39551L8.72239 5.92772L8.32336 5.63828H8.81657L8.96902 5.17033Z" fill="#EFEFEF"/>
<path d="M8.96902 6.8233L9.1213 7.29125H9.61438L9.21564 7.58035L9.36775 8.04848L8.96902 7.75938L8.56999 8.04848L8.72239 7.58035L8.32336 7.29125H8.81657L8.96902 6.8233Z" fill="#EFEFEF"/>
<path d="M8.96902 8.47627L9.1213 8.94439H9.61438L9.21564 9.23332L9.36775 9.70145L8.96902 9.41206L8.56999 9.70145L8.72239 9.23332L8.32336 8.94439H8.81657L8.96902 8.47627Z" fill="#EFEFEF"/>
<path d="M10.6255 2.69104L10.7778 3.159H11.2708L10.8719 3.44809L11.0242 3.91622L10.6255 3.62679L10.2264 3.91622L10.3788 3.44809L9.97982 3.159H10.4729L10.6255 2.69104Z" fill="#EFEFEF"/>
<path d="M10.6255 4.34401L10.7778 4.81167H11.2708L10.8719 5.10106L11.0242 5.56919L10.6255 5.27976L10.2264 5.56919L10.3788 5.10106L9.97982 4.81167H10.4729L10.6255 4.34401Z" fill="#EFEFEF"/>
<path d="M10.6255 5.99698L10.7778 6.46464H11.2708L10.8719 6.75403L11.0242 7.22216L10.6255 6.93273L10.2264 7.22216L10.3788 6.75403L9.97982 6.46464H10.4729L10.6255 5.99698Z" fill="#EFEFEF"/>
<path d="M10.6255 7.64995L10.7778 8.11774H11.2708L10.8719 8.407L11.0242 8.87513L10.6255 8.58569L10.2264 8.87513L10.3788 8.407L9.97982 8.11774H10.4729L10.6255 7.64995Z" fill="#EFEFEF"/>
<path d="M10.6255 9.30262L10.7778 9.77071H11.2708L10.8719 10.06L11.0242 10.5281L10.6255 10.2387L10.2264 10.5281L10.3788 10.06L9.97982 9.77071H10.4729L10.6255 9.30262Z" fill="#EFEFEF"/>
<path d="M10 20C10 14.4772 14.4772 10 20 10C25.5228 10 30 14.4772 30 20C30 25.5228 25.5228 30 20 30C14.4772 30 10 25.5228 10 20Z" fill="#101010"/>
<path d="M16.6187 20.0014C16.6187 19.5288 16.8977 19.1748 17.3638 19.1748C17.8307 19.1748 18.1098 19.5248 18.1098 19.9998C18.1098 20.4748 17.8299 20.8256 17.3638 20.8256C16.8977 20.8256 16.6187 20.474 16.6187 20.0014Z" fill="white"/>
<path fill-rule="evenodd" clip-rule="evenodd" d="M16.4645 16.4645C17.4021 15.5268 18.6739 15 20 15C21.3261 15 22.5979 15.5268 23.5355 16.4645C24.4732 17.4021 25 18.6739 25 20C25 21.3261 24.4732 22.5979 23.5355 23.5355C22.5979 24.4732 21.3261 25 20 25C18.6739 25 17.4021 24.4732 16.4645 23.5355C15.5268 22.5979 15 21.3261 15 20C15 18.6739 15.5268 17.4021 16.4645 16.4645ZM16.1694 20C16.1694 20.7032 16.6323 21.2508 17.3637 21.2508C18.096 21.2508 18.5589 20.6992 18.5589 20C18.5589 19.3008 18.0952 18.7476 17.3637 18.7476C16.6323 18.7476 16.1694 19.2968 16.1694 20ZM20.8984 21.1895H21.3153L21.321 18.8073H20.7565L20.096 20.6282L19.4355 18.8073H18.871V21.1895H19.2742V19.5113L19.8879 21.1895H20.2863L20.8984 19.5113V21.1895ZM23.4065 20.325C23.3661 20.6742 23.1129 20.8355 22.7903 20.8355H22.7887C22.3258 20.8355 22.0677 20.4952 22.0677 20.0048C22.0677 19.546 22.2952 19.1677 22.779 19.1677C23.0952 19.1677 23.3508 19.3315 23.3782 19.6H23.8306C23.7694 19.0556 23.3573 18.7524 22.7927 18.7524C21.996 18.7524 21.625 19.3653 21.625 20.0185C21.625 20.7202 22.054 21.2508 22.721 21.2508C23.1121 21.2508 23.3306 21.0702 23.4185 20.9177V21.1895H23.8306V19.9129H22.721V20.325H23.4065Z" fill="white"/>
</svg>
